<svg viewBox="0 0 1244 1083.753" xmlns="http://www.w3.org/2000/svg"><path d="M828 1H172q-30 0-55 14.5T77.5 55Q63 80 63 110v469q0 30 14.5 55t39.5 39.5q25 14.5 55 14.5h203v34q-18-6-35 2t-24 25l-97-12v-2q0-6-4.5-10.5T203 720h-94q-6 0-10.5 4.5T94 735v157q0 6 4.5 10.5T109 907h94q7 0 11.5-4.5T219 892v-2l94-10v29h-17q-19 0-32.5 13.5T250 955q0 19 13.5 32.5T296 1001h408q19 0 32.5-13.5T750 955q0-19-13.5-32.5T704 909h-16v-33q26 0 44-18.5t18-44q0-25.5-18-44T685 751q-7-18-24-26.5t-36-2.5v-34h203q30 0 55-14.5t40-40q15-25.5 15-54.5V110q0-29-15-54.5t-40-40Q858 1 828 1zM531 688v63h-62v-63h62zm63 185v36H406v-36q8 3 16 3h82q61 0 72-.5t17-2.5h1zm-128-28q2-6 2.5-12t.5-27v-24h62v24q0 21 .5 27t2.5 12h-68zm-28-16q0 7-4.5 11.5T422 845q-7 0-11.5-4.5T406 829V688h32v141zm-313 47V751h63v125h-63zm94-17v-90l94 11v68l-94 11zm500-46q0 13-9 22.5t-22 9.5v-63q13 0 22 9t9 22zm-78-62q6 0 10.5 4.5T656 767v158q0 7 4.5 11.5T672 941h32q6 0 10.5 4t4.5 10q0 6-4.5 10.5T704 970H296q-6 0-10.5-4.5T281 955q0-6 4.5-10t10.5-4h32q7 0 11.5-4.5T344 925V767q0-7 4.5-11.5T359 751q6 0 11 4.5t5 11.5v158q0 7 4.5 11.5T391 941h218q7 0 11.5-4.5T625 925V767q0-7 4.5-11.5T641 751zm-47 78q0 7-4.5 11.5T578 845q-7 0-11-4.5t-4-11.5V688h31v141zm312-250q0 32-23 55t-55 23H172q-32 0-55-23t-23-55V110q0-32 23-55t55-23h656q32 0 55 23t23 55v469zM828 63H484q-19 0-32.5 14T438 110v344q0 19 13.5 33t32.5 14h344q20 0 33.5-14t13.5-33V110q0-20-13.5-33.5T828 63zm16 391q0 7-4.5 11.5T828 470H484q-6 0-10.5-4.5T469 454V110q0-6 4.5-10.5T484 95h344q7 0 11.5 4.5T844 110v344zM328 63H172q-19 0-33 13.5T125 110v188q0 19 14 33t33 14h156q20 0 33.5-14t13.5-33V110q0-20-13.5-33.5T328 63zm16 235q0 6-4.5 10.5T328 313H172q-7 0-11.5-4.5T156 298V110q0-6 4.5-10.5T172 95h156q7 0 11.5 4.5T344 110v188zm-94 78q-34 0-62.5 17T142 438.5Q125 467 125 501t17 62.5q17 28.5 45.5 45.5t62.5 17q34 0 62.5-17t45.5-45.5q17-28.5 17-62.5t-17-62.5Q341 410 312.5 393T250 376zm0 219q-39 0-66.5-27.5T156 501q0-39 27.5-66.5T250 407q39 0 66.5 27.5T344 501q0 39-27.5 66.5T250 595zm22-138q-4 4-4 10.5t4 11.5q9 9 9 22t-9 22q-9 9-22 9t-22-9q-9-9-9-22t9-22q5-5 5-11.5t-4.5-11q-4.5-4.5-11-4.5t-11.5 5q-19 19-18.5 44t18 43.5Q223 563 250 563t44.5-18.5q17.5-18.5 18-43.5T294 457q-4-5-10.5-5t-11.5 5zm-22-1q7 0 11.5-4.5T266 440v-7q0-7-4.5-11.5T250 417q-7 0-11.5 4.5T234 433v7q0 7 4.5 11.5T250 456zm-47-330q-6 0-10.5 4.5T188 142v31q0 6 4.5 10.5T203 188q6 0 11-4.5t5-10.5v-31q0-7-4.5-11.5T203 126zm0 94q-6 0-10.5 4.5T188 235v32q0 6 4.5 10.5T203 282q6 0 11-4.5t5-10.5v-32q0-6-4.5-10.5T203 220zm375 312h-94q-19 0-32.5 14T438 579q0 19 13.5 33t32.5 14h94q20 0 33.5-14t13.5-33.5q0-19.5-13.5-33T578 532zm0 63h-94q-6 0-10.5-4.5T469 579q0-7 4.5-11.5T484 563h94q7 0 11.5 4.5T594 579q0 7-4.5 11.5T578 595zm250-63h-94q-19 0-32.5 14T688 579q0 19 13.5 33t32.5 14h94q20 0 33.5-14t13.5-33.5q0-19.5-13.5-33T828 532zm0 63h-94q-6 0-10.5-4.5T719 579q0-7 4.5-11.5T734 563h94q7 0 11.5 4.5T844 579q0 7-4.5 11.5T828 595zM656 126q-42 0-78 21t-57 57q-21 36-21 78t21 78q21 36 57 57t78 21q42 0 78-21t57.5-57q21.5-36 21.5-78t-21.5-78Q770 168 734 147t-78-21zm0 281q-34 0-62.5-17T548 344.5Q531 316 531 282t17-62.5q17-28.5 45.5-45.5t62.5-17q34 0 62.5 17t45.5 45.5q17 28.5 17 62.5t-17 62.5Q747 373 718.5 390T656 407zm0-219q-38 0-65.5 28T563 282q0 7 4.5 11.5T578 298q6 0 11-4.5t5-11.5q0-26 18.5-44t43.5-18q7 0 11.5-4.5T672 204q0-7-4.5-11.5T656 188z"/></svg>