<svg viewBox="0 0 1244 1083.753" xmlns="http://www.w3.org/2000/svg"><path d="M760 392h-51q-2-56-32-103t-78-73q-4-42-76-91 18-11 18-33 0-13-8.5-24T511 54V10q0-4-2.5-6.5t-6-2.5q-3.5 0-6 2.5T494 10v44q-13 3-21.5 14T464 92q0 22 18 33-73 49-77 91-47 26-77 73t-32 103h-51q-17 0-29 11.5T204 432v13q0 17 12 28.5t29 11.5h47v378h-47q-17 0-29 12t-12 29v12q0 17 12 29t29 12h47v35q0 4 2.5 6.5t6.5 2.5h403q4 0 6-2.5t2-6.5v-35h48q17 0 29-12t12-29v-12q0-17-12-29t-29-12h-48V485h48q17 0 29-11.5t12-28.5v-13q0-17-12-28.5T760 392zM502 70q9 0 15.5 6.5T524 92q0 9-6.5 15.5T502 114q-9 0-15-6.5T481 92q0-9 6-15.5t15-6.5zm0 62q23 14 43 31 27 24 35 44-36-15-77.5-15T425 207q8-20 35-44 18-16 42-31zm0 77q37 0 70.5 13.5T631 260h-34q-3 0-5.5 2.5T589 269q0 4 2.5 6t5.5 2h51q21 28 32 56H569q-8 0-8 8 0 4 2 6.5t6 2.5h116q5 17 7 42H313q2-50 28-92t68.5-66.5Q452 209 502 209zm193 775H310v-27h385v27zm89-80v3h-45q-3 0-5.5 2.5T731 916q0 4 2.5 6.5t5.5 2.5h43q-2 6-8.5 10.5T760 940H245q-10 0-17-7t-7-17v-12q0-10 7-17t17-7h515q10 0 17 7t7 17zm-364-41h-38V734q0-4-2-6.5t-6-2.5q-4 0-6.5 2.5T365 734v129h-10V645q0-13 9.5-22.5T388 613q14 0 23 9t9 23v218zm115 0h-29v-97q0-4-2.5-6t-5.5-2q-3 0-6 2t-3 6v97h-19V561q0-13 9.5-23t23-10q13.5 0 23 9.5T535 561v302zm115 0h-8V728q0-4-2.5-6.5t-6-2.5q-3.5 0-6 2.5T625 728v135h-40V645q0-14 9.5-23t23-9q13.5 0 23 9.5T650 645v218zm45 0h-28V645q0-20-15-34.5T617 596q-20 0-34.5 14.5T568 645v218h-16V561q0-21-14.5-35.5t-35-14.5q-20.5 0-35 14.5T453 561v302h-16V645q0-20-14.5-34.5t-35-14.5q-20.5 0-35 14.5T338 645v218h-28V525h79q4 0 6-2.5t2-6q0-3.5-2-6t-6-2.5h-79v-23h385v378zm89-418q0 10-7 16.5t-17 6.5H245q-9 0-15.5-5.5T221 449h108q3 0 5.5-2t2.5-6q0-4-2.5-6.5T329 432H221q0-10 7-16.5t17-6.5h515q10 0 17 6.5t7 16.5v13zm-591 38q-3-2-6.5-1.5T181 485q-19 27-30 70.5t-11 94q0 50.5 11 94t30 70.5q2 4 7 4 1 0 5-2 6-4 2-12-18-26-28-66.5t-10-88q0-47.5 10-88.5t28-66q2-3 1.5-7t-3.5-5zm-88 166q0-61 13-113t36-84q2-3 1.5-7t-3.5-5.5q-3-1.5-6.5-1T140 442q-25 34-38.5 89T88 649.5Q88 713 101.5 768t38.5 89q2 4 7 4 1 0 5-2 6-4 2-12-23-32-36-84.5T105 649zm-54 0q0-80 17-149t47-111q2-3 1.5-7t-3.5-5.5q-3-1.5-6.5-1T101 379q-31 44-49 115.5T34 649q0 83 18 155t49 116q4 4 7 4t5.5-2q2.5-2 3-5.5T115 910q-30-43-47-112T51 649zm768-164q-1-3-5-3.5t-6.5 1q-2.5 1.5-3 5.5t.5 7q18 25 28 66t10 88.5q0 47.5-10 88T805 804q-3 7 2 12 4 2 5 2 5 0 7-4 20-27 31-71t11-93.5q0-49.5-11-93.5t-31-71zm41-43q-1-3-5-3.5t-6.5 1q-2.5 1.5-3 5.5t.5 7q23 32 36 84t13 113q0 61-13 113.5T846 847q-3 7 2 12 4 2 5 2 5 0 7-4 25-34 38.5-89T912 649.5q0-63.5-13.5-118.5T860 442zm39-63q-2-3-5.5-3.5t-6.5 1q-3 1.5-3.5 5.5t1.5 7q30 42 47 111t17 149q0 80-17 149t-47 112q-2 3-1.5 6.5t3 5.5q2.5 2 5.5 2t7-4q31-44 49-116t18-155q0-83-18-154.5T899 379z"/></svg>