<svg viewBox="0 0 1244 1083.753" xmlns="http://www.w3.org/2000/svg"><path d="M966 553q-16-18-38.5-20T887 547l-8 6q-3-15-12-25-15-18-38.5-20T787 521l-6 6q-3-15-13-25-15-18-38-20t-41 13l-113 96q-7-3-18-3H356q-69 0-128 38t-89 99l-6 15L21 881q-4 5-3.5 11t5.5 9.5q5 3.5 9 3.5 8 0 11-6l114-142 9-19q26-55 77.5-87.5T356 618h202q16 0 27 10.5t11 26.5q0 16-12 27t-26 11H427q-6 0-10.5 4t-4.5 10q0 6 4.5 10.5T427 722h130q27 0 48-19 4-4 5-6h124q20 0 36-13l135-115q9-8 19.5-7t19.5 10q6 9 6 20-2 13-10 18L727 792q-32 25-71 30l-38 5q-6 1-10 5.5t-3 10.5q1 6 5 9.5t9 3.5l41-5q50-6 85-37l214-181q18-15 20-39t-13-41zm-258-35q8-8 19.5-7t18.5 9.5q7 8.5 6.5 19T745 557L625 659v-4q0-14-5.5-27T604 606l104-88zm-49 150l147-125q9-7 20-6t18 9q7 8 6 20t-9 19l-90 77q-7 6-17 6h-75zM555 834l-138 17q-6 0-9 5l-98 117q-4 5-3.5 11t6 10q5.5 4 8.5 4 8 0 11-6l95-113 132-15q6-1 10-6t3-11q-1-6-6-10t-11-3zM261 447h35l23 50q3 8 10 12.5t15 4.5q18 0 26-17l23-50h75q6 0 10-4.5t4-10.5q0-6-4-10.5t-10-4.5h-85q-9 0-13 9l-26 56-25-56q-4-9-13-9h-45q-37 0-64-27t-27-64V121q0-38 27-64.5T261 30h329q38 0 64.5 26.5T681 121v205q0 38-26.5 64.5T590 417h-60q-6 0-10.5 4.5T515 432q0 6 4.5 10.5T530 447h60q33 0 61-16t44-44q16-28 16-61V121q0-32-16.5-60t-44-44Q623 1 590 1H261q-32 0-60 16t-44 44q-16 28-16 60v205q0 33 16 60.5t44 44q28 16.5 60 16.5zm73-306q-4-4-10.5-3t-9.5 6q-25 36-25 79 0 37 18.5 68.5t50 50Q389 360 426 360t68.5-18.5q31.5-18.5 50-50T563 223q0-31-14-59l47-45q4-4 4.5-10T597 98q-4-5-10-5t-11 5l-42 40q-20-25-48-38.5T426 86q-32 0-59 13-5 3-7 8.5t0 11.5q2 6 8 7.5t12-.5q22-11 47-11t48 12q23 12 37 32l-91 87-19-18q-4-5-10-5t-10 4.5q-4 4.5-4 10.5t4 10l28 29q4 4 10.5 4t10.5-4l96-92q7 21 7 38 0 29-14.5 54T480 316.5Q455 331 426 331t-54-14.5Q347 302 332.5 277T318 223q0-34 20-62 3-5 2-11t-6-9z"/></svg>