<svg viewBox="0 0 1244 1083.753" xmlns="http://www.w3.org/2000/svg"><path d="M965 306q2 0 4-2t2-4q0-2-2-4t-4-2q-6 0-6 6t6 6zm0 39q2 0 4-2t2-4q0-2-2-4t-4-2q-6 0-6 6t6 6zm0 39q2 0 4-2t2-4q0-2-2-4t-4-2q-6 0-6 6t6 6zm0 39q2 0 4-2t2-4q0-2-2-4t-4-2q-6 0-6 6t6 6zm0 39q2 0 4-2t2-4q0-2-2-4t-4-2q-6 0-6 6t6 6zm0 39q2 0 4-2t2-4q0-2-2-4t-4-2q-2 0-4 2t-2 4q0 6 6 6zm0 39q2 0 4-2t2-4q0-2-2-4t-4-2q-2 0-4 2t-2 4q0 6 6 6zm0 39q2 0 4-2t2-4q0-2-2-4t-4-2q-2 0-4 2t-2 4q0 6 6 6zm0 39q2 0 4-2t2-4q0-2-2-4t-4-2q-2 0-4 2t-2 4q0 6 6 6zm0 39q2 0 4-2t2-4q0-2-2-4t-4-2q-2 0-4 2t-2 4q0 6 6 6zm0 39q6 0 6-6t-6-6q-2 0-4 2t-2 4q0 6 6 6zm-39-442q-6 0-6 6.5t6 6.5q6 0 6-6 0-2-2-4.5t-4-2.5zm20 19q-2 0-4 2t-2 4q0 6 6 6t6-6q0-2-2-4t-4-2zm-20 21q-6 0-6 6t6 6q6 0 6-6 0-2-2-4t-4-2zm20 18q-2 0-4 2t-2 4q0 6 6 6t6-6q0-2-2-4t-4-2zm-20 21q-6 0-6 6t6 6q6 0 6-6 0-2-2-4t-4-2zm20 18q-2 0-4 2t-2 4q0 6 6 6t6-6q0-2-2-4t-4-2zm-20 21q-6 0-6 6t6 6q6 0 6-6 0-2-2-4t-4-2zm20 18q-2 0-4 2t-2 4.5q0 2.5 2 4.5t4 2q2 0 4-2t2-4.5q0-2.5-2-4.5t-4-2zm-20 21q-6 0-6 6t6 6q6 0 6-6 0-2-2-4t-4-2zm20 19q-6 0-6 6 0 2 2 4t4 2q2 0 4-2t2-4q0-6-6-6zm-20 20q-6 0-6 6t6 6q6 0 6-6 0-2-2-4t-4-2zm20 19q-6 0-6 6 0 2 2 4t4 2q2 0 4-2t2-4q0-6-6-6zm-20 20q-6 0-6 6t6 6q6 0 6-6 0-2-2-4t-4-2zm20 19q-6 0-6 6 0 2 2 4t4 2q2 0 4-2t2-4q0-6-6-6zm-20 20q-6 0-6 6t6 6q6 0 6-6 0-2-2-4t-4-2zm20 19q-6 0-6 6 0 2 2 4t4 2q2 0 4-2t2-4q0-6-6-6zm-20 20q-6 0-6 6t6 6q6 0 6-6 0-2-2-4t-4-2zm20 19q-6 0-6 6 0 2 2 4t4 2q2 0 4-2t2-4q0-6-6-6zm-20 20q-6 0-6 6t6 6q6 0 6-6 0-2-2-4t-4-2zm20 19q-2 0-4 2t-2 4q0 2 2 4t4 2q2 0 4-2t2-4q0-2-2-4t-4-2zm-20 20q-6 0-6 6t6 6q6 0 6-6 0-2-2-4t-4-2zm20 19q-2 0-4 2t-2 4q0 2 2 4t4 2q2 0 4-2t2-4q0-2-2-4t-4-2zm-20 20q-6 0-6 6t6 6q6 0 6-6 0-2-2-4t-4-2zm20 19q-2 0-4 2t-2 4q0 2 2 4t4 2q2 0 4-2t2-4q0-2-2-4t-4-2zm-20 20q-6 0-6 6t6 6q6 0 6-6 0-2-2-4t-4-2zm20 19q-2 0-4 2t-2 4q0 2 2 4t4 2q2 0 4-2t2-4q0-2-2-4t-4-2zm-39-508q-2 0-4 2t-2 4q0 6 6 6t6-6q0-2-2-4t-4-2zm-20 33q2 0 4-2t2-4q0-2-2-4.5t-4-2.5q-2 0-4 2t-2 5q0 6 6 6zm20 6q-2 0-4 2t-2 4q0 6 6 6t6-6q0-2-2-4t-4-2zm-20 33q2 0 4-2t2-4q0-2-2-4t-4-2q-6 0-6 6t6 6zm20 6q-2 0-4 2t-2 4q0 6 6 6t6-6q0-2-2-4t-4-2zm6 45q0-2-2-4t-4-2q-2 0-4 2-8-25-29.5-41.5T825 295H175q-33 0-57 24t-24 57v266q0 21 12 42h-1q-2 0-4 2t-2 4q0 6 6 6 2 0 4-1.5t2-3.5q4 5 12 13-3 1-3 5 0 6 5 6t7-5q20 13 43 13h650q20 0 38-10 2 2 4.5 2t4.5-2q2-2 2-4t-1-2q5-4 12-11h2q6 0 6-6l-1-3 2-3q5-9 7-14 0 2 2 4t4 2q2 0 4-2t2-4q0-2-2-4t-4.5-2q-2.5 0-4.5 2 4-9 4-24v-5h1q2 0 4-2t2-4q0-2-2-4t-4-2h-1v-27h1q2 0 4-2t2-4q0-2-2-4t-4-2h-1v-27h1q2 0 4-2t2-4q0-2-2-4t-4-2h-1v-27h1q2 0 4-2t2-4q0-2-2-4t-4-2h-1v-27h1q2 0 4-2t2-4q0-2-2-4t-4-2h-1v-27h1q2 0 4-2t2-4q0-2-2-4.5t-4-2.5l-1 1v-28q0 1 1 1 2 0 4-2t2-5q0-6-6-6-1 0-1 1v-15l-1-13h2q6 0 6-6zM170 707q-2-4-5-4t-5 2q-22-5-36-23t-14-40V376q0-27 19-46t46-19h650q26 0 44.5 18t20.5 44q-1-1-3-1-6 0-6 6t6 6l3-1v29q-1-1-3-1-6 0-6 6t6 6l3-1v29q-1-1-3-1-6 0-6 6t6 6l3-1v29q-1-1-3-1-6 0-6 6t6 6l3-1v29q-1-1-3-1-6 0-6 6t6 6q2 0 3-1v29q-1-1-3-1-6 0-6 6t6 6q2 0 3-1v29q-1-1-3-1-6 0-6 6t6 6q2 0 3-1v29q-1-1-3-1-6 0-6 6t6 6h1q-5 20-19.5 33.5T834 706q-1-3-5-3t-6 4h-28q0-1-1.5-2.5T790 703q-4 0-6 4h-28q0-1-1.5-2.5T751 703q-4 0-6 4h-28q-2-4-5.5-4t-5.5 4h-28q-2-4-5.5-4t-5.5 4h-28q-2-4-5.5-4t-5.5 4h-28q-2-4-6.5-4t-4.5 4h-28q-2-4-6.5-4t-4.5 4h-28q-2-4-6.5-4t-4.5 4h-28q-2-4-6-4t-6 4h-27q-2-4-6-4t-6 4h-27q-2-4-6-4t-6 4h-27q-2-4-6-4t-6 4h-27q-2-4-6-4t-6 4h-27q-2-4-6-4t-6 4h-27q-2-4-6-4t-6 4h-28q0-1-1.5-2.5T204 703q-4 0-6 4h-28zm737-4q-2 0-4 2t-2 4q0 2 2 4t4 2q2 0 4-2t2-4q0-2-2-4t-4-2zm-20 20q-6 0-6 6t6 6q6 0 6-6 0-2-2-4t-4-2zm20 19q-2 0-4 2t-2 4q0 2 2 4t4 2q2 0 4-2t2-4q0-2-2-4t-4-2zm-20 20q-6 0-6 6t6 6q6 0 6-6 0-2-2-4t-4-2zm-19-516q6 0 6-6t-6-6q-2 0-4 2t-2 4q0 6 6 6zm-20 21q2 0 4-2t2-4q0-2-2-4.5t-4-2.5q-2 0-4.5 2t-2.5 5q0 6 7 6zm20 18q6 0 6-6t-6-6q-2 0-4 2t-2 4q0 6 6 6zm-20 438q-3 0-5 2t-2 4q0 6 6.5 6t6.5-6q0-2-2-4t-4-2zm20 19q-6 0-6 6t6 6q6 0 6-6 0-2-2-4t-4-2zm-20 20q-3 0-5 2t-2 4q0 6 6.5 6t6.5-6q0-2-2-4t-4-2zm20 19q-6 0-6 6t6 6q6 0 6-6 0-2-2-4t-4-2zm-39-535q6 0 6-6t-6-6q-2 0-4 2t-2 4q0 6 6 6zm-21 477q-2 0-4 2t-2 4q0 6 6 6 3 0 5-1.5t2-4q0-2.5-2-4.5t-5-2zm21 19q-6 0-6 6t6 6q6 0 6-6 0-2-2-4t-4-2zm-21 20q-2 0-4 2t-2 4q0 6 6 6 3 0 5-1.5t2-4q0-2.5-2-4.5t-5-2zm21 19q-6 0-6 6t6 6q6 0 6-6 0-2-2-4t-4-2zm-60-58q-2 0-4 2t-2 4q0 6 6 6t6-6q0-6-6-6zm21 19q-6 0-6 6t6 6q6 0 6-6 0-2-2-4t-4-2zm-21 20q-2 0-4 2t-2 4q0 6 6 6t6-6q0-6-6-6zm21 19q-6 0-6 6t6 6q6 0 6-6 0-2-2-4t-4-2zm-60-58q-2 0-4 2t-2 4q0 6 6 6t6-6q0-6-6-6zm21 19q-6 0-6 6t6 6q6 0 6-6 0-2-2-4t-4-2zm-21 20q-2 0-4 2t-2 4q0 6 6 6t6-6q0-6-6-6zm21 19q-6 0-6 6t6 6q6 0 6-6 0-2-2-4t-4-2zm-60-58q-2 0-4 2t-2 4q0 6 6 6t6-6q0-6-6-6zm21 19q-6 0-6 6t6 6q6 0 6-6 0-2-2-4t-4-2zm-21 20q-2 0-4 2t-2 4q0 6 6 6t6-6q0-6-6-6zm21 19q-6 0-6 6t6 6q6 0 6-6 0-2-2-4t-4-2zm-60-58q-2 0-4 2t-2 4q0 6 6 6t6-6q0-6-6-6zm21 19q-3 0-5 2t-2 4q0 2 2 4t5 2q6 0 6-6 0-2-2-4t-4-2zm-21 20q-2 0-4 2t-2 4q0 6 6 6t6-6q0-6-6-6zm21 19q-3 0-5 2t-2 4q0 2 2 4t5 2q6 0 6-6 0-2-2-4t-4-2zm-60-58q-2 0-4 2t-2 4q0 6 6 6t6-6q0-6-6-6zm20 19q-2 0-4 2t-2 4q0 2 2 4t4 2q2 0 4.5-2t2.5-4q0-2-2-4t-5-2zm-20 20q-2 0-4 2t-2 4q0 6 6 6t6-6q0-6-6-6zm20 19q-2 0-4 2t-2 4q0 2 2 4t4 2q2 0 4.5-2t2.5-4q0-2-2-4t-5-2zm-59-58q-2 0-4 2t-2 4q0 6 6 6t6-6q0-2-2-4t-4-2zm20 19q-2 0-4 2t-2 4q0 2 2 4t4 2q2 0 4-2t2-4q0-6-6-6zm-20 20q-2 0-4 2t-2 4q0 6 6 6t6-6q0-2-2-4t-4-2zm20 19q-2 0-4 2t-2 4q0 2 2 4t4 2q2 0 4-2t2-4q0-6-6-6zm-59-58q-2 0-4 2t-2 4q0 6 6 6t6-6q0-2-2-4t-4-2zm20 19q-2 0-4 2t-2 4q0 2 2 4t4 2q2 0 4-2t2-4q0-6-6-6zm-20 20q-2 0-4 2t-2 4q0 6 6 6t6-6q0-2-2-4t-4-2zm20 19q-2 0-4 2t-2 4q0 2 2 4t4 2q2 0 4-2t2-4q0-6-6-6zm-59-58q-2 0-4 2t-2 4q0 6 6 6t6-6q0-2-2-4t-4-2zm20 19q-2 0-4 2t-2 4q0 2 2 4t4 2q2 0 4-2t2-4q0-6-6-6zm-20 20q-2 0-4 2t-2 4q0 6 6 6t6-6q0-2-2-4t-4-2zm20 19q-2 0-4 2t-2 4q0 2 2 4t4 2q2 0 4-2t2-4q0-6-6-6zm-59-58q-2 0-4 2t-2 4q0 6 6 6t6-6q0-2-2-4t-4-2zm20 19q-2 0-4 2t-2 4q0 2 2 4t4 2q2 0 4-2t2-4q0-6-6-6zm-20 20q-2 0-4 2t-2 4q0 6 6 6t6-6q0-2-2-4t-4-2zm20 19q-2 0-4 2t-2 4q0 2 2 4t4 2q2 0 4-2t2-4q0-6-6-6zm-59-58q-2 0-4 2t-2 4q0 6 6 6t6-6q0-2-2-4t-4-2zm20 19q-2 0-4 2t-2 4q0 2 2 4t4 2q2 0 4-2t2-4q0-2-2-4t-4-2zm-20 20q-2 0-4 2t-2 4q0 6 6 6t6-6q0-2-2-4t-4-2zm20 19q-2 0-4 2t-2 4q0 2 2 4t4 2q2 0 4-2t2-4q0-2-2-4t-4-2zm-59-58q-6 0-6 6t6 6q6 0 6-6 0-2-2-4t-4-2zm20 19q-2 0-4 2t-2 4q0 2 2 4t4 2q2 0 4-2t2-4q0-2-2-4t-4-2zm-20 20q-6 0-6 6t6 6q6 0 6-6 0-2-2-4t-4-2zm20 19q-2 0-4 2t-2 4q0 2 2 4t4 2q2 0 4-2t2-4q0-2-2-4t-4-2zm-59-58q-6 0-6 6t6 6q6 0 6-6 0-2-2-4t-4-2zm20 19q-2 0-4 2t-2 4q0 2 2 4t4 2q2 0 4-2t2-4q0-2-2-4t-4-2zm-20 20q-6 0-6 6t6 6q6 0 6-6 0-2-2-4t-4-2zm20 19q-2 0-4 2t-2 4q0 2 2 4t4 2q2 0 4-2t2-4q0-2-2-4t-4-2zm-59-58q-6 0-6 6t6 6q6 0 6-6 0-2-2-4t-4-2zm20 19q-2 0-4 2t-2 4q0 2 2 4t4 2q2 0 4-2t2-4q0-2-2-4t-4-2zm-20 20q-6 0-6 6t6 6q6 0 6-6 0-2-2-4t-4-2zm20 19q-2 0-4 2t-2 4q0 2 2 4t4 2q2 0 4-2t2-4q0-2-2-4t-4-2zm-59-58q-6 0-6 6t6 6q6 0 6-6 0-2-2-4t-4-2zm20 19q-2 0-4 2t-2 4q0 2 2 4t4 2q2 0 4-2t2-4q0-2-2-4t-4-2zm-20 20q-6 0-6 6t6 6q6 0 6-6 0-2-2-4t-4-2zm20 19q-2 0-4 2t-2 4q0 2 2 4t4 2q2 0 4-2t2-4q0-2-2-4t-4-2zm-59-58q-3 0-5 2t-2 4q0 6 6.5 6t6.5-6q0-2-2-4t-4-2zm20 19q-6 0-6 6t6 6q6 0 6-6 0-2-2-4t-4-2zm-20 20q-3 0-5 2t-2 4q0 6 6.5 6t6.5-6q0-2-2-4t-4-2zm20 19q-6 0-6 6t6 6q6 0 6-6 0-2-2-4t-4-2zm-60-58q-2 0-4 2t-2 4q0 6 6 6 3 0 5-1.5t2-4q0-2.5-2-4.5t-5-2zm21 19q-6 0-6 6t6 6q6 0 6-6 0-2-2-4t-4-2zm-21 20q-2 0-4 2t-2 4q0 6 6 6 3 0 5-1.5t2-4q0-2.5-2-4.5t-5-2zm21 19q-6 0-6 6t6 6q6 0 6-6 0-2-2-4t-4-2zm-60-58q-2 0-4 2t-2 4q0 6 6 6t6-6q0-6-6-6zm21 19q-6 0-6 6t6 6q6 0 6-6 0-2-2-4t-4-2zm-21 20q-2 0-4 2t-2 4q0 6 6 6t6-6q0-6-6-6zm21 19q-6 0-6 6t6 6q6 0 6-6 0-2-2-4t-4-2zm-60-58q-2 0-4 2t-2 4q0 6 6 6t6-6q0-6-6-6zm21 19q-6 0-6 6t6 6q6 0 6-6 0-2-2-4t-4-2zm-21 20q-2 0-4 2t-2 4q0 6 6 6t6-6q0-6-6-6zm21 19q-6 0-6 6t6 6q6 0 6-6 0-2-2-4t-4-2zM87 664q-6 0-6 6t6 6q6 0 6-6 0-2-2-4t-4-2zm-21 20q-2 0-4 2t-2 4q0 6 6 6t6-6q0-6-6-6zm21 19q-6 0-6 6t6 6q6 0 6-6 0-2-2-4t-4-2zm-21 20q-2 0-4 2t-2 4q0 6 6 6t6-6q0-6-6-6zm21 19q-6 0-6 6t6 6q6 0 6-6 0-2-2-4t-4-2zm-60-97q-2 0-4 2t-2 4q0 2 2 4t4 2q2 0 4-2t2-4q0-6-6-6zm21 19q-3 0-5 2t-2 4q0 2 2 4t5 2q6 0 6-6 0-2-2-4t-4-2zm-21 20q-2 0-4 2t-2 4q0 6 6 6t6-6q0-6-6-6zm21 19q-3 0-5 2t-2 4q0 2 2 4t5 2q6 0 6-6 0-2-2-4t-4-2zm-21-97q-2 0-4 2t-2 4q0 2 2 4t4 2q2 0 4-2t2-4q0-6-6-6zm39 39q-2 0-4 2t-2 4q0 2 2 4t4 2q2 0 4-2t2-4q0-6-6-6zm802-282q6 0 6-6t-6-6q-2 0-4 2t-2 4q0 6 6 6zm0 40q2 0 4-2t2-4q0-2-2-4.5t-4-2.5q-2 0-4 2t-2 5q0 6 6 6zm0 39q2 0 4-2t2-4q0-2-2-4t-4-2q-6 0-6 6t6 6zm0 39q2 0 4-2t2-4q0-2-2-4t-4-2q-6 0-6 6t6 6zm0 39q2 0 4-2t2-4q0-2-2-4t-4-2q-6 0-6 6t6 6zm0 39q2 0 4-2t2-4q0-2-2-4t-4-2q-6 0-6 6t6 6zm0 39q2 0 4-2t2-4q0-2-2-4t-4-2q-6 0-6 6t6 6zm-20 20q2 0 4-2t2-4q0-2-2-4t-4-2q-2 0-4.5 2t-2.5 4q0 2 2 4t5 2zm20 19q2 0 4-2t2-4q0-2-2-4t-4-2q-2 0-4 2t-2 4q0 6 6 6zm-20 20q2 0 4-2t2-4q0-2-2-4t-4-2q-2 0-4.5 2t-2.5 4q0 2 2 4t5 2zm20 19q2 0 4-2t2-4q0-2-2-4t-4-2q-2 0-4 2t-2 4q0 6 6 6zm-20 20q6 0 6-6t-6-6q-2 0-4.5 2t-2.5 4q0 2 2 4t5 2zm-40-51q-2 0-4 2t-2 4q0 2 2 4t4 2q2 0 4.5-2t2.5-4q0-2-2-4t-5-2zm21 31q2 0 4-2t2-4q0-2-2-4t-4-2q-2 0-4 2t-2 4q0 6 6 6zm-21 8q-2 0-4 2t-2 4q0 6 6 6 3 0 5-1.5t2-4q0-2.5-2-4.5t-5-2zm-18-20q-6 0-6 6t6 6q6 0 6-6 0-2-2-4t-4-2zm-21 20q-2 0-4 2t-2 4q0 6 6 6t6-6q0-6-6-6zm-18-20q-6 0-6 6t6 6q6 0 6-6 0-2-2-4t-4-2zm-21 20q-2 0-4 2t-2 4q0 6 6 6t6-6q0-6-6-6zm-18-20q-6 0-6 6t6 6q6 0 6-6 0-2-2-4t-4-2zm-21 32q6 0 6-6t-6-6q-6 0-6 6 0 2 2 4t4 2zm-25-26q0 2 2 4t5 2q6 0 6-6 0-2-2-4t-4-2q-2 0-4.5 2t-2.5 4zm-14 14q-2 0-4 2t-2 4q0 6 6 6t6-6q0-6-6-6zm-19-20q-2 0-4 2t-2 4q0 2 2 4t4 2q2 0 4.5-2t2.5-4q0-2-2-4t-5-2zm-20 20q-2 0-4 2t-2 4q0 6 6 6t6-6q0-6-6-6zm-19-20q-2 0-4 2t-2 4q0 2 2 4t4 2q2 0 4-2t2-4q0-6-6-6zm-20 20q-2 0-4 2t-2 4q0 6 6 6t6-6q0-2-2-4t-4-2zm-19-8q6 0 6-6t-6-6q-6 0-6 6 0 2 2 4t4 2zm-20 20q6 0 6-6t-6-6q-2 0-4 2t-2 4q0 2 2 4t4 2zm-19-20q6 0 6-6t-6-6q-6 0-6 6 0 2 2 4t4 2zm-20 20q6 0 6-6t-6-6q-2 0-4 2t-2 4q0 2 2 4t4 2zm-19-20q6 0 6-6t-6-6q-6 0-6 6 0 2 2 4t4 2zm-20 20q6 0 6-6t-6-6q-2 0-4 2t-2 4q0 2 2 4t4 2zm-19-32q-2 0-4 2t-2 4q0 2 2 4t4 2q2 0 4-2t2-4q0-2-2-4t-4-2zm-20 20q-2 0-4 2t-2 4q0 6 6 6t6-6q0-2-2-4t-4-2zm-19-20q-2 0-4 2t-2 4q0 2 2 4t4 2q2 0 4-2t2-4q0-2-2-4t-4-2zm-20 20q-6 0-6 6t6 6q6 0 6-6 0-2-2-4t-4-2zm-19-20q-2 0-4 2t-2 4q0 2 2 4t4 2q2 0 4-2t2-4q0-2-2-4t-4-2zm-20 20q-6 0-6 6t6 6q6 0 6-6 0-2-2-4t-4-2zm-19-8q2 0 4-2t2-4q0-2-2-4t-4-2q-2 0-4 2t-2 4q0 2 2 4t4 2zm-20 8q-6 0-6 6t6 6q6 0 6-6 0-2-2-4t-4-2zm-19-20q-2 0-4 2t-2 4q0 2 2 4t4 2q2 0 4-2t2-4q0-2-2-4t-4-2zm-20 20q-6 0-6 6t6 6q6 0 6-6 0-2-2-4t-4-2zm-19-20q-6 0-6 6t6 6q6 0 6-6 0-2-2-4t-4-2zm-20 20q-3 0-5 2t-2 4q0 6 6.5 6t6.5-6q0-2-2-4t-4-2zm-19-20q-6 0-6 6t6 6q6 0 6-6 0-2-2-4t-4-2zm-21 20q-2 0-4 2t-2 4q0 6 6 6 3 0 5-1.5t2-4q0-2.5-2-4.5t-5-2zm-18-20q-6 0-6 6t6 6q6 0 6-6 0-2-2-4t-4-2zm-21 20q-2 0-4 2t-2 4q0 6 6 6t6-6q0-6-6-6zm-18-20q-6 0-6 6t6 6q6 0 6-6 0-2-2-4t-4-2zm703-27q2 0 4-2t2-4q0-2-2-4t-4-2q-2 0-4 2t-2 4q0 6 6 6zm28-431v-9q0-27-19-46t-46-19H649q-27 0-46 19t-19 46v9H416v-9q0-27-19-46t-46-19H208q-27 0-46 19t-19 46v9q-39 1-72 21t-52 53.5Q0 314 0 353v312q0 38 18 70.5t48.5 53Q97 809 134 812v18q0 16 12 28t28 12h33q17 0 29-11.5t12-28.5v-18h504v18q0 17 12 28.5t29 11.5h33q17 0 29-12t12-28v-18q37-3 67.5-23.5t48-53Q1000 703 1000 665V353q0-39-19-72.5T929 227q-33-20-72-21zm-257-9q0-20 14.5-34.5T649 148h143q20 0 34.5 14.5T841 197v9H600v-9zm-441 0q0-20 14.5-34.5T208 148h143q20 0 34.5 14.5T400 197v9H159v-9zm772 573q1-1 1-2.5t-2-3.5q-2-2-4-2t-4 2q-2 2-2 4 0 6 5 6-4 3-14 9-2-2-4-2t-4 2q-2 2-2 4-22 9-48 9H147q-41 0-76-24 1-1 1-4 0-6-6-6-2 0-4 2-4-3-12-11 4-2 4-4.5t-2-4.5q-2-2-4.5-2t-4.5 2q-27-35-27-79V353q0-35 17.5-65.5t48-48Q112 222 147 222h655q2 6 6.5 6t6.5-6h27q0 6 5 6t7-6q15 0 28 3 2 3 5 3l2-1q41 12 67.5 46t27.5 78q-5 2-5 5t1.5 5q1.5 2 3.5 2v28q-5 0-5 5.5t5 5.5v28q-2 0-3.5 2t-1.5 5q0 3 5 5v27q-2 0-3.5 2t-1.5 5q0 3 5 5v27q-2 0-3.5 2t-1.5 5q0 3 5 5v27q-2 0-3.5 2t-1.5 5q0 3 5 5v27q-2 0-3.5 2t-1.5 5q0 3 5 5v27q-2 0-3.5 2t-1.5 5q0 3 5 5v27q-2 0-3.5 2t-1.5 5q0 3 5 5-3 26-15 49-2-2-4-2-6 0-6 6 0 2 1.5 4t3.5 2q-12 19-33 35zM352 605h78q8 0 14-6t6-14v-64q0-8-6-14t-14-6l-82 1v-64q0-2 2-4t4-2h88q3 0 5.5-2.5t2.5-6q0-3.5-2.5-5.5t-5.5-2h-88q-9 0-15.5 6.5T332 438v147q0 8 6 14t14 6zm-4-87l82-1 2 1q2 2 2 3v64q0 1-1 2.5t-3 1.5h-78q-4 0-4-4v-67zm-60 87q8 0 14-6t6-14V435q0-8-6-13.5t-14-5.5h-79q-8 0-13.5 5.5T190 435v150q0 8 5.5 14t13.5 6h79zm-82-20V435q0-3 3-3h79q4 0 4 3v150q0 1-1 2.5t-3 1.5h-79q-3 0-3-4zm370 20h78q8 0 14-6t6-14V435q0-8-6-13.5t-14-5.5h-78q-8 0-14 5.5t-6 13.5v150q0 8 6 14t14 6zm-4-170q0-3 4-3h78q4 0 4 3v150q0 1-1 2.5t-3 1.5h-78q-1 0-2.5-1.5T572 585V435zm146 170h78q8 0 14-6t6-14V435q0-8-6-13.5t-14-5.5h-78q-8 0-14 5.5t-6 13.5v150q0 8 6 14t14 6zm-4-170q0-3 4-3h78q4 0 4 3v150q0 1-1 2.5t-3 1.5h-78q-1 0-2.5-1.5T714 585V435zm-218 49h8q2 0 3-1.5t1-2.5v-8q0-2-1-3t-3-1h-8q-1 0-2.5 1t-1.5 3v8q0 1 1.5 2.5t2.5 1.5zm0 66h8q2 0 3-1.5t1-2.5v-8q0-2-1-3t-3-1h-8q-1 0-2.5 1t-1.5 3v8q0 1 1.5 2.5t2.5 1.5z"/></svg>