<svg viewBox="0 0 1244 1083.753" xmlns="http://www.w3.org/2000/svg"><path d="M893 1H713q-24 0-44.5 12T637 45H363q-11-20-31.5-32T288 1H107Q72 1 46.5 26.5T21 88v85q0 36 25.5 61.5T107 260h140l14 292v230q-21 13-21 37v97q0 11 5.5 21t15.5 15v32q0 7 5 12t12 5h176q7 0 11.5-4.5T471 986l29-271 29 271q1 6 5.5 10.5t11.5 4.5h176q7 0 12-5t5-12v-32q10-5 15.5-15t5.5-21v-97q0-24-21-37V552l14-292h140q36 0 61-25.5t25-61.5V88q0-36-25-61.5T893 1zM786 36h32v115h-32V36zM561 80q-5 20-22 33t-39 13q-22 0-38.5-13T439 80h122zM182 36h32v115h-32V36zm92 880v-97q0-3 2.5-5t4.5-2h42q2 0 4.5 2t2.5 5v97q0 2-2.5 4.5T323 923h-42q-2 0-4.5-2.5T274 916zm431 50H562l-31-290q-1-7-6-11t-11-4h-27q-7 0-12 4t-6 11l-31 290H296v-9h27q17 0 29-12t12-29v-97q0-17-12-29.5T323 777h-27V569h409v208h-27q-17 0-29.5 12.5T636 819v97q0 17 12.5 29t29.5 12h27v9zm21-50q0 2-2 4.5t-5 2.5h-41q-3 0-5-2.5t-2-4.5v-97q0-3 2-5t5-2h41q3 0 5 2t2 5v97zm219-743q0 22-15.5 37T893 225H736q-7 0-12 5t-5 12l-14 292H295l-14-292q0-7-5-12t-12-5H107q-21 0-36.5-15T55 173V88q0-22 15.5-37T107 36h41v132q0 8 5 13t12 5h66q8 0 13-5.5t5-12.5V36h39q16 0 29 9t19 24q5 11 16 11h51q7 35 34 58t63 23q36 0 63-23t34-58h51q11 0 16-11 6-15 19.5-24t29.5-9h38v132q0 7 5.5 12.5T769 186h66q7 0 12-5t5-13V36h41q21 0 36.5 15T945 88v85zM573 389h-16V213q0-7-5-12.5t-12-5.5h-37q-9 0-15 8-4 7-21 16-15 7-36 7h-3q-8 0-13.5 5t-5.5 12v54q0 7 4.5 11.5T424 315h20v74h-17q-7 0-12.5 5t-5.5 12v57q0 7 5.5 12t12.5 5h146q7 0 12.5-5t5.5-12v-57q0-7-5.5-12t-12.5-5zm-17 57H444v-22h18q7 0 12-5.5t5-12.5V296q0-9-7.5-14.5T457 279h-3q-5 1-10 1v-20q18-1 37-10t30-20h11v176q0 7 5.5 12.5T540 424h16v22z"/></svg>