<svg viewBox="0 0 1244 1083.753" xmlns="http://www.w3.org/2000/svg"><path d="M248 915q14-16 34-25t41-9h55q29 0 50.5-20t22.5-49l7-150q2-15-10-27-9-12-26-12l-177-6q4-12 4-30v-2l18-1q18 0 27.5-14t4.5-30l-6-21q-1-3 .5-5.5t3.5-3.5q5-2 7 2l40 51q7 8 17 13t21 4l45-1q15-1 25.5-11.5T463 543l3-110q1-13-7-24t-21-14l-81-21q-6-2-11.5 1t-6.5 9q-1 6 2 11t9 7l81 21q6 1 6 9l-3 110q0 3-2.5 5.5T426 550l-45 1q-9 0-14-6l-40-51q-7-9-17-12t-21 0q-14 5-21 18t-3 27l6 21q1 3-1 5t-4 2h-21q-11-40-44.5-66T125 463q-34 0-62.5 17T17 525.5Q0 554 0 587.5t17 62Q34 678 62.5 695t63 17q34.5 0 63.5-18t45-48l187 6q3 0 5.5 2.5t2.5 5.5l-7 151q-2 17-14.5 29T378 852h-55q-28 0-53.5 11.5T226 896l-36 41q-7 8-9 19t2.5 21.5q4.5 10.5 14.5 17t21 6.5h117q6 0 10.5-4.5T351 986q0-6-4.5-10t-10.5-4H219q-3 0-5.5-2t-2.5-4v-2q-2-5 1-8l36-41zM125 603q-11 0-18.5-7.5T99 578q0-10 7.5-17.5T125 553q11 0 18 7t7 17.5q0 10.5-7 18t-18 7.5zm-34 63q0-14 10-24t24-10q14 0 23.5 10t9.5 24v11q-15 6-33.5 6T91 677v-11zm96-7q-3-25-24-43 16-14 16-37.5T163 539q-16-16-38-16t-38.5 16Q70 555 70 578.5T86 616q-21 18-24 43-15-13-24-32t-9-40q0-39 28-67t68-28q40 0 67.5 28t27.5 67q0 21-9 40t-24 32zm793-139q-3-5-9-6.5t-11 2q-5 3.5-6.5 9.5t1.5 11q16 24 16 51 0 21-9 40t-24 32q-3-25-24-43 16-14 16-37.5T914 539q-16-16-38-16t-38.5 16Q821 555 821 578.5t16 37.5q-21 18-24 43-15-13-24-32t-9-40q0-39 28-67t68-28q24 0 45 12 5 3 11 1t9-7q3-5 1-11t-7-9q-27-15-59-15-43 0-76.5 26T755 555h-21q-1 0-3-1l-1-1-1-2q-1-2 0-3l6-21q4-14-3-27t-21-18q-11-3-21 0t-17 12l-40 51q-4 6-14 6l-45-1q-3 0-5.5-2.5T566 542l-3-110q0-8 6-9l198-52q36 33 85 33 34 0 62-16.5t45-45q17-28.5 17-62.5t-17-62.5Q942 189 913.5 172t-62-17q-33.5 0-62 17T744 217.5Q727 246 727 280v9l-159 30q-4 1-7-2h-1q-2-3-2-6l-3-74q31-15 50.5-45.5T625 125q0-33-17-61.5T562.5 18Q534 1 500 1t-62.5 17q-28.5 17-45 45T376 125q0 36 19 66.5t50 45.5l-3 74q0 3-2 6h-1q-3 3-7 2l-159-30v-9q0-34-17-62.5T210 172q-5-3-11-1.5t-9 6.5q-3 5-1 11t7 9q22 13 35 35.5t13 47.5q0 21-9 39.5T211 352q-3-27-24-43 16-16 16-39t-16-38.5Q171 216 148 216t-38.5 15.5Q94 247 94 270t16 39q-21 16-24 43-15-14-24-32.5T53 280q0-40 28-67.5t67-27.5q7 0 11-4.5t4-10.5q0-6-4-10.5t-11-4.5q-33 0-61.5 17T41 217.5Q24 246 24 280t17 62.5q17 28.5 45 45t62 16.5q49 0 85-33l63 17q6 1 11-2t7-8q2-5-1.5-11t-9.5-7l-50-13q10-15 14-30l160 31q17 3 30.5-8.5T471 312l3-65q12 3 26 3t26-3l3 65q0 8 3.5 16t10.5 12q13 11 30 8l160-31q4 15 14 30l-185 48q-13 3-21 14t-7 24l3 110q1 14 11 24.5t25 11.5l45 1q11 1 21-4t17-13l40-51q2-4 7-2 2 1 3.5 3.5t.5 5.5l-6 21q-5 16 5.5 30t26.5 14l18 1v2q0 18 4 30l-177 6q-15 0-26 12.5T542 662l7 150q1 29 22.5 49t50.5 20h55q21 0 41 9t34 25l36 41q3 3 2 9v1q0 1-3 3.5t-6 2.5H407q-6 0-10 4t-4 10q0 6 4 10.5t10 4.5h374q11 0 21-6.5t14.5-16.5q4.5-10 3-21.5T810 937l-36-41q-18-21-43.5-32.5T677 852h-55q-17 0-29.5-12T579 811l-8-151q0-3 2.5-5.5t5.5-2.5l187-6q16 30 45.5 48t63.5 18q34 0 62.5-17t45.5-45.5q17-28.5 17-62.5 0-36-20-67zM148 245q11 0 18.5 7.5T174 270q0 10-7.5 18t-18 8q-10.5 0-18-7.5T123 270q0-11 7.5-18t17.5-7zm-33 124v-10q0-14 9.5-24t23.5-10q14 0 24 10t10 24v10q-15 6-33.5 6t-33.5-6zm290-244q0-39 28-67t67-28q39 0 67 28t28 67q0 22-8.5 40.5T563 197q-3-25-24-43 16-14 16-37.5T539 77q-16-16-38.5-16t-39 16Q445 93 445 115.5t16 38.5q-21 18-24 43-15-13-23.5-31.5T405 125zm70-9q0-11 7.5-18t18-7q10.5 0 17.5 7t7 17.5q0 10.5-7 18t-17.5 7.5q-10.5 0-18-7.5T475 116zm25 105q-17 0-34-6v-11q0-14 10-24t24-10q14 0 24 10t10 24v11q-16 6-34 6zm326 49q0-10 7.5-17.5T852 245q11 0 18 7t7 18q0 11-7.5 18.5T852 296q-10 0-18-8t-8-18zm-8 99v-10q0-14 10-24t24-10q14 0 23.5 10t9.5 24v10q-15 6-33.5 6t-33.5-6zm34-184q39 0 67 27.5t28 67.5q0 21-9 39.5T914 352q-3-27-24-43 16-16 16-39t-15.5-38.5Q875 216 852 216t-39 16q-16 16-16 38.5t16 38.5q-21 16-24 43-15-14-24-32.5t-9-39.5q0-40 28-67.5t68-27.5zm-2 393q0-10 7.5-17.5t18-7.5q10.5 0 18 7.5T901 578q0 10-7.5 17.5t-18 7.5q-10.5 0-18-7.5T850 578zm-8 99v-11q0-14 10-24t24-10q14 0 23.5 10t9.5 24v11q-15 6-33.5 6t-33.5-6z"/></svg>