<svg viewBox="0 0 1244 1083.753" xmlns="http://www.w3.org/2000/svg"><path d="M915 430q2 0 4-2t2-4q0-2-2-4t-4-2q-6 0-6 6t6 6zm0 39q6 0 6-6t-6-6q-2 0-4 2t-2 4q0 6 6 6zm0 40q2 0 4-2t2-5q0-6-6-6-2 0-4 2t-2 4q0 7 6 7zm0 39q2 0 4-2t2-4q0-2-2-4t-4-2q-6 0-6 6t6 6zm0 39q6 0 6-6t-6-6q-2 0-4 2t-2 4q0 6 6 6zm0 40q2 0 4-2t2-4q0-2-2-4.5t-4-2.5q-2 0-4 2t-2 5q0 6 6 6zm-40-288q-2 0-4 2t-2 4q0 2 2 4t4 2q2 0 4.5-2t2.5-4q0-2-2-4t-5-2zm21 31q2 0 4-2t2-4q0-2-2-4t-4-2q-6 0-6 6t6 6zm-21 8q-2 0-4 2t-2 4q0 2 2 4.5t4 2.5q2 0 4.5-2t2.5-5q0-6-7-6zm21 31q6 0 6-6t-6-6q-6 0-6 6t6 6zm-21 9q-6 0-6 6t6 6q2 0 4.5-2t2.5-4q0-2-2-4t-5-2zm21 31q2 0 4-2t2-4q0-2-2-4t-4-2q-6 0-6 6t6 6zm-21 8q-2 0-4 2t-2 4q0 2 2 4t4.5 2q2.5 0 4.5-1.5t2-4q0-2.5-2-4.5t-5-2zm21 31q2 0 4-2t2-4q0-2-2-4t-4-2q-6 0-6 6t6 6zm-21 8q-2 0-4 2t-2 4q0 2 2 4.5t4 2.5q2 0 4.5-2t2.5-5q0-6-7-6zm21 32q2 0 4-2t2-5q0-6-6-6t-6 6q0 3 1.5 5t4.5 2zm-21 8q-6 0-6 6t6 6q2 0 4.5-2t2.5-4q0-2-2-4t-5-2zm21 31q2 0 4-2t2-4q0-2-2-4t-4-2q-6 0-6 6t6 6zm-21 8q-2 0-4 2t-2 4q0 2 2 4t4.5 2q2.5 0 4.5-1.5t2-4q0-2.5-2-4.5t-5-2zm21 31q2 0 4-2t2-4q0-2-2-4t-4-2q-6 0-6 6t6 6zm-21 8q-2 0-4 2t-2 5q0 6 6 6 2 0 4.5-2t2.5-4q0-2-2-4.5t-5-2.5zm21 32q2 0 4-2t2-5q0-6-6-6t-6 6q0 3 1.5 5t4.5 2zm-21 8q-6 0-6 6t6 6q2 0 4.5-2t2.5-4q0-2-2-4t-5-2zm21 31q2 0 4-2t2-4q0-2-2-4t-4-2q-6 0-6 6t6 6zm-21 8q-2 0-4 2t-2 4q0 2 2 4t4.5 2q2.5 0 4.5-1.5t2-4.5q0-6-7-6zm0 39q-2 0-4 2t-2 5q0 6 6 6 2 0 4.5-2t2.5-4q0-2-2-4.5t-5-2.5zm-39-432q-6 0-6 6t6 6q2 0 4-2t2-4q0-2-2-4t-4-2zm20 19q-6 0-6 6t6 6q2 0 4.5-2t2.5-4q0-2-2-4t-5-2zm-20 20q-2 0-4 2t-2 4q0 2 2 4t4 2q2 0 4-2t2-4q0-2-2-4t-4-2zm20 19q-2 0-4 2t-2 4q0 2 2 4t4 2q2 0 4.5-2t2.5-4q0-2-2-4t-5-2zm-20 20q-2 0-4 2t-2 4q0 2 2 4.5t4 2.5q2 0 4-2t2-5q0-6-6-6zm20 19q-2 0-4 2t-2 4q0 2 2 4t4.5 2q2.5 0 4.5-1.5t2-4.5q0-6-7-6zm-20 21q-6 0-6 6t6 6q2 0 4-2t2-4q0-2-2-4t-4-2zm20 19q-6 0-6 6t6 6q2 0 4.5-2t2.5-4q0-2-2-4t-5-2zm-20 20q-2 0-4 2t-2 4q0 2 2 4t4 2q6 0 6-6 0-2-2-4t-4-2zm20 19q-2 0-4 2t-2 4q0 2 2 4t4 2q2 0 4.5-2t2.5-4q0-2-2-4t-5-2zm-20 20q-2 0-4 2t-2 4q0 2 2 4.5t4 2.5q2 0 4-2t2-5q0-6-6-6zm20 19q-2 0-4 2t-2 4q0 2 2 4.5t4 2.5q2 0 4.5-2t2.5-5q0-6-7-6zm-20 21q-6 0-6 6t6 6q2 0 4-2t2-4q0-2-2-4t-4-2zm20 19q-6 0-6 6t6 6q2 0 4.5-2t2.5-4q0-2-2-4t-5-2zm-20 20q-2 0-4 2t-2 4q0 2 2 4t4 2q6 0 6-6 0-2-2-4t-4-2zm20 19q-2 0-4 2t-2 4q0 2 2 4t4 2q2 0 4.5-2t2.5-4q0-2-2-4t-5-2zm-20 20q-2 0-4 2t-2 5q0 6 6 6 2 0 4-2t2-4q0-2-2-4.5t-4-2.5zm20 19q-2 0-4 2t-2 4q0 2 2 4.5t4 2.5q2 0 4.5-2t2.5-5q0-6-7-6zm-20 21q-6 0-6 6t6 6q2 0 4-2t2-4q0-2-2-4t-4-2zm20 19q-6 0-6 6t6 6q2 0 4.5-2t2.5-4q0-2-2-4t-5-2zm-20 20q-2 0-4 2t-2 4q0 2 2 4t4 2q6 0 6-6t-6-6zm20 19q-2 0-4 2t-2 4q0 2 2 4t4.5 2q2.5 0 4.5-1.5t2-4.5q0-6-7-6zm-20 20q-2 0-4 2t-2 5q0 6 6 6 2 0 4-2t2-4q0-2-2-4.5t-4-2.5zm20 19q-2 0-4 2t-2 4q0 2 2 4.5t4 2.5q2 0 4.5-2t2.5-5q0-6-7-6zm-20 21q-2 0-4 2t-2 4q0 2 2 4t4 2q2 0 4-2t2-4q0-2-2-4t-4-2zm20 19q-6 0-6 6t6 6q2 0 4.5-2t2.5-4q0-2-2-4t-5-2zm-20 20q-2 0-4 2t-2 4q0 2 2 4t4 2q6 0 6-6t-6-6zm-19-532q-2 0-4 2t-2 4q0 2 2 4t4 2q6 0 6-6t-6-6zm0 276q-6 0-6 6t6 6q2 0 4-2t2-4q0-6-6-6zm0 39q-2 0-4 2t-2 4q0 2 2 4t4 2q2 0 4-2t2-4q0-6-6-6zm-20 20q-6 0-6 6.5t6 6.5q6 0 6-6 0-2-2-4.5t-4-2.5zm20 19q-2 0-4 2t-2 4q0 2 2 4.5t4 2.5q2 0 4-2t2-5q0-6-6-6zm-20 21q-6 0-6 6t6 6q6 0 6-6 0-2-2-4t-4-2zm20 19q-6 0-6 6t6 6q2 0 4-2t2-4q0-6-6-6zm-20 20q-6 0-6 6t6 6q6 0 6-6t-6-6zm20 19q-2 0-4 2t-2 4q0 2 2 4t4 2q6 0 6-6t-6-6zm-20 20q-6 0-6 6.5t6 6.5q6 0 6-6 0-2-2-4.5t-4-2.5zm20 19q-2 0-4 2t-2 4q0 2 2 4.5t4 2.5q2 0 4-2t2-5q0-6-6-6zm-20 21q-6 0-6 6t6 6q6 0 6-6 0-2-2-4t-4-2zm20 19q-6 0-6 6t6 6q2 0 4-2t2-4q0-6-6-6zm-20 20q-6 0-6 6t6 6q6 0 6-6t-6-6zm20 19q-2 0-4 2t-2 4q0 2 2 4t4 2q6 0 6-6t-6-6zm-20 20q-6 0-6 6.5t6 6.5q6 0 6-6 0-2-2-4.5t-4-2.5zm-19-177q-6 0-6 6t6 6q6 0 6-6 0-2-2-4t-4-2zm0 39q-6 0-6 6t6 6q6 0 6-6t-6-6zm-21 20q-2 0-4 2t-2 5q0 6 6 6 2 0 4-2t2-4.5q0-2.5-1.5-4.5t-4.5-2zm21 19q-6 0-6 6 0 3 1.5 5t4.5 2q6 0 6-6.5t-6-6.5zm-21 21q-2 0-4 2t-2 4q0 2 2 4t4 2q2 0 4-2t2-4q0-6-6-6zm21 19q-6 0-6 6t6 6q6 0 6-6 0-2-2-4t-4-2zm-21 20q-2 0-4 2t-2 4q0 2 2 4t4 2q6 0 6-6t-6-6zm21 19q-6 0-6 6t6 6q6 0 6-6t-6-6zm-21 20q-2 0-4 2t-2 5q0 6 6 6 2 0 4-2t2-4.5q0-2.5-1.5-4.5t-4.5-2zm21 20q-6 0-6 6t6 6q6 0 6-6 0-2-2-4t-4-2zm-21 20q-2 0-4 2t-2 4q0 2 2 4t4 2q2 0 4-2t2-4q0-6-6-6zm-19-139q-2 0-4 2t-2 4q0 2 2 4.5t4 2.5q2 0 4.5-2t2.5-5q0-6-7-6zm-20 21q-2 0-4 2t-2 4q0 2 2 4t4 2q2 0 4-2t2-4q0-2-2-4t-4-2zm20 19q-6 0-6 6t6 6q2 0 4.5-2t2.5-4q0-2-2-4t-5-2zm-20 20q-2 0-4 2t-2 4q0 2 2 4t4 2q6 0 6-6t-6-6zm20 19q-2 0-4 2t-2 4q0 2 2 4t4.5 2q2.5 0 4.5-1.5t2-4.5q0-6-7-6zm-20 20q-2 0-4 2t-2 5q0 6 6 6 2 0 4-2t2-4q0-2-2-4.5t-4-2.5zm20 20q-6 0-6 6t6 6q2 0 4.5-2t2.5-4q0-2-2-4t-5-2zm-20 20q-2 0-4 2t-2 4q0 2 2 4t4 2q2 0 4-2t2-4q0-2-2-4t-4-2zm20 19q-2 0-4 2t-2 4q0 2 2 4t4 2q2 0 4.5-2t2.5-4q0-2-2-4t-5-2zm-20 20q-2 0-4 2t-2 4q0 2 2 4t4 2q6 0 6-6t-6-6zm-19-138q-6 0-6 6t6 6q2 0 4-2t2-4q0-2-2-4t-4-2zm-20 20q-6 0-6 6t6 6q6 0 6-6t-6-6zm20 19q-2 0-4 2t-2 4q0 2 2 4t4 2q6 0 6-6t-6-6zm-20 20q-6 0-6 6.5t6 6.5q6 0 6-6 0-2-2-4.5t-4-2.5zm20 20q-6 0-6 6t6 6q2 0 4-2t2-4q0-2-2-4t-4-2zm-20 20q-6 0-6 6t6 6q6 0 6-6 0-2-2-4t-4-2zm20 19q-2 0-4 2t-2 4q0 2 2 4t4 2q2 0 4-2t2-4q0-2-2-4t-4-2zm-20 20q-6 0-6 6t6 6q6 0 6-6t-6-6zm20 19q-2 0-4 2t-2 4q0 2 2 4t4 2q6 0 6-6t-6-6zm-39-118q-6 0-6 6t6 6q6 0 6-6t-6-6zm-21 20q-2 0-4 2t-2 5q0 6 6 6 2 0 4-2t2-4.5q0-2.5-1.5-4.5t-4.5-2zm21 20q-6 0-6 6t6 6q6 0 6-6 0-2-2-4t-4-2zm-21 20q-2 0-4 2t-2 4q0 2 2 4t4 2q2 0 4-2t2-4q0-6-6-6zm21 19q-6 0-6 6t6 6q6 0 6-6 0-2-2-4t-4-2zm-21 20q-2 0-4 2t-2 4q0 2 2 4t4 2q6 0 6-6t-6-6zm21 19q-6 0-6 6t6 6q6 0 6-6t-6-6zm-21 21q-6 0-6 6t6 6q2 0 4-2t2-4q0-6-6-6zm-19-99q-6 0-6 6t6 6q2 0 4.5-2t2.5-4q0-2-2-4t-5-2zm-20 20q-2 0-4 2t-2 4q0 2 2 4t4 2q2 0 4-2t2-4q0-2-2-4t-4-2zm20 19q-2 0-4 2t-2 4q0 2 2 4t4 2q2 0 4.5-2t2.5-4q0-2-2-4t-5-2zm-20 20q-2 0-4 2t-2 4q0 2 2 4t4 2q6 0 6-6t-6-6zm20 19q-2 0-4 2t-2 4q0 2 2 4t4.5 2q2.5 0 4.5-1.5t2-4.5q0-6-7-6zm-20 21q-6 0-6 6t6 6q2 0 4-2t2-4q0-2-2-4t-4-2zm-19-99q-6 0-6 6t6 6q2 0 4-2t2-4q0-2-2-4t-4-2zm-20 20q-6 0-6 6t6 6q6 0 6-6 0-2-2-4t-4-2zm20 19q-2 0-4 2t-2 4q0 2 2 4t4 2q2 0 4-2t2-4q0-2-2-4t-4-2zm-20 20q-6 0-6 6t6 6q6 0 6-6t-6-6zm20 19q-2 0-4 2t-2 4q0 2 2 4t4 2q6 0 6-6t-6-6zm-60-58q-2 0-4 2t-2 4q0 2 2 4t4 2q2 0 4-2t2-4q0-6-6-6zm21 19q-6 0-6 6t6 6q6 0 6-6 0-2-2-4t-4-2zm-21 20q-2 0-4 2t-2 4q0 2 2 4t4 2q6 0 6-6t-6-6zm21 19q-6 0-6 6t6 6q6 0 6-6t-6-6zm-60-19q-2 0-4 2t-2 4q0 2 2 4t4 2q6 0 6-6t-6-6zm20 19q-2 0-4 2t-2 4q0 2 2 4t4 2q6 0 6-6t-6-6zm-39 0q-2 0-4 2t-2 4q0 2 2 4t4 2q6 0 6-6t-6-6zm-39 0q-6 0-6 6t6 6q6 0 6-6t-6-6zm-21 21q-6 0-6 6t6 6q2 0 4-2t2-4q0-6-6-6zm-19-21q-2 0-4 2t-2 4q0 2 2 4t4 2q6 0 6-6t-6-6zm-20 21q-6 0-6 6t6 6q2 0 4-2t2-4q0-2-2-4t-4-2zm-39-40q-3 0-5 2t-2 4q0 2 2 4t5 2q6 0 6-6t-6-6zm20 19q-2 0-4 2t-2 4q0 2 2 4t4 2q6 0 6-6t-6-6zm-20 21q-7 0-7 6t6.5 6q6.5 0 6.5-6 0-2-2-4t-4-2zm-40-40q-2 0-4 2t-2 4q0 2 2 4t4 2q6 0 6-6t-6-6zm21 19q-6 0-6 6t6 6q6 0 6-6t-6-6zm-60-58q-2 0-4 2t-2 4q0 2 2 4t4 2q2 0 4-2t2-4q0-2-2-4t-4-2zm20 19q-2 0-4 2t-2 4q0 2 2 4t4 2q2 0 4-2t2-4q0-6-6-6zm491-204q6 0 6-6t-6-6q-6 0-6 6 0 2 2 4t4 2zm66-184q0-6-6-6t-6 6q0 2 2 4.5t4 2.5q2 0 4-2t2-5zM508 283q0-5-4-7-36-18-83-28-90-18-153 17-77 43-112 105t-35 157q0 127 47 229 43 93 112 144l8 5q8 6 12 8v2q0 6 6 6 2 0 4-2 7 5 14 8 17 9 34 10 1 4 5 4t6-2h29q2 2 6 2t5-3l28-3q0 6 6 6t6-6l-1-2h6q30-5 46-5 3 0 5.5-2t2.5-6V283zm-16 630q-10 0-37 4h-3q-42 6-64 7-36 0-57-11-92-48-143.5-150.5T136 527q0-90 33-149t107-100q36-20 85-20 39 0 82 12 28 8 49 18v625zm411-586q-44-75-132-120-4-3-8-4 33-33 46.5-68.5T812 74q-11-23-43-35-35-13-82.5-8T596 57q-58 28-96 103L481 27q-3-13-13.5-20.5T443 2l-12 3q-13 3-19 14t-3 23l42 158q-21-7-41-11-109-23-183 18-92 51-133 124T53 515q0 147 56 271 64 138 184 201 27 14 73 13 28 0 80-7 33-5 53.5-5t55.5 5q50 8 82 8 43 0 69-13 120-63 184-201 57-123 57-272 0-112-44-188zM603 71q41-20 84.5-24.5T764 54q25 9 33 27 6 14 1.5 34.5t-18.5 42Q766 179 747 196q-73-28-162-8-41 10-76 26l-4-25q15-37 36-65 28-37 62-53zM424 38q-2-5 1.5-11t9.5-7l12-3q6-2 11.5 2t6.5 10l28 186-8-3q-10-4-16-6L424 38zm456 736q-1-2-4-2t-5 2q-2 2-2 4t2 4q2 2 4 2-16 35-39 67v-1q-2 0-4 2t-2 5v2l-9 12q-1-1-4-1-6 0-6 6 0 2 2 4-3 5-11 13-1-3-5-3-6 0-6 5t3 7l-11 11q-1-4-5-4-6 0-6 6 0 3 3 5l-13 12q-1-3-4-3t-5 2q-2 2-2 4t2 4q-5 3-13 9h-2q-3 0-6 5-9 7-28 17l-6 4-16 6q3-3 3-5 0-6-6-6t-6 6q0 6 6 6-23 5-56 4-22-1-58-6 2-2 2-4 0-6-6-6t-6 6v2l-28-3q0-2-2-3.5t-4-1.5q-5 0-5 4-6-1-16-1h-12q-1-3-5.5-3t-6.5 4l-28 4 1-2q0-6-6-6t-6 6q0 2 1 3-45 7-73 7-41 0-65-12-10-5-28-17v-2q0-6-6-6-2 0-4 2l-13-10q3-2 3-4.5t-2-4.5q-2-2-5-2t-5 4q-10-8-14-12h1q2 0 4-2t2-4q0-2-2-4t-4-2q-2 0-4 2t-2 4v2l-15-15h1q2 0 4-2t2-4q0-2-2-4t-4-2q-2 0-4.5 2t-2.5 3v1l-12-14q2 0 4-2t2-4q0-6-6-6-2 0-4 1t-2 3q-55-67-84-159T69 516q0-107 39.5-177T235 221q64-36 158-19 49 8 101 31l3 1q2 2 7 0l24-11q30-12 61-19 41-10 81-8 51 3 94 25 36 19 66 44v1q0 3 2 5t4 2l2-1q5 4 13 12h-1v1q0 6 6 6h2l11 14v1q0 4 5 6 22 30 36 68-1 1-1 3.5t1.5 4.5q1.5 2 3.5 2 17 57 17 125 0 72-14 139h-2q-6 0-6 6t6 6q-8 34-13 50-2-4-7-4t-5 6q0 6 6 6 2 0 3-1-8 25-19 51zM353 471q-11 11-10 27 2 20 21 40 22 21 68 29h3q7 0 11-4 5-7 4-14-3-17-9-33-9-22-21-34-20-20-39-22-16-1-28 11zm83 150q-47 3-69.5 20.5t-27 34.5q-4.5 17 6.5 31t28.5 14q17.5 0 39-16.5T452 641q2-8-2.5-14t-13.5-6z"/></svg>