<svg viewBox="0 0 1244 1083.753" xmlns="http://www.w3.org/2000/svg"><path d="M411 986q21 0 49-7 23-5 40-15 20 11 40 15 73 19 151-19 76-36 137-116 63-83 93-191 28-98 20.5-193T894 295q-21-39-56-67.5T760 187q-45-11-92-1.5T575 224q-25 16-57 21 9-104 69-167 31-31 66-45 6-2 9-8.5t1-12.5q-2-6-8-9t-13-1q-37 14-66.5 41T526 105q-10-17-24-30-48-43-107-55-66-17-225 14-11 2-19 9.5t-10.5 18q-2.5 10.5 1 21T153 101q52 44 109 82l-22 4q-43 12-78 40t-56 68q-40 70-47 165t20 193q27 96 80 173 51 75 118 117.5T411 986zm74-741q-28-3-51-16 28-1 55-15-2 9-4 28v3zM172 70q1-3 5-4 83-18 159-19 25-1 51 5 53 11 92 47 30 28 25 54l-3 8q-12 25-55 33.5t-93-3.5q-37-9-94-49-41-28-85-66-2-2-2-6zm-37 242q17-34 47-58t66-35q23-5 42-5 65 2 117 38 37 23 77 26v67q0 7 4.5 11.5T500 361q7 0 12-4.5t5-11.5v-67q44-5 76-26 83-52 159-33 37 10 66.5 34.5T865 311q37 64 44 152.5T890 645q-28 99-84 175-55 75-123 109-70 35-135 18-17-4-40-16-8-3-16 0-19 11-40 17-65 17-135-19-67-34-122-109-56-76-84-175-26-92-19.5-180.5T135 312zm365 574q67 0 123.5-33t89.5-89.5Q746 707 746 640t-33-123.5Q680 460 623.5 427T500 394q-67 0-123.5 33T287 516.5Q254 573 254 640t33 123.5q33 56.5 89.5 89.5T500 886zm0-459q58 0 107 29t77.5 77.5Q713 582 713 640t-28.5 107Q656 796 607 825t-107 29q-58 0-107-29t-77.5-78Q287 698 287 640t28.5-106.5Q344 485 393 456t107-29zm-98 279h32v33q0 27 19.5 46t46.5 19q27 0 46.5-19t19.5-46v-33h32q28 0 47-19t19-47q0-28-19-46.5T598 575h-32v-33q0-27-19.5-46.5T500 476q-27 0-46.5 19.5T434 542v33h-32q-28 0-47 19t-19 46q0 27 19 46.5t47 19.5zm0-98h49q7 0 11.5-5t4.5-12v-49q0-14 10-23.5t23.5-9.5q13.5 0 23 9.5T533 542v49q0 7 4.5 12t11.5 5h49q14 0 23.5 9t9.5 23q0 14-9.5 23.5T598 673h-49q-7 0-11.5 5t-4.5 12v49q0 13-9.5 23t-23 10q-13.5 0-23.5-10t-10-23v-49q0-7-4.5-12t-11.5-5h-49q-14 0-23.5-9.5t-9.5-23q0-13.5 9.5-23T402 608zm-244 40q9 0 13.5-7t2.5-14q-22-79-17.5-154T191 345q3-6 7-10 4-7 1-16.5t-14-9.5q-11 0-15 7-3 4-7 12-34 59-39.5 140.5T142 636q1 5 6 8.5t10 3.5zm63-385q7 0 12 5t5 12q0 7-5 11.5t-12 4.5q-7 0-11.5-4.5T205 280q0-7 4.5-12t11.5-5z"/></svg>