<svg viewBox="0 0 1244 1083.753" xmlns="http://www.w3.org/2000/svg"><path d="M880 570q-127-50-272-65 22-30 22-73 0-24-11-46-6-14-24-39l-3-4q-28-38-39-64-19-43-20-100-1-13-8-19-4-3-10-3-14 0-36 22-24 25-49 64-26 43-42 84-18 47-18 81 2 58 29 96-86 9-168 30-59 16-108 35-37 14-69 32-54 30-54 50 0 77 40 141 38 62 107 106.5t160 68Q398 990 500 990t193-23.5q91-23.5 160-68T960 792q40-64 40-141 0-20-52-49-31-17-68-32zm86 171q-46-1-165-23-86-16-200-41l-99-22h-4q-19 5-100 22-114 25-200 41-120 22-164 22-15-37-16-75 45 6 250-34 72-15 151-32 64-14 81-18 17 4 81 18 79 17 151 32 180 35 237 35 10 0 13-1-1 37-16 76zM495 553q17 0 32-3v20l-25-6h-4l-25 6v-19q14 2 22 2zm487 95q-11 4-64-3-10-23-86-54l-1-1q-97-38-209-48-4 0-6.5 2t-3 6q-.5 4 2 6.5t6.5 2.5q105 9 199 45 49 19 72 38-65-11-160-29-83-16-188-40v-27q26-6 44-21l6-4q86 8 170 30 57 15 108 35 47 18 78 37 25 16 32 25zM492 192q13-13 22-18h1l1 6q1 60 22 106 12 28 40 67l3 4q17 24 23 36 9 19 9 39 0 61-46 86-29 17-72 17-47 0-77-35.5T388 408q0-32 17-76 15-40 40-80 24-37 47-60zM131 584q50-20 110-35 85-22 172-29 18 18 43 26v27q-111 25-188 40-64 13-148 27 23-17 70-36 94-36 199-45 4 0 6.5-2.5t1.5-6.5q-2-8-9-8-112 10-209 48l-5 2q-70 31-81 52-63 8-75 4 7-10 33-25 32-20 80-39zm369 389q-134 0-244-40-108-40-170-109 27-3 96-16l30-6 37-8q4 0 6-3t1-6.5q-1-3.5-3.5-5.5t-6.5-1l-53 10q-87 16-120 20-17-21-32-51 68-3 258-41 102-21 201-43 103 23 200 43 190 38 259 41-30 65-96 113.5T705 946q-95 27-205 27zm-90-229q-25 5-72 15l-48 10q-4 1-6 3.5t-1 6q1 3.5 3.5 5.5t5.5 2l25-5q63-13 96-21 4-1 6-3.5t1-6q-1-3.5-4-5.5t-6-1zm465 26q-3-2-6.5-1.5T863 772q-35 49-97.5 84T622 907q-4 1-6 3.5t-1 6.5q2 7 8 7h2q85-17 150-53.5T877 782q3-7-2-12zM562 409q0 4 2.5 6.5t6 2.5q3.5 0 6-2.5t2.5-6.5q0-18-8-35-6-10-20-28l-1-1q-18-25-26-42-13-29-14-68 0-4-2.5-6.5T501 226q-4 1-6 3.5t-2 5.5q1 43 16 76 8 19 28 45l2 2q12 16 16 24 7 13 7 27zm-67 94q3 0 5.5-2.5t2.5-6q0-3.5-2.5-6T495 486q-29 0-47-22t-18-56q0-4-2.5-6.5t-6.5-2q-4 .5-6.5 2.5t-2.5 6q1 42 24 68.5t59 26.5zm22-389q3 0 5.5-2.5t2.5-6.5V21q0-4-2.5-6.5t-6-2.5q-3.5 0-6 2.5T508 21v84q0 4 2.5 6.5t6.5 2.5zm137 197q0 3 2.5 5.5t6.5 2.5h84q4 0 6.5-2.5t2.5-6q0-3.5-2.5-6T747 302h-84q-4 0-6.5 2.5T654 311zm-35-107q3 0 6-3l60-60q2-2 2-5.5t-2-6.5q-6-5-13 0l-60 60q-2 3-2 6.5t2.5 6q2.5 2.5 6.5 2.5zM259 319h85q3 0 5.5-2.5t2.5-6q0-3.5-2.5-6T344 302h-85q-4 0-6.5 2.5t-2.5 6q0 3.5 2.5 6t6.5 2.5zm123-118q2 3 5.5 3t6-2.5q2.5-2.5 2.5-6t-2-6.5l-60-60q-3-2-6.5-2t-6 2.5q-2.5 2.5-2.5 6t3 5.5l60 60z"/></svg>