<svg viewBox="0 0 1244 1083.753" xmlns="http://www.w3.org/2000/svg"><path d="M765 349l-39-86q-3-5-8-5h-36q-25-41-64-68.5T535 154q14-12 14-33 0-18-11.5-31.5T509 73V10q0-4-2-6.5T501 1q-4 0-6.5 2.5T492 10v63q-17 3-28.5 16.5t-11.5 32q0 18.5 14 32.5-44 8-83 35.5T319 258h-35q-6 0-8 5l-40 86-1 3v471l1 3 38 82-38 80q-2 5 0 9t8 4h513q5 0 7.5-5t.5-8l-37-80 37-82 .5-.5q.5-.5.5-2.5V352q0-2-.5-2.5l-.5-.5zm-53 550H584l20-68h140l-32 68zm-423 0l-31-68h140l20 68H289zm278-623l18 68H416l18-68h133zM312 434l-59 59V374l59 60zm436 223l-71 72-71-72V519l71-73 71 72v139zm-335 23l74 61-74 61V680zm-17 122l-59-61 59-61v122zm17-146V519l88-74 87 74v137l-87 74-88-74zm0-161V373l74 61-74 61zm101-61l74-61v122l-74-61zm74 246v122l-74-61 74-61zm18 0l59 61-59 61V680zm0-185V373l59 61-59 61zm-105-73l-72-61h144l-72 61zm-105 73l-59-61 59-61v122zm0 23v139l-72 72-71-72V518l71-72 72 72zm-84 223l-59 60V682l59 59zm12 13l59 60H265l59-60zm177-1l72 61H429l72-61zm176 1l59 60H618l59-60zm71 47l-59-60 59-59v119zm-58-367l58-60v119l-58-59zm-13-13l-59-60h118l-59 60zm-353 0l-59-60h118l-59 60zm112 478l-20-68h169l-20 68H436zm291-591h-43q-4 0-6.5 2.5T675 317q0 4 2.5 6.5t6.5 2.5h51l8 18H604l-19-68h127l15 32zM470 121q0-13 9-22t22-9q13 0 21.5 9t8.5 22q0 13-8.5 21.5T501 151q-13 0-22-9t-9-21zM362 231h28q4 0 6.5-2.5t2.5-6.5q0-4-2.5-6.5T390 213h-9q55-44 120-44 32 0 62.5 11.5T620 213h-28q-4 0-6.5 2.5T583 222q0 4 2.5 6.5t6.5 2.5h47q10 10 22 27H340q12-17 22-27zm-73 45h127l-18 68H258l14-31h53q4 0 6.5-2.5t2.5-6.5q0-4-2.5-6.5T325 295h-45l9-19zm-31 707l13-27h93q4 0 6.5-2.5t2.5-6.5q0-4-2.5-6.5T364 938h-85l10-21h423l10 21H581q-4 0-6.5 2.5T572 947q0 4 2.5 6.5t6.5 2.5h149l13 27H258zm309-770h-35q-4 0-6.5 2.5T523 222q0 4 2.5 6.5t6.5 2.5h35q4 0 6.5-2.5t2.5-6.5q0-4-2.5-6.5T567 213zm-74 0h-53q-3 0-5.5 2.5T432 222q0 4 2.5 6.5t5.5 2.5h53q4 0 6.5-2.5t2.5-6.5q0-4-2.5-6.5T493 213zm39 725h-53q-4 0-6.5 2.5T470 947q0 4 2.5 6.5t6.5 2.5h53q4 0 6.5-2.5t2.5-6.5q0-4-2.5-6.5T532 938zm-31-409q-4 0-6.5 2.5T492 538v19q0 4 2.5 6.5t6 2.5q3.5 0 6-2.5t2.5-6.5v-19q0-4-2.5-6.5T501 529zm0 53q-4 0-6.5 2.5T492 591v52q0 3 2.5 5.5t6 2.5q3.5 0 6-2.5t2.5-5.5v-52q0-4-2.5-6.5T501 582zm-143-16q4 0 6.5-2.5t2.5-6.5v-19q0-4-2.5-6.5T358 529q-4 0-6.5 2.5T349 538v19q0 4 2.5 6.5t6.5 2.5zm0 85q4 0 6.5-2.5t2.5-5.5v-52q0-4-2.5-6.5T358 582q-4 0-6.5 2.5T349 591v52q0 3 2.5 5.5t6.5 2.5zm287-69q-3 0-5.5 2.5T637 591v52q0 3 2.5 5.5t6 2.5q3.5 0 6-2.5t2.5-5.5v-52q0-4-2.5-6.5T645 582zm0-53q-3 0-5.5 2.5T637 538v19q0 4 2.5 6.5t6 2.5q3.5 0 6-2.5t2.5-6.5v-19q0-4-2.5-6.5T645 529zm-436-99h-76q-4 0-6.5 2.5T124 439q0 4 2.5 6.5t6.5 2.5h76q4 0 6.5-2.5t2.5-6.5q0-4-2.5-6.5T209 430zm-6 166H72q-3 0-5.5 2.5T64 605q0 4 2.5 6.5T72 614h131q4 0 6.5-2.5t2.5-6.5q0-4-2.5-6.5T203 596zm0-39h-33q-4 0-6.5 2.5T161 566q0 4 2.5 6.5t6.5 2.5h33q4 0 6.5-2.5t2.5-6.5q0-4-2.5-6.5T203 557zm671-255q0-4-2.5-6.5T865 293h-81q-3 0-5.5 2.5T776 302q0 4 2.5 6.5t5.5 2.5h81q4 0 6.5-2.5t2.5-6.5zm38 104q0-4-2.5-6.5T903 397h-89q-4 0-6.5 2.5T805 406q0 4 2.5 6.5t6.5 2.5h89q4 0 6.5-2.5t2.5-6.5zm-49-63h-35q-4 0-6.5 2.5T819 352q0 4 2.5 6.5t6.5 2.5h35q4 0 6.5-2.5t2.5-6.5q0-4-2.5-6.5T863 343zM664 174h162q4 0 6.5-2.5t2.5-6.5q0-4-2.5-6.5T826 156H664q-4 0-6.5 2.5T655 165q0 4 2.5 6.5t6.5 2.5zm264 628H826q-4 0-6.5 2.5T817 811q0 4 2.5 6.5t6.5 2.5h102q4 0 6.5-2.5t2.5-6.5q0-4-2.5-6.5T928 802zm-733 93h-73q-4 0-6.5 2.5T113 904q0 4 2.5 6.5t6.5 2.5h73q4 0 6.5-2.5t2.5-6.5q0-4-2.5-6.5T195 895zm84-723h91q4 0 6.5-2.5t2.5-6.5q0-4-2.5-6.5T370 154h-91q-4 0-6.5 2.5T270 163q0 4 2.5 6.5t6.5 2.5z"/></svg>