<svg viewBox="0 0 1244 1083.753" xmlns="http://www.w3.org/2000/svg"><path d="M889 397q3 0 5.5-2.5t2.5-6q0-3.5-2.5-6T889 380q-35 0-60 24.5T804 464q0 4 2.5 6.5t6.5 2.5q4 0 6-2.5t2-6.5q0-28 20-47.5t48-19.5zm72 59q-3 0-5.5 2t-2.5 6q0 27-19 45.5T889 528q-4 0-6.5 2.5T880 537q0 4 2.5 6t6.5 2q33 0 57-23.5t24-57.5q0-4-2.5-6t-6.5-2zm-16 8q0-23-16.5-39.5T889 408q-23 0-40 16.5T832 464q0 23 17 40t40 17q23 0 39.5-17t16.5-40zm-96 0q0-16 12-27.5t28-11.5q16 0 27.5 11.5T928 464q0 16-11.5 27.5t-28 11.5q-16.5 0-28-11.5T849 464zm40-111q-19 0-38 7-13 5-33 17l-9 5q-15 8-23 12-35 14-97 22-28-38-70-63-18-28-41.5-47T528 279q7-11 7-22 0-17-11.5-28.5T495 217q-17 0-29 11.5T454 257q0 11 7 22-26 8-49.5 27T370 353q-41 24-73 67-92-5-190-14l-11-1-89 15q-3 1-5 3.5T0 429q0 3 2 5.5t5 2.5q65 11 113 32 67 30 117 84 34 37 60 60 30 27 58 43 39 24 90 33-20 9-52 36l-4 4q-18 15-28 22-16 11-32 18-2 1-4 3.5t-1 5.5q1 3 3.5 5t5.5 2h325q3 0 5.5-2t3.5-4q2-7-5-10-23-13-56-39l-9-7q-28-25-48-34 36-6 69-21 29-13 64-38 23-16 74-56 11-9 36-29l12-9q16 19 38 29.5t47 10.5q30 0 55.5-15t40.5-41q15-26 15-56t-15-55.5Q970 383 944.5 368T889 353zm-510 15h40q4 0 6-2.5t2-6.5q0-4-2-6.5t-6-2.5h-26q17-24 39.5-39t47.5-18q6-2 7-7t-4-9q-11-6-11-20 0-10 6.5-16.5t16-6.5q9.5 0 16.5 6.5t7 16.5q0 6-3.5 11.5t-8.5 9q-5 3.5-4 8.5t7 7q25 3 47.5 18t39.5 39h-91q-4 0-6.5 2.5T496 359q0 4 2.5 6.5t6.5 2.5h105q33 20 59 50-68 8-171 8-85 0-180-5 30-36 61-53zm208 369h-90q-4 0-6.5 2.5t-2.5 6q0 3.5 2.5 6t6.5 2.5h112l18 14H366q11-7 30-24l11-8q27-22 41-29 23-13 48-13t47 11q13 7 40 28l4 4zm302-179q-23 0-43.5-10T812 519q-1-3-4.5-3.5T800 517l-55 43q-27 21-55 43h-90q-4 0-6.5 2.5t-2.5 6q0 3.5 2.5 6t6.5 2.5h66q-42 30-78 42-40 13-92 13-60 0-105-20-43-18-90-62h36q4 0 6.5-2.5t2.5-6.5q0-4-2.5-6.5T337 575h-54q-9-8-27-28h129q3 0 5.5-2.5t2.5-6q0-3.5-2.5-6T385 530H239q-20-20-48-41 78 6 168 10 123 4 215 1 4 0 6-2.5t2-6q0-3.5-2.5-6T573 483q-156 6-407-12l-7-1q-45-26-105-40l44-8 9 1q170 15 313 19 276 7 372-32 9-4 25-13l11-6q19-11 29-15 17-6 32-6 39 0 66.5 27.5T983 464q0 39-27.5 66.5T889 558z"/></svg>