<svg viewBox="0 0 1244 1083.753" xmlns="http://www.w3.org/2000/svg"><path d="M934 541q-24-24-63-48-26-17-70-41l-45-26v-1q0-28-21-51l-41-40 52-52 23 44q6 11 17 11h1q12-2 17-13l62-164q2-5 .5-10.5T861 140q-4-4-9.5-5.5t-10.5.5l-164 62q-11 5-12 17t10 18l44 23-52 52-40-41q-23-21-51-21h-1l-26-45q-24-44-41-70-24-39-48-63-91-89-208-58-42 11-94 39-33 18-98 60l-1 1q-8 4-23 14l-9 6Q7 142 1.5 165T9 207.5q13 19.5 35.5 25T87 226l4-2 330 329-102 102-122-1q-8 0-14 6L47 796q-4 4-5 10t1 11q2 5 7 8t10 3l112 1 1 112q0 5 3 10t8 7l2 1q4 1 6 1 7 0 13-6l136-136q6-6 6-14l-1-122 102-102 329 330q0 2-2 4-12 20-6.5 43t24.5 35q15 9 30.5 9t28-7q12.5-7 20.5-20l6-9q10-15 14-23l1-1q42-65 60-98 28-52 39-94 31-117-58-208zM815 186l-32 85-15-30q-1 0-1-2h-1q0-1-1-1v-1h-1v-1h-1q0-1-1-1l-1-1q-1 0-1-1l-30-15 85-32zM183 791h-77l99-99 76 1-98 98zm27 104v-77l98-98 1 76-99 99zm525-418q3-3 7-9l3-4q12 7 38 21l9 5q36 20 53 31 29 18 48 34l-27 27q-24-20-88-56l-59-33 16-16zm-68-116l41 40q10 12 10 24.5T708 450l-18 17q-10 10-24 10t-24-10l-41-41 66-65zm-116-68q12-10 24.5-10t24.5 10l40 41-65 66-41-41q-10-10-10-24t10-24l17-18zm-35-75q14 26 21 38l-4 3q-6 4-9 7l-16 16-27-47q-19-36-30-53-17-29-32-47l27-27q16 19 34 48 11 17 31 53l5 9zM419 81l-27 27q-43-36-95-30l-8-38q73-9 130 41zm-319 92q-22 14-33 20-7 4-14 2.5t-11.5-8q-4.5-6.5-3-14T47 161l34-21q56-37 88-54 47-26 83-37l8 37q-31 10-72 33-25 14-80 48l-8 6zm24 30q56-36 84-52 43-24 73-31.5t52.5-1Q356 125 379 148q27 27 70 107 18 34 38 65-3 18 2 35.5t18 30.5l41 40-100 101-324-324zm350 350l101-100 40 41q21 21 51 21 10 0 15-1 31 20 65 38 80 43 107 70 23 23 29.5 45.5t-1 52.5q-7.5 30-31.5 73-16 28-52 84L474 553zm387 367l-1 2-20 32q-5 7-12.5 8.5t-14-2.5q-6.5-4-8-11.5T808 934q7-12 21-34l5-7q34-55 48-80 23-41 33-72l37 8q-11 36-37 83-17 32-54 88zm100-208l-38-8q6-52-30-95l27-27q50 57 41 130z"/></svg>