<svg viewBox="0 0 1244 1083.753" xmlns="http://www.w3.org/2000/svg"><path d="M925 446q0-110-55-205-54-92-146-146-95-55-205.5-55T316 94L227 6q-7-7-18.5-3T197 19l-1 104H92q-10 0-16 11-2 5-1 10.5t5 9.5l88 88q-55 95-55 204 0 102 48 192 47 86 129 143l-51 149q-7 21 3 41.5t30 26.5q9 3 17 3 17 0 31.5-10t19.5-26l46-136q64 23 133.5 23T653 829l46 136q5 16 19 26t31 10q9 0 18-3 20-6 30-27 10-18 3-41l-51-149q81-57 128-143 48-90 48-192zM519 567q33 0 61-16.5t44.5-44Q641 479 641 446t-16.5-61Q608 357 580 340.5T519 324q-40 0-72 24l-44-44q52-42 116-42 50 0 92 25t67 67q25 42 25 92t-25 92q-25 42-67 66.5T519 629q-50 0-92-24.5T360.5 538Q336 496 336 446q0-32 11-62t31-55l44 44q-24 32-24 73 0 33 16 61t44 44q28 16 61 16zm13-134l-60-59q22-14 47-14 36 0 61 25t25 60.5q0 35.5-25 61T519.5 532q-35.5 0-61-25.5T433 446q0-27 14-47l60 59q4 5 12 5t13-5q5-5 5-12.5t-5-12.5zm-231 13q0 59 29.5 109.5t79.5 80Q460 665 519 665t109.5-29.5q50.5-29.5 80-80T738 446q0-59-29.5-109.5t-80-80Q578 227 519 227q-40 0-76 13.5T378 279l-19-19 1-47q71-50 159-50 77 0 143 39 64 37 101 101 39 66 39 143t-39 142q-37 64-102 102t-141.5 38Q443 728 377 689q-64-37-101-101-39-66-39-142 0-88 49-160h48l19 18q-25 29-38.5 65.5T301 446zM232 61l92 92v72l-92-92V61zm-97 98l72-1 92 92-72 1-92-92zm171 794q-3 12-17 12h-5q-8-3-11-9.5t0-13.5l48-142q10 6 32 16l-47 137zm460-11q2 7-1 13.5t-10 9.5h-6q-6 0-10.5-3t-5.5-9l-47-137q16-7 32-16l48 142zM519 816q-100 0-187-51-83-49-132-132-51-87-51-187 0-97 45-178l13 13q5 5 13 5h24q-43 75-43 160.5T245 606q42 72 114 114 74 44 160 44t160-44q72-42 114-114 44-74 44-160t-43-160q-42-72-114-114-75-44-162-44t-158 43v-25q0-7-5-12l-13-14q84-45 177-45 101 0 187 51 84 49 133 133 51 86 51 187t-51 187q-49 84-133 133-86 50-187 50z"/></svg>