<svg viewBox="0 0 1244 1083.753" xmlns="http://www.w3.org/2000/svg"><path d="M945 758l-59-47q-4-4-10-3.5t-10 5.5q-4 5-3.5 11t5.5 10l59 47q3 3 9 3t10.5-4.5q4.5-4.5 4-11T945 758zm-107-86l-43-34-36-67q-14-22-32-35l-8-6 15-19q14-18 11.5-41T725 432.5Q707 418 682 421q-2-25-21.5-40T617 369q-2-23-20-40-20-16-44-11-2-25-21-40-16-14-38-12.5T457 282l-23-18q-17-14-39-11.5T359 273q-14 18-11 40h-1q-22 1-36 18.5T300 373q-22 1-38 19-11 14-11 32l-18 17q-26 26-41.5 59.5T173 571l-5 71L51 787q-4 5-3.5 11t5.5 9.5q5 3.5 9 3.5 7 0 12-5l119-149q2-2 4-8l5-76q2-31 15-59.5t36-51.5l7-6q6 8 11 11l22 19-26 33q-4 4-3.5 10t5 10q4.5 4 9.5 4 8 0 12-6l187-232q7-9 18-10t19 6q8 7 9.5 17.5T518 338l-2 2q-4 4-3.5 10t5 10.5q4.5 4.5 10.5 4t11-5.5l2-3q7-8 18-9.5t19.5 5.5q8.5 7 9.5 18t-6 20l-2 2q-4 5-3 11t6 10q5 4 11 3t10-6l1-2q7-9 18-10t19.5 6q8.5 7 10 18t-5.5 19l-1 1q-1 2-2 2-4 5-3 11t6 10q5 4 11 3t10-6l2-3q7-8 17.5-9.5t19 6q8.5 7.5 10 18T711 493l-16 20-69-50q-17-13-42-13h-80q-22 0-37.5 15.5T451 503q0 19 11.5 33t29.5 19l78 18v6q2 40 17 69l-3 2-37 47q-4 4-3.5 10t5.5 10q5 4 9 4 8 0 12-6l33-41q11 16 29 31l11 9q5 3 9 3 8 0 11.5-5t3-11q-.5-6-5.5-10l-11-9q-23-19-36.5-46T599 579v-18q0-5-3-9t-8-5l-89-21q-8-1-13.5-8t-5.5-16q0-9 7-16t17-7h81q13 0 24 8l101 73q14 10 23 25l41 74 45 36q5 4 11 3t10-5.5q4-4.5 3.5-10.5t-5.5-10zM382 290q6-8 16-8l3-1q8 0 15 6l23 18-30 37-23-18q-8-6-9-16t5-18zm-48 61q7-9 16-9h2q10 0 15 5l23 18-30 38-23-19q-8-6-9-16t6-17zm-54 77q-1-9 6-17.5t18-8.5q8 0 15 5l23 19-30 37-23-19q-8-6-9-16zm487 541l-119-95q-3-3-8-3l-6-1q-46-2-83-29l-51-39v-1h1l29-37q4-4 3.5-10t-5.5-10.5q-5-4.5-10.5-3.5t-9.5 6l-30 37q-33 39-80 45-10 1-17 10L270 975q-4 5-3.5 11t5.5 9.5q5 3.5 10.5 3.5t10.5-5l110-137q42-6 76-34l55 42q44 32 99 35h1l114 92q5 3 10.5 3t10-4.5q4.5-4.5 4-11T767 969zM470 117q3 7 9 10.5t14 3.5q8 0 14-3.5t9-10.5l35-73q5-12 .5-22T537 9q-44-16-87-1-12 5-15.5 15.5T435 44l35 73zm53-82l-30 62-30-62q30-9 60 0zm146 160q8 6 16 6 5 0 11-3l73-33q11-5 14-15.5t-2-21.5q-25-40-67-55-12-5-21.5.5T680 90l-20 79q-3 15 9 26zm38-93q29 10 46 38l-62 29 16-67zm-490 63l74 33q5 3 10 3 10 0 17-6 11-11 8-26l-20-79q-2-11-13-16.5t-20-.5q-42 15-67 55-6 10-3 21t14 16zm62-63l17 67-63-29q19-28 46-38z"/></svg>