<svg viewBox="0 0 1244 1083.753" xmlns="http://www.w3.org/2000/svg"><path d="M732 79H268q-18 0-31 12.5T224 122v676q0 17 13 30t31 13h464q18 0 31-13t13-30V259q0-6-4.5-10.5T761 244q-6 0-10 4.5t-4 10.5v539q0 5-4.5 9.5T732 812H268q-6 0-10.5-4.5T253 798V122q0-6 4.5-10t10.5-4h464q6 0 10.5 4t4.5 10v81q0 6 4 10t10 4q6 0 10.5-4t4.5-10v-81q0-18-13-30.5T732 79zm0 0zM510 54q0 5-3 8t-7 3q-4 0-7-3t-3-7.5q0-4.5 3-7.5t7-3q4 0 7 3t3 7zm0 0zm-10 802q-19 0-33.5 14T452 904q0 20 14 34t34 14q20 0 34-14t14-34q0-20-14-34t-34-14zm0 67q-8 0-13.5-5.5T481 904q0-8 6-13.5t13.5-5.5q7.5 0 13 5.5T519 904q0 8-5.5 13.5T500 923zm0 0zM306 499q0 53 26 97.5t70.5 70.5q44.5 26 97.5 26t97.5-26q44.5-26 70.5-70.5t26-97.5q0-53-26-97.5t-70.5-71Q553 304 500 304t-97.5 26.5Q358 357 332 401.5T306 499zm359 0q0 45-22 83t-60 60q-38 22-83 22t-83-22q-38-22-60-60t-22-83q0-45 22-83t60-60q38-22 83-22t83 22q38 22 60 60t22 83zm0 0zm-189-91q-14 0-24 10.5T442 443v112q0 14 10 24t24 10q11 0 20-6l80-56q7-5 11-12.5t4-15.5q0-17-15-29l-80-56q-9-6-20-6zm86 91q0 2-3 4l-80 56q-1 1-3 1-5 0-5-5V443q0-3 1.5-4.5t3.5-1.5q2 0 3 1l80 56q3 3 3 5zm0 0zm382-265l-2-2q-29-29-45-50-26-35-43-79-2-43-32-72.5T749 1H251q-42 0-72.5 29.5T147 103q-17 44-44 79-16 21-45 50l-4 4q-28 28-38 44-16 26-16 59v166q0 6 4.5 10t10.5 4q6 0 10-4t4-10V339q0-25 13-45 9-14 35-39 22-22 34-36 20-23 36-49v658q-15-24-34-46-11-13-31-35l-6-6q-26-25-34-37-13-20-13-45v-96q0-6-4-10t-10-4q-6 0-10.5 4T0 563v96q0 33 17 59 10 17 39 45l2 2q29 29 45 50 27 35 44 80 1 42 31.5 72t72.5 30h498q43 0 73-30t32-72q17-45 43-80 16-21 45-50l2-2q29-28 39-45 17-26 17-59V339q0-33-16-59-10-16-38-44l-2-2zM749 967H251q-31 0-53-22t-22-53V106q0-31 22-53.5T251 30h498q31 0 53 22.5t22 53.5v786q0 31-22 53t-53 22zm222-308q0 24-12 44-8 12-33 37l-2 2q-23 23-35 37-20 23-35 49V170q15 26 35 49 14 16 35 36 26 26 34 39 13 20 13 45v320zm0 0z"/></svg>