<svg viewBox="0 0 1244 1083.753" xmlns="http://www.w3.org/2000/svg"><path d="M327 578q0-6-4-10t-10-4h-20q-6 0-10.5 4t-4.5 10q0 6 4.5 10.5T293 593h20q6 0 10-4t4-11zm-14 134h19q6 0 10.5-4t4.5-10q0-6-4.5-10.5T332 683h-19q-7 0-11 4.5t-4 10.5q0 6 4 10t11 4zm93-41h19q6 0 10.5-4.5T440 656q0-6-4.5-10t-10.5-4h-19q-6 0-10.5 4t-4.5 10q0 6 4.5 10.5T406 671zm96 81q6 0 10.5-4t4.5-10q0-6-4.5-10.5T502 723h-20q-6 0-10 4.5t-4 10.5q0 6 4 10t10 4h20zm154-166h-20q-6 0-10.5 4.5T621 601q0 6 4.5 10t10.5 4h20q6 0 10-4t4-10q0-6-4-10.5t-10-4.5zm108-77h-20q-6 0-10.5 4t-4.5 10q0 6 4.5 10.5T744 538h20q6 0 10.5-4t4.5-10.5q0-6.5-4.5-10.5t-10.5-4zm232-18L852 347V164q0-6-4.5-10.5T837 149h-88q-6 0-10 4.5t-4 10.5q0 6 4 10t10 4h74v175q0 6 4 10l138 138-138 138q-4 4-4 10v174H648q-5 0-10 5L500 966 362 828q-5-5-10-5H178V649q0-5-5-10L35 501l138-138q5-5 5-10V178h174q6 0 10-4L500 36l138 138q4 4 10 4h33q6 0 10-4t4-10q0-6-4-10.5t-10-4.5h-27L510 5q-4-4-10-4t-10 4L346 149H163q-6 0-10.5 4.5T148 164v183L4 491q-4 4-4 10t4 10l144 144v183q0 6 4.5 10.5T163 853h183l144 144q4 4 10.5 4t9.5-4l144-144h183q6 0 10.5-4.5T852 838V655l144-144q4-4 4-10t-4-10zM758 228H622L510 117q-4-5-10-5t-10 5L378 228H242q-6 0-10.5 4.5T227 243v136L116 491q-4 3-4 10t4 10l111 112v136q0 6 4.5 10.5T242 774h29q6 0 10.5-4.5T286 759q0-6-4.5-10t-10.5-4h-15V616q0-6-4-10L147 501l8-8q15-15 34.5-23t41-7q21.5 1 41 9.5T305 497q75 81 169 130 123 65 270 68v50H616q-7 0-11 4L500 854 395 749q-4-4-10-4h-45q-7 0-11 4t-4 10q0 6 4 10.5t11 4.5h38l112 111q4 4 10.5 4t9.5-4l112-111h136q6 0 10.5-4.5T773 759V623l111-112q5-4 5-10t-5-10L773 379V243q0-6-4.5-10.5T758 228zm-10 378q-4 4-4 10v50q-114-3-210-43 91-49 161-126 31-32 75-34 21-1 40.5 7t34.5 23l8 8-105 105zm39-172h-18q-27 0-52 11.5T673 477q-75 83-173 131-100-49-173-131-19-20-44-31.5T231 434q-4-1-12 0h-5l38-38q4-4 4-11V257h129q6 0 10-4l105-105 105 105q4 4 11 4h128v128q0 7 4 11l39 38zm-231-39q-10-15-23-22-5-38-34-63.5T431 284q-25 0-45 10-5 2-7 8t0 11q2 5 8 7.5t12-.5q18-7 32-7 24 0 43.5 14.5T501 365q-16 0-30.5 8T448 395q-18 2-30 15.5T406 443q0 5 2 15-23-8-37.5-27.5T356 387q0-9 4-23 2-6-.5-11.5T351 345q-6-2-11 1t-7 8q-6 16-6 33 0 28 14 52t38 38q24 14 52 14l13-1 10 1h99q20 0 34-14.5t14-33.5q0-19-13-32.5T556 395zm-3 66H448q-6-2-9.5-7t-3.5-12q0-7 5.5-12.5T454 424h2q4 1 8.5-1.5t6.5-7.5q4-10 12-15.5t19-5.5q4 0 12 2h1q14 7 18 19 2 5 7 8t10 2q1-1 3-1 7 0 12.5 5.5t5.5 13q0 7.5-5 13t-13 5.5zm-23 51h-60q-6 0-10 4.5t-4 10.5q0 6 4 10.5t10 4.5h60q6 0 10-4.5t4-10.5q0-6-4-10.5t-10-4.5zm46-164h51q7 0 11-4.5t4-10.5q0-6-4-10.5t-11-4.5h-51q-6 0-10 4.5t-4 10.5q0 6 4 10.5t10 4.5zm117 29h-51q-7 0-11 4t-4 10q0 6 4 10.5t11 4.5h51q6 0 10-4.5t4-10.5q0-6-4-10t-10-4z"/></svg>