<svg viewBox="0 0 1244 1083.753" xmlns="http://www.w3.org/2000/svg"><path d="M361 848q-11 0-18.5 7.5T335 874v47q0 11 7.5 18.5T361 947h280q11 0 18.5-7.5T667 921v-47q0-11-7.5-18.5T641 848H361zm277 70H364v-41h274v41zm56-27v14q0 6 4.5 10t10.5 4q6 0 10.5-4t4.5-10v-14q0-7-4.5-11t-10.5-4q-6 0-10.5 4t-4.5 11zm-416 0v14q0 6 4.5 10t10.5 4q6 0 10.5-4t4.5-10v-14q0-7-4.5-11t-10.5-4q-6 0-10.5 4t-4.5 11zm620-791q-18-18-42-18h-76V72q2-19-10-32t-31-13H484q-6 0-10 4t-4 11q0 7 4 10.5t10 3.5h255q5 0 9.5 4t2.5 9l-24 300q-4 43-22.5 81t-50 67q-31.5 29-71 44.5T501 577q-43 0-82.5-15.5t-70.5-45Q317 487 298 449t-23-80L251 69q-1-5 3-9t9-4h19q6 0 10.5-4t4.5-10q0-6-4.5-10.5T282 27h-19q-18 0-31 13t-11 32l1 10h-76q-24 0-41.5 18.5T87 144l9 181q2 52 29.5 95.5t72 69Q242 515 294 515h11q7 8 23 24 54 49 126 63v85l-20 31h-41q-17 0-29 11.5T352 758v34h-77q-22 0-38 15.5T221 846v128h-8q-6 0-10 4t-4 10q0 6 4 10.5t10 4.5h576q6 0 10-4.5t4-10.5q0-6-4-10t-10-4h-8v-38q0-6-4.5-10.5T766 921q-6 0-10.5 4.5T751 936v38H251V846q0-11 7-18t17-7h452q10 0 17 7.5t7 17.5v27q0 6 4.5 10.5T766 888q6 0 10.5-4.5T781 873v-27q0-23-15.5-38.5T727 792h-75v-34q0-17-12-28.5T611 718h-42l-19-31v-86q71-14 124-62 16-16 23-24h11q52 0 96.5-25.5t72-69Q904 377 906 325l3-58q0-6-4-10.5t-10-4.5q-6 0-10.5 4t-4.5 10l-3 57q-2 43-23.5 79t-57 58Q761 482 718 485q7-10 17-32 47-9 79-45.5t34-85.5l7-166q0-7-4-11t-10-4h-66l2-30h79q10 0 21 9 4 4 6.5 10t1.5 12l-3 61q0 6 4 10.5t10 5.5h1q6 0 10-4t5-10l2-61q2-25-16-44zM246 371q2 25 9 48-31-11-50.5-37.5T184 321l-7-151h52l17 201zm-121-48l-8-181q-2-12 7.5-21.5T146 111h79l2 30h-66q-7 0-10 4v1q-5 6-4 10l7 166q2 49 34 85.5t79 45.5q10 22 16 32-42-3-77.5-25t-57-58Q127 366 125 323zm498 435v34H381v-34q0-5 3.5-8t8.5-3h218q5 0 8.5 3.5t3.5 7.5zm-100-59l12 19h-66l12-19q2-4 2-8v-86q6 1 18.5 1t19.5-1v86q0 6 2 8zm302-529l-7 151q-1 34-20.5 60.5T747 419q5-16 9-48l16-201h53zM501 470q47 0 88-23 5-3 6.5-9t-1.5-11q-3-5-9-7t-11 1q-32 19-73 19t-75.5-20Q391 400 371 365.5t-20-75q0-40.5 20-75t54.5-55Q460 140 501 140t75.5 20.5q34.5 20.5 54.5 55t20 74.5q0 53-33 95-4 4-3.5 10t5 10q4.5 4 10.5 3.5t11-5.5q19-24 29-53t10-60q0-48-24-89.5T591 135q-41-24-90-24t-90 24q-41 24-65 65.5t-24 90q0 48.5 24 89.5t65 65.5q41 24.5 90 24.5zm119-214q-2-6-7-10t-11-5l-56-8-24-50q-6-12-20-12t-20 12l-25 50-55 8q-6 1-11 5t-7 10q-3 14 6 23l40 39-10 55q-2 13 9.5 21t23.5 2l49-26 49 26q6 3 11.5 3t12.5-5q11-8 8-21l-9-55 40-39q9-9 6-23zm-69 43q-9 10-6 20l7 45-40-21q-4-3-9.5-3t-10.5 3l-40 21 7-45q3-10-6-20l-32-31 44-7q13-2 17-12l20-40 20 40q4 10 17 12l44 7-32 31zM335 78q22 9 29 30 5 12 17 12h1q5 0 10-3t7-7q10-20 34-32 4-2 7-7t3-10q0-5-3-10t-7-7q-22-12-34-33-5-10-17.5-10T364 13q-7 19-29 30-12 4-12 18 0 6 3.5 10.5T335 78zm48-38q8 10 22 21-12 7-22 20-7-11-20-21 14-11 20-20z"/></svg>