<svg viewBox="0 0 1244 1083.753" xmlns="http://www.w3.org/2000/svg"><path d="M500 816q-7 0-11.5 4.5T484 832q0 7 4.5 11.5T500 848q7 0 11.5-4.5T516 832q0-7-4.5-11.5T500 816zm294-592h-26q-22-62-68-106-4-5-10-5t-10.5 4.5Q675 122 675 128t4 11q37 36 56.5 83t19.5 98q0 69-34.5 128t-93 93.5Q569 576 500 576t-127.5-34.5Q314 507 279.5 448T245 320q0-76 41.5-139.5T396 87q-5 27 3 52.5t28 44.5l40 38q13 13 33 13t33-13l40-38q20-19 28-44.5t3-52.5l4 2q18 9 26 15 5 3 11 1.5t10-6.5q4-5 2-11t-7-9q-30-19-60-29-14-22-36.5-35T504 1h-8q-27 1-49 14t-37 35q-61 21-108 67t-70 107h-26q-31 0-53.5 22T130 299.5q0 31.5 22.5 54T206 376h15q9 46 33 87t59 71l-14 11q-37 28-58 70.5T220 705v216q0 33 23.5 56.5T300 1001h400q33 0 56.5-23.5T780 921V705q0-47-21-89.5T701 545l-14-11q35-30 59-71t33-87h15q32 0 54-22.5t22-54q0-31.5-22-53.5t-54-22zM497 30h6q23 1 41.5 14T571 78.5q8 21.5 4 41.5-4 25-23 43l-39 38q-5 5-13 5t-13-5l-39-38q-19-18-23-43-4-20 4-41.5T455.5 44Q474 31 497 30zM206 346q-19 0-32.5-13.5T160 300q0-19 13.5-32.5T206 254h18q-4 14-6 31h-17q-6 0-10.5 4.5T186 300q0 6 4.5 10.5T201 315h15v5q0 18 1 26h-11zm414 232v81q0 19-13 32.5T575 705H425q-19 0-32-13.5T380 659v-81q57 27 120 27t120-27zm64-9q31 24 49 60t18 76v216q0 21-15 36t-36 15q-21 0-35.5-15T650 921V763q0-7-4.5-11t-10.5-4q-6 0-10.5 4t-4.5 11v121h-28q-6 0-10.5 4t-4.5 10q0 6 4.5 10.5T592 913h28v8q0 29 19 51H362q18-23 18-51v-8h159q6 0 10.5-4.5T554 898q0-6-4.5-10t-10.5-4H380V763q0-7-4.5-11t-10.5-4q-6 0-10.5 4t-4.5 11v158q0 21-14.5 36T300 972q-21 0-36-15t-15-36V705q0-40 18-76t49-60l21-16 13 9v97q0 31 22 53t53 22h150q31 0 53-22t22-53v-97l13-9 21 16zm110-223h-11q1-8 1-26v-5h15q6 0 10.5-4.5T814 300q0-6-4.5-10.5T799 285h-17q-1-12-5-31h17q20 0 33 13t13 32.5q0 19.5-13 33T794 346zm-459 67l2 8q11 43 46 70t79 27h76q44 0 79-27t46-70l2-8q4-14 0-28.5T651 359q-10-11-24-15.5t-28-1.5l-47 8q-6 2-10 2-42 6-84 0-4 0-10-2l-47-8q-14-3-28 1.5T349 359q-10 11-14 25.5t0 28.5zm135-30q30 3 60 0v28q0 5-3.5 8.5T518 423h-36q-5 0-8.5-3.5T470 411v-28zm-100-4q9-9 21-9 3 0 5 1l45 8v32q0 17 12 29t29 12h36q17 0 29-12t12-29v-32l45-8q15-3 26 8t6 26l-2 9q-8 33-34.5 53.5T538 488h-76q-34 0-61-20.5T366 414l-2-9q-5-14 6-26zm9-79q0 7 4.5 11.5T395 316q7 0 12-4.5t5-11.5q0-7-5-12t-12-5q-7 0-11.5 5t-4.5 12zm69-51q0-6-4.5-10t-10.5-4h-68q-6 0-10.5 4t-4.5 10q0 6 4.5 10.5T365 264h68q6 0 10.5-4.5T448 249zm133 51q0 7 4.5 11.5T597 316q7 0 12-4.5t5-11.5q0-7-5-12t-12-5q-7 0-11.5 5t-4.5 12zm69-51q0-6-4.5-10t-10.5-4h-68q-6 0-10.5 4t-4.5 10q0 6 4.5 10.5T567 264h68q6 0 10.5-4.5T650 249z"/></svg>