<svg viewBox="0 0 1244 1083.753" xmlns="http://www.w3.org/2000/svg"><path d="M367 442q-6 0-10 4.5t-4 10.5v24q0 6 4 10.5t10 4.5q6 0 10.5-4.5T382 481v-24q0-6-4-10.5t-11-4.5zm0 0zm268 54q6 0 10-4.5t4-10.5v-24q0-6-4-10.5t-10-4.5q-6 0-10.5 4.5T620 457v24q0 6 4.5 10.5T635 496zm0 0zm-91-28q-5-4-11-3.5t-10 4.5q-7 10-22 10t-22-10q-4-4-10-4.5t-10.5 3.5q-4.5 4-5 10t3.5 11q17 19 44 19t44-19q4-5 3.5-11t-4.5-10zm0 0zm455 174l-33-173q-11-58-50-103t-95-64q-5-71-38-133-36-64-96-108Q604 2 501 2q-26 0-59 5-6 2-9 6.5T431 24q1 6 6 9.5t11 2.5q28-5 53-5 43 0 84 12.5T661 79l-2 7q-9 23-26 45-59-41-132-41t-132 41h-1q-18-24-27-52 28-18 55-28 6-2 8-8t.5-11.5q-1.5-5.5-7.5-8t-12-.5q-37 15-70 38-60 44-96 108-33 62-38 133-56 19-95 64T36 469L3 642q-7 37 2.5 73.5T39 781q24 29 58 44.5t71 15.5h666q37 0 71-15.5t58-44.5q24-29 33.5-65.5T999 642zm-62-168l30 156H818V332q46 17 78 55t41 87zM719 320h32q13 0 37 4v306h-69V320zm38-137q28 51 34 112-17-4-40-4h-20q-5-40-24.5-77T656 149q19-24 28-46 0-3 2-5 42 33 71 85zm-131-20q31 24 50.5 57t25.5 71H300q6-38 25.5-71t50.5-57q55-44 125-44t125 44zM214 630V324q24-4 37-4h32v310h-69zm31-447q29-52 71-85h1v1q10 27 29 50-31 28-50.5 65T271 291h-20q-23 0-40 4 6-61 34-112zM65 474q9-49 41-87t78-55v298H35l30-156zm-4 288q-18-22-26-48.5T30 659h154v153h-16q-31 0-59-13t-48-37zm153-103h69v153h-69V659zm99 0h262q6 0 10-4t4-10q0-6-4-10.5t-10-4.5H313V320h376v310h-56q-6 0-10 4.5t-4 10.5q0 6 4 10t10 4h56v153H313V659zm406 0h69v153h-69V659zm222 103q-20 24-48 37t-59 13h-16V659h154q3 28-5 54.5T941 762zm0 0z"/></svg>