<svg viewBox="0 0 1244 1083.753" xmlns="http://www.w3.org/2000/svg"><path d="M859 1H141q-32 0-55 23T63 79v781q0 24 12.5 43.5T109 932v22q0 19 14 33t33.5 14q19.5 0 33-14t13.5-33v-15h594v15q0 19 14 33t33.5 14q19.5 0 33-14t13.5-33v-22q21-9 34-28.5t13-43.5V79q0-32-23-55T859 1zM94 79q0-20 14-33.5T141 32h718q20 0 33.5 13.5T906 79v78H94V79zm78 875q0 7-4.5 11.5T156 970q-7 0-11-4.5t-4-11.5v-15h31v15zm687 0q0 7-4.5 11.5T844 970q-6 0-11-4.5t-5-11.5v-15h31v15zm47-94q0 19-13.5 33T859 907H141q-19 0-33-14t-14-33V188h812v672zM172 336v462q0 19 14 33t33 14h562q20 0 33.5-14t13.5-33V336q14-8 22.5-22.5T859 282q0-26-18-44t-44-18H203q-25 0-43.5 18T141 282q0 17 8.5 31.5T172 336zm609 477H219q-7 0-11.5-4.5T203 798v-47h594v47q0 6-4.5 10.5T781 813zM609 657H391v-47q0-6 4.5-10.5T406 595h188q6 0 10.5 4.5T609 610v47zm-247 31h276q-4 14-16.5 23t-27.5 9H406q-15 0-27-9t-17-23zm435 32H656q16-21 16-47 0-7-4.5-11.5T656 657h-15v-47q0-20-13.5-33.5T594 563H406q-19 0-33 13.5T359 610v47h-15q-7 0-11.5 4.5T328 673q0 26 16 47H203V345h594v375zM203 251h594q13 0 22 9t9 22q0 13-9 22t-22 9H203q-13 0-22-9t-9-22q0-13 9-22t22-9zm47-172h-62q-7 0-11.5 4.5T172 95q0 7 4.5 11t11.5 4h62q7 0 11.5-4.5T266 95q0-6-4.5-11T250 79zm180 422h101q7 0 11.5 4.5t4.5 11 4.5 11Q556 532 563 532t11-4.5q4-4.5 4-10.5 0-20-13.5-33.5T531 470H430q-4 0-6-2.5t-2-5.5q0-3 2-5.5t6-2.5h23q26 0 44.5-18t18.5-44q0-7-4.5-11.5T500 376q-7 0-11.5 4.5T484 392q0 13-9 22t-22 9h-23q-16 0-27.5 11T391 461.5q0 16.5 11.5 28T430 501z"/></svg>