<svg viewBox="0 0 1244 1083.753" xmlns="http://www.w3.org/2000/svg"><path d="M981 454q-16-16-38-18t-41 10v-39q0-31-11.5-58.5T858 299q-25-23-54-35V120q0-28-19.5-47T738 54H584q-8 0-13.5 5.5T565 73q0 8 5.5 14t13.5 6h154q11 0 19 8t8 19v465q0 11-8 19t-19 8H261q-11 0-19-8t-8-19V120q0-11 8-19t19-8h151q8 0 14-6t6-14q0-8-6-13.5T412 54H261q-27 0-46.5 19T195 120v145q-29 10-53 34-22 22-33.5 49.5T97 407v39q-18-12-40.5-10T18 454Q0 472 0 498t18 44l79 83v64q0 20 14.5 34.5T146 738h5l-15 189q-2 8 4.5 14.5T155 948h192q9 0 14.5-5.5T367 927l-11-189q20-2 33.5-16t13.5-33v-38h194v38q0 20 14.5 34.5T646 738l-11 189q0 9 6 15t14 6h192q9 0 14.5-6.5T867 927l-16-189h2q20 0 34.5-14.5T902 689v-64l80-83q18-18 18-44t-19-44zM176 909l14-171h127l10 171H176zm188-220q0 4-3 7t-7 3H146q-4 0-7-3t-3-7v-72q0-6-5-13l-85-89q-7-7-7-17t7-17q7-7 16.5-7t16.5 7l24 24q9 9 21 4t12-18v-84q0-23 9-43.5t25-36.5q9-10 25-19v277q0 27 19.5 46.5T261 651h103v38zm311 220l10-171h127l14 171H675zm279-394l-85 89q-6 6-6 13v72q0 4-3 7t-7 3H646q-4 0-7-3t-3-7v-38h102q27 0 46.5-19t19.5-47V307q18 12 26 20 16 16 24.5 37t8.5 43v84q0 13 12.5 18t21.5-4l24-24q7-7 16.5-7t16.5 7q7 7 7 16.5t-7 17.5zM382 146q-38 0-65.5 27T289 238v231q0 38 27.5 65t65.5 27q38 0 65-27.5t27-64.5V238q0-38-27-65t-65-27zm0 376q-20 0-35-13t-18-33l61-61q6-6 6-14t-5.5-14q-5.5-6-14-6t-13.5 6l-35 34V238q0-22 16-37.5t38-15.5q19 0 34 13t18 32l-56 57q-6 5-6 13.5t5.5 14q5.5 5.5 14 5.5t13.5-6l30-29v184q0 22-15.5 37.5T382 522zm147-53q0 38 27.5 65t65.5 27q38 0 65-27t27-65V238q0-38-27-65t-65-27q-38 0-65.5 27T529 238v231zm93-284q19 0 34.5 13t17.5 32l-56 57q-6 5-6 13.5t5.5 14q5.5 5.5 14 5.5t14.5-6l29-29v184q0 22-15.5 37.5T623 522q-21 0-36-13t-18-33l62-61q5-6 5-14t-5.5-14q-5.5-6-13.5-6t-14 6l-34 34V238q0-22 15.5-37.5T622 185zM482 81q3 7 10 10t15 0q8-3 11-10.5t0-14.5q-3-7-10.5-10.5t-15-.5Q485 58 482 66t0 15z"/></svg>