<svg viewBox="0 0 1244 1083.753" xmlns="http://www.w3.org/2000/svg"><path d="M739 495q-83-79-83-157v-70q0-8-6-13.5t-14-5.5q-8 0-13.5 5.5T617 268v71q-64-9-129 0 11-116 29-253 3-31 6-46h94v56q0 8 5.5 14t13.5 6q8 0 14-6t6-14V20q0-8-6-13.5T636 1H238q-9 0-15 7t-4 15l3 19q43 324 43 418 0 52-16 111-9 32-12 52-6 33-6 74 0 28 3 66 5 62 19 132l10 50q6 24 26 40t45 16h166q30 0 54-17.5t33-45.5q51-153 158-250 18-16 27.5-40t9.5-52.5q0-28.5-11.5-54.5T739 495zm-117 63q-65 70-110 141v-2q0-41-5-74-3-20-11-52-6-18-9-37l150-110q7 14 16 29 3 19-1 42-7 37-30 63zM334 962q-12 0-21-7.5T302 936q-12-47-22-110 40 32 92 32 51 0 91-32-8 44-23 110-2 11-11.5 18.5T408 962h-74zm38-495q34 0 70 9 0 11 1 16l-70 56-70-56v-16q36-9 69-9zm-99 289q-3-43-2-77l102-81 100 79q1 36-2 79-36 62-99 62-64 0-99-62zm131-183l44-35q4 23 10 43l2 10q6 21 7 32l-63-50zm-117 8q1-4 3-13 5-19 7-30l44 35-65 51q3-14 9-37l2-6zm334-202l2 7-141 103q-2-24-1-55 1-18 4-55 68-11 136 0zM260 40h223l-6 46q-15 116-22 174-10 98-13 176-36-8-69.5-8t-69.5 8q-3-71-19-213-12-96-24-183zm458 620Q604 764 550 926q-5 16-19 26t-31 10h-28l5-12q11-36 18-80 5-29 12-82 32-65 77-125 27-36 67-79 32-36 39-82 14 14 22 21 15 15 23 33.5t8 38.5q0 37-25 65zm-64-488q-3-7-10.5-10.5T629 161q-7 3-10.5 10.5t-.5 15q3 7.5 10.5 10.5t15 0q7.5-3 10.5-10.5t0-14.5z"/></svg>