<svg viewBox="0 0 1244 1083.753" xmlns="http://www.w3.org/2000/svg"><path d="M695 901q-24 0-44-18L108 377q-19-19-21-42.5t16-43.5l160-172q17-18 42.5-17t43.5 17l543 506q19 16 20.5 41T898 711L737 883q-18 18-42 18zM305 126q-12 0-24 10L121 308q-10 11-8 26t12 25l543 506q11 11 25.5 11t25.5-10l160-172q10-12 8.5-26.5T875 643L332 137q-11-11-27-11zm222 541q-3 0-9-4L337 494q-4-4-4-9t3-9l128-137q3-3 8.5-3t9.5 3l181 169q4 4 4 9t-3 9L536 663q-4 4-9 4zM363 484l163 152 111-118-163-152-111 118zM210 338q-3 0-5-1l-1-1q-2-1-3.5-2.5T198 330v-10q2-2 3-4 7-5 14-2 2 0 3.5 2t3.5 4l1 5q0 5-4 9l-4 3q-2 1-5 1zm47-51q-5 0-9-4l-2-4q-1-1-1-4 0-6 4-9.5t8.5-3.5q4.5 0 8.5 3.5t4 9q0 5.5-3.5 9T257 287zm48-51q-6 0-9-3-1-2-3-4l-1-5q0-5 4-9t9-4q5 0 8.5 3.5t3.5 9.5v5q-3 4-7 7h-5zm-44 128q-2 0-4.5-.5T252 361l-3-4q-1-2-1-5 0-6 3-8.5t5-3.5q5-2 9 0 2 1 5 3.5t3 8.5q0 3-1 5l-3 4q-2 2-4 3h-4zm37-39q-1 0-2-1h-3q-2-1-4-3t-3-4l-1-5 1-5 3-4q7-5 14-2 2 0 4 2t2.5 4q.5 2 .5 5t-.5 5q-.5 2-2.5 4l-4 3-5 1zm37-40q-4 0-5.5-.5t-3.5-3q-2-2.5-3-4.5l-1-4q0-5 4-9 6-6 14-3 3 0 4.5 2.5t2 4q.5 1.5.5 5t-.5 5q-.5 1.5-2.5 3.5-4 4-9 4zm-44 128q-6 0-9-3-4-6-4-9l1-5q1-2 3-4.5t6-3.5q4-1 8 1l3 3q3 1 3.5 3t.5 6.5q0 4.5-3.5 8T291 413zm47-51q-3 0-5-.5t-4-2.5q-3-5-3-9v-5l3-4q7-6 14-3l4 3 3 4 1 5q0 5-4 8.5t-9 3.5zm48-51q-2 0-4.5-.5T377 308q-4-4-4-9t4-9q2-2 4.5-3.5t6.5-.5q4 1 7 4t3 10q0 7-8 10-2 2-4 1zm229 404q-4 0-5.5-.5T606 711q-4-3-4-8 0-3 1-5t3-4q2-2 6-3t7 0q6 4 7 6.5t1 5.5q0 5-4 8-1 3-3 3.5t-5 .5zm47-50q-5 0-9-4l-3-4-1-5 1-5q1-2 3-4 7-6 14-3l4 3q2 2 2.5 4t.5 5q0 3-.5 5t-2.5 4q-4 4-9 4zm47-51l-2-1h-2q-2-1-4-3-4-4-4-9t3-8l1-1q2-2 4.5-3.5t6.5-.5q4 1 7 4.5t3 9q0 5.5-3 8t-5 3.5l-5 1zm-44 128q-5 0-9-4-2-2-2.5-3.5t-.5-5q0-3.5.5-4.5t1.5-4l1-1q2-2 4-2 7-3 14 2 4 6 4 10t-3.5 8q-3.5 4-9.5 4zm37-40q-3 0-4-1-5-2-7-6-1-2-1-5.5t.5-5.5q.5-2 3-4t6.5-3q4-1 6.5.5t4.5 3.5q2 2 3 3.5t1 5q0 3.5-1 5.5l-3 3q-1 3-3 3.5t-6 .5zm37-40q-5 0-8.5-3.5T727 651q0-4 .5-6.5t3-4q2.5-1.5 6.5-2.5t6.5 0q2.5 1 4.5 3l3 4q1 2 1 6t-3.5 7.5Q745 662 739 662zm-44 129h-2l-3-1q-2-2-4-3.5t-2-3.5q-3-5 0-10 0-2 2-4l4-2q5-3 10 0 2 0 4 2l3 4 1 5q0 5-4 9l-4 3-5 1zm48-51q-1 0-3-1h-2q-2-1-5-3.5t-3-8.5l1-5q2-2 3-4 4-3 9-3t8 3l3 4q2 4 1 8t-4 6l-3 3-5 1zm47-51h-2l-3-1-4-3q-2-2-2-4-3-5-1-9.5t7-6.5q5-2 10 0 2 1 4 3t3 4l1 5-1 4q-1 2-3.5 5t-8.5 3z"/></svg>