<svg viewBox="0 0 1244 1083.753" xmlns="http://www.w3.org/2000/svg"><path d="M61 859q5-5 5-11t-4.5-10q-4.5-4-10.5-4t-11 4l-24 25Q0 879 0 901t16 38l46 46q15 16 37.5 16t38.5-16l105-105q20-20 15-49l43-43q33-33 48-81 2-7 8.5-11.5T371 691h1q30 0 57-11t48-32q21-21 32-48t11-57q-1-9 6-16t16-7h1q30 0 57-11t48-32q21-21 32-48t11-57q0-8 4.5-14t11.5-8q47-15 80-48l43-43q14 2 26.5-1.5T879 244l44-44q4-5 4-11t-4-10q-4-4-10-4t-11 4l-44 44q-7 7-17 7t-18-7l-46-45q-7-8-7-18t7-17L883 37q7-7 17.5-7t17.5 7l46 46q7 7 7 17t-7 18l-21 20q-4 4-4 10t4.5 10.5Q948 163 954 163t10-4l20-20q16-16 16-38.5T984 62l-46-45Q923 1 900.5 1T862 17L757 122q-10 10-13.5 23t-1.5 26l-43 43q-13 13-30 17-46 15-74.5 54T566 373q0 9-6.5 16t-16.5 7h-1q-39 0-73 20t-54 54.5Q395 505 395 544q0 10-6.5 16.5T372 567h-1q-48 0-87 28t-53 74q-6 19-18 30l-43 44q-13-3-26 .5T121 757l-40 41q-4 4-4 10t4.5 10q4.5 4 10.5 4t10-4l40-40q7-7 17.5-7t17.5 7l46 46q7 7 7 17.5t-7 17.5L117 964q-7 7-17 7t-18-7l-45-45q-7-8-7-18t7-17l24-25zm136-102l37-37q16-16 25-42 11-37 42-59.5t70-22.5h1q22 0 37-15.5t15-36.5q0-32 16-59.5t43.5-43.5q27.5-16 58.5-16h1q22 0 37.5-15.5T595 373q0-39 23-70.5t60-43.5q25-8 41-24l37-37h1l46 46v1l-37 36q-27 29-68 41-17 5-27 19t-10 31q1 24-8 45.5T627.5 456Q611 473 589 482t-46 9h-1q-21 0-36.5 15.5T490 543q0 49-35 84t-83 35h-1q-17 0-30.5 10T322 698q-13 40-41 69l-37 37v-1h-1l-45-46h-1zm0 0z"/></svg>