<svg viewBox="0 0 1244 1083.753" xmlns="http://www.w3.org/2000/svg"><path d="M781 376h-34q8-23-6-43t-38-20H203q-19 0-33 13.5T156 360q0 16 9 28t23 17v18q0 65 29.5 121.5T297 638L195 919q-10 30-10 35v2q0 19 13 32t32 13q13 0 25-8t17-21l36-96h276q-9 26-3 52.5t25 45.5q19 19 46 25 29 6 55.5-5t42.5-34.5q16-23.5 16-52.5 0-38-27.5-65.5T673 813l-64-175q73-54 98-137h74q26 0 44.5-18.5T844 438q0-26-18.5-44T781 376zm-578-31h500q7 0 11.5 4.5T719 360q0 6-4.5 11t-11.5 5H203q-6 0-10.5-4.5T188 360q0-7 4.5-11t10.5-4zm40 616q-1 4-5 6.5t-8 2.5q-6 0-10-4t-4-10v-1q0-1 8-23l100-277q17 9 28 13L243 961zm282-282l38 103H343l39-103q72 19 143 0zM331 813h244l12 32H319l12-32zm403 94q0 26-18 44.5T672 970q-26 0-44.5-18.5T609 908q0-25 16-42.5t39-20.5q28-3 49 15.5t21 46.5zm-93-88q-16 5-25 13l-62-164q10-3 28-13l59 164zM453 657q-63 0-117-31.5T250.5 540Q219 486 219 423v-16h469v16q0 63-32 117t-86 85.5Q516 657 453 657zm328-187h-66q4-26 4-63h62q13 0 22.5 9t9.5 22q0 13-9.5 22.5T781 470zM203 235h18q6 24 25.5 37t42.5 10q23-3 39-21 19 21 47 21t47-21q16 18 39 21t42.5-10q19.5-13 25.5-37h221q7 0 11.5-4.5T766 220q0-6-4.5-11t-11.5-5H529q-6-23-25.5-36T461 157.5q-23 2.5-39 20.5-19-21-47-21t-47 21q-16-18-39-20.5T246.5 168Q227 181 221 204h-18q-6 0-10.5 4.5T188 220q0 7 4.5 11t10.5 4zm266-47q13 0 22 9.5t9 22.5q0 13-9 22t-22 9q-13 0-22-9t-9-22q0-13 9-22.5t22-9.5zm-94 0q13 0 22 9.5t9 22.5q0 13-9 22t-22 9q-13 0-22-9t-9-22q0-13 9-22.5t22-9.5zm-94 0q14 0 23 9t9 22.5q0 13.5-9 22.5t-22.5 9q-13.5 0-22.5-9t-9-22q0-13 9-22.5t22-9.5zm94-93q8 0 14-8 10-9 12-22t-4-24q-3-4 1-10l4-3q5-5 5-11.5t-4.5-11Q398 1 391.5 1T380 6l-4 3q-9 9-11 21.5t4 24.5q3 5-2 10l-3 3q-7 7-3.5 17T375 95zm-125 31q8 0 14-8 10-9 12-22t-4-24q-3-4 1-10l4-3q5-5 5-11.5t-4.5-11q-4.5-4.5-11-4.5T255 37l-4 3q-9 9-11 22t4 24q3 5-2 10l-3 3q-7 7-3.5 17t14.5 10zm234 0q7 0 14-7l1-1q9-9 11-22t-4-24q-2-6 2-10l3-3q5-5 5-11.5t-4.5-11q-4.5-4.5-11-4.5T489 37l-3 3q-9 9-11 22t3 24q3 4-1 10l-4 3q-7 7-3 17t14 10z"/></svg>