<svg viewBox="0 0 1244 1083.753" xmlns="http://www.w3.org/2000/svg"><path d="M972 286q-14-16-32-25.5T902 250q-6-1-17-1-6-39-36.5-65.5T777 157q-18 0-35 6-8-37-37.5-61.5T636 77q-22 0-43 8-14-28-40.5-45T495 23q-39 0-70 26t-38 63q-86 25-160.5 73.5T95 304q-36 45-63 94-16 29-24 49t-8 42.5Q0 512 8 532q31 75 86 152 65 92 142 152-4 13-1 29 2 12 9.5 22.5T262 904q80 50 160 66 8 1 14.5-3t8.5-12q2-8-2.5-14.5T430 932q-78-17-147-61-9-5-10.5-14.5T276 841q5-6 12.5-8.5T302 834q59 32 103 46 51 16 109 17t118-19q47-15 109-49 6-2 12 0t11 8q5 6 3.5 15.5T759 867q-76 51-163 66-8 2-12.5 8.5t-3 14Q582 963 587 968t12 4q97-16 182-72 21-15 26-42 2-14-3-28 64-56 113-137 34-57 57-120 16-43 22-103 4-44 4-110 0-43-28-74zM705 185v21q-1 16-2 33l-16-2q-8-1-14 4t-7.5 13q-1.5 8 3.5 14t13 7q8 1 19 3-1 4-1 13-7 71-22 119l-13-15q-39-38-88-51 12-52 20-128 3 2 11 4h2q7 3 15-.5t10.5-11q2.5-7.5-1-15T623 183l-23-6 1-26q0-20 1-26 15-9 34-9 29 0 49 20t20 49zm-20 363q-1 32-15 61.5T632 661q-24 22-56 34t-66 10q23-48 67-92 54-54 109-74 0 6-1 9zM404 657q-26-26-39-63 59-25 113.5-79.5T559 397l6-16q43 13 73 42t43 76q-33 10-67 32.5T549 585q-53 53-78 112-37-11-67-40zm-36-182q14-30 36-52 24-24 56-36.5t66-11.5q-11 29-32 60-16 23-43 52-47 46-95 68-3-42 12-80zm-36-41q-8 20-27 30.5t-40.5 8Q243 470 228 454l-40-41q-1-2-5-5l-2-2q42-65 104-109 44-32 92-49-11 100-45 186zM495 62q24 0 43 15.5t25 38.5l-2 53q-18-3-22-3-8-1-14 4t-7 13q-1 8 4 14.5t13 7.5l23 3q-6 75-20 128-40-3-78 9t-69 37q34-120 34-255 0-27 22-46t48-19zM125 329q103-127 260-176v3q-2 33-4 49-55 17-106 51-77 51-128 131-29-10-61-4 17-26 39-54zm812 231q-22 59-53 112-45 75-104 127-15-10-33-10t-33 10q-58 38-125.5 51.5t-135.5 1Q385 839 326 802q-15-10-34-9.5T259 804q-72-57-134-144-52-72-81-143-10-25-2-48t29-36.5Q92 419 116.5 420t43.5 20l40 41q23 24 56.5 30t63.5-10q-12 61 13 118 24 55 74 90 52 35 114 35 60 0 109.5-33t75-87Q731 570 723 511q-7-37-20-62 26-49 36-163 7 1 19 5 8 2 15-1.5t9.5-11q2.5-7.5-1-15T770 254q-5-2-16-5l-12-3 1-13q1-21 1-28 15-9 33-9 32 0 51 23 18 21 19 53 0 12-1 48l-1 13-19-3q-8-1-14.5 4t-7.5 13q-1 8 4 14.5t13 7.5l21 3q-10 104-30 137-4 7-1.5 14.5T820 535q7 4 14.5 2t11.5-9q25-43 35-148 7 1 15 4t15.5-.5q7.5-3.5 10-11t-1-15q-3.5-7.5-11-10T888 342l-4-1q1-22 1-53 9 0 13 1 26 2 44.5 22.5T961 360q0 63-4 104-6 56-20 96zM531 952q-2-6-7.5-9.5t-12-2.5q-6.5 1-11.5 5t-6 10q-3 13 8 20.5t22 .5q6-4 7.5-11t-.5-13z"/></svg>