<svg viewBox="0 0 1244 1083.753" xmlns="http://www.w3.org/2000/svg"><path d="M854 147Q783 76 691.5 38.5T500 1Q400 1 308.5 38.5T146 147Q75 218 37.5 309.5T0 501q0 100 37.5 191.5T146 855q71 71 162.5 108.5T500 1001q100 0 191.5-37.5T854 855q71-71 108.5-162.5T1000 501q0-100-37.5-191.5T854 147zm-683 25q52-52 117.5-85.5T426 41l1 5q3 22 4 33h-26q-8 1-12.5 6T388 97q0 7 5 12t12 5l27-1q-2 44-11 77l-6 20-24-10q-7-2-13.5.5t-9 9.5q-2.5 7 0 13.5t9.5 8.5l24 10q-22 47-54 82l-19-18q-4-5-11.5-5t-12.5 5q-5 5-5 12t5 12l18 19q-35 32-82 54l-9-24q-3-7-9.5-9.5t-13.5 0q-7 2.5-9.5 9T199 391l10 25-20 6q-40 10-77 11l1-26q0-8-5-13t-12-5q-7 0-12 4.5T78 406v26q-13-1-37-5 11-72 44-136 33-66 86-119zm658 658q-52 52-117.5 85.5T574 961l-1-5q-3-22-4-33h26q8-1 12.5-6t4.5-12q0-7-5-12t-12-5l-27 1q1-37 11-77l6-20 25 10 6 1q11 0 16-11 2-7-.5-13.5T622 769l-24-9q22-47 54-82l19 18q5 5 12 5t12-5q5-5 5-12.5t-5-11.5l-18-19q35-32 82-54l10 24q1 5 6 8t9.5 3q4.5 0 6.5-1 7-3 9.5-9.5t.5-13.5l-10-24 20-6q33-9 77-11l-1 26q0 8 5 13t12 5h1q7 0 11.5-5t5.5-12v-26q13 1 37 5-11 72-44 136-33 66-86 119zm94-294l1-27q0-8-5-13t-12-5q-7 0-12 5t-5 12l-1 27q-45 0-87 12-16 4-24 7l-10-25q-2-7-8.5-9.5t-13.5 0q-7 2.5-9.5 9T736 542l10 25q-52 23-94 62l-19-19q-5-5-12-5t-12 4.5q-5 4.5-5 12t5 12.5l19 19q-36 39-62 94l-25-10q-7-2-13.5.5t-9 9.5q-2.5 7 0 13.5t9.5 8.5l25 10-7 24q-12 42-12 87l-27 1q-7 0-12 5t-5 12q0 7 5 12t12 5l28-1q2 26 5 41-26 2-40 2-93 0-178-35.5T171 830Q96 755 62 657q-34-95-25-196 13 3 40 5l-1 27q0 8 5 13t12 5q7 0 12-5t5-12l1-27q45 0 87-12l24-7 10 25q2 5 6.5 8t9.5 3q2 0 6-2 7-2 9.5-8.5t.5-13.5l-10-25q55-26 94-62l19 19q4 5 12 5t12.5-5q4.5-5 4.5-12.5t-5-11.5l-19-19q39-42 62-94l25 10q2 1 6.5 1t9.5-3q5-3 6-8 3-7 .5-13.5T472 233l-25-10q3-8 7-24 12-42 12-87l27-1q7 0 12-5t5-12q0-7-5-12t-13-5l-27 1q-2-27-5-41 26-2 40-2 93 0 178 35.5T829 172q74 74 110 173 33 95 25 196-14-3-41-5z"/></svg>