<svg viewBox="0 0 1244 1083.753" xmlns="http://www.w3.org/2000/svg"><path d="M758 243h-31q-14 0-24.5-10T692 208V18q0-7-5-12t-12-5h-88q-7 0-12.5 5T569 18q0 29-20 49t-49 20q-29 0-49-20t-20-49q0-7-5-12t-12-5h-89q-7 0-12 5t-5 12v190q0 15-10.5 25T273 243h-30q-7 0-12.5 5t-5.5 13v723q0 7 5.5 12t12.5 5h231q7 0 11.5-4.5T492 986l8-69 9 69q1 6 5.5 10.5t11.5 4.5h232q7 0 12-5t5-12V261q0-7-5-12.5t-12-5.5zM397 36q7 37 36 62t67 25q38 0 67-25t36-62h2q-6 38-35.5 63.5T500 125q-40 0-69.5-25.5T395 36h2zM260 966V844q35 73 88 122h-88zm392 0q22-20 43-47 26-35 45-75v122h-88zm88-222q-26 93-77 158-32 41-68 64h-54l-24-193q-1-7-5.5-11t-11.5-4q-7 0-11.5 4t-5.5 11l-24 193h-54q-36-23-68-64-51-65-77-158v-97h480v97zm0-132H260V278h13q29 0 49.5-20.5T343 208V36h16q4 35 24 63t51 44.5q31 16.5 66 16.5t66-16.5Q597 127 617 99t24-63h16v172q0 29 20.5 49.5T727 278h13v334zM634 232q-32-21-70-29-28-6-64-6t-64 6q-38 8-70 29-6 4-7.5 11.5T361 257q4 6 11 7.5t13-2.5q28-18 59-25 24-5 56-5t56 5q32 7 59 25 5 3 9 3 10 0 15-8 4-6 2.5-13.5T634 232zm-37 177q1-1 3-4l3-3q15-20 15-44 0-41-33-66-29-25-89-25-55 0-86 22-36 24-39 72 0 8 5 13.5t12 5.5l71 4q2 0 6-1l2-1q-4 4-4 11v43q0 7 5 12t12 5q17 1 23 6 3 3 3 10t-3 10q-3 3-12.5 3t-13.5-4q-6-5-7-21 0-8-6.5-12.5T451 441l-68 5q-7 0-12 5.5t-4 12.5q2 54 37 82 33 26 91 26t93-25q39-26 39-73 0-29-17-52-6-7-13-13zm-101-38q-8 5-14 5t-8 1q3-5 3-10 1-9 3.5-11t8.5-2q6 0 8 2t2 7.5q0 5.5-3 7.5zm72 148q-27 18-72.5 18T425 518q-16-13-22-39l34-2q5 20 19 30.5t35 10.5q25 0 37.5-15t12.5-33q0-39-43-50v-12q12-4 17-8 20-12 20-37 0-19-13-32h-1q-12-12-32-12-16 0-27.5 7.5T446 348l-37-2q6-18 20-28 23-16 67-16 47 0 67 17t20 39q0 12-8 22.5T554 395q-5 2-8.5 6.5T542 412q0 6 4 10.5t10 6.5q16 3 26 15t10 30q0 27-24 45z"/></svg>