<svg viewBox="0 0 1244 1083.753" xmlns="http://www.w3.org/2000/svg"><path d="M929 39H71q-29 0-50 21T0 110v544q0 29 21 50t50 21h209q4 66 2 179l-1 40q0 8 6 13.5t14 5.5q8 0 13.5-5.5T320 944q0-22 1-35h90v35q0 8 5.5 13.5T430 963q8 0 14-5.5t6-13.5v-35h101v35q0 8 5.5 13.5T570 963q8 0 13.5-5.5T589 944v-35h90q1 13 1 35 0 7 6 13t13.5 6q7.5 0 13.5-6t6-13l-1-40q-2-113 2-179h209q29 0 50-21t21-50V110q0-29-21-50t-50-21zM313 663h98v23h-95l-3-23zm6 62h92v53h-90l-2-53zm92 145h-90v-17q1-24 0-36h90v53zm140 0H450v-53h101v53zm0-92H450v-53h101v53zm0-92H450v-23h101v23zm38 184v-53h90v53h-90zm90-92h-90v-53h92l-2 53zm6-92h-96v-23h99q-3 10-3 23zm26-62H246q-12 0-21-8.5t-9-21q0-12.5 9-21t21-8.5h508q12 0 21 8.5t9 20.5q0 13-9 21.5t-21 8.5h-43zm-106-98h-79l42-95 41 18q-11 40-4 77zM456 381q-22 32-58 46-1-7-1-22 0-26 7-47l52 23zm-36-59q18-30 47-50 15 34 5 73l-52-23zm72 75l41 18-49 111h-33q-29-26-43-61 26-9 48-26.5t36-41.5zm10-143q26-10 56-10 27 0 48 7l-57 129-41-19q8-26 6-54t-12-53zm82 141l57-128q46 27 68 79-26 9-48 26.5T625 414l-41-19zm61 70l52 23q-11 20-31 38h-21q-8-31 0-61zm16-36q21-32 57-46v3q2 13 2 19 0 26-7 48l-52-24zm98-24q0-54-27-100t-73-73q-46-27-100.5-27T458 232q-46 27-73 73t-27 100q0 67 40 121H246q-17 0-31.5 7.5T191 554V189h618v365q-9-13-23.5-20.5T754 526h-35q40-56 40-121zm202 249q0 13-9.5 22.5T929 686H724l3-23h27q23 0 41-14t25-35h9q8 0 13.5-6t5.5-14V169q0-8-5.5-13.5T829 150H171q-7 0-13 5.5t-6 13.5v425q0 8 5.5 14t13.5 6h9q7 21 25 35t41 14h27l1 6q2 11 2 17H71q-13 0-22.5-9.5T39 654V110q0-14 9.5-23T71 78h858q14 0 23 9t9 23v544z"/></svg>