<svg viewBox="0 0 1244 1083.753" xmlns="http://www.w3.org/2000/svg"><path d="M952 173q0-47-23-86.5T866.5 24Q827 1 779.5 1T691 26q-41 25-63 67H93q-32 0-55 23t-23 55v340q0 20 10 38t27 28l166 103q11 6 30 6h3l45 269q2 6 7 10t11.5 3q6.5-1 10-6.5T327 950l-10-60h54l3 63q1 7 5.5 11t11 3.5q6.5-.5 11-5T405 951l-3-61h69l-3 61q-1 7 3.5 12t11.5 5q7 0 11.5-4.5T499 953l4-63h53l-10 60q-1 7 4 12.5t11 5.5q6 0 10.5-4t5.5-9l45-269h4q9 0 14-1 8-1 15-5l166-103q17-10 27-28t10-38V326q43-21 68.5-62t25.5-91zM785 313q-8-48-38-84l33-34 88 88q-36 28-83 30zM670 85l88 88-33 33q-39-31-85-37 2-48 30-84zm106-53q8 48 38 85l-34 34-87-88q36-29 83-31zm142 113q-31-6-60-28l32-32q22 29 28 60zm-82-50q-20-26-28-60 33 6 60 28l-32 32zM702 229l-32 32q-20-26-28-60 33 6 60 28zm-9 54l31-32q22 27 28 60-35-8-59-28zm109-110l34-34q36 30 85 38-2 47-31 84l-88-88zM46 511V171q0-20 14-33.5T93 124h522q-11 40-3.5 81.5T646 280H171q-7 0-11.5 4.5T155 296v308l-87-53q-10-7-16-17.5T46 511zm203 129v-32q0-6 4.5-10.5T265 593h343q7 0 11.5 4.5T624 608v32q0 6-4.5 10.5T608 655H265q-7 0-11.5-4.5T249 640zm331 109h-70l4-63h76l-10 63zm-297-63h76l4 63h-69l-11-63zm108 0h92l-4 63h-85l-3-63zm-79 172l-13-78h66l4 78h-57zm88 0l-4-78h81l-4 78h-73zm104 0l5-78h65l-13 78h-57zm151-215v-36q0-18-14-32t-33-14H265q-19 0-33 14t-14 33v35l-31-19V311h492q2 2 8 6v307l-32 19zm172-132q0 12-6 22.5T805 551l-87 53V333q55 21 109 5v173z"/></svg>