<svg viewBox="0 0 1244 1083.753" xmlns="http://www.w3.org/2000/svg"><path d="M958 62l-19-19q-21-21-48-32T834.5 1Q805 2 779 14t-46 34L90 802l-5-5q-13-15-34.5-15t-36 14.5Q0 811 0 832t15 35l119 119q14 15 35.5 15t35.5-14.5q14-14.5 14-36T204 916l-5-5 754-643q22-20 34-46.5t13-55.5q1-29-10-56t-32-48zm-199 9q18-21 48-31-33 81-99 135-18 16-37 25-15 8-34 14L759 71zM180 962q-5 5-11 5t-11-5L39 843q-4-5-4-11.5t4.5-11Q44 816 50 816t11 5l119 119q5 5 5 11t-5 11zm-5-76l-60-60 24-28 64 64-28 24zm55-46l-69-69 49-57 77 77-57 49zm83-72l-80-80 34-40 86 86-40 34zm225-192q19-107 97-160 23-16 56-22 20-3 65-4L538 576zm392-334L797 355q-11 1-34 1-51 0-77 4-41 7-71 28-58 40-88 106-23 52-28 116L379 712l-90-90 311-364 17-4q34-8 53-15 31-13 60-37 81-67 115-166 40 2 69 31l20 20q16 16 24 36t7.5 42q-.5 22-10 42T930 242z"/></svg>