<svg viewBox="0 0 1244 1083.753" xmlns="http://www.w3.org/2000/svg"><path d="M776 662q-6 0-10.5 4t-4.5 10v94q0 28-10.5 54T720 870l-57 59q-20 20-47 31.5T560 972H440q-28 0-55-11.5T338 929l-57-59q-41-41-41-100l-1-90q0-6-4-10.5t-10-4.5q-6 0-10.5 4.5T210 680v90q0 34 13 65t37 56l57 58q24 25 56 38.5t67 13.5h120q35 0 67-13.5t56-38.5l58-58q24-25 36.5-56t12.5-65l1-94q0-6-4.5-10t-10.5-4zm28-298h-13v-72q0-79-40-147-38-66-104-104Q579 1 500 1T354.5 40Q288 79 249 145q-40 68-40 147v72h-13q-31 0-52.5 21.5T122 438v79q0 30 21.5 52t52.5 22h14v20q0 6 4.5 10.5T225 626q6 0 10-4.5t4-10.5V393h31v175q0 61 29 113.5t81 83.5q5 3 7.5 3t6.5-2l56-25h100l57 25q7 3 13-1 52-31 81.5-83.5T731 568V393h31l-1 215q0 6 4.5 10t10.5 4q6 0 10.5-4t4.5-10v-17h13q31 0 52.5-22t21.5-52v-79q0-31-21.5-52.5T804 364zM431 39q-16 20-24 43-2 6 1 11.5t9 7.5h4q11 0 14-10 13-39 51-55v51q0 6 4 10t10 4q6 0 10.5-4t4.5-10V36q38 17 50 55 1 4 5 7t9 3h5q6-2 8.5-7.5T593 82q-9-26-24-43 53 15 95.5 49.5t68 83.5Q758 221 761 277H386q-6 0-10 4.5t-4 10.5q0 6 4 10t10 4h376v58H239v-58h79q6 0 10-4t4-10q0-6-4-10.5t-10-4.5h-79q3-56 28.5-105t68-83.5Q378 54 431 39zM196 561q-19 0-32-13t-13-31v-79q0-19 13-32t32-13h13l1 168h-14zm506 7q0 51-24 95.5T612 736l-52-23q-4-2-6-2H447q-2 0-6 2l-52 23q-43-28-66.5-72.5T299 568V393h403v175zm147-51q0 18-13 31t-32 13h-13V393h13q19 0 32 13t13 32v79zM500 255q6 0 10.5-4.5T515 240v-19q0-7-4.5-11t-10.5-4q-6 0-10 4t-4 11v19q0 6 4 10.5t10 4.5zm60 0q6 0 10-4.5t4-10.5v-19q0-7-4-11t-10-4q-6 0-10.5 4t-4.5 11v19q0 6 4 10.5t11 4.5zm59 0q6 0 10-4.5t4-10.5v-19q0-7-4-11t-10-4q-6 0-10.5 4t-4.5 11v19q0 6 4.5 10.5T619 255zm59 0q6 0 10.5-4.5T693 240v-19q0-7-4.5-11t-10.5-4q-6 0-10.5 4t-4.5 11v19q0 6 4.5 10.5T678 255zm-237 0q6 0 10.5-4.5T456 240v-19q0-7-4.5-11t-10.5-4q-6 0-10.5 4t-4.5 11v19q0 6 4.5 10.5T441 255zm-59 0q6 0 10.5-4.5T397 240v-19q0-7-4.5-11t-10.5-4q-6 0-10.5 4t-4.5 11v19q0 6 4.5 10.5T382 255zm-59 0q6 0 10-4.5t4-10.5v-19q0-7-4-11t-10-4q-6 0-10.5 4t-4.5 11v19q0 6 4.5 10.5T323 255z"/></svg>