<svg viewBox="0 0 1244 1083.753" xmlns="http://www.w3.org/2000/svg"><path d="M724 286l2 16q1 6 6.5 9.5t12 2.5q6.5-1 10-6t2.5-12l-2-15q-2-7-7-10.5t-11.5-2q-6.5 1.5-10 6.5t-2.5 11zM32 503q1 7 6 11t11.5 3q6.5-1 10.5-6.5t3-11.5L32 325q-5-33 13-58 19-27 51-32l59 337q-5 10-5 20l-6 132q-20-7-34-23t-18-37l-5-28q-1-6-6-10t-11-3q-6 1-10.5 6.5T56 641q0 1 1 1l5 27q5 32 27 55.5t54 31.5l-6 149q-1 20 12.5 34t32.5 15h93q20 0 33.5-14t13.5-33l-7-154q5 1 15 1 64 0 125-12 49-8 110-28l-6 191q-1 20 12.5 34t32.5 15h93q20 0 33.5-14t13.5-33l-9-249q20-8 35-24 19-19 27-44t3-51l-32-181q-1-7-6-11t-11.5-3q-6.5 1-10.5 6t-3 12l32 182q4 19-1.5 36.5T748 612q-3 4-10 9l-4 3-4-110q0-19-13.5-32T684 469h-7l-7-40q-7-40-8-41l-43-246q32-5 58.5 13.5T709 205l4 19q1 7 6 10.5t12 2.5q7-1 10.5-6t2.5-11v-1h-1l-3-19q-5-29-23.5-51t-46-32.5Q643 106 614 111l-7 1q-15 3-19 8-1 1-2 5l-1 2q-119-24-239 0-119 18-224 82-2-4-6.5-6.5T106 201l-16 3q-21 4-39.5 15.5t-31 29Q7 266 2 287.5T1 330l31 173zm597-124l-462 81-17-95q104-66 223-84 67-12 129-11t110 14l17 95zm16 91h-26q-20 0-33 13t-14 32l-1 33q-71 28-143 41-52 9-119 11v-8q-2-19-15-32t-32-12h-65q-9 0-14 2l-10-59 461-81 11 60zM290 906q0 7-4 11.5t-11 5.5h-91q-7-1-11.5-5.5T168 907l13-313q0-6 4.5-10.5T197 579h65q6 0 10.5 4t4.5 11l13 312zm160-194q-65 12-136 10l-4-91q60 0 123-11 77-15 137-38l-4 99q-54 20-116 31zm249-197l13 391q1 7-3.5 11.5T697 923h-91q-7 0-11.5-4.5T590 907l13-391q0-7 4.5-11t11.5-4l65-1q6 0 10.5 4.5T699 515zM352 158q120-24 238 3l16 89q-118-23-238 0-119 18-223 81l-16-89q104-66 223-84zM64 592q6-1 10-5.5t3-10.5l-1-1-2-16q-2-6-6.5-10T56 546q-7 1-10.5 6T43 564l3 16q1 6 6 10t11 3l1-1zm840-370v-1l-1-1q17-12 23.5-32.5T926 148l-21-59q-9-24-32.5-35T825 52l-29 11q-25 9-35.5 32.5T758 143l22 59q7 18 23 29.5t35 11.5h6l68 226q5 15 18.5 24t29.5 8l3-1q5-1 8-2 16-6 24-22.5t3-33.5l-1-4-93-216zm-95-31l-22-59q-4-12 1.5-24T806 92l29-11q13-4 24 1.5t16 17.5l22 58q4 13-1.5 24.5T878 198l-29 11q-12 5-24-.5T809 191zm159 270q-3 5-8.5 7t-10.5 0q-5-2-8-9l-67-224 1-1 93 216q2 5 0 11z"/></svg>