<svg viewBox="0 0 1244 1083.753" xmlns="http://www.w3.org/2000/svg"><path d="M908 484q2 0 4-2t2-4q0-2-2-4.5t-4-2.5q-2 0-4 2t-2 5q0 6 6 6zm0 39q2 0 4-2t2-4q0-2-2-4t-4-2q-6 0-6 6t6 6zm20 18q6 0 6-6t-6-6q-2 0-4 2t-2 4q0 6 6 6zm-20 21q2 0 4-2t2-4q0-2-2-4t-4-2q-6 0-6 6t6 6zm20 19q2 0 4-2t2-5q0-6-6-6-2 0-4 2t-2 4.5q0 2.5 2 4.5t4 2zm-20 20q2 0 4-2t2-4q0-2-2-4t-4-2q-6 0-6 6t6 6zm20 19q2 0 4-2t2-4q0-2-2-4.5t-4-2.5q-2 0-4 2t-2 4.5q0 2.5 2 4.5t4 2zm-20 20q2 0 4-2t2-4q0-2-2-4t-4-2q-6 0-6 6t6 6zm20 19q2 0 4-2t2-4q0-2-2-4t-4-2q-6 0-6 6 0 2 2 4t4 2zm-20 20q2 0 4-2t2-4q0-2-2-4t-4-2q-2 0-4 2t-2 4q0 6 6 6zm20 19q2 0 4-2t2-4q0-2-2-4t-4-2q-6 0-6 6 0 2 2 4t4 2zm-20 20q2 0 4-2t2-4q0-2-2-4t-4-2q-2 0-4 2t-2 4q0 6 6 6zm20 19q2 0 4-2t2-4q0-2-2-4t-4-2q-6 0-6 6 0 2 2 4t4 2zm-20 20q2 0 4-2t2-4q0-2-2-4t-4-2q-2 0-4 2t-2 4q0 6 6 6zm20 19q2 0 4-2t2-4q0-2-2-4t-4-2q-6 0-6 6 0 2 2 4t4 2zm-20 20q2 0 4-2t2-4q0-2-2-4t-4-2q-2 0-4 2t-2 4q0 6 6 6zm20 19q2 0 4-2t2-4q0-2-2-4t-4-2q-6 0-6 6 0 2 2 4t4 2zm-20 20q2 0 4-2t2-4q0-2-2-4t-4-2q-2 0-4 2t-2 4q0 6 6 6zm20 19q2 0 4-2t2-4q0-2-2-4t-4-2q-2 0-4 2t-2 4q0 2 2 4t4 2zm-20 20q6 0 6-6t-6-6q-2 0-4 2t-2 4q0 6 6 6zm-39-508q6 0 6-6t-6-6q-2 0-4.5 2t-2.5 4q0 2 2 4t5 2zm0 39q6 0 6-6t-6-6q-2 0-4.5 2t-2.5 4q0 2 2 4t5 2zm20 19q6 0 6-6t-6-6q-2 0-4 2t-2 4q0 6 6 6zm-20 21q2 0 4-2t2-5q0-6-6-6-2 0-4.5 2t-2.5 4q0 2 2 4.5t5 2.5zm20 18q6 0 6-6t-6-6q-2 0-4 2t-2 4q0 6 6 6zm-20 21q2 0 4-2t2-4q0-2-2-4.5t-4-2.5q-2 0-4.5 2t-2.5 5q0 6 7 6zm20 18q6 0 6-6t-6-6q-2 0-4 2t-2 4q0 6 6 6zm-20 21q2 0 4-2t2-4q0-2-2-4t-4.5-2q-2.5 0-4.5 1.5t-2 4.5q0 6 7 6zm20 18q6 0 6-6t-6-6q-2 0-4 2t-2 4q0 6 6 6zm-20 21q2 0 4-2t2-4q0-2-2-4t-4.5-2q-2.5 0-4.5 1.5t-2 4.5q0 6 7 6zm20 19q2 0 4-2t2-5q0-6-6-6-2 0-4 2t-2 4q0 7 6 7zm-20 20q2 0 4-2t2-4q0-2-2-4t-4.5-2q-2.5 0-4.5 1.5t-2 4.5q0 6 7 6zm20 19q2 0 4-2t2-4q0-2-2-4.5t-4-2.5q-2 0-4 2t-2 5q0 6 6 6zm-20 20q2 0 4-2t2-4q0-2-2-4t-4.5-2q-2.5 0-4.5 1.5t-2 4.5q0 6 7 6zm20 19q2 0 4-2t2-4q0-2-2-4t-4-2q-6 0-6 6t6 6zm-20 20q2 0 4-2t2-4q0-2-2-4t-4-2q-2 0-4.5 2t-2.5 4q0 2 2 4t5 2zm20 19q2 0 4-2t2-4q0-2-2-4t-4-2q-6 0-6 6t6 6zm-20 20q2 0 4-2t2-4q0-2-2-4t-4-2q-2 0-4.5 2t-2.5 4q0 2 2 4t5 2zm20 19q2 0 4-2t2-4q0-2-2-4t-4-2q-6 0-6 6t6 6zm-20 20q2 0 4-2t2-4q0-2-2-4t-4-2q-2 0-4.5 2t-2.5 4q0 2 2 4t5 2zm20 19q2 0 4-2t2-4q0-2-2-4t-4-2q-6 0-6 6t6 6zm-20 20q2 0 4-2t2-4q0-2-2-4t-4-2q-2 0-4.5 2t-2.5 4q0 2 2 4t5 2zm20 19q2 0 4-2t2-4q0-2-2-4t-4-2q-6 0-6 6t6 6zm-20 20q2 0 4-2t2-4q0-2-2-4t-4-2q-2 0-4.5 2t-2.5 4q0 2 2 4t5 2zm20 19q2 0 4-2t2-4q0-2-2-4t-4-2q-2 0-4 2t-2 4q0 6 6 6zm-20 20q6 0 6-6t-6-6q-2 0-4.5 2t-2.5 4q0 2 2 4t5 2zm-40-625q7 0 7-6t-6.5-6q-6.5 0-6.5 6 0 2 2 4t4 2zm0 39q7 0 7-6t-6.5-6q-6.5 0-6.5 6 0 2 2 4t4 2zm21 19q2 0 4-2t2-4q0-2-2-4t-4-2q-2 0-4 2t-2 4q0 6 6 6zm-21 20q7 0 7-6t-6.5-6q-6.5 0-6.5 6 0 2 2 4t4 2zm21 19q2 0 4-2t2-4q0-2-2-4t-4-2q-2 0-4 2t-2 4q0 6 6 6zm-21 20q7 0 7-6t-6.5-6q-6.5 0-6.5 6 0 2 2 4t4 2zm21 19q2 0 4-2t2-4q0-2-2-4t-4-2q-2 0-4 2t-2 4q0 6 6 6zm-21 20q7 0 7-6t-6.5-6q-6.5 0-6.5 6 0 2 2 4t4 2zm21 19q6 0 6-6t-6-6q-2 0-4 2t-2 4q0 6 6 6zm-21 21q3 0 5-2t2-5q0-6-6.5-6t-6.5 6q0 2 2 4.5t4 2.5zm21 18q6 0 6-6t-6-6q-2 0-4 2t-2 4q0 6 6 6zm0 39q6 0 6-6t-6-6q-2 0-4 2t-2 4q0 6 6 6zm0 39q6 0 6-6t-6-6q-2 0-4 2t-2 4q0 6 6 6zm0 40q2 0 4-2t2-5q0-6-6-6-2 0-4 2t-2 4q0 7 6 7zm0 39q2 0 4-2t2-4q0-2-2-4.5t-4-2.5q-2 0-4 2t-2 5q0 6 6 6zm0 39q2 0 4-2t2-4q0-2-2-4t-4-2q-6 0-6 6t6 6zm0 39q2 0 4-2t2-4q0-2-2-4t-4-2q-6 0-6 6t6 6zm0 39q2 0 4-2t2-4q0-2-2-4t-4-2q-6 0-6 6t6 6zm-21 20q3 0 5-2t2-4q0-2-2-4t-5-2q-6 0-6 6 0 2 2 4t4 2zm21 19q2 0 4-2t2-4q0-2-2-4t-4-2q-6 0-6 6t6 6zm-21 20q3 0 5-2t2-4q0-2-2-4t-5-2q-6 0-6 6 0 2 2 4t4 2zm21 19q2 0 4-2t2-4q0-2-2-4t-4-2q-6 0-6 6t6 6zm-21 20q3 0 5-2t2-4q0-2-2-4t-5-2q-6 0-6 6 0 2 2 4t4 2zm21 19q2 0 4-2t2-4q0-2-2-4t-4-2q-2 0-4 2t-2 4q0 6 6 6zm-21 20q7 0 7-6t-6.5-6q-6.5 0-6.5 6 0 2 2 4t4 2zm-39-742q6 0 6-6t-6-6q-6 0-6 6 0 2 2 4t4 2zm0 39q6 0 6-6t-6-6q-6 0-6 6 0 2 2 4t4 2zm0 39q6 0 6-6t-6-6q-6 0-6 6 0 2 2 4t4 2zm21 19q2 0 4-2t2-4q0-2-2-4t-4-2q-2 0-4 2t-2 4q0 6 6 6zm-21 20q6 0 6-6t-6-6q-6 0-6 6 0 2 2 4t4 2zm21 19q2 0 4-2t2-4q0-2-2-4t-4-2q-2 0-4 2t-2 4q0 6 6 6zm-21 20q6 0 6-6t-6-6q-6 0-6 6 0 2 2 4t4 2zm21 19q2 0 4-2t2-4q0-2-2-4t-4-2q-2 0-4 2t-2 4q0 6 6 6zm0 39q2 0 4-2t2-4q0-2-2-4t-4-2q-2 0-4 2t-2 4q0 6 6 6zm0 430q2 0 4-2t2-4q0-2-2-4t-4-2q-6 0-6 6t6 6zm-21 20q6 0 6-6t-6-6q-6 0-6 6 0 2 2 4t4 2zm21 19q2 0 4-2t2-4q0-2-2-4t-4-2q-6 0-6 6t6 6zm-21 20q6 0 6-6t-6-6q-6 0-6 6 0 2 2 4t4 2zm21 19q2 0 4-2t2-4q0-2-2-4t-4-2q-2 0-4 2t-2 4q0 6 6 6zm-21 20q6 0 6-6t-6-6q-6 0-6 6 0 2 2 4t4 2zm21 19q2 0 4-2t2-4q0-2-2-4t-4-2q-2 0-4 2t-2 4q0 6 6 6zM751 93q6 0 6-6t-6-6q-6 0-6 6 0 2 2 4t4 2zm21 19q2 0 4-2t2-4q0-2-2-4t-4-2q-6 0-6 6t6 6zm-21 20q6 0 6-6t-6-6q-6 0-6 6 0 2 2 4t4 2zm21 19q2 0 4-2t2-4q0-2-2-4t-4-2q-6 0-6 6t6 6zm-21 20q6 0 6-6t-6-6q-6 0-6 6 0 2 2 4t4 2zm21 19q2 0 4-2t2-4q0-2-2-4t-4-2q-6 0-6 6t6 6zm0 39q2 0 4-2t2-4q0-2-2-4t-4-2q-2 0-4 2t-2 4q0 6 6 6zm0 547q2 0 4-2t2-4q0-2-2-4t-4-2q-6 0-6 6t6 6zm-21 20q6 0 6-6t-6-6q-6 0-6 6 0 2 2 4t4 2zm21 19q2 0 4-2t2-4q0-2-2-4t-4-2q-6 0-6 6t6 6zm-21 20q6 0 6-6t-6-6q-6 0-6 6 0 2 2 4t4 2zm21 19q2 0 4-2t2-4q0-2-2-4t-4-2q-2 0-4 2t-2 4q0 6 6 6zm-21 20q6 0 6-6t-6-6q-6 0-6 6 0 2 2 4t4 2zm21 19q2 0 4-2t2-4q0-2-2-4t-4-2q-2 0-4 2t-2 4q0 6 6 6zm-21 20q6 0 6-6t-6-6q-6 0-6 6 0 2 2 4t4 2zm-39-117q6 0 6-6t-6-6q-6 0-6 6 0 2 2 4t4 2zm21 19q2 0 4-2t2-4q0-2-2-4t-4.5-2q-2.5 0-4.5 1.5t-2 4q0 2.5 2 4.5t5 2zm-21 20q6 0 6-6t-6-6q-6 0-6 6 0 2 2 4t4 2zm21 19q2 0 4-2t2-4q0-2-2-4t-4-2q-2 0-4.5 2t-2.5 4q0 2 2 4t5 2zm-21 20q6 0 6-6t-6-6q-6 0-6 6 0 2 2 4t4 2zm21 19q2 0 4-2t2-4q0-2-2-4t-4-2q-2 0-4.5 2t-2.5 4q0 2 2 4t5 2zm-21 20q6 0 6-6t-6-6q-6 0-6 6 0 2 2 4t4 2zm21 19q2 0 4-2t2-4q0-2-2-4t-4-2q-2 0-4.5 2t-2.5 4q0 2 2 4t5 2zm-40-117q3 0 5-2t2-4q0-2-2-4t-5-2q-6 0-6 6 0 2 2 4t4 2zm-20 20q6 0 6-6t-6-6q-6 0-6 6 0 2 2 4t4 2zm20 19q3 0 5-2t2-4q0-2-2-4t-5-2q-6 0-6 6 0 2 2 4t4 2zm-20 20q6 0 6-6t-6-6q-6 0-6 6 0 2 2 4t4 2zm20 19q3 0 5-2t2-4q0-2-2-4t-5-2q-6 0-6 6 0 2 2 4t4 2zm-20 20q6 0 6-6t-6-6q-6 0-6 6 0 2 2 4t4 2zm20 19q3 0 5-2t2-4q0-2-2-4t-5-2q-6 0-6 6 0 2 2 4t4 2zm-39-117q6 0 6-6t-6-6q-6 0-6 6 0 2 2 4t4 2zm-20 20q2 0 4-2t2-4q0-2-2-4t-4-2q-2 0-4 2t-2 4q0 2 2 4t4 2zm20 19q6 0 6-6t-6-6q-6 0-6 6 0 2 2 4t4 2zm-20 20q6 0 6-6t-6-6q-2 0-4 2t-2 4q0 2 2 4t4 2zm20 19q6 0 6-6t-6-6q-6 0-6 6 0 2 2 4t4 2zm-20 20q6 0 6-6t-6-6q-2 0-4 2t-2 4q0 2 2 4t4 2zm20 19q6 0 6-6t-6-6q-6 0-6 6 0 2 2 4t4 2zm-20 20q6 0 6-6t-6-6q-2 0-4 2t-2 4q0 2 2 4t4 2zm-33-123q0-2-2-4t-4.5-2q-2.5 0-4.5 4-65 14-128 3-48-9-92-30-23-12-44-26-16-11-28-22-10-9-10-10-2-2-5.5-2t-5.5 2q-2 2-2.5 5.5t1.5 5.5l3 3q38 34 82.5 56.5T454 844l-.5.5q-.5.5-.5 3t2 4.5q2 2 4 2t4-2q2-2 2-4v-2l9 1q12 2 18 2 2 5 6 5t6-4h27q2 4 5 4t5-1.5q2-1.5 2-3.5l28-3q-1 1-1 2.5t2 3.5q2 2 4 2t4-2q2-2 2-4.5t-1-3.5q4 0 12-2 3-1 5-3.5t1-5.5q2-2 2-4zm14 25q6 0 6-6t-6-6q-6 0-6 6 0 2 2 4t4 2zm-20 8q-2 0-4 2t-2 4q0 2 2 4t4 2q6 0 6-6t-6-6zm20 31q6 0 6-6t-6-6q-6 0-6 6 0 2 2 4t4 2zm-20 8q-2 0-4 2t-2 4q0 2 2 4t4 2q6 0 6-6t-6-6zm20 31q6 0 6-6t-6-6q-6 0-6 6 0 2 2 4t4 2zm-20 8q-2 0-4 2t-2 4q0 2 2 4t4 2q6 0 6-6t-6-6zm-39-78q-2 0-4 2t-2 4q0 2 2 4t4 2q6 0 6-6t-6-6zm20 19q-2 0-4 2t-2 4q0 2 2 4t4 2q2 0 4-2t2-4q0-6-6-6zm-20 20q-2 0-4 2t-2 4q0 2 2 4t4 2q6 0 6-6t-6-6zm20 19q-2 0-4 2t-2 4q0 2 2 4t4 2q2 0 4-2t2-4q0-6-6-6zm-20 20q-2 0-4 2t-2 4q0 2 2 4t4 2q6 0 6-6t-6-6zm-39-78q-2 0-4 2t-2 4q0 2 2 4t4 2q6 0 6-6t-6-6zm20 19q-2 0-4 2t-2 4q0 2 2 4t4 2q2 0 4-2t2-4q0-6-6-6zm-20 20q-2 0-4 2t-2 4q0 2 2 4t4 2q6 0 6-6t-6-6zm20 19q-2 0-4 2t-2 4q0 2 2 4t4 2q2 0 4-2t2-4q0-6-6-6zm-20 20q-2 0-4 2t-2 4q0 2 2 4t4 2q6 0 6-6t-6-6zm-39-78q-2 0-4 2t-2 4q0 2 2 4t4 2q6 0 6-6t-6-6zm20 19q-2 0-4 2t-2 4q0 2 2 4t4 2q2 0 4-2t2-4q0-6-6-6zm-20 20q-2 0-4 2t-2 4q0 2 2 4t4 2q6 0 6-6t-6-6zm20 19q-2 0-4 2t-2 4q0 2 2 4t4 2q2 0 4-2t2-4q0-6-6-6zm-20 20q-2 0-4 2t-2 4q0 2 2 4t4 2q6 0 6-6t-6-6zm-39-78q-6 0-6 6t6 6q6 0 6-6t-6-6zm20 19q-2 0-4 2t-2 4q0 2 2 4t4 2q2 0 4-2t2-4q0-2-2-4t-4-2zm-20 20q-6 0-6 6t6 6q6 0 6-6t-6-6zm20 19q-2 0-4 2t-2 4q0 2 2 4t4 2q2 0 4-2t2-4q0-2-2-4t-4-2zm-20 20q-6 0-6 6t6 6q6 0 6-6t-6-6zm-39-78q-6 0-6 6t6 6q6 0 6-6t-6-6zm20 19q-2 0-4 2t-2 4q0 2 2 4t4 2q2 0 4-2t2-4q0-2-2-4t-4-2zm-20 20q-6 0-6 6t6 6q6 0 6-6t-6-6zm20 19q-2 0-4 2t-2 4q0 2 2 4t4 2q2 0 4-2t2-4q0-2-2-4t-4-2zm-59-58q-6 0-6 6t6 6q6 0 6-6t-6-6zm20 19q-2 0-4 2t-2 4q0 2 2 4t4 2q2 0 4-2t2-4q0-2-2-4t-4-2zm-20 20q-6 0-6 6t6 6q6 0 6-6t-6-6zm20 19q-2 0-4 2t-2 4q0 2 2 4t4 2q2 0 4-2t2-4q0-2-2-4t-4-2zm-59-58q-6 0-6 6t6 6q6 0 6-6t-6-6zm20 19q-2 0-4 2t-2 4q0 2 2 4t4 2q2 0 4-2t2-4q0-2-2-4t-4-2zm-20 20q-6 0-6 6t6 6q6 0 6-6t-6-6zm-19-59q-2 0-4 2t-2 4q0 2 2 4t4 2q2 0 4-2t2-4q0-2-2-4t-4-2zm-26 26q0 6 6 6t6-6q0-6-6-6-2 0-4 2t-2 4zm26 13q-2 0-4 2t-2 4q0 2 2 4t4 2q2 0 4-2t2-4q0-2-2-4t-4-2zm-59-46q2 0 4-2t2-4q0-2-2-4t-4-2q-2 0-4.5 2t-2.5 4q0 2 2 4t5 2zm20 19q2 0 4-2t2-4q0-2-2-4t-4-2q-2 0-4 2t-2 4q0 6 6 6zm-20 20q6 0 6-6t-6-6q-2 0-4.5 2t-2.5 4q0 2 2 4t5 2zm-40-39q3 0 5-2t2-4q0-2-2-4t-5-2q-6 0-6 6 0 2 2 4t4 2zm21 19q2 0 4-2t2-4q0-2-2-4t-4-2q-2 0-4 2t-2 4q0 6 6 6zm-21 20q7 0 7-6t-6.5-6q-6.5 0-6.5 6 0 2 2 4t4 2zm21 19q2 0 4-2t2-4q0-2-2-4t-4-2q-2 0-4 2t-2 4q0 6 6 6zm-21 20q7 0 7-6t-6.5-6q-6.5 0-6.5 6 0 2 2 4t4 2zm-18-98q2 0 4-2t2-4q0-2-2-4t-4-2q-6 0-6 6t6 6zm-21 20q6 0 6-6t-6-6q-6 0-6 6 0 2 2 4t4 2zm21 19q2 0 4-2t2-4q0-2-2-4t-4-2q-2 0-4 2t-2 4q0 6 6 6zm-21 20q6 0 6-6t-6-6q-6 0-6 6 0 2 2 4t4 2zm21 19q2 0 4-2t2-4q0-2-2-4t-4-2q-2 0-4 2t-2 4q0 6 6 6zm-21 20q6 0 6-6t-6-6q-6 0-6 6 0 2 2 4t4 2zm21 19q2 0 4-2t2-4q0-2-2-4t-4-2q-2 0-4 2t-2 4q0 6 6 6zm-21 20q6 0 6-6t-6-6q-6 0-6 6 0 2 2 4t4 2zm-39-156q6 0 6-6t-6-6q-6 0-6 6 0 2 2 4t4 2zm39 0q6 0 6-6t-6-6q-6 0-6 6 0 2 2 4t4 2zm-18 19q2 0 4-2t2-4q0-2-2-4t-4-2q-6 0-6 6t6 6zm-21 20q6 0 6-6t-6-6q-6 0-6 6 0 2 2 4t4 2zm21 19q2 0 4-2t2-4q0-2-2-4t-4-2q-2 0-4 2t-2 4q0 6 6 6zm-21 20q6 0 6-6t-6-6q-6 0-6 6 0 2 2 4t4 2zm21 19q2 0 4-2t2-4q0-2-2-4t-4-2q-2 0-4 2t-2 4q0 6 6 6zm-21 20q6 0 6-6t-6-6q-6 0-6 6 0 2 2 4t4 2zm21 19q2 0 4-2t2-4q0-2-2-4t-4-2q-2 0-4 2t-2 4q0 6 6 6zm-21 20q6 0 6-6t-6-6q-6 0-6 6 0 2 2 4t4 2zm21 19q6 0 6-6t-6-6q-2 0-4 2t-2 4q0 6 6 6zm-39-156q2 0 4-2t2-4q0-2-2-4t-4.5-2q-2.5 0-4.5 1.5t-2 4q0 2.5 2 4.5t5 2zm-21 20q6 0 6-6t-6-6q-6 0-6 6 0 2 2 4t4 2zm21 19q2 0 4-2t2-4q0-2-2-4t-4-2q-2 0-4.5 2t-2.5 4q0 2 2 4t5 2zm-21 20q6 0 6-6t-6-6q-6 0-6 6 0 2 2 4t4 2zm21 19q2 0 4-2t2-4q0-2-2-4t-4-2q-2 0-4.5 2t-2.5 4q0 2 2 4t5 2zm-21 20q6 0 6-6t-6-6q-6 0-6 6 0 2 2 4t4 2zm21 19q2 0 4-2t2-4q0-2-2-4t-4-2q-2 0-4.5 2t-2.5 4q0 2 2 4t5 2zm-21 20q6 0 6-6t-6-6q-6 0-6 6 0 2 2 4t4 2zm21 19q6 0 6-6t-6-6q-2 0-4.5 2t-2.5 4q0 6 7 6zM68 854q3 0 5-2t2-4q0-2-2-4t-5-2q-6 0-6 6 0 2 2 4t4 2zm-25 17v.5q0 .5.5.5h.5v1h1v.5q0 .5.5.5H48q6 0 6-6t-6-6h-1l-1 1h-1l-1 1q-2 2-2 4t1 3zm25 22q3 0 5-2t2-4q0-2-2-4t-5-2q-6 0-6 6 0 2 2 4t4 2zm0 39q3 0 5-2t2-4q0-2-2-4t-5-2q-6 0-6 6 0 2 2 4t4 2zm0 39q7 0 7-6t-6.5-6q-6.5 0-6.5 6t6 6zm-25-22q0 1 .5 1h.5v1h1v.5q0 .5.5.5H48q6 0 6-6t-6-6h-1v1h-2v1h-1v1q-2 2-2 3.5t1 2.5zm0-39v.5q0 .5.5.5h.5v1h1v.5q0 .5.5.5H48q6 0 6-6t-6-6h-1v1h-2v1h-1l-.5.5q-.5.5-.5 1t-.5 1q-.5.5-.5 2t1 2.5zm299-68q-2 0-4 2t-2 4q0 2 2 4t4 2q2 0 4-2t2-4q0-2-2-4t-4-2zm39 0q-2 0-4 2t-2 4q0 2 2 4t4 2q2 0 4-2t2-4q0-2-2-4t-4-2zm39 0q-2 0-4 2t-2 4q0 2 2 4t4 2q2 0 4-2t2-4q0-2-2-4t-4-2zm253-46q6 0 6-6t-6-6q-6 0-6 6 0 2 2 4t4 2zm66-26q0-6-6-6-3 0-5 1.5t-2 4q0 2.5 2 4.5t5 2q6 0 6-6zm90-52q3 0 5-2t2-4q0-2-2-4t-5-2q-6 0-6 6 0 2 2 4t4 2zm0-39q3 0 5-2t2-4q0-2-2-4t-5-2q-6 0-6 6 0 2 2 4t4 2zm0-39q3 0 5-2t2-4q0-2-2-4t-5-2q-6 0-6 6t6 6zm0-39q3 0 5-2t2-4q0-2-2-4t-5-2q-6 0-6 6t6 6zm0-39q3 0 5-2t2-4q0-2-2-4t-5-2q-6 0-6 6t6 6zm0-39q3 0 5-2t2-4q0-2-2-4t-5-2q-6 0-6 6t6 6zm0-39q3 0 5-2t2-4q0-2-2-4.5t-5-2.5q-6 0-6 6.5t6 6.5zm-18-99q2 0 4-2t2-4q0-2-2-4t-4-2q-2 0-4 2t-2 4q0 6 6 6zm150 202q-2-24-9-52-4-17-14-50-3-13-7-23l-6-21-2-5q-32-104-55-157v-1q-2-3-40-100l-5-12q-2-23-10-48-14-46-45-82-22-27-67-33-35-5-79 2-52 8-98.5 28T470 69q-9 22 16 83 9 21 19 39 12 20 19 24 16 10 143 2h2q25 55 34 83 14 47 9 87-2 14-9 42l-1 5q-8 25-11 48-12 56 3 112-1 6-7.5 8t-21.5 1h-4q-11-16-30-39-23-27-34-35-64-50-154-57-69-5-149 16-37-55-65-85-40-44-86.5-64T40 337q-3 1-4.5 4t-.5 6q3 7 10 5 52-16 93 2t77 56q27 28 60 78 1 1 1 2 20 33 32 67 9 25 14 47l2 17q0 8 8 8t8-8q0-13-7-40-11-39-32-78 76-20 142-15 85 6 145 53 11 9 35 38 22 28 27 36 3 5 13 4h7q17 0 26-4 13-6 14-21v-3q-15-52-4-106 2-20 11-47l3-11q6-25 8-38 5-42-9-92-10-30-34-83 22-8 35-34 9-21 10-43 0-3-2-5.5t-5.5-2.5q-3.5 0-6 2t-2.5 6l-2 16q-4 18-12 30-12 17-30 18-47 3-88 3-44 1-50-3-3-2-12.5-18T500 144q-10-23-14-42t-1-26q3-7 23-18t49-21q34-11 68-16 25-5 49-4 31 0 53 9l-1 2q0 2 2 4t4.5 2q2.5 0 5.5-3 5 3 15 11h-2q-2 0-4 2t-2 4q0 2 2 4t4 2q2 0 4-2t2-4v-1q8 10 11 15-2 2-2 5 0 6 6 6l3-1q18 31 27 66 5 21 5 30v2l3 8q-2 0-3.5 2t-1.5 4q0 6 6 6 2 0 4-2 35 90 39 97l5 12q6 13 8 19-2 0-3.5 1.5T862 321q0 6 7 6h2q5 12 13 37l3 9q-4 2-4 7t6 5h2l15 48q-4 0-4 6t6 6l1-1q3 8 7 22l6 18 2 8q-2 2-2 4t1.5 4q1.5 2 3.5 2l1 4q15 54 17 82l1 1q-2 0-3.5 2t-1.5 4q0 6 6 6 0 9 2 27h-2q-6 0-6 6t6 6l2-1v29q0-1-2-1-6 0-6 6t6 6q2 0 2-1v28h-2q-6 0-6 6t6 6h2q0 12-1 19v8h-1q-6 0-6 6t6 6h1q0 18-1 27-6 0-6 6t6 6v27q-6 0-6 6 0 2 1.5 4t3.5 2q-2 16-7 25.5T923 874q-20 6-30 8l-4-1q-5 0-6 4l-28 5 1-3q0-2-2-4t-4-2q-2 0-4 2t-2 4.5q0 2.5 2 4.5-14 3-34 8h-1q-5 3-15 7 0-6-6-6t-6 6q0 3 3 5-54 25-109 38 1-1 1-4 0-6-6-6t-6 5q0 5 4 7-25 6-51 9-2-2-5-2t-5 3q-13 3-28 3 0-6-6-6t-6 6v1l-27 1v-2q0-6-6-6t-6 6v2q-17 0-26-1h-1v-1q0-6-6-6-2 0-4 2t-2 4l-28-3q-1-3-4-3t-5 2q-33-5-52-10 3-2 3-4.5t-2-4.5q-2-2-4-2t-4 2q-2 2-2 4v3q-22-6-51-17 5-2 5-5t-2-5q-2-2-4-2t-4 2q-2 2-2 4t1 3q-33-14-51-26 0-1-1-1l-16-12 1-3q0-2-2-4t-4-2q-2 0-4 2t-2 4q-3 1-4 4l-2 2q-3 6-5 9l-3-1q-3 0-5 2t-2 4.5q0 2.5 3 4.5-7 7-10 11-1-3-5-3-6 0-6 6 0 3 3 5-5 5-13 11-2-2-4.5-2t-4.5 2q-2 2-2 4l1 4q-35 24-68 31-2-2-5-2t-5 4q-13 3-28 3v-1q0-6-6-6-2 0-4 2t-2 4q-20-2-36-7-3-1-5.5 0t-4 4q-1.5 3 0 6t4.5 4q26 9 53 9 38 0 77-17 28-12 52-32.5t41-45.5q92 66 241 76 81 4 160.5-13T817 915q28-7 47-11l4-1q40-7 61-13.5t28-30.5q5-14 6-45v-13l1-79q1-44 1-67 0-38-4-68z"/></svg>