<svg viewBox="0 0 1244 1083.753" xmlns="http://www.w3.org/2000/svg"><path d="M817 469q-14 0-21 1l-27-64q-5-11-13-18l-4-4 12-112q12-8 18.5-20.5T789 225q0-24-17-41t-41-17h-71q-24 0-41 17t-17 40.5q0 23.5 17 40.5t41 17h23l-10 89H357l-7-52q35-3 50-12h1q14-8 22.5-22t8.5-30q0-22-15-38t-41-21q-18-2-44-8-56-13-92-13-31 0-52.5 21.5t-21.5 52q0 30.5 21.5 52T240 322h31l8 61q-6 5-11 13l-45 77q-17-4-40-4-50 0-92 24.5T24.5 560Q0 602 0 652t24.5 92Q49 786 91 810.5t92 24.5q30 0 60-10.5t54-29.5q43-35 60-88h23q12 14 29 22t36 8q22 0 41.5-11t30.5-29h22q7 0 11.5-5t4.5-12q0-7-4.5-11.5T539 664h-10q1-4 1-12v-2l172-148 2 6q-33 26-51.5 64T634 652q0 50 24.5 92t66.5 66.5q42 24.5 92 24.5t92-24.5q42-24.5 66.5-66.5t24.5-92q0-50-24.5-92T909 493.5Q867 469 817 469zM660 249q-10 0-17.5-7t-7.5-17.5q0-10.5 7.5-17.5t17.5-7h71q11 0 18 7t7 17.5q0 10.5-7.5 17.5t-17.5 7h-71zm70 33l-10 90v-1h-13l9-89h14zm-475 7h-15q-17 0-29-12t-12-29q0-17 12-28.5t29-11.5q27 0 82 11l17 4q21 5 32 6.5t19.5 8Q399 244 399 255q0 8-3.5 14t-10.5 9q-1 1-2 1-20 10-128 10zm69 82h-13l-7-50h13l7 50zM183 802q-41 0-75.5-20.5t-54.5-55q-20-34.5-20-75t20-75Q73 542 107.5 522t75.5-20q7 0 21 2h2l-12 20h-11q-35 0-64.5 17T72 587.5Q55 617 55 652t17 64.5Q89 746 118.5 763t65.5 17q36 0 67-20t47-53h24q-17 43-55 69t-84 26zm-51-120q7 12 18 18.5t25 6.5h85q-14 18-34 29t-43 11q-39 0-67-28t-28-66q0-38 25.5-65.5T175 557l-43 76q-7 11-7 24.5t7 24.5zm364-18h-45q-7 0-12 4.5t-5 11.5q0 7 5 12t12 5h20q-14 7-26 7-22 0-37-15t-15-37q0-22 15-37t37-15q22 0 37 15t15 37q0 8-1 12zM396 470h191L471 571q-12-4-20-4l-55-97zm301-8L521 614q-9-17-20-26l141-122q4-3 5-8t-1-10q-2-5-6-8t-9-3H367q-9 0-14 8.5t0 16.5l63 110q-15 5-28 17l-63-110q-5-8-14.5-8t-14.5 8l-79 137q-3 10 1 17 1 4 5 6t9 2h129q-1 4-1 11 0 11 3 22H175q-9 0-14-8-2-4-2-8.5t2-8.5l135-236q2-4 6-6.5t8-2.5h409q7 0 13 6l2 3q3 1 5 6l93 226q3 7 1 13t-9 9q-3 1-7 1-10 0-15-10l-79-190q-3-8-11.5-10t-14.5 4zM361 608h-1v-1l1 1zm-35 0h-23q-8-21-21-37l11-21q24 28 33 58zm-16-87v-1l1 1h-1zm-43 87h-7l4-6 3 6zm596 25l-31-75q34 5 57 31.5t23 62.5q0 39-27.5 67t-67 28q-39.5 0-67.5-28t-28-67q0-31 19-56l30 75q6 14 18.5 22t27.5 8q11 0 19-4 20-8 27.5-26.5T863 633zm-46 169q-40 0-74.5-20.5t-55-55Q667 692 667 652q0-32 13.5-61.5T718 540l8 22q-18 18-27.5 41.5T689 652q0 34 17.5 63.5t47 47Q783 780 817 780t63.5-17.5q29.5-17.5 47-47t17.5-64q0-34.5-17-64T881.5 541Q852 524 818 524l-9-22h8q41 0 75.5 20t54.5 54.5q20 34.5 20 75.5t-20 75.5Q927 762 892.5 782T817 802z"/></svg>