<svg viewBox="0 0 1244 1083.753" xmlns="http://www.w3.org/2000/svg"><path d="M792 417q-37 0-65 11l-53-108 9-77h52q13 0 22.5-9.5T767 210q0-14-9-23t-23-9h-81q-13 0-22 8t-11 20l-12 110-110 226-7-1-128-261q16-1 27-12t11-27.5q0-16.5-11-27.5t-28-11H245q-16 0-27.5 11.5T206 241q0 16 11.5 27.5T245 280h47l22 46-50 101q-29-10-64-10-54 0-100 27t-73 72.5Q0 562 0 617t27 100.5Q54 763 100 790t100 27q48 0 89.5-21t69.5-58q28-37 37-83h32q10 17 27 27t37 10q31 0 53-22t22-53q0-23-12-41l85-176 30 59q-36 28-57 69.5T592 617q0 54 27 100t73 73q46 27 100 27t100-27q46-27 73-73t27-100q0-54-27-100t-72.5-73Q847 417 792 417zm-53 71l35 70q-17 6-29 19l-35-73q18-12 29-16zm53 83q20 0 33 13t13 32.5q0 19.5-13 32.5t-32.5 13q-19.5 0-33-13T746 617q0-19 13.5-32.5T792 571zM245 264q-10 0-16.5-7t-6.5-16q0-9 7-16.5t16-7.5h118q10 0 17 7t7 17q0 10-7 16.5t-17 6.5H245zm84 65q2-4 0-7l-20-42h37l130 263q-18 5-31 15l-88-180q-2-5-7-5t-7 5l-35 70q-11-7-30-16l51-103zm8 261h-81l38-77q34 31 43 77zm-56-87l-35 72q-14-14-29-18l34-70q13 5 30 16zm-35 114q0 19-13.5 32T200 662q-19 0-32.5-13T154 617q0-19 13.5-32.5T200 571q19 0 32.5 13.5T246 617zm-46 139q-38 0-70-19t-50.5-51Q61 654 61 617t18.5-69.5Q98 515 130 496t70-19q18 0 36 5l-36 73q-25 0-43 18t-18 43.5q0 25.5 18 43.5t43 18q14 0 27-6t21-17h86q-13 44-50 72.5T200 756zm138-116h-81q5-13 5-23l-1-11h78l1 11q0 7-2 23zm61 0q1-8 1-23v-11h18q-1 3-1 11 0 11 3 23h-21zm23-50h-24q-5-40-25.5-74.5T321 457l29-58 84 170q-6 7-12 21zm70 86q-25 0-42.5-17.5T432 617q0-24 17.5-42t42.5-18q25 0 42 17.5t17 42q0 24.5-17 42T492 676zm155-298q-2-4-7-3.5t-7 4.5l-89 184q-12-12-29-18l108-223q1-1 1-3l13-111q1-6 5.5-10.5T654 193h81q7 0 12 5t5 12q0 7-5 12t-12 5h-59q-3 0-5.5 2t-2.5 5l-10 87q0 3 1 4l53 108q-20 10-30 17l-35-72zm145 378q-38 0-70-19t-50.5-51Q653 654 653 617q0-30 11.5-56.5T697 515l39 78q-5 9-5 24 0 25 18 43t43.5 18q25.5 0 43.5-18t18-43.5q0-25.5-18-43.5t-44-18h-2l-36-72q18-6 38-6 38 0 70 19t51 51q19 32 19 70t-19 70q-19 32-51 50.5T792 756z"/></svg>