<svg viewBox="0 0 1244 1083.753" xmlns="http://www.w3.org/2000/svg"><path d="M956 887h-51V605q0-22-16-37.5T851 552h-58V305q0-25-18-43t-43-18h-34v-60q0-14-10-24.5T663 149h-6v-19l10-6q22-14 27.5-39T686 37l-8-14Q665 4 642.5 4T607 23l-9 14q-13 22-7.5 47.5T618 124l10 6v19h-7q-14 0-24.5 10.5T586 184v60h-29v-60q0-14-10.5-24.5T522 149h-7v-19l10-6q22-14 27.5-39.5T545 37l-9-14Q523 4 501 4q-11 0-20.5 5T466 23l-9 14q-14 23-8.5 48t27.5 39l10 6v19h-6q-15 0-25 10.5T445 184v60h-30v-60q0-14-10-24.5T380 149h-6v-19l10-6q22-14 27.5-39T403 37l-8-14Q382 4 359.5 4T324 23l-9 14q-13 22-7.5 47.5T335 124l10 6v19h-7q-14 0-24.5 10.5T303 184v60h-34q-25 0-43 18t-18 43v247h-57q-22 0-38 15.5T97 605v282H44q-18 0-31 13T0 931v24q0 18 13 30.5T44 998h912q18 0 31-12.5t13-30.5v-24q0-18-13-31t-31-13zM623 53l9-14q3-6 10-6t11 6l8 14q7 12 4 25t-14 21l-9 6-8-6q-12-7-15-20.5t4-25.5zm-141 0l9-14q3-6 10-6t10 6l9 14q7 12 4 25.5T509 99l-8 6-9-6q-11-8-14-21t4-25zm-142 0l9-14q3-6 10-6t11 6l8 14q7 12 4 25t-14 21l-9 6-8-6q-12-7-15-20.5t4-25.5zM126 785h580q6 0 10-4.5t4-10.5q0-6-4-10.5t-10-4.5H126v-41q11-2 21-6 20-9 40 0 15 7 35.5 7t35.5-7q21-10 40 0 15 7 35 7t37-7q9-5 19.5-5t19.5 5q17 7 37 7t35-7q20-9 40 0 15 7 35.5 7t35.5-7q20-9 40 0 15 7 35.5 7t35.5-7q21-10 40 0 15 7 35 7t37-7q9-5 19.5-5t20.5 4q10 4 20 6v42H769q-6 0-10.5 4.5T754 770q0 6 4.5 10.5T769 785h106v26H126v-26zm638-359H238v-41q11-2 20.5-6t20-4q10.5 0 19.5 5 17 7 37 7t35-7q19-10 40 0 15 7 35.5 7t35.5-7q20-9 40 0 15 7 35.5 7t35.5-7q20-9 40 0 15 7 35.5 7t35.5-7q20-9 40 0 11 4 21 6v40zm-526 29h526v27H238v-27zm378-271q0-2 1.5-4t3.5-2h42q2 0 4 2t2 4v60h-53v-60zm-142 0q0-2 2-4t4-2h42q2 0 3.5 2t1.5 4v60h-53v-60zm-141 0q0-2 1.5-4t3.5-2h42q2 0 4 2t2 4v60h-53v-60zm-95 121q0-13 9-22t22-9h463q13 0 22.5 9t9.5 22v51l-9-3q-15-7-32-7t-32 7q-12 5-23.5 5t-23.5-5q-14-7-32-7t-31.5 6q-13.5 6-24.5 6t-23-5q-33-14-64 0-13 5-24 5t-23-5q-33-14-64 0-13 5-24 5t-23-5q-33-14-64 0-4 2-9 2v-50zM126 605q0-10 7.5-17t17.5-7h176q6 0 10-4.5t4-10.5q0-6-4-10t-10-4h-89v-41h526v41H385q-6 0-10.5 4t-4.5 10q0 6 4.5 10.5T385 581h466q10 0 17 7t7 17v79l-9-3q-31-14-64 0-12 5-23 5t-24-5q-31-14-64 0-12 5-23.5 5t-23.5-5q-15-7-32-7t-32 7q-12 5-23.5 5t-23.5-5q-33-14-64 0-13 5-24 5t-23-5q-33-14-64 0-13 5-24 5t-24-5q-31-14-64 0-12 5-23 5t-24-5q-15-7-32-7t-32 7l-9 3v-79zm0 236h749v46H126v-46zm845 114q0 6-4.5 10t-10.5 4H44q-6 0-10.5-4T29 955v-24q0-6 4.5-10.5T44 916h912q6 0 10.5 4.5T971 931v24zM668 331q7 0 11.5-4.5T684 315q0-7-4.5-12t-11.5-5q-7 0-12 5t-5 12q0 7 5 11.5t12 4.5zM333 650q7 0 11.5-4.5T349 634q0-7-4.5-12t-11.5-5q-7 0-12 5t-5 12q0 7 5 11.5t12 4.5zm-110 0q7 0 12-4.5t5-11.5q0-7-5-12t-12-5q-7 0-11.5 5t-4.5 12q0 7 4.5 11.5T223 650zm222 0q7 0 11.5-4.5T461 634q0-7-4.5-12t-11.5-5q-7 0-12 5t-5 12q0 7 5 11.5t12 4.5zm112 0q7 0 11.5-4.5T573 634q0-7-4.5-12t-11.5-5q-7 0-12 5t-5 12q0 7 5 11.5t12 4.5zm111 0q7 0 11.5-4.5T684 634q0-7-4.5-12t-11.5-5q-7 0-12 5t-5 12q0 7 5 11.5t12 4.5zm111 0q7 0 11.5-4.5T795 634q0-7-4.5-12t-11.5-5q-7 0-12 5t-5 12q0 7 5 11.5t12 4.5z"/></svg>