<svg viewBox="0 0 1244 1083.753" xmlns="http://www.w3.org/2000/svg"><path d="M486 187q2 0 4-2t2-4q0-2-2-4t-4-2q-6 0-6 6t6 6zm0 39q2 0 4-2t2-4q0-2-2-4t-4-2q-2 0-4 2t-2 4q0 2 2 4t4 2zm0 39q2 0 4-2t2-4q0-2-2-4t-4-2q-2 0-4 2t-2 4q0 2 2 4t4 2zm0 39q2 0 4-2t2-4q0-2-2-4t-4-2q-2 0-4 2t-2 4q0 2 2 4t4 2zm-39-39q2 0 4-2t2-4q0-2-2-4t-4-2q-2 0-4 2t-2 4q0 2 2 4t4 2zm20 19q6 0 6-6t-6-6q-6 0-6 6 0 2 2 4t4 2zm0 39q6 0 6-6t-6-6q-6 0-6 6 0 2 2 4t4 2zm-20 59q2 0 4-2t2-4q0-2-2-4t-4-2q-2 0-4 2t-2 4q0 2 2 4t4 2zm20 19q6 0 6-6t-6-6q-2 0-4 2t-2 4q0 2 2 4t4 2zm-20 20q2 0 4-2t2-4q0-2-2-4t-4-2q-2 0-4 2t-2 4q0 2 2 4t4 2zm20 19q6 0 6-6t-6-6q-2 0-4 2t-2 4q0 2 2 4t4 2zm0 39q6 0 6-6t-6-6q-2 0-4 2t-2 4q0 2 2 4t4 2zm-20 20q6 0 6-6 0-2-2-4t-4-2q-2 0-4 2t-2 4q0 6 6 6zm0 39q6 0 6-6 0-2-2-4t-4-2q-2 0-4 2t-2 4q0 6 6 6zm0 39q6 0 6-6t-6-6q-2 0-4 2t-2 4q0 2 2 4t4 2zm-19-305q-6 0-6 6 0 2 2 4t4 2q2 0 4-2t2-4q0-6-6-6zm0 39q-6 0-6 6 0 2 2 4t4 2q2 0 4-2t2-4q0-6-6-6zm0 39q-6 0-6 6t6 6q2 0 4-2t2-4q0-6-6-6zm0 39q-2 0-4 2t-2 4q0 2 2 4t4 2q2 0 4-2t2-4q0-6-6-6zm0 39q-2 0-4 2t-2 4q0 2 2 4t4 2q2 0 4-2t2-4q0-6-6-6zm0 39q-2 0-4 2t-2 4q0 2 2 4t4 2q2 0 4-2t2-4q0-6-6-6zm-20 32q6 0 6-6 0-2-2-4t-4-2q-2 0-4 2t-2 4q0 6 6 6zm20 7q-2 0-4 2t-2 4q0 2 2 4t4 2q2 0 4-2t2-4q0-6-6-6zm-20 32q6 0 6-6 0-2-2-4t-4-2q-2 0-4 2t-2 4q0 6 6 6zm20 7q-2 0-4 2t-2 4q0 2 2 4t4 2q2 0 4-2t2-4q0-6-6-6zm-20 32q6 0 6-6t-6-6q-2 0-4 2t-2 4q0 2 2 4t4 2zm20 7q-2 0-4 2t-2 4q0 2 2 4t4 2q2 0 4-2t2-4q0-6-6-6zm-20 32q6 0 6-6 0-2-2-4t-4-2q-2 0-4 2t-2 4q0 6 6 6zm-19-59q6 0 6-6t-6-6q-2 0-4 2t-2 4q0 2 2 4t4 2zm-20 8q-2 0-4 2t-2 4q0 2 2 4t4 2q6 0 6-6t-6-6zm20 31q6 0 6-6t-6-6q-2 0-4 2t-2 4q0 2 2 4t4 2zm-20 8q-2 0-4 2t-2 4q0 6 6 6t6-6q0-2-2-4t-4-2zm-19-47q2 0 4-2t2-4q0-2-2-4t-4-2q-2 0-4 2t-2 4q0 2 2 4t4 2zm-20 20q6 0 6-6t-6-6q-2 0-4 2t-2 4q0 2 2 4t4 2zm20 19q2 0 4-2t2-4q0-2-2-4t-4-2q-2 0-4 2t-2 4q0 2 2 4t4 2zm-20 20q6 0 6-6 0-2-2-4t-4-2q-2 0-4 2t-2 4q0 6 6 6zm-39-39q6 0 6-6t-6-6q-2 0-4 2t-2 4q0 6 6 6zm0 39q6 0 6-6 0-2-2-4t-4-2q-2 0-4 2t-2 4q0 6 6 6zm-39-39q6 0 6-6t-6-6q-2 0-4 2t-2 4q0 6 6 6zm20 19q2 0 4-2t2-4q0-2-2-4t-4-2q-2 0-4 2t-2 4q0 2 2 4t4 2zm-20 20q6 0 6-6 0-2-2-4t-4-2q-2 0-4 2t-2 4q0 6 6 6zm-39-51q-6 0-6 6t6 6q6 0 6-6t-6-6zm20 19q-2 0-4 2t-2 4q0 2 2 4t4 2q2 0 4-2t2-4q0-2-2-4t-4-2zm-20 20q-6 0-6 6t6 6q6 0 6-6 0-2-2-4t-4-2zm-39-39q-6 0-6 6t6 6q6 0 6-6t-6-6zm20 19q-2 0-4 2t-2 4q0 2 2 4t4 2q2 0 4-2t2-4q0-2-2-4t-4-2zm315 165q-2 0-4 2t-2 4.5q0 2.5 2 4.5t4.5 2q2.5 0 4.5-2t2-5q0-6-7-6zm0 41q-2 0-4 2t-2 4.5q0 2.5 2 4.5t4.5 2q2.5 0 4.5-2t2-4q0-2-2-4.5t-5-2.5zm0 41q-2 0-4 2t-2 5q0 6 6 6 3 0 5-2t2-4q0-2-2-4.5t-5-2.5zm0 42q-2 0-4 2t-2 4q0 6 6.5 6t6.5-6q0-2-2-4t-5-2zm0 41q-2 0-4 2t-2 4.5q0 2.5 2 4.5t4.5 2q2.5 0 4.5-2t2-5q0-6-7-6zm22 20q-3 0-5 2t-2 4.5q0 2.5 2 4.5t5 2q6 0 6-7 0-2-2-4t-4-2zm-22 21q-2 0-4 2t-2 5q0 6 6 6 3 0 5-2t2-4.5q0-2.5-2-4.5t-5-2zm-41-193q2 0 4-2t2-5q0-6-6-6-2 0-4 2t-2 4.5q0 2.5 1.5 4.5t4.5 2zm21 7q-2 0-4 2t-2 4q0 2 2 4.5t4 2.5q2 0 4.5-2t2.5-5q0-6-7-6zm0 41q-2 0-4 2t-2 4.5q0 2.5 2 4.5t4 2q2 0 4.5-2t2.5-4.5q0-2.5-2-4.5t-5-2zm0 41q-2 0-4 2t-2 4.5q0 2.5 2 4.5t4 2q2 0 4.5-2t2.5-4q0-2-2-4.5t-5-2.5zm0 42q-6 0-6 6t6 6q2 0 4.5-2t2.5-4q0-6-7-6zm0 41q-2 0-4 2t-2 4.5q0 2.5 2 4.5t4 2q2 0 4.5-2t2.5-4.5q0-2.5-2-4.5t-5-2zm-21 21q-6 0-6 6.5t6 6.5q6 0 6-6 0-3-2-5t-4-2zm-20-21q-2 0-4 2t-2 4.5q0 2.5 2 4.5t4 2q2 0 4-2t2-5q0-6-6-6zm-21 21q-3 0-5 2t-2 5q0 6 7 6 2 0 4-2t2-4.5q0-2.5-2-4.5t-4-2zm-20-21q-3 0-5 2t-2 4.5q0 2.5 2 4.5t5 2q6 0 6-7 0-2-2-4t-4-2zm-22 21q-2 0-4 2t-2 5q0 6 6 6 3 0 5-2t2-4.5q0-2.5-2-4.5t-5-2zm-41 0q-2 0-4 2t-2 5q0 6 6 6 2 0 4.5-2t2.5-4.5q0-2.5-2-4.5t-5-2zm-20-21q-2 0-4 2t-2 4.5q0 2.5 2 4.5t4.5 2q2.5 0 4.5-2t2-4.5q0-2.5-2-4.5t-5-2zm-21 21q-6 0-6 6.5t6 6.5q6 0 6-6.5t-6-6.5zm-20-21q-2 0-4 2t-2 4.5q0 2.5 2 4.5t4.5 2q2.5 0 4.5-2t2-4.5q0-2.5-2-4.5t-5-2zm-21 21q-3 0-5 2t-2 5q0 6 7 6 2 0 4-2t2-4.5q0-2.5-2-4.5t-4-2zm-20-21q-6 0-6 6.5t6 6.5q6 0 6-7 0-2-2-4t-4-2zm-21 21q-3 0-5 2t-2 5q0 6 6.5 6t6.5-6q0-3-2-5t-4-2zm-20-21q-3 0-5 2t-2 4.5q0 2.5 2 4.5t4.5 2q2.5 0 4.5-2t2-4.5q0-2.5-2-4.5t-4-2zm-22 21q-2 0-4 2t-2 5q0 6 6 6 3 0 5-2t2-4.5q0-2.5-2-4.5t-5-2zm-20-21q-2 0-4 2t-2 4.5q0 2.5 2 4.5t4.5 2q2.5 0 4.5-2t2-4.5q0-2.5-2-4.5t-5-2zm-21 21q-2 0-4 2t-2 5q0 6 6 6 2 0 4-2t2-4q0-7-6-7zm-41 0q-3 0-5 2t-2 5q0 6 6.5 6t6.5-6q0-3-2-5t-4-2zm374-40q-1-1-3-1-6 0-6 5t1 6h1v1h2q0 1 1 1l4-1q3-3 3-6.5t-3-4.5zm0-124l-1-1h-4v1h-1q-3 1-3 5t3 6l1 1h2q2 0 4-1.5t2-5.5q0-4-3-5zm-43-546q6 0 6-6t-6-6q-6 0-6 6 0 2 2 4t4 2zm0-39q6 0 6-6t-6-6q-6 0-6 6t6 6zm-59 332q6 0 6-6 0-2-2-4t-4-2q-2 0-4 2t-2 4q0 6 6 6zm165 223q-2-20-17-33t-34-13h-23q5-12 5-24v-21q0-16-9-29t-23-19q29-19 46.5-49.5T499 506l16-343q12-12 12-26V87q0-14-10-24.5T493 52h-95v-2q0-20-14.5-34.5T349 1h-78q-20 0-35 14.5T221 50v2h-94q-14 0-24 10.5T93 87v50q0 13 10 25l10 341q2 29 13.5 55.5T159 605q12 12 23 19-13 7-20.5 19t-7.5 27v21q0 13 6 24h-21q-19 0-34 13t-18 32L65 944q-2 24 13 40.5t39 16.5h386q24 0 38.5-17.5T555 944l-21-183zM237 50q0-14 10-23.5t24-9.5h78q14 0 23.5 9.5T382 50v2H237v-2zm-129 87V87q0-8 5.5-13.5T127 68h366q8 0 13 5.5t5 13.5v50q0 8-5.5 13.5T493 156H127q-7 0-13-6t-6-13zm21 366l-10-333q3 1 8 1h372l-8 163q-1-3-4-3t-5 2q-2 2-2 4t2 4q2 2 4.5 2t4.5-2l-2 30q-1-1-3-1t-4 2q-2 2-2 4t2 4q2 2 4 2t3-1l-1 28h-2q-2 0-4 2t-2 4q0 2 2 4t4 2h1l-1 27q-2 0-4 2t-2 4q0 2 1.5 4t3.5 2l-1 28q-1 0-2.5 1.5T480 493q0 4 3 6v6q-2 25-10 45 0-2-2-3.5t-4-1.5q-2 0-4 2t-2 4q0 2 2 4t4 2q2 0 3-1-20 42-61 62h-91V246q0-3-2.5-5.5T310 238q-3 0-5.5 2.5T302 246v372h-99q-33-16-53-46.5T129 503zm401 471q-12 12-27 12h-9q2-2 2-4.5t-2-4.5q-2-2-4.5-2t-4.5 2q-2 2-2 4.5t2 4.5h-32q1-1 1-6t-6-5q-2 0-4 2t-2 5q0 3 1 4h-32q2-1 2-4t-2-5q-2-2-4-2t-4.5 2q-2.5 2-2.5 4.5t2 4.5h-32q2-2 2-4.5t-2-4.5q-2-2-4-2t-4.5 2q-2.5 2-2.5 4.5t2 4.5h-32q2-2 2-4.5t-2-4.5q-2-2-4.5-2t-4.5 2q-2 2-2 4.5t2 4.5h-32q2-2 2-4.5t-2-4.5q-2-2-4.5-2t-4.5 2q-2 2-2 5t2 4h-32q1-1 1-4t-2-5q-2-2-4-2t-4 2q-2 2-2 5t1 4h-32q2-2 2-4.5t-2-4.5q-2-2-4.5-2t-4.5 2q-2 2-2 4.5t2 4.5h-32q2-2 2-4.5t-2-4.5q-2-2-5-2-6 0-6 6 0 3 2 5h-32q2-2 2-4.5t-2-4.5q-2-2-5-2-6 0-6 6 0 3 1 5-14-2-23-12-11-12-9-28v-1q2-2 2-5t-1-4l21-174q2-14 12-22.5t24-8.5h345q-1 1-1 3t2 4q2 2 4 2t4.5-2q2.5-2 2.5-4v-1q9 4 15.5 12t7.5 18l10 89q-2 0-3.5 2t-1.5 4q0 2 2 4t4 2l3 29h-2q-7 0-7 6t7 6q2 0 3-1l5 42q2 16-9 28zM197 282h41q7 0 7-8t-7-8h-41q-4 0-6 2.5t-2 5.5q0 3 2 5.5t6 2.5zm0 65h41q3 0 5-2.5t2-5.5q0-3-2-5.5t-5-2.5h-41q-8 0-8 8t8 8zm0 64h41q7 0 7-8t-7-8h-41q-4 0-6 2.5t-2 5.5q0 3 2 5.5t6 2.5zm0 64h41q3 0 5-2t2-5q0-3-2-5.5t-5-2.5h-41q-8 0-8 7.5t8 7.5zm733-143q-11-13-39 2-18 9-37 25-2-31-10-51-9-22-23-22-17 0-26 28-9 26-9 62-1 10 1 31-18 4-34 17t-25 35l-3 9q-33 88-52 153-19 67-26 118-6 61 18 71 6 2 10 2 23 0 54-39 29-35 65-101 27-47 54-104 23-47 23-49 9-22 7.5-42.5T866 440q8-6 24-20 26-26 38-49 14-27 2-39zm-129 44q1-33 8-56 6-19 12-19 3 0 7.5 9.5T835 335q4 19 4 41 0 11-2 29l-1 8-4-1q-13-6-29-6-2-18-2-30zm56 137l-5 10q-39 83-72 141-48 86-80 117-19 18-28.5 14t-9.5-30q-1-45 26-139l9-28 49 20q1 1 3 1 5 0 7-4t.5-7q-1.5-3-4.5-4l-50-21q5-22 14-44l54 22q1 1 3 1 5 0 6.5-4t.5-7q-1-3-4-4l-55-23 22-59q9-22 25-33t34-11q12 0 24 5 23 10 32 32 12 25-1 55zm22-104q-5 5-15 13l-7 6q-3-2-7-6 4-17 4-42 26-24 44-32 9-5 14.5-6t7 1q1.5 2-1.5 12t-12 23q-11 15-27 31z"/></svg>