<svg viewBox="0 0 1244 1083.753" xmlns="http://www.w3.org/2000/svg"><path d="M248 382q0 8 5.5 13.5T267 401q8 0 13.5-5.5T286 382v-47h46q8 0 13.5-5.5T351 316q0-8-5.5-13.5T332 297h-46v-46q0-8-5.5-13.5T267 232q-8 0-13.5 5.5T248 251v46h-47q-8 0-13.5 5.5T182 316q0 8 5.5 13.5T201 335h47v47zm40 219q-35 0-59.5 25T204 686q0 35 24.5 59.5T288 770q35 0 60-24.5t25-59.5q0-35-25-60t-60-25zm0 131q-19 0-33-13.5T241 686q0-19 14-33t33.5-14q19.5 0 33 13.5t13.5 33q0 19.5-14 33T288 732zm337-372q-2-8-9-11.5t-14-1.5q-21 6-51 21-57 28-105 71-66 58-104 136-4 7-1.5 14t9 10q6.5 3 9.5 3 11 0 17-11 47-95 140-158 47-33 95-50h1q8-2 11.5-8.5T625 360zM918 63H82q-34 0-58 24T0 145v712q0 34 24 58t58 24h836q34 0 58-24t24-58V145q0-34-24-58t-58-24zM620 901H380v-64h240v64zM139 800V202h722v598H139zm823 57q0 18-13 31t-31 13H658v-64h222q8 0 13.5-5.5T899 818V183q0-8-5.5-13.5T880 164H120q-7 0-13 5.5t-6 13.5v635q0 8 5.5 13.5T120 837h222v64H82q-18 0-31-13t-13-32V145q0-18 13-31t31-13h836q18 0 31 13t13 31v712zM725 250q-35 0-59.5 25T641 335q0 35 24.5 60t59.5 25q35 0 60-25t25-60q0-35-25-60t-60-25zm0 132q-19 0-32.5-14T679 335q0-19 13.5-33t32.5-14q19 0 33 14t14 33q0 19-13.5 33T725 382zm33 240h-46v-47q0-8-5.5-13.5T693 556q-8 0-13.5 5.5T674 575v47h-47q-8 0-13.5 5.5T608 641q0 8 5.5 13.5T627 660h47v47q0 8 5.5 13.5T693 726q8 0 13.5-6t5.5-13v-47h46q8 0 13.5-5.5T777 641q0-8-5.5-13.5T758 622z"/></svg>