<svg viewBox="0 0 1244 1083.753" xmlns="http://www.w3.org/2000/svg"><path d="M201 851q0-26-17.5-43t-43-17q-25.5 0-43 17.5t-17.5 43Q80 877 97.5 894t43 17q25.5 0 43-17t17.5-43zm-45 16q-6 6-15 6t-15.5-6.5q-6.5-6.5-6.5-15t6.5-15Q132 830 141 830t15 6.5q6 6.5 6 15t-6 15.5zm165-138q0-25-17.5-42.5t-43-17.5q-25.5 0-42.5 17.5t-17 43q0 25.5 17 42.5t42.5 17q25.5 0 43-17t17.5-43zm-45 16q-6 6-15 6t-15.5-6.5q-6.5-6.5-6.5-15t6.5-15q6.5-6.5 15-6.5t15 6.5q6.5 6.5 6.5 15t-6 15.5zm682-468q20-19 31-45t11-55q0-38-19-70.5T930 55q-32-19-70-19t-70.5 19Q757 74 738 106.5T719 177q0 29 11 55t32 45v321q0 25-18 43t-43 18q-25 0-43-18t-18-43V280q0-72-37-134-36-61-97-97-62-37-134-37T238 49q-61 36-97 97-37 62-37 134v309H49q-20 0-34.5 14T0 637v304q0 20 14.5 34.5T49 990h59q8 0 14-5.5t6-13.5q0-8-6-14t-14-6H49q-4 0-7-3t-3-7V637q0-4 3-6.5t7-2.5h304q4 0 6.5 2.5t2.5 6.5v304q0 4-2.5 7t-6.5 3h-70q-8 0-13.5 6t-5.5 14q0 8 5.5 13.5T283 990h70q20 0 34-14.5t14-34.5V637q0-20-14-34t-34-14h-52V280q0-29 21-50.5t50-21.5q29 0 50.5 21.5T444 280v319q0 68 35 127.5t93 93.5q60 36 129 36t129-36q58-34 93-93.5T958 599V277zm-83 452q-27 37-68 60t-87 27V696q18-3 33.5-13t26.5-24l96 69-1 1zm-75-366h119v132H800V363zm97 331l-99-71 1-8q2-11 2-16v-65h118v65q0 48-22 95zM758 177q0-27 13.5-50.5t37-37Q832 76 859 76t50.5 13.5q23.5 13.5 37.5 37t14 50.5q0 23-9.5 43T925 254q-6 6-6 15v55H800v-55q0-9-6-15-17-14-26.5-34t-9.5-43zM604 623l-99 71q-22-44-22-95v-65h118v65q0 12 3 24zM475 240l98-70q28 51 28 110v44H483v-44q0-21-8-40zm8 123h118v132H483V363zM349 172q-36 8-59 34l-97-69q29-37 71-59t89-26v119q-3 0-4 1zM143 534h119v55H143v-55zm0-39V363h119v132H143zm29-325l97 70q-7 17-7 40v44H143v-44q0-60 29-110zm220 1V52q47 4 88.5 26t70.5 59l-96 69q-27-29-63-35zm133 556l97-68q22 29 59 37v119q-47-4-87.5-27T525 727zm310-510q6 6 14 6t14-6l53-53q5-5 5-13t-5.5-14q-5.5-6-13.5-6t-14 6l-39 39-12-13q-6-5-14-5t-13.5 5.5Q804 169 804 177t5 14l26 26zM196 951q8 0 14 6t6 14q0 8-6 13.5t-14 5.5q-8 0-13.5-5.5T177 971q0-8 5.5-14t13.5-6z"/></svg>