<svg viewBox="0 0 1244 1083.753" xmlns="http://www.w3.org/2000/svg"><path d="M875 388q-2-26-21-43t-45-16q-16-22-39.5-34.5T719 282q-39 0-69 24.5T612 368l-22-87q35-5 58.5-31t23.5-62q0-25-12.5-46.5T625 107q-2-26-21-43t-45-16q-16-22-39.5-34.5T469 1q-41 0-72 27t-36 67q-40-1-67.5 26.5T266 188q0 39 27.5 66.5T359 282h105l17 67q5 22-8.5 40T436 407h-61l-1-2q-20-25-51-28-10-29-34-46.5T234.5 313q-30.5 0-54.5 17.5T146 377q-29 4-48.5 26T78 454q0 32 23 55t55 23h131l-15 159q-14 10-23.5 26T236 751h-64q-19 0-33 13.5T125 798q0 16 10 28.5t25 16.5l37 125q4 15 16.5 24t28.5 9h391q16 0 28.5-9t16.5-24l37-125q15-4 25-16.5t10-28.5q0-20-13.5-33.5T703 751h-48q-5-30-27.5-51.5T575 674l-55-98q-7-13-.5-27t20.5-16q13 14 31 22t38 8h219q39 0 66.5-27.5T922 470q0-25-12.5-47T875 388zM297 188q0-19 10.5-34.5t28-23Q353 123 372 127q7 1 13-3.5t6-12.5q-2-31 21.5-55T469 32q21 0 39 11t29 30q3 5 8 6.5t10 .5q16-4 28.5 7t10.5 27q-1 5 1.5 10t7.5 7q17 8 27.5 23t10.5 34q0 26-18.5 44.5T578 251H359q-26 0-44-18.5T297 188zM109 454q0-19 14-33t34-14q7 0 11-3.5t5-8.5q4-22 21.5-36t39.5-14q22 0 40 14t22 36q1 5 5.5 8.5T312 407q19-1 33 13t14 33.5q0 19.5-13.5 33.5T313 501H156q-19 0-33-14t-14-33zm539 505q-2 5-6 8t-9 3H242q-5 0-9-3t-6-8l-34-114h489l-34 114zm71-161q0 6-4.5 10.5T703 813H172q-7 0-11.5-4.5T156 798q0-6 4.5-11t11.5-5h531q7 0 11.5 4.5T719 798zm-96-47H268q5-21 22-34t38-13q13 0 26 5 5 3 8 3.5t7-1.5q6-3 9-10 6-20 22.5-32t38-12q21.5 0 38.5 14.5t22 36.5q1 9 9.5 12t15.5-3q17-13 38.5-12.5t38.5 13q17 12.5 22 33.5zM493 591l47 84-17 6q-11-25-34-40t-51-15v-78q0-7-4.5-11.5T422 532q-7 0-11.5 4.5T406 548v31h-15q-7 0-11.5 4.5T375 595q0 7 4.5 11t11.5 4h15v21q-35 13-52 46-22-7-49-1l13-144q23-1 41-15t26.5-35q8.5-21 3.5-44h47q25 0 44.5-14t28-36.5Q517 365 511 341l-14-59h61l25 98q-26 8-43.5 28t-22 46q-4.5 26 5.5 51-25 10-34.5 36t4.5 50zm335-59H609q-25 0-43.5-18.5T547 470q0-29 23-48t52-14q8 2 13.5-3t5.5-12q-2-31 21.5-55.5T719 313q21 0 39 11t29 30q3 5 8 6.5t10 .5q16-4 28.5 7.5T844 396q-2 11 9 16 17 7 27.5 23t10.5 35q0 26-18.5 44T828 532z"/></svg>