<svg viewBox="0 0 1244 1083.753" xmlns="http://www.w3.org/2000/svg"><path d="M953 173h-31v-47q0-20-13.5-33.5T875 79H613q-63 0-113 41-50-41-113-41H125q-19 0-33 13.5T78 126v47H47q-19 0-33 13.5T0 220v593q0 19 14 33t33 14h391q0 26 18 44.5t43.5 18.5q25.5 0 44-18.5T563 860h390q20 0 33.5-14t13.5-33V220q0-20-13.5-33.5T953 173zm-78-63q7 0 11.5 4.5T891 126v594q0 6-4.5 10.5T875 735H603q-45 0-87 20V148q20-18 45-28t52-10h262zm-766 16q0-7 4.5-11.5T125 110h262q27 0 52 10t45 28v607q-42-20-87-20H125q-7 0-11.5-4.5T109 720V126zm860 687q0 7-4.5 11.5T953 829H561q-12 0-21 9t-9 21.5q0 12.5-8.5 22t-21.5 10q-13 .5-22.5-9T469 860q0-13-9-22t-22-9H47q-7 0-11.5-4.5T31 813V220q0-7 4.5-11.5T47 204h31v516q0 19 14 33t33 14h272q53 0 94 28 8 7 18 0 41-28 94-28h272q20 0 33.5-14t13.5-33V204h31q7 0 11.5 4.5T969 220v593zM172 376h125q7 0 11.5-4.5T313 360V173q0-7-4.5-11.5T297 157H172q-7 0-11.5 4.5T156 173v187q0 7 4.5 11.5T172 376zm16-188h93v157h-93V188zm171 0h63q7 0 11.5-4.5T438 173q0-6-4.5-11t-11.5-5h-63q-6 0-10.5 4.5T344 173q0 7 4.5 11t10.5 4zm0 63h63q7 0 11.5-4.5T438 235q0-7-4.5-11t-11.5-4h-63q-6 0-10.5 4.5T344 235q0 6 4.5 11t10.5 5zm0 62h63q7 0 11.5-4.5T438 298q0-6-4.5-11t-11.5-5h-63q-6 0-10.5 4.5T344 298q0 7 4.5 11t10.5 4zm0 63h63q7 0 11.5-4.5T438 360q0-7-4.5-11t-11.5-4h-63q-6 0-10.5 4.5T344 360q0 6 4.5 11t10.5 5zm-187 62h250q7 0 11.5-4.5T438 423q0-6-4.5-11t-11.5-5H172q-7 0-11.5 4.5T156 423q0 7 4.5 11t11.5 4zm0 63h250q7 0 11.5-4.5T438 485q0-7-4.5-11t-11.5-4H172q-7 0-11.5 4.5T156 485q0 6 4.5 11t11.5 5zm0 62h250q7 0 11.5-4.5T438 548q0-6-4.5-11t-11.5-5H172q-7 0-11.5 4.5T156 548q0 7 4.5 11t11.5 4zm0 63h250q7 0 11.5-4.5T438 610q0-7-4.5-11t-11.5-4H172q-7 0-11.5 4.5T156 610q0 6 4.5 11t11.5 5zm0 62h250q7 0 11.5-4.5T438 673q0-6-4.5-11t-11.5-5H172q-7 0-11.5 4.5T156 673q0 7 4.5 11t11.5 4zm656-218H703q-6 0-10.5 4.5T688 485v188q0 6 4.5 10.5T703 688h125q7 0 11.5-4.5T844 673V485q0-6-4.5-10.5T828 470zm-15 187h-94V501h94v156zm-235 31h63q6 0 10.5-4.5T656 673q0-6-4.5-11t-10.5-5h-63q-6 0-10.5 4.5T563 673q0 7 4.5 11t10.5 4zm0-62h63q6 0 10.5-4.5T656 610q0-7-4.5-11t-10.5-4h-63q-6 0-10.5 4.5T563 610q0 6 4.5 11t10.5 5zm0-63h63q6 0 10.5-4.5T656 548q0-6-4.5-11t-10.5-5h-63q-6 0-10.5 4.5T563 548q0 7 4.5 11t10.5 4zm0-62h63q6 0 10.5-4.5T656 485q0-7-4.5-11t-10.5-4h-63q-6 0-10.5 4.5T563 485q0 6 4.5 11t10.5 5zm0-63h250q7 0 11.5-4.5T844 423q0-6-4.5-11t-11.5-5H578q-6 0-10.5 4.5T563 423q0 7 4.5 11t10.5 4zm0-62h250q7 0 11.5-4.5T844 360q0-7-4.5-11t-11.5-4H578q-6 0-10.5 4.5T563 360q0 6 4.5 11t10.5 5zm0-63h250q7 0 11.5-4.5T844 298q0-6-4.5-11t-11.5-5H578q-6 0-10.5 4.5T563 298q0 7 4.5 11t10.5 4zm0-62h250q7 0 11.5-4.5T844 235q0-7-4.5-11t-11.5-4H578q-6 0-10.5 4.5T563 235q0 6 4.5 11t10.5 5zm0-63h250q7 0 11.5-4.5T844 173q0-6-4.5-11t-11.5-5H578q-6 0-10.5 4.5T563 173q0 7 4.5 11t10.5 4z"/></svg>