<svg viewBox="0 0 1244 1083.753" xmlns="http://www.w3.org/2000/svg"><path d="M438 379l-15 15q-4 4-4 10t4 10q4 4 10.5 4t10.5-4l15-15q4-4 4-10t-4-10.5q-4-4.5-10-4.5t-11 5zm0 0zm167 166l-16 15q-4 4-4 10t4.5 10.5Q594 585 600 585t10-4l15-15q5-5 5-11t-4.5-10q-4.5-4-10.5-4t-10 4zm0 0zm-68-53q-9 2-18-7t-7-18q0-6-4-10.5t-10-5q-6-.5-10.5 3.5t-5.5 10q-2 23 16 41 16 16 38 16 7 0 12-4.5t4.5-11q-.5-6.5-5-10.5t-10.5-4zm0 0zm408-239l-51-51 36-35q11 6 23 6 18 0 35-15 14-14 14-35t-14-35l-72-72Q902 2 881 2t-35 14q-11 11-13.5 27.5T837 74l-35 36-51-51q-21-21-50-21t-50 21q-14 14-18.5 32t.5 36q-12-2-37-4-81-2-125 42-26 28-40 50-4 8-12 22l-3 5q-17 28-30 44-22 25-57 50-50 35-97 76-30 24-84 76l-19 20q-4 4-4 10t4 10q4 4 10.5 4t10.5-4l18-18q41-41 72-67l321 321q-37 42-67 72L376 954q-21 21-50.5 21T275 954L50 729q-21-21-21-51t21-50l58-58q5-5 5-11t-4.5-10.5Q104 544 98 544t-11 5l-58 58q-19 19-26 45t0 52.5Q10 731 29 750l225 225q19 19 45.5 26t52.5 0q26-7 45-26l118-118q46-48 77-85 48-57 76-97 25-37 51-58 16-13 46-31l2-1q48-27 72-53 44-43 41-124 0-21-3-37 9 3 18 3 29 0 49.5-21t20.5-50.5q0-29.5-20-49.5zM867 37q5-6 13.5-6t14.5 6l72 72q6 6 6 14.5t-6 14q-6 5.5-14.5 5.5t-13.5-6l-72-72q-6-5-6-13.5t6-14.5zm-11 60l51 51-33 34-52-52 34-33zM644 658q-29 40-64 83L263 424q32-27 83-64 40-28 65-58 15-18 33-51l3-4 310 310-4 3q-32 18-51 33-29 24-58 65zm280-326q-12 12-29 12t-29-12l-39-39q-5-4-11-4t-10 4q-4 4-4 10t4 11l36 36q9 35 9 69 0 60-33 93-15 15-35 29L463 221q14-20 29-35 33-33 93-33 34 0 69 9l111 111q4 4 10.5 4t10.5-4.5q4-4.5 4-10.5t-4-10L672 138q-12-12-12-29t12-29q12-12 29-12t29 12l194 194q12 12 12 29t-12 29zm0 0z"/></svg>