<svg viewBox="0 0 1244 1083.753" xmlns="http://www.w3.org/2000/svg"><path d="M909 336q-18-28-18-60 0-15 4-28 2-8 8-23l2-3q16-39 19.5-80.5T918 61q-7-26-28-43T842 1h-59q-27 0-48 17t-28 43q-10 40-6.5 81.5T720 222l6 13q11 24 8.5 51.5T716 336q-35 51-59 114l-7-10q-12-19-17-30-8-19-8-40 0-15 4-28 2-8 8-23l2-3q17-39 20-80.5t-7-81.5q-7-26-28-42.5T576 95h-58q-27 0-48 16.5T442 154q-10 40-7 82t20 80l5 12q11 25 8.5 52.5T450 430l-3 5q-7 10-10 15-22-58-59-114-19-27-19-60 0-14 4-27 2-7 8-21l3-6q16-39 19-80.5T386 61q-6-26-27-43T311 1h-59q-27 0-48 17t-28 43q-10 40-6.5 81.5T189 222l6 13q10 24 7.5 51T185 336q-52 74-74 161-52 39-81.5 97.5T0 720q0 78 39 143 36 61 98 98.5t134 39.5q75 3 143-33l1 3q5 14 17.5 22.5t26.5 8.5h176q14 0 26.5-8.5T679 971l24-63h197q15 0 27-8t17-22l23-60q45-119 30.5-247T909 336zm-146-85h99q-6 33 3 63H760q9-30 3-63zM738 68q4-16 16.5-25.5T783 33h59q16 0 28.5 9.5T887 68q19 72-11 141l-5 11H754l-5-11q-14-33-17-69.5t6-71.5zM498 345h98q-6 31 3 63H495q8-33 3-63zm-26-183q4-16 17-26t29-10h58q16 0 29 10t17 26q8 34 5.5 70.5T610 303l-4 11H488l-5-11q-14-33-17-69.5t6-71.5zm4 286q3-5 5-8 1-1 2-1h129l6 9q16 23 29 47v1q57 105 57 230 0 48-9 92-8 43-26 90H491q54-61 68-140 13-78-16-150-29-75-95-124 11-23 28-46zM232 251h98q-4 33 3 63H229q9-30 3-63zM206 68q5-16 17.5-25.5T252 33h59q16 0 28.5 9.5T356 68q18 75-11 141l-5 11H222l-4-11q-14-33-17-69.5t5-71.5zm4 286q3-4 4.5-6.5t2.5-2.5h130l7 12q38 57 57 114-61-32-129.5-32T151 471q21-62 59-117zM31 720q0-68 33.5-125.5t91-91Q213 470 281 470t125.5 33.5q57.5 33.5 91 91T531 720q0 68-33.5 125.5t-91 91Q349 970 281 970t-125.5-33.5q-57.5-33.5-91-91T31 720zm604 250H459q-10 0-15-10l-3-8 17-13h199l-8 21q-1 4-5 7t-9 3zm265-93H736.5q-23.5 0-22.5-2l8-30h201l-8 21q-2 5-6 8t-9 3zm35-63H728q14-83 2-165-13-86-53-163 21-66 63-131l7-10h130q1 0 2 1l5 8q68 98 82 216 15 123-31 244zM297 501q-19 0-33 13.5t-14 33q0 19.5 14 33.5t33.5 14q19.5 0 33-14t13.5-33.5q0-19.5-13.5-33T297 501zm0 63q-7 0-11.5-4.5T281 548q0-7 4.5-11t11.5-4q7 0 11.5 4.5T313 548q0 6-4.5 11t-11.5 5zm-125 16q-19 0-33 13.5T125 626q0 19 14 33t33.5 14q19.5 0 33-14t13.5-33q0-19-13.5-32.5T172 580zm0 62q-7 0-11.5-4.5T156 626q0-7 4.5-11t11.5-4q7 0 11.5 4.5T188 626q0 6-4.5 11t-11.5 5zm125 16q-19 0-33 13.5t-14 33q0 19.5 13.5 33t33 13.5q19.5 0 33.5-13.5t14-32.5q0-19-14-33t-33-14zm0 62q-7 0-11.5-4.5T281 705q0-6 4.5-11t11.5-5q7 0 11.5 4.5T313 705q0 7-4.5 11t-11.5 4z"/></svg>