<svg viewBox="0 0 1244 1083.753" xmlns="http://www.w3.org/2000/svg"><path d="M871 476q-20-46-63-106-18-25-16-57l33-170q7-35-11-70-17-31-50-51.5T697 1q-34 0-67 20.5T580 73q-18 35-11 70l33 170q2 32-15 56-9 11-23 33-69-37-148-37t-150 39q-69 37-113 102-46 66-54 145-5 54 7.5 106.5T148 855q5 7 12.5 8.5t14.5-3q7-4.5 8.5-12T181 834q-25-40-36.5-86t-6.5-93q7-69 46-126.5t100.5-91Q346 404 416 404q58 0 112.5 24t94.5 68q48 54 64 124t-3 138q-19 70-71 122-40 40-93 61t-110 20.5q-57-.5-109-23.5-7-4-14.5-1t-11 10q-3.5 7-.5 15t10 11q62 28 130 28 80 0 149-37 11 17 28.5 27t38.5 10h133q24 0 43.5-13.5T836 952q26-64 42-133 24-99 24-189 0-82-31-154zM624 220h147l-9 47H633l-9-47zm17 89q0-2-1-3h114q-5 24 6 56H634q9-24 7-53zm-16 135q-13-11-28-22l5-7q6-9 10-14h170q7 10 20 31l8 12H625zm6-375q29-29 66-29 25 0 46.5 13.5t33 35.5q11.5 22 10.5 47l-9 44H616l-9-44q-2-38 24-67zm169 868q-5 11-14.5 18t-21.5 7H631q-22 0-33-18 63-44 99-114t36-147q0-56-18-106.5T663 483h168q32 70 32 147 0 86-22 180-17 67-41 127zM351 623q-17 17-17 42t17 42.5q17 17.5 42.5 17.5t42.5-17.5q17-17.5 17-42.5t-17-42q-17-17-42.5-17T351 623zm57 27q6 7 6 15.5t-6 14.5q-6 6-14.5 6t-14.5-6q-6-6-6-15t6-15q6-6 14.5-6t14.5 6zm-103-22q0-25-17.5-42.5T245 568q-25 0-42 17.5T186 628q0 25 17 42t42.5 17q25.5 0 42.5-17t17-42zm-45 15q-6 6-15 6t-15-6q-6-6-6-15t6-15q6-6 15-6t15 6q6 6 6 15t-6 15zm54-168q-18 17-18 42t17.5 42.5q17.5 17.5 43 17.5t42.5-17.5q17-17.5 17-42.5t-17.5-42.5Q381 457 356 457t-42 18zm57 57q-6 6-14.5 6t-15-6q-6.5-6-6.5-15t6-15q6-6 15-6t15 6q6 6 6 15t-6 15zM239 902q-3-8-11-11t-15.5.5Q205 895 202 903q-4 13 6.5 21.5T230 926q7-4 9-11t0-13z"/></svg>