<svg viewBox="0 0 1244 1083.753" xmlns="http://www.w3.org/2000/svg"><path d="M500 912q-60 0-110.5-29.5t-80-80Q280 752 280 692.5T344 514q45-82 115-183 5-6 11-6h61q7 0 10 6 71 103 115 183 65 119 65 178.5t-30 110q-30 50.5-80.5 80T500 912zm-24-562q-63 93-106 169-65 119-65 172.5t25.5 98.5q25.5 45 70 72t97.5 27q53 0 98.5-25.5T669 793q27-45 27-98v-3q0-54-65-172-44-79-107-169h-48v-1zm24 562q-33 0-60-27.5t-42.5-75Q382 762 382 703t34-184q26-97 57-185 1-4 4-6.5t7-2.5h32q4 0 7 2.5t4 6.5q31 88 58 185 33 125 33 184t-15.5 106.5Q587 857 560 884.5T500 912zm-7-562q-33 98-56 187-30 115-30 166t12.5 93q12.5 42 33.5 66.5t47 24.5q26 0 47-24.5t33.5-66.5q12.5-42 12.5-93.5T564 537q-25-94-57-187h-14zm7 0q-5 0-8.5-3.5T488 338V204q0-5 3.5-8.5t8.5-3.5q5 0 9 3.5t4 8.5v134q0 5-4 8.5t-9 3.5zm0-133q-22 0-38-16t-16-39v-8q0-5 4-8.5t8-3.5h84q5 0 8.5 3.5t3.5 8.5v8q0 23-16 39t-38 16zm-29-50q2 12 12 19t22 5q9-2 16-8.5t8-15.5h-58zm208 0H321q-27 0-46-19t-19-46q0-5 4-8.5t9-3.5h462q5 0 9 3.5t4 8.5q0 27-19 46t-46 19zm-396-52q5 12 15 19.5t23 7.5h358q13 0 23-7.5t15-19.5H283z"/></svg>