<svg viewBox="0 0 1244 1083.753" xmlns="http://www.w3.org/2000/svg"><path d="M204 267v-27q0-6-4-10.5t-10-4.5q-6 0-10.5 4.5T175 240v27q0 6 4 10.5t10.5 4.5q6.5 0 10.5-4.5t4-10.5zm0 0zm300 0v-27q0-6-4.5-10.5T489 225q-6 0-10 4.5t-4 10.5v27q0 6 4 10.5t10 4.5q6 0 10.5-4.5T504 267zm0 0zm-165 29q32 0 48-21 4-4 4-10t-4.5-10.5q-4.5-4.5-10.5-4t-11 5.5q-9 11-25 11t-27-11q-4-5-10-5.5t-10.5 4q-4.5 4.5-5 10.5t3.5 10q18 21 48 21zm0 0zM124 65q6-3 8-8.5t-.5-11q-2.5-5.5-8-7.5T112 38q-57 26-84.5 66.5T0 198q0 312 47 485 22 77 47 108v130q0 33 23.5 56.5T174 1001h330q34 0 57.5-23.5T585 921V791q38-45 80-108 3-5 2-11t-6-9.5q-5-3.5-11-2.5t-10 6q-31 48-74 102l-2 3h-48q41-74 62-239 21-21 35-45 38-61 53-142 23-6 45 9 39 41 20 122-14 60-59 140-4 5-2 11t7 9q5 3 11 1.5t9-6.5q51-89 65-157 18-90-31-142-10-10-27.5-15t-32.5-3q8-56 8-116 0-94-81-143Q513 1 339 1q-96 0-161 16-6 1-9.5 6t-2 11q1.5 6 6.5 9.5t11 1.5q65-15 155-15 164 0 244 49 66 42 66 119 0 145-40 235-28 65-82 105-70 52-188 52-63 0-115-17-61-19-100-59-80-82-92-251-3-32-3-65 0-92 95-133zM38 432q0 2 2 4 20 51 52 86 4 6 9 10 17 133 48 209l4 9q6 15 10 21h-48q-22-31-41-103-26-93-36-236zm127 149q1 0 1 1 70 37 173 37 127 0 205-57-14 100-40 164-12 29-23 45H197l-1-2q-12-20-21-43-25-63-41-164 7 5 23 14l8 5zm52 391v-56q0-13 8.5-22t21.5-9h184q13 0 22 9t9 22v56H217zm287 0h-13v-56q0-25-17.5-42.5T431 856H247q-25 0-42.5 17.5T187 916v56h-13q-21 0-36-15t-15-36V800h433v121q0 21-15 36t-37 15zm0 0z"/></svg>