<svg viewBox="0 0 1244 1083.753" xmlns="http://www.w3.org/2000/svg"><path d="M166 660q7 0 12.5-5t5.5-12V436q0-8-5-13t-12.5-5q-7.5 0-12.5 5.5t-5 12.5v207q0 7 5 12t12 5zm60-308H79q-7 0-12.5 5T61 370v339q0 7 5.5 12t12.5 5h147q7 0 12.5-5t5.5-12V370q0-8-5-13t-13-5zm-17 339H96V387h113v304zm744-374q-57-102-180-108-20-47-68.5-70.5T602 126q-78 17-126 49.5T404 260q-60 18-116 45-10-12-24.5-19t-31.5-7H73q-30 0-51.5 21T0 351v376q0 30 21.5 51.5T73 800h159q16 0 30.5-7t24.5-19q107 60 209.5 82.5T759 879q135 0 193-87 25-37 36.5-93t11.5-136q0-162-47-246zM232 765H73q-16 0-27-11t-11-27V351q0-16 11-27t27-11h159q16 0 27 11t11 27v376q0 16-11 27t-27 11zm377-605q22-4 44-1t41 14q23 12 40 36-153 5-282 37 45-63 157-86zm150 684q-108 0-181-9-78-9-142-31t-133-61q2-10 2-16V351q0-5-2-15 112-54 262-77 97-15 194-15 114 0 163 89 43 79 43 230 0 102-20.5 163.5T879 816q-45 28-120 28z"/></svg>