<svg viewBox="0 0 1244 1083.753" xmlns="http://www.w3.org/2000/svg"><path d="M301 428q-6 0-10 4t-4 10v36q0 6 4 10.5t10 4.5q6 0 10.5-4.5T316 478v-36q0-6-4-10t-11-4zm0 0zm400 0q-6 0-10.5 4t-4.5 10v36q0 6 4.5 10.5T701 493q6 0 10-4.5t4-10.5v-36q0-6-4-10t-10-4zm0 0zm-141 37q-4-4-10-4t-11 5q-14 17-38 17t-38-17q-5-5-11-5t-10.5 4q-4.5 4-4.5 10t4 11q11 13 27 19.5t33 6.5q17 0 33-6.5t27-19.5q4-5 4-11t-5-10zm0 0zm396-100q-46-33-76-92-46-92-39-226 1-18-11.5-31.5T798 2h-78q-16 0-28 10.5T677 38q-21 22-56 41-56 30-120 30T381 79q-35-19-56-41-2-15-14.5-25.5T282 2h-78q-18 0-31 13.5T161 47q7 134-39 226-30 59-76 92-24 16-36 43t-9 57q4 42 16 86 15 56 42 108 29 53 67 96 14 16 33 24.5t40 8.5h604q21 0 40-8.5t33-24.5q38-43 67-96 48-91 59-194 2-30-10-57t-36-43zm16 97q-9 93-51 175H778q-6 0-10 4.5t-4 10.5q0 6 4 10t10 4h127q-22 36-51 70-10 11-23.5 17t-27.5 6H199q-14 0-27.5-6T148 736q-31-36-50-70h622q6 0 10-4t4-10q0-6-4-10.5t-10-4.5H81q-42-82-51-175-2-22 7-41.5T63 389q82-59 112-178 20-78 15-166 0-5 4-9.5t10-4.5h78q6 0 10 4t4 10v79q0 51 23 95 3 5 8.5 7t11-1q5.5-3 7.5-9t-1-11q-20-38-20-81V78q31 24 69 39 51 21 107 21t108-21q37-15 68-39v44q0 45-22 85t-60 65q-38 25-84 28-37 2-72-11.5T377 249q-4-4-10-4t-10.5 4.5q-4.5 4.5-4 10.5t4.5 10q29 29 67 44.5t79 14.5q55 0 101.5-28t74-75.5Q706 178 706 122V45q0-6 4-10t10-4h78q6 0 10 4.5t4 9.5q-5 88 15 166 30 119 112 178 17 12 26 31.5t7 41.5zm0 0z"/></svg>