<svg viewBox="0 0 1244 1083.753" xmlns="http://www.w3.org/2000/svg"><path d="M829 734q-5-4-11-3t-10 6q-19 26-48 38-10 4-15.5 13t-5.5 20q0 32-16 59.5T679.5 911Q652 927 620 927q-29 0-55-13.5T523 877q-9-12-22-12-7 0-13 3.5t-10 8.5q-17 23-42.5 36.5T381 927q-32 0-59.5-16T278 867.5Q262 840 262 808q0-11-5.5-20T241 775q-41-19-60.5-59.5T172 631q3-12-2.5-23.5T152 592q-36-14-57.5-46T73 475q0-34 17-62.5t46-45.5q29-17 63-17 9 0 14.5-8.5t.5-16.5q-15-33-14-68 0-38 19-73 3-5 1.5-11t-6.5-9q-5-3-11-1.5t-9 7.5q-22 39-24 87 0 33 11 64-38 4-69.5 26T62 402.5Q44 436 44 475q0 48 26.5 87.5T141 619q4 2 2 5-14 54 10.5 104.5T229 802q4 1 4 6 0 40 20 74t54 54q34 20 74 20 35 0 67-16t53-44q21 28 52.5 44t66.5 16q40 0 74-20t54-54q20-34 20-74 0-4 4-6 37-18 59-47 4-5 3.5-11t-5.5-10zm31-115q44-18 71-57t27-87q0-39-18-72.5T890.5 347Q859 325 820 321q11-28 10.5-64.5t-15-70.5q-14.5-34-41-60t-61-39.5Q679 73 642 74q-42 1-79 19t-62 51q-26-33-63-51t-79-19q-33-1-65 10t-57 33q-5 4-5.5 10.5t3.5 11q4 4.5 10.5 5T256 140q45-39 103-37 35 1 66 16t53 43q2 3 8 7v100q0 22-15.5 38T432 323q-6 0-10 4.5t-4 10.5q0 6 4 10.5t10 4.5q21 0 39-10t30-26q12 16 30 26t38 10q6 0 10.5-4.5T584 338q0-6-4.5-10.5T569 323q-22 0-38-16t-16-38V169q6-4 8-7 22-28 53.5-43t66.5-16q31-1 59.5 10.5t51 33.5q22.5 22 35 50.5T802 257q0 36-15 68-4 9 1 17t15 8q34 0 62.5 17t45.5 45.5q17 28.5 17 62.5 0 39-21.5 71T849 592q-11 5-17 16t-2 23q7 29 1 54-1 6 2.5 11t9.5 6h3q5 0 9-3t5-8q6-36-2-67-2-3 2-5zM584 507q0-6-4.5-10t-10.5-4q-21 0-39 9.5T501 529q-11-17-29.5-26.5T432 493q-6 0-10 4t-4 10q0 6 4 10.5t10 4.5q23 0 38.5 15.5T486 576v21q0 6 4.5 10.5T501 612q6 0 10-4.5t4-10.5v-21q0-23 16-38.5t38-15.5q6 0 10.5-4.5T584 507zm-83 216q-6 0-10.5 4t-4.5 10v16q0 14-10.5 24.5T451 788q-6 0-10.5 4.5T436 803q0 6 4.5 10.5T451 818q15 0 28-6.5t22-17.5q9 11 22.5 17.5T551 818q6 0 10-4.5t4-10.5q0-6-4-10.5t-10-4.5q-15 0-25.5-10.5T515 753v-16q0-6-4-10t-10-4zm177-242q0 6 4.5 10.5T693 496q6 0 10.5-4.5T708 481v-11q0-20 8-37.5t22-30.5q5-5 5-11t-4-10q-4-4-9.5-4.5T719 380q-20 17-30.5 40.5T678 470v11zM283 380q-5-4-11-3.5t-10 5q-4 4.5-3.5 10.5t4.5 10q15 13 23 30.5t8 37.5v11q0 6 4 10.5t10.5 4.5q6.5 0 10.5-4.5t4-10.5v-11q0-26-10.5-49.5T283 380zm61 217l-2 2q-26 17-41 43.5T286 700v3q0 6 4.5 10t10.5 4q6 0 10.5-4t4.5-10v-3q0-24 11-44t31-33l2-1q5-3 6.5-9t-2-11q-3.5-5-9.5-6.5t-11 1.5zm293 5q-3 5-1.5 11t6.5 9l2 1q20 13 31 33t11 44v3q0 6 4 10t11 4q7 0 10.5-4t3.5-10v-3q0-31-15-57.5T659 599l-2-2q-5-3-10.5-1.5T637 602zM342 206q-20 7-32.5 24.5T297 269v8q0 6 4.5 10.5T312 292q6 0 10.5-4.5T327 277v-8q0-12 7-21.5t18-14.5q6-1 8.5-7t.5-11.5q-2-5.5-7.5-8T342 206zm317 0q-6-2-11.5.5T640 215q-2 6 1 11t8 7q12 4 19 14t7 22v8q0 6 4.5 10.5T690 292q6 0 10-4.5t4-10.5v-8q0-21-12.5-38.5T659 206zm228-85q8 6 17 6 7 0 11-3l73-36q9-5 12-14t-1-19q-19-39-58-52-9-4-18.5.5T910 17l-29 76q-3 8-1.5 15.5T887 121zm48-89q24 9 36 32l-59 29 23-61zM14 88l72 36q6 3 11 3 11 0 17-5.5t8-13.5q2-8-1-15L92 17Q88 8 79 3.5T60 3Q21 16 2 55q-4 10-.5 19.5T14 88zm52-56l24 61-59-29q11-23 35-32zm922 881l-73-36q-7-4-14.5-2.5T887 881q-6 5-7.5 12.5T881 909l29 75q2 7 8.5 11.5t13.5 4.5q7 0 9-1 40-13 58-53 5-9 1.5-19T988 913zm-53 57l-23-62 59 29q-11 22-36 33zm-821-89q-5-5-13-6.5T86 877l-72 36q-9 4-12.5 14t.5 19q18 40 58 53 3 1 8 1 8 0 14.5-4.5T92 984l29-75q3-7 1-15t-8-13zm-48 89q-25-11-35-33l59-29-24 62zM501 67q6 0 10-4t4-10V16q0-6-4-10.5T501 1q-6 0-10.5 4.5T486 16v37q0 6 4.5 10t10.5 4zm0 869q-6 0-10.5 4.5T486 951v36q0 6 4.5 10.5t10.5 4.5q6 0 10-4.5t4-10.5v-36q0-6-4-10.5t-10-4.5zM16 792q5 6 11.5 6t8.5-2l42-29q5-4 6-10t-2.5-11q-3.5-5-9.5-6t-11 3l-41 29q-5 3-6.5 9t2.5 11zm54-529q8 0 11.5-5.5T84 246q-1-6-6-10l-42-28q-4-4-10.5-3t-10 6q-3.5 5-2 11t6.5 10l41 28q5 3 9 3zm912 509l-42-29q-5-4-11-3t-9.5 6q-3.5 5-2.5 11t6 10l42 29q3 2 10 2t10.5-5.5Q989 787 988 781t-6-9zm4-561q-4-5-10-6t-11 3l-42 28q-5 4-6 10t3.5 11.5Q925 263 932 263q5 0 8-3l42-28q5-4 6-10t-2-11z"/></svg>