<svg viewBox="0 0 1244 1083.753" xmlns="http://www.w3.org/2000/svg"><path d="M492 1q-99 0-188.5 37.5T145 144.5Q76 213 38 304T0 492.5q0 97.5 37 188T144 841q93 94 220.5 128.5t255 .5q127.5-34 221-127.5t128-221.5q34.5-128 0-255.5T840 145Q771 76 680.5 38.5T492 1zm324 816q-88 89-208 120-116 31-233 0-119-31-207.5-119.5T47 609q-30-117 0-233 32-120 120-208T375 49q116-31 233 0 120 31 208 119t120 208q30 117 0 233-32 120-120 208zM295 247q6 0 10-3 77-58 171-63 7 0 11.5-5t4-12q-.5-7-5-11.5T475 148q-52 3-100.5 20.5T285 217q-9 9-4.5 19.5T295 247zm503-18q-6-2-12 4L232 787q-6 6-4 12v1q2 8 6 11 80 66 181 85 99 19 195-10 99-30 172-103t103-172q29-96 10-195-19-101-85-181-4-6-12-6zm-27 149q-3 25-22 38-11 9-11 25v232q0 7-5 11.5t-12 4.5H459v-82l277-277q35 22 35 48zM376 689l50-50v50h-50zm382 70q-65 65-152 93-85 27-173 13-90-14-164-68l74-75h378q20 0 34.5-14.5T770 673l1-232q14-11 22.5-27.5T803 378q-2-23-13.5-42T759 306l37-36q54 74 68 164 14 88-13 173-28 87-93 152zM454 495l297-296q5-5 5-13t-6-12q-80-65-182-84-98-19-194 10-99 30-172 103T99 375q-29 96-10 195 19 101 84 181 6 6 12 6h1q7 0 12-5l256-257zM246 657V441q0-16-12-25-18-13-21-38 0-20 22.5-39t60.5-30q41-13 89-13h69q-61 34-61 82 1 19 9.5 35.5T426 441v36L246 657zm202-241q-19-13-22-38 0-20 22.5-39t60.5-30q41-13 89-13h9L459 444v-3q0-16-11-25zM188 716q-55-74-69-164-14-88 13.5-174.5T225 226q65-65 151.5-92.5T551 120q90 14 164 69l-77 77q-9-1-27-2l-13-1H385q-57 0-104 15.5T207 320q-27 26-27 58 1 19 9.5 35.5T213 441v232q0 5 2 15l-27 28zm501-92q7 0 11.5 4.5T705 640q0 7-4.5 12t-11.5 5q-7 0-12-5t-5-12q0-7 5-11.5t12-4.5zm-66 0q7 0 12 4.5t5 11.5q0 7-5 12t-12 5q-7 0-11.5-5t-4.5-12q0-7 4.5-11.5T623 624zm66-66q7 0 11.5 5t4.5 12q0 7-4.5 11.5T689 591q-7 0-12-4.5t-5-11.5q0-7 5-12t12-5zM541 148q7 0 11.5 5t4.5 12q0 7-4.5 11.5T541 181q-7 0-11.5-4.5T525 165q0-7 4.5-12t11.5-5z"/></svg>