<svg viewBox="0 0 1244 1083.753" xmlns="http://www.w3.org/2000/svg"><path d="M987 916l-67-102 36-10q10-3 15-12t2.5-19.5Q971 762 962 757l-101-60V73q0-30-21.5-51T788 1H81Q51 1 30 22T9 73v662q0 30 21 51.5T81 808h283q8 0 14-6t6-14q0-8-6-14t-14-6H81q-14 0-23.5-9.5T48 735V176h774v498l-69-40q-17-10-31-3-7 4-10.5 10.5T709 656l14 112H536q-8 0-14 6t-6 14q0 8 6 14t14 6h192l11 95q1 11 9.5 17t19 5.5Q778 925 785 916l23-29 68 102q6 9 16.5 11.5T912 997l68-45q9-6 11-16.5t-4-19.5zM48 73q0-14 10-23.5T81 40h707q14 0 24 9.5T822 73v64H48V73zm853 884l-70-107q-7-10-20.5-11t-21.5 9l-15 19-23-189 164 96-23 7q-13 3-17.5 15.5T877 820l70 107-46 30zM181 426h131q8 0 13.5-5.5T331 407V276q0-8-5.5-13.5T312 257H181q-8 0-14 5.5t-6 13.5v131q0 8 6 13.5t14 5.5zm19-130h92v91h-92v-91zm233 0h256q8 0 13.5-6t5.5-14q0-8-5.5-13.5T689 257H433q-8 0-13.5 5.5T414 276q0 8 5.5 14t13.5 6zm0 123h256q8 0 13.5-5.5T708 400q0-8-5.5-14t-13.5-6H433q-8 0-13.5 6t-5.5 14q0 8 5.5 13.5T433 419zM181 543h508q8 0 13.5-6t5.5-14q0-8-5.5-13.5T689 504H181q-8 0-14 5.5t-6 13.5q0 8 6 14t14 6zm0 123h422q8 0 13.5-5.5T622 647q0-8-5.5-14t-13.5-6H181q-8 0-14 6t-6 14q0 8 6 13.5t14 5.5zM123 83q-3-8-11-11t-16 .5q-8 3.5-10 12t2 15.5q4 7 12 9t14.5-2q6.5-4 8.5-11t0-13zm71 0q-3-8-10.5-11T169 72q-7 3-10.5 10.5t-.5 15q3 7.5 11 10.5t15.5 0q7.5-3 10.5-10.5T194 83zm72 0q-3-7-10.5-10.5T241 72q-7 3-10.5 10.5t-.5 15q3 7.5 11 10.5t15 0q7-3 10-10.5t0-14.5zm203 698q-3-7-10.5-10.5t-15-.5q-7.5 3-10.5 10.5t0 15q3 7.5 10.5 10.5t14.5 0q7-3 10.5-10.5t.5-14.5z"/></svg>