<svg viewBox="0 0 1244 1083.753" xmlns="http://www.w3.org/2000/svg"><path d="M911 156h-46q-6-48-43-81t-87-33q-50 0-86.5 32.5T605 156H395q-7-48-44-81t-86-33q-49 0-86 33t-44 81H89q-37 0-63 26T0 244v193q0 37 26 63t63 26h101v308h-64q-26 0-44.5 18.5T63 897q0 26 18.5 44.5T126 960h748q26 0 44.5-18.5T937 897q0-26-18.5-44.5T874 834h-64V526h101q37 0 63-26t26-63V244q0-36-26-62t-63-26zM735 78q35 0 61.5 22t32.5 56H641q6-34 32.5-56T735 78zm-470 0q35 0 61.5 22t32.5 56H171q6-34 32.5-56T265 78zm609 791q12 0 20 8.5t8 19.5q0 11-8 19t-20 8H126q-11 0-19.5-8T98 897q0-11 8.5-19.5T126 869h748zm-648-35V526h55v308h-55zm90 0V526h368v308H316zm403 0V526h55v308h-55zm192-343H89q-22 0-37.5-15.5T36 437V244q0-22 15.5-37.5T89 191h822q22 0 38 15.5t16 37.5v193q0 22-15.5 38T911 491zM345 323H174q-26 0-45 19t-19 45q0 26 19 45t45 19h171q26 0 45-19t19-45q0-26-19-45t-45-19zm0 92H174q-11 0-19.5-8t-8.5-20q0-12 8.5-20t19.5-8h171q11 0 19.5 8t8.5 20q0 12-8.5 20t-19.5 8z"/></svg>