<svg viewBox="0 0 1244 1083.753" xmlns="http://www.w3.org/2000/svg"><path d="M933 368q-6 0-10.5 4.5T918 383v455q0 10-7 17.5t-17 7.5H525V727h71q6 0 10.5-4.5T611 712q0-6-4.5-10t-10.5-4h-71V516h71q6 0 10.5-4.5T611 501q0-6-4.5-10.5T596 486h-71v-48q0-22-16-37.5T471 385h-50q-7 0-11 4t-4 10q0 6 4 10.5t11 4.5h50q10 0 17.5 7t7.5 17v509q0 10-7 17.5t-18 7.5H106q-10 0-17-7.5T82 947V438q0-10 7-17t17-7h46q7 0 11-4.5t4-10.5q0-6-4-10t-11-4h-46q-22 0-37.5 15.5T53 438v509q0 22 15.5 38t37.5 16h365q23 0 38.5-16t15.5-38v-55h369q22 0 37.5-16t15.5-38V383q0-6-4-10.5t-10-4.5zm-1-249L829 17Q813 1 791 1H328q-22 0-38 15.5T274 55v89q-36 3-65.5 23T162 218.5Q145 250 145 287t19 70q19 33 52 52t71 19q35 0 66-16.5t51-44.5q20-28 24-63h168q6 0 10.5-4t4.5-10q0-6-4.5-10.5T596 275H429q-3-41-29-76-4-5-10-5.5t-11 3.5q-5 4-5.5 10t3.5 10q23 31 23 69 0 30-15.5 56T343 383.5Q317 399 287 399t-56-15.5Q205 368 189.5 342T174 286q0-30 15.5-56t41.5-41.5q26-15.5 56-15.5 28 0 50 12 5 2 11 0t8.5-7q2.5-5 .5-11t-7-9q-21-10-47-13V55q0-11 7.5-18t17.5-7h465v91q0 14 10 24.5t24 10.5h91v159q0 6 4.5 10.5T933 330q6 0 10-4.5t4-10.5V157q0-23-15-38zM793 29zm34 97q-5 0-5-5V51l75 75h-70zM720 376h84q18 0 31-13t13-31v-84q0-19-13-31.5T804 204h-84q-18 0-31 12.5T676 248v84q0 18 13 31t31 13zm-14-128q0-6 4-10.5t10-4.5h84q6 0 10.5 4.5T819 248v84q0 6-4.5 10t-10.5 4h-84q-6 0-10-4t-4-10v-84zm44 71q3 3 10 3h1q7 0 11-6l25-36q3-5 2-11t-6-9.5q-5-3.5-11-2.5t-9 6l-16 23-7-7q-4-4-10.5-4t-10.5 5q-4 5-3.5 10.5t4.5 9.5l20 19zm-74 224q0 18 13 31t31 13h84q18 0 31-13t13-31v-84q0-18-13-31t-31-13h-84q-18 0-31 13t-13 31v84zm30-84q0-6 4-10.5t10-4.5h84q6 0 10.5 4.5T819 459v84q0 6-4.5 10.5T804 558h-84q-6 0-10-4.5t-4-10.5v-84zm44 71q4 4 10 4h1q7-2 11-7l25-36q3-5 2-11t-6-9q-5-3-11-2t-9 5l-16 23-7-7q-5-4-11-3.5t-10 5q-4 4.5-3.5 10.5t4.5 10l20 18zm-74 224q0 18 13 31t31 13h84q18 0 31-13t13-31v-84q0-18-13-31t-31-13h-84q-18 0-31 13t-13 31v84zm30-84q0-6 4-10t10-4h84q6 0 10.5 4t4.5 10v84q0 6-4.5 10.5T804 769h-84q-6 0-10-4.5t-4-10.5v-84zm28 74q5 3 11 3t9-4l8-9 8 9q4 4 10.5 4t10.5-3.5q4-3.5 4.5-9.5t-3.5-11l-10-11 10-10q4-5 3.5-11t-5-10q-4.5-4-10.5-3.5t-10 4.5l-8 8-8-8q-4-4-9.5-4.5T734 681q-5 4-5 10.5t4 10.5l9 10-9 11q-4 4-4 10t5 11zM452 491q0-14-10-24t-24-10H160q-14 0-24 10t-10 24v42q0 14 10 24t24 10h258q14 0 24-10t10-24v-42zm-30 42q0 5-4 5H160q-5 0-5-5v-42q0-2 1.5-3.5t3.5-1.5h258q1 0 2.5 1.5t1.5 3.5v42zm-31 185q-14 0-23.5 10t-9.5 24v143q0 14 9.5 24t23.5 10h27q14 0 24-10t10-24V752q0-14-10-24t-24-10h-27zm31 34v143q0 4-4 4h-27q-1 0-2.5-1.5T387 895V752q0-2 1.5-3t2.5-1h27q4 0 4 4zM220 637q0-14-10-24.5T186 602h-26q-14 0-24 10.5T126 637v25q0 14 10 24t24 10h26q14 0 24-10t10-24v-25zm-30 25q0 5-4 5h-26q-5 0-5-5v-25q0-5 5-5h26q4 0 4 5v25zm262-25q0-14-10-24.5T418 602h-26q-14 0-24 10.5T358 637v25q0 14 10 24t24 10h26q14 0 24-10t10-24v-25zm-30 25q0 5-4 5h-26q-5 0-5-5v-25q0-5 5-5h26q4 0 4 5v25zm-86-25q0-14-10-24.5T302 602h-26q-14 0-24 10.5T242 637v25q0 14 10 24t24 10h26q14 0 24-10t10-24v-25zm-30 25q0 5-4 5h-26q-5 0-5-5v-25q0-5 5-5h26q4 0 4 5v25zm-86 91q0-14-10-24.5T186 718h-26q-14 0-24 10.5T126 753v25q0 14 10 24t24 10h26q14 0 24-10t10-24v-25zm-30 25q0 5-4 5h-26q-5 0-5-5v-25q0-5 5-5h26q4 0 4 5v25zm146-25q0-14-10-24.5T302 718h-26q-14 0-24 10.5T242 753v25q0 14 10 24t24 10h26q14 0 24-10t10-24v-25zm-30 25q0 5-4 5h-26q-5 0-5-5v-25q0-5 5-5h26q4 0 4 5v25zm-120 56h-26q-14 0-24 10.5T126 869v25q0 14 10 24.5t24 10.5h26q14 0 24-10.5t10-24.5v-25q0-14-10-24.5T186 834zm4 60q0 5-4 5h-26q-5 0-5-5v-25q0-5 5-5h26q4 0 4 5v25zm112-60h-26q-14 0-24 10.5T242 869v25q0 14 10 24.5t24 10.5h26q14 0 24-10.5t10-24.5v-25q0-14-10-24.5T302 834zm4 60q0 5-4 5h-26q-5 0-5-5v-25q0-5 5-5h26q4 0 4 5v25zm-36-642h50q6 0 10-4.5t4-10.5q0-6-4-10t-10-4h-18v-16q0-6-4.5-10t-10.5-4q-6 0-10 4t-4 10v16h-3q-13 0-21.5 8.5T240 252v19q0 12 8.5 21t21.5 9h35v19h-50q-6 0-10.5 4.5T240 335q0 6 4.5 10t10.5 4h18v16q0 6 4 10t10 4q6 0 10.5-4t4.5-10v-16h3q12 0 20.5-8.5T334 320v-19q0-12-8.5-21t-20.5-9h-36v-19h1z"/></svg>