<svg viewBox="0 0 1244 1083.753" xmlns="http://www.w3.org/2000/svg"><path d="M973 459l-35 35V173q0-20-13.5-33.5T891 126h-32V63q0-26-18-44T797 1q-26 0-44.5 18.5T734 63v63H186q-5-33-31.5-55.5T94 48q-39 0-66.5 27.5T0 142v578q0 38 27.5 65.5T94 813h525l-36 36q-7 7-3.5 17t14.5 10h390q7 0 11.5-4.5t4.5-11.5V470q0-11-10-14.5t-17 3.5zm-145-21h-62V95h62v343zm-8 32l-23 54-23-54h46zM797 32q13 0 22 9t9 22h-62q0-13 9-22t22-9zM94 79q26 0 44 18.5t18 44.5v508q-26-24-62-24t-63 24V142q0-26 18.5-44.5T94 79zm0 703q-26 0-44.5-18T31 720q0-26 18.5-44.5T94 657q26 0 44 18.5t18 44.5q0 6 4.5 10.5T172 735q7 0 11.5-4.5T188 720V157h546v297q0 3 2 8l47 108q4 9 14 9t14-9q48-112 47-110 0 1 0 0 1-2 1-12V157h32q6 0 10.5 4.5T906 173v353L650 782H94zm875 63H632l71-72 1 2q4 4 7 5.5t8 1.5q10 0 14.5-9.5T730 756l-5-5 25-25 1 2q4 4 7 5.5t8 1.5q10 0 14-9.5t-3-16.5l-5-5 25-25 1 2q4 4 7 5.5t8 1.5q10 0 14-9.5t-3-16.5l-5-5 25-25 3 3q6 7 12 7 11 0 14.5-10t-3.5-17l-4-5 25-24 3 3q7 6 12 6 11 0 14.5-10t-3.5-17l-4-5 56-56v338zM672 406q0-5-3-8L511 240q-4-5-10.5-5t-11.5 5Q331 398 330 400v1q-2 1-2 14v242q0 7 4.5 11.5T344 673h312q7 0 11.5-4.5T672 657V406zM500 273l119 119H382l118-119zm-47 369v-94h94v94h-94zm188 0h-63V532q0-6-4.5-10.5T563 517H438q-7 0-11.5 4.5T422 532v110h-63V423h282v219zm270 4L770 787q-7 7-3.5 16.5T781 813h141q7 0 11.5-4.5T938 798V657q0-11-10-14.5t-17 3.5zm-5 136h-87l87-87v87zm-484 63H297q-32 0-55 23t-23 55q0 32 23 55t55 23h125q32 0 55-23t23-55q0-32-23-55t-55-23zm-141 34v88q-20-7-27-25.5t0-37q7-18.5 27-25.5zm32-3h93v94h-93v-94zm125 91v-88q20 7 27 25.5t0 37q-7 18.5-27 25.5z"/></svg>