<svg viewBox="0 0 1244 1083.753" xmlns="http://www.w3.org/2000/svg"><path d="M665 884H335q-18 0-31.5-13T290 840V133q0-18 13.5-31.5T335 88h330q19 0 32 13.5t13 31.5v707q0 18-13 31t-32 13zM335 113q-8 0-14 6t-6 14v707q0 8 6 13.5t14 5.5h330q8 0 14-5.5t6-13.5V133q0-8-6-14t-14-6H335zm14 801q-5 0-8.5-4t-3.5-9v-29q0-5 3.5-9t8.5-4q5 0 9 4t4 9v29q0 5-4 9t-9 4zm302 0q-5 0-9-4t-4-9v-29q0-5 4-9t9-4q5 0 8.5 4t3.5 9v29q0 5-3.5 9t-8.5 4zm-18-360q-5 0-8.5-3.5T621 542v-96q0-5 3.5-9t8.5-4q5 0 9 4t4 9v96q0 5-4 8.5t-9 3.5z"/></svg>