<svg viewBox="0 0 1244 1083.753" xmlns="http://www.w3.org/2000/svg"><path d="M800 454q-16-18-41-18h-12l8-22q8-18 11-42h17q6 0 10.5-4.5T798 357q0-6-4.5-10.5T783 342h-15q0-33-12-64h8q7 0 11-4t4-10q0-6-4-10.5t-11-4.5h-23q-6-12-19-27-47-53-117-64v-1q10-21 10-49V88q0-10-5-18t-14-12q-9-4-18.5-3T561 63l-3 3q-8-21-20-37l-9-14q-9-14-27-14t-27 14l-10 14q-10 14-19 37l-3-3q-7-7-16.5-8T408 58q-9 4-14 12t-5 18v20q0 28 10 49v1q-70 11-117 64-13 15-19 27h-23q-7 0-11 4.5t-4 10.5q0 6 4 10t11 4h8q-10 31-12 64h-15q-6 0-10.5 4.5T206 357q0 6 4.5 10.5T221 372h17q1 12 7 32 2 6 7.5 9t11 1q5.5-2 8.5-7.5t1-11.5q-13-40-4.5-81.5T305 241q35-41 88-52-13 17-23 36-3 6-8 20l-2 4h-26q-6 0-10 4.5t-4 10.5q0 6 4 10t10 4h17q-7 29-7 64h-15q-7 0-11 4.5t-4 10.5q0 6 4 10.5t11 4.5h16q2 21 6 40l5 24H241q-25 0-40 18-16 16-14 42l50 423q4 35 30.5 58.5T329 1001h342q35 0 61.5-23.5T763 919l35-299q1-6-3-10.5t-10-5.5q-6-1-10.5 2.5T769 617l-28 241h-76q-6 0-10 4.5t-4 10.5q0 6 4 10t10 4h72l-3 29q-3 24-21 40t-42 16H329q-24 0-42-16t-21-40l-3-29h346q6 0 10.5-4t4.5-10q0-6-4.5-10.5T609 858H259l-43-366q0-12 7-19.5t18-7.5h518q11 0 18 7.5t7 19.5l-8 62q-1 6 3 10.5t10 5.5q6 1 11-3t6-10l7-61q3-24-13-42zM699 241q30 33 37.5 77t-8.5 86l-12 32h-68l5-24q4-19 6-40h16q7 0 11-4.5t4-10.5q0-6-4-10.5t-11-4.5h-15q0-35-7-64h16q7 0 11-4t4-10q0-6-4-10.5t-11-4.5h-24l-5-11q-4-9-6-13-10-19-23-36 53 11 88 52zM472 408q-3-46-1.5-92t7.5-82.5q6-36.5 13-47.5h22q7 11 13 47.5t7.5 82.5q1.5 46-1.5 92l-2 28h-56l-2-28zm89 2v-3q2-23 2-35h18q6 0 10.5-4.5T596 357q0-6-4.5-10.5T581 342h-18q0-22-2-64h14q6 0 10-4t4-10q0-6-4-10.5t-10-4.5h-17l-3-20q-5-29-10-43h1q17 0 33.5 13.5T608 238q17 34 21.5 79t-4.5 89l-7 30h-59l2-26zm9-316l10-9q3-1 4.5-.5T586 88v20q0 19-8 38l-4 10h-28v-11q0-14 6.5-27.5T570 94zm-81-48l10-14q2-2 3-2t3 2l9 14q16 20 20 44-17 25-17 55v11h-30v-11q0-31-18-55 6-24 20-44zm-71 42q0-3 1.5-3.5t4.5.5l10 9q11 10 17.5 23.5T458 145v11h-28l-4-10q-8-19-8-38V88zm-39 318q-9-44-4.5-89t21.5-79q12-25 28.5-38.5T458 186h1q-5 14-10 43l-3 20h-17q-6 0-10 4.5t-4 10.5q0 6 4 10t10 4h14q-2 42-2 64h-18q-6 0-10.5 4.5T408 357q0 6 4.5 10.5T423 372h18q0 12 2 35l2 29h-59l-7-30z"/></svg>