<svg viewBox="0 0 1244 1083.753" xmlns="http://www.w3.org/2000/svg"><path d="M906 206q7 0 11.5-4.5T922 190q0-7-4.5-11t-11.5-4h-15v-31h15q7 0 11.5-4.5T922 128q0-7-4.5-11.5T906 112h-17q-5-27-26.5-45.5T813 48q-33 0-56 23t-23 55v78h-78v-47q0-42-21-78t-56.5-57Q543 1 501 1h-2q-42 0-77.5 21T365 79q-21 36-21 78h-16q-6 0-10.5 4.5T313 173q0 7 4.5 11t10.5 4h16v32h-16q-6 0-10.5 4.5T313 235q0 6 4.5 11t10.5 5h16v31h-16q-6 0-10.5 4.5T313 298q0 7 4.5 11t10.5 4h16v47h-78v-78q0-32-23-55t-55-23q-28 0-50 18t-27 45H94q-7 0-11.5 4.5T78 282q0 6 4.5 11t11.5 5h15v31H94q-7 0-11.5 4.5T78 345q0 7 4.5 11t11.5 4h15q0 22 1 32H94q-7 0-11.5 4.5T78 407q0 6 4.5 11t11.5 5h23q15 41 51.5 67.5T250 517h94v78h-63q-19 0-33 13.5T234 642v31q0 19 14 33t36 14l40 242q3 17 16 28t30 11h260q17 0 30-11t16-28l40-242q22 0 36-14t14-33v-31q0-20-13.5-33.5T719 595h-63v-47h16q7 0 11.5-4.5T688 532q0-7-4.5-11t-11.5-4h-16v-32h16q7 0 11.5-4.5T688 470q0-6-4.5-11t-11.5-5h-16v-31h16q7 0 11.5-4.5T688 407q0-7-4.5-11t-11.5-4h-16v-32h114q42 0 74.5-26t42.5-65h19q7 0 11.5-4.5T922 253q0-7-4.5-11.5T906 237h-15v-31h15zM531 595h-62V157q0-61 31-112 31 51 31 112v438zM250 485q-30 0-55-14.5T155.5 431Q141 406 141 376v-94q0-20 14-33.5t33-13.5q19 0 32.5 13.5T234 282v94q0 7 4.5 11.5T250 392h94v93h-94zm125-328q0-43 26.5-76.5T469 36q-28 50-31 106h-16q-7 0-11.5 4.5T406 157q0 6 4.5 11t11.5 5h16v31h-16q-7 0-11.5 4.5T406 220q0 7 4.5 11t11.5 4h16v32h-16q-7 0-11.5 4.5T406 282q0 6 4.5 11t11.5 5h16v31h-16q-7 0-11.5 4.5T406 345q0 7 4.5 11t11.5 4h16v32h-16q-7 0-11.5 4.5T406 407q0 6 4.5 11t11.5 5h16v31h-16q-7 0-11.5 4.5T406 470q0 7 4.5 11t11.5 4h16v32h-16q-7 0-11.5 4.5T406 532q0 6 4.5 11t11.5 5h16v47h-63V157zm270 800q-1 5-5.5 9t-9.5 4H370q-5 0-9.5-4t-5.5-9l-40-237h370l-40 237zm89-315v31q0 6-4.5 10.5T719 688H281q-6 0-10.5-4.5T266 673v-31q0-7 4.5-11.5T281 626h438q6 0 10.5 4.5T734 642zm-171-47v-47h15q7 0 11.5-4.5T594 532q0-7-4.5-11t-11.5-4h-15v-32h15q7 0 11.5-4.5T594 470q0-6-4.5-11t-11.5-5h-15v-31h15q7 0 11.5-4.5T594 407q0-7-4.5-11t-11.5-4h-15v-32h15q7 0 11.5-4.5T594 345q0-6-4.5-11t-11.5-5h-15v-31h15q7 0 11.5-4.5T594 282q0-7-4.5-11t-11.5-4h-15v-32h15q7 0 11.5-4.5T594 220q0-6-4.5-11t-11.5-5h-15v-31h15q7 0 11.5-4.5T594 157q0-7-4.5-11t-11.5-4h-16q-3-56-31-106 41 11 67.5 44.5T625 157v438h-62zm207-266H656v-94h94q7 0 11.5-4.5T766 220v-94q0-20 14-33.5T813 79q19 0 32.5 13.5T859 126v113q0 37-26 63.5T770 329z"/></svg>