<svg viewBox="0 0 1244 1083.753" xmlns="http://www.w3.org/2000/svg"><path d="M517 934q0 7 4.5 12t11.5 5h300q34 0 58.5-24t25.5-59V84q0-34-24.5-58.5T833 1H317q-35 0-59.5 24.5T233 84v367q0 7 5 12t12 5q7 0 11.5-5t4.5-12V84q0-20 15-35t35-15h517q21 0 35.5 15T883 84v784q0 20-14.5 35T833 918H533q-7 0-11.5 4.5T517 934zm316-816q0-14-9.5-24T800 84H350q-14 0-23.5 10t-9.5 24v150q0 14 9.5 23.5T350 301h450q14 0 23.5-10t9.5-23V118zM411 268l82-150h62l-82 150h-62zm-61-150h105l-82 150h-23V118zm450 150H511l82-150h207v150zm-528 733q25 0 45-10 6 3 18 7 39 10 80.5-9.5T490 926q33-43 49-100 14-52 10-101.5T524 638q-12-22-31-37t-42-22q-26-6-52.5-1T350 599q-5 4-15 7 7-44 34-70 15-15 28-19 6-2 9-8.5t1-13q-2-6.5-8-9.5t-13-1q-36 16-56 46-3-4-7-7-26-23-58-30-21-5-56-2-29 3-61 10-17 3-22 20-2 7 .5 15t8.5 13q19 16 41 32-43 15-67 56-21 37-24.5 87T95 826q14 51 42 90.5t63.5 62Q236 1001 272 1001zm-15-474q23 4 43 21 13 13 10.5 21T292 582q-25 5-48-1-43-16-79-49 47-11 92-5zM138 655q17-33 53-44 12-2 19-2 30 2 55 18 13 9 35 14v26q0 7 4.5 12t11.5 5q7 0 12-5t5-12v-26q21-5 35-14 16-11 35.5-15.5t38.5-.5q34 10 52 44 18 31 21.5 74t-9.5 88q-13 48-40 85t-60 54q-33 17-64 9-6-1-18-7-8-5-16 0-12 6-18 7-31 8-64-9t-59.5-54Q140 865 127 817q-13-45-10-88t21-74zm53 144q-9-27-8-56t13-55q3-7 11-12 7-2 10.5-7.5t2-12.5q-1.5-7-7.5-10.5t-13-1.5q-23 6-32 27-13 23-16 56-4 39 8 82 2 6 8.5 9.5T180 820q6-2 9.5-8t1.5-13zm592-81h-50q-20 0-35 14.5T683 768v50q0 20 15 35t35 15h50q21 0 35.5-15t14.5-35v-50q0-21-14.5-35.5T783 718zm17 100q0 7-5 11.5t-12 4.5h-50q-7 0-11.5-4.5T717 818v-50q0-7 4.5-12t11.5-5h50q8 0 12.5 4.5T800 768v50zm33-234q0-20-14.5-35T783 534h-50q-20 0-35 15t-15 35v50q0 21 15 35.5t35 14.5h50q21 0 35.5-14.5T833 634v-50zm-33 50q0 7-4.5 12t-12.5 5h-50q-7 0-11.5-5t-4.5-12v-50q0-7 4.5-11.5T733 568h50q7 0 12 4.5t5 11.5v50zm33-233q0-21-14.5-35.5T783 351h-50q-20 0-35 14.5T683 401v50q0 20 15 35t35 15h50q21 0 35.5-15t14.5-35v-50zm-33 50q0 7-5 12t-12 5h-50q-7 0-11.5-5t-4.5-12v-50q0-7 4.5-12t11.5-5h50q7 0 12 5t5 12v50zM600 834h-17q-7 0-12 5t-5 12q0 7 5 12t12 5h17q21 0 35.5-15t14.5-35v-50q0-21-14.5-35.5T600 718h-1q-7 0-11 4-5 7-5 13t5 11q5 5 12 5t12 4.5q5 4.5 5 11.5v50q0 7-4.5 12t-12.5 5zm-62-261q5-5 12-5h50q7 0 12 4.5t5 11.5v50q0 7-5 12t-12 5h-10q-7 0-12 4.5t-5 12q0 7.5 4.5 12T590 684h10q21 0 35.5-14.5T650 634v-50q0-20-14.5-35T600 534h-50q-22 0-38 18-4 5-3.5 11.5t5.5 11q5 4.5 12 4t12-5.5zm37-105H450q-7 0-12 4.5t-5 11.5q0 7 5 12t12 5h125q31 0 53-22t22-53q0-31-22-53t-53-22H392q-20 0-37.5 9.5T327 387q-10 17-10.5 36.5T325 461q4 6 10.5 8t12.5-1.5q6-3.5 8-10t-1-12.5q-5-10-5-19 0-17 12.5-29.5T392 384h183q17 0 29.5 12.5T617 426q0 17-12.5 29.5T575 468z"/></svg>