<svg viewBox="0 0 1244 1083.753" xmlns="http://www.w3.org/2000/svg"><path d="M298 225v28q0 6 4.5 10t10.5 4q6 0 10.5-4t4.5-10v-28q0-6-4.5-10.5T313 210q-6 0-10.5 4.5T298 225zm0 0zm336 28v-28q0-6-4-10.5t-10-4.5q-6 0-10.5 4.5T605 225v28q0 6 4.5 10t10.5 4q6 0 10-4t4-10zm0 0zm-141-12q-10 12-26.5 12T440 241q-5-5-11-5t-10.5 4q-4.5 4-4.5 10t4 10q19 22 48 22 14 0 27-6t22-16q4-4 4-10t-4.5-10q-4.5-4-10.5-4t-11 5zm0 0zm318 760q33 0 61-16.5t44.5-44.5q16.5-28 16.5-61V220q0-46-31-81t-76-40V63q0-26-18-44T764.5 1q-25.5 0-44 18T702 63v35H600q-6 0-10 4.5t-4 10.5q0 6 4 10t10 4h102v34q2 24 19.5 41t42.5 17q25 0 42.5-17t19.5-41v-32q33 5 55.5 31t22.5 60v120H29V220q0-34 22.5-60t55.5-31v32q2 24 19.5 41t42.5 17q25 0 42.5-17t19.5-41v-34h311q6 0 10.5-4t4.5-10q0-6-4.5-10.5T542 98H231V63q0-26-18-44T169.5 1q-25.5 0-44 18T107 63v36q-45 5-76 40T0 220v659q0 33 16.5 61T61 984.5q28 16.5 61 16.5h689zM732 63q0-14 9.5-23.5T764 30q13 0 22.5 9.5T796 63v95q0 13-9 22.5t-22.5 9.5q-13.5 0-23-9.5T732 158V63zM29 685h197v129H29V685zm226 0h197v129H255V685zm226 0h197v129H481V685zm226 0h197v129H707V685zm197-29H707V527h197v129zm-226 0H481V527h197v129zm-226 0H255V527h197v129zm-226 0H29V527h197v129zM29 879v-36h197v129H122q-38 0-65.5-27.5T29 879zm226-36h197v129H255V843zm226 0h197v129H481V843zm423 36q0 38-27.5 65.5T811 972H707V843h197v36zm0-381H707V370h197v128zm-226 0H481V370h197v128zm-226 0H255V370h197v128zM226 370v128H29V370h197zM136 63q0-14 10-23.5t23-9.5q13 0 22.5 9.5T201 63v95q0 13-9 22.5t-23 9.5q-14 0-23.5-9.5T136 158V63zm0 0z"/></svg>