<svg viewBox="0 0 1244 1083.753" xmlns="http://www.w3.org/2000/svg"><path d="M862 441q-6 0-10 4t-4 10v517H153V850q0-6-4.5-10.5T138 835q-6 0-10.5 4.5T123 850v136q0 6 4.5 10.5t10.5 4.5h724q6 0 10.5-4.5T877 986V455q0-6-4.5-10t-10.5-4zm15-378q0-6-4.5-10.5T862 48h-87V16q0-6-4.5-10.5T760 1h-79q-6 0-10.5 4.5T666 16v32H436q-6 0-10.5 4.5T421 63q0 6 4.5 10t10.5 4h230v96q0 6 4.5 10.5T681 188h79q6 0 10.5-4.5T775 173V77h73v168H153V77h73v96q0 6 4 10.5t10 4.5h79q6 0 10.5-4.5T334 173V77h34q6 0 10-4t4-10q0-6-4-10.5T368 48h-34V16q0-6-4.5-10.5T319 1h-79q-6 0-10 4.5T226 16v32h-88q-6 0-10.5 4.5T123 63v719q0 6 4.5 10t10.5 4q6 0 10.5-4t4.5-10V274h695v111q0 6 4 10.5t10 4.5q6 0 10.5-4.5T877 385V63zm-181 95V30h49v128h-49zM304 30v128h-49V30h49zm202 309q-76 0-142 39-64 37-101 101-39 66-39 143t39 142q37 64 102 102t141 38q62 0 117.5-25.5T719 807q4-4 4-9t-3-9q-3-4-8.5-5.5t-9.5.5q-37 19-80 19-49 0-91-24.5t-66.5-66Q440 671 440 622t24.5-90.5q24.5-41.5 66.5-66t91-24.5q43 0 80 18 5 2 10 1t8-5q3-4 3-9.5t-4-9.5q-40-46-96-71.5T506 339zm116 72q-57 0-105.5 28.5t-77 77Q411 565 411 622t28.5 105q28.5 48 77 76.5T622 832q18 0 27-1-31 21-67.5 32.5T506 875q-68 0-126.5-34T287 748.5Q253 690 253 622t34-126.5q34-58.5 92.5-92.5T506 369q39 0 75.5 11.5T649 413q-18-2-27-2zm153 184q-4-15-21-18l-53-8-24-48q-8-14-23-14-8 0-14 3.5t-9 10.5l-24 48-53 8q-17 3-21.5 18t6.5 26l39 38-9 53q-1 7 1.5 13.5T579 737q12 9 27 2l48-25 48 25q6 3 12.5 3t14.5-5q12-9 10-25l-9-53 38-38q5-5 7-12t0-14zm-67 44q-9 9-8 23l9 47-48-25q-8-3-14 0l-48 25 9-53q2-9-4-13l-39-38 48-7q14-2 19-14l22-43 21 43q6 12 20 14l48 7-35 34z"/></svg>