<svg viewBox="0 0 1244 1083.753" xmlns="http://www.w3.org/2000/svg"><path d="M844 376h15q7 0 11.5-4.5T875 360q0-7-4.5-11t-11.5-4h-15q-7 0-11.5 4.5T828 360q0 6 4.5 11t11.5 5zM344 173v62H125q-26 0-44 18.5T63 298v641q0 26 18 44t44 18h750q26 0 44.5-18t18.5-44V298q0-26-18.5-44.5T875 235H656v-62q0-20-13.5-33.5T609 126h-20q13-37-4-71.5t-54-48Q494-7 459.5 10T412 64q-11 31 0 62h-21q-19 0-33 13.5T344 173zm94-16q6 0 10.5-4.5T453 142q0-6-3-10-12-17-12-37 0-26 18-44.5T500 32q26 0 44.5 18.5T563 95q0 19-13 37-4 5-2.5 11.5T554 154q3 3 9 3h46q7 0 11.5 4.5T625 173v78q0 7 4.5 11.5T641 267h234q13 0 22 9t9 22v641q0 13-9 22t-22 9H125q-13 0-22-9t-9-22V376h687q7 0 11.5-4.5T797 360q0-7-4.5-11t-11.5-4H94v-47q0-13 9-22t22-9h453q7 0 11.5-4.5T594 251q0-7-4.5-11.5T578 235H375v-62q0-7 4.5-11.5T391 157h47zm242 465l1-95q0-7-4.5-11.5T665 511h-94l-66-64q-4-5-10-5t-11 5l-67 64h-81q-7 0-11.5 4.5T320 527v84l-57 55q-5 4-5 10.5t5 11.5l57 55v96q0 7 4.5 11.5T335 855h94l66 63q5 4 11.5 4t10.5-4l66-63h81q7 0 11.5-4.5T680 839v-84l57-55q5-4 5.5-10.5T738 678h-1l-57-56zm-26 115q-5 5-5 11l-1 75h-72q-6 0-11 5l-59 57-60-57q-5-5-11-5h-85l1-86q0-8-5-11l-50-49 50-49q5-3 5-11v-75h72q7 0 11-4l60-58 60 58q4 4 11 4h84v87q0 6 5 11l50 49-50 48z"/></svg>