<svg viewBox="0 0 1244 1083.753" xmlns="http://www.w3.org/2000/svg"><path d="M67 1001h400q28 0 47-19.5t19-47.5v-14q0-7-4.5-11.5T517 904q-7 0-12 4.5t-5 11.5v14q0 14-9.5 24T467 968H67q-14 0-24-10t-10-24V268q0-14 10-24t24-10h23l36 73q6 13 18.5 20t26.5 7h192q14 0 26-7.5t18-19.5l37-73h23q14 0 23.5 10t9.5 24v231q0 7 5 11.5t12 4.5q7 0 11.5-4.5T533 499V268q0-28-19.5-47.5T467 201H67q-28 0-47.5 19.5T0 268v666q0 28 19.5 47.5T67 1001zm311-709q-5 9-15 9H171q-5 0-9-2.5t-6-6.5l-29-58h279l-28 58zm139-113q7 0 11.5-5t4.5-12v-61h34v233q0 7 4.5 12t11.5 5h217q14 0 23.5-10t9.5-23V101q0-14-9.5-23.5T800 68H467q-14 0-24 9.5T433 101v50q0 7 5 12t12 5q7 0 11.5-5t4.5-12v-50h34v61q0 7 5 12t12 5zm150 139h-67V101h67v217zm33-217h33v217h-33V101zm100 217h-33V101h33v217zM467 34q7 0 11.5-4.5T483 18q0-7-4.5-12T467 1h-34q-28 0-47 19.5T367 68v33q0 7 4.5 12t11.5 5q7 0 12-5t5-12V68q0-14 9.5-24T433 34h34zm416 267q-7 0-11.5 5t-4.5 12v33q0 14-10 23.5t-24 9.5h-33q-7 0-12 5t-5 12q0 7 5 12t12 5h33q28 0 47.5-19.5T900 351v-33q0-8-4.5-12.5T883 301zm17-233q0-28-19.5-47.5T833 1h-33q-7 0-12 5t-5 12q0 7 5 11.5t12 4.5h33q14 0 24 10t10 24v33q0 7 4.5 12t11.5 5q7 0 12-5t5-12V68zM117 884q-7 0-12 5t-5 12q0 7 5 12t12 5h300q7 0 11.5-5t4.5-12q0-7-4.5-12t-11.5-5H117zm333-133V451q0-14-9.5-23.5T417 418H117q-14 0-24 9.5T83 451v300q0 14 10 23.5t24 9.5h300q14 0 23.5-10t9.5-23zm-33-167H200v-50h217v50zm-250 0h-50v-50h50v50zm-50 34h50v50h-50v-50zm83 0h217v50H200v-50zm217-117H200v-50h217v50zm-250-50v50h-50v-50h50zm-50 250h50v50h-50v-50zm83 50v-50h217v50H200zm542 217q70 0 129-35t94-94.5q35-59.5 35-129.5t-35-129.5q-35-59.5-94-94T742 451q-70 0-129.5 34.5T519 579q-36 60-36 130t35 129.5q35 59.5 94.5 94.5T742 968zm0-484q61 0 112.5 30.5t82 82Q967 648 967 709t-30.5 112.5q-30.5 51.5-82 82T742 934q-61 0-112.5-30t-82-82Q517 770 517 709t30-112.5q30-51.5 82-82T742 484zm-87 345q4 5 10.5 5.5T677 830l217-183q5-4 5.5-11t-4-12q-4.5-5-11-5.5T873 622L667 795l-55-56q-5-5-12-5t-12 4.5q-5 4.5-5 12t5 12.5l67 66z"/></svg>