<svg viewBox="0 0 1244 1083.753" xmlns="http://www.w3.org/2000/svg"><path d="M875 126H653L625 13q-2-5-6-8.5T609 1H391q-5 0-9.5 3.5T376 13l-29 113h-34V79q0-7-4.5-11.5T297 63H172q-7 0-11.5 4.5T156 79v47h-31q-19 0-33 13.5T78 173v531q0 19 14 33t33 14h78v203q0 19 14 33t33 14h500q20 0 33.5-14t13.5-33V751h78q20 0 33.5-14t13.5-33V173q0-20-13.5-33.5T875 126zM403 32h194l24 94H379l24-94zM188 95h93v31h-93V95zm-63 62h750q7 0 11.5 4.5T891 173v78H641q-42-31-91.5-42t-99 0Q401 220 360 251H109v-78q0-7 4.5-11.5T125 157zm766 469H641q54-41 78-103 23-61 12-126t-56-115h216v344zM109 282h217q-45 50-56.5 115T281 523q25 62 79 103H109V282zm188 156q0-55 27.5-101.5t74-74Q445 235 500 235t101.5 27.5q46.5 27.5 74 74T703 438q0 55-27.5 102t-74 74.5Q555 642 500 642t-101.5-27.5Q352 587 324.5 540T297 438zm469 516q0 7-4.5 11.5T750 970H250q-7 0-11.5-4.5T234 954V751h32v172q0 7 4.5 11.5T281 939h438q6 0 10.5-4.5T734 923V751h32v203zM297 751h406v156H297V751zm578-31H125q-7 0-11.5-4.5T109 704v-47h307q41 16 84.5 16t83.5-16h307v47q0 7-4.5 11.5T875 720zM672 438q0-46-23-85.5T586.5 290Q547 267 500 267t-86.5 23Q374 313 351 352.5T328 438q0 46 23 85.5t62.5 63Q453 610 500 610t86.5-23q39.5-23 62.5-62.5t23-86.5zm-313 0q0-38 19-70t51.5-51q32.5-19 70.5-19t70.5 19q32.5 19 51.5 51t19 70q0 38-19 70.5T570.5 560Q538 579 500 579t-70.5-19Q397 541 378 508.5T359 438zm157-93q0-7-4.5-11.5T500 329q-30 0-55 14.5T405.5 383Q391 408 391 438q0 7 4.5 11.5T406 454q6 0 11-4.5t5-11.5q0-32 23-55t55-23q7 0 11.5-4.5T516 345zm250-125h62q7 0 11.5-4.5T844 204q0-7-4.5-11.5T828 188h-62q-7 0-11.5 4.5T750 204q0 7 4.5 11.5T766 220z"/></svg>