<svg viewBox="0 0 1244 1083.753" xmlns="http://www.w3.org/2000/svg"><path d="M1000 853q-1-107-38-212.5T859 447q-66-88-151-143-42-27-93-27H385q-51 0-93 27-85 55-151 143T38 640.5Q1 746 0 853v109q0 8 6 13.5t14 5.5h394q8 0 13.5-5.5T433 962q0-8-5.5-14t-13.5-6H39v-60h922v60H586q-8 0-14 6t-6 14q0 8 6 13.5t14 5.5h394q8 0 14-5.5t6-13.5V853zM500 408q61 0 138.5 58T805 637q43 55 85 117 32 48 56 89H730l-3-35q-10-65-32-119t-53-93q-30-36-66.5-55T500 522q-39 0-75.5 19T358 596q-31 39-52.5 93T274 808q-2 10-3 28l-1 7H54q64-107 141-206 89-113 166.5-171T500 408zm-19 155v280H309l3-29q20-126 77-193 41-51 92-58zm39 0q49 7 92 58 56 68 76 193l3 29H520V563zm166-226q122 79 199 224 56 107 71 223-64-99-121-171-180-228-315-243v-54h95q40 0 71 21zm-372 0q32-21 71-21h96v54q-136 15-316 243-57 72-121 171 15-116 71-223 77-145 199-224zm204 617q-5-12-18-11.5t-17.5 13q-4.5 12.5 5.5 21t22 2.5q6-4 8.5-11t-.5-14zm247-751q-6 1-10.5 4.5T749 217q-3 12 6 20 31 26 70 26 29 0 53.5-14.5t39-39Q932 185 932 156t-14.5-53.5q-14.5-24.5-39-39T825 49q-39 0-70 25-9 8-6 21 3 10 16 14 17 2 29 15.5t12 31q0 17.5-12 31T765 203zm48-114q4-1 12-1 29 0 48.5 19.5t19.5 48q0 28.5-20 48.5t-48 20l-12-1q15-12 23.5-30t8.5-37.5q0-19.5-8.5-37T813 89zM20 145h199q26 0 44-18.5t18-44Q281 57 263 39t-44-18h-9q-8 0-14 5.5T190 40q0 8 6 14t14 6h9q10 0 16.5 6.5T242 83q0 10-6.5 16.5T219 106H20q-8 0-14 5.5T0 125q0 8 6 14t14 6zm133 64q0 7 6 13t13 6h125q8 0 14-5.5t6-13.5q0-8-6-14t-14-6H172q-8 0-13.5 6t-5.5 14zm212 7q3 8 10.5 11t14.5 0q7-3 10.5-10.5t.5-15q-3-7.5-10.5-10.5t-15 0q-7.5 3-10.5 10t0 15z"/></svg>