<svg viewBox="0 0 1244 1083.753" xmlns="http://www.w3.org/2000/svg"><path d="M763 812q19 0 32.5-13t13.5-32q0-19-13.5-32.5T763 721q-19 0-32.5 13T717 766.5q0 19.5 13.5 32.5t32.5 13zm0-62q7 0 12 5t5 12q0 7-5 11.5t-12 4.5q-7 0-11.5-4.5T747 767q0-7 4.5-12t11.5-5zm-573-29q-19 0-32.5 13.5T144 767q0 19 13.5 32t32.5 13q19 0 32.5-13t13.5-32q0-19-13.5-32.5T190 721zm0 62q-7 0-12-4.5t-5-11.5q0-7 5-12t12-5q7 0 11.5 5t4.5 12q0 7-4.5 11.5T190 783zm365-302V338q0-19-13-31.5T511 294H377q-18 0-31 12.5T333 338v143q0 18 13 31t31 13h134q18 0 31-13t13-31zm-193 0V338q0-6 4.5-10.5T377 323h134q6 0 10.5 4.5T526 338v143q0 6-4.5 10.5T511 496H377q-6 0-10.5-4.5T362 481zm-283 0q0 18 12.5 31t31.5 13h134q18 0 31-13t13-31V338q0-19-13-31.5T257 294H123q-19 0-31.5 12.5T79 338v143zm29-143q0-6 4.5-10.5T123 323h134q6 0 10 4.5t4 10.5v143q0 6-4 10.5t-10 4.5H123q-6 0-10.5-4.5T108 481V338zm845 158h-51l-78-173h111q12 0 22.5-6t16.5-16q13-23 3-45l-36-75q-10-22-30.5-35T866 133H99q-41 0-70 29.5T0 233v140q0 6 4.5 10.5T15 388q6 0 10-4.5t4-10.5V233q0-29 20.5-49.5T99 163h767q16 0 29 8.5t20 22.5l36 75q3 8-2 16.5t-14 8.5H643q-18 0-31 12.5T599 338v327H476q-6 0-10.5 4t-4.5 10q0 6 4.5 10.5T476 694h123v58H291q-6-36-30-58h156q6 0 10.5-4.5T432 679q0-6-4.5-10t-10.5-4H29v-25h41q14 0 24-10t10-24v-18q0-14-10-24t-24-10H29V440q0-7-4-11t-10-4q-6 0-10.5 4T0 440v295q0 19 13.5 32.5T46 781h43q5 38 33.5 63t67.5 25q39 0 67.5-25t33.5-63h371q5 38 34 63t67 25q43 0 72.5-30t29.5-72q0-22-8-40.5T835 694h136v41q0 7-5 12t-12 5h-48q-6 0-10 4t-4 11q0 7 4 10.5t10 3.5h48q19 0 32.5-13.5T1000 735V542q0-19-13.5-32.5T953 496zm18 115h-41q-2 0-3.5-1.5T925 606v-18q0-2 1.5-3.5t3.5-1.5h41v28zM628 338q0-6 4.5-10.5T643 323h149l78 173H628V338zm0 187h325q7 0 12.5 5t5.5 12v12h-41q-14 0-24 10t-10 24v18q0 14 10 24t24 10h41v25H628V525zm0 169h64q-24 22-30 58h-34v-58zM70 583q5 0 5 5v18q0 5-5 5H29v-28h41zM29 735v-41h89q-25 25-29 58H46q-7 0-12-5t-5-12zm161 104q-30 0-51.5-21T117 766.5q0-30.5 21.5-51.5t51.5-21q30 0 51 21t21 52q0 31-21 51.5T190 839zm646-72q0 30-21.5 51T763 839q-30 0-51-21t-21-51.5q0-30.5 21-51.5t51-21q30 0 51.5 21t21.5 52zM697 554h-14q-6 0-10.5 4.5T668 569q0 6 4.5 10t10.5 4h14q7 0 11-4t4-10q0-6-4-10.5t-11-4.5zm-305 0q-6 0-10 4.5t-4 10.5q0 6 4 10t10 4h15q6 0 10-4t4-10q0-6-4-10.5t-10-4.5h-15zM205 247q6 0 10-4.5t4-10.5q0-6-4-10t-10-4H93q-6 0-10 4t-4 10q0 6 4 10.5t10 4.5h112zm80 0q6 0 10.5-4.5T300 232q0-6-4.5-10t-10.5-4h-26q-6 0-10.5 4t-4.5 10q0 6 4.5 10.5T259 247h26z"/></svg>