<svg viewBox="0 0 1244 1083.753" xmlns="http://www.w3.org/2000/svg"><path d="M768 701q-2-2-5-4t-6-2H643V470q0-6-4.5-10t-10.5-4q-6 0-10 4t-4 10v225H386V509q8 3 15 3 19 0 32-13t13-32v-98q0-6-4.5-10.5T431 354q-6 0-10.5 4.5T416 369v98q0 7-4 11t-11 4q-7 0-11-4t-4-11V296q0-2 1.5-3.5t3.5-1.5h218q2 0 3.5 1.5t1.5 3.5v106q0 6 4 10.5t10 4.5q6 0 10.5-4.5T643 402V296q0-14-10-24.5T609 261h-94v-21q31-5 52-29.5t21-56.5q0-46-36-99-19-27-42-50-4-4-9.5-4T490 5q-23 23-42 50-36 53-36 99 0 32 21 56.5t52 29.5v21h-94q-14 0-24 10.5T357 296v399h-16q-6 0-10.5 4.5T326 710q0 6 4.5 10.5T341 725h396l-37 122q-6 20-23 33t-38 13H361q-21 0-38-13t-23-33l-37-122h9q6 0 10.5-4.5T287 710q0-6-4.5-10.5T272 695h-28q-6 0-11.5 6.5T230 714l42 141q9 29 32.5 47.5T359 922l-30 58q-4 8 1 14.5t12 6.5h316q9 0 13-6.5t0-14.5l-30-58q31-1 55-19.5t32-47.5l43-141q2-7-3-13zM478 190q0-22 22-48 22 26 22 48 0 9-6.5 15.5T500 212q-9 0-15.5-6.5T478 190zm22-153q22 24 36 49 22 37 22 68 0 17-7 28-2-17-12-35-7-14-18-26-9-10-11-11-4-5-9.5-5t-10.5 5q-2 1-10 11-11 12-19 26-10 18-12 35-7-11-7-28 0-31 22-68 14-25 36-49zM366 972l26-50h216l26 50H366zm161-520q0 6-4.5 10.5T512 467q-6 0-10.5-4.5T497 452t-4.5-10.5Q488 437 482 437t-10 4.5q-4 4.5-4 10.5 0 18 12.5 31t31 13q18.5 0 31.5-13t13-31q0-6-4-10.5t-10.5-4.5q-6.5 0-10.5 4.5t-4 10.5zm45-87q0-6-4.5-10.5T557 350q-6 0-10 4.5t-4 10.5q0 6-4.5 10.5T528 380q-6 0-10.5 4t-4.5 10q0 6 4.5 10.5T528 409q18 0 31-13t13-31z"/></svg>