<svg viewBox="0 0 1244 1083.753" xmlns="http://www.w3.org/2000/svg"><path d="M147 147Q76 218 38.5 309.5T.5 500Q0 599 38 692t108.5 163q70.5 70 162 108t191.5 38q100 0 191.5-38t162-108Q924 785 962 692t38-192q0-99-37.5-190.5T854 147Q758 52 627 18q-127-33-254 0-130 34-226 129zm683 684q-90 90-211 121-118 31-237 0-121-31-211-121T49 619q-31-118 0-236 32-123 122-212.5T383 50q118-31 236 0 121 31 211 121t121 212q31 118 0 236-31 122-121 212zM156 432q-11 58-3 115.5T187 658q4 7 13.5 8t15-7q5.5-8 .5-16-23-47-30-100t3-104q1-7-2.5-12.5t-10.5-7q-7-1.5-12.5 2T156 432zm635-95q-6 3-9 9-2 8 1 13 24 47 31 99.5T811 563q-1 7 2.5 12.5T824 583h3q6 0 10.5-4t6.5-9q11-58 3-115.5T813 344q-3-7-10-8.5t-12 1.5zm-22-148q-2-8-6-12-82-66-185-86-100-19-198 11-101 30-175 104T101 381q-30 98-11 198 20 103 86 184 5 6 12 6h1q8 0 12-5l563-562q5-5 5-13zM394 395q24-25 63-28t78 17L383 536q-20-39-17-77.5t28-63.5zm-7-50q-16-32-38-65-5-8-14.5-8t-14.5 8.5q-5 8.5 1 17.5 19 27 34 58-31-15-58-34-9-5-17.5-1t-8.5 14.5q0 10.5 8 14.5 33 22 65 38-50 19-129-33 24-39 61-78 33-33 78-61 52 79 33 129zm172 14q-30-19-65.5-24t-70.5 5q7-36-10-81-11-30-32-61-7-11-20-14t-24 4q-94 56-150 150-7 11-4 24t14 20q24 17 51 28 37 16 70 16 14 0 21-2-10 34-5 70t24 66L191 728q-55-75-70-168-14-89 14-176 28-89 94-155t155-94q86-28 176-13 92 14 167 70L559 359zm253-127q-8 0-13 5L236 800q-5 5-5 12.5t7 12.5q81 66 184 86 100 19 198-10 101-31 175-105t104-175q30-98 11-198-20-103-86-184-4-5-12-7zM606 607q-25 25-63.5 28T465 618l152-152q20 39 17 78t-28 63zm7 50q16 32 38 65 6 8 15 8 11-2 14.5-9.5T679 704q-19-28-34-59 35 19 58 35 9 5 17.5.5T729 667q1-4-1-8.5t-6-6.5q-41-26-66-38 15-5 27-5 45 0 102 38-24 41-62 78t-77 61q-52-79-33-129zm158 115q-66 67-154 95-87 28-176 13-93-14-168-70l168-167q43 24 92 26 24 0 44-7-7 37 10 82 11 31 32 60 7 11 20 14t25-4q93-57 149-150 7-11 4-24t-14-20q-31-21-61-32-45-17-81-10 10-34 5-70t-24-66l167-168q56 75 70 167 14 90-14 177.5T771 772z"/></svg>