<svg viewBox="0 0 1244 1083.753" xmlns="http://www.w3.org/2000/svg"><path d="M769 735q0-59-29.5-109.5T660 546q-50-29-110-29t-110 29q-50 29-79.5 79.5t-29.5 110q0 59.5 29.5 109.5t79.5 79.5Q490 954 550 954t110-29.5q50-29.5 79.5-79.5T769 735zM550 923q-51 0-94-25.5T388 829q-25-43-25-94t25-94q25-43 68-68t94-25q51 0 94 25t68.5 68q25.5 43 25.5 94t-25.5 94.5Q687 873 644 898t-94 25zm111-298h-1q-30-30-70-40.5t-80 0Q470 595 440 625h-1q-30 30-40 70t0 80q10 40 40 70l1 1q30 30 70 40.5t80 0q40-10.5 70-40.5h1q30-30 40.5-70.5t0-80.5Q691 655 661 625zm-12 187l-61-61h86q-5 35-25 61zm-223-61h86l-61 61q-21-28-25-61zm25-92l61 61h-86q4-34 25-61zm115-48q33 5 61 26l-61 61v-87zm-32 87l-61-61q28-21 61-26v87zm0 75v86q-33-3-61-25l61-61zm32 0l61 61q-28 22-61 25v-86zm22-53l61-61q20 25 25 61h-86zm305-209q12 0 20-4l57-26q17-8 24-26.5t-1-36.5l-79-168q-3-6-9-8t-12 .5q-6 2.5-8 8.5t0 12l79 168q3 6 1 12t-8 9l-57 26q-6 3-12 1t-9-8L747 188q-3-6-1-12.5t8-8.5l57-26q6-3 12-1t9 8 9 8q6 2 11.5-.5t8-8.5q2.5-6-.5-12-8-17-26.5-24t-35.5 1l-57 27q-13 6-20.5 18.5T714 185L302 325q-49 16-85 53t-53 86q-20-32-20-70-1-7-5.5-11.5T128 378q-6 0-10.5 5t-4.5 11q0 53 31 96 5 7 11 14v2q-2 18-2 27l1 13q-35-29-54-69.5T81 391q0-40 18-83l27-13 22 62q2 6 8 8.5t12 1q6-1.5 10-9.5l22-62 58 28q6 3 12 1t9-8.5q3-6.5 0-12.5l-28-59 61-22q7-2 9.5-7.5t-.5-13q-3-7.5-9-8.5l-61-22 28-59q3-5 1-11.5t-8.5-9Q265 89 258 92l-58 28-22-62q-2-6-8-8.5t-12-1q-6 1.5-10 9.5l-22 62-58-28q-6-3-12-1t-9 8q-3 6 0 13l28 59-61 22q-6 2-9 7.5t0 13q3 7.5 9 8.5l61 22-28 59q-2 5-1.5 9.5T50 320q5 5 10 5-10 35-10 66 0 61 29.5 114.5T161 590q13 47 44 84t74 57q5 3 11.5.5t8.5-8.5q2-6 .5-12t-7.5-8q-60-29-90-91-21-47-15.5-97.5t35-92Q251 381 299 360l14-6 412-140 120 258-111 66q-5 4-7 10t1.5 11q3.5 5 10 7t11.5-1l112-67q12 13 31 13zM65 208l37-13q6-2 8.5-8t.5-13v-1l-17-34 35 16q6 3 12 .5t9-8.5v-1l13-36 13 36q2 6 8 9t12 1l1-1 35-16-17 34q-2 6 0 12.5t8 8.5q0 1 1 1l36 13-36 12q-6 3-8.5 9t-.5 12v1l17 34-35-16q-6-3-12-.5t-9 8.5v1l-13 36-13-36q-2-6-8-8.5t-12-.5h-1l-35 16 16-34q3-6 1-12.5t-8-8.5q-1 0-1-1l-37-12zm787-16l6 13q3 5 9 7.5t12 0q6-2.5 8-9t-1-11.5l-6-13q-2-6-8-8.5t-12 0q-6 2.5-8.5 9t.5 12.5z"/></svg>