<svg viewBox="0 0 1244 1083.753" xmlns="http://www.w3.org/2000/svg"><path d="M998 655q-4-14-17-22.5t-32-9.5q-21-1-103-17-72-13-112-23v-20q0-79-40-146-38-66-104-104-68-40-147-40h-27q-8-11-21-18t-28-7q-15 0-28 7t-21 18h-27q-79 0-147 40-66 38-104 104Q0 484 0 563v83q0 7 4.5 12t11.5 5h523q56 44 122.5 67.5T797 754q54 0 101.5-14t81.5-39q13-10 17.5-22t.5-24zM663 429q29 45 37 106-24-2-40.5-19T643 474q0-13 5-25t15-20zM33 630v-22h43q7 0 12-5t5-12q0-7-5-11.5T76 575H33v-12q0-66 31-122.5t84-92.5q53-36 118-42-42 35-67 79-59 97-62 245H33zm137 0q3-140 57-228 37-60 98-97h75q50 40 77 122.5T506 630H170zm368 0q-1-147-41-243-20-49-50-82 59 1 110.5 27t87.5 70q-17 14-26 32.5t-9 39.5q0 38 26.5 65t64.5 28v16l-159 47h-4zm422 45q-29 22-71.5 34.5T797 722q-57 0-112.5-18T581 653l137-41q28 8 116.5 25.5T947 656q9 0 14 2.5t6 6q1 3.5-7 10.5z"/></svg>