<svg viewBox="0 0 1244 1083.753" xmlns="http://www.w3.org/2000/svg"><path d="M897 358q2 0 4-2t2-5q0-6-6-6-2 0-4 2t-2 4.5q0 2.5 1.5 4.5t4.5 2zm-40-120q2 0 4-2t2-4q0-2-2-4t-4-2q-6 0-6 6 0 2 2 4t4 2zm0 40q2 0 4-2t2-4.5q0-2.5-2-4.5t-4-2q-2 0-4 2t-2 4.5q0 2.5 2 4.5t4 2zm21 19q2 0 4-2t2-4q0-2-2-4t-4-2q-6 0-6 6t6 6zm-21 21q2 0 4-2t2-4.5q0-2.5-2-4.5t-4-2q-2 0-4 2t-2 5q0 6 6 6zm21 19q2 0 4-2t2-4q0-6-6-6t-6 6q0 6 6 6zm-21 21q2 0 4-2t2-5q0-6-6-6-2 0-4 2t-2 4q0 2 2 4.5t4 2.5zm21 19q2 0 4-2t2-4q0-2-2-4.5t-4-2.5q-2 0-4 2t-2 5q0 6 6 6zm-21 21q2 0 4-2t2-5q0-6-6-6-2 0-4 2t-2 4q0 2 2 4.5t4 2.5zm21 19q2 0 4-2t2-4.5q0-2.5-2-4.5t-4-2q-2 0-4 2t-2 5q0 6 6 6zm-21 20q6 0 6-6t-6-6q-2 0-4 2t-2 4q0 2 2 4t4 2zm-19-220q6 0 6-6 0-2-2-4t-4-2q-2 0-4 2t-2 4q0 6 6 6zm0 40q2 0 4-2t2-4q0-2-2-4t-4-2q-2 0-4 2t-2 4q0 6 6 6zm0 120q2 0 4-2t2-4q0-2-2-4.5t-4-2.5q-2 0-4 2t-2 5q0 6 6 6zm0 40q2 0 4-2t2-4.5q0-2.5-2-4.5t-4-2q-2 0-4 2t-2 5q0 6 6 6zm-21 8q-2 0-4 2t-2 4q0 2 2 4t4 2q6 0 6-6t-6-6zm21 32q2 0 4-2t2-4.5q0-2.5-2-4.5t-4-2q-2 0-4 2t-2 4.5q0 2.5 1.5 4.5t4.5 2zm-40 0q2 0 4-2t2-4.5q0-2.5-2-4.5t-4-2q-6 0-6 6.5t6 6.5zm-61 48q-2 0-4 2t-2 4q0 2 2 4t4 2q2 0 4.5-2t2.5-4q0-2-2-4t-5-2zm21 59q-2 0-4 2t-2 4q0 2 2 4t4 2q6 0 6-6t-6-6zm-21 21q-6 0-6 6t6 6q2 0 4.5-2t2.5-4q0-6-7-6zm-40-40q-2 0-4 2t-2 4q0 2 2 4t4 2q2 0 4.5-2t2.5-4q0-2-2-4t-5-2zm21 19q-2 0-4 2t-2 4q0 2 2 4t4 2q6 0 6-6t-6-6zm-21 21q-6 0-6 6t6 6q2 0 4.5-2t2.5-4q0-6-7-6zm21 19q-2 0-4 2t-2 4q0 2 2 4t4 2q6 0 6-6t-6-6zm-21 21q-6 0-6 6t6 6q2 0 4.5-2t2.5-4q0-6-7-6zm21 19q-6 0-6 6 0 2 2 4t4 2q6 0 6-6t-6-6zm-21 20q-2 0-4 2t-2 4.5q0 2.5 2 4.5t4 2q2 0 4.5-2t2.5-4.5q0-2.5-2-4.5t-5-2zm-19-100q-2 0-4 2t-2 4q0 2 2 4t4 2q6 0 6-6t-6-6zm0 40q-2 0-4 2t-2 4q0 2 2 4t4 2q2 0 4-2t2-4q0-6-6-6zm-20 21q-7 0-7 6t6.5 6q6.5 0 6.5-6t-6-6zm20 19q-6 0-6 6 0 2 2 4t4 2q2 0 4-2t2-4q0-6-6-6zm-20 20q-3 0-5 2t-2 4.5q0 2.5 2 4.5t5 2q6 0 6-6 0-3-2-5t-4-2zm20 20q-6 0-6 6 0 2 2 4t4 2q2 0 4-2t2-4q0-6-6-6zm-20 20q-3 0-5 2t-2 4q0 2 2 4.5t5 2.5q6 0 6-7 0-2-2-4t-4-2zm-20-60q-6 0-6 6 0 2 2 4t4 2q2 0 4.5-2t2.5-4q0-2-2-4t-5-2zm-20 20q-3 0-5 2t-2 4.5q0 2.5 2 4.5t5 2q6 0 6-6 0-3-2-5t-4-2zm20 20q-6 0-6 6 0 2 2 4t4 2q2 0 4.5-2t2.5-4q0-6-7-6zm-20 20q-3 0-5 2t-2 4q0 2 2 4.5t5 2.5q6 0 6-7 0-2-2-4t-4-2zm20 20q-6 0-6 6t6 6q2 0 4.5-2t2.5-4q0-2-2-4t-5-2zm-20 20q-3 0-5 2t-2 4q0 2 2 4.5t5 2.5q6 0 6-6.5t-6-6.5zm-20-60q-6 0-6 6 0 2 2 4t4 2q2 0 4.5-2t2.5-4q0-6-7-6zm-20 20q-6 0-6 6 0 3 1.5 5t4.5 2q6 0 6-7 0-2-2-4t-4-2zm20 20q-6 0-6 6t6 6q2 0 4.5-2t2.5-4q0-2-2-4t-5-2zm-20 20q-6 0-6 6 0 3 1.5 5t4.5 2q6 0 6-7 0-2-2-4t-4-2zm20 19q-2 0-4 2t-2 5q0 6 6 6 2 0 4.5-2t2.5-4q0-2-2-4.5t-5-2.5zm-20 21q-6 0-6 6t6 6q6 0 6-6 0-2-2-4t-4-2zm-19-60q-7 0-7 6t6.5 6q6.5 0 6.5-6 0-2-2-4t-4-2zm-21 20q-6 0-6 6 0 3 1.5 5t4 2q2.5 0 4.5-2t2-5q0-6-6-6zm21 19q-3 0-5 2t-2 5q0 6 6.5 6t6.5-6q0-2-2-4.5t-4-2.5zm-21 21q-6 0-6 6t6 6q6 0 6-6t-6-6zm21 19q-3 0-5 2t-2 4q0 2 2 4.5t5 2.5q6 0 6-6.5t-6-6.5zm-21 21q-6 0-6 6t6 6q6 0 6-6 0-2-2-4t-4-2zm-19-61q-3 0-5 2t-2 5q0 6 6.5 6t6.5-6q0-2-2-4.5t-4-2.5zm-21 21q-2 0-4 2t-2 4q0 2 2 4t4 2q6 0 6-6t-6-6zm21 19q-3 0-5 2t-2 4q0 2 2 4.5t5 2.5q6 0 6-6.5t-6-6.5zm-21 21q-2 0-4 2t-2 4q0 2 2 4t4 2q6 0 6-6 0-2-2-4t-4-2zm21 19q-3 0-5 2t-2 4q0 2 2 4.5t5 2.5q6 0 6-6.5t-6-6.5zm-21 21q-2 0-4 2t-2 4q0 6 6 6t6-6q0-6-6-6zm-19-61q-6 0-6 6 0 3 1.5 5t4 2q2.5 0 4.5-2t2-5q0-6-6-6zm-21 21q-2 0-4 2t-2 4q0 2 2 4t4 2q6 0 6-6t-6-6zm21 19q-6 0-6 6 0 3 1.5 5t4 2q2.5 0 4.5-2t2-5q0-6-6-6zm359-558q-6 0-6 6t6 6q2 0 4-2t2-4q0-6-6-6zm0 40q-6 0-6 6t6 6q2 0 4-2t2-4q0-6-6-6zm-21 73q6 0 6-6.5t-6-6.5q-2 0-4 2t-2 4q0 2 2 4.5t4 2.5zM658 585q-7 0-7 6t6.5 6q6.5 0 6.5-6t-6-6zm-20 19q-2 0-4 2t-2 4q0 2 2 4t4 2q2 0 4.5-2t2.5-4q0-2-2-4t-5-2zm-20 21q-7 0-7 6 0 2 2 4t5 2q6 0 6-6 0-2-2-4t-4-2zm339-158h-65q27-55 27-117 0-67-29-124.5t-79-91Q761 101 702 101q-67 0-122.5 43.5T500 259q-24-71-79.5-114.5T298 101q-59 0-109 33.5t-79 91Q81 283 81 350q0 65 24 117H43q-17 0-30 12.5T0 510q0 18 13 30.5T43 553h124q62 73 252 283l43 48q15 17 38 17t38-17q209-229 294-331h125q18 0 30.5-12.5T1000 510q0-18-12.5-30.5T957 467zM97 350q0-63 27-116.5t73-85Q243 117 298 117q45 0 85 22t69 61q29 39 40 89 2 6 8 6t8-6q11-50 40-89t69-61q40-22 85-22 58 0 107 36t74 95q-1-3-5-3-6 0-6 6t6 6q6 0 6-6v-1q9 23 16 56l-3-1q-6 0-6 6.5t6 6.5q2 0 4-2 2 11 2 34 0 13-2 37-2-2-4-2-6 0-6 6 0 3 1.5 5t4.5 2l2-1q-5 27-16 51-2-4-5-4-6 0-6 6.5t6 6.5l2-1-5 11h-14q-2-2-4-2t-4 2h-32q-2-2-4-2t-4 2h-32q-2-2-4-2t-4 2l-59-82q-12-17-34.5-18T645 383l-66 84H477q-13 0-23.5 6.5T438 491l-28 54-94-207q-5-12-15.5-19t-23.5-7q-13 0-24 7t-16 18l-60 130h-54q-27-56-26-117zm705 215q-1-1-4-1-6 0-6 6 0 3 2 5l-12 12q-2-2-5-2-6 0-6 6 0 3 4 5-3 3-9 11l-2 2q-2-5-5-5t-5 2q-2 2-2 4t1.5 4q1.5 2 3.5 2-8 10-14 16l1-1q0-6-6.5-6t-6.5 6q0 6 6 6h2q-75 85-213 237-11 11-26 11t-26-11l-12-14Q264 641 188 553h17q12 0 23-6.5t16-18.5l32-69 93 205q5 11 15.5 18t23.5 8h1q12 0 22.5-6.5T447 666l56-113h97q21 0 34-16l43-55 38 53q9 10 16 14v2q0 2 2 4t5 2q3 0 5-4h29q1 4 5.5 4t5.5-4h29q-4 4-10 12zm155-27H751q-7 0-13-3.5t-10-8.5l-44-62q-2-3-6.5-3t-6.5 3l-49 63q-8 11-22 11H499q-5 0-8 4l-58 117q-3 7-9.5 11t-14.5 4h-1q-7 0-14-4.5T383 658L283 437q-1-4-7-4t-7 4l-39 85q-4 7-11 11.5t-14 4.5H43q-11 0-19-8.5T16 510q0-11 8-19.5t19-8.5h139q6 0 7-4l63-134q3-7 10-11.5t15-4.5q17 0 25 16l101 223q2 5 7 5t7-5l35-69q8-16 25-16h106q5 0 6-3l68-86q4-5 10-8t12-3q13 0 22 12l61 85q3 3 7 3h188q11 0 19 8.5t8 19.5q0 11-8 19.5t-19 8.5z"/></svg>