<svg viewBox="0 0 1244 1083.753" xmlns="http://www.w3.org/2000/svg"><path d="M469 527l-232 35q-8 2-12.5 8.5t-3.5 14q1 7.5 6.5 12T240 601h3l232-35q8-2 13-8t4-14q-1-8-8-13t-15-4zM256 687q-8 1-13 7.5t-3.5 14q1.5 7.5 7 12T259 725h3l232-35q8-1 13-7.5t3.5-14.5q-1.5-8-8-13t-14.5-3l-232 35zm670-514l-357-60-9-54q-4-28-26.5-44.5T483 2L69 64q-28 4-44.5 27T12 141l42 282q2 8 8.5 12.5t14.5 3q8-1.5 12.5-8T93 417L51 136q-2-12 5-21.5T75 103l414-63q12-1 21.5 6T522 65l104 687q2 14-7 26.5T595 793l-407 62q-11 2-21-5.5T156 830l-37-243q-2-8-8.5-12.5t-14-3.5q-7.5 1-12.5 7.5T80 593l37 243q4 28 27 45t50 12l132-20q5 23 21 39t40 20l398 68q24 4 46-6.5t33-31.5q7-14 8-24l116-678q5-31-13-56.5T926 173zM619 443l71-86 58 157-122-21-7-50zm330-189L834 932q-3 14-15.5 23t-26.5 6l-399-67q-11-2-18.5-9t-9.5-17l236-36q32-5 47-23l81 14h4q7 0 12.5-4.5t7-12q1.5-7.5-3.5-14t-13-7.5l-71-12q1-10 0-20l-9-60 93 16h3q7 0 12.5-4.5t7-12q1.5-7.5-3-14T756 670l-106-18-18-118 117 20q12 2 22.5-4.5t15-18.5q4.5-12 .5-24l-63-170q-8-19-27-22-9-2-18 1.5T664 327l-53 65-36-239 345 59q14 2 22.5 14.5T949 254zm-514 3l-100-74q-17-12-37.5-9T264 194l-73 100q-13 16-10 37t20 34l100 73q16 13 37 10t34-20l74-100q12-17 9-37.5T435 257zm-21 47l-74 101q-2 4-6.5 4.5T325 407l-101-74q-3-3-4-7.5t2-8.5l74-100q3-4 7.5-4.5t8.5 2.5l100 74q4 2 4.5 6.5T414 304zM101 522q4-4 5-11t-2-12q-3-5-8.5-8T84 489q-6 1-10 5t-5.5 10.5q-1.5 6.5 1 12t8 9q5.5 3.5 12 2.5t11.5-6z"/></svg>