<svg viewBox="0 0 1244 1083.753" xmlns="http://www.w3.org/2000/svg"><path d="M628 305q4-4 4.5-10t-3.5-11q-4-5-10.5-5t-10.5 4l-83 73q-10 10-24.5 10T475 356L307 208q-29-25-34-63t17-70q24-36 68-43t79 20l34 27q13 10 29 10t29-10l34-27q35-27 79-20t68 43q22 32 17 70t-34 63l-41 36q-4 4-4.5 9.5T651 264q4 5 10 5.5t11-3.5l41-36q37-33 43-82t-22-90q-15-22-38-36.5t-50-19Q619-2 593 5t-48 24l-34 27q-4 4-10.5 4T489 56l-34-27q-21-17-47.5-24T354 2.5q-27 4.5-50 19T266 58q-28 41-22 90t43 82l169 148q20 17 44 17t44-17l84-73zM428 701l-15-11V512q0-21-14.5-35.5T363 462q-13 0-21 4v-17q0-21-14.5-36T292 398q-11 0-21 5v-24q0-21-14.5-35.5T221 329q-18 0-31.5 11T172 368q-9-5-22-5-21 0-35.5 14.5T100 413v84q0 6 4 10.5t10 4.5q6 0 10.5-4.5T129 497v-84q0-9 6-15t15-6q9 0 15 6t6 15v187q0 16 6.5 30t17.5 25l115 106q4 4 10.5 4t10.5-4.5q4-4.5 4-10.5t-5-10l-79-74 9-10q9-10 21-11.5t23 6.5l107 74q16 10 24.5 26.5T444 786v171q0 6-4.5 10.5T429 972H289q-7 0-11-4.5t-4-10.5v-25q0-35-24-62l-94-104q-27-29-27-69V560q0-6-4.5-10.5T114 545q-6 0-10 4.5t-4 10.5v137q0 51 34 88l94 105q17 17 17 42v25q0 18 12.5 31t31.5 13h140q18 0 31-13t13-31V786q0-25-12-48t-33-37zm-65-210q8 0 14.5 6t6.5 15v158l-42-29V512q0-9 6-15t15-6zM200 600V379q0-9 6-15t15-6q9 0 15 6t6 15v254l-13 13-14-13q-15-14-15-33zm71 17V449q0-9 6-15t15-6q9 0 15 6t6 15v173q-21-10-42-5zm579-254q-13 0-22 5-4-17-17.5-28T779 329q-21 0-35.5 14.5T729 379v24q-10-5-21-5-21 0-35.5 15T658 449v17q-8-4-21-4-21 0-35.5 14.5T587 512v125q0 7 4.5 11t10.5 4q6 0 10-4t4-11V512q0-9 6.5-15t14.5-6q8 0 14.5 6t6.5 15v129l-86 60q-21 14-33 37t-12 48v171q0 18 13 31t31 13h141q18 0 30.5-13t12.5-31v-25q0-25 17-42l94-105q34-37 34-88V413q0-21-14.5-35.5T850 363zm-92 16q0-9 6.5-15t14.5-6q8 0 14.5 6t6.5 15v221q0 19-15 33l-14 13-13-13V379zm-71 70q0-9 6.5-15t14.5-6q8 0 14.5 6t6.5 15v168q-20-4-42 5V449zm184 248q0 40-27 69l-94 104q-24 27-24 62v25q0 6-4 10.5t-10 4.5H571q-6 0-10.5-4.5T556 957V786q0-18 9-34t24-27l107-74q9-6 19-6 14 0 25 11l9 10-79 74q-5 4-5 10t4 10.5q4 4.5 10.5 4.5t10.5-4l115-106q11-11 17.5-25t6.5-30V413q0-9 6.5-15t14.5-6q8 0 14.5 6t6.5 15v284z"/></svg>