<svg viewBox="0 0 1244.0016 1083.753" xmlns="http://www.w3.org/2000/svg"><path d="M750.002 501q-68 0-125.5 33.5t-91 91q-33.5 57.5-33.5 125.5t33.5 125.5q33.5 57.5 91 91t125.5 33.5q68 0 125.5-33.5t91-91q33.5-57.5 33.5-125.5t-33.5-125.5q-33.5-57.5-91-91t-125.5-33.5zm0 467q-59 0-109-29t-79-79q-29-50-29-109t29-109q29-50 79-79t109-29q59 0 109 29t79 79q29 50 29 109t-29 109q-29 50-79 79t-109 29zm122-329l-205 205-55-55q-5-5-12-5t-11.5 5q-4.5 5-4.5 12t4 12l67 67q5 4 12 4t11-4l217-217q5-5 5-12t-4.5-12q-4.5-5-11.5-5t-12 5zm-872-455q-1 30 18 53.5t49 28.5v411q0 38 20 72 23 34 55 50 27 13 42.5 38.5t15.5 54.5v59q0 21 14.5 35.5t35.5 14.5h133q21 0 35.5-14.5t14.5-35.5v-59q0-28 16-54 9-14 16.5-21.5t5.5-16q-2-8.5-11-12.5-4-1-8.5 0t-7.5 4q-21 20-32.5 46t-11.5 54v59q0 7-5 12t-12 5h-133q-7 0-12-5t-5-12v-59q1-39-19.5-72t-55.5-50q-26-13-42-39t-16-54V271l33 6v324q1 20 15.5 35t35 15q20.5 0 35-15t14.5-35V293l34 5v303q0 20 14.5 35t35 15q20.5 0 35.5-15t15-35V314l33 5v282q0 20 15 35t35.5 15q20.5 0 35-15t14.5-35V335l34 5v188q0 7 4.5 11.5t11.5 4.5q7 0 12-4.5t5-11.5V345l129 21q48 8 91.5-15.5t64.5-67.5l93 47q10 5 20.5 4t18.5-7q10-8 14-20t1-24l-21-95v-7l21-95q3-12-1-24t-14-20q-8-7-18.5-8t-20.5 4l-93 47q-21-44-64.5-67t-92.5-15l-625 99q-31 5-51 28t-19 54zm200 417q0 7-5 12t-11.5 5q-6.5 0-11.5-6-5-4-5-11V282l33 5v314zm133 0q0 7-4.5 12t-11.5 5q-7 0-12-5.5t-5-11.5V303l34 5v293h-1zm134 0q0 7-5 12t-12 5q-7 0-12-5.5t-5-11.5V324l34 5v272zm493-533q2-2 5 1.5t1 8.5l-19 90h-30q-7 0-12 4.5t-5 11.5q0 7 5 12t12 5h30l19 89q1 5-2 10-2 2-4 0l-97-49q4-20 4-32v-69q0-11-4-33l97-49zm-885 67l142-22 17 44q5 9 14 10t15-6q3-3 3.5-7.5t-1.5-8.5l-15-38 67-10 17 43q5 9 13.5 10.5t15.5-5.5q5-7 2-17l-15-37 161-25 23 58q3 6 9 8.5t13 0q7-2.5 9.5-8.5t-.5-13l-20-50 67-11 22 57q5 9 14 10t15-6q3-3 3.5-7.5t-1.5-8.5l-20-50 55-9q26-4 50 3t43 23q19 16 29.5 39t10.5 49v69q0 25-10.5 47.5t-30 39.5q-19.5 17-43.5 24t-49 3l-625-99q-18-2-30.5-16.5t-12.5-33q0-18.5 12.5-33t30.5-16.5z"/></svg>