<svg viewBox="0 0 1244 1083.753" xmlns="http://www.w3.org/2000/svg"><path d="M946 878h-4V260h4q22 0 38-16t16-38.5q0-22.5-15.5-38T946 152h-51q3-17 2-31-3-42-33-72t-72-33q-26-2-49.5 7.5T703 52q-9 9-11 21t3 23q5 11 15 18t22 7q19 0 29.5-12.5T786 98q11 0 19.5 8t10.5 19q1 16-11 27H500q-6 0-10.5 4t-4.5 10q0 6 4.5 10.5T500 181h446q11 0 18 7t7 17.5q0 10.5-7 17.5t-18 7H349q-10 0-17.5-7t-7.5-17.5q0-10.5 7.5-17.5t17.5-7h86q6 0 10-4.5t4-10.5q0-6-4-10t-10-4h-86q-22 0-38 15.5t-16 38q0 22.5 16 38.5t38 16h4v226q0 6 4.5 10.5T368 501q6 0 10.5-4.5T383 486V260h529v618H599l-27-141q-3-17-17-28.5T523 697h-16q-10-30-36-43-6-3-10-9.5t-5-13.5v-1q-4-25-22-43t-44-21h-2q-12-2-16-12-9-19-27.5-31T304 511q-22 0-40 11.5T236 554q-4 10-15 12h-3q-26 3-44 21t-21 43v1q-3 17-15 23-27 14-37 43H85q-18 0-31.5 11.5T36 737L1 927q-5 22 10.5 40.5T50 986h509q23 0 37.5-17.5T608 927l-4-20h342q11 0 18 7t7 17.5q0 10.5-7.5 17.5t-17.5 7H656q-6 0-10.5 4.5T641 971q0 6 4.5 10.5T656 986h290q23 0 38.5-16t15.5-38.5q0-22.5-15.5-38T946 878zM845 122q-2-22-18.5-37T788 68q-28 0-48 20-3 3-9 3t-9-7q-3-7 2-12 13-14 30-20.5t36-5.5q31 1 53.5 23t24.5 54q0 15-3 29h-25q6-14 5-30zM151 680q13-7 21-19t10-27q2-15 13-26.5t27-12.5h1q13-2 24-9.5t16-19.5q5-12 16.5-19t24.5-7q13 0 24.5 7t17 19.5q5.5 12.5 16 19.5t24.5 9h1q15 1 26.5 12.5T427 634v1q1 14 9.5 26t20.5 18.5q12 6.5 18 17.5H133q8-11 18-17zm424 269q-6 7-16 7H50q-10 0-16-7t-4-17l35-189q2-8 7.5-12.5T85 726h438q8 0 14 5t7 12l35 189q1 8-4 17zm20-371l-34 55q-6 9-6.5 20t5.5 21q13 21 35 21h105q11 0 20.5-5.5t15-15.5q5.5-10 5-21t-6.5-20l-34-55q-8-13-22-21t-30-8q-16 0-30.5 8T595 578zm80 16l35 54q3 5 0 11.5t-10 6.5H595q-7 0-10-6.5t1-11.5l34-54q9-15 27.5-15t27.5 15zm-85-152q-18 0-30.5 13T547 486q0 18 12.5 31t30.5 13q18 0 31-13t13-31q0-18-12.5-31T590 442zm0 59q-6 0-10-4.5t-4-10.5q0-6 4-10t10-4q6 0 10.5 4t4.5 10q0 6-4 10.5t-11 4.5zm-76 22q-18 0-31 13t-13 31q0 18 13 31t31.5 13q18.5 0 31-13t12.5-31q0-18-12.5-31T514 523zm0 59q-6 0-10-4.5t-4-10.5q0-6 4-10t10-4q6 0 10.5 4t4.5 10q0 6-4.5 10.5T514 582zm191-140q-19 0-31.5 13T661 486q0 18 12.5 31t31.5 13q19 0 31.5-13t12.5-31q0-18-13-31t-31-13zm0 59q-6 0-10.5-4.5T690 486q0-6 4.5-10t10.5-4q6 0 10 4t4 10q0 6-4 10.5t-10 4.5zm76 110q18 0 31-13t13-31q0-18-13-31t-31-13q-18 0-31 13t-13 31q0 18 13 31t31 13zm0-58q6 0 10 4t4 10q0 6-4 10.5t-10 4.5q-6 0-10.5-4.5T766 567q0-6 4.5-10t10.5-4zM439 840q8-15 7-29-1-19-14.5-32.5T399 764q-17-2-31 7t-20 25h-88q-6-16-20-24.5t-31.5-7q-17.5 1.5-31 14.5T163 811q-2 15 6 29 2 1 0 3-8 14-6 29 1 19 14.5 32t31.5 15h4q16 0 29-9t18-24h88q6 16 20 25t31 8q19-2 32.5-15t14.5-32q1-14-7-29v-3zm-25-15q-4 7-4 16t4 17q3 4 2.5 12t-6.5 13.5q-6 5.5-13 6t-13-3q-6-3.5-8-10.5-4-9-11-14t-16-5h-89q-9 0-16.5 5T233 876q-2 7-8 10.5t-13.5 3q-7.5-.5-13-6t-6-13.5q-.5-8 2.5-12 5-8 5-17t-4-15.5q-4-6.5-3.5-13.5t6-12.5Q204 794 212 793h1q7 0 12.5 3.5t8 11q2.5 7.5 10 13T260 826h89q9 0 16-5t11-14q2-7 8-11t13.5-3q7.5 1 13 6.5t6 12.5q.5 7-2.5 13z"/></svg>