<svg viewBox="0 0 1244 1083.753" xmlns="http://www.w3.org/2000/svg"><path d="M497 408l-18-6q-31-11-64 0l-17 6q-20 8-25 28-3 22 11 35l30 31q10 8 19 11v13q0 10-7.5 17.5T407 551q-7 0-13.5-4t-9.5-11l-4-8q-2-6-8-8t-11 0q-5 2-7.5 8t-.5 11l4 8q6 16 19.5 25t30.5 9q24 0 40-18 16 18 41 18 17 0 30.5-9t19.5-25l4-8q2-5-.5-11t-8-8q-5.5-2-11 0t-7.5 8l-4 8q-3 7-9.5 11t-13.5 4q-11 0-18.5-7.5T462 526v-13q9-3 19-11l30-31q14-14 10-34.5T497 408zm-6 42l-31 31q-5 5-12.5 5t-12.5-5l-31-31q-2-2-2-7v-1q0-4 6-6l17-6q9-4 21.5-4t23.5 4l17 6q6 3 6 6v1q0 5-2 7zm-309 19q1 5 7 8t11 1q19-7 40-5 16 1 30 6 12 4 12 5 4 2 7 2 8 0 13-8 3-5 1-11t-7-9q-15-8-34-12-37-8-71 4-6 2-8.5 7.5T182 469zm9 64q-4 4-4 10t4 10.5q4 4.5 10.5 4.5t10.5-4q12-12 29-17 13-3 27-3l12 1q6 1 11-2.5t6.5-9q1.5-5.5-2-11T286 506h-2q-20-3-37 0-34 5-56 27zm522-64q2-6-.5-11.5T704 450q-34-12-71-4-19 4-34 12-5 3-7 9t1.5 12q3.5 6 12.5 6 5 0 6-1t13-5q14-5 30-6 21-2 40 5 5 2 11-1t7-8zm-104 37q-6 1-9.5 6.5t-2 11q1.5 5.5 6.5 9t11 2.5l12-1q14 0 27 3 17 5 29 17 4 4 10.5 4t10.5-4.5q4-4.5 4-10.5t-4-10q-22-22-57-27-18-3-37 0h-1zM318 295h-55q-17 0-32.5 8.5T205 326l-5 7q-4 5-2.5 11t6.5 10q2 2 9 2t11-6l5-8q6-8 15-12.5t19-4.5h5q-7 14-7 28 0 23 17 40t40 17q23 0 40.5-17t17.5-40q0-23-17-40.5T318 295zm0 86q-11 0-19.5-8.5T290 353q0-11 8.5-19.5T318 325q11 0 19.5 8t8.5 20q0 12-8 20t-20 8zm371-55q-10-14-25.5-22.5T631 295h-55q-24 1-40.5 17.5t-16.5 40q0 23.5 17 40.5t41 17q24 0 40.5-17t16.5-40q0-14-7-28h4q11 0 20 4.5t14 12.5l6 8q3 6 12 6 5 0 8-2 5-4 6-10t-2-11l-6-7zm-112 55q-12 0-20.5-8.5T548 353q0-11 8.5-19.5T577 325q12 0 20 8t8 20q0 12-8.5 20t-19.5 8zm344 427q-4-34-21.5-63T855 696q-25-19-54-27.5t-59-6.5l-30-48q43-25 66-71 26-53 16-108l-27-162q-7-41-32-75 24-33 20-69l-2-19q-1-16-17-25.5T704 82l-28 12q-27 11-40 34-1 0-2-1l-22-5-9-3q25-41 71-62l58-24q18-7 33 2t17 27l5 44q5 49-18 91-3 5-1.5 10.5t6.5 8.5q5 3 11 1.5t9-6.5q28-49 22-108l-5-44q-2-15-10-28t-21-21q-13-8-29-9t-30 5l-58 24q-54 23-85 74l-5 8q-125-26-251 0l-5-8q-31-51-85-74L174 6q-14-6-29.5-5T115 10Q88 27 83 59l-4 44q-4 42 10 81t44 68q-4 14-5 21l-4 26q-1 6 2.5 10.5t9.5 6q6 1.5 10.5-2t6.5-9.5l4-26q8-44 38.5-77.5T269 156l2-1 17 34q4 9 13 14.5t19 5.5l9-1q13-4 20.5-14t7.5-23v-35q9-2 28-4h3l23 87q3 13 13 20.5t23 7.5q13 0 23-7.5t13-20.5l23-87q22 2 32 4v35q0 13 7.5 23t20.5 14l9 1q10 0 19-5.5t13-14.5l17-34 2 1q43 11 73.5 44.5T738 278l28 162q8 47-13.5 89.5T688 594l-125 63q-54 28-115.5 28T332 657l-126-63q-43-22-64-64.5T129 440l13-76q1-6-2.5-11t-9.5-6q-6-1-10.5 2.5T114 359l-14 76q-9 55 16 108 22 45 67 71l-27 43q-37 58-52.5 125.5T95 919l3 34q2 20 17.5 34t36.5 14h321q6 0 10.5-4.5T488 986q0-6-4.5-10t-10.5-4H290v-42q0-24 10-52l4-8q2-5-.5-11t-7.5-8q-5-2-11 0t-8 8l-4 8q-12 30-12 63v42H152q-10 0-17-6.5t-8-15.5l-3-34q-6-64 8.5-126.5T181 673l28-45 109 55q61 31 130 31t128-31l110-55 24 39q-55 13-93 62-20 27-28.5 59t-4.5 66q8 56 46 94l-6 7q-15 17-38 17h-52q-6 0-10.5 4t-4.5 10q0 6 4.5 10.5t10.5 4.5h52q17 0 33-7t27-20l5-6q45 33 101 33 16 0 24-2 52-7 91.5-43t51.5-88q6-31 2-60zM179 175q-13-21-10-43l2-19q0-2 2-3l1-1 3-1q1 0 2 1l29 12q12 4 23 17-28 13-52 37zm104-53l-22 5q-1 1-2 1-13-23-40-34l-28-12q-16-7-31.5 2T142 110l-2 19q-4 36 20 69-7 8-15 24-21-23-31-53.5t-6-62.5l5-43q2-19 17-28 10-5 18-5t14 3l58 24q47 20 71 62h1l-9 3zm39 57q-2 1-4.5 0t-3.5-4l-14-28 27-6 1 31q0 3-2 5t-4 2zm133 33q-2 6-8 6-7 0-8-6l-21-82q29-2 58 0l-21 82zm126-37q-1 3-4 4t-4.5.5q-1.5-.5-3.5-2.5t-2-5v-31l28 6-14 28zm135 0q-23-24-52-37 11-13 23-17l29-12q1-1 4 0l2 1q2 1 2 3l2 19q2 24-10 43zm121 544q5 3 13 11-5 48-28 93-21-10-43-27-3-2-10-7l-4-4q24-41 33-87 21 7 39 21zm-104-27q7-1 20-1h16q-6 37-26 74-27-30-44-64 17-6 34-9zM623 885q-7-14-10-35-3-27 3-53 18 35 46 64-19 15-39 24zm45 58q-19-15-31-32 20-10 46-29l6 5q8 8 13 11 24 16 36 23-26 20-57 31-8-4-13-9zm104 27q-26 4-53-2 24-13 48-32 29 13 55 17-23 14-50 17zm82-41q-34-3-69-17t-65.5-37.5Q689 851 666 821.5T631 760q4-6 10-14 12-16 32-31 24 49 63 83 0 1 1 1l1 1q5 5 15 13l8 7q29 22 59 35 1 1 3 1 28 13 63 20-10 30-32 53zm38-81q-25-5-44-13 19-35 27-73 12 20 17 50 3 18 0 36z"/></svg>