<svg viewBox="0 0 1244 1083.753" xmlns="http://www.w3.org/2000/svg"><path d="M52 699q7 0 11-4t4-11V36q0-2 2-4t4-2h536v148q0 14 10.5 24.5T644 213h147v90q0 6 4 10t10 4q6 0 10.5-4t4.5-10V198q0-5-4-11L634 5q-4-4-11-4H73Q58 1 48 11.5T38 36v648q0 7 4 11t10 4zm586-521V51l132 132H644q-2 0-4-1.5t-2-3.5zm167 678q-6 0-10 4t-4 10v101q0 2-2 4t-4 2H73q-2 0-4-2t-2-4V747q0-6-4-10.5T52.5 732q-6.5 0-10.5 4.5T38 747v224q0 14 10 24.5t25 10.5h712q14 0 24.5-10.5T820 971V870q0-6-4.5-10t-10.5-4zm162-327q0-50-24.5-92T876 370.5Q834 346 784 346t-92 24.5Q650 395 625.5 437T601 529q0 47 22 87t59 65v134q0 7 3.5 13t8.5 10q13 8 26 2l64-27 63 27q6 3 11 3 8 0 14.5-4.5t10-10.5q3.5-6 3.5-13V681q37-25 59-65t22-87zM856 812l-61-26q-11-5-22 0l-62 26V697q35 15 73.5 15t71.5-15v115zm-72-129q-42 0-77.5-20.5t-56-56Q630 571 630 529t20.5-77.5q20.5-35.5 56-56T784 375q42 0 77.5 20.5t56 56Q938 487 938 529t-20.5 77.5q-20.5 35.5-56 56T784 683zm110-211q-2-6-7.5-7.5t-11 1Q870 468 868 474t0 11q11 19 11 44 0 40-28 67.5T784 624q-39 0-67.5-28T688 528.5q0-39.5 28-67t68-27.5q25 0 47 12 5 3 11 1.5t9-7q3-5.5 1-11t-7-8.5q-28-17-61.5-17t-62 17Q693 438 676 466.5T659 529q0 34 17 62.5t45.5 45.5q28.5 17 62.5 17t62.5-17q28.5-17 45.5-45.5t17-62.5q0-32-15-57zm-54 26l-27-4-12-24q-2-5-7-8t-10-3q-5 0-10 3t-7 8l-12 24-27 4q-11 1-15 12.5t4 19.5l20 20-5 27q-2 12 8 18 4 4 11 4 4 0 8-2l25-13 24 13q10 4 20-2t8-18l-5-27 20-20q9-9 5-19.5T840 498zm-33 35q-8 6-6 16l2 12-10-6q-6-2-9-2t-9 2l-10 6 2-12q2-10-6-16l-8-9 11-1q10-1 15-11l5-10 5 10q5 9 14 11l12 1-8 9zM654 319v-50q0-6-4.5-10.5T639 254q-6 0-10 4.5t-4 10.5v35H303q-6 0-10.5 4t-4.5 10.5q0 6.5 4.5 10.5t10.5 4h336q6 0 10.5-4t4.5-10zM168 172h356q6 0 10-4.5t4-10.5q0-6-4-10t-10-4H168q-14 0-24.5 10T133 177v121q0 15 10.5 25t24.5 10h72q6 0 10.5-4t4.5-10q0-6-4.5-10.5T240 304h-72q-2 0-4-2t-2-4V177q0-2 2-3.5t4-1.5zm-20 286h385q6 0 10-4.5t4-10.5q0-6-4-10.5t-10-4.5H148q-6 0-10.5 4.5T133 443q0 6 4.5 10.5T148 458zm0 97h385q6 0 10-4t4-10q0-6-4-10.5t-10-4.5H148q-6 0-10.5 4.5T133 541q0 6 4.5 10t10.5 4zm421 69H148q-6 0-10.5 4.5T133 639q0 6 4.5 10t10.5 4h421q7 0 11-4t4-10q0-6-4-10.5t-11-4.5zm46 98H148q-6 0-10.5 4t-4.5 10q0 6 4.5 10.5T148 751h467q6 0 10.5-4t4.5-10.5q0-6.5-4.5-10.5t-10.5-4zM133 834q0 6 4.5 10.5T148 849h491q6 0 10.5-4.5T654 834q0-6-4.5-10t-10.5-4H148q-6 0-10.5 4t-4.5 10z"/></svg>