<svg viewBox="0 0 1244 1083.753" xmlns="http://www.w3.org/2000/svg"><path d="M1000 861q0-7-4-11l-27-21q-15-11-23-27.5t-8-34.5q0-7-4.5-11.5T922 751h-5q-42-101-56-219 19-1 32-14.5t13-32.5q0-19-13-33t-35-14q15-15 24-35t9-43q0-30-15-55t-40-39.5Q811 251 781 251t-55 14.5Q701 280 686.5 305T672 360q0 23 9 43t24 35q-22 0-35.5 14T656 485q0 19 13 32.5t32 14.5q-11 102-46 197-24-55-38-112-8-34-18-97l-3-22q19-8 26-26.5t-1-36.5q-8-18-27-25v-34h15q7 0 11.5-4.5T625 360q0-7-4.5-11t-11.5-4h-7l33-75q7-15 3-30.5T622 214q-12-10-29-10h-46v-47h16q19 0 32.5-14t13.5-33q0-19-13.5-33T563 63h-16V48q0-20-13.5-33.5T500.5 1Q481 1 467 14.5T453 48v15h-15q-19 0-33 14t-14 33q0 19 14 33t33 14h15v47h-45q-17 0-29.5 10T362 239.5q-4 15.5 3 30.5l33 75h-7q-7 0-11.5 4.5T375 360q0 6 4.5 11t11.5 5h15v34q-19 7-27 25t-1 36.5q7 18.5 26 26.5l-4 24q-10 67-18 100-12 53-36 107-36-91-47-197 19-1 32-14.5t13-32.5q0-19-13.5-33T295 438q16-14 24.5-34.5T328 360q0-30-14.5-55T274 265.5Q249 251 219 251t-55 14.5q-25 14.5-40 40T109 360q0 23 9 43t24 35q-21 0-34.5 14T94 485q0 19 13 32.5t32 14.5q-14 118-56 219h-5q-6 0-10.5 4.5T63 767q0 18-9 35-6 12-16 22-7 6-25 19l-7 5q-3 3-4.5 5.5T0 859v33q0 19 14 33t33 14h187v15q0 19 14 33t33 14h438q20 0 33.5-14t13.5-33v-15h187q20 0 33.5-14t13.5-33v-31zm-61-16H712q-9-23-9-47 0-7-4.5-11.5T688 782h220q5 37 31 63zm-652 62q35-39 41-94h345q5 54 40 94H287zm416-547q0-32 23-55t55-23q32 0 55 23t23 55q0 32-23 55t-55 23q-32 0-55-23t-23-55zm-15 125q0-6 4.5-10.5T703 470h156q7 0 11.5 4.5T875 485q0 6-4.5 11t-11.5 5H703q-6 0-10.5-4.5T688 485zm45 47h97q12 113 53 219H680q41-106 53-219zM438 376h125v31H438v-31zm31-250h-31q-7 0-11.5-4.5T422 110q0-7 4.5-11t11.5-4h31q6 0 10.5-4.5T484 79V48q0-7 4.5-11.5T500 32q7 0 11.5 4.5T516 48v31q0 7 4.5 11.5T531 95h32q6 0 10.5 4.5T578 110q0 6-4.5 11t-10.5 5h-32q-6 0-10.5 4.5T516 142v62h-32v-62q0-7-4.5-11.5T469 126zm-61 109h185q8 0 13 7.5t1 14.5l-39 88H432l-39-88q-3-8 1.5-15t13.5-7zm14 203h156q7 0 11.5 4.5T594 454q0 7-4.5 11.5T578 470H422q-7 0-11.5-4.5T406 454q0-7 4.5-11.5T422 438zm13 63h130l3 19q12 79 23 122 18 71 55 140H355l4-8q34-68 52-138 11-42 22-119l2-16zM141 360q0-32 23-55t55-23q32 0 55 23t23 55q0 32-23 55t-55 23q-32 0-55-23t-23-55zm-16 125q0-6 4.5-10.5T141 470h156q7 0 11.5 4.5T313 485q0 6-4.5 11t-11.5 5H141q-7 0-11.5-4.5T125 485zm45 47h97q14 120 54 219H117q40-101 53-219zM93 782h220q-7 0-11.5 4.5T297 798q0 23-8 47H61q26-26 32-63zM31 892v-16h241q-7 10-22 25l-6 6H47q-7 0-11.5-4.5T31 892zm703 62q0 7-4.5 11.5T719 970H281q-6 0-10.5-4.5T266 954v-15h468v15zm235-62q0 6-4.5 10.5T953 907H757l-10-10q-13-12-19-21h241v16z"/></svg>