<svg viewBox="0 0 1244 1083.753" xmlns="http://www.w3.org/2000/svg"><path d="M317 694q7 0 11.5-4.5T333 678v-60h67v66q0 7 4.5 12t11.5 5q7 0 12-5t5-12V518q0-7-5-12t-12-5q-7 0-11.5 5t-4.5 12v66h-67v-73q0-7-4.5-11.5T317 495q-7 0-12 4.5t-5 11.5v167q0 7 5 11.5t12 4.5zm216-193h-50q-7 0-11.5 5t-4.5 12v166q0 7 4.5 12t11.5 5h50q28 0 47.5-19.5T600 634v-66q0-28-19.5-47.5T533 501zm34 133q0 14-10 24t-24 10h-33V534h33q14 0 24 10t10 24v66zm83 67h100q7 0 12-5t5-12q0-7-5-11.5t-12-4.5h-83V518q0-7-5-12t-12-5q-7 0-12 5t-5 12v166q0 7 5 12t12 5zm-533 0q-21 0-35.5 14.5T67 751q0 7 4.5 12t11.5 5q7 0 12-5t5-12q0-7 4.5-12t11.5-5q7 0 12-4.5t5-11.5q0-7-4.5-12t-11.5-5zm800-400q-17 0-33 7t-28 19q-72-29-149-35-65-99-149-196-9-11-24-11t-26 11Q401 218 321 353q-88 37-152.5 87T72 547q-32 57-26 111-27 21-38.5 53t-4 65q7.5 33 31 57.5T91 865q33 7 65-4.5t53-38.5q60 21 134 26 40 34 89 51.5T533 917q89 0 163-48.5T806 739q100-59 148-133t32-144q-3-13-7-23 16-18 20-42.5t-6-46.5q-10-22-30.5-35.5T917 301zm0 33q20 0 35 15t15 35q0 20-15 35t-35.5 15q-20.5 0-35-14.5T867 384q0-21 14.5-35.5T917 334zM533 118q44 49 89 111 74 99 119 186 59 116 59 197 0 53-20 104-100 56-211 80-105 24-211 20h-1q-43-39-66.5-92.5T267 612q0-115 117-295 64-101 149-199zM117 834q-35 0-59.5-24.5T33 751q0-34 24.5-58.5T117 668q35 0 59 24t24 58.5q0 34.5-24 59T117 834zm0-200q-16 0-39 7 1-62 59.5-126.5T295 402q-62 122-62 210 0 55 19 106t54 93q-40-6-81-18 11-27 7.5-55.5T213 685q-16-24-41.5-37.5T117 634zm416 250q-71 0-129-34 88-2 172-21 94-22 176-61-38 55-95.5 85.5T533 884zm291-196q9-38 9-76 0-62-30-141-26-68-73-143 58 8 109 28-5 11-5 28-1 21 9.5 40t28.5 30.5q18 11.5 38.5 13T951 460l3 10q12 52-22.5 110T824 688zM467 368v66q0 14 9.5 24t23.5 10h67q14 0 23.5-10t9.5-24v-66q9 0 17-5t12.5-13.5q4.5-8.5 3.5-18t-6-17.5l-67-88q-10-13-26.5-13T506 226l-66 88q-6 8-7 17.5t4 17.5q10 19 30 19zm66-123l67 89h-17q-7 0-11.5 5t-4.5 12v83h-67v-83q0-7-5-12t-12-5h-16l66-89z"/></svg>