<svg viewBox="0 0 1244 1083.753" xmlns="http://www.w3.org/2000/svg"><path d="M580 300l13-32H472q-15 3-20 20l32 12h96zm321 169q0-107-53-199l20-19q14-14 14-34t-14-34l-80-83q-14-14-34-14.5T720 99l-22 21q-33-18-63-29V59q0-24-17-41T577 1H423q-24 0-41 17t-17 41v32q-30 11-63 29l-22-21q-14-14-34-13.5T212 100l-80 83q-14 14-13.5 34t14.5 34l19 19q-53 92-53 199 0 96 43 181 41 82 115 138.5T422 863q-13 23-13 47 0 37 27 64t64.5 27q37.5 0 64-27t26.5-64q0-27-13-47 91-18 165-74.5T858 650q43-85 43-181zM745 125q4-4 8.5-4t8.5 4l81 83q3 4 3 9t-3 8l-15 14q-43-60-99-99l16-15zM401 59q0-9 6.5-15.5T423 37h154q9 0 15.5 6.5T599 59v21q-48-12-99-12t-99 12V59zM157 208l81-83q4-4 8.5-4t8.5 4l16 15q-56 39-99 99l-14-14q-4-3-4-8t3-9zm343 757q-22 0-38.5-16.5T445 910q0-26 18-41 24 2 37 2t37-2q18 15 18 41 0 23-16 39t-39 16zm0-130q-99 0-184-50-83-49-131-131-50-86-50-185t50-184q48-83 131-131 85-50 184-50t184 50q83 48 131 131 50 85 50 184t-50 185q-48 82-131 131-85 50-184 50zm88-395v85l13 32q16-5 20-20V424l-8-8-25 24zm13-172l-13 32v84l25 24 8-8V288q-5-17-20-20zM500 159q-84 0-157 42-70 42-111 112-43 72-43 156t43 157q41 70 111 111 73 43 157 43t157-42q70-42 111-112 43-72 43-157t-43-157q-41-70-111-111-73-42-157-42zm0 585q-68 0-127-31t-97-84h448q-38 53-97 84t-127 31zM254 593q-29-60-29-124 0-74 37-137.5t99-99.5q64-38 139-38t139 38q62 36 99 99.5T775 469q0 68-29 124H254zm125-153v85l13 32q16-5 20-20V424l-8-8-25 24zm105 85l-32 12q3 15 20 20h121l-13-32h-96zm-92-257l-13 32v84l25 24 8-8V288q-5-17-20-20z"/></svg>