<svg viewBox="0 0 1244 1083.753" xmlns="http://www.w3.org/2000/svg"><path d="M123 222h32q11 0 19-8t8-19v-32q0-11-8-18.5t-19.5-7.5q-11.5 0-18.5 7l-32 32q-6 6-7.5 14t2 15.5q3.5 7.5 10 12T123 222zm30-52v23h-24l24-23zm0 0zm620 330q0-92-46-170-45-77-122-122-79-46-171-46-52 0-101 15.5T241 223q-5 3-6.5 9t2.5 11q4 5 9.5 6t10.5-2q39-28 84-42t93-14q84 0 156 42 70 41 112 111 42 72 42 156t-42 156q-41 71-112 112-72 42-156 42t-156-42q-70-41-111-112-42-72-42-156 0-62 24-119t68-101q5-5 5-11t-4.5-10q-4.5-4-10.5-4t-10 4q-49 48-75 110T96 500q0 92 46 171 45 77 121 122 79 46 171 46t171-46q77-45 122-122 46-79 46-171zm0 0zm-28-278q8 0 15-4.5t10-12.5q3-8 1.5-15.5T764 176l-32-32q-7-7-18-7t-19 7.5q-8 7.5-8 18.5v32q0 11 7.5 19t18.5 8h32zm-29-52l23 23h-23v-23zm0 0zM186 419v163q0 26 19 45t46 19h367q27 0 46-19t19-45V419q0-27-19-46t-46-19H251q-27 0-46 19t-19 46zm29 0q0-14 10.5-24.5T251 384h367q14 0 24.5 10.5T653 419v163q0 14-10.5 24.5T618 617H251q-15 0-25.5-10.5T215 582V419zm0 0zm92 101q6 0 10.5-4t4.5-10v-23q0-6-4.5-10.5T307 468q-6 0-10.5 4.5T292 483v23q0 6 4.5 10t10.5 4zm0 0zm254 0q7 0 11-4t4-10v-23q0-6-4-10.5t-10.5-4.5q-6.5 0-10.5 4.5t-4 10.5v23q0 6 4 10t10 4zm0 0zm-127 13q26 0 43-19 4-4 3.5-10.5T475 493q-5-4-10.5-3.5T455 495q-8 8-20.5 8t-20.5-8q-4-5-10-5.5t-11 3.5q-5 4-5 10.5t4 10.5q7 9 18.5 14t23.5 5zm0 0zm-31 374q-6 0-10.5 4.5T388 922q0 6 4.5 10t10.5 4h63q6 0 10-4t4-10q0-6-4-10.5t-10-4.5h-63zm0 0zM847 97q-23-23-35-33-22-19-49-19-15 0-29.5 6T708 68q-18-8-38.5-6T632 76l-35 25q-30-12-45-16l-2-20q-4-27-25-45.5T476 1h-83q-28 0-49 18.5T319 65l-3 20q-15 4-45 16l-35-25q-16-12-36.5-14T160 68q-11-11-25-17t-29-6q-28 0-49 19-13 10-36 33.5T0 156q3 27 20 45-8 16-8 33.5t7 33.5l23 52Q3 404 3 500q0 74 24 143t70 127q43 54 101 92t124 55v24q0 25 17.5 42.5T382 1001h105q25 0 42.5-17.5T547 941v-24q53-14 101.5-42t88.5-67q5-5 5-11t-4.5-10.5Q733 782 727 782t-10 5q-83 80-189 105-5 1-8 5t-3 9v35q0 13-8.5 22t-21.5 9H382q-13 0-22-9t-9-22v-35q0-5-3-9t-8-5q-65-16-122-52.5T120 751q-43-54-65.5-117.5T32 500q0-93 40-174 2-6 0-12l-26-58q-6-12-4.5-25t9.5-24q48-65 114-108 12-8 27-8t27 9l41 29q7 5 15 2 32-14 58-20 101-26 202 0h1q25 7 57 20 8 3 15-2l41-29q12-9 27-9t28 8q65 43 114 108 8 11 9 24t-4 25l-26 58q-3 6 0 12 40 85 40 174 0 67-21 129.5T754 745q-4 5-3.5 11t5.5 10q5 4 11 3t10-6q44-57 66.5-124T866 500q0-97-40-180l24-52q7-16 6.5-33.5T848 201q18-18 20-45 3-33-21-59zM42 118q22-22 34.5-32.5t29-10.5q16.5 0 28.5 9l-1 2q-49 35-94 88l-1 2q-7-9-9-23-2-20 13-35zm306-49q2-17 15-28t30-11h83q16 0 29 11t15 28l2 9q-43-9-88-9t-87 9l1-9zm415 6q16 0 30 11 23 20 33 32 15 15 13 35-2 17-8 23-7-6-17-20-28-30-51-49l-18-15-11-8q12-9 29-9zm0 0z"/></svg>