<svg viewBox="0 0 1244 1083.753" xmlns="http://www.w3.org/2000/svg"><path d="M940 631H828q-8 0-13.5 5.5T809 650q0 8 5.5 14t13.5 6h112q9 0 15 6t6 15v241q0 8-6 14t-15 6H728q-16 0-29-13l-71-85q-7-7-15-7t-15 7l-71 85q-13 13-29 13H286q-9 0-15-6t-6-14V691q0-9 6-15t15-6h370q8 0 14-6t6-14q0-8-6-13.5t-14-5.5H498l27-267h25q8 0 14-6t6-14v-46q0-25-18-42.5T509 238H299v-67q0-19 10-34t27-22l157-67q8-3 11-10.5t-.5-15Q500 15 492.5 12T478 12L321 79q-28 12-44.5 37T260 171v67H61q-25 0-43 17.5T0 298v46q0 8 6 14t14 6h17l52 521q1 7 6.5 12.5T109 903h117v29q0 24 17.5 41.5T286 991h212q17 0 32.5-7t26.5-20l56-67 57 67q10 13 25.5 20t32.5 7h212q25 0 42.5-17.5T1000 932V691q0-25-17.5-42.5T940 631zm-714 91H112L92 524h378l-11 107H286q-25 0-42.5 17.5T226 691v31zM39 298q0-9 6.5-15t15.5-6h448q9 0 15.5 6t6.5 15v27H39v-27zm447 66l-12 121H88L76 364h410zM126 864l-10-103h110v103H126zm207-142q-8 0-13.5 6t-5.5 14v141q0 8 5.5 14t13.5 6h149q8 0 15-7l68-81q5-7 5-13v-60q0-8-6-14t-14-6H333zm198 73l-58 69H353V761h178v34zm123-53v60q0 6 5 13l68 81q7 7 15 7h149q8 0 13.5-6t5.5-14V742q0-8-5.5-14t-13.5-6H674q-8 0-14 6t-6 14zm39 19h178v103H751l-58-69v-34zm33-103q3 7 10.5 10t15 0q7.5-3 10.5-10.5t0-15q-3-7.5-10.5-10.5t-14.5 0q-7 3-10.5 10.5T726 658z"/></svg>