<svg viewBox="0 0 1244 1083.753" xmlns="http://www.w3.org/2000/svg"><path d="M625 126q-96 0-181 46-81 45-132 123-53 79-61 175H47q-19 0-33 13.5T0 516v313q0 19 14 33t33 14h437q20 0 35-15 88 26 176 8 85-16 154.5-68T959 673q41-80 41-172 0-102-51-189-50-85-135-135-87-51-189-51zm84 643q-41 13-84 13t-84-13h-1q-6-2-9-5v-31q48 19 100 18t98-23q5 13-1 25t-19 16zM438 595h62v62h-62v-62zm62-79v47h-62v-62h46q7 0 11.5 4.5T500 516zm-62 172h62v63h-62v-63zm97 12l14-27q15-31 45.5-42t61 0q30.5 11 46.5 42l13 27q-43 19-90 19t-90-19zM409 470q3-31 17-59l27 13q30 16 42 47-5-1-28-1h-58zm-32 0h-31q3-31 10-53 5-13 17-19t25-1q-17 35-21 73zm29 31v344H125V501h281zM94 657H31v-62h63v62zm-63 31h63v63H31v-63zm16-187h47v62H31v-47q0-6 4.5-10.5T47 501zm0 344q-7 0-11.5-4.5T31 829v-47h63v63H47zm437 0h-46v-63h62v47q0 7-4.5 11.5T484 845zm47-13v-3q0-30 1-30 44 14 92 14t94-14q28-8 39.5-34.5T756 712l-27-53q-19-38-56.5-54.5t-77-6.5Q556 608 531 642V515q0-5-1-8v-1q3-8-1-27-4-23-17-43-17-26-45-40l-53-26q-26-13-52.5-1.5T326 408q-9 28-12 62h-31q7-87 56-160 46-71 121-111 77-42 165-42 93 0 174 47 77 46 123 123 47 81 47 174 0 83-38 157-36 69-99 117t-140 63q-81 17-161-6zm225-542q13-26 1.5-52.5T718 202q-45-14-93-14t-93 14q-28 9-39.5 35.5T494 290l27 53q21 42 63 57 41 15 82 0 42-15 63-57l27-53zm-215-58q41-12 84-12.5t84 12.5q13 5 18.5 16.5T729 273q-49-23-103.5-23T521 273q-4-13 1.5-24.5T541 232zm161 97q-16 31-46.5 42t-61 0Q564 360 549 329l-14-28q43-19 90-19t90 19l-13 28zm221 79q-8-28-34.5-39.5T836 370l-53 26q-42 21-57 64-15 41 0 81 15 43 57 64l53 26q25 13 52 2t35-39q14-45 14.5-93T923 408zm-126 16l27-13q20 43 20 90t-20 90l-27-14q-31-15-42-45.5t0-61q11-30.5 42-46.5zm97 161q-4 13-16.5 19t-25.5 1q23-50 23-104.5T852 397q13-5 25 1t17 19q12 40 12.5 83.5T894 585zM625 454q-19 0-33 13.5t-14 33q0 19.5 14 33.5t33.5 14q19.5 0 33-14t13.5-33.5q0-19.5-13.5-33T625 454zm0 62q-7 0-11.5-4.5T609 501q0-6 4.5-11t11.5-5q7 0 11.5 4.5T641 501q0 7-4.5 11t-11.5 4zM227 750l94-62q7-5 7-13.5t-7-12.5l-94-63q-7-5-15.5-.5T203 612v125q0 10 8 14t16-1zm7-109l50 34-50 33v-67z"/></svg>