<svg viewBox="0 0 1244 1083.753" xmlns="http://www.w3.org/2000/svg"><path d="M646 894H54q-10 0-17.5-7T29 870V439q0-6-4-10t-10-4q-6 0-10.5 4T0 439v431q0 22 16 37.5T54 923h592q6 0 10.5-4t4.5-10q0-6-4.5-10.5T646 894zM15 384q6 0 10-4t4-10V244h789v20q0 6 4.5 10.5T833 279q6 0 10-4.5t4-10.5V124q0-22-15.5-38T794 70H680V55q0-23-15.5-38.5T626.5 1Q604 1 588 16.5T572 55v15h-94V55q0-23-15.5-38.5T424 1q-23 0-39 16t-16 38v15h-93V55q0-22-16-38T221.5 1Q199 1 183 16.5T167 55v15H54q-22 0-38 15.5T0 124v246q0 6 4.5 10t10.5 4zM601 55q0-10 7.5-17.5T626 30q10 0 17.5 7.5T651 55v60q0 10-7.5 17.5T626 140q-10 0-17.5-7.5T601 115V55zm-203 0q0-10 8-17.5t18-7.5q10 0 17.5 7.5T449 55v60q0 10-7.5 17.5T424 140q-10 0-18-7.5t-8-17.5V55zm-202 0q0-10 7.5-17.5T221 30q10 0 18 7.5t8 17.5v60q0 10-8 17.5t-18 7.5q-10 0-17.5-7.5T196 115V55zM29 124q0-10 7.5-17t17.5-7h113v15q0 22 16 38t38.5 16q22.5 0 38.5-16t16-38v-15h93v15q0 22 16 38t39 16q23 0 38.5-16t15.5-38v-15h94v15q0 22 16 38t38.5 16q22.5 0 38-16t15.5-38v-15h114q10 0 17 7t7 17v91H29v-91zm187 238q0-14-10-24t-24-10h-42q-14 0-24 10t-10 24v42q0 14 10 24t24 10h42q14 0 24-10t10-24v-42zm-29 42q0 5-5 5h-42q-5 0-5-5v-42q0-5 5-5h42q5 0 5 5v42zm204-42q0-14-10-24t-24-10h-42q-14 0-24 10t-10 24v42q0 14 10 24t24 10h42q14 0 24-10t10-24v-42zm-29 42q0 5-5 5h-42q-5 0-5-5v-42q0-5 5-5h42q5 0 5 5v42zm204-42q0-14-10-24t-24-10h-42q-14 0-24 10t-10 24v42q0 14 10 24t24 10h42q14 0 24-10t10-24v-42zm-29 42q0 5-5 5h-42q-2 0-3.5-1.5T485 404v-42q0-2 1.5-3.5t3.5-1.5h42q5 0 5 5v42zm205-42q0-14-10.5-24T707 328h-41q-14 0-24.5 10T631 362v42q0 14 10.5 24t24.5 10h41q14 0 24.5-10t10.5-24v-42zm-30 42q0 5-5 5h-41q-5 0-5-5v-42q0-5 5-5h41q5 0 5 5v42zM216 528q0-14-10-24t-24-10h-42q-14 0-24 10t-10 24v42q0 14 10 24t24 10h42q14 0 24-10t10-24v-42zm-29 42q0 5-5 5h-42q-5 0-5-5v-42q0-4 5-4h42q5 0 5 4v42zm204-42q0-14-10-24t-24-10h-42q-14 0-24 10t-10 24v42q0 14 10 24t24 10h42q14 0 24-10t10-24v-42zm-29 42q0 5-5 5h-42q-5 0-5-5v-42q0-4 5-4h42q5 0 5 4v42zm204-42q0-14-10-24t-24-10h-42q-14 0-24 10t-10 24v42q0 14 10 24t24 10h42q14 0 24-10t10-24v-42zm-29 42q0 5-5 5h-42q-2 0-3.5-1.5T485 570v-42q0-1 1.5-2.5t3.5-1.5h42q5 0 5 4v42zm170-76h-41q-14 0-24.5 10T631 528v42q0 14 10.5 24t24.5 10h41q14 0 24.5-10t10.5-24v-42q0-14-10.5-24T707 494zm5 76q0 5-5 5h-41q-5 0-5-5v-42q0-4 5-4h41q5 0 5 4v42zm-530 91h-42q-14 0-24 10t-10 24v42q0 14 10 24t24 10h42q14 0 24-10t10-24v-42q0-14-10-24t-24-10zm5 76q0 2-1.5 3.5T182 742h-42q-2 0-3.5-1.5T135 737v-42q0-5 5-5h42q5 0 5 5v42zm170-76h-42q-14 0-24 10t-10 24v42q0 14 10 24t24 10h42q14 0 24-10t10-24v-42q0-14-10-24t-24-10zm5 76q0 2-1.5 3.5T357 742h-42q-2 0-3.5-1.5T310 737v-42q0-5 5-5h42q5 0 5 5v42zm170-76h-42q-14 0-24 10t-10 24v42q0 14 10 24t24 10h42q14 0 24-10t10-24v-42q0-14-10-24t-24-10zm5 76q0 2-1.5 3.5T532 742h-42q-1 0-3-2t-2-3v-42q0-2 1.5-3.5t3.5-1.5h42q5 0 5 5v42zm377-62h-5v-19q0-14-9.5-24T876 622h-1V470q0-6-4.5-10.5T860 455q-6 0-10.5 4.5T845 470v152h-25V356q0-5 4-8.5t9-3.5q5 0 8.5 3.5t3.5 8.5v57q0 6 4.5 10.5T860 428q6 0 10.5-4.5T875 413v-57q0-17-12.5-29.5T833 314q-17 0-29.5 12.5T791 356v266h-2q-14 0-23.5 10t-9.5 24v19h-4q-36 0-61.5 25.5T665 761v23q0 14 10 24t24 10h4v40q0 6-2 19l-18 83q-3 16 7 28.5t27 12.5h232q16 0 26-12.5t7-28.5l-17-80q-3-12-3-22v-40h4q14 0 24-10t10-24v-23q0-35-25.5-60.5T914 675zm-129-19q0-4 4-4h87q4 0 4 4v19h-95v-19zm151 230l18 80-1 4q0 2-4 2h-25l-13-59q-1-6-6-9.5t-11-2q-6 1.5-9.5 7T883 919l11 53h-47v-56q0-6-4-10t-10-4q-6 0-10.5 4t-4.5 10v56h-47l12-53q1-5-2.5-10.5t-9-7q-5.5-1.5-11 2T754 913l-13 59h-24q-4 0-5-2t0-4l17-80q4-18 4-28v-40h200v40q0 14 3 28zm35-102q0 5-5 5H699q-4 0-4-5v-23q0-23 16.5-40t40.5-17h162q23 0 40 17t17 40v23zm-104-52h-69q-6 0-10.5 4t-4.5 10.5q0 6.5 4.5 10.5t10.5 4h69q6 0 10.5-4t4.5-10q0-6-4.5-10.5T867 732z"/></svg>