<svg viewBox="0 0 1244 1083.753" xmlns="http://www.w3.org/2000/svg"><path d="M300 675q0 23 16.5 39t39.5 16q23 0 39.5-16t16.5-39q0-23-16.5-39.5T356 619q-23 0-39.5 16.5T300 675zm82 0q0 11-7.5 18.5t-18 7.5q-10.5 0-18.5-8t-8-18.5q0-10.5 7.5-18T356 649q11 0 18.5 7.5T382 675zm0 0zM944 2q-15 0-28 7l-85 48q-23 14-41 34.5T763 137q-15 41-54 67-22 13-37.5 34T648 283q-1 2-25 150l-23 138-98-38q-56-22-118-22-53 0-100 16l-24-142h109q17 0 26.5-13.5T402 342q-6-27-28-45.5T324 277q-33-2-55-10-13-4-30-15l-2-1q-18-11-31-15-20-7-49-7-41 0-69 20t-28 49q-1 9 2 23 5 22 19 37 21 23 61 26l5 30h-34q-10-12-24-12H59q-13 0-21.5 10.5T31 436l10 59q2 11 10.5 17.5T70 519h30q8 0 15-4.5t11-12.5h36l15 84q-64 52-95 133l-24 62q-25 4-41.5 23T0 848v20q0 17 12 28.5T41 908h132q6 0 10-4t4-10.5q0-6.5-4-10.5t-10-4H41q-5 0-8.5-3t-3.5-8v-20q0-16 11.5-27.5T68 809h592q6 0 10.5-4t4.5-10q0-6-4.5-10.5T660 780H90l19-50q29-77 95-128 38-30 84.5-46t95.5-16q56 0 107 21l165 64 30 15q76 44 116 122l9 18h-92q-7 0-11 4.5t-4 10.5q0 6 4 10t11 4h116q16 0 27.5 11.5T874 848v20q0 4-3 7.5t-8 3.5H231q-6 0-10 4t-4 10.5q0 6.5 4 10.5t10 4h632q17 0 29-12t12-28v-20q0-25-17-44.5T845 781l-17-32q-40-81-118-129l49-303q4-9 14-16 57-37 88-99 2-4 6-14 5-12 8-17 5-9 13-13l85-48q20-11 26.5-34.5T995 31q-8-13-22-21t-29-8zM256 537q-28 12-52 29h-1l-31-181h58l26 152zM89 300v-1q0-17 20-29t48-12q24 0 39 5 10 4 25 13 20 13 36 19 27 9 66 11 18 1 32 13t18 29q1 3 0 5t-4 2H154q-36 0-52-17-13-14-13-38zM70 489l-10-58h29l10 58H70zm56-16l-5-30h31l5 30h-31zm631-197q-9 6-17.5 15.5T730 310l-48 295q-9-5-29-13l-25-10q44-269 48-290 14-41 49-64 40-25 61-69l44 40q-27 46-73 77zM972 67q-3 12-14 18l-84 48q-21 10-31 38l-45-40q17-31 47-48l85-48q10-6 21.5-3T969 45q6 10 3 22zm0 0z"/></svg>