<svg viewBox="0 0 1244 1083.753" xmlns="http://www.w3.org/2000/svg"><path d="M379 93q0 8-5.5 13.5T360 112q-8 0-14-5.5T340 93q0-8 6-14t14-6q8 0 13.5 6t5.5 14zm0 0zM187 362h342q6 0 10.5-4.5T544 347q0-6-4.5-10t-10.5-4H187q-6 0-10 4t-4 10q0 6 4 10.5t10 4.5zm0 0zm0 97h342q6 0 10.5-4.5T544 444q0-6-4.5-10.5T529 429H187q-6 0-10 4.5t-4 10.5q0 6 4 10.5t10 4.5zm0 0zm357 82q0-6-4.5-10.5T529 526H187q-6 0-10 4.5t-4 10.5q0 6 4 10.5t10 4.5h342q6 0 10.5-4.5T544 541zm0 0zm25 234v20q0 6 4.5 10t10.5 4q6 0 10.5-4t4.5-10v-20q0-6-4.5-10t-10.5-4q-6 0-10.5 4t-4.5 10zm0 0zm214 0v20q0 6 4 10t10.5 4q6.5 0 10.5-4t4-10v-20q0-6-4-10t-10.5-4q-6.5 0-10.5 4t-4 10zm0 0zm-77 9q-6 6-15.5 6t-15.5-6q-4-5-10-5.5t-10.5 4q-4.5 4.5-5 10.5t3.5 10q15 17 38 17t37-17q4-5 3.5-11t-4.5-10q-4-4-10.5-3.5T706 784zm0 0zm144 131q-4 4-4.5 10t3.5 10.5q4 4.5 10 5t11-3.5q33-30 48-70 11-30 11.5-64.5T919 734q-11-34-32-61-32-43-77-57 13-30 11-62.5T802 493q-3-7-12-7-40 0-75 24V209q0-38-27-65t-65-27h-81q-5-20-21-32.5T484 72h-54q-1-29-21.5-49.5T359 1q-29-1-50.5 20T287 72h-54q-21 0-37.5 12.5T174 117H93q-38 0-65 27T1 209v148q0 6 4.5 10.5T16 372q6 0 10-4.5t4-10.5V209q0-26 19-44.5T93 146h80v32h-40q-24 0-41 17t-17 42v604q0 24 17 41.5t41 17.5h347q2 2 3 4 30 44 84 70h1H93q-26 0-44.5-18.5T30 911V416q0-6-4-10.5T16 401q-6 0-10.5 4.5T1 416v495q0 38 27 65t65 27h530q15 0 30-5 13 2 38 2 51 0 92-14 12-4 34-14 5-2 7-8t-.5-11q-2.5-5-8.5-7.5t-11 .5q-13 6-30 12-73 23-147 5-43-11-76-33-37-26-54-62-18-37-15-80.5t25-80.5q19-32 46-50t56-18q14 0 30 6 10 3 29 13l2 1q10 5 21.5 4.5T713 658q21-11 35-15 19-5 38-3 23 4 43 17.5t35 33.5q17 23 26.5 52.5T900 803q-2 68-50 112zm-77-305q-16 0-29 4l45-81q5 19 3 39t-12 38q0 1-4 0h-3zm-10-91l-62 113q-6 2-9 2h-3q-3-22 2.5-42.5T711 554q21-26 52-35zm-77-310v329q-27 37-27 80v2l-17-6V237q0-25-17.5-42T583 178h-39v-32h79q26 0 44.5 18.5T686 209zM233 101h68q6 0 10.5-4.5T316 86V73q0-18 12.5-30.5t30-12q17.5.5 30 13T401 74v12q0 6 4 10.5t10 4.5h69q13 0 22 9t9 22v60q0 5-4 9t-9 4H215q-5 0-9-4t-4-9v-60q0-13 9-22t22-9zM104 841V237q0-13 8.5-21.5T133 207h42q4 13 15 20.5t25 7.5h287q13 0 23.5-8t15.5-20h42q12 0 21 8.5t9 21.5v373q-40-1-75 21-38 25-61 69-22 42-25 89-2 45 14 81H133q-12 0-20.5-8.5T104 841zm0 0z"/></svg>