<svg viewBox="0 0 1244 1083.753" xmlns="http://www.w3.org/2000/svg"><path d="M867 684h-35q-6-49-44-82.5T700 568h-17q-7 0-11.5 4.5T667 584q0 7 4.5 12t11.5 5h17q37 0 64.5 23.5T798 684h-32q-20 0-35 15t-15 35v17q0 16 9.5 29t24.5 18v136q0 28 19.5 47.5t47 19.5q27.5 0 47-19.5T883 934V798q15-5 24-18t9-29v-17q1-20-14-35t-35-15zm-17 250q0 14-9.5 24T817 968q-14 0-24-10t-10-24V801h67v133zm33-183q0 7-4.5 12t-11.5 5H767q-7 0-12-5t-5-12v-17q0-7 5-11.5t12-4.5h100q7 0 11.5 4.5T883 734v17zm-83-446q1-69-27.5-130T692 70.5Q640 27 573 10T439.5 7Q373 21 319 62t-86 102q-32 61-33.5 129T226 423.5Q254 486 306 530q8 6 17 3t11-13q2-10-6-16-61-51-83.5-128t.5-153q23-76 84-127t141-60q57-7 111.5 11t97.5 56q43 38 66 91t22 111q-1 70-40 131-37 60-99 95-64 37-136 37H300q-50 0-88 33.5T168 684h-35q-20 0-35 15t-15 35v17q0 16 9.5 29t24.5 18v136q0 28 19.5 47.5T183 1001q27 0 47-19.5t20-47.5V798q15-5 24-18t9-29v-17q0-20-14.5-35T233 684h-31q6-36 33.5-59.5T300 601h192q81 0 153-41 69-40 111-107 43-69 44-148zM217 934q0 14-10 24t-24 10q-14 0-23.5-10t-9.5-24V801h66v133h1zm33-200v17q0 7-5 12t-12 5H133q-7 0-11.5-5t-4.5-12v-17q0-7 4.5-11.5T133 718h100q7 0 12 4.5t5 11.5zm250-216q59 0 109-29.5t79-79Q717 360 717 301t-29-108.5q-29-49.5-79-79T500 84q-59 0-109 29t-79 79q-29 50-29 109t29.5 108.5q29.5 49.5 79 79T500 518zM350 407l14-8q9-5 9-14.5t-8.5-14.5q-8.5-5-17.5 0l-13 8q-14-29-17-60h16q7 0 12-5t5-12q0-7-5-12t-12-5h-16q3-30 17-60l13 8q9 5 17 0 4-2 6.5-6t2.5-8q0-10-9-15l-14-8q22-28 44-44l8 14q5 8 14.5 8t14.5-8q2-4 2-8.5t-2-8.5l-8-13q29-14 60-17v16q0 7 5 12t12 5q7 0 11.5-5t4.5-12v-16q30 3 60 17l-7 13q-6 10-.5 17.5t15 7.5q9.5 0 14.5-8l7-14q26 18 44 44l-13 8q-9 4-9 14t8.5 15q8.5 5 16.5 0l14-8q15 31 16 60h-16q-7 0-11.5 5t-4.5 12q0 7 4.5 12t11.5 5h16q-3 33-16 60l-14-8q-6-4-12.5-2t-10 8q-3.5 6-1.5 12.5t8 10.5l13 8q-17 24-43 44l-8-14q-5-9-14.5-9t-14.5 8.5q-5 8.5 0 17.5l8 13q-29 14-60 17v-16q0-7-5-12t-12-5q-7 0-12 5t-5 12v16q-31-3-60-17l8-13q4-6 2-12.5t-8-10q-6-3.5-12.5-2T402 437l-8 14q-25-19-44-44zm205-28q5 5 12 5t11.5-4.5q4.5-4.5 5-11.5t-4.5-12l-62-62v-93q0-7-5-12t-12-5q-7 0-11.5 5t-4.5 12v100q0 8 5 12l66 66z"/></svg>