<svg viewBox="0 0 1244 1083.753" xmlns="http://www.w3.org/2000/svg"><path d="M973 128v-18q0-14-10.5-24T938 76H598V59q0-24-17-41T540 1h-78q-24 0-41 17t-17 41v17H64q-14 0-24 10t-10 24v18q0 10 5.5 18.5T50 159v529q-9 5-14.5 13.5T30 720v17q0 15 10 25t24 10h123q6 0 10.5-4t4.5-10.5q0-6.5-4.5-10.5t-10.5-4H64q-2 0-3.5-2t-1.5-4v-17q0-2 1.5-4t3.5-2h874q2 0 3.5 2t1.5 4v17q0 2-1.5 4t-3.5 2H249q-6 0-10 4t-4 10q0 6 4 10.5t10 4.5h89v28q0 10 5 19t14 14l-59 150q-2 6 .5 11.5t8.5 7.5q1 1 5 1 10 0 14-9l60-156h230l61 156q3 9 13 9 4 0 6-1 5-2 7.5-7.5t.5-11.5l-59-151q17-11 17-32v-28h276q14 0 24.5-10t10.5-25v-17q0-10-5.5-18.5T953 688V159q9-4 14.5-12.5T973 128zM633 800q0 4-2.5 6.5T624 809H376q-4 0-6.5-2.5T367 800v-28h266v28zM433 59q0-12 8.5-20.5T462 30h78q12 0 20.5 8.5T569 59v17H433V59zM59 110q0-5 5-5h874q5 0 5 5v18q0 5-5 5H837q-6 0-10.5 4.5T822 148q0 6 4.5 10.5T837 163h86v522H79V163h695q6 0 10.5-4.5T789 148q0-6-4.5-10.5T774 133H64q-5 0-5-5v-18zm404 751h-39q-14 0-19 13l-43 109q-2 6 .5 11.5t7.5 7.5q2 1 6 1 10 0 13-9l41-104h25v99q0 6 4.5 10t10.5 4q6 0 10-4t4-10V882q0-9-6-15t-15-6zm135 13q-2-6-7.5-9.5T578 861h-39q-9 0-15 6t-6 15v107q0 6 4.5 10t10.5 4q6 0 10-4t4-10v-99h26l40 104q3 9 14 9 3 0 5-1 5-2 7.5-7.5t.5-11.5l-42-109zm37-536h-30v-23q0-36-26-61.5T517 228H336q-37 0-62.5 25.5T248 315v182q0 8 4 14.5t10.5 9.5q6.5 3 13.5 3t15-5l24-18h51v23q0 36 25.5 61.5T453 611h202l25 18q7 5 14.5 5t13.5-3q14-8 14-24V425q0-36-25.5-61.5T635 338zm58 264l-24-17q-4-3-9-3H453q-24 0-41-17t-17-41v-23h44q6 0 10-4t4-11q0-7-4-10.5t-10-3.5H310q-5 0-8 3l-24 17V315q0-24 17-41t41-17h181q24 0 41 17t17 41v99q0 24-17 41t-41 17h-16q-6 0-10.5 4t-4.5 10q0 6 4.5 10.5T501 501h16q36 0 62-25.5t26-61.5v-47h30q24 0 41 17t17 41v177z"/></svg>