<svg viewBox="0 0 1244 1083.753" xmlns="http://www.w3.org/2000/svg"><path d="M794 633h1q20 0 34.5-14.5T844 584q0-17-11-30l10-71q5-39-18.5-70.5T763 375h-2q-26-41-73-55l-3-1q-46-13-91 4t-71 58q-23 38-27.5 83t11.5 87q-12 13-12 33t14.5 34.5Q524 633 544 633h1q4 24 17 45t33 36v28q-4 1-8 4l-25 21q-9 9-9 21l-61 42q-25 17-39 44t-14 58v60q0 6 4.5 10.5t10.5 4.5q6 0 10-4.5t4-10.5v-60q0-23 11-44t30-34l58-39 23 31q9 11 22 11 5 0 7-1l6 23q1 4 5 10l-14 101q-1 6 3 11t10 6h2q5 0 9-3.5t5-9.5l14-96h20l14 96q1 6 5 9.5t9 3.5h3q6-1 9.5-6t2.5-11l-14-101q4-6 5-10l6-23q2 1 7.5 1t11.5-3q6-3 10-8l23-31 27 18q5 3 9 3 7 0 12-7 3-5 2-11t-6-9l-30-21q0-12-9-21l-25-21q-2-2-8-4v-28q20-14 33.5-35.5T794 633zm1-29v-40q8 1 13.5 6.5T814 584q0 8-5.5 13.5T795 604zm19-125l-8 57q-3-1-11-1v-1q0-34-19-62 8-32 0-63 20 9 30.5 28.5T814 479zm-266-82q20-32 56-46t73-4l3 1q19 5 34.5 17.5T739 395q12 25 11 50l-8-7q-7-6-15.5-6t-15.5 5l-13 10h-71q-35 0-59.5 25T543 532v3q-7 0-10 1-12-35-8-71.5t23-67.5zm-24 187q0-8 5.5-13.5T543 564v40q-8-1-13.5-6.5T524 584zm48 28v-80q0-23 16-39.5t39-16.5h76q6 0 10-3l13-10 12 10q13 11 20.5 27.5T766 534v78q0 40-28 68.5T669.5 709q-40.5 0-69-28.5T572 612zm12 176l21-18 49 24v21l-41 12-29-39zm107 60l-5 21h-33l-6-21 22-7 22 7zm64-60l-30 39-41-12v-21l49-24 22 18zm-41-41l-45 22-45-22v-17q22 8 45 8t45-8v17zm153 102q-4-5-10.5-5t-10.5 4q-4 4-4.5 10t3.5 11q25 27 25 63v60q0 6 4 10.5t10.5 4.5q6.5 0 10.5-4.5t4-10.5v-60q0-48-32-83zm-334 68q-6 0-10 4.5t-4 10.5v59q0 6 4 10.5t10 4.5q6 0 10.5-4.5T548 991v-59q0-6-4.5-10.5T533 917zm272 0q-6 0-10.5 4.5T790 932v59q0 6 4.5 10.5t10.5 4.5q6 0 10-4.5t4-10.5v-59q0-6-4-10.5t-10-4.5zM136 627q0-31 18-55 3-5 2-11t-6-9.5q-5-3.5-10.5-2.5t-9.5 6q-23 32-23 72v60q0 6 4 10.5t10 4.5q6 0 10.5-4.5T136 687v-60zm320-106q3 3 9 3t11-7q4-4 2.5-10t-6.5-10l-19-14q0-12-10-21l-24-21q-4-3-8-4v-28q20-15 33-36t17-45h1q20 0 34.5-14.5T511 278q0-21-15-34l5-10q15-29 6-61l-1-2 5-22q5-22-1.5-43T486 70l-7-6q-11-22-31.5-34.5T402 18l-7 1-29-12q-30-12-61 0l-29 12-7-1q-25-1-46 11.5T191 64l-6 6q-17 15-23.5 36t-1.5 43l4 22v2q-9 31 5 61l6 12q-13 13-13 33t14.5 34.5Q191 328 211 328h1q5 25 18 46t33 35v28q-6 2-8 4l-25 21q-9 9-9 21l-40 28q-5 3-6 9t3 11.5q4 5.5 12 5.5 5 0 8-2l37-25 23 31q4 5 10 8t11.5 3q5.5 0 8.5-1l34-10v145q0 6 4.5 10.5T337 701q6 0 10-4.5t4-10.5V541l34 10q3 1 8 1 14 0 22-11l24-31 17 11zm7-222v-40q8 1 13.5 6.5T482 279q0 8-5.5 13.5T463 299zm-271-20q0-8 5.5-13.5T211 259v40q-8-1-13.5-6.5T192 279zm29-101q-10 10-10 23v29q-7 0-10 1l-6-10q-9-19-3-40l2-6v-7l-6-25q-3-14 1-27.5T204 92l9-8q3-3 4-5 7-15 21-23.5t30-7.5h9q5 0 6-1l33-13q19-8 39 0l32 13q2 1 6 1h10q16-1 30 7.5T454 79l3 5 10 8q11 10 15 23.5t1 27.5l-6 25q-1 4 0 7l2 6q6 21-4 40l-5 10q-2-1-7-1v-26q0-15-10.5-23.5T428 175l-5 1q-17 3-31-6-7-5-16-5.5t-17 4.5l-3 2q-19 11-38 0l-4-2q-15-9-30-1l-4 2q-14 6-29 3l-5-1q-14-3-25 6zm19 129V201l5 1q25 5 48-6l4-2h2l4 3q16 9 34 9t34-9l3-3h2q24 16 53 10h5v103q0 40-28.5 68.5T337 404q-40 0-68.5-28.5T240 307zm97 126q26 0 45-8v17l-45 22-45-22v-17q19 8 45 8zm-56 90l-30-40 22-18 49 24v21l-41 13zm112 0l-42-13v-21l50-24 21 18-29 40zM216 686v-59q0-6-4.5-10.5T201 612q-6 0-10.5 4.5T186 627v59q0 6 4.5 10.5T201 701q6 0 10.5-4.5T216 686zm242-59v59q0 6 4 10.5t10.5 4.5q6.5 0 10.5-4.5t4-10.5v-59q0-6-4-10.5t-10-4.5q-6 0-10.5 4.5T458 627zM305 935q-32-45-34-99h24q6 0 11-3.5t7-8.5q5-13-4-22l-71-71q-6-5-14.5-5t-13.5 5l-72 71q-8 10-3.5 22t17.5 12h25q1 41 23.5 75.5T260 964l33 16q2 1 8 1 9 0 15-7 9-11 1-24l-12-15zm-99-105v-9q0-6-4.5-10t-10.5-4h-16l49-48 48 48h-16q-6 0-10 4t-4 10v8q0 58 30 108-30-15-48-44t-18-63zM660 81q32 45 34 99h-24q-6 0-11 3.5t-7 8.5q-4 12 4 22l72 71q5 5 14 5t14-5l71-71q9-9 4.5-21.5T813 180h-24q0-10-4-26-1-6-6-9.5t-11-2q-6 1.5-9.5 6.5t-1.5 11q3 13 3 26v9q0 6 4 10t10 4h16l-48 48-48-48h15q6 0 10.5-4t4.5-10v-8q0-56-30-108 19 10 38 30 4 5 10 5.5t10.5-3.5q4.5-4 5-10.5T754 90q-22-25-49-38l-32-15q-6-3-13-1.5t-11 7q-4 5.5-4 12t4 11.5l11 15z"/></svg>