<svg viewBox="0 0 1244 1083.753" xmlns="http://www.w3.org/2000/svg"><path d="M813 188h-16v-46q0-20-13.5-33.5T750 95V48q0-20-13.5-33.5T703 1h-31q-19 0-33 13.5T625 48v47H250q-19 0-33 13.5T203 142v46h-15q-33 0-56 23t-23 56v62q0 7 4.5 11.5T125 345h33l7 79q-17 4-27.5 18.5T129 475l40 375q2 16 13.5 27.5T210 891l3 39q3 31 25.5 51t52.5 20h418q30 0 52.5-20t25.5-51l3-39q17-2 28.5-13.5T831 850l40-375q2-18-8.5-32.5T835 424l7-79h33q7 0 11.5-4.5T891 329v-62q0-33-23-56t-55-23zM656 48q0-7 4.5-11.5T672 32h31q7 0 11.5 4.5T719 48v47h-63V48zm-422 94q0-7 4.5-11.5T250 126h500q7 0 11.5 4.5T766 142v46H234v-46zm475 828H291q-18 0-31.5-12T245 927l-4-35h518l-3 35q-2 19-15.5 31T709 970zm127-511q5 7 4 12l-40 375q-1 6-5.5 10t-10.5 4H216q-6 0-10.5-4t-5.5-10l-40-375q-1-7 3.5-12t11.5-5h646q5 0 8.5.5t6.5 4.5zm-32-36H197l-8-78h622l-7 78zm55-110H141v-46q0-20 14-33.5t33-13.5h625q19 0 32.5 14t13.5 33v46zM610 547q-26-26-63-30-34-5-70.5 9.5t-65 42.5Q383 597 369 633.5T359 705q5 37 30 62 13 14 34 23t46 9q46 0 88-28 39-25 62.5-66.5T642 622q-1-45-32-75zM391 675q5-43 37-78 30-33 70.5-45.5T571 556l-35 19q-24 13-40 34.5T473 657q-9 35-38 56l-32 23q-17-26-12-61zm219-35q-5 42-38 77-30 34-71.5 46t-73.5-6l26-19q19-13 32-32t18-41q11-42 48-62l45-25q19 25 14 62z"/></svg>