<svg viewBox="0 0 1244 1083.753" xmlns="http://www.w3.org/2000/svg"><path d="M227 366q6 0 10.5-4.5T242 350v-15q0-7-4.5-11.5T227 319q-6 0-11 4.5t-5 11.5v15q0 7 4.5 11.5T227 366zm0 47q-7 0-11.5 4.5T211 428v16q0 7 4.5 11.5T227 460q7 0 11-4.5t4-11.5v-16q0-6-4.5-10.5T227 413zm-55-8h15q7 0 11.5-4.5T203 389q0-7-4.5-11t-11.5-4h-15q-7 0-11.5 4.5T156 389q0 6 4.5 11t11.5 5zm94 0h15q7 0 11.5-4.5T297 389q0-7-4.5-11t-11.5-4h-15q-7 0-11.5 4.5T250 389q0 6 4.5 11t11.5 5zm250 180h-32q-6 0-10.5 4.5T469 600q0 6 4.5 11t10.5 5h32q6 0 10.5-4.5T531 600q0-7-4.5-11t-10.5-4zm429-199q-33-91-79-145-9-9-22-14v-17q0-20-13.5-33.5T797 163h-63q-19 0-33 14t-14 33v15H312v-15q0-19-13.5-33T266 163h-63q-19 0-33 13.5T156 210v17q-13 5-22 14-46 54-79 145Q1 536 0 740q0 11 5 21.5T20 779l72 51q12 9 27 9 22 0 37-17l113-139q20 11 43 11 30 0 52-16h272q22 16 51 16 24 0 44-11l113 139q12 14 30.5 16.5T908 830l72-51q10-7 15-17.5t5-21.5q-1-204-55-354zM719 210q0-7 4.5-11.5T734 194h63q6 0 10.5 4.5T812 210v15h-93v-15zm-83 46l-23 90v1q-1 3-4 3H391q-2 0-4-3l-23-91h272zm-449-46q0-7 4.5-11.5T203 194h63q6 0 10.5 4.5T281 210v15h-94v-15zm163 440q-18 13-37.5 13T275 650q-25-19-25-50 0-26 18.5-44t44-18q25.5 0 44 18.5T375 600q0 31-25 50zm375 0q-18 13-37.5 13T650 650q-25-19-25-50 0-26 18.5-44t44-18q25.5 0 44 18.5T750 600q0 31-25 50zm237 103l-72 52q-5 4-11 3t-10-6L756 664q25-27 25-64.5T753.5 534Q726 506 687 506t-66 27.5Q594 561 594 600q0 26 12 47H394q12-21 12-47 0-38-27.5-66T312 506q-39 0-66 27.5T219 599q0 38 25 65L131 802q-4 5-10 6t-11-3l-72-52q-7-5-7-13 1-141 28-255 20-87 54-154 22-43 45-69 5-6 12-6h162l25 98q2 12 11.5 20t22.5 8h218q12 0 22-8t12-20l25-98h162q8 0 12 6 23 26 45 69 33 67 54 154 26 114 28 255 0 8-7 13z"/></svg>