<svg viewBox="0 0 1244 1083.753" xmlns="http://www.w3.org/2000/svg"><path d="M931 135H643q-37-45-90-71-4-2-9.5-1.5T534 65q-9 6-9 17v53H392q-8 0-14 5.5t-6 13.5q0 8 6 14t14 6h133v638h-62q2-9 2-26 0-39-24.5-70.5T377 674q-15-3-25-15-16-16-16-40t16-40q5-5 5-13.5t-5-13.5L208 408q-6-6-14-5.5t-14 5.5q-41 42-64 97T93 619q0 52 17.5 100.5T160 808l3 4H69q-12 0-21-9t-9-22V204q0-13 9-21.5t21-8.5h151q8 0 13.5-6t5.5-14q0-8-5.5-13.5T220 135H69q-28 0-48.5 20T0 204v577q0 29 20 49.5T69 851h133q48 39 109 56 40 11 78.5-4.5T449 851h76v16q0 30 21 51.5t52 21.5q31 0 52-21.5t21-51.5v-16h260q29 0 49-20.5t20-49.5V204q0-29-20-49t-49-20zM245 622l-17-24q-8-11-6-24t12-21l19-16q7-7 13-16l46 46q-19 28-15.5 62t27.5 58q19 19 43 25 26 7 42.5 27.5T426 786q0 17-2 25h-47q-11 0-20-7t-12-17l-3-8q-6-20-22-33.5T284 729q-14-2-22.5-13.5T255 690l2-15q4-27-12-53zm148 234q-15 12-34 15.5t-38-2.5q-52-15-94.5-50T159 735q-25-49-27-103-2-49 14.5-96.5T195 450l42 43q-4 9-10 14l-18 16q-22 19-25.5 47t12.5 51l16 24q9 11 6 24l-2 15q-4 30 14 54.5t48 29.5q9 1 16.5 7.5T305 791q9 27 28 43t46 16l22-1q-2 3-8 7zm171-740q50 33 78.5 87T671 318v245h-41q-8 0-13.5 5.5T611 582v52h-47V116zm68 751q0 14-10 24t-24 10q-14 0-24-10t-10-24V673h68v194zm329-86q0 13-9 22t-21 9H671V654q0-8-5.5-14t-13.5-6h-2v-32h41q8 0 13.5-6t5.5-14V318q0-80-39-144h260q12 0 21 8.5t9 21.5v577zM856 281q-25 0-43 17.5T795 342v293q0 25 18 43t43.5 18q25.5 0 43-18t17.5-43V342q0-25-18-43t-43-18zm22 354q0 9-6.5 15.5T856 657q-9 0-15.5-6.5T834 635V342q0-9 6.5-15.5T856 320q9 0 15.5 6.5T878 342v293zM389 447q48 0 85-35 6-6 6-14t-6-14L331 241q-6-6-14-6t-14 6q-23 23-31 54t0 62.5q8 31.5 31 54.5 18 17 40 26t46 9zm-70-163l112 112q-24 14-52.5 10.5t-48-23Q311 364 308 336t11-52zm-30-123q3 8 10.5 11t14.5 0q7-3 10.5-10.5t.5-14.5q-3-7-10.5-10.5t-15-.5q-7.5 3-10.5 10.5t0 14.5z"/></svg>