<svg viewBox="0 0 1244 1083.753" xmlns="http://www.w3.org/2000/svg"><path d="M935 351H602v-23q0-18 13-31t31-13q34 0 58-24t24-58q0-37-26-63t-63-26H466q-21 0-35.5-15T416 62V23q0-8-6-13.5T396 4q-8 0-13.5 5.5T377 23v39q0 37 26 63.5t63 26.5q21 0 35.5 14.5T516 202q0 18-12.5 30.5T473 245H354q-34 0-58 24.5T272 328v23H65q-27 0-46 19T0 416q0 27 19 46t46 19h86v246q0 25 14 47h-14q-18 0-30.5 12.5T108 817v81q0 8 5.5 14t13.5 6h69v61q0 8 6 13.5t14 5.5h568q8 0 14-5.5t6-13.5v-61h69q8 0 13.5-6t5.5-14v-81q0-18-12.5-30.5T849 774h-14q14-22 14-47V481h86q27 0 46-19t19-46q0-27-19-46t-46-19zm-624-23q0-18 13-31t30-13h119q34 0 58-24t24-58q0-29-15-50h99q20 0 35 14.5t15 35.5q0 18-12.5 30.5T646 245q-34 0-58.5 24T563 328v23H311v-23zM151 442H65q-10 0-18-8t-8-18.5q0-10.5 8-18t18-7.5h86v52zm702 375v62H585q-8 0-14 5.5t-6 13.5q0 8 6 14t14 6h180v41H235v-41h178q8 0 13.5-6t5.5-14q0-8-5.5-13.5T413 879H147v-62q0-2 1.5-3t2.5-1h698q2 0 3 1t1 3zm-616-43q-19 0-33-14t-14-33V390h620v337q0 19-13.5 33T764 774H237zm698-332h-86v-52h86q11 0 18.5 7.5T961 416q0 11-7.5 18.5T935 442zM518 891q-3-7-10.5-10.5T493 880q-7 3-10.5 10.5t-.5 15q3 7.5 11 10.5t15 0q7-3 10-10.5t0-14.5z"/></svg>