<svg viewBox="0 0 1244 1083.753" xmlns="http://www.w3.org/2000/svg"><path d="M891 220h-63q-1-43-23-79t-58.5-57Q710 63 667 63H563V32h15q7 0 11.5-4.5T594 17q0-6-4.5-11T578 1H422q-7 0-11.5 4.5T406 17q0 7 4.5 11t11.5 4h16v31H333q-43 0-79.5 21T195 141q-22 36-23 79h-63q-19 0-32.5 14T63 267q0 30 14.5 55t39.5 39.5q25 14.5 55 14.5h16v234q0 38 19 70.5t51 51.5q32 19 70 19h344q38 0 70.5-19t51.5-51.5q19-32.5 19-70.5V376h15q30 0 55-14.5t40-40q15-25.5 15-54.5 0-20-13.5-33.5T891 220zM469 32h62v31h-62V32zM333 95h334q34 0 63.5 16.5T778 157q18 29 19 63H203q1-34 19-63t47.5-45.5Q299 95 333 95zM172 345q-32 0-55-23t-23-55q0-7 4.5-11.5T109 251h79v94h-16zm609 265q0 30-14.5 55T727 705q-25 15-55 15H328q-30 0-55-15t-39.5-40Q219 640 219 610V251h562v359zm47-265h-15v-94h78q6 0 10.5 4.5T906 267q0 32-23 55t-55 23zm31 625H750V829q0-20-13.5-33.5T703 782h-47q-6 0-10.5 4.5T641 798q0 7 4.5 11t10.5 4h47q7 0 11.5 4.5T719 829v141h-63v-47q0-11-9-14 9-15 9-33.5T634 824q-13-20-29-37-4-5-11-5t-12 5l-1 1q-22 26-34 46-12-20-34-46l-1-1q-5-5-12-5t-12 5l-1 1q-22 26-34 46-12-20-34-46l-1-1q-4-5-11-5t-12 5q-16 17-29 37-22 33-22 51.5t9 33.5q-4 2-6.5 6t-2.5 8v47h-63V829q0-7 4.5-11.5T297 813h47q6 0 10.5-4.5T359 798q0-6-4.5-11t-10.5-5h-47q-19 0-33 13.5T250 829v141H141q-7 0-11.5 4.5T125 985q0 6 4.5 11t11.5 5h718q7 0 11.5-4.5T875 985q0-7-4.5-11t-11.5-4zM594 822q31 41 31 54t-9 22q-9 9-22 9t-22-9q-9-9-9-22 0-7 9-22.5t22-31.5zm-94 0q13 16 22 31.5t9 22.5q0 13-9 22t-22 9q-13 0-22-9t-9-22q0-7 9-22.5t22-31.5zm-94 0q32 40 32 53.5t-9.5 22.5q-9.5 9-22.5 9t-22-9q-9-9-9-22t31-54zm-31 148v-31h250v31H375zM266 298q-7 0-11.5 4.5T250 313v157q0 6 4.5 10.5T266 485q7 0 11-4.5t4-10.5V313q0-6-4.5-10.5T266 298z"/></svg>