<svg viewBox="0 0 1244 1083.753" xmlns="http://www.w3.org/2000/svg"><path d="M891 450h-38v-5q0-19-13.5-32.5T807 399H337q-6 0-10 4.5t-4 10.5q0 6 4 10t10 4h470q7 0 12 5t5 12v89q0 43-21 79t-57.5 57Q709 691 667 691h-29q-2-5-8-15l-10-18q-5-8-14-12t-19-3q-19 3-26 23l-26-34q-14-17-35-17-10 0-19 4.5T466 632l-27 34q-7-20-25-23-10-1-19.5 3T380 658l-10 18q-6 10-8 15h-28q-43 0-79-21t-57.5-57Q176 577 176 534v-89q0-7 5-12t12-5h85q7 0 11-4t4-10q0-6-4-10.5t-11-4.5h-85q-19 0-32.5 13.5T147 445v5h-38q-19 0-32 13.5T64 496v6q0 19 13 32.5t32 13.5h39q3 47 29 87t67 63q41 23 90 23h20q-6 35 6 67h-20q-5 0-5-4v-5q0-17-11.5-28.5t-28-11.5q-16.5 0-28.5 11.5T255 779v88h-54q-22 0-38 15.5T147 921v26q0 22 16 38t38 16h598q23 0 38.5-16t15.5-38v-26q0-23-15.5-38.5T799 867h-54v-88q0-17-11.5-28.5t-28-11.5q-16.5 0-28.5 11.5T665 779v5q0 4-5 4h-20q12-31 7-67h20q48 0 89-23t67-63q26-40 29-87h39q19 0 32.5-13.5T937 502v-6q0-19-13.5-32.5T891 450zM93 502v-6q0-7 4.5-12t11.5-5h38v40h-38q-7 0-11.5-5T93 502zm601 282v-5q0-5 3.5-8t7.5-3q4 0 7 3t3 8v88h-93q-6 0-10.5 4.5T607 882q0 6 4.5 10t10.5 4h177q11 0 18 7t7 18v26q0 10-7 17.5t-18 7.5H201q-10 0-17.5-7.5T176 947v-26q0-11 7.5-18t17.5-7h369q6 0 10.5-4t4.5-10q0-6-4.5-10.5T570 867H285v-88q0-5 3-8t7.5-3q4.5 0 7.5 3t3 8v5q0 14 10 24t24 10h119q13 0 21.5-9t8.5-22v-8q0-5 3.5-8t8-3q4.5 0 7.5 3t3 8v8q0 13 8.5 22t21.5 9h119q14 0 24-10t10-24zm-153 4h-.5q-.5 0-.5-1v-8q0-17-11.5-28.5t-28-11.5q-16.5 0-28.5 11.5T460 779v8q0 1-1 1h-67q-12-23-11-49t14-48l11-18 2-1q1 0 2 1l1 1 1 5q1 7 6 12.5t12.5 7.5q7.5 2 14.5-.5t12-8.5l32-40q3-6 11-6t12 6l31 40q5 6 12 8.5t14.5.5q7.5-2 13-7.5T589 679v-5l1-1q1-1 2-1t2 1h1l10 18q13 22 14 48t-11 49h-67zm366-286q0 7-4.5 12t-11.5 5h-38v-40h38q7 0 11.5 5t4.5 12v6zM153 356q4 13 17 21 10 4 16 4 2 0 8-1l409-121q6-2 9-7.5t1-11q-2-5.5-7-8.5t-11-2L187 351q-1 1-3 0t-3-3l-4-14q-1-1 0-3v-1q2-2 3-2l611-181q5-2 7 3l4 14q0 3-1 4l-1 1q-1 1-2 1l-147 44q-6 1-9 6.5t-1.5 11.5q1.5 6 7 9t11.5 1l148-44q13-4 20-16t3-26l-4-14q-4-14-16.5-21t-26.5-3l-37 11-32-26q-30-25-68-32.5T571 74l-87 26-5-16q-1-5 1-10 7-16 2-35-6-23-26.5-33t-41-2.5q-20.5 7.5-30 26T381 68q4 17 21 29 4 3 6 8l5 16-87 26q-37 10-65 37.5T221 249l-12 40-37 11q-13 4-20 16t-3 26l4 14zM436 97q-5-16-17-24-7-4-9.5-13t1.5-17q4-8 13-11 4-2 9-2t9 3q9 4 11.5 13t-.5 16q-7 16-2 30l5 16-15 5-5-16zM249 258q10-30 32.5-52t52.5-31l245-73q20-5 36-5 46 0 81 29l16 13-469 140 6-21zm566-30q-18-9-38-1-17 6-25.5 21.5T746 282q0 1 1 2l-24 9q-13 5-19 17t-1 25l2 7q5 13 17 19t26 1l23-8 2 2q6 12 17.5 19t25.5 7q5 0 15-2 20-6 29-25 5-12 5-22 2 0 6-2 17-7 25-23t3-33q-4-21-23.5-32t-40.5-3q-2 0-3 1-5-8-17-13zm23 44q4-4 7-5 10-2 17 1.5t9 13.5q2 7-1.5 13.5T859 304q-3 2-9 2-8 0-13 6.5t-2 13.5q3 7-1 16-6 7-12.5 9.5t-13 0Q802 349 798 342v-1q-4-8-11-12.5t-15-4.5q-3 0-9 2l-25 9q-3 0-3-1-2 0-2-2l-3-6q0-5 3-6l25-8q10-4 15-14t2-20v-2q-2-7 1.5-13.5t11-9q7.5-2.5 15 1T813 266q3 8 10.5 9.5T838 272z"/></svg>