<svg viewBox="0 0 1244 1083.753" xmlns="http://www.w3.org/2000/svg"><path d="M990 934l-6-90q-2-38-25.5-70T898 729l-39-15-59-22q-4-2-4-5v-35l4-2q26-16 41-42.5t15-57.5V438h26v244q0 6 4.5 10t10.5 4q6 0 10.5-4t4.5-10V383q0-48-23.5-88t-64-63.5Q784 208 736 208h-45q-48 0-88.5 23.5t-64 63.5Q515 335 515 383v299q0 6 4 10t11 4q7 0 10.5-4t3.5-10V438h29v112q0 31 15 57.5t41 42.5l4 2v34q0 4-4 6l-59 22-39 15q-15 6-31 16-16-10-31-16l-102-39v-47l6-3 26-16q21-13 33-35t12-47V407l13-16q13-16 16.5-35.5T472 316l-2-8q-5-19-21-31.5T413 264q-10-25-33-40.5T330 208H202q-26 0-49.5 10T112 246.5q-17 18.5-24.5 43T82 340l4 35q2 16 13.5 27.5T127 416v126q0 25 12 47t33 35l26 16 6 3v47l-102 39q-36 13-59.5 44.5T16 844l-6 90q-2 28 17.5 47.5T72 1001h856q28 0 46-19.5t16-47.5zM544 383q0-39 20-72.5t53.5-53.5q33.5-20 73.5-20h45q40 0 73.5 19.5t53 53.5q19.5 34 19.5 73v26h-59q-15 0-27.5-7.5t-20-20.5q-7.5-13-21.5-13-7 0-13 3.5t-9 9.5q-8 13-20.5 20.5T684 409H544v-26zm59 167V438h81q21 0 39.5-10t30.5-27q11 17 29.5 27t39.5 10h3v112q0 23-11 43t-31 32l-7 5q-29 18-62.5 18T652 630l-7-5q-20-12-31-32t-11-43zm37 169q10-4 16-13t6-20v-19q24 10 52.5 10t52.5-10v19q0 11 6.5 20t16.5 13l33 13-67 45q-19 13-41.5 13T673 777l-67-45 34-13zM188 599q-15-10-23.5-25t-8.5-32V416h39q7 0 11-4t4-11q0-7-4-10.5t-11-3.5h-64q-6 0-10.5-4t-5.5-11l-4-35q-2-19 4-37.5t19-32.5q13-14 30.5-22t37.5-8h128q18 0 33.5 10.5T385 275q4 8 11 13t16 5q10 0 18.5 6t11.5 16l2 9q4 13 1 25.5T434 373l-11 14q-8-1-13-6.5t-5-12.5q0-7-4-13.5t-11-9.5q-7-3-14.5-2t-12.5 6q-20 18-46 28t-53 10h-10q-6 0-10 4t-4 10q0 6 4 10.5t10 4.5h10q31 0 60-10.5t52-29.5q3 15 13.5 26t25.5 13v127q0 17-8.5 32T383 599l-25 16q-34 20-72.5 20T214 615l-26-16zm98 65q29 0 52-8v39l-25 26q-13 11-27 11-16 0-27-11l-26-26v-39q23 8 53 8zm164 308l-8-58q-1-7-5.5-10.5T426 901q-6 1-10 5.5t-3 10.5l7 55H154l7-55q1-6-3-10.5t-10-5.5q-6-1-10.5 2.5T132 914l-7 58H72q-15 0-24.5-11.5T39 936l6-90q2-30 20.5-54.5T112 756l103-38 23 23q18 20 48 20 28 0 48-20l22-23 103 38q28 11 46.5 35.5T526 846l8 126h-84zm502-11q-9 11-24 11h-53l-7-58q-1-7-5.5-10.5T852 901q-6 1-10 5.5t-3 10.5l7 55H564l-9-128q-3-45-33-78 8-5 19-10l32-12 83 57q27 18 58.5 18t58.5-18l83-57 32 12q28 11 46.5 35.5T955 846l6 90q1 15-9 25zM381 136l91 80q11 10 28 10t28-10l91-80q22-19 25.5-48T632 35Q613 7 579 2t-59 16l-18 14q-2 2-4 0l-18-14Q455-3 421 2q-16 2-29.5 11T369 35q-17 24-13.5 53t25.5 48zm12-85q11-17 32-20 2-1 7-1 16 0 30 11l18 14q9 7 20 7t20-7l18-14q16-13 37-10t31.5 19Q617 66 615 84t-16 30l-90 80q-4 3-9 3t-9-3l-90-80q-14-12-16-30t8-33zM264 447q0-6-4-10t-11-4h-49q-6 0-10 4t-4 10q0 6 4 10.5t10 4.5h49q7 0 11-4.5t4-10.5zm58 15h49q6 0 10.5-4.5T386 447q0-6-4.5-10t-10.5-4h-49q-6 0-10.5 4t-4.5 10q0 6 4.5 10.5T322 462zm-72 108q-1 6 2 11t9 7l3 1q14 2 21.5 2t19.5-2l5-1q6-2 9-7t1.5-11q-1.5-6-6.5-9t-11-2l-3 1q-14 3-29 0l-3-1q-6-1-11 2t-7 9zm437-96q0-6-4.5-10t-10.5-4h-37q-6 0-10 4t-4 10q0 6 4 10.5t10 4.5h37q6 0 10.5-4.5T687 474zm70 15h37q6 0 10-4.5t4-10.5q0-6-4-10t-10-4h-37q-6 0-10.5 4t-4.5 10q0 6 4.5 10.5T757 489zm-78 100q-1 6 2 11t9 7l3 1q14 2 21.5 2t21.5-2l3-1q6-2 9-7t2-11q-1-6-6.5-9t-11.5-2l-3 1q-14 4-29 0l-3-1q-6-1-11.5 2t-6.5 9z"/></svg>