<svg viewBox="0 0 1244 1083.753" xmlns="http://www.w3.org/2000/svg"><path d="M994 167l-33-68q-7-17-24.5-34.5T902 40L834 7q-12-6-29-6-30 0-52 20L275 499q-16 16-16 39t16 40l21 21q-2 12-11 23L16 891Q0 907 0 929.5T16 968l17 17q16 16 39 16t39-16l268-269q11-9 23-11l21 21q16 16 39.5 16t39.5-16l478-478q15-15 19-38.5t-5-42.5zM726 98q6 32 2 55-5 30-26 51.5T649 232q-19 4-61 4L726 98zM86 960q-6 6-14 6t-14-6l-17-17q-6-6-6-14t6-14l70-70 45 45-70 70zm95-95l-45-45 88-88 45 45-88 88zm173-174l-60 61-45-45 61-60q11-13 14-20l50 50q-7 3-20 14zm295-161q6-31 33-57.5t58-34.5l-91 92zm306-307L785 393q-4 1-11 2l-7 1q-35 6-54 13-30 12-56 38-28 28-39 63-8 25-9 59L477 701q-6 6-14.5 6t-14.5-6L300 553q-6-6-6-14.5t6-14.5l252-252q11-1 34-1 46 1 72-4 40-9 69-37 34-34 38-82 2-31-9-80l22-22q10-10 27-10 8 0 14 3l68 32q12 6 24.5 18.5T930 114l32 68q4 9 2 21.5t-9 19.5z"/></svg>