<svg viewBox="0 0 1244 1083.753" xmlns="http://www.w3.org/2000/svg"><path d="M500 296q27-8 44-28 14-17 16-36l1-4q0-13-9.5-22t-22.5-9q-10 0-17.5 5.5T500 216q-4-8-11.5-13.5T471 197q-13 0-22.5 9t-9.5 22l1 4q2 19 17 36 17 19 43 28zm-85 207q-6-4-9-10.5t-1-13.5q3-11 12-14 2-2 2-4.5t-3-3.5l-1-1q-3-1-4-1-13-3-25.5 2.5T366 475q-9 17-2 34.5t25 22.5q13 4 26-.5t21-15.5q2-4 2-5 2-3 0-5t-5-1q-8 3-18-2zM695 1H305q-33 0-61 16.5t-44.5 45Q183 91 183 124v754q0 33 16.5 61.5t44.5 45q28 16.5 61 16.5h390q33 0 61-16.5t44.5-45Q817 911 817 878V124q0-33-16.5-61.5t-44.5-45Q728 1 695 1zM574 929q0 11-7.5 18.5T548 955h-96q-11 0-18.5-7.5T426 929v-2q0-10 7.5-17.5T452 902h96q11 0 18.5 7.5T574 927v2zm177-135q0 25-17.5 43T690 855H310q-25 0-43-18t-18-43V132q0-25 18-43t43-18h380q25 0 43 18t18 43v662zM500 384q39 0 72.5-19.5t53-52.5q19.5-33 19.5-72t-19.5-72.5q-19.5-33.5-53-53T500 95q-39 0-72 19.5t-52.5 53Q356 201 356 240t19.5 72q19.5 33 52.5 52.5t72 19.5zm0-273q35 0 64.5 17.5t47 47Q629 205 629 240t-17.5 64.5Q594 334 564.5 351T500 368q-35 0-64.5-17t-47-46.5Q371 275 371 240t17.5-64.5q17.5-29.5 47-47T500 111zm0 232q28 0 52-14t38-37.5q14-23.5 14-51.5t-14-52q-14-24-38-38t-52-14q-3 0-5.5 2t-2.5 5.5q0 3.5 2.5 6t5.5 2.5q37 0 62.5 25.5t25.5 62q0 36.5-25.5 62.5T500 328q-22 0-42-11t-32-31q-2-2-5.5-2.5t-6 .5q-2.5 1-3.5 4.5t1 6.5q14 22 37.5 35t50.5 13zm161 70H339q-21 0-36 15t-15 37v58q0 22 15 37t36 15h322q21 0 36-15t15-37v-58q0-22-15-37t-36-15zm36 110q0 15-10.5 25.5T661 559H339q-15 0-25.5-10.5T303 523v-58q0-15 10.5-25.5T339 429h322q15 0 25.5 10.5T697 465v58zm-33 91H336q-20 0-34 14t-14 34v104q0 20 14 34t34 14h328q20 0 34-14t14-34V662q0-20-14-34t-34-14zm33 152q0 13-9.5 22.5T664 798H336q-14 0-23.5-9.5T303 766V662q0-13 9.5-22.5T336 630h328q14 0 23.5 9.5T697 662v104zm-48-10H481v-92q0-3-2.5-5.5T473 656q-3 0-5.5 2.5T465 664v100q0 3 2.5 5t5.5 2h176q8 0 8-7.5t-8-7.5zm-106-34q2 2 5.5 2t5.5-2l18-18 37 36q2 3 5 3t5.5-2.5q2.5-2.5 2.5-6t-2-5.5l-42-42q-2-2-5.5-2t-5.5 2l-18 18-35-35q-2-2-5.5-2t-6 2q-2.5 2-2.5 5.5t2 5.5l41 41zm100-229q-4 0-6 1l10-24q1-3 0-5.5t-4-4.5q-8-2-11 4l-2 6q-2-5-6.5-9t-9.5-4q-7 0-12.5 5.5T596 476q0 8 5 13.5t13 5.5q4 0 6-1l-10 23q-2 7 5 10l3 1q5 0 7-5l2-4q1 5 6 8.5t11 3.5q6 0 11.5-5.5T661 512q0-8-5-13.5t-13-5.5zm-29-13q-2 0-2-3.5t2-3.5l1 3-1 4zm29 35q-2 0-2-3t2-3q2 0 2 3t-2 3zm-112-37q0-8-5.5-13.5T512 459q-8 0-14 6t-6 13q0 3 2 9l1 2q-7 7-7 17t7 16.5q7 6.5 17 6.5t16.5-6.5Q535 516 535 506t-7-17q3-5 3-11zm-19-3q3 0 3 3.5t-2 3.5q-2 0-3.5-1.5T508 477q0-2 4-2zm0 38q-8 0-8-7 0-3 2-5.5t6-2.5q8 0 8 8 0 3-2.5 5t-5.5 2zm50-31q3-4 6-6l2-2q2-2 2.5-5.5t-1.5-6q-2-2.5-5-3t-6 1.5l-2 2q-18 17-20 39v3q0 10 6.5 17t16.5 7q10 0 17-7t7-16.5q0-9.5-6.5-16.5t-16.5-7zm-1 31q-3 0-5.5-2t-2.5-6q0-4 2.5-6t5.5-2q3 0 5.5 2.5t2.5 5.5q0 3-2 5.5t-6 2.5zM377 675q-19 0-27.5 3.5T338 690q-1 4 0 16v8q0 17 11.5 28.5t28 11.5q16.5 0 28-12t11.5-28v-8q1-12-1-16-2-8-10.5-11.5T377 675zm10 38h-19q-8 0-8-7 0-3 2-5.5t6-2.5h19q3 0 5.5 2t2.5 5.5q0 3.5-2.5 5.5t-5.5 2z"/></svg>