<svg viewBox="0 0 1244 1083.753" xmlns="http://www.w3.org/2000/svg"><path d="M998 259l-81-130V51q0-21-15-35.5T867 1H583q-20 0-35 14.5T533 51v78l-80 130q-3 3-3 8v87q-20 7-28 25L267 700q-20-45-49-71-32-28-68-28-42 0-78 39-33 35-52.5 93T0 851q0 46 26.5 84.5T97 991q44 17 89 5.5t76-46.5q95 53 205 51h89q94 0 170-33 53-23 92-59 15-15 15-37 0-12-5-21L602 379q-6-13-18.5-20.5T557 351h-74v-67h317v427q0 7 5 12t12 5q7 0 11.5-5t4.5-12V284h134v667q0 7-5 12t-12 5H817q-7 0-12 4.5t-5 11.5q0 7 5 12t12 5h133q21 0 35.5-15t14.5-35V267q0-4-2-8zM567 51q0-7 4.5-12t11.5-5h284q7 0 11.5 5t4.5 12v67H567V51zM150 968q-31 0-58-16t-43-43q-16-27-16-58 0-54 16.5-104.5t44-81.5q27.5-31 56.5-31t56.5 31q27.5 31 44 81.5T267 851q0 32-15.5 59T209 952.5Q182 968 150 968zm134-225l167-349q6-9 16.5-9t14.5 9l227 472q2 4 1 9.5t-5 8.5q-34 33-83 54-69 30-155 30-101 2-185-45 18-33 18-72 0-52-16-108zm514 123q2 5 1.5 10t-4.5 9q-57 51-131 69 33-17 64-45 12-11 15-27t-4-31L514 384h42q11 0 16 10l226 472zM497 251l62-100h311l-63 100H497zm350 0l53-85 53 85H847zM392 918q24 0 41-17.5t17-41.5q0-24-17-41t-41-17q-24 0-41.5 17T333 859.5q0 24.5 17 41.5t42 17zm0-84q11 0 18 7t7 17.5q0 10.5-7 18t-17.5 7.5q-10.5 0-18-7.5t-7.5-18q0-10.5 7.5-17.5t17.5-7zm41-133q21 0 35.5-15t14.5-35q0-20-14.5-35t-35-15q-20.5 0-35.5 14.5T383 651q0 21 15 35.5t35 14.5zm0-67q7 0 12 5t5 12q0 7-5 12t-12 5q-7 0-11.5-5t-4.5-12q0-7 4.5-12t11.5-5zm125 250q32 0 53.5-22t21.5-53q0-31-22-53t-53-22q-31 0-53 22t-22 53q0 31 22 53t53 22zm0-116q17 0 29.5 12t12.5 29q0 17-12.5 29.5T558 851q-17 0-29-12.5T517 809q0-17 12-29t29-12zm-25-134q7 0 12 5t5 12q0 7-5 12t-12 5q-7 0-11.5-5t-4.5-12q0-7 4.5-12t11.5-5zm-150 84q7 0 12 4.5t5 11.5q0 7-5 12t-12 5q-7 0-11.5-5t-4.5-12q0-7 4.5-11.5T383 718zm100-167q8 0 12.5 4.5t4.5 12q0 7.5-5 12t-12 4.5q-7 0-11.5-4.5T467 568q0-7 4.5-12t11.5-5zM118 688q-26 35-39 77t-12 86q0 7 4.5 12t11.5 5q7 0 12-5t5-12q-2-38 9.5-74.5T143 709q3-3 4-7.5t-1-8.5q-3-10-12.5-11t-15.5 6zm632-254q7 0 12-4.5t5-11.5v-84q0-7-5-11.5t-12-4.5H633q-7 0-11.5 4.5T617 334q0 7 4.5 12t11.5 5h100v67q0 7 5 11.5t12 4.5zm-533 0q59 0 108.5-29t78.5-78.5Q433 277 433 218t-29-108.5q-29-49.5-79-79T216.5 1q-58.5 0-108 29t-79 79Q0 159 0 218t29 108.5Q58 376 108 405t109 29zm0-400q50 0 92 24.5t66.5 67Q400 168 400 218t-24.5 92Q351 352 309 376.5T217 401q-50 0-92-24.5T58 310q-25-42-25-92t24.5-92.5q24.5-42.5 67-67T217 34zM105 329q5 5 12 5t12-5l88-88 88 88q5 5 12 5t12-5q5-5 5-12t-5-11l-89-88 89-89q7-7 4-16t-13-11.5q-10-2.5-15 4.5l-88 88-88-88q-5-5-12-5t-11.5 4.5Q101 110 101 117t4 12l88 89-88 88q-5 4-5 11t5 12z"/></svg>