<svg viewBox="0 0 1244 1083.753" xmlns="http://www.w3.org/2000/svg"><path d="M455 107q2 6 7.5 9.5t12 3q6.5-.5 11-5T492 104q3-12-7.5-20T463 83q-6 4-8.5 10.5t.5 13.5zm539 742l-75-76q-26-25-57-26 41-60 62.5-129.5T946 476q0-127-65-237-64-107-171-171Q600 3 473 3T236 68Q129 132 65 239 0 349 0 476q0 95 36 181.5T139 811q67 67 153.5 103T473 950q74 0 144.5-22.5T748 862q3 33 27 55l76 76q8 8 18.5 5t13.5-14l22-80 81-22q11-3 13.5-14t-5.5-19zm-230-51l-109-97 46-48 98 110q-9 5-19.5 15.5T764 798zm-66-205l-31-31q18-41 18-86 0-58-28.5-106.5t-77-77Q531 264 473 264t-106.5 28.5q-48.5 28.5-77 77T261 476q0 58 28.5 106.5t77 77.5Q415 689 473 689q47 0 92-21l31 30q-56 31-123.5 31t-126-34Q288 661 254 603t-34-126.5q0-68.5 34-127t92.5-92.5q58.5-34 127-34T600 257q58 34 92 92.5T726 476q0 64-28 117zm-71 81l-44-44q-8-8-8-20t8-20l8-8q8-8 20.5-8t20.5 8l43 43-48 49zm8-136q-15-5-31-3t-29 10l-16-15q16-26 16-54 0-40-28.5-68.5T478 379q-40 0-68.5 28.5T381 476q0 40 28.5 68.5T478 573q29 0 53-16l16 16q-9 14-11 30.5t5 32.5q-33 14-68 14-47 0-86.5-23.5t-63-63.5Q300 523 300 476t23.5-87q23.5-40 63-63t86.5-23q47 0 86.5 23.5t63 63Q646 429 646 476q0 32-11 62zm-143-75q-6-6-14-6t-13.5 5.5q-5.5 5.5-5.5 14t5 13.5l39 39q-13 5-25 5-24 0-41-17t-17-41q0-24 17-40.5t41-16.5q24 0 41 16.5t17 40.5q0 13-6 25l-38-38zm-19 448q-87 0-166-33t-140.5-94.5Q105 722 72 642.5T39 476q0-116 60-217 58-99 157-157 101-60 217-60t217 60q99 58 157 157 60 101 60 217 0 69-21.5 135T824 732l-26-29q71-101 71-227 0-90-40-171T720 168q-71-58-159-78-8-2-15 2.5t-8.5 12.5q-1.5 8 3 15t12.5 8q79 18 142 69.5T794 322q36 73 36 154 0 109-59 197l-45-51q39-66 39-145.5T725 329q-39-66-105-105-68-40-147-40t-147 40q-66 39-105 105-40 68-40 147t40 148q39 66 105 105 68 40 147 40 81 0 152-43l50 45q-44 31-95.5 47T473 834q-97 0-180-49-81-48-128-129-49-83-49-180 0-81 35.5-153.5t98.5-124Q313 147 392 129q8-2 12-9t2-15q-2-8-8.5-12.5T383 90q-87 21-158 79-69 56-108.5 137T77 476q0 108 54 200 53 90 142 143 93 54 200 54 64 0 123-19t109-56l29 25q-56 43-123 65.5T473 911zm411-42q-12 4-13 14l-17 59-52-52q-17-17-14.5-42t20-42.5q17.5-17.5 42-19.5t41.5 15l52 52-59 16z"/></svg>