<svg viewBox="0 0 1244 1083.753" xmlns="http://www.w3.org/2000/svg"><path d="M987 549q12-28 12-48t-12-48l-1-3q-7-19-7-27-1-14 2-34v-1q3-16 4-23 1-13-2-23-4-15-20-41l-4-6q-11-17-13-25-4-10-6-33l-1-6q-3-28-10-40-9-18-35-39-2-1-4-3-4-4-10.5-3.5t-10.5 5q-4 4.5-3.5 10.5t5.5 10l3 3 1 1q22 18 28 29 4 9 7 30l1 7q2 26 7 39.5t18 32.5l3 4q13 20 15.5 30.5T953 384q-5 23-4 42 3 17 11 37 10 26 10 38t-10 38q-8 20-11 37-1 19 4 42v2q4 23 2 33-3 12-17 33l-2 3q-13 19-18 32.5t-7 39.5l-1 7q-3 21-7 29-6 12-28 30l-4 4q-16 14-22 22-8 10-19 33l-1 3q-9 23-16.5 30.5T794 933q-7 3-21 8-22 8-31 15h-1q-22 16-49 16t-49-16l-1-1q-10-7-30-14l-2-1q-13-5-20-8-11-5-17-12-9-8-18-31l-1-3q-11-23-18-33-4-5-13-14 15-15 22-28 8-16 10-46l2-10q2-16 4-23t10-20l5-7 2-2q17 53 44 97 19 31 41 56 14 15 19 19t10.5 4q5.5 0 8.5-4 5-3 21-20 23-26 43-61 27-45 45-102 22-72 26-156 1-6-3.5-10.5t-10.5-5q-6-.5-10.5 4T807 535q-6 139-66 243-23 40-49 66-24-25-44-60-33-53-51-119l2-5q4-19-2-47v-2q-4-22-3-32 1-8 8-26l1-4q12-28 12-48t-12-48l-1-4q-7-18-8-26-1-10 3-32v-2q5-29 2-47l-2-6q18-65 51-119 20-34 44-59 36 36 65 96 44 94 50 213 0 6 4.5 10t10.5 4q6 0 10.5-4.5T836 466q-4-84-26-156-18-57-45-102-20-35-43-61-16-17-20.5-20.5T692 123q-5 0-9 4-6 4-20 19-22 25-41 56-27 44-44 97l-1-1q0-1-1-1l-5-7q-8-13-10-20t-4-23l-2-10q-2-30-10-46-7-13-22-28 9-9 13-14 7-10 18-33l1-3q9-23 18-31 11-11 39-21 20-7 30-15h1q22-16 49-16t49 16l2 1q8 6 30 14 14 5 21 8 11 6 18 13t16 27q2 5 7.5 7t11 0q5.5-2 8-8t-.5-11q-9-25-22-36-10-10-24-17-9-5-24.5-10.5T759 22h-1Q729 1 692.5 1T626 22h-1q-9 6-24.5 11.5T576 44q-14 7-24 17-12 12-24 40l-3 7q-7 17-12 23.5T500 144q-7-6-12.5-12.5T475 108l-3-7q-12-28-24-40-10-10-24-17-9-5-24.5-10.5T375 22h-1Q344 1 307.5 1T242 22h-1q-9 6-24.5 11.5T192 44q-14 7-24 17-8 7-14 18-3 6-9 20l-3 6q-2 6 0 11.5t7.5 8q5.5 2.5 11.5 0t8-7.5l2-4q9-23 17-31 13-12 39-21 22-8 30-14l2-1q22-16 49-16t49 16l1 1q8 5 26 13l6 2q14 5 20 8 11 5 18.5 12.5T445 113l1 3q11 23 19 34t26 25q22 18 27.5 28.5T526 240l1 9q3 21 7 31 5 14 18 33l2 3q14 21 16 31.5t-2 36.5q-4 26-3 42 1 13 11 38t10 37q0 12-10 37t-11 38q-1 16 3 42v2q4 23 2 33-2 12-16 33l-2 3q-13 19-18 33-4 10-7 31l-1 9q-2 26-7 35-6 12-28 30-15 12-24 22H149q-5-6-18-17l-6-5q-22-18-28-30-5-9-7-35l-1-9q-3-21-7-31-5-14-18-33l-2-3q-14-21-16.5-32.5T48 618q4-26 2-42.5T40 539q-10-26-10-38t10-38q8-20 10-36.5T48 384q-6-24-3-35.5T62 316l2-3q13-19 18-33 4-10 7-31l1-9q2-26 6.5-35.5T118 181l4-4q5-4 5.5-10t-3.5-10.5q-4-4.5-10-5t-11 3.5q-23 19-32 36-7 12-10 40l-1 6q-2 23-5 33-2 7-10 20l-5 7q-19 27-22.5 45t1.5 47v2q4 22 3 32-1 8-8 26l-1 4Q1 481 1 501t12 48l1 4q7 18 8 26 1 10-3 32v2q-6 28-2 46.5T40 705l5 7q8 13 10 20 3 10 5 33l1 6q3 28 10 40 9 18 35 39l2 1q15 12 20 19 6 9 16 31l1 2q6 14 9 20 6 11 14 18 10 10 24 17 9 5 24.5 10.5T241 980h1q30 21 66 21t66-21h1q9-6 24.5-11.5T424 958q14-7 24-17 12-12 24-40l3-7q7-17 12.5-23.5T500 858q8 6 13 12.5t12 23.5l3 7q12 28 24 40 10 10 24 17 9 5 24.5 10.5T625 980h1q30 21 66 21t66-21h1q9-6 24.5-11.5T808 958q14-7 24-17 8-7 14-18 3-6 9-20l1-2q10-22 16-31 5-7 20-19l2-1q26-21 35-39 7-12 10-40l1-6q2-23 6-33 2-8 13-25l4-6q16-26 20-41.5t-2-46.5q-3-20-2-34 0-8 7-27l1-3zM445 889q-9 23-16.5 30.5T410 932q-6 3-20 8l-6 2q-18 8-26 13l-1 1q-22 16-49 16t-49-16l-2-1q-8-6-30-14-14-5-21-8-11-6-18.5-13.5T171 889l-5-10h284l-5 10zm205-543q-7 0-11.5 4t-4.5 10q-6 66-6 141t6 141q0 6 4.5 10t9.5 4h2q6-1 10-5.5t3-10.5q-5-55-5-139t5-139q1-6-3-10.5t-10-5.5zm85 310h1q6 0 10-4t5-10q5-73 5-141t-5-141q-1-6-5.5-10t-10.5-3.5q-6 .5-10 5t-4 10.5q6 66 6 139t-6 139q0 6 4 10.5t10 5.5zm-450 66q0 17 10 33v1q6 9 6 19 0 6 4.5 10.5T316 790q6 0 10-4.5t4-10.5q0-18-10-34-5-10-5-19t5-19q10-14 10-34t-10-34q-5-10-5-19t5-19q10-16 10-35t-10-33q-5-10-5-20t5-18q10-16 10-34.5T320 422q-5-8-5-18t5-20q10-14 10-34 0-12-3-21-2-5-7-14t-5-18q0-9 5-19 10-14 10-34t-10-34q-5-10-5-19t5-19q10-16 10-34 0-6-4-10.5t-10-4.5q-6 0-10.5 4.5T301 138q0 10-6 19v1q-10 16-10 33t10 33v1q6 9 6 19t-6 19l-2 3q-8 16-8 32t10 32v1q6 9 6 19 0 7-1 10.5t-5 8.5l-2 3q-8 16-8 32t9 32l1 1q3 5 4.5 9t1.5 11q0 10-6 19l-1 1q-9 16-9 32t8 31l2 4q4 5 5 8.5t1 10.5q0 7-1 10.5t-5 8.5v1q-10 16-10 32t8 32l2 3q6 9 6 19t-6 19l-2 3q-8 16-8 31zm123-29q-12 16-14 25-3 14-2 25 1 6 4 15 2 4 2 7t-2 8.5q-2 5.5 1 11t9 7.5h4q5 0 9-3t5-7q3-11 3-20 0-6-3-14-2-5-2.5-9.5T423 725q1-3 6-11l6-8q12-18 14-31 2-10-2-28l-3-11q-3-12-2-16.5t7-14.5l2-4q12-18 13.5-32t-6.5-35l-1-2q-5-14-4.5-20.5T460 493q10-20 10-33.5T460 426l-2-5q-4-11-4.5-15.5T456 391l2-6q8-22 7-35.5T452 318l-3-6q-5-10-6-14t1-14l1-7q6-22 3-35-2-6-6.5-9.5t-10.5-2q-6 1.5-9 6.5t-2 11q1 6-3 22l-1 4q-4 18-2 28.5t12 28.5l1 2q8 14 9 19.5t-4 18.5l-1 4q-8 18-7.5 31.5T434 438l3 7q4 10 4 14.5t-6 17.5l-2 4q-9 19-9.5 29.5T429 540l2 6q5 14 4.5 19t-8.5 19l-1 2q-10 15-13 29-1 11 3 31l2 6q3 13 2 18.5t-8 17.5l-4 5zM158 372q-11 20-11.5 32.5T155 438v1q5 9 7 20 0 7-7 21-8 20-7.5 32.5T158 545l1 2q8 14 8.5 18.5T165 582l-3 10q-6 19-4 30 2 14 15 33l3 5q5 9 6 12 1 11-2 26-5 18-2 31.5t9 22.5q3 5 11 12 6 6 9 13 3 11 14 11l4-1q6-2 9-7.5t1-11.5q-4-13-16-24l-2-2q-4-3-6.5-7t-4.5-13q-1-3 1-12l1-6q5-20 3-37-2-8-10-23l-3-5q-10-14-11-21t4-21q6-20 5-34-1-10-10-27l-3-6q-6-13-6.5-18t4.5-19l3-6q7-18 7-28t-7-28l-3-7q-5-13-5-18t6-18l2-3q10-18 12-31 1-10-5-28l-1-4q-4-16-3.5-21.5T195 284l2-3q12-18 15-30 1-6-2.5-10.5t-9-6Q195 233 190 236t-6.5 8q-1.5 5-6.5 14l-4 6q-14 18-15.5 31.5T162 331q5 13 4 20 0 5-6 18l-2 3z"/></svg>