<svg viewBox="0 0 1244 1083.753" xmlns="http://www.w3.org/2000/svg"><path d="M976 164q-3-11-11-19t-19-12l-48-16q-37-12-74.5-9T752 128l-3-6-2-2q-11-14-29-16.5T687 114l-6 5-9-9q-4-4-10-4.5t-10.5 3.5q-4.5 4-4.5 10t4 11q20 20 31 46.5t11 55.5v81h-60q-52 0-91-34l-16-16q-11-10-26-10t-26 10l-16 16q-39 34-91 34h-60v-81q0-29 11-55.5t31-46.5q5-5 5-11t-5-10q-5-4-11-3.5t-10 4.5l-9 9-6-5q-13-13-31-10.5T253 120l-5 8q-34-17-71.5-20t-74.5 9l-48 16q-22 8-30 31-4 11-2.5 22t8.5 21l9 13q3 5 9 6t11-2.5q5-3.5 6.5-9.5T63 203l-9-13q-6-8-3-17t13-12l47-16q30-10 62.5-7.5T235 154q-13 32-13 62-17 2-32.5 11.5T164 252l-18 26q-4 9-16 9-10 0-16-9l-18-26q-3-5-9-6t-11 2.5q-5 3.5-6 9.5t2 11l18 26q7 10 17.5 15.5T130 316h1q12 0 22.5-5.5T171 295l17-27q14-18 36-23 3 13 12 22t22 11l20 3v72h-13q-27 0-46.5 19.5T199 420q0 28 19.5 47t46.5 19h14q3 43 25.5 80.5T365 627l13 8q3 2 11 6v52l-163 62q-46 17-77 54.5T109 895l-8 43q-5 24 11.5 43.5T154 1001h692q25 0 42-19 8-9 10.5-20.5t.5-23.5l-8-43q-6-34-24-63t-45-50q-4-4-10-3.5t-10 5.5q-4 5-3.5 11t5.5 10q23 17 38 41.5t20 53.5l8 43q3 10-4.5 19.5T846 972H745l-11-49q-2-6-7-9t-10.5-2q-5.5 1-9 6t-2.5 11l10 43H285l10-43q1-6-2-11t-9-6q-6-1-11 2t-7 9l-11 49H154q-11 0-18.5-8.5T130 943l8-43q8-40 34-71.5t64-46.5l96-36q4 42 28 77t60.5 55q36.5 20 79.5 20t79.5-20q36.5-20 60.5-55t28-77l84 32q5 2 11-.5t7.5-8.5q1.5-6-1-11.5T762 750l-151-57v-52q8-4 11-6l13-8q38-23 60.5-60.5T721 486h14q27 0 46.5-19.5T801 420q0-27-19.5-47T735 353h-13v-72l20-3q13-2 22-11t12-22q22 5 36 23l17 27q7 10 17.5 15.5T870 316q12 0 22.5-5.5T910 295l60-88q7-10 8.5-21t-2.5-22zm-713 85q-10-2-10-11l-1-11q-3-51 25-90 3-4 8-4h1q5 0 8 2l8 8q-24 40-24 89v19l-15-2zm-34 171q0-16 10.5-26.5T265 383h13v22h-10q-6 0-10.5 4t-4.5 10.5q0 6.5 4.5 10.5t10.5 4h10v22h-13q-15 0-25.5-10.5T229 420zm382 305l28 10q-1 36-20 66.5T568.5 850Q537 868 500 868t-68.5-18Q400 832 381 801.5T361 735l28-10v3q0 30 15 55.5t40.5 40.5q25.5 15 55.5 15t55.5-15q25.5-15 40.5-40.5t15-55.5v-3zm-29 3q0 34-24 58t-58 24q-34 0-58-24t-24-58v-73q40 14 82 14t82-14v73zm37-126l-12 8q-49 30-106.5 30T393 610l-12-8q-35-21-54.5-56T307 470V343h60q31 0 59.5-11t50.5-32l17-15q2-2 6-2t6 2l17 15q22 21 50.5 32t59.5 11h60v127q0 41-19.5 76T619 602zm116-219q15 0 26 10.5t11 26q0 15.5-11 26T735 456h-13v-22h10q6 0 10.5-4t4.5-10q0-6-4.5-10.5T732 405h-10v-22h13zm13-156l-1 11q0 9-9 11l-16 2v-19q0-49-24-89l8-8q5-4 9-2 5 0 8 4 28 39 25 90zm198-37l-60 88q-6 9-16 9-11 0-16-9l-18-26q-10-15-25.5-24.5T778 216q0-30-13-62 30-14 62-16.5t62 7.5l47 16q10 3 13 12t-3 17zM461 397q0-6-4-10.5t-10-4.5h-69q-6 0-10 4.5t-4 10.5q0 6 4 10t10 4h69q6 0 10-4t4-10zm161-15h-69q-6 0-10 4.5t-4 10.5q0 6 4 10t10 4h69q6 0 10-4t4-10q0-6-4-10.5t-10-4.5zm-93 151l-6 1q-24 8-50 0l-5-1q-6-2-11.5 1t-7 9q-1.5 6 1.5 11.5t9 6.5l6 2q13 4 31.5 4t33.5-4l6-2q5-2 8-7t2-11q-1-6-6.5-9t-11.5-1zM390 111q12 7 22 7 6 0 16-4l33-14q14 11 33 11h12q19 0 33-11l33 14q10 4 16 4 10 0 22-7 8-5 13-14t5-19V41q0-21-18-34-19-11-38-3l-33 15Q524 7 506 7h-12q-18 0-33 12L428 4q-19-8-38 3-18 13-18 34v37q0 10 5 19t13 14zm193-80q5-2 11 1 4 2 4 9v37q0 5-4.5 8T583 87l-27-12q2-5 2-16t-2-16l27-12zm-89 6h12q10 0 16.5 6.5T529 59q0 9-6.5 16T506 82h-12q-10 0-16.5-6.5T471 59q0-10 6.5-16t16.5-6zm-92 4q0-5 4-9 2-2 5.5-2t5.5 1l27 12q-2 5-2 16t2 16l-27 12q-6 2-10.5-1t-4.5-8V41z"/></svg>