<svg viewBox="0 0 1244 1083.753" xmlns="http://www.w3.org/2000/svg"><path d="M249 738q-37 32-57 76.5T172 908v71q0 7 4.5 11t10.5 4q6 0 10.5-4t4.5-11v-71q0-42 17.5-81t49.5-67q4-4 4.5-10t-4-11q-4.5-5-10.5-5t-10 4zm456-27l-138-79v-24q24-10 47-31 4-4 4.5-10t-3.5-11q-4-5-10-5t-11 5q-20 18-45 28t-52 10q-39 0-72-19t-52-52q-19-33-19-72V307l38-11q23-6 46 0l36 9q38 9 75-6 24-9 44-6l46 6v152q0 30-12 59-2 5 0 11t7 8q2 1 6 1 10 0 14-9 15-33 15-70v-12h8q22 0 37-15t15-37q0-25-19-41l14-54q26-16 35.5-43.5T759 195q-10-26-34-41l-30-18v-2q-14-44-51-70.5T561 39q-3 0-9-1l-2-1-44-21Q474 0 439 .5t-67 17Q340 34 319.5 62T293 125l-36 32q-24 23-28 55t14 60q9 16 28 28l12 46q-19 16-19 41 0 22 15 37t37 15h8v12q0 51 27.5 93t72.5 63v25l-117 67q-6 3-7.5 9t1.5 11q5 8 13 8 3 0 7-2l104-60q4 26 24 43t47 17q27 0 46.5-17t23.5-43l124 71q47 27 73.5 73t26.5 99v71q0 7 4 11t10 4q6 0 10.5-4t4.5-11v-71q0-61-30.5-114T705 711zm-28-301h-8v-46h8q10 0 16.5 6.5T700 387q0 10-6.5 16.5T677 410zm5-75h-13v-33l5 1h17l-9 32zM277 179l39-36q3-2 5-8l1-5q5-28 22-50.5t42.5-36Q412 30 440.5 30T493 42l45 21q11 7 24 5 36-2 65.5 19t39.5 55l2 7q2 6 6 9l35 21q15 9 21 26t.5 34q-5.5 17-21 26.5T677 273l-80-9q-31-3-58.5 8.5T481 276l-36-9q-28-7-61 1l-50 14q-20 5-38-2t-29.5-24.5Q255 238 258 216t19-37zm28 133q4 1 13 1h6v22h-13l-6-23zm11 98q-10 0-16.5-7t-6.5-16q0-9 6.5-16t16.5-7h8v46h-8zm180 286q-18 0-30.5-12.5T453 654v-36q18 5 44 5 24 0 41-5v36q0 17-12.5 29.5T496 696zm456-165l-62-62q-5-5-13-5t-14 5l-62 62q-9 9-4 21 2 5 7 8.5t10 3.5h19q-1 44-30 84l-6 9q-4 5-4 12t4 12q6 8 16 8 4 0 8-2l24-12q32-16 52.5-46t21.5-65h20q6 0 11-3.5t7-8.5q4-12-5-21zm-47 3q-6 0-10.5 4.5T890 549v8q0 27-13.5 51T840 645q23-43 23-91v-5q0-6-4.5-10.5T848 534h-9l38-37 37 37h-9zm-30-90q31 0 57.5-15.5t42-42Q990 360 990 329t-15.5-57.5Q959 245 933 230t-57.5-15q-31.5 0-58 15.5t-42 41.5Q760 298 760 329t15.5 57.5q15.5 26.5 42 42T875 444zm0-200q35 0 60.5 25t25.5 60q0 35-25.5 60.5T875 415q-35 0-60-25t-25-61q0-36 25-60.5t60-24.5zM196 681q4-5 4.5-12t-3.5-12l-7-9q-27-37-30-84h19q5 0 10-3.5t7-8.5q5-12-4-21l-62-62q-5-5-13.5-5t-13.5 5l-62 62q-9 9-4 21t17 12h20q1 35 21.5 65t52.5 46l24 12q4 2 8 2 10 0 16-8zm-42-36q-24-13-37.5-37T103 557v-8q0-6-4.5-10.5T88 534h-9l37-37 38 37h-9q-6 0-10.5 4.5T130 549v5q0 49 24 91zm-36-201q31 0 57.5-15.5t42-42Q233 360 233 329t-15.5-57.5Q202 245 175.5 230T118 215q-24 0-47 9-5 3-7 8.5t0 11q2 5.5 8 7.5t11 0q15-7 35-7 35 0 60 25t25 60q0 35-25 60.5T118 415q-35 0-60.5-25T32 329q0-22 11-41 3-5 1.5-11t-7-9q-5.5-3-11.5-1.5t-8 6.5Q3 298 3 329t15.5 57.5q15.5 26.5 42 42T118 444zm-15-63q5 0 11-4l57-58q5-4 5-10t-4.5-10.5Q167 294 161 294t-11 5l-47 46-6-6q-4-5-10-5t-10.5 4.5Q72 343 72 349t4 11l17 17q6 4 10 4zm732-9q4 4 10.5 4t9.5-4l19-20 19 20q4 4 10.5 4t11-4q4.5-4 4.5-10.5t-5-10.5l-20-21 20-21q5-5 5-11t-5-10q-5-4-11-3.5t-10 4.5l-19 20-19-20q-4-4-9.5-4.5t-10 3.5q-4.5 4-5 10t3.5 11l20 21-20 21q-4 5-3.5 11t4.5 10z"/></svg>