<svg viewBox="0 0 1244 1083.753" xmlns="http://www.w3.org/2000/svg"><path d="M956 346h-55v-17q0-17-11.5-28.5T861 289h-36q-16 0-28 11.5T785 329v17H634l-16-35h92q20 0 34-14t14-34V49q0-20-14-34T710 1H380q-20 0-34 14t-14 34v214q0 20 14 34t34 14h92l-16 35H258V235q0-14-10.5-24T223 201h-66q-14 0-24 10t-10 24v6h-7q-19 0-32 13t-13 32q0 19 13 32t32 13h7v15H44q-18 0-31 13T0 390v23q0 18 13 31t31 13h31v510q0 14 10 24t24 10h27q14 0 24-10t10-24v-64h146v64q0 14 10 24t24 10h27q14 0 24-10t10-24V543h418v424q0 14 10 24t24 10h28q14 0 24-10t10-24V457h31q18 0 31-13t13-31v-23q0-18-13-31t-31-13zm-142-17q0-4 3.5-7t7.5-3h36q4 0 7.5 3t3.5 7v17h-58v-17zM361 49q0-8 6-13.5t13-5.5h330q8 0 13.5 5.5T729 49v164H361V49zm0 214v-21h368v21q0 8-5.5 13.5T710 282H380q-8 0-13.5-5.5T361 263zm144 48h80l17 35H489l16-35zm-389-9q-7 0-11.5-4.5T100 286q0-7 4.5-11.5T116 270h7v32h-7zm36-67q0-5 5-5h66q5 0 5 5v111h-76V235zm-48 547h278v91H104v-91zm278-30H104v-89h278v89zM140 967q0 5-4 5h-27q-5 0-5-5v-64h36v64zm242 0q0 5-5 5h-27q-2 0-3.5-1.5T345 967v-64h37v64zm0-333H104v-91h278v91zm514 333q0 5-5 5h-28q-5 0-5-5V543h38v424zm0-454H104v-56h792v56zm75-100q0 6-4.5 10.5T956 428H44q-6 0-10.5-4.5T29 413v-23q0-6 4.5-10.5T44 375h912q6 0 10.5 4.5T971 390v23zM243 811q-7 0-11.5 4.5T227 827q0 7 4.5 12t11.5 5q7 0 11.5-5t4.5-12q0-7-4.5-11.5T243 811zm-80-635q6 0 10-4t4-10v-34q0-6-4-10.5t-10-4.5q-6 0-10.5 4.5T148 128v34q0 6 4.5 10t10.5 4zm55 0q6 0 10-4t4-10v-34q0-6-4-10.5t-10-4.5q-6 0-10.5 4.5T203 128v34q0 6 4 10t11 4z"/></svg>