<svg viewBox="0 0 1244 1083.753" xmlns="http://www.w3.org/2000/svg"><path d="M327 578q0-6-4-10t-10-4h-20q-6 0-10.5 4t-4.5 10q0 6 4.5 10.5T293 593h20q6 0 10-4t4-11zm-14 134h19q6 0 10.5-4t4.5-10q0-6-4.5-10.5T332 683h-19q-7 0-11 4.5t-4 10.5q0 6 4 10t11 4zm93-41h19q6 0 10.5-4.5T440 656q0-6-4.5-10t-10.5-4h-19q-6 0-10.5 4t-4.5 10q0 6 4.5 10.5T406 671zm96 81q6 0 10.5-4t4.5-10q0-6-4.5-10.5T502 723h-20q-6 0-10 4.5t-4 10.5q0 6 4 10t10 4h20zm119-151q0 6 4.5 10t10.5 4h20q6 0 10-4t4-10q0-6-4-10.5t-10-4.5h-20q-6 0-10.5 4.5T621 601zm123-63h20q6 0 10.5-4t4.5-10.5q0-6.5-4.5-10.5t-10.5-4h-20q-6 0-10.5 4t-4.5 10q0 6 4.5 10.5T744 538zm252-47L852 347V164q0-6-4.5-10.5T837 149h-88q-6 0-10 4.5t-4 10.5q0 6 4 10t10 4h74v175q0 6 4 10l138 138-138 138q-4 4-4 10v174H648q-5 0-10 5L500 966 362 828q-5-5-10-5H178V649q0-5-5-10L35 501l138-138q5-5 5-10V178h174q6 0 10-4L500 36l138 138q4 4 10 4h33q6 0 10-4t4-10q0-6-4-10.5t-10-4.5h-27L510 5q-4-4-10-4t-10 4L346 149H163q-6 0-10.5 4.5T148 164v183L4 491q-4 4-4 10t4 10l144 144v183q0 6 4.5 10.5T163 853h183l144 144q4 4 10.5 4t9.5-4l144-144h183q6 0 10.5-4.5T852 838V655l144-144q4-4 4-10t-4-10zM758 228H622L510 117q-4-5-10-5t-10 5L378 228H242q-6 0-10.5 4.5T227 243v136L116 491q-4 3-4 10t4 10l111 112v136q0 6 4.5 10.5T242 774h29q6 0 10.5-4.5T286 759q0-6-4.5-10t-10.5-4h-15V616q0-6-4-10L147 501l8-8q15-15 34.5-23t41-7q21.5 1 41 9.5T305 497q75 81 169 130 123 65 270 68v50H616q-7 0-11 4L500 854 395 749q-4-4-10-4h-45q-7 0-11 4t-4 10q0 6 4 10.5t11 4.5h38l112 111q4 4 10.5 4t9.5-4l112-111h136q6 0 10.5-4.5T773 759V623l111-112q4-3 4-10t-4-10L773 379V243q0-6-4.5-10.5T758 228zm29 206h-18q-27 0-52 11.5T673 477q-16 19-38 39-5 4-5 10.5t4 10.5q4 4 10.5 4t10.5-3q14-13 40-41 31-32 75-34 21-1 40.5 7t34.5 23l8 8-105 105q-4 4-4 10v50q-114-3-210-43 32-17 66-41 5-4 6-10t-3-10.5q-4-4.5-9.5-5.5t-10.5 2q-40 29-83 50-100-49-173-131-19-20-44-31.5T231 434q-4-1-12 0h-5l38-38q4-4 4-11V257h129q6 0 10-4l105-105 105 105q4 4 11 4h128v128q0 7 4 11l39 38zM500 318q-32 0-54.5 23T423 396q0 32 22.5 54.5T500 473q32 0 54.5-22.5T577 396q0-32-22.5-55T500 318zm0 126q-19 0-33.5-14.5t-14.5-34q0-19.5 14.5-33.5t34-14q19.5 0 33.5 14t14 34q0 20-14 34t-34 14zm0-145q6 0 10.5-4.5T515 284v-10q0-6-4.5-10.5T500 259q-6 0-10 4.5t-4 10.5v10q0 6 4 10.5t10 4.5zm0 194q-6 0-10.5 4.5T485 508v10q0 6 4.5 10t10.5 4q6 0 10-4t4-10v-10q0-6-4-10.5t-10-4.5zm-68-187q3 7 12 7 5 0 8-2 5-3 6.5-9t-1.5-11l-5-8q-3-5-9-7t-11 1.5q-5 3.5-6.5 9.5t1.5 11l5 8zm137 180q-3-5-9-7t-11 1q-5 3-7 9t1 11l5 9q4 7 13 7 5 0 7-2 5-3 7-9t-2-11l-4-8zM410 327l-8-5q-5-3-11-1.5t-9 6.5q-3 5-1.5 11t6.5 9l9 5q2 2 7 2 9 0 12.5-6t1.5-12q-2-6-7-9zm203 117l-9-5q-5-3-11-1t-9 7q-3 5-1 11t7 9l8 5q4 2 7 2 8 0 13-8 3-5 1.5-11t-6.5-9zm-210-48q0-6-4.5-10.5T388 381h-10q-6 0-10 4.5t-4 10.5q0 6 4 10t10 4h10q6 0 10.5-4t4.5-10zm219-15h-10q-6 0-10.5 4.5T597 396q0 6 4.5 10.5T612 411h10q6 0 10.5-4.5T637 396q0-6-4.5-10.5T622 381zm-226 58l-9 5q-5 3-6.5 9t1.5 12q3 6 12 6 5 0 8-2l8-5q5-3 7-9t-1-11q-3-5-9-6.5t-11 1.5zm201-84q2 0 6-1l2-1 8-5q5-3 6.5-9t-1.5-11q-3-5-9-7t-11 1l-8 5q-5 3-7 9t1 11q5 8 13 8zM451 480q-5-3-11-1.5t-9 6.5l-5 9q-3 5-1 11t6.5 8.5q4.5 2.5 7.5 2.5 8 0 13-7l5-9q3-5 1-11t-7-9zm98-168q4 2 7 2 8 0 13-8l5-8q3-5 1.5-11t-6.5-9q-5-3-11-1.5t-9 6.5l-5 9q-3 5-1.5 11t6.5 9z"/></svg>