<svg viewBox="0 0 1244 1083.753" xmlns="http://www.w3.org/2000/svg"><path d="M981 942q17-28 18.5-60T987 821L749 345q-1 0-1-1L611 70q-16-32-46-50.5T500 1q-35 0-65 18.5T389 70L252 344q-1 0-1 1L13 821Q-1 850 .5 882T19 942q17 28 45 43.5t61 15.5h750q33 0 61.5-15.5T981 942zM277 368h446l142 283H135l142-283zM419 85q11-23 33-37t48-14q26 0 48 14t33 37l125 249H294L419 85zm456 883H125q-24 0-44.5-12t-33-32Q35 904 34 880.5t9-44.5l76-152h762l76 152q11 21 10 45t-14 43.5Q940 944 919.5 956T875 968zM500 301q28 0 47.5-19.5T567 234q0-7-5-11.5t-12-4.5q-7 0-12 4.5t-5 11.5q0 14-9.5 24T500 268q-14 0-23.5-10t-9.5-24v-66q0-14 9.5-24t23.5-10q14 0 23.5 10t9.5 24q0 7 5 11.5t12 4.5q7 0 12-4.5t5-11.5q0-28-19.5-47.5T500 101q-28 0-47.5 19.5T433 168v66q0 28 19.5 47.5T500 301zm-50 317q7 0 12-5t5-12v-67h41q24 0 41.5-17t17.5-41q0-24-17.5-41T508 418h-58q-7 0-12 4.5t-5 11.5v167q0 7 5 12t12 5zm17-167h41q11 0 18 7t7 17.5q0 10.5-7 18t-18 7.5h-41v-50zm83 317q7 0 12-5t5-12q0-7-5-12t-12-5H450q-7 0-12 5t-5 12v167q0 7 5 11.5t12 4.5q7 0 12-4.5t5-11.5v-67h83q7 0 12-5t5-12q0-7-5-11.5t-12-4.5h-83v-50h83zM125 901q-15 0-22-11.5t0-23.5q4-8-2-16.5t-14.5-8Q78 842 73 851q-7 14-6 28.5t9 27.5q8 13 21 20.5t28 7.5q7 0 11.5-5t4.5-12q0-7-4.5-12t-11.5-5z"/></svg>