<svg viewBox="0 0 1244 1083.753" xmlns="http://www.w3.org/2000/svg"><path d="M939 333q6 0 6-6t-6-6q-6 0-6 6 0 2 2 4t4 2zm0 39q6 0 6-6t-6-6q-6 0-6 6 0 2 2 4t4 2zm21 19q2 0 4-2t2-4q0-2-2-4t-4-2q-2 0-4.5 2t-2.5 4q0 2 2 4t5 2zm-21 20q6 0 6-6t-6-6q-6 0-6 6 0 2 2 4t4 2zm21 19q2 0 4-2t2-4q0-2-2-4t-4-2q-2 0-4.5 2t-2.5 4q0 2 2 4t5 2zm-21 20q6 0 6-6t-6-6q-6 0-6 6 0 2 2 4t4 2zm21 19q2 0 4-2t2-4q0-2-2-4t-4-2q-2 0-4.5 2t-2.5 4q0 2 2 4t5 2zm-21 20q6 0 6-6t-6-6q-6 0-6 6 0 2 2 4t4 2zm21 19q2 0 4-2t2-4q0-2-2-4t-4-2q-2 0-4.5 2t-2.5 4q0 2 2 4t5 2zm-21 20q6 0 6-6t-6-6q-6 0-6 6t6 6zm21 19q6 0 6-6t-6-6q-2 0-4.5 2t-2.5 4q0 6 7 6zm-21 21q6 0 6-6.5t-6-6.5q-6 0-6 6 0 3 2 5t4 2zm21 18q6 0 6-6t-6-6q-2 0-4.5 2t-2.5 4q0 6 7 6zm-21 21q6 0 6-6 0-3-1.5-5t-4.5-2q-6 0-6 7 0 2 2 4t4 2zm21 18q6 0 6-6t-6-6q-2 0-4.5 2t-2.5 4q0 6 7 6zm-21 21q6 0 6-6t-6-6q-6 0-6 6 0 2 2 4t4 2zm0 39q6 0 6-6t-6-6q-6 0-6 6 0 2 2 4t4 2zm-39-430q6 0 6-6t-6-6q-6 0-6 6 0 2 2 4t4 2zm0 39q6 0 6-6t-6-6q-6 0-6 6 0 2 2 4t4 2zm20 19q3 0 5-2t2-4q0-2-2-4t-5-2q-6 0-6 6 0 2 2 4t4 2zm-20 20q6 0 6-6t-6-6q-6 0-6 6 0 2 2 4t4 2zm20 19q3 0 5-2t2-4q0-2-2-4t-5-2q-6 0-6 6 0 2 2 4t4 2zm0 39q3 0 5-2t2-4q0-2-2-4t-5-2q-6 0-6 6 0 2 2 4t4 2zm0 222q-2 0-4 2t-2 4q0 6 6 6 3 0 5-1.5t2-4q0-2.5-2-4.5t-5-2zm0 39q-2 0-4 2t-2 4q0 6 6 6 3 0 5-1.5t2-4q0-2.5-2-4.5t-5-2zm-20 21q-6 0-6 6 0 2 2 4t4 2q2 0 4-2t2-4q0-6-6-6zm20 18q-2 0-4 2t-2 4q0 6 6 6 3 0 5-1.5t2-4q0-2.5-2-4.5t-5-2zm-20 21q-6 0-6 6 0 2 2 4t4 2q2 0 4-2t2-4q0-6-6-6zm0 39q-6 0-6 6 0 2 2 4t4 2q2 0 4-2t2-4q0-6-6-6zm-39-535q2 0 4-2t2-4q0-2-2-4t-4-2q-2 0-4 2t-2 4q0 2 2 4t4 2zm20 19q6 0 6-6t-6-6q-6 0-6 6 0 2 2 4t4 2zm-20 20q2 0 4-2t2-4q0-2-2-4t-4-2q-2 0-4 2t-2 4q0 2 2 4t4 2zm20 19q6 0 6-6t-6-6q-6 0-6 6 0 2 2 4t4 2zm-20 59q2 0 4-2t2-4q0-2-2-4t-4-2q-2 0-4 2t-2 4q0 2 2 4t4 2zm20 292q6 0 6-6t-6-6q-6 0-6 6t6 6zm-20 21q2 0 4-2t2-4q0-2-2-4t-4-2q-6 0-6 6 0 2 2 4t4 2zm0 39q2 0 4-2t2-4q0-2-2-4t-4-2q-6 0-6 6 0 2 2 4t4 2zm20 45q-2 0-4 2t-2 4.5q0 2.5 2 4.5t4 2q2 0 4-2t2-4q0-7-6-7zm-20 21q-6 0-6 6 0 2 2 4t4 2q2 0 4-2t2-4q0-6-6-6zm20 19q-6 0-6 6 0 2 2 4t4 2q2 0 4-2t2-4q0-6-6-6zm-20 20q-6 0-6 6 0 2 2 4t4 2q2 0 4-2t2-4q0-6-6-6zm-39-613q2 0 4-2t2-4q0-2-2-4t-4-2q-6 0-6 6t6 6zm20 19q6 0 6-6t-6-6q-6 0-6 6 0 2 2 4t4 2zm0 39q6 0 6-6t-6-6q-6 0-6 6 0 2 2 4t4 2zm-20 59q2 0 4-2t2-4q0-2-2-4t-4-2q-2 0-4 2t-2 4q0 2 2 4t4 2zm20 19q6 0 6-6t-6-6q-6 0-6 6 0 2 2 4t4 2zm-20 20q2 0 4-2t2-4q0-2-2-4t-4-2q-2 0-4 2t-2 4q0 2 2 4t4 2zm20 19q6 0 6-6t-6-6q-6 0-6 6 0 2 2 4t4 2zm-20 294q2 0 4-2t2-4q0-2-2-4t-4-2q-6 0-6 6 0 2 2 4t4 2zm20 18q6 0 6-6t-6-6q-6 0-6 6t6 6zm-20 21q2 0 4-2t2-4q0-2-2-4t-4-2q-6 0-6 6 0 2 2 4t4 2zm20 18q6 0 6-6t-6-6q-6 0-6 6t6 6zm-20 21q2 0 4-2t2-4q0-2-2-4t-4-2q-6 0-6 6 0 2 2 4t4 2zm20 46q-6 0-6 6 0 2 2 4t4 2q2 0 4-2t2-4q0-6-6-6zm-20 20q-6 0-6 6 0 2 2 4t4 2q2 0 4-2t2-4q0-6-6-6zm20 19q-6 0-6 6 0 2 2 4t4 2q2 0 4-2t2-4q0-6-6-6zm-20 20q-2 0-4 2t-2 4q0 2 2 4t4 2q2 0 4-2t2-4q0-2-2-4t-4-2zm-39-691q2 0 4-2t2-4q0-2-2-4t-4-2q-6 0-6 6t6 6zm20 19q6 0 6-6t-6-6q-6 0-6 6 0 2 2 4t4 2zm-20 20q2 0 4-2t2-4q0-2-2-4t-4-2q-6 0-6 6t6 6zm20 19q6 0 6-6t-6-6q-6 0-6 6 0 2 2 4t4 2zm-20 20q2 0 4-2t2-4q0-2-2-4t-4-2q-2 0-4 2t-2 4q0 2 2 4t4 2zm20 58q6 0 6-6t-6-6q-6 0-6 6 0 2 2 4t4 2zm0 351q6 0 6-6t-6-6q-6 0-6 6t6 6zm-20 9q-6 0-6 6 0 2 2 4t4 2q2 0 4-2t2-4q0-6-6-6zm20 30q6 0 6-6t-6-6q-6 0-6 6t6 6zm-20 9q-6 0-6 6 0 2 2 4t4 2q2 0 4-2t2-4q0-6-6-6zm20 30q6 0 6-6t-6-6q-6 0-6 6t6 6zm-20 9q-6 0-6 6 0 2 2 4t4 2q2 0 4-2t2-4q0-6-6-6zm20 31q6 0 6-6.5t-6-6.5q-6 0-6 6 0 3 2 5t4 2zm-20 8q-6 0-6 6 0 2 2 4t4 2q2 0 4-2t2-4q0-6-6-6zm20 58q-6 0-6 6 0 2 2 4t4 2q2 0 4-2t2-4q0-6-6-6zm-20 20q-2 0-4 2t-2 4q0 2 2 4t4 2q2 0 4-2t2-4q0-2-2-4t-4-2zm20 19q-6 0-6 6 0 2 2 4t4 2q2 0 4-2t2-4q0-6-6-6zm-20 20q-2 0-4 2t-2 4q0 2 2 4t4 2q2 0 4-2t2-4q0-2-2-4t-4-2zM744 99q2 0 4-2t2-4q0-2-2-4t-4-2q-6 0-6 6 0 2 2 4t4 2zm20 19q6 0 6-6.5t-6-6.5q-6 0-6 6 0 3 2 5t4 2zm-20 20q2 0 4-2t2-4q0-2-2-4t-4-2q-6 0-6 6t6 6zm20 19q6 0 6-6t-6-6q-6 0-6 6 0 2 2 4t4 2zm0 495q-2 0-4 2t-2 4q0 6 6 6t6-6q0-6-6-6zm0 39q-2 0-4 2t-2 4q0 6 6 6t6-6q0-6-6-6zm0 39q-2 0-4 2t-2 4.5q0 2.5 2 4.5t4 2q2 0 4-2t2-4q0-7-6-7zm-20 21q-6 0-6 6 0 2 2 4t4 2q2 0 4-2t2-4q0-6-6-6zm20 97q-6 0-6 6 0 2 2 4t4 2q2 0 4-2t2-4q0-6-6-6zm-20 20q-2 0-4 2t-2 4q0 2 2 4t4 2q2 0 4-2t2-4q0-2-2-4t-4-2zm20 19q-2 0-4 2t-2 4q0 2 2 4t4 2q2 0 4-2t2-4q0-6-6-6zM705 99q2 0 4-2t2-4q0-2-2-4t-4-2q-6 0-6 6 0 2 2 4t4 2zm20 19q6 0 6-6.5t-6-6.5q-6 0-6 6 0 3 2 5t4 2zm0 769q-2 0-4 2t-2 4q0 2 2 4t4 2q2 0 4-2t2-4q0-6-6-6zm-20 20q-2 0-4 2t-2 4q0 2 2 4t4 2q2 0 4-2t2-4q0-2-2-4t-4-2zM666 60q2 0 4-2t2-4q0-2-2-4t-4-2q-6 0-6 6t6 6zm20 18q6 0 6-6t-6-6q-2 0-4 2t-2 4q0 6 6 6zm0 770q-6 0-6 6 0 2 2 4t4 2q2 0 4-2t2-4q0-6-6-6zm-20 59q-6 0-6 6t6 6q6 0 6-6 0-2-2-4t-4-2zm20 19q-2 0-4 2t-2 4q0 2 2 4t4 2q2 0 4-2t2-4q0-2-2-4t-4-2zM627 60q2 0 4-2t2-4q0-2-2-4t-4-2q-6 0-6 6t6 6zm20 18q6 0 6-6t-6-6q-2 0-4 2t-2 4q0 6 6 6zm0 848q-2 0-4 2t-2 4q0 2 2 4t4 2q2 0 4-2t2-4q0-2-2-4t-4-2zm-20 20q-6 0-6 6t6 6q6 0 6-6 0-2-2-4t-4-2zm-19-20q-2 0-4 2t-2 4q0 2 2 4t4 2q2 0 4-2t2-4q0-2-2-4t-4-2zm-20 20q-6 0-6 6t6 6q6 0 6-6 0-2-2-4t-4-2zM569 39q6 0 6-6t-6-6q-2 0-4 2t-2 4q0 6 6 6zm0 887q-2 0-4 2t-2 4q0 2 2 4t4 2q2 0 4-2t2-4q0-2-2-4t-4-2zm-20 20q-6 0-6 6t6 6q6 0 6-6 0-2-2-4t-4-2zm20 19q-2 0-4 2t-2 4q0 2 2 4t4 2q2 0 4-2t2-4q0-2-2-4t-4-2zm-39-78q-2 0-4 2t-2 4q0 2 2 4t4 2q2 0 4-2t2-4q0-2-2-4t-4-2zm-20 59q-6 0-6 6t6 6q6 0 6-6 0-2-2-4t-4-2zm20 19q-2 0-4 2t-2 4q0 2 2 4t4 2q2 0 4-2t2-4q0-2-2-4t-4-2zm-59-19q-3 0-5 2t-2 4q0 6 6.5 6t6.5-6q0-2-2-4t-4-2zm20 19q-6 0-6 6t6 6q6 0 6-6 0-2-2-4t-4-2zm-39-117q-6 0-6 6t6 6q6 0 6-6t-6-6zm0 39q-6 0-6 6t6 6q6 0 6-6 0-2-2-4t-4-2zm-21 59q-2 0-4 2t-2 4q0 6 6 6 3 0 5-1.5t2-4q0-2.5-2-4.5t-5-2zm21 19q-6 0-6 6t6 6q6 0 6-6 0-2-2-4t-4-2zm-60-124q6 0 6-6t-6-6q-6 0-6 6 0 2 2 4t4 2zm21 85q-6 0-6 6t6 6q6 0 6-6 0-2-2-4t-4-2zm-21 20q-2 0-4 2t-2 4q0 6 6 6t6-6q0-6-6-6zm21 19q-6 0-6 6t6 6q6 0 6-6 0-2-2-4t-4-2zm-60-58q-2 0-4 2t-2 4q0 2 2 4t4 2q2 0 4-2t2-4q0-6-6-6zm21 19q-6 0-6 6t6 6q6 0 6-6 0-2-2-4t-4-2zm-21 20q-2 0-4 2t-2 4q0 6 6 6t6-6q0-6-6-6zm-39-39q-2 0-4 2t-2 4q0 2 2 4t4 2q2 0 4-2t2-4q0-6-6-6zm21 19q-3 0-5 2t-2 4q0 2 2 4t5 2q6 0 6-6 0-2-2-4t-4-2zm-60-97q-2 0-4 2t-2 4q0 2 2 4t4 2q2 0 4-2t2-4q0-6-6-6zm0 39q-2 0-4 2t-2 4q0 2 2 4t4 2q2 0 4-2t2-4q0-6-6-6zm20 19q-2 0-4 2t-2 4q0 2 2 4t4 2q2 0 4.5-2t2.5-4q0-2-2-4t-5-2zm-20 20q-2 0-4 2t-2 4q0 2 2 4t4 2q2 0 4-2t2-4q0-6-6-6zm20 19q-2 0-4 2t-2 4q0 2 2 4t4 2q2 0 4.5-2t2.5-4q0-2-2-4t-5-2zm-59-58q-2 0-4 2t-2 4q0 2 2 4t4 2q2 0 4-2t2-4q0-2-2-4t-4-2zm20 19q-2 0-4 2t-2 4q0 2 2 4t4 2q2 0 4-2t2-4q0-6-6-6zm-59-58q-2 0-4 2t-2 4q0 2 2 4t4 2q2 0 4-2t2-4q0-2-2-4t-4-2zm20 19q-6 0-6 6 0 2 2 4t4 2q2 0 4-2t2-4q0-6-6-6zm-59-58q-6 0-6 6 0 2 2 4t4 2q2 0 4-2t2-4q0-6-6-6zm20 19q-6 0-6 6 0 2 2 4t4 2q2 0 4-2t2-4q0-6-6-6zm0 39q-6 0-6 6 0 2 2 4t4 2q2 0 4-2t2-4q0-6-6-6zm-59-136q-6 0-6 6 0 2 2 4t4 2q2 0 4-2t2-4q0-6-6-6zm0 39q-6 0-6 6 0 2 2 4t4 2q2 0 4-2t2-4q0-6-6-6zm20 19q-6 0-6 6 0 2 2 4t4 2q2 0 4-2t2-4q0-6-6-6zm-59-97q-6 0-6 6 0 2 2 4t4 2q2 0 4-2t2-4q0-6-6-6zm20 18q-2 0-4 2t-2 4q0 6 6 6t6-6q0-6-6-6zm-20 21q-6 0-6 6 0 2 2 4t4 2q2 0 4-2t2-4q0-6-6-6zm20 18q-2 0-4 2t-2 4.5q0 2.5 2 4.5t4 2q2 0 4-2t2-4q0-7-6-7zM41 594q-6 0-6 6.5t6 6.5q6 0 6-6 0-3-2-5t-4-2zm20 58q-2 0-4 2t-2 4q0 6 6 6t6-6q0-2-2-4t-4-2zm0-39q-2 0-4 2t-2 4q0 6 6 6t6-6q0-2-2-4t-4-2zm391 208q2 0 4-2t2-4q0-2-2-4t-4-2q-6 0-6 6t6 6zm351-508q6 0 6-6t-6-6q-6 0-6 6 0 2 2 4t4 2zm-20-58q2 0 4-2t2-4q0-2-2-4t-4-2q-2 0-4 2t-2 4q0 2 2 4t4 2zM666 99q2 0 4-2t2-4q0-2-2-4t-4-2q-6 0-6 6t6 6zm188 48Q783 76 691.5 38.5T500 1Q400 1 308.5 38.5T146 146.5Q75 217 37.5 308.5T0 500.5q0 100.5 37.5 192T146 855q71 71 162.5 108.5T500 1001q100 0 191.5-37.5T854 855q71-71 108.5-162.5T1000 501q0-100-37.5-191.5T854 147zM749 916q1-1 1-3t-2-4q-2-2-4-2t-4 2q-2 2-2 4t2 4q2 2 4 2-10 6-15 8-1-1-3.5-1t-4.5 2q-2 2-2 4v1q-21 11-47 21v-2q0-2-2-4t-4-2q-2 0-4 2t-2 4.5q0 2.5 2 4.5-20 8-48 15v-1q0-2-2-4t-4-2q-2 0-4 2t-2 4q0 2 1 3-52 11-103 11-63 0-120-15-2-5-5.5-5t-5.5 2q-17-4-49-16-2-5-6-5-2 0-3 1-52-23-89-50 1-1 1-4 0-6-6-6-3 0-5 3l-13-10q4-2 4-5t-2-5q-2-2-4-2-6 0-6 6-22-18-36-34 1 1 3 1t4-2q2-2 2-4t-2-4q-2-2-4-2t-4 2q-2 2-2 4t1 3q-12-12-17-18l3 1q6 0 6-6t-6-6q-6 0-6 6 0 2 1 3l-13-16q4-2 4-7t-6-5q-3 0-5 3-4-8-10-13 2-1 2-4 0-7-6-7l-2 1q-23-35-38-67h1q6 0 6-6t-6-6q-3 0-5 3-11-25-18-49l3 1q2 0 4-2t2-4q0-2-2-4t-4-2q-4 0-6 3-7-26-12-51 2 0 3.5-2t1.5-4q0-2-2-4t-4-2h-1l-3-28q1 1 4 1 6 0 6-6t-6-6q-3 0-5 3-1-13-1-37 0-131 66-244 64-110 174-174 113-66 244-66h4q2 4 5.5 4t5.5-4q44 1 90 11-3 1-3 5 0 6 6 6t6-6q0-2-1-3 57 13 107 40-1 0-1 2 0 6 5.5 6t6.5-3q59 32 107.5 80T921 262h-1q-6 0-6 6 0 2 2 4t4.5 2q2.5 0 5.5-3 16 30 31 69-4 2-4 5t2 5q2 2 5 2h1q6 19 13 49-2 2-2 5t4 5q2 10 4 28 0-1-2-1t-4 2q-2 2-2 4t2 4q2 2 4.5 2t3.5-1l2 32q-2-4-5-4t-5 2q-2 2-2 4t2 4q2 2 4 2 5 0 6-4v35q-2-4-5-4t-5 2q-2 2-2 4 0 6 5.5 6t6.5-3l-3 31-3-1q-2 0-4 2t-2 4.5q0 2.5 2 4.5t4 2l2-1q-6 42-20 85-3 0-5 2t-2 4q0 2 3 5-11 34-31 70-1-3-4-3t-5 2q-2 2-2 4 0 6 6 6-65 111-171 174zM301 384q35 0 60.5-25.5T387 297q0-36-25.5-61t-61-25q-35.5 0-61 25T214 297q0 36 25.5 61.5T301 384zm0-158q29 0 49.5 21t20.5 50q0 29-20.5 50T301 368q-29 0-50-21t-21-50q0-29 21-50t50-21zm75 489q20-11 34-27.5t20-35.5q2-8-5-10-3-1-6 .5t-4 4.5q-11 37-49 55-33 17-71 13-29-5-52-24.5T210 642q-1-4-4-5.5t-6 0q-3 1.5-4.5 4.5t-.5 6q12 33 38.5 55.5T292 730h1q5 1 17 1 37 0 66-16zM243 609q9 6 20.5 3.5T281 601l21-31q6-10 4-21t-12-17.5q-10-6.5-21-4T255 539l-20 31q-7 10-3.5 21.5T243 609zm5-30l20-31q3-4 8-5t9 1.5q4 2.5 5 7.5t-1 10l-21 30q-2 4-7 5t-10-1q-4-3-5-8t2-9zm89 78q7 13 24 13 8 0 15-4 10-7 12-18t-4-21l-20-31q-6-10-17.5-12t-21 4q-9.5 6-12 17.5T317 627l20 30zm-3-56q4-2 7-2 7 0 10 6l20 31q2 4 1 9t-5 7.5q-4 2.5-9 1.5t-8-5l-20-31q-2-5-1-9.5t5-7.5zm-61 143l-31-20q-10-6-21-3.5T204 733q-6 10-4 21t12 17l31 20q11 6 21.5 4t17.5-13q6-9 3.5-20.5T273 744zm-4 30q-3 4-8 5t-9-2l-31-19q-5-3-6-8t2-9q3-4 7.5-5t9.5 1l31 20q4 3 5 7.5t-1 9.5zm127-54l-34 15q-11 5-15 16t1 21q3 7 10 11.5t15 4.5q8 0 11-2l34-15q10-3 15-15 4-9-1-20.5T416.5 720q-10.5-4-20.5 0zm22 30q-2 6-6 7l-34 15q-5 2-9.5 0t-6.5-6.5q-2-4.5-.5-9.5t6.5-7l34-14q4-2 9-.5t7 6q2 4.5 0 9.5zm57 91q0-1-1-1 3-2 3-4.5t-2-4.5q-2-2-4.5-2t-3.5 1q-6-5-13.5-6t-14.5 2l-35 13q-10 4-14.5 13t-2.5 19l-1 3q0 4 5 6 6 9 16 12v1q0 6 6 6t6-6l40-15 6-3q0 5 6 5 2 0 4-2t2-4q0-2-2-4t-4-2q9-10 4-27zm-22 22l-17 7q-2-2-5.5-2t-5.5 6l-6 2q-4 2-9 .5t-7-6.5q-3-9 4-14 2 4 5 4t5-2q2-2 2-4l-1-3 26-11 5-1q8 0 11 8 2 5-.5 10t-6.5 6zm467-277q7 0 7-5t-5-7l1-6q7-18 4-39 1-9 1-28 0-37-6-71 5-2 5-5t-2-5q-2-2-5-2-10-55-35-106 2-2 2-5 0-6-6-6h-2q-23-44-60-86 1 1 3 1t4-2q2-2 2-4t-2-4q-2-2-4-2t-4 2q-2 2-2 4t1 2l-9-9-5-5q-51-51-114-81 3-3 3-5.5t-2-4.5q-2-2-4-2t-4 2q-2 2-2 5h1v1q-16-8-25-11-12-6-20-7-63-22-136-22-86 0-164 32t-139 93q-61 61-93 139T72 501q0 92 36 173-1 5 0 11 4 12 12 18l3 1 15 27q-5 0-5 6 0 2 2 4t4 2q2 0 5-3l9 12-1 5q0 2 2 4t4 2h1q12 18 29 31 3 4 9 10l33 30v1q0 2 2 4t4 2q2 0 3-1 6 5 13 10-2 2-2 4t2 4q2 2 4.5 2t5.5-3q36 24 67 37 0 2 2 3.5t4 1.5l3-1q32 12 48 16 2 5 5.5 5t5.5-2q25 6 52 9-3 1-3 6.5t6 5.5q6 0 6-6 0-4-3-5 20 2 30 2v3q0 6 6 6t6-6q0-2-1-3h29q-1 1-1 3 0 6 6 6t6-6q0-2-2-4 40-3 87-16v1q0 6 6 6t6-6q0-2-2-4 24-7 50-20-1 1-1 3.5t2 4.5q2 2 4 2t4-2q2-2 2-4t-1.5-4q-1.5-2-3.5-2l15-8q1 1 3 1t4-2q2-2 2-4 20-12 29-18h3q6 0 7-4l4-6q23-17 49-42 44-46 75-101h3q6 0 6-6 0-4-3-5l4-9q11-25 16-39 2-2 2-4v-2q7-19 14-52zm-17-13q-14 21-40 26t-47-9q-15-10-23-26t-6-34q0-4-3.5-7t-7.5-1q-17 8-35.5 6T706 516q-25-16-32-45t8.5-54q15.5-25 45-31t54.5 11q5 4 9 5.5t7-1.5q16-14 37-16t40 10q22 15 28.5 40t-7.5 47q-8 8-2 14 16 16 18.5 37.5T903 573zm-150-4q3 2 8 2t16-5q2 5 6 12l2 3-21 17-20 31-41-26 20-31q1-1 1-3l7-26q7 1 19 1-4 21 3 25zm11-15q1-2 1-6l1-6q2-1 5-1 0 7 1 10-4 3-8 3zm148-70q0 6 1 9-3-1-4-4 1-1 3-5zM738 171v1q-18-15-42-18-1-8-7-20 32 18 51 32-2 2-2 5zM508 89q42 0 82 9-20 7-33.5 23.5T539 159q-18 3-31 12V89zm-16 0v94q-8 8-12 13-5 8-10 19-8-19-25.5-36.5t-40-27.5Q382 141 357 140q-56-3-97 35-12 10-29 19l-14 7q55-52 125-81 72-30 150-31zM238 208q20-9 33-22 34-31 79-31h6q39 2 69 27.5t40 62.5q-1 5 1 16 0 2 1 6l1 2q2 46-29 81-16 20-21 34-17 38-51.5 61T290 468q-35-1-65-19t-48.5-48.5Q158 370 157 335q-1-41 21-75.5t60-51.5zm-89 77q-8 26-8 51 1 29 12.5 56t32.5 47.5q21 20.5 48 32t56 11.5h2q47 0 85-25t55-68q5-13 19-30 23-26 31-64 6 8 10 12v185H364q-22-7-49-7t-57 7H88q1-56 16.5-109.5T149 285zm342 536h1v27h-1q-6 0-6 6t6 6h1v27h-1q-6 0-6 6t6 6h1v14h-15q-2-6-5-6t-5 1.5q-2 1.5-2 3.5-20-2-30-4l-6-1q-27-5-50-12l1-2q0-2-2-4t-4-2q-2 0-4 1.5t-2 3.5q-31-11-48-20-2-4-6-4h-2q-5-2-15-8 5-3 5-6 0-6-6.5-6t-6.5 6l1 2q-27-17-51-36 25 8 61 10l19 28q4 6 10 9.5t12 3.5q6 0 8-1-2 2-2 4t2 4q2 2 4 2t4-2q2-2 2-4t-1.5-4q-1.5-2-3.5-2 1 0 3-2 6-4 11-12 0 6 6 6 2 0 4-2t2-4q0-2-2-4t-5-2q-3 0-4 2v-1q3-12-3-21l-2-2q59-11 91.5-46.5T488 689q0-38-10.5-73.5t-31-63Q426 525 400 509h92v300h-1q-6 0-6 6t6 6zM118 657q-28-69-30-148h134q-34 21-54 62-16 31-25 78l-13 3q-4 1-12 5zm37 40q0-4-3-6t-6-1l-8 1q-4 1-8.5-1.5T124 682q-1-5 1.5-9t7.5-6l19-3q4-1 6-7 13-71 41-106 38-49 115-49 52 0 89 28 34 26 52 71 17 41 17 88 0 62-44 94-30 23-78 29-4 1-6 5t0 7l8 12q3 4 2 9.5t-5 8q-4 2.5-9.5 1.5t-7.5-6l-20-30q-2-5-7-5-52-1-89-21-58-30-61-96zm326-439q-5-29 12.5-53t47.5-30h2q5-1 8-2.5t3-5.5q2-21 16.5-37t36.5-20q4-1 12-1 23 0 40.5 13.5T681 158q0 5 2 8.5t6 3.5q22 0 39 14t21 35q5 25-10.5 46.5T698 291q-18 4-35-2t-28-20q-2-4-6.5-3.5T622 270q-7 17-21.5 28.5T567 314q-30 6-55-10t-31-46zm157 62q8-3 15-18 9 4 16 5l-3 26 7 36-48 9-7-36q0-2-1-2l-13-24q10-8 14-12 11 16 20 16zm-9-29q0-2 2-4 5 5 8 7l-3 7q-4-4-7-10zm52 488q-3 0-5-1l-2-4q4 0 6-1v3l1 3zm-18-20q-5 0-7 4t0 8q8 16 7.5 34.5T654 841q-15 26-43.5 34.5t-54-5.5q-25.5-14-33-43t7.5-56q7-10 2-15-15-15-18-36.5t8-40.5q9-15 24-24t31.5-9q16.5 0 29.5 7 9 7 14 1 14-17 36-21t41 7q22 13 28.5 38t-6.5 48q-9 16-24.5 25t-33.5 8zm-145 3q-1 1-1 2-6 11-9 22v-38q6 10 10 14zm153 114q1 0 1-2t-2-4q-2-2-4-2t-4 2q-2 2-2 4 0 5 4 6-52 22-110 30-1-3-5-3t-6 4q-18 2-27 2 0-2-2-4t-4-2h-2v-27h2q2 0 4-2t2-4q0-2-2-4t-4-2h-2v-27h3q11 28 37 43 5 3 15 7v2q0 2 2 4t4 2q6 0 6-6 10 2 15 2l12-1q2 5 5 5t5-2q2-2 2-4v-2q34-9 54-43 6-12 8-19l23 4v2q0 2 2 4t5 2q3 0 4-3l15 9q-28 18-54 29zm69-38l-32-19h-2l-27-6v-6q1-8 0-12 13 1 19-1 4-1 6-4v-1q3-8-4-22l14-9 16 18 34 19-24 43zm39-37h2l1 1-7 6 4-7zm10-6q0-2-2-3.5t-4-1.5h-1q0-4-3-5l-10-5q1-1 1-4 0-6-5.5-6t-6.5 4l-17-10-16-17q5-5 9-13 2-3 4-8l2-4q2 2 4 2t4-2q2-2 2-4t-2-4q-2-2-4-2h-1q3-12 1-27 6-2 6-7t-6-5h-2q-8-31-36-47-22-12-47.5-8.5T615 639q-28-15-59-5.5T509 671l-1 2V319q21 12 45 12 19 0 37-8l13 23 8 43q1 3 3.5 5t5.5 1l63-12q4 0 6-3t1-6l-8-43 3-23q10 0 16-1 32-6 51-33t13-58q-4-23-21-39 4 0 6-4 8 6 13 11-2 0-3.5 2t-1.5 4q0 2 2 4t4 2q2 0 4-2t2-4q21 18 34 33h-1q-6 0-6 6 0 2 2 4t4 2q2 0 4-2t2-4v-1q5 5 13 15-2 0-4 2t-2 4q0 2 2 4t5 2q3 0 5-4l3 4q4 6 7 9-2 2-2 4t2 4q2 2 4 2h2q19 28 36 66-5 2-5 5t2 5q2 2 4 2t3-1q8 19 15 43l-4-3q-5-4-8-6 0-6-6-6h-2q-5-3-17-7 2 0 3.5-2t1.5-4q0-2-2-4t-4-2q-2 0-4 2t-2 4.5q0 2.5 3 4.5-19-3-31-1 1-1 1-3.5t-2-4.5q-2-2-4-2t-4 2q-2 2-2 4 0 4 3 6-14 3-27 13l-1-1q-31-20-66.5-13T669 408.5Q649 439 657.5 474t39.5 55q5 3 14 8l5 2-7 25-23 37q-1 2-.5 5.5t2.5 5.5l54 35q3 2 6.5 1t4.5-4l24-36 3-3q2 2 3.5 2t3.5-2q2-2 2-4v-3l6-5q6 5 13 10 14 9 30 12-2 2-2 4 0 6 6 6t6-6q0-2-1-3h5q10 0 15-1 16-3 28-12 2 3 4 3-6 25-15 47-1-1-3-1t-4 2q-2 2-2 5t4 5q-17 38-36 66h-1q-2 0-4 2t-2 4q0 2 1 3-6 8-10 14-2-2-5-2-6 0-6 6 0 3 3 5-6 8-10 12-1-4-6.5-4t-5.5 5q0 5 5 7l-13 13z"/></svg>