<svg viewBox="0 0 1244 1083.753" xmlns="http://www.w3.org/2000/svg"><path d="M917 86V51q0-21-15-35.5T866.5 1q-20.5 0-35 14.5T817 51v33h-84V51q0-21-14.5-35.5T683.5 1Q663 1 648 15.5T633 51v33h-83V51q0-21-14.5-35.5T500.5 1Q480 1 465 15.5T450 51v33h-83V51q0-21-15-35.5T316.5 1q-20.5 0-35 14.5T267 51v33h-84V51q0-21-14.5-35.5T133 1q-21 0-35.5 14.5T83 51v35q-36 6-59.5 34T0 184v750q0 28 19.5 47.5T67 1001h866q28 0 47.5-19.5T1000 934V184q0-36-23.5-64T917 86zm-67-35q0-7 5-12t12-5q7 0 11.5 5t4.5 12v100q0 7-4.5 12t-11.5 5q-7 0-12-5t-5-12V51zm-183 0q0-7 4.5-12t11.5-5q7 0 12 5t5 12v100q0 7-5 12t-12 5q-7 0-11.5-5t-4.5-12V51zm-184 0q0-7 5-12t12-5q7 0 12 5t5 12v100q0 7-5 12t-12 5q-7 0-12-5t-5-12V51zm-183 0q0-7 5-12t12-5q7 0 11.5 5t4.5 12v100q0 7-4.5 12t-11.5 5q-7 0-12-5t-5-12V51zm-183 0q0-7 4.5-12t11.5-5q7 0 12 5t5 12v100q0 7-5 12t-12 5q-7 0-11.5-5t-4.5-12V51zM33 184q1-23 14.5-40.5T83 120v31q0 21 15 35.5t35 14.5q20 0 35-14.5t15-35.5v-33h84v33q0 20 14.5 35t35 15q20.5 0 35.5-15t15-35v-33h83v33q0 20 15 35t35.5 15q20.5 0 35-15t14.5-35v-33h84v33q0 20 14.5 35t35 15q20.5 0 35.5-15t15-35v-33h83v33q0 20 15 35t35.5 15q20.5 0 35-15t14.5-35v-31q22 6 36 24t14 40v84H33v-84zm934 750q0 14-10 24t-24 10H67q-14 0-24-10t-10-24V301h934v633zM716 556q-46-5-84 5-7 2-12.5 6.5t-7 11.5q-1.5 7 1 14t7.5 11l2 1q12 10 19 15-27 14-40 38-16 32-18.5 66.5T592 793q15 55 50.5 90t75.5 35q11 0 21-3 8-2 11-4 4 2 12 4 29 7 59-6.5t53.5-44Q898 834 909 793q10-34 7.5-68.5T898 658q-18-34-54-43-19-5-38-1t-35 15v1h-1q3-16 13-28.5t24-20.5q7-2 10-8t1-13q-2-7-8.5-9.5T797 550q-23 9-39 28-20-16-42-22zm-8 33q16 4 26 12 8 7 6.5 10.5T732 617q-17 3-31-1-27-10-44-26 28-5 51-1zm81 69q21-16 47-10 22 6 33 27 13 25 14.5 53.5T877 784q-9 31-26.5 55.5t-39 36.5q-21.5 12-41.5 7-4-1-12-5.5t-16 0q-8 4.5-11 5.5-20 5-42-7t-39.5-36.5Q632 815 624 784q-9-27-7-55t14-54q11-21 34-27 6-2 11-2 17 0 36 12 11 6 22 9v14q0 7 4.5 12t11.5 5q7 0 12-5t5-12v-14q13-4 22-9zm-656-57h417q7 0 12-5t5-12q0-7-5-11.5t-12-4.5h-17V401h167v84q0 7 5 11.5t12 4.5q7 0 11.5-4.5T733 485v-84q0-14-9.5-23.5T700 368H133q-13 0-23 9.5T100 401v167q0 13 10 23t23 10zm367-33H333V401h167v167zM133 401h167v167H133V401zm0 500h367q14 0 23.5-10t9.5-23V701q0-14-9.5-23.5T500 668H133q-14 0-23.5 9.5T100 701v167q0 13 10 23t23 10zm367-33H333V701h167v167zM133 701h167v167H133V701zm122-262l-55 55-21-21q-5-5-12-5t-11.5 4.5Q151 477 151 484t4 12l33 34q5 4 12 4t12-4l67-67q5-5 4.5-12t-5-11.5q-4.5-4.5-11.5-5t-12 4.5zm133 90q5 5 12 5t12-5l67-66q5-5 4.5-12t-5-12q-4.5-5-11.5-5t-12 5l-55 55-21-21q-5-5-12-5t-11.5 4.5Q351 477 351 484t4 12l33 33zm224 0l66-66q5-5 5-12t-4.5-12q-4.5-5-11.5-5t-12 5l-55 55-22-21q-4-5-11-5t-12 4.5q-5 4.5-5 11.5t5 12l33 34q5 5 12 4.5t12-5.5zM255 739l-55 55-21-21q-5-5-12-5t-11.5 4.5Q151 777 151 784t4 12l33 34q5 4 12 4t12-4l67-67q5-5 4.5-12t-5-11.5q-4.5-4.5-11.5-5t-12 4.5zm133 90q5 5 12 5t12-5l67-66q5-5 4.5-12t-5-12q-4.5-5-11.5-5t-12 5l-55 55-21-22q-5-5-12-4.5t-11.5 5Q351 777 351 784t4 12l33 33z"/></svg>