<svg viewBox="0 0 1244 1083.753" xmlns="http://www.w3.org/2000/svg"><path d="M500 1Q364 1 248 69 135 136 68 249 0 365 0 501t68 252q67 113 180 180 116 68 252 68t252-68q113-67 180-180 68-116 68-252t-68-252Q865 136 752 69 636 1 500 1zm0 967q-127 0-236-64-105-62-167-167-64-109-64-236t64-236q62-105 167-167 109-64 236-64t236 64q105 62 167 167 64 109 64 236t-64 236q-62 105-167 167-109 64-236 64zm33-184q-7 0-11.5 5t-4.5 12q0 7-5 12t-12 5q-7 0-11.5 4.5T484 834q0 7 4.5 12t11.5 5q21 0 35.5-15t14.5-35q0-7-5-12t-12-5zm184-150q-34 0-59 24.5T633 718q0 5 2 13l-33 13q-13-24-35.5-39T517 686v-37q31-6 50-32t16-58q-3-32-27-53.5T500 484q-32 0-56 21.5T417 559q-3 32 16 58t50 32v37q-27 4-49.5 19T398 744l-33-13q1-4 1-13 1-31-19.5-55T295 634q-31-5-57.5 12T202 693q-9 30 4 58.5t41.5 42q28.5 13.5 59 4.5t46.5-35l33 12q-8 35 5 69t43 54q30 20 66 20t65-20q29-20 42.5-54t5.5-69l33-12q17 25 45.5 34t56.5-2q28-11 42-37.5t8.5-56Q793 672 770 653t-53-19zM283 768q-20 0-35-15t-15-35q0-20 15-35t35.5-15q20.5 0 35 14.5T333 718q0 21-14.5 35.5T283 768zm167-200q0-21 15-35.5t35.5-14.5q20.5 0 35 14.5t14.5 35q0 20.5-14.5 35.5t-35 15q-20.5 0-35.5-15t-15-35zm50 316q-34 0-58.5-24.5t-24.5-59q0-34.5 24.5-58.5t59-24q34.5 0 58.5 24t24 58.5q0 34.5-24 59T500 884zm217-116q-21 0-35.5-15T667 718q0-20 14.5-35t35.5-15q21 0 35.5 14.5T767 718q0 21-15 35.5T717 768zM342 546q5-5 5-11.5t-4-11q-4-4.5-17-15.5-19-15-40-25-28-14-55-14-6 0-9 1l38-38q20 19 45 29.5t53 12.5q37 0 76-25 19-13 35-29 5-5 5-11.5t-5-11.5q-16-17-36-30-38-25-75-25l-10 1 38-38q41 38 99 43 37 0 75-25 20-13 36-30 4-5 4-11.5t-4-11.5q-28-28-62-43 25-27 34-71 4-22 4-44v-1q0-6-4.5-10.5T556 96h-1q-22-1-44 4-43 8-70 33-15-35-43-61-5-5-11.5-5T375 72q-17 16-30 36-25 38-25 75 1 27 12.5 52.5T363 281l-38 38v-9q0-37-25-76-13-19-29-35-5-5-11.5-5t-11.5 5q-17 16-30 36-25 38-25 75 2 27 13 52.5t30 45.5l-38 38 1-10q0-37-25-75-13-19-29-34l-1-1q-4-5-10.5-5t-11.5 4q-5 4-16 17-16 18-26 39-14 28-14 55 5 58 43 99l-17 17q-7 7-4 16t11.5 12q8.5 3 16.5-5l17-16q20 19 45 29.5t53 12.5q38 0 75-25 20-13 36-29v-1zm90-138q-32 30-74 33-42-3-75-33 32-29 75-32 44 3 74 32zm53-94q-42-3-75-33 32-29 75-32 44 3 74 32-32 30-74 33zm-22-155q33-29 75-30 0 42-29 76-6 6-14 11l-10-1q-24 2-40 8 7-18 7-40v-10q6-10 11-14zm-77-51q30 33 33 75-2 20-10.5 39.5T386 257q-29-30-32-74 3-43 32-75zM259 235q30 30 33 75-2 20-10.5 39.5T259 384q-29-30-32-74 3-43 32-75zM133 362q29 30 32 74-3 43-32 75-30-33-33-75 2-20 10.5-39.5T133 362zm98 140q42 3 75 33-30 28-75 33-44-5-74-33 15-14 34.5-22.5T231 502zm394-265q-6 4-8 10.5t2 12.5q20 34 27 72t1 77q-1 10-7 32-4 16-4 36 1 30 16 56t39 44q24 18 54 22.5t58.5-3.5q28.5-8 50.5-26.5t33-44.5q18-41 11-93-5-43-25-80-22-42-64-71-34-23-79-36-35-9-69-11-29-1-36 3zm219 131q17 32 21 70 5 42-8 74-8 19-24.5 33T795 564.5q-21 5.5-43 2T711.5 550Q693 537 682 517.5T669 475q0-9 4-27l7-35q11-74-19-145 60 3 107 27 52 26 76 73zm-61 164h4q17-5 29-18.5t15-30.5q6-36-4-68-3-9-12-11.5t-16 4.5q-7 7-4 16 8 26 3 52-1 8-6.5 15t-13.5 9q-6 1-9.5 6.5T766 518q1 6 5.5 10t11.5 4z"/></svg>