<svg viewBox="0 0 1244 1083.753" xmlns="http://www.w3.org/2000/svg"><path d="M125 1001h750q33 0 61.5-15.5t45-43.5q16.5-28 18-60T987 821L707 261 611 70q-16-32-46-50.5T500 1q-35 0-65 18.5T389 70l-96 191L13 821Q-1 850 .5 882T19 942q17 28 45 43.5t61 15.5zm69-467h85q-27 51-29 108t21 109H86l108-217zm125-250h362l109 217h-90q-35-47-88-73.5T500 401q-59 0-111.5 26.5T300 501h-90l109-217zm-36 367q0-59 29.5-109t79-79Q441 434 500 434t108.5 29q49.5 29 79 79T717 651q0 59-29 109t-79 79q-50 29-109 29t-108.5-29.5q-49.5-29.5-79-79T283 651zm438-117h85l109 217H729q23-52 21-109t-29-108zM419 85q11-23 33-37t48-14q26 0 48 14t33 37l84 166H335l84-166zM43 836l26-52h220q35 55 91 86t120 31q64 0 120-31t91-86h220l26 52q11 21 10 45t-14 43.5Q940 944 919.5 956T875 968H125q-24 0-44.5-12t-33-32Q35 904 34 880.5t9-44.5zm374-68q4 0 10-4l217-184q4-2 5.5-6.5t.5-9q-1-4.5-4-8t-7-4.5q-9-3-17 3L417 728l-56-56q-5-5-12-4.5t-11.5 5Q333 677 333 684t5 12l66 67q7 5 13 5zM125 934q7 0 11.5-4.5T141 918q0-7-4.5-12t-11.5-5q-15 0-22-11.5t0-23.5q4-8-2-16.5t-14.5-8Q78 842 73 851q-7 14-6 28.5t8.5 27.5q7.5 13 21 20t28.5 7z"/></svg>