<svg viewBox="0 0 1244 1083.753" xmlns="http://www.w3.org/2000/svg"><path d="M867 1H317q-31-1-59 13t-45 40q-4 5-2.5 12t7 11q5.5 4 12 2.5T240 72q14-18 34-28t43-10h462q-22 20-34 46t-12 54v717q0 7-4.5 12t-11.5 5H583q-7 0-11.5 4.5T567 884q0 7 4.5 12t11.5 5h134q20 0 35-15t15-35V151h216q8 0 12.5-5t4.5-12q0-36-18-66.5T933.5 19Q903 1 867 1zm-99 117q6-37 34-60.5T867 34q37 0 64.5 24t33.5 60H768zM28 375q-16 19-23.5 44T1 469l77 485q4 20 19.5 33.5T133 1001q20 0 36-13.5t20-33.5v-4q20 23 46.5 36.5T292 1001q13 0 25-3 4-1 12-4l4-2 17 6q36 9 74.5-9t69.5-58q31-40 46-93 13-48 9-94.5T526 663q-10-18-26-31.5T465 611q14-9 38-29l2-2q5-5 7.5-12.5t.5-14.5q-3-15-21-20-73-15-108.5-6.5T324 560q-4-6-16-18-7-7-16.5-3.5t-11 12.5q-1.5 9 4.5 15 29 29 32 67-8-2-14-6-26-17-59-22l21-136q5-34-8.5-65T215 354l45-72q5-8 5-18.5t-5.5-18.5q-5.5-8-14.5-12t-20-2l-17 4 31-94q6-18-7-33-6-7-15-9.5t-18-.5l-21 6-13-45q-3-11-12-17.5T133 35q-11 0-20 6.5T101 59l-13 44-22-5q-9-2-17.5.5T34 108q-13 15-7 33l31 94-17-4q-10-2-19 2T7 245q-6 8-6 18t5 19l46 72q-13 9-24 21zm315 221q-2-8 12-19.5t36-17.5q14-2 22-2 33 2 60 7-34 29-70 43-21 6-44 1-15-5-16-12zm-24 72v20q0 7 5 12t12 5q7 0 12-5t5-12v-21q16-3 29.5-12.5T414 641q18-4 35 0 32 9 48.5 38.5t19 69Q519 788 507 829q-12 44-36.5 78T416 957q-30 16-58 9-9-3-17-7.5t-16 .5q-5 3-17 7-30 7-61-10.5T192 901q-22-33-33-72-11-41-8-81t19-68q16-31 48-40 10-2 17-2 27 1 50 17 19 11 34 13zm-87-204l-22 144h-1q-22 6-40 20.5T141 663q-20 35-23.5 81t9.5 94q13 44 34 76l-5 35q-1 8-8 13.5t-15 5.5q-8 0-14-5.5t-8-13.5L34 464q-2-18 3-36t16.5-31.5Q65 383 82 375.5t35-7.5h33q18 0 34.5 7.5T213 397q12 14 17 31.5t2 35.5zM35 264l17 4q19 3 31.5-11.5T90 224l-31-94 22 6q13 3 24.5-3.5T121 113l13-45 13 44q3 13 14.5 20t25.5 4l21-6-31 94q-6 18 7 33 5 7 14 9.5t17 .5l17-3-47 75q-18-5-35-5h-33q-17 0-35 5l-47-75zm315-163q7 0 12-5t5-12q0-7-5-11.5T350 68h-33q-7 0-12 4.5T300 84q0 7 5 12t12 5h33zm333-33H417q-7 0-12 4.5T400 84q0 7 5 12t12 5h266q7 0 12-5t5-12q0-7-5-11.5T683 68zM283 184q0 7 5 12t12 5h350q7 0 12-5t5-12q0-7-5-11.5t-12-4.5H300q-7 0-12 4.5t-5 11.5zm17 100h350q7 0 12-4.5t5-11.5q0-7-5-12t-12-5H300q-7 0-12 5t-5 12q0 7 5 11.5t12 4.5zm0 84h350q7 0 12-5t5-12q0-7-5-12t-12-5H300q-7 0-12 5t-5 12q0 7 5 12t12 5zm367 66q0-7-5-11.5t-12-4.5H550q-7 0-12 4.5t-5 11.5q0 7 5 12t12 5h100q7 0 12-5t5-12zm-67 400h83q7 0 12-4.5t5-11.5v-84q0-7-5-11.5t-12-4.5q-7 0-11.5 4.5T667 734v67h-67q-7 0-11.5 5t-4.5 12q0 7 4.5 11.5T600 834zM222 690q-6-3-13-1.5t-10 7.5q-14 29-16 61.5t8 62.5q2 7 8 10.5t13 1.5q7-2 10-8t1-13q-8-24-7-49.5t11-48.5q4-6 2-12.5t-7-10.5z"/></svg>