<svg viewBox="0 0 1244 1083.753" xmlns="http://www.w3.org/2000/svg"><path d="M167 1001h600q20 0 35-14.5t15-35.5v-17h16q21 0 35.5-14.5T883 884V51q0-21-14.5-35.5T833 1H233q-20 0-35 14.5T183 51v17h-16q-21 0-35.5 14.5T117 118v833q0 21 14.5 35.5T167 1001zm50-950q0-7 4.5-12t11.5-5h600q7 0 12 5t5 12v833q0 7-5 12t-12 5H233q-7 0-11.5-5t-4.5-12V51zm-67 67q0-8 5-12.5t12-4.5h16v783q0 21 15 35.5t35 14.5h550v17q0 7-4.5 12t-11.5 5H167q-7 0-12-5t-5-12V118zm150 150h17q41 0 70.5-29.5T417 168q0-41-29.5-70.5T317 68h-17q-14 0-23.5 9.5T267 101v133q0 14 9.5 24t23.5 10zm0-167h17q28 0 47 19.5t19 47.5q0 28-19.5 47T317 234h-17V101zm167 167q7 0 11.5-5t4.5-12V84q0-7-4.5-11.5T467 68q-7 0-12 4.5T450 84v167q0 7 5 12t12 5zm66 0h84q7 0 11.5-5t4.5-12q0-7-4.5-12t-11.5-5h-67v-50h67q7 0 11.5-4.5T633 168q0-7-4.5-12t-11.5-5h-67v-50h67q7 0 11.5-5t4.5-12q0-7-4.5-11.5T617 68h-84q-7 0-11.5 4.5T517 84v167q0 7 4.5 12t11.5 5zm134-167h50v150q0 7 4.5 12t11.5 5q7 0 12-5t5-12V101h50q7 0 11.5-5t4.5-12q0-7-4.5-11.5T800 68H666q-7 0-11.5 4.5T650 84q0 7 5 12t12 5zm33 367h67q20 0 35-15t15-35v-67q0-21-15-35.5T767 301h-67q-20 0-35 14.5T650 351v67q0 20 15 35t35 15zm67-34h-60l76-76v60q0 7-4.5 11.5T767 434zm-67-100h60l-77 77v-60q0-7 5-12t12-5zm0 334h67q20 0 35-15t15-35v-67q0-21-15-35.5T767 501h-67q-20 0-35 14.5T650 551v67q0 20 15 35t35 15zm-17-117q0-7 5-12t12-5h67q7 0 11.5 5t4.5 12v67q0 7-4.5 11.5T767 634h-67q-7 0-12-4.5t-5-11.5v-67zm17 317h67q20 0 35-15t15-35v-67q0-21-15-35.5T767 701h-67q-20 0-35 14.5T650 751v67q0 20 15 35t35 15zm-17-117q0-7 5-12t12-5h67q7 0 11.5 5t4.5 12v67q0 7-4.5 11.5T767 834h-67q-7 0-12-4.5t-5-11.5v-67zM283 368h317q7 0 12-5t5-12q0-7-5-12t-12-5H283q-7 0-11.5 5t-4.5 12q0 7 4.5 12t11.5 5zm0 66h167q7 0 12-4.5t5-11.5q0-7-5-12t-12-5H283q-7 0-11.5 5t-4.5 12q0 7 4.5 11.5T283 434zm0 134h317q7 0 12-5t5-12q0-7-5-12t-12-5H283q-7 0-11.5 5t-4.5 12q0 7 4.5 12t11.5 5zm0 66h167q7 0 12-4.5t5-11.5q0-7-5-12t-12-5H283q-7 0-11.5 5t-4.5 12q0 7 4.5 11.5T283 634zm0 134h317q7 0 12-5t5-12q0-7-5-12t-12-5H283q-7 0-11.5 5t-4.5 12q0 7 4.5 12t11.5 5zm0 66h167q7 0 12-4.5t5-11.5q0-7-5-12t-12-5H283q-7 0-11.5 5t-4.5 12q0 7 4.5 11.5T283 834z"/></svg>