<svg viewBox="0 0 1244 1083.753" xmlns="http://www.w3.org/2000/svg"><path d="M722 267q-5-4-11-3.5t-10 4.5q-4 4-4 10t4 10q44 42 68 97t24 116q0 79-40 148-39 66-105 105-69 40-148 40t-148-40q-66-39-105-105-40-69-40-148t40-148q39-66 105-105 69-40 148-40t147 40q5 3 11 1t9-7q3-5 1.5-11t-6.5-9q-75-43-162.5-43T337 223q-72 43-115 115-44 75-44 163t44 163q43 72 115 115 75 44 163 44t163-44q72-43 115-115 44-75 44-163 0-67-26-127t-74-107zm263-130q-6 0-10 4.5t-4 10.5v68h-48v-68q0-6-4.5-10.5T908 137q-6 0-10 4.5t-4 10.5v68h-48v-68q0-6-4.5-10.5T831 137q-6 0-10 4.5t-4 10.5v68l-18-18q-60-60-137-92T500 78q-85 0-162 32t-137 92q-31 30-54 66v-91q0-17-11.5-28.5T107 137H96q-40 0-68 28T0 233v26q0 6 4.5 10.5T15 274q6 0 10-4.5t4-10.5v-26q0-27 19.5-46.5T96 167h11q5 0 7.5 2.5t2.5 7.5v335H44q-6 0-10.5-4T29 498V320q0-6-4-10.5T15 305q-6 0-10.5 4.5T0 320v178q0 17 11.5 29T40 541v270q0 22 15.5 38t38 16q22.5 0 38-16t15.5-38v-77q25 38 54 66 60 60 137 92t162 32q85 0 162-32t137-92q33-33 56-69v80q0 22 15.5 38t38 16q22.5 0 38-16t15.5-38V635q0-6-4.5-10t-10.5-4q-6 0-10.5 4t-4.5 10v176q0 10-7 17t-17 7q-10 0-17-7t-7-17V542h48v35q0 6 4.5 10.5T947 592q6 0 10.5-4.5T962 577V364q18-13 28-32.5t10-42.5V152q0-6-4.5-10.5T985 137zM93 835q-10 0-17-7t-7-17V542h48v269q0 10-7 17t-17 7zm407 60q-76 0-146-28-68-27-121.5-77T147 675V327q32-65 85.5-115T354 135q70-28 146-28 96 0 180 44 82 42 137 116v22q0 23 10 42.5t28 32.5v307q-32 66-86 117t-122 78q-70 29-147 29zm432-383h-48V378q12 3 25 3t23-3v134zm39-223q0 26-18.5 44.5T908 352q-26 0-44-18.5T846 289v-39h125v39zm-363 64q-20-3-40.5 2T531 373l-25 21q-6 3-12 0l-25-21q-16-13-36.5-18t-41-2q-20.5 3-38 14T324 396q-21 31-16 68.5t33 62.5l124 110q14 13 35 13t35-13l125-110q28-25 32.5-62.5T676 396q-12-18-29.5-29T608 353zm32 152L516 615q-7 6-16 6t-16-6L360 505q-20-17-23.5-43.5T348 412q17-25 48-30 4-1 11-1 25 0 44 15l25 20q11 9 24.5 9t23.5-9l25-20q25-19 55.5-14t47.5 30q15 23 11.5 49.5T640 505z"/></svg>