<svg viewBox="0 0 1244 1083.753" xmlns="http://www.w3.org/2000/svg"><path d="M636 221h-84q-6 0-10 4.5t-4 10.5v70q0 6 4 10.5t10 4.5q6 0 10.5-4.5T567 306v-56h72q17 0 25-14 4-7 3.5-15t-5.5-14L522 12q-4-5-10-8t-12-3q-6 0-12.5 3T477 12L338 207q-10 13-3 29 3 7 10 10.5t15 3.5h72v271q-73-105-180-179l39-61q8-15 0-29-4-7-10.5-10.5T266 239L27 252q-14 0-22 12t-2 26l30 74q2 5 7.5 7.5t11 .5q5.5-2 8-8t.5-11l-29-72 233-13-45 70q-3 5-1.5 11t6.5 9q128 86 208 216v181q-19-61-47-111-36-66-87.5-122.5T183 423q-5-3-10.5-2.5T163 427l-45 71-34-85q-2-5-8-7.5t-11.5-.5q-5.5 2-7.5 7.5t0 11.5l35 88q3 7 9.5 11.5t14 5.5q7.5 1 14.5-2.5t11-10.5l38-60q113 78 181 202 35 66 53.5 139T432 944v43q0 7 4.5 11t10.5 4q6 0 10-4t4-11V236q0-6-4-10.5t-10-4.5h-83L500 32l136 189zm360 44q-8-13-22-13l-239-13q-8-1-14.5 2.5T710 252q-8 15 1 29l38 60q-105 72-182 180V368q0-6-4.5-10t-10.5-4q-6 0-10 4t-4 10v619q0 7 4 11t10 4q6 0 10.5-4t4.5-11v-43q0-74 18.5-147T640 658l7-13q3-5 1.5-11t-6.5-9q-5-3-11-1.5t-9 6.5l-8 14q-30 56-47 111V574q40-64 93.5-119.5T777 357q5-3 6-9t-2-11l-44-69 233 13-87 217-45-72q-4-6-10-6-4-1-11 2-94 62-160 154-4 5-3 11t6 9.5q5 3.5 9 3.5 8 0 11-6 59-81 141-139l39 61q5 7 12 10.5t14 2.5q7-1 13.5-5.5T909 512l89-222q6-14-2-25z"/></svg>