<svg viewBox="0 0 1244 1083.753" xmlns="http://www.w3.org/2000/svg"><path d="M819 324H715q-8 0-14 6t-6 14q0 8 6 13.5t14 5.5h104q38 0 70 18.5t50.5 50.5q18.5 32 18.5 70v178q0 19-13 31.5T914 724H777q-32 0-60.5-15T670 668l-8-12q-12-17-34-17t-34 17l-8 12q-19 26-47.5 41T479 724H340q-18 0-31-12.5T296 680V502q0-38 18.5-70t50.5-50.5q32-18.5 70-18.5h108q8 0 14-5.5t6-13.5q0-8-6-14t-14-6H435q-48 0-88.5 23.5T282 411q-24 40-25 88h-52V346q10-5 10-17v-50q0-11 6-18l123-149q13-16 15.5-35T354 40q-8-18-25-28.5T292 1h-50q-21 0-41 8.5T167 34l-50 56q-21 23-32.5 52.5T73 203v126q0 7 3.5 11.5T85 347v152H68q-27 0-46 19T3 564q0 27 19 46t46 19h15v89q0 62 31 114.5t84 83.5q53 31 115 31h229q6 23 26 38.5t45 15.5h25q30 0 51.5-21.5T711 927v-91q0-31-21.5-52.5T638 762h-25q-26 0-46.5 16.5T541 820H305q-28 0-51-14t-37-37q-14-23-14-51v-89h54v51q0 34 24.5 58.5T340 763h139q41 0 78-19t61-53l8-13q1-1 2-1t1 1l9 13q24 34 61 53t78 19h137q35 0 59-24.5t24-58.5V502q0-48-24-89t-65-65q-41-24-89-24zM578 836q0-14 10-24.5t25-10.5h25q14 0 24 10.5t10 24.5v91q0 14-10 24.5T638 962h-25q-15 0-25-10.5T578 927v-91zm-273 23h234v49H313q-52 0-95.5-25.5t-69.5-69Q122 770 122 718v-89h42v89q0 38 19 70.5t51.5 51.5q32.5 19 70.5 19zM242 40h50q18 0 26 16 4 8 3 16t-7 15L191 236q-15 18-15 43v31h-64V203q0-5 1-7h53q8 0 14-6t6-14q0-8-6-13.5t-14-5.5h-45q10-24 25-41h60q8 0 14-6t6-14q0-8-6-13.5T206 77h-25l15-16q9-10 21-15.5t25-5.5zM124 349h42v150h-42V349zM68 590q-10 0-18-8t-8-18.5q0-10.5 8-18t18-7.5h189v52H68zm300-158q-31 28-31 70v162q0 8 6 13.5t14 5.5h122q22 0 41-10t31-28l9-12q16-23 42-31t51.5 0q25.5 8 41.5 31l9 12q13 18 32 28t40 10h121q8 0 14-5.5t6-13.5V502q0-27-13-49.5T871 417q-20-13-40-13H446q-47 0-78 28zm510 70v142H776q-12 0-22.5-5.5T736 623l-9-13q-23-33-61-45t-76.5 0Q551 577 528 610l-9 13q-7 10-17.5 15.5T479 644H376V502q0-25 19.5-41.5T446 444h385q16 0 31 16 16 18 16 42zM611 351q3 8 10.5 10.5t15 0q7.5-2.5 10-9.5t1-13q-1.5-6-6-10t-11-4.5q-6.5-.5-12 3t-8 10q-2.5 6.5.5 13.5z"/></svg>