<svg viewBox="0 0 1244 1083.753" xmlns="http://www.w3.org/2000/svg"><path d="M556 660q-2 0-4 2t-2 4q0 2 2 4t4 2q2 0 4-2t2-4q0-6-6-6zm-20 20q-3 0-5 2t-2 5q0 6 6.5 6t6.5-6q0-2-2-4.5t-4-2.5zm20 20q-6 0-6 6 0 2 2 4t4 2q2 0 4-2t2-4q0-6-6-6zm-40-40q-2 0-4 2t-2 4q0 2 2 4t4 2q2 0 4.5-2t2.5-4q0-2-2-4t-5-2zm-20 20q-6 0-6 6.5t6 6.5q6 0 6-6 0-2-2-4.5t-4-2.5zm20 20q-6 0-6 6 0 2 2 4t4 2q2 0 4.5-2t2.5-4q0-2-2-4t-5-2zm-39-40q-3 0-5 2t-2 4q0 2 2 4t5 2q6 0 6-6 0-2-2-4t-4-2zm-21 20q-6 0-6 6.5t6 6.5q6 0 6-6 0-3-2-5t-4-2zm21 20q-7 0-7 6 0 2 2 4t5 2q6 0 6-6 0-2-2-4t-4-2zm-40-40q-3 0-5 2t-2 4q0 2 2 4t5 2q6 0 6-6 0-2-2-4t-4-2zm0 40q-7 0-7 6 0 2 2 4t5 2q6 0 6-6 0-2-2-4t-4-2zm167 25q-4-2-13-6l-3-1v-80q36-14 65.5-39t49.5-57q14 8 31 8 26 0 44.5-18t18.5-43q0-25-16-42.5T742 426V263q0-39-5-62-6-28-24-55h1q21-16 29-30 17-26-3-52-18-23-48-20-16 2-42 15 8-14 8-24 1-16-13-26t-48-8q-23 2-62 10-27 5-39 5l-51 6q-98 0-150 70-46 64-46 171v163q-23 3-39 20.5T194 489q0 25 18.5 43t44.5 18q17 0 31-8 22 35 54.5 61t71.5 39v73q-95 34-146 98-61 75-66 171 0 3 2 5.5t6 2.5h571q4 0 6-2.5t2-5.5q-4-84-56-155-50-68-129-104zm136-284q17 2 29 15.5t12 32q0 18.5-13.5 32.5T734 535q-12 0-23-6 6-10 10-20l34-14q3-1 4.5-4t-.5-6q-2-3-4.5-4t-5.5 0l-20 8q8-25 11-48zM265 263q0-107 47.5-166.5T445 37l51-5q7 0 31-4l11-2q36-7 55-8 32-3 43 4 8 5 7 11.5T635 54q-5 8-6 12-1 7 4 12 3 2 7 1.5t11-4.5l5-2q24-12 39-13 20-2 32.5 14t4.5 32q-7 11-27 28-14 8-8 16 18 26 24 52 5 22 5 61v155h-23q-4 0-7.5-3.5T692 407V245q0-13-8-23t-21-12q-167-27-199-37-16-5-32-20-11-10-21-25l-8-12q-2-5-7-5t-7 5q-11 25-33 47-15 15-34 28l-16 9q-5 3-5 7v200q0 5-3 8t-7 3h-26V263zm-8 272q-19 0-33-14t-14-32.5q0-18.5 12-32t29-15.5q3 22 11 47l-19-7q-3-1-5.5 0t-4.5 4q-2 6 4 10l33 14 10 20q-10 6-23 6zm9-101h25q11 0 18.5-8t7.5-19V212q17-9 36-24 28-24 44-53 28 41 62 53 38 12 201 38 7 1 12 6t5 13v162q0 11 7.5 19t18.5 8h22q-6 57-38 104.5T605 613q-50 27-109 27t-109.5-27Q336 586 304 538.5T266 434zm116 542H218q6-70 44-128.5t99-92.5q-24 30-28 64-32 4-55.5 31T248 918q-3 19 10 32 11 14 29 14h15q10 0 17-7.5t7-17.5q0-10-7-17t-17-7h-3q5-21 17-34t26-13q12 0 23 10t17 27l3 10h-5q-10 0-17 7t-7 17q0 10 7 17.5t17 7.5h2v12zm0-221v74q-14-8-33-10 6-37 33-64zm-2 193q-4 0-6.5-2.5T371 939q0-4 2.5-6.5t6.5-2.5h14q4 0 6.5-2.5t1.5-6.5q-5-30-21.5-49.5T342 852q-22 0-38.5 19.5T282 921q-1 4 1.5 6.5t5.5 2.5h13q4 0 6.5 2.5t2.5 6.5q0 4-2.5 6.5T302 948q-11 1-17 0-10-1-15-8-8-8-6-20 4-36 25.5-60t49.5-26h3q29 0 51 24.5t27 61.5q2 12-5 20t-19 8h-16zm218 28H398v-12q17 0 28-14 12-12 10-32-8-48-38-77v-27q37 26 97 26 63 0 103-28v164zm0-184q-37 32-103 32-64 0-96-29v-1h-1v-52q10-9 26-12 6-2 6-7v-76q32 9 66 9 38 0 74-12-1 1-1 3t3 5v29q-3 3-3 5.5t2 4.5l1 1v34q0 5 6 7l8 3q8 3 12 5v51zm15 184V753q18 17 28 40t10 48v29q-14 3-23 14t-9 26.5q0 15.5 12.5 28t29 12.5q16.5 0 28.5-12.5t12-28.5q0-16-10-27.5T666 869v-28q0-42-24-79 56 35 91 91.5T773 976H613zM406 371q-9 0-15.5 6.5T384 394q0 10 6.5 16t16 6q9.5 0 16-6.5t6.5-16q0-9.5-6.5-16T406 371zm183 0q-9 0-15.5 6.5T567 394q0 10 6.5 16t15.5 6q9 0 16-6.5t7-16q0-9.5-6.5-16T589 371zm-77 51q-2 6-6 13l-4 6q-5 6 2 11 2 1 5.5.5t5.5-2.5l2-3q7-11 10-19.5t1-27.5q-2-13-9-37-8-30-8-38 0-4-2.5-6t-5.5-2q-3 0-5.5 2t-2.5 6q0 13 9 42 12 46 8 55zm-38 21q3 1 5.5 0t4.5-4l3-6q1-3-.5-6t-4.5-4q-3-1-5.5 0t-4.5 4l-2 6q-1 3 0 6t4 4zm58 48q1-3 0-5.5t-4-4q-3-1.5-5.5-.5t-4.5 4l-2 4q-4 4-9 7t-12 3q-13 0-22-13l-1-1q-1-3-4-4.5t-6 .5q-3 2-4 4.5t0 5.5l1 1q13 22 36 22 12 0 21-6 7-4 11.5-10t4.5-7zM361 312q-2 2-2.5 5.5t1.5 5.5q2 2 5.5 2.5t5.5-1.5q27-24 53 0 2 2 5.5 1.5t5.5-2.5q2-2 1.5-5.5T434 312q-36-32-73 0zm202 12q27-24 53 0 2 2 5.5 1.5t5.5-2.5q2-2 1.5-5.5T626 312q-36-32-73 0-2 2-2.5 5.5t1.5 5.5q2 2 5.5 2.5t5.5-1.5z"/></svg>