<svg viewBox="0 0 1244 1083.753" xmlns="http://www.w3.org/2000/svg"><path d="M141 439q26 0 44-18.5t18-44.5q0-26-18-44t-44-18q-26 0-44.5 18.5t-18.5 44q0 25.5 18.5 44T141 439zm0-94q13 0 22 9t9 22q0 13-9 22.5t-22 9.5q-13 0-22.5-9.5T109 376q0-13 9-22t23-9zm0-141q26 0 44-18.5t18-44q0-25.5-18.5-44t-44-18.5q-25.5 0-44 18.5T78 142q0 26 18.5 44t44.5 18zm0-93q13 0 22 9t9 22q0 13-9 22t-22 9q-13 0-22.5-9t-9.5-22q0-13 9.5-22t22.5-9zm250 203q-26 0-44.5 18T328 376q0 26 18.5 44.5T391 439q26 0 44-18.5t18-44.5q0-26-18-44t-44-18zm0 94q-13 0-22.5-9.5T359 376q0-13 9-22t22.5-9q13.5 0 22.5 9t9 22q0 13-9 22.5t-22 9.5zm0-204q26 0 44-18.5t18-44q0-25.5-18.5-44t-44-18.5q-25.5 0-44 18.5T328 142q0 26 18.5 44t44.5 18zm0-93q13 0 22 9t9 22q0 13-9 22t-22 9q-13 0-22.5-9t-9.5-22q0-13 9.5-22t22.5-9zM266 314q26 0 44-18.5t18-44.5q0-26-18-44t-44-18q-26 0-44.5 18.5t-18.5 44q0 25.5 18.5 44T266 314zm0-94q13 0 22 9t9 22q0 13-9 22.5t-22 9.5q-13 0-22.5-9.5T234 251q0-13 9-22t23-9zm0 406q-34 0-62.5 17T158 688.5Q141 717 141 751t17 62.5q17 28.5 45.5 45.5t62.5 17q34 0 62.5-17t45.5-45.5q17-28.5 17-62.5t-17-62.5Q357 660 328.5 643T266 626zm0 219q-39 0-66.5-27.5T172 751q0-39 27.5-66t66.5-27q39 0 66 27.5t27 65.5q0 38-27.5 66T266 845zm709-525L698 68q-24-22-56.5-20.5T587 73l-56 61V79q0-32-23-55T453 1H78Q46 1 23 24T0 79v844q0 32 23 55t55 23h375q32 0 55-22.5t23-54.5l449-494q22-24 20.5-56T975 320zM531 613l132 120-132 145V613zM78 33h375q19 0 33 13.5T500 79v407H31V79q0-19 14-32.5T78 33zm375 937H78q-19 0-33-14t-14-33V517h469v406q0 19-13.5 33T453 970zm504-561L684 710 531 571V181l79-87q14-14 33-15t34 12l277 252q14 13 15 32.5T957 409zM694 257q17-19 16-45t-20.5-43.5Q670 151 645 152.5t-42.5 20Q585 191 586 218t20 43.5q19 16.5 44.5 16T694 257zm-69-63q9-10 21.5-10t22.5 8.5q10 8.5 10 21.5t-8.5 22q-8.5 9-21 10t-22.5-7.5q-10-8.5-10.5-21.5t8.5-23zm5 319q-17 20-15.5 45.5T635 602q19 18 44.5 16t43-20.5Q740 579 739 552t-20.5-43.5q-19.5-16.5-45-16T630 513zm70 63q-9 10-22 10.5t-22.5-8.5q-9.5-9-10-22t8.5-22.5q9-9.5 22.5-9.5t22 9q8.5 9 9.5 21t-8 22zm-44-130q27 0 45.5-19.5T719 380q-1-27-20.5-43.5t-45-16Q628 321 610 341t-16.5 45q1.5 25 19 42.5T656 446zm-23-84q9-10 22-10t22.5 8q9.5 8 10 22t-8 23q-8.5 9-21.5 9.5t-23-8q-10-8.5-10-21.5t8-23z"/></svg>