<svg viewBox="0 0 1244 1083.753" xmlns="http://www.w3.org/2000/svg"><path d="M303 849q-6 0-10.5 4.5T288 864q0 6 4.5 10.5T303 879h394q6 0 10.5-4.5T712 864q0-6-4.5-10.5T697 849H303zm560-517H712V194q0-6-4.5-10t-10.5-4q-6 0-10 4t-4 10v138h-30V75q0-6-4.5-10.5T638 60H362q-6 0-10.5 4.5T347 75v257h-30V30h366v96q0 6 4 10.5t10 4.5q6 0 10.5-4.5T712 126V16q0-6-4.5-10.5T697 1H303q-6 0-10.5 4.5T288 16v316H137q-6 0-10.5 4.5T122 347v67q0 6 4.5 10.5T137 429q6 0 10.5-4.5T152 414v-52h696v158H594v-55q0-6-4.5-10t-10.5-4H421q-6 0-10.5 4t-4.5 10v55H152v-38q0-6-4.5-10t-10.5-4q-6 0-10.5 4t-4.5 10v445q0 6 4.5 10.5T137 942h45v44q0 6 4 10.5t10 4.5h77q8 0 12-6l39-53h352l39 53q5 6 12 6h77q6 0 10.5-4.5T819 986v-44h44q6 0 10.5-4.5T878 927V801q0-6-4.5-10t-10.5-4q-6 0-10.5 4t-4.5 10v112H152V608h258q8 30 32.5 49.5T499 677h2q32 0 57-19.5t33-49.5h257v125q0 6 4.5 10t10.5 4q6 0 10.5-4t4.5-10V347q0-6-4.5-10.5T863 332zm-426 0q5-21 23-35t40-14q22 0 40 14t23 35H437zm155 0q-5-33-31-56t-61-23q-35 0-61 23t-31 56h-31V89h247v243h-32zM266 972h-55v-30h77l-22 30zm523 0h-55l-22-30h77v30zM152 549h254v30H152v-30zm349 99h-2q-26 0-44.5-18.5T436 585V480h128v105q0 26-18.5 44.5T501 648zm93-69v-30h254v30H594zm-94-52q-9 0-15.5 6t-6.5 16q0 10 8 16v37h28v-37q8-6 8-16t-6.5-16q-6.5-6-15.5-6zm-30-378q-6 0-10 4t-4 11v39q0 6 4 10.5t10 4.5q6 0 10.5-4.5T485 203v-39q0-7-4-11t-11-4zm60-20q-6 0-10.5 4.5T515 144v59q0 6 4.5 10.5T530 218q6 0 10-4.5t4-10.5v-59q0-6-4-10.5t-10-4.5z"/></svg>