<svg viewBox="0 0 1244 1083.753" xmlns="http://www.w3.org/2000/svg"><path d="M344 580v62q0 25 18.5 43.5T406 704h188q26 0 44-18.5t18-43.5v-62q0-49-27.5-89T555 434q9-14 7.5-30.5T549 375q14-11 21.5-27.5T578 314q0-7-4.5-11.5T563 298H438q-7 0-11.5 4.5T422 314q0 18 7.5 34t21.5 27q-11 11-13 28t7 31q-46 17-73.5 57T344 580zm200-251q-6 19-23.5 27.5T485 358q-10-3-18-11t-11-18h88zm-60 95q-6 0-10.5-4.5T469 408q0-7 4.5-11.5T484 392h32q6 0 10.5 4.5T531 408q0 7-4.5 11.5T516 424h-32zm16 31q34 0 62.5 17t45.5 45.5q17 28.5 17 62.5v62q0 13-9 22t-22 9H406q-13 0-22-9t-9-22v-62q0-34 17-62.5t45.5-45.5q28.5-17 62.5-17zm-31 140q-7 0-11.5 4.5T453 611q0 7 4.5 11t11.5 4h15q0 7 4.5 11.5T500 642q7 0 11.5-4.5T516 626h15q7 0 11.5-4.5T547 611v-47q0-7-4.5-11.5T531 548h-47v-16h47q7 0 11.5-4.5T547 517q0-6-4.5-11t-11.5-5h-15q0-6-4.5-10.5T500 486q-7 0-11.5 4.5T484 501h-15q-7 0-11.5 4.5T453 517v47q0 6 4.5 10.5T469 579h47v16h-47zM266 735H94q-7 0-11.5 4.5T78 751v234q0 7 4.5 11.5T94 1001h172q6 0 10.5-4.5T281 985v-15h286q28 0 44-18l169-170q16-16 16-38.5T780 705q-16-16-38.5-16T703 705l-77 77h-17q-6 1-10.5 5.5t-4.5 11q0 6.5 4.5 11T610 814l23-1q7 0 10-4l82-82q7-7 16.5-7t16.5 7q7 6 7 16t-7 17L589 929q-10 10-22 10H266q-7 0-11.5 4.5T250 954v15H109V766h141v126q0 6 4.5 10.5T266 907q7 0 11-4.5t4-10.5v-86l60-36q10-4 16-4h143q13 0 22.5 9.5T531 798v1q-1 13-10.5 21.5T497 829h-59q-7 0-11.5 4.5T422 845q0 7 4.5 11t11.5 4h59q25 1 44.5-16.5t21-43.5q1.5-26-16.5-45t-44-20H357q-18 0-33 9l-43 26v-19q0-7-4.5-11.5T266 735zm93 94q-6 0-10.5 4.5T344 845q0 7 4.5 11.5T359 861h16q7 0 11.5-4.5T391 845q0-7-4.5-11.5T375 829h-16zm30-779L220 220q-17 16-17.5 38.5t15.5 39q16 16.5 38.5 17T295 299l1-1q1 0 1-1l77-77h17q6 0 10.5-5t4.5-11.5q0-6.5-4.5-11T390 188h-23q-7 0-10 5l-82 82q-7 7-16.5 7t-16.5-7q-7-7-7-16.5t7-16.5L411 73q10-10 22-10h301q7 0 11.5-4.5T750 48V33h141v203H750V110q0-6-4.5-10.5T734 95q-7 0-11 4.5t-4 10.5v86l-60 35q-7 5-16 5H500q-6 0-12-3t-10-7q-11-11-9.5-23.5T480 181q10-9 23-8h60q6 0 10.5-4.5T578 157q0-7-4.5-11t-10.5-4h-60q-26-1-45 16.5T438 202q-1 26 17.5 45.5T500 267h143q18 0 33-9l43-26v20q0 6 4.5 10.5T735 267h171q7 0 11.5-4.5T922 252V17q0-7-4.5-11.5T906 1H735q-7 0-11.5 4.5T719 17v15H433q-27 0-44 18zm252 123q6 0 10.5-4.5T656 157q0-7-4.5-11.5T641 141h-16q-7 0-11.5 4.5T609 157q0 7 4.5 11.5T625 173h16z"/></svg>