<svg viewBox="0 0 1244 1083.753" xmlns="http://www.w3.org/2000/svg"><path d="M114 642q-21 6-32.5 27.5T67 723q-4 39 7 80 3 8 12 12 11 2 17-5t3-15q-9-27-7.5-55.5T111 685q3-7 11-12 8-1 12-11 2-10-4-16-8-7-16-4zm288-43q23 0 40-16.5t17-40.5q0-24-17-40.5T401.5 485q-23.5 0-40.5 16.5T344 542q0 24 17 40.5t41 16.5zm0-82q10 0 17 7.5t7 17.5q0 10-7 17.5t-17 7.5q-10 0-17.5-7.5t-7.5-18q0-10.5 7.5-17.5t17.5-7zM262 173q7 0 12 4.5t5 11.5q0 7-5 12t-12 5q-7 0-11.5-5t-4.5-12q0-7 4.5-11.5T262 173zm115 475q7 0 11.5 5t4.5 12q0 7-4.5 11.5T377 681q-7 0-11.5-4.5T361 665q0-7 4.5-12t11.5-5zm16 82q7 0 12 5t5 12q0 7-5 11.5t-12 4.5q-7 0-11.5-4.5T377 747q0-7 4.5-12t11.5-5zM213 222q7 0 12 5t5 12q0 7-5 11.5t-12 4.5q-7 0-11.5-4.5T197 239q0-7 4.5-12t11.5-5zm764 659L760 664l43-387q3-21-12-38t-37-17h-78l26-71L862 39q5-4 6.5-10.5T866 16q-4-6-10.5-7T843 12L679 127q-5 5-6 8l-32 87H365q-17-53-55-96-18-19-47-29 10-25 12-53 0-15-9.5-24.5T241 10q-44 0-76 29-21 23-26 56-28-26-50-37-14-7-21.5-7T55 56q-5 5-5 12t4.5 11.5Q59 84 65 84q3 0 13 5 16 9 37 28-31 5-54 26-29 34-28 76-2 12 8 22.5T65 252h2q28 0 52-12 10 28 29 48 45 41 106 58l17 155q-17 12-29 29l-6-6q-25-23-57-30-37-8-116 7-8 1-14 6.5T41 521q-2 8 .5 15.5T50 549q20 17 40 31-43 15-65 56-20 36-24 85t10 99.5Q25 871 52.5 910t62.5 61q35 22 70 22 14 0 26.5-3.5T229 983q6 3 18 7 47 9 87-13 14 16 36 16h310q21 0 35-16 42 16 89 16h1q46 0 90.5-16.5T975 929q12-10 12-24t-10-24zM764 714H640q5-49 36-88l88 88zm0 33l-88 87q-32-39-36-87h124zm23 23v124q-48-5-87-37l87-87zm33 124V770l88 88q-39 31-88 36zm-66-639q8 0 12.5 6.5T771 273l-13 110-44 22q-25 13-53 14t-54-10l57-154h90zM576 397q-24-9-51-9-39 0-73 17-28 13-58.5 13T335 405l-44-22-12-110q-2-6 4-12t12-6h334l-53 142zM189 62q24-19 53-19 0 31-19 54-24 19-53 18 0-31 19-53zM66 220q-1-30 18-54 24-19 54-19 0 30-19 54-24 19-53 19zm105 45q-18-20-23-48 23-31 23-69 36 0 69-22 27 3 47 23 29 32 44 73h-36q-22 0-37 17-14 15-12 38l4 33q-45-16-79-45zm105 276l5 47-4 2q-10 5-14 8l-5 2q-7 3-10 4 5-37 28-63zm-105-15q21 4 43 21 9 7 9 20v1q-1 7-18 12-24 7-47-1-44-17-77-48 45-11 90-5zm84 432q-12-4-17-8-8-3-16 0-12 6-18 8-30 8-62.5-9t-59-53.5Q56 859 43 812q-13-44-9.5-86.5T54 652q8-16 21.5-26.5T106 610q27-6 52 4 7 3 21 12t34 12v27q0 7 5 11.5t12 4.5q7 0 11.5-4.5T246 665v-27q20-3 34-13l5-3 36 325q-31 19-66 11zm115 2q-6 0-10.5-4t-5.5-11l-59-523 26 13q34 16 72.5 16t72.5-16q23-11 48.5-13t50.5 6L395 889q-3 6 0 12.5t9.5 8.5q6.5 2 12.5-.5t8-9.5l171-460q32 13 66.5 11.5T729 435l25-13-23 212-78-78q-9-9-24-9t-24 11q-44 52-58 117t4.5 129Q570 868 618 916q28 26 59 44H370zm584-55q-31 27-70 41t-80 14q-45 0-88-17-51-21-87-63.5T580 783q-13-54 0-107.5t50-95.5l23 23q-23 27-35 60t-12 67q0 54 27 99t72 71.5q45 26.5 99 26.5 35 0 67.5-12t59.5-34l23 24z"/></svg>