<svg viewBox="0 0 1244 1083.753" xmlns="http://www.w3.org/2000/svg"><path d="M258 352q-6 0-10.5 4t-4.5 10v26q0 6 4.5 10.5T258 407q6 0 10.5-4.5T273 392v-26q0-6-4.5-10t-10.5-4zm0 0zm289 0q-6 0-10.5 4t-4.5 10v26q0 6 4.5 10.5T547 407q6 0 10-4.5t4-10.5v-26q0-6-4-10t-10-4zm0 0zm-99 28q-4-4-10.5-4t-10.5 5q-9 11-24.5 11T378 381q-5-5-11-5t-10.5 4q-4.5 4-4.5 10t4 10q8 10 20.5 15.5t26 5.5q13.5 0 26-5.5T449 400q4-5 3.5-10.5T448 380zm0 0zm-198 621h305q40 0 69.5-26t33.5-66l8-64q1-6-3-11t-10-5.5q-6-.5-10.5 3T637 841l-8 65q-3 28-24.5 47T555 972H250q-28 0-49.5-19T176 906l-36-301q-1-6-5.5-10t-10.5-3q-6 1-10 5.5t-3 10.5l36 301q4 40 33.5 66t69.5 26zm0 0zM13 85l83 67v133q-20 4-33 20.5T50 343v86q0 22 13.5 38T97 488l7 62q1 6 6 10t11 3q6-1 9.5-6t3.5-11l-7-56h551l-34 293q-1 6 2.5 10.5t9.5 5.5h2q5 0 9.5-3.5t5.5-9.5l35-298q20-5 33.5-21t13.5-38v-86q0-21-13-37t-33-21q-1-42-23-74v-65q0-21-10-35h43q15 0 25.5-11T755 74V37q0-15-10.5-25.5T719 1H454q-37 0-71.5 13T320 51l-55 48q-11-24-32.5-38T184 47q-27 0-46 13L74 9Q63 0 48.5 1.5T25 14L8 36Q-1 47 .5 61.5T13 85zm112 195q3-43 34.5-73.5T234 174h338q26 2 49 14.5t38 33.5q20 28 21 61H125v-3zm322-136h-82q43-30 92-33-10 17-10 33zm279 199v86q0 13-9.5 22.5T694 461H110q-13 0-22-9.5T79 429v-86q0-13 9-22t22-9h584q13 0 22.5 9t9.5 22zm-69-197v31q-31-25-71-31-14-2-21-2h-89q1-14 11-23.5t24-9.5h111q14 0 24.5 10t10.5 25zm-384-15l66-58q24-20 54-31.5T454 30h265q2 0 4.5 2t2.5 5v37q0 3-2.5 5t-4.5 2H468q-37 0-71.5 13T334 132l-14 12h-47v-13zm-89-55q22 0 39 14.5t20 36.5q1 4 0 12v5q-47 0-84 25-21 14-34 32v-56q0-29 15-48 16-21 44-21zM30 54l18-22q2-2 4.5-2t3.5 2l59 47q-8 11-13 25-2 4-4 12L31 62q-3-3-1-8zm0 0z"/></svg>