<svg viewBox="0 0 1244 1083.753" xmlns="http://www.w3.org/2000/svg"><path d="M927 131q-6 0-10 4t-4 10v500h-78V30h78v47q0 6 4 10.5t10 4.5q6 0 10.5-4.5T942 77V16q0-7-4-11t-11-4H820q-6 0-10.5 4.5T805 16v7L644 34q-6 1-10 5.5T630.5 50q.5 6 4.5 9.5t10 3.5l160-10v51l-79 43H270l-75-43V94l382-26q6 0 10-4.5t3.5-11q-.5-6.5-5-10.5T575 39L195 64v-5q0-7-4.5-11T180 44H73q-6 0-10.5 4T58 59v442q0 6 4.5 10.5T73 516q6 0 10-4.5t4-10.5V73h78v529H87v-32q0-6-4-10.5T73 555q-6 0-10.5 4.5T58 570v47q0 6 4.5 10.5T73 632h107q2 0 6-2l78 178-76 173q-3 5 1 13 1 3 5 5t8 2h64q10 0 13-9l33-74 33 74q3 9 13 9h65q8 0 12.5-6.5t.5-13.5l-76-173 80-180 124 8 76 172-76 173q-3 7 1 13.5t12 6.5h65q10 0 13-9l33-74 33 74q3 9 13 9h65q8 0 12-7t1-13l-76-173 69-156v8q0 6 4.5 10.5T820 675h107q6 0 10.5-4.5T942 660V145q0-6-4-10t-11-4zM195 582v-11l75-44h456l79 44v52l-610-41zm469 61l47 3-23 52-24-55zm-388-26l70 4-34 77-36-81zm-6-441h456l79 44v60l-79 43H270l-75-43v-61l75-43zm456 322H270l-75-43v-59l75-44h456l79 44v59l-79 43zM195 314l42 24-42 24v-48zm0 175l42 24-42 24v-48zm565-151l45-25v49l-45-24zm45 150v49l-45-24 45-25zm0-351v49l-45-24 45-25zm-568 25l-42 24v-48l42 24zm19 810h-32l56-128 16 37-40 91zm112 0L210 612l33 2 157 358h-32zm-24-201l-16-37 49-111 31 2-64 146zm288 201h-32l56-128 16 37-40 91zm112 0L597 638l34 2 43 100 33 74 69 158h-32zm-24-201l-16-37 38-86 31 2-53 121z"/></svg>