<svg viewBox="0 0 1244 1083.753" xmlns="http://www.w3.org/2000/svg"><path d="M405 619q6 0 10.5-4.5T420 604q0-6-5-10l-18-18q-4-4-10-4t-10.5 4q-4.5 4-4.5 10t4 11l18 18q4 4 11 4zm0 0zm199-199q6 0 10.5-4.5T619 405q0-6-5-10l-18-18q-4-5-10-5t-10.5 4.5Q571 381 571 387t4 11l18 18q4 4 11 4zm0 0zm-125 94q-6-1-10.5 3t-5 10.5q-.5 6.5 3.5 11t10 4.5h4q27 0 43-18 20-18 18-47 0-6-4.5-10t-11-3.5q-6.5.5-10.5 5t-3 10.5q0 15-9.5 24.5T479 514zm0 0zm521-268q-3-54-36-109-36-63-100-101Q807 2 751 1q-65-2-108 42-50 50-24 119v1q8 22 8 32 0 15-16 31L329 509q-4 4-4 10t4 10q4 4 10 4t10-4l283-282q28-28 24-62l160 160q-34-4-62 24l-60 60q-4 4-4 10t4.5 10.5Q699 454 705 454t10-4l60-60q16-16 31-16 10 0 32 8h1q35 14 63.5 8.5T958 358q45-45 42-112zM638 126q-6-31 25-62 35-35 83-35 42 0 86 23L698 186l-60-60zm81 81L859 68q24 16 41 33t33 41L794 282l-75-75zm218 131q-27 26-51 26-7 0-11-1l-61-60 134-134q21 41 23 79 3 53-34 90zm0 0zM653 470L368 755q-28 28-24 62L184 657q34 4 62-24l62-62q4-5 4-11t-4-10.5q-4-4.5-10-4.5t-11 5l-62 62q-16 16-31 16-10 0-32-8h-1q-30-12-47-12-36 0-72 36-44 43-42 107 1 57 35 114 38 63 101 101 57 34 113 35 64 2 108-42 50-50 24-119v-1q-8-22-8-32 0-15 16-31l285-285q5-5 5-11t-4.5-10.5Q670 465 664 465t-11 5zM63 664q27-26 51-26 7 0 11 1l60 60L51 833q-21-42-22-79-3-53 34-90zm37 237q-17-17-33-41l139-140 75 75-140 139q-24-16-41-33zm237 37q-35 35-83 35-42 0-86-23l134-135 60 61q6 31-25 62zm0 0z"/></svg>