<svg viewBox="0 0 1244 1083.753" xmlns="http://www.w3.org/2000/svg"><path d="M586 363q2 0 4-2t2-4q0-2-2-4t-4.5-2q-2.5 0-4.5 1.5t-2 4.5q0 6 7 6zm20 19q2 0 4-2t2-4q0-2-2-4t-4-2q-6 0-6 6 0 2 2 4t4 2zm-20 20q6 0 6-6t-6-6q-2 0-4.5 2t-2.5 4q0 2 2 4t5 2zm20 19q6 0 6-6t-6-6q-2 0-4 2t-2 4q0 6 6 6zm-20 21q2 0 4-2t2-4q0-2-2-4.5t-4-2.5q-2 0-4.5 2t-2.5 5q0 6 7 6zm-19-21q6 0 6-6t-6-6q-2 0-4.5 2t-2.5 4q0 2 2 4t5 2zm-21 21q2 0 4-2t2-4q0-2-2-4.5t-4-2.5q-2 0-4 2t-2 5q0 6 6 6zm-19-21q6 0 6-6t-6-6q-2 0-4 2t-2 4q0 2 2 4t4 2zm-20 21q2 0 4-2t2-4q0-2-2-4.5t-4-2.5q-2 0-4.5 2t-2.5 5q0 6 7 6zm-19-21q6 0 6-6t-6-6q-2 0-4.5 2t-2.5 4q0 2 2 4t5 2zm-21 21q2 0 4-2t2-4q0-2-2-4.5t-4-2.5q-2 0-4 2t-2 5q0 6 6 6zm-19-21q6 0 6-6t-6-6q-2 0-4 2t-2 4q0 2 2 4t4 2zm-20 21q2 0 4-2t2-4q0-2-2-4.5t-4-2.5q-2 0-4.5 2t-2.5 5q0 6 7 6zm-19-21q6 0 6-6t-6-6q-2 0-4.5 2t-2.5 4q0 2 2 4t5 2zm-21 8q-2 0-4 2t-2 5q0 6 6 6 2 0 4-2t2-4.5q0-2.5-1.5-4.5t-4.5-2zm-19-20q-2 0-4 2t-2 4q0 2 2 4t4 2q6 0 6-6t-6-6zm-39 0q-6 0-6 6t6 6q6 0 6-6t-6-6zm-40 0q-2 0-4 2t-2 4q0 2 2 4t4 2q6 0 6-6t-6-6zm-58-121q6 0 6-6t-6-6q-2 0-4 2t-2 4q0 2 2 4t4 2zm0 79q6 0 6-6t-6-6q-2 0-4 2t-2 4q0 2 2 4t4 2zm0 40q2 0 4-2t2-4q0-2-2-4t-4-2q-6 0-6 6t6 6zm-19-151q-6 0-6 6t6 6q2 0 4-2t2-4q0-2-2-4t-4-2zm-20 20q-6 0-6 6t6 6q6 0 6-6 0-2-2-4t-4-2zm20 19q-2 0-4 2t-2 4q0 2 2 4t4 2q6 0 6-6t-6-6zm-20 21q-6 0-6 6t6 6q6 0 6-6t-6-6zm20 19q-6 0-6 6t6 6q2 0 4-2t2-4q0-2-2-4t-4-2zm-20 20q-6 0-6 6t6 6q6 0 6-6 0-2-2-4t-4-2zm20 19q-2 0-4 2t-2 4q0 2 2 4t4 2q6 0 6-6t-6-6zm-20 21q-6 0-6 6t6 6q6 0 6-6t-6-6zm20 19q-6 0-6 6t6 6q2 0 4-2t2-4q0-2-2-4t-4-2zm-20 20q-6 0-6 6t6 6q6 0 6-6t-6-6zm-19-178q-6 0-6 6t6 6q6 0 6-6 0-2-2-4t-4-2zm0 118q-6 0-6 6t6 6q6 0 6-6t-6-6zm0 40q-6 0-6 6t6 6q6 0 6-6 0-2-2-4t-4-2zm-21 60q-6 0-6 6t6 6q2 0 4-2t2-4q0-6-6-6zm-39 0q-6 0-6 6t6 6q6 0 6-6 0-2-2-4t-4-2zm0 39q-6 0-6 6t6 6q6 0 6-6t-6-6zm-40-39q-6 0-6 6t6 6q2 0 4-2t2-4q0-6-6-6zm21 19q-6 0-6 6t6 6q6 0 6-6 0-2-2-4t-4-2zm0 39q-6 0-6 6t6 6q6 0 6-6t-6-6zm-60-58q-6 0-6 6t6 6q6 0 6-6 0-2-2-4t-4-2zm811-141q2 0 4-2t2-4q0-2-2-4t-4-2q-2 0-4 2t-2 4q0 2 2 4t4 2zm0 40q2 0 4-2t2-5q0-6-6-6-2 0-4 2t-2 4q0 2 2 4.5t4 2.5zm0 39q2 0 4-2t2-4q0-2-2-4t-4-2q-2 0-4 2t-2 4q0 2 2 4t4 2zm-19-99q2 0 4-2t2-5q0-6-6-6-2 0-4 2t-2 4.5q0 2.5 2 4.5t4 2zm-20 20q2 0 4-2t2-4q0-2-2-4t-4-2q-2 0-4.5 2t-2.5 4q0 2 2 4t5 2zm20 19q2 0 4-2t2-4q0-2-2-4t-4-2q-2 0-4 2t-2 4q0 2 2 4t4 2zm-20 21q2 0 4-2t2-5q0-6-6-6-2 0-4.5 2t-2.5 4q0 2 2 4.5t5 2.5zm20 19q2 0 4-2t2-5q0-6-6-6-2 0-4 2t-2 4q0 2 2 4.5t4 2.5zm-20 20q2 0 4-2t2-4q0-2-2-4t-4-2q-2 0-4.5 2t-2.5 4q0 2 2 4t5 2zm20 19q2 0 4-2t2-4q0-2-2-4t-4-2q-2 0-4 2t-2 4q0 2 2 4t4 2zm-39-158q2 0 4-2t2-4q0-2-2-4t-4-2q-2 0-4.5 2t-2.5 4q0 2 2 4t5 2zm0 40q2 0 4-2t2-5q0-6-6-6-2 0-4.5 2t-2.5 4.5q0 2.5 2 4.5t5 2zm0 39q2 0 4-2t2-4q0-2-2-4t-4-2q-2 0-4.5 2t-2.5 4q0 2 2 4t5 2zm0 40q2 0 4-2t2-5q0-6-6-6-2 0-4.5 2t-2.5 4q0 2 2 4.5t5 2.5zm0 39q2 0 4-2t2-4q0-2-2-4t-4-2q-2 0-4.5 2t-2.5 4q0 2 2 4t5 2zm-40 0q2 0 4-2t2-4q0-2-2-4t-4-2q-2 0-4 2t-2 4q0 2 2 4t4 2zm-20 8q-3 0-5 2t-2 4q0 2 2 4.5t5 2.5q6 0 6-6.5t-6-6.5zm0 40q-7 0-7 6t6.5 6q6.5 0 6.5-6 0-2-2-4t-4-2zm0 39q-3 0-5 2t-2 4q0 2 2 4t5 2q6 0 6-6 0-2-2-4t-4-2zm-40-39q-6 0-6 6t6 6q2 0 4-2t2-4q0-6-6-6zm0 39q-2 0-4 2t-2 4q0 2 2 4t4 2q6 0 6-6t-6-6zm-39-39q-6 0-6 6t6 6q6 0 6-6 0-2-2-4t-4-2zm0 39q-6 0-6 6t6 6q6 0 6-6 0-2-2-4t-4-2zm322-26h-24v-15q0-16-11.5-27.5T908 438h-36V312q0-11-8-19.5t-20-8.5h-25v-14q0-17-11-28t-28-11H654q-16 0-27.5 11.5T615 270v56H257v-56q0-17-11-28t-28-11H92q-16 0-27.5 11.5T53 270v14H29q-12 0-20.5 8.5T0 312v170q0 11 8.5 19.5T29 510h24v14q0 16 11.5 27.5T92 563h36v126q0 12 8.5 20.5T156 718h25v14q0 16 11.5 27.5T220 771h126q17 0 28-11.5t11-27.5v-56h358v56q0 16 11.5 27.5T782 771h126q16 0 27.5-11.5T947 732v-14h24q12 0 20.5-8.5t8.5-20.5V520q0-11-8.5-19.5T971 492zM181 702h-25q-5 0-8.5-4t-3.5-9V520q0-5 3.5-8.5t8.5-3.5h25v194zm0-225v15h-25q-8 0-16 5-1-4-6.5-4t-5.5 5q0 5 5 7-5 7-5 15v28H92q-9 0-16-7t-7-17v-1q2 2 5 2 6 0 6-6t-6-6q-3 0-5 3v-14q0-3-2-5.5t-6-2.5h-2q-1-1-4-1t-4 1H29q-5 0-9-3.5t-4-8.5V312q0-5 4-8.5t9-3.5h32q4 0 6-2.5t2-5.5v-22q0-10 7-17t16-7h96q2 3 4.5 3t5.5-3h20q10 0 17 7t7 17v168h-4q-2-4-6-4t-6 4h-6q-16 0-27.5 11.5T181 477zm188 255q0 10-6.5 17t-16.5 7H220q-10 0-16.5-7t-6.5-17V477q0-9 6.5-16t16.5-7h126q10 0 16.5 7t6.5 16v255zm-15-293q0-1 1-2v-1q0-3-2-5t-4-2q-2 0-4 2t-2 5v2h-28v-2q0-7-6-7t-6 7q0 2 1 2h-29q1 0 1-2.5t-2-4.5q-2-2-4-2t-4 2q-2 2-2 5v2h-7v-96h358v110h-3q-2-4-6-4t-6 4h-28q-2-4-5.5-4t-5.5 4h-28q-2-4-6.5-4t-4.5 4h-29q-2-4-5.5-4t-5.5 4h-28q-2-4-6.5-4t-4.5 4h-29q-2-4-5.5-4t-5.5 4h-27q-10-10-22-13zm30 29h231v56q0 7 1 10H385v-57q0-6-1-9zm359 192H385V550h358v110zm0-126H633q-2-6-2-10v-14q5-2 5-5t-1.5-5q-1.5-2-3.5-2V270q0-10 6.5-17t16.5-7h126q10 0 16.5 7t6.5 17v12q-3 3-3 5.5t3 5.5q2 7 8 7h33q5 0 9 3.5t4 8.5v126h-75q-4 0-12 2l-3-1q-3 0-6 5-9 7-13 14-2 0-4 2t-2 4.5q0 2.5 2 4.5-1 3-1 8v57zm188 198q0 10-6.5 17t-16.5 7H782q-10 0-16.5-7t-6.5-17V477q0-9 6.5-16t16.5-7h126q10 0 16.5 7t6.5 16v255zm53-43q0 5-3.5 9t-9.5 4h-24V508h24q6 0 9.5 3.5t3.5 8.5v169z"/></svg>