<svg viewBox="0 0 1244 1083.753" xmlns="http://www.w3.org/2000/svg"><path d="M418 608q6 0 10.5-4.5T433 593q0-6-4-10l-16-16q-4-5-10-5t-10.5 4.5Q388 571 388 577t4 11l16 15q5 5 10 5zm0 0zm163-178q5 4 11 4t10-4q4-4 4-10t-4-10l-16-16q-4-5-10-5t-10.5 4.5Q561 398 561 404t4 11l16 15zm0 0zM481 541q24 1 42.5-16.5T540 483q-1-6-5.5-10t-10.5-3.5q-6 .5-10 5t-4 10.5q2 10-7 19t-20 8q-6 0-10.5 4t-5 10q-.5 6 3.5 10.5t10 4.5zm0 0zM15 930q30 29 59 59 15 15 36.5 15t36.5-15l37-37 31 30q20 20 49 20t48-20l31-31q16-16 19-36l14 13q20 20 49 20t49-20l16-15q15-15 15-16 20-20 20-49t-20-48l-85-85 294-293 84 85q20 19 49 19t49-19l31-31q20-20 20-49t-20-49l-14-14q19-3 37-19l31-31q20-20 20-49t-20-48l-31-31 37-38q15-14 15-35.5T987 76l-59-59Q913 2 891.5 2T856 17l-38 37-31-31Q768 3 739 3t-49 20l-31 31q-16 18-19 37l-14-14q-20-20-49-20t-49 20l-31 31q-19 20-19 49t19 49l85 84-293 294-85-85q-20-20-48.5-20T107 499l-31 31q-20 20-20 49t20 49l13 13q-23 5-36 20l-31 31Q2 711 2 740t20 49l30 31-37 38Q0 872 0 893.5T15 930zM876 37q7-6 16-6t15 6l30 30q29 30 30 30 6 6 6 15t-6 15l-38 38-90-90 37-38zm-358 92l31-31q14-12 29-12t27 12l91 91q5 4 11 4t10.5-4q4.5-4 4.5-10.5t-5-10.5l-37-37q-12-11-12-27.5T680 75l31-31q11-11 27-11t29 11l193 193q11 13 11 29t-11 27l-31 31q-12 12-28.5 12T873 324L758 210q-4-5-10-5t-10.5 4.5Q733 214 733 220t4 10l169 169q11 11 11 27.5T906 455l-31 31q-11 11-28 11t-28-11L518 185q-11-11-11-28t11-28zm85 182l90 90-294 294-90-91 294-293zM31 740q0-15 11-28l31-31q12-11 28.5-11t27.5 11l114 114q5 4 11 4t10.5-4.5Q269 790 269 784t-5-10L96 607q-11-12-11-28.5T96 551l31-31q12-11 28.5-11t27.5 11l151 150q150 150 150 151 11 11 11 27.5T484 877l-31 31q-11 11-27.5 11T397 908l-46-46q-46-46-46-47-4-4-10-4t-10.5 4q-4.5 4-4.5 10.5t4 10.5l19 19q19 20 20 20 11 11 11 27.5T323 931l-31 31q-12 11-28.5 11T236 962L42 768q-11-11-11-28zm5 138l37-37 90 90-37 37q-6 6-15 6.5T95 968l-59-59q-7-7-7-15.5t7-15.5zm0 0z"/></svg>