<svg viewBox="0 0 1244 1083.753" xmlns="http://www.w3.org/2000/svg"><path d="M50 678q6 0 10.5-4.5T65 663V192q0-16 10.5-27t26.5-11h441q6 0 10.5-4t4.5-10q0-6-4.5-10.5T543 125H102q-28 0-47.5 19.5T35 192v471q0 6 4.5 10.5T50 678zm643 48q-6 0-10.5 4t-4.5 10v168q0 26-18.5 45T615 972H102q-16 0-26.5-11T65 934V729q0-6-4.5-10.5T50 714q-6 0-10.5 4.5T35 729v205q0 28 19.5 47.5T102 1001h513q38 0 65.5-27.5T708 908V740q0-6-4.5-10t-10.5-4zm246-363l-36-11 36-12q9-2 15.5-9t8.5-16q6-18-7-34h-1v-1q1-9-2-17.5T942 248q-16-13-34-7l-92 29q-4-2-14-4h-2V45q0-18-13-31T756 1H631q-19 0-31.5 13T587 45v613q0 18 12.5 31t31.5 13h125q18 0 31-13t13-31V438q7-1 16-5l92 29q6 2 11 2 13 0 23-9 7-5 11-14t2-18v-1h1q13-16 7.5-34.5T939 363zm-22-94q4-1 6.5.5t2.5 7.5v4q-1 9 5 17l3 3q2 2 1 5v1q0 4-5 5l-60 19q-6-22-22-40l69-22zM785 409q-24 0-41-17t-17-40q0-23 17-40.5t41-17.5q24 0 41 17t17 40.5q0 23.5-17 40.5t-41 17zM631 30h125q6 0 10 4.5t4 10.5v221q-33 4-54 32H616V45q0-6 4-10.5t11-4.5zm70 345h-85v-47h85q-3 10-3 23t3 24zm55 298H631q-7 0-11-4.5t-4-10.5V405h100q21 27 54 33v220q0 6-4 10.5t-10 4.5zm178-270l-3 3q-7 7-5 16v4q0 5-2.5 7t-6.5 1l-69-22q16-18 22-40l60 19q5 1 5 5v1q1 4-1 6zM260 260q-19 0-32.5 13.5T214 307v106q0 19 13.5 32.5T260 459h223q19 0 33-13.5t14-32.5V307q0-20-13.5-33.5T483 260H260zm240 47v106q0 7-5 12t-12 5H260q-7 0-12-5t-5-12V307q0-7 5-12t12-5h223q8 0 12.5 4.5T500 307zm-63 11H306q-6 0-10.5 4t-4.5 10q0 6 4.5 10.5T306 347h131q6 0 10.5-4.5T452 332q0-6-4.5-10t-10.5-4zm0 54H306q-6 0-10.5 4.5T291 387q0 6 4.5 10.5T306 402h131q6 0 10.5-4.5T452 387q0-6-4.5-10.5T437 372z"/></svg>