<svg viewBox="0 0 1244 1083.753" xmlns="http://www.w3.org/2000/svg"><path d="M492 1q-99 0-188.5 37.5T145 144.5Q76 213 38 304T0 492.5q0 97.5 37 188T144 841q93 94 220.5 128.5t255 .5q127.5-34 221-127.5t128-221.5q34.5-128 0-255.5T840 145Q771 76 680.5 38.5T492 1zm324 816q-88 89-208 120-116 31-233 0-119-31-207.5-119.5T47 609q-30-117 0-233 32-120 120-208T375 49q116-31 233 0 120 31 208 119t120 208q30 117 0 233-32 120-120 208zm-60-631q0-8-6-12-80-65-182-84-98-19-194 10-99 30-172 103T99 375q-29 96-10 195 19 101 84 181 6 6 12 6h1q7 0 12-5l553-554q5-5 5-12zM262 558q0-85 32-173t83-144q56-60 115-60 36 0 72 23.5t67 67.5L274 630q-12-35-12-72zm393-310q-36-48-78-73.5T492 149q-71 0-134 64-58 59-93 154.5T230 558q0 50 18 97l-60 61q-54-74-68.5-163.5T132 378q28-87 93-152t151.5-92.5Q463 106 551 120q90 14 164 69l-60 59zm143-19q-6-2-12 4L232 787q-6 6-5 12.5t7 11.5q80 66 181 85 99 19 195-10 99-30 172-103t103-172q29-96 10-195-19-101-85-181-4-6-12-6zm-81 373l-27-18q-8-6-18-6t-18 6l-81 54-57-29q-6-3-12.5-1t-9.5 8.5q-3 6.5-1 13t8 9.5l57 28q18 8 33-2l81-54 36 24q-24 69-83.5 111T492 788q-43 0-83-15.5T338 728l350-349q33 88 34 180-2 28-5 43zm41 157q-65 65-152 93-85 27-173 13-90-14-164-68l46-46q36 34 82 52t95 17q71 0 131.5-35t95.5-95.5Q754 629 754 558q-2-106-41-205l83-83q54 74 68 164 14 88-13 173-28 87-93 152zM389 276q-38 51-61 110t-30 122q-1 7 3.5 12t11.5 6h2q6 0 10.5-4t5.5-11q12-118 84-214 3-3 3.5-8t-1.5-8q-3-9-12-11-4-1-8.5 1t-7.5 5zm54-46q7 0 11.5 5t4.5 12q0 7-4.5 11.5T443 263q-7 0-12-4.5t-5-11.5q0-7 5-12t12-5z"/></svg>