<svg viewBox="0 0 1244 1083.753" xmlns="http://www.w3.org/2000/svg"><path d="M976 809h-16V292q0-39-28-67t-68-28h-52q-6 0-10.5 4t-4.5 10q0 6 4.5 10.5T812 226h52q28 0 47 19.5t19 46.5v517H603q-15 0-25 13l-4 6q-7 10-19 10H441q-11 0-18-10l-4-6q-10-13-25-13H238q-6 0-10.5 4t-4.5 10q0 6 4.5 10.5T238 838h156l5 7q7 10 18 16t24 6h114q13 0 24.5-6t18.5-16l4-7h367v16q0 29-20.5 50T899 925H100q-29 0-50-21t-21-50v-16h146q6 0 10.5-4.5T190 823q0-6-4.5-10t-10.5-4H68V292q0-27 19.5-46.5T135 226h43q6 0 10.5-4.5T193 211q0-6-4.5-10t-10.5-4h-43q-40 0-68 28t-28 67v517H23q-10 0-16.5 6.5T0 832v22q0 41 29.5 70.5T100 954h799q41 0 70.5-29.5T999 854v-22q0-10-7-16.5t-16-6.5zM135 289h94q6 0 10.5-4.5T244 274q0-6-4.5-10.5T229 259h-94q-14 0-24 9.5T101 292v469q0 6 4.5 10.5T116 776h767q6 0 10-4.5t4-10.5V637q0-6-4-10.5t-10-4.5q-6 0-10.5 4.5T868 637v109H131V292q0-3 4-3zm762 3q0-14-9.5-23.5T864 259h-47q-7 0-11 4.5t-4 10.5q0 6 4 10.5t11 4.5h47q4 0 4 3v283q0 6 4 10t11 4q7 0 10.5-4t3.5-10V292zm-652-54l35 18v137q0 37 26.5 63.5T370 483h259q37 0 63.5-26.5T719 393V255l21-11v261q-17 5-27.5 19T702 556q0 22 15.5 37.5T755 609q22 0 37.5-15.5T808 556q0-18-10.5-32T770 505V208q0-10-5-17.5T752 178L514 51q-16-10-32 0L245 178q-8 5-13 12.5t-5 17q0 9.5 5 18t13 12.5zm534 318q0 10-7 17t-17 7q-10 0-17-7t-7-17q0-10 7-17t17-7q10 0 17 7t7 17zM259 204L496 76h5l237 128q2 1 2 4t-2 4L501 339q-2 1-5 0l-67-36q-5-2-11-.5t-9 6.5q-3 5-1 11t7 9l67 36q7 4 16 4t16-4l176-94v122q0 25-18 43t-43 18H370q-25 0-43-18t-18-43V272l49 27q5 3 11 1t9-7q3-5 1-11t-7-9l-113-61q-3-2-3-4.5t3-3.5z"/></svg>