<svg viewBox="0 0 1244 1083.753" xmlns="http://www.w3.org/2000/svg"><path d="M707 555q-1-5 3-9l142-139q8-8 11-19t-1-22q-7-22-32-27l-196-28q-7-2-8-6l-88-178q-5-10-15-16t-21-6q-11 0-21 6t-15 16l-44 90q-2 5 0 11t7.5 8q5.5 2 11 .5t7.5-7.5l45-89q2-6 9-6t9 6l88 178q9 19 30 22l197 28q5 1 8 6l1 1v1q0 7-3 10L690 525q-15 14-12 35l34 196q1 5-4 10-1 1-4.5 2t-6.5-1l-72-37q-5-3-11-1t-8.5 7q-2.5 5-.5 11t7 9l71 37q10 5 18 5 13 0 24-8 9-7 13.5-17.5T741 751l-34-196zM570 700l-49-25q-9-5-19-5t-18 5l-176 92q-7 3-11-1-6-3-5-10l34-196q3-21-11-35L172 386q-5-5-2-11v-1q3-5 8-6l197-28q21-3 30-22l16-32q2-5 0-11t-7-8.5q-5-2.5-11-.5t-9 7l-16 32q-1 4-7 6l-197 28q-12 2-20.5 9.5t-11.5 18q-3 10.5-.5 22T152 407l142 139q5 3 3 9l-33 196q-2 11 2 21.5t13 17.5q11 8 24 8 8 0 18-5l176-92q5-3 10 0l49 25q5 3 11 1t9-7q3-5 1-11t-7-9zM76 128l120 59q8 4 14 4 12 0 21-9 7-7 9.5-16t-.5-19L192 23q-4-12-16-17.5T152 4Q90 25 62 86q-5 11-1 23.5T76 128zm12-30q23-50 73-66h1q2 0 3 1l47 125q2 0 0 3-1 1-2 0L90 101q-2 0-2-3zm685 84q9 9 21 9 5 0 15-4l119-59q11-6 15.5-18.5T943 86q-29-61-90-82-13-4-25 1.5T812 23l-47 124q-4 10-2 19t10 16zm19-24l48-125q0-1 2-1h1q50 16 73 66 0 3-1 3l-120 60q-1 1-2 0t-1-2v-1zM231 824q-7-7-17-8.5t-18 3.5L76 878q-11 6-15 18.5t1 23.5q28 61 90 82 6 2 10 2 10 0 18-5.5t12-15.5l48-124q3-10 .5-19t-9.5-16zm-19 24l-47 125q-2 2-4 1-50-16-73-66 0-3 2-3l119-60h3q2 3 0 3zm716 30l-21-10q-5-2-11 0t-8.5 7q-2.5 5-.5 11t7 8l21 11q1 0 1 3-23 50-73 66-1 1-2 .5t-1-1.5l-48-126q0-1 1-2t2 0l43 21q5 3 11 1t8.5-7.5q2.5-5.5.5-11t-7-8.5l-42-21q-9-4-18.5-3t-17.5 8q-8 7-10 16t2 19l47 124q4 10 12 15.5t18 5.5q3 0 9-1l2-1q61-21 90-82 5-11 .5-23.5T928 878zM115 503q0-16-15-24l-55-28q-9-4-20-1T9 464q-18 40 0 76 8 14 24 14 3 0 9-1l2-1 55-25q8-3 12-9.5t4-14.5zm-81 21q-9-22 1-45l47 24-48 21zm961-60q-4-11-15.5-14t-20.5 1l-55 28q-15 8-15 24 2 18 16 24l55 25q8 2 11 2 16 0 24-14 18-36 0-76zm-25 60l-48-21 48-24q10 26 0 45zM349 107q1 5 5 8t9 3q2 0 4-1 5-2 8-7t2-11l-16-55q-2-6-7-9t-11-1.5q-6 1.5-9 7T333 51l16 56zM157 265q3-5 .5-11t-7.5-8l-44-20q-5-2-11 0t-8 8q-2 6 0 11.5t7 7.5l44 19q4 2 7 2t7-2.5q4-2.5 5-6.5zM89 668q-5 4-6 10t3 11.5q4 5.5 10.5 5.5t8.5-2l40-26q5-4 6.5-10t-1.5-11q-3-5-9.5-6t-11.5 2l-40 26zm303 214q-5-3-11-1t-8 7l-23 42q-3 5-1 11t6.5 8.5q4.5 2.5 7.5 2.5 8 0 13-8l22-42q3-5 1.5-11t-7.5-9zm246-765q1 1 5 1t8-3q4-3 5-8l15-56q2-5-1-10.5t-9-7q-6-1.5-11 1.5t-7 9l-16 55q-1 6 2 11t9 7zm279 117q-2-6-8-8t-11 0l-44 20q-5 2-7 8t-.5 10.5q1.5 4.5 5.5 7t7 2.5q3 0 7-2l44-19q5-2 7.5-8t-.5-11zm-62 412q-4 5-2.5 11t6.5 10l40 26q2 2 9 2t11-5.5q4-5.5 2.5-11.5t-6.5-10l-40-26q-5-3-11-2t-9 6zM632 888q-3-5-9-7t-11 1q-5 3-7 9t1 11l23 42q3 8 13 8 2 0 7-2.5t6.5-8.5q1.5-6-1.5-11l-22-42z"/></svg>