<svg viewBox="0 0 1244 1083.753" xmlns="http://www.w3.org/2000/svg"><path d="M387 305H239q-27 0-45-20L97 179q-10-11-9.5-26T99 128.5q11-9.5 24-9.5h76q5 0 8.5 3.5t3.5 9q0 5.5 4.5 10T226 146h174q6 0 10.5-4.5t4.5-10q0-5.5 4-9t9-3.5h75q15 0 25.5 10.5t10.5 24q0 13.5-10 25.5l-97 106q-18 20-45 20zM123 144q-7 0-10 6-2 8 2 12l98 107q9 11 26 11h148q15 0 26-11l97-107q5-5 3-11.5t-11-6.5h-65q-4 12-14.5 19.5T399 171H226q-13 0-23.5-7.5T188 144h-65zm754 744h-76q-5 0-8.5-3.5t-3.5-9q0-5.5-4.5-10T774 861H600q-6 0-10.5 4t-4.5 11q0 5-4 8.5t-9 3.5h-75q-15 0-25.5-10.5T461 852q0-12 10-24l97-107q19-19 45-19h148q26 0 45 19l97 107q10 11 9.5 26t-11 24.5Q891 888 877 888zm-65-25h65q7 0 10-6 2-8-2-12l-98-107q-9-11-26-11H613q-17 0-26 11l-98 107q-5 5-2 11.5t10 6.5h65q4-12 14.5-19.5T600 836h174q13 0 23 7.5t15 19.5zM687 727q-5 0-9-4t-4-9V525q0-32-16-59.5t-43-44Q588 405 555 405q-19 0-33 13.5T508 452q0 30-21 51t-51 21q-39 0-72.5-19.5t-53-53Q291 418 291 379v-86q0-5 4-9t9-4q5 0 8.5 4t3.5 9v86q0 32 16 60t44 44q28 16 60 16 20 0 33.5-14t13.5-33q0-30 21-51t51-21q39 0 72 19.5t52.5 53Q699 486 699 525v189q0 5-3.5 9t-8.5 4zM400 171H226q-16 0-28-12t-12-28.5q0-16.5 12-28T226 91h174q17 0 28.5 11.5T440 131q0 16-11.5 28T400 171zm-174-55q-6 0-10.5 4.5T211 131q0 6 4.5 10.5T226 146h174q6 0 10.5-4.5T415 131h13-13q0-7-4.5-11t-10.5-4H226zm548 800H600q-16 0-28-12t-12-28.5q0-16.5 12-28t28-11.5h174q17 0 28.5 11.5T814 876q0 16-11.5 28T774 916zm-174-55q-7 0-11 4t-4 10.5q0 6.5 4.5 11T600 891h174q6 0 10.5-4.5T789 876l12-1h-12q0-6-4.5-10.5T774 860l-174 1z"/></svg>