<svg viewBox="0 0 1244 1083.753" xmlns="http://www.w3.org/2000/svg"><path d="M906 87v-8q0-32-23-55T828 1q-32 0-55 23t-23 55v109h-62v-46q0-24-15.5-41.5t-39-21Q610 76 590 90q-8-24-30-35t-45.5-5Q491 56 478 78q-18-16-41.5-15t-41 16.5Q378 95 375 119q-20-12-42-8t-37 21q-15 17-15 41v15h-31V79q0-32-23-55T172 1q-32 0-55 23T94 79v8q-20-11-42-7t-37 21Q0 118 0 142v250q0 23 14.5 40t37 21.5Q74 458 94 446v8q0 32 23 55t55 23q32 0 55-23t23-55V345h31v73q0 26 15 46l55 77q8 13 8 27v417q0 7 4.5 11.5t11.5 4.5q7 0 11.5-4.5T391 985V568q0-25-15-46l-55-76q-8-13-8-28v-73h296q7 0 11.5-4.5T625 329q0-7-4.5-11.5T609 313h-23q-15 0-27-11.5T547 275q0-15 9.5-27t25.5-13h90q7 0 11.5 4.5T688 251v167q0 16-9 28l-55 76q-15 21-15 46v417q0 7 4.5 11.5t11.5 4.5q7 0 11.5-4.5T641 985V568q0-14 8-27l55-77q15-20 15-46v-73h31v109q0 32 23 55t55 23q32 0 55-23t23-55v-8q20 12 42.5 7.5t37-21.5q14.5-17 14.5-40V142q0-24-14.5-41t-37-21.5Q926 75 906 87zm-281 23q13 0 22 9.5t9 22.5v62h-62v-62q0-13 9-22.5t22-9.5zm-219 16q0-13 9.5-22t22.5-9q13 0 22 9t9 22v78q0 13-9 22t-22 9q-13 0-22.5-9t-9.5-22v-78zm-93 47q0-13 9-22t22-9q13 0 22 9t9 22v31q0 13-9 22t-22 9q-13 0-22-9t-9-22v-31zM63 423q-13 0-22.5-9T31 392V142q0-14 9.5-23t22.5-9q13 0 22 9t9 23v250q0 13-9 22t-22 9zm156 31q0 19-13.5 33t-33 14q-19.5 0-33.5-14t-14-33V79q0-20 14-33.5T172.5 32q19.5 0 33 13.5T219 79v375zm31-234h33q6 23 25.5 36t43 10q23.5-3 39.5-21 19 22 46.5 22t46.5-22q14 15 32 20-3 27 12 48H250v-93zm278 15q-12-2-20-10.5t-8-20.5v-94q0-13 9.5-21.5t22-9q12.5-.5 22 9T563 110q0 95-1 98-21 7-34 27zm191 78v-62q0-17-12-31h43v93h-31zm156 141q0 19-13.5 33t-33 14q-19.5 0-33.5-14t-14-33V79q0-20 14-33.5T828.5 32q19.5 0 33 13.5T875 79v375zm94-62q0 13-9 22t-22 9q-13 0-22.5-9t-9.5-22V142q0-14 9.5-23t22.5-9q13 0 22 9t9 23v250zm-406 0q-26 0-44.5 18T500 454q0 7 4.5 11.5T516 470q7 0 11-4.5t4-11.5q0-13 9.5-22t22.5-9q6 0 10.5-4.5T578 407q0-7-4.5-11t-10.5-4zm-94 156q-7 0-11.5 4.5T453 563v125q0 7 4.5 11.5T469 704q7 0 11-4.5t4-11.5V563q0-6-4.5-10.5T469 548zm64 15q-6 0-10.5 5t-4.5 11l-2 187q0 7 4.5 11.5t11 4.5q6.5 0 11-4.5T547 767l2-188q0-6-4.5-10.5T533 563z"/></svg>