<svg viewBox="0 0 1244 1083.753" xmlns="http://www.w3.org/2000/svg"><path d="M150 710q-26 0-44-18t-18-44V354q0-26 18-44t44-18q26 0 44 18t18 44v294q0 25-18 43.5T150 710zm0-393q-16 0-26.5 11T113 354v294q0 15 10.5 26t26 11q15.5 0 26.5-11t11-26V354q0-15-11-26t-26-11zm700 393q-25 0-43.5-18.5T788 648V354q-1-25 17-43.5t44-19.5q26-1 44.5 17t19.5 44v296q0 26-18.5 44T850 710zm0-393q-15 0-26 11t-11 26v294q0 15 10.5 26t26 11.5q15.5.5 26.5-10t12-26.5V354q0-15-11-26t-27-11zM200 638q-5 0-9-4t-4-9V354q0-5 4-8.5t9-3.5q5 0 8 3l162 135q4 4 4.5 9t-2.5 9L208 635q-3 3-8 3zm12-257v218l130-109-130-109zm588 257q-3 0-8-3L630 499q-4-3-4.5-8t3.5-9l1-2 162-135q4-4 9.5-3.5t8.5 4.5q3 4 3 8v271q0 5-4 9t-9 4zM658 490l130 108V381L658 490zm-92 148q-18 0-30.5-16.5T523 582V468q0-14-7-25t-15.5-11q-8.5 0-15 11t-6.5 25v80q0 24-13 41t-32 17q-19 0-32-17t-13-41v-19q0-11-5-19t-10-8h-12q-5 0-9-3.5t-4-8.5q0-5 4-9t9-4h12q17 0 28.5 15t11.5 37v19q0 14 6.5 23.5T434 581q7 0 13.5-9.5T454 548v-80q0-26 13.5-43.5T501 407q20 0 33.5 18t13.5 43v114q0 13 5.5 22t12.5 9q7 0 13-9t6-22v-53q0-22 11.5-37t28.5-15h13q5 0 8.5 4t3.5 9q0 5-3.5 8.5T638 502h-13q-6 0-10.5 8t-4.5 19v53q0 23-13 39.5T566 638z"/></svg>