<svg viewBox="0 0 1244 1083.753" xmlns="http://www.w3.org/2000/svg"><path d="M697 493q-3-6-5-19-5-28-14-49-2-5-8-7.5t-11.5 0q-5.5 2.5-7.5 8t0 11.5q9 19 12 42 1 10 7 26l32 73q10 23 7 48t-18 44q-13 17-32 26.5t-40 9.5q13-28 13-56V515q0-12-8.5-21t-20.5-9l-83-2q-44-2-78-29l-6-4q-6-6-18-6-10 2-16 9-33 40-33 95v102q0 30 12 56-21 0-39.5-9.5T310 670q-16-19-19-44t7-48l32-73q5-11 7-26 9-60 56-101 22-19 50-29.5t57-10.5q34 0 64.5 12.5T618 387q4 4 10 4.5t10-3.5q4-4 4.5-10.5T639 367q-28-29-63.5-44T500 308q-35 0-67.5 12.5T373 356q-54 47-65 118 0 9-5 19l-32 74q-13 31-9 63t24 58q18 23 42.5 35t52.5 12q12 0 18-1 16 19 37 31v28l-75 30q-39 16-62.5 50.5T275 951v36q0 6 4 10t11 4q7 0 10.5-4t3.5-10v-36q0-34 18.5-61t49.5-40l68-27q6 18 22 30t36 12q20 0 36-12t23-30l67 27 6 3q2 1 6 1 10 0 13-7t1-12.5q-2-5.5-8-8.5l-82-33v-26q25-12 41-33 6 1 18 1 28 0 52.5-12t42.5-35q20-26 24-58t-9-63l-32-74zM531 803q0 13-9.5 23t-23 10q-13.5 0-23-9.5T466 803v-26q15 4 34 4 16 0 31-3v25zm-31-51q-28 0-51-14t-37-37q-14-23-14-51V548q0-42 24-73l1 2q41 33 96 35l83 2v136q0 28-14 51t-37 37q-23 14-51 14zm176 116q-5 4-6.5 10t2.5 10q20 29 20 63v36q0 6 4.5 10t10.5 4q6 0 10-4t4-10v-36q0-45-25-80-4-5-10-6t-10 3zM223 220q-24-16-53.5-19t-58.5 8q-21 8-37 24t-24 37q-12 27-9 56 0 6 4.5 10t10.5 3q6-1 10.5-5.5T70 323q-2-22 7-42 6-15 18-27t27-18q22-8 44-6t40.5 14.5Q225 257 235 276t10 41q0 28-16 50v1l-50 76q-2 6-2 8v7h-5v-73q11-2 19-10t8-19v-24q0-12-9-21t-21-9h-24q-12 0-20.5 9t-8.5 21v24q0 11 8 19t19 10v73h-5v-7q0-4-3-7l-45-70q-3-5-9-6.5t-11 2q-5 3.5-6.5 9.5t2.5 11l42 66v10q0 7 4 12v15q0 17 12.5 29.5T154 536h6q18 0 30.5-12.5T203 494v-15q3-6 3-12v-10l47-73q21-30 21-67 0-29-13.5-54.5T223 220zm-54 113v24h-24v-24h24zm5 161q0 5-4 9t-10 4h-6q-5 0-9-4t-4-9v-6h33v6zm324-233q35 0 65-17.5t47.5-47.5q17.5-30 17.5-65t-17.5-65Q593 36 563 18.5T498 1q-35 0-65 17.5T385.5 66Q368 96 368 131t17.5 65q17.5 30 47.5 47.5t65 17.5zm0-231q42 0 71.5 29.5T599 131q0 42-29.5 71.5T498 232q-42 0-71.5-29.5T397 131q0-27 13.5-50.5t37-37Q471 30 498 30zm-26 150q4 4 10.5 4t10.5-4l69-69q4-4 4-10t-4-10.5q-4-4.5-10-4.5t-11 5l-58 58-10-10q-4-5-10-5t-10.5 4.5Q448 143 448 149t4 11l20 20zm487 112q-5-13-19-15l-60-9-28-55q-6-13-20-13t-21 13l-27 55-61 9q-6 1-11.5 5t-6.5 10q-5 15 6 24l44 43-11 60q-2 15 9 23 5 4 12 4t12-3l55-28 54 28q6 3 11 3 8 0 13-4 12-10 9-23l-10-60 44-43q11-11 6-24zm-73 48q-4 4-5.5 9.5T880 360l8 51-46-24q-6-2-10.5-2t-10.5 2l-46 24 9-51q2-13-7-20l-37-36 52-8q13-2 17-12l23-47 23 47q4 10 17 12l51 8-37 36zM653 189q36 14 65 32-5 2-7 7t-.5 10q1.5 5 5.5 8t8 3l32-9q5-2 8-6t3-8v-30q0-6-4.5-10.5T752 181q-6 0-10.5 4.5T737 196v2q-41-25-73-36-5-2-11 0t-8 7.5q-2 5.5.5 11.5t7.5 8zm-386 36q2 0 6-1l2-1q11-8 36-20l6-3-1 3q-1 6 2 11t9 7h4q5 0 9-3t5-8l9-33q1-6-1.5-11t-8.5-7l-27-9q-5-2-10.5 1t-7.5 8q-3 10 3 15-25 13-43 24-5 3-6.5 9t1.5 11q5 7 13 7z"/></svg>