<svg viewBox="0 0 1244 1083.753" xmlns="http://www.w3.org/2000/svg"><path d="M517 206q0-4-2.5-6.5T509 197q-43 0-81 23t-67 66.5Q332 330 316.5 385T301 500q0 4 2.5 6.5t6.5 2.5q4 0 6.5-2.5t2.5-6.5q0-78 25.5-143.5t69-104Q457 214 509 214q3 0 5.5-2t2.5-6zm258 673q47 0 89-28t74-81q30-51 46-118t16-141q0-74-16-140.5T938 253q-32-53-74-81t-89-28H509q-51 0-97.5 28T330 252.5q-35 52.5-54 119T257 511q0 73 19 140t54 119.5q35 52.5 81.5 80.5t97.5 28h266zm-65-718q40 0 79 21H620q-18-13-34-21h124zm121 650H654q17-17 33-41 13-17 29-50h58q2 11 11.5 18t20.5 7h12q12 0 21-7t12-18h47q-27 56-67 91zm-41-99v-4q0-7 4.5-11.5T806 692h12q7 0 11.5 4.5T834 708v4q0 7-4.5 11.5T818 728h-12q-7 0-11.5-4.5T790 712zm116-9h-55q-2-12-11-20t-22-8h-12q-12 0-21.5 8T773 703h-50q24-59 33-126h57q2 11 11 19t21 8h13q12 0 21-8t11-19h50q-9 71-34 126zM806 451q2 11 11.5 19t21.5 8h12q12 0 21-7.5t12-19.5h57q3 30 3 60 0 18-2 48h-52q-2-11-11-18.5t-21-7.5h-13q-11 0-20.5 7.5T813 559h-55q2-30 2-48 0-33-4-60h50zm17-7v-3q0-7 4.5-11.5T839 425h12q7 0 11.5 4.5T867 441v3q0 7-4.5 11.5T851 460h-12q-7 0-11.5-4.5T823 444zm51 123v3q0 7-5 11.5t-11 4.5h-13q-6 0-10.5-4.5T830 570v-3q0-7 4.5-11.5T845 551h13q6 0 11 4.5t5 11.5zm10-133q-3-12-12-19.5t-21-7.5h-12q-12 0-21.5 8T806 434h-52q-7-56-29-109h48q2 11 11 19t21 8h13q12 0 21-8t11-19h58q21 49 30 109h-54zm-94-116v-3q0-7 4.5-11.5T805 299h13q6 0 11 4.5t5 11.5v3q0 7-5 11.5t-11 4.5h-13q-6 0-10.5-4.5T790 318zm60-10q-2-11-11-19t-21-8h-13q-12 0-21 8t-11 19h-55q-14-31-31-55-21-32-45-54h174q53 40 84 109h-50zM329 736h69q4 0 6.5-2.5t2.5-6.5q0-4-2.5-6.5T398 718h-78q-5-9-13-29h187q4 0 6.5-2.5t2.5-6.5q0-4-2.5-6.5T494 671H301q-26-73-26-160 0-95 32-177 31-79 85-126t117-47q50 0 95 30.5t78 84.5h-28q-4 0-6 2.5t-2 6.5q0 4 2 6.5t6 2.5h38q12 23 26 61h-86q-3 0-5.5 2t-2.5 6q0 4 2.5 6.5t5.5 2.5h91l4 14H534q-4 0-6.5 2.5T525 395q0 4 2.5 6.5t6.5 2.5h197q11 53 11 107 0 104-36.5 189T609 828H490q-3 0-5.5 2.5T482 837q0 4 2.5 6t5.5 2h89q-34 17-70 17-53 0-100-33.5T329 736zm307 93h173q-47 33-99 33H586q22-10 50-33zm287-68q-27 44-61 70t-73 30q57-27 100-91 35-52 54-119t19-140q0-73-19-139.5T889 253q-43-64-100-91 39 4 73 30t61 70q29 49 44.5 113.5T983 511q0 71-15.5 135.5T923 761zM233 269q21-9 34-28t13-42q0-32-22-54t-53.5-22q-31.5 0-54 22T128 199q0 23 12 41.5t33 27.5l-11 289q0 19 11.5 31.5T203 601q18 0 29.5-12.5T244 558l-11-289zm-50 209h40l1 24h-42l1-24zm21-338q24 0 41 17.5t17 41.5q0 8-16.5 16t-41.5 8q-25 0-42-8t-17-16q0-24 17.5-41.5T204 140zm-49 91q20 9 49 9t48-9q-8 12-20.5 19t-27.5 7q-15 0-28-7t-21-19zm49 44q2 0 6-1h6l7 186h-40l7-187h2q8 2 12 2zm16 301q-7 7-17 7t-16.5-6.5Q180 570 180 558l1-38h44l1 38q0 12-6 18zM76 399q-31 0-53.5 22T0 475q0 23 12.5 42T45 545L35 834q-2 18 11 31t30 13q17 0 28.5-12.5T116 834l-11-289q21-8 34-27t13-43q0-32-22-54t-54-22zm20 380H54l1-25h40l1 25zm-4 74q-7 7-17 7t-16.5-7q-6.5-7-6.5-18l1-39h44l1 39q1 9-6 18zm3-116H56l6-187q5 1 13.5 1t12.5-1l7 187zM76 534q-15 0-27.5-7T27 508q23 9 49 9t49-9q-9 12-21.5 19T76 534zm0-35q-25 0-41.5-8T18 475q0-24 17-41t41-17q24 0 41 17t17 41q0 8-16.5 16T76 499z"/></svg>