<svg viewBox="0 0 1244 1083.753" xmlns="http://www.w3.org/2000/svg"><path d="M481 947q-4 0-6.5 2.5T472 956q0 4 2.5 7t6.5 3q83 0 154-42 69-41 109-110 42-71 42-154 0-4-2.5-6.5T777 651q-4 0-6.5 2.5T768 660q0 78-39 145-38 65-103 103-67 39-145 39zm0-562q-75 0-139 38-62 36-99 99.5T206 660q0 74 37 137t99 100q64 37 138.5 37T618 897q63-37 100-100t37-137q0-74-37-137.5T619 423q-64-38-138-38zm188 449L535 701q11-15 13-33h189q-1 47-19 89.5T669 834zM225 668h188q3 20 13 33L293 834q-31-33-49-76t-19-90zm68-183l134 133q-11 14-14 32H225q1-46 19-88.5t49-76.5zm188 225q-21 0-35.5-15T431 659.5q0-20.5 14.5-35t35-14.5q20.5 0 35.5 14.5t15 35q0 20.5-15 35.5t-35 15zm41-104q-14-11-32-14V404q46 1 88.5 19t76.5 49L522 606zm-50-14q-18 3-32 14L306 472q34-31 76.5-49t89.5-19v188zm-33 122q15 12 33 13v189q-47-1-89.5-19.5T306 847l133-133zm51 13q17-1 32-13l134 133q-34 31-76.5 49.5T490 916V727zm58-77q-3-19-13-32l133-133q31 33 49 75.5t20 89.5H548zm-67-29q-16 0-27.5 11.5T442 660q0 4 2.5 6.5t6.5 2.5q4 0 6.5-2.5t2.5-6.5q0-8 6-14t15-6q4 0 6.5-3t2.5-7q0-4-2.5-6.5T481 621zm518-352L856 6q-6-7-13-3L102 406q-59 32-77 95-10 35-4 73-14 10-19 26t2 32q10 18 28 24 10 2 15 2 8 0 15-3 16 18 35 28L22 951q-4 13 4 22 7 5 13 5 3 0 9-2l200-68q47 44 107 68.5t126 24.5q92 0 171-47 77-45 122-122 47-80 47-172 0-66-24-126t-67-106l265-146q7-4 4-13zM173 514l-54-97 312-169 15 28q2 5 8 5l4-1q7-5 4-13l-15-28 37-20 54 105q-32-5-57-5-101 0-185 54-82 53-123 141zm388-185l-61-119 30-16 83 152q-29-12-52-17zM37 638q-11-3-15.5-12t-3-17.5Q20 600 26 594q4 14 12 28 3 6 11 18-4 0-12-2zm17-25q-14-25-16.5-52.5T43 506q16-51 61-80l8 15q-27 17-42.5 45t-16 59.5Q53 577 69 605q2 5 8 5 3 0 5-1.5t3.5-5Q87 600 85 597q-20-37-10-77t45-63l44 79q-24 57-24 124 0 15 1 22-28-8-50.5-25.5T54 613zM38 961l75-269q16 6 30 9 7 55 30 104.5t60 88.5L38 961zm443 21q-88 0-163-44-73-43-116-115-44-75-44-163t44-163q43-72 116-115 75-44 162.5-44T643 382q73 43 116 115 44 76 44 163t-44 163q-43 72-116 115-75 44-162 44zm236-567q-36-35-76-56l-95-174L772 62l16 31-180 97q-7 5-4 13 3 4 8 4 3 0 5-1l180-97 95 174q3 5 8 5l4-1q7-4 4-13L788 53l56-30 135 247-262 145z"/></svg>