<svg viewBox="0 0 1244 1083.753" xmlns="http://www.w3.org/2000/svg"><path d="M484 563q0-25-14.5-46.5t-40-34Q404 470 375 470t-54.5 12.5q-25.5 12.5-40 34T266 563q0 25 14.5 46.5t40 34.5q25.5 13 55 13t54.5-12.5q25-12.5 39.5-34T484 563zm-109 63q-32 0-55-18.5T297 563q0-26 23-44t55-18q32 0 55 18t23 44q0 26-23 44.5T375 626zm250-156q-29 0-54.5 12.5t-40 34Q516 538 516 563t14.5 46.5q14.5 21.5 40 34.5t55 13q29.5 0 54.5-12.5t39.5-34Q734 589 734 563q0-39-32-66t-77-27zm0 156q-32 0-55-18.5T547 563q0-26 23-44t55-18q32 0 55 18t23 44q0 26-23 44.5T625 626zM500 751q-30 0-55 12.5t-39.5 34Q391 819 391 845t14.5 47.5q14.5 21.5 39.5 34t54.5 12.5q29.5 0 55-13t40-34.5Q609 870 609 845t-14.5-46.5Q580 777 554.5 764T500 751zm0 156q-32 0-55-18t-23-44q0-26 23-44.5t55-18.5q32 0 55 18.5t23 44.5q0 26-23 44t-55 18zM333 552q-7 7-3.5 17t14.5 10q5 0 11.5-5.5T369 566q14-5 26 8 5 5 11.5 5t11-5q4.5-5 4.5-11t-5-11q-21-21-47-18-21 2-37 18zm250 0q-7 7-3.5 17t14.5 10q5 0 11.5-5.5T619 566q14-5 26 8 5 5 11.5 5t11-5q4.5-5 4.5-11t-5-11q-21-21-47-18-21 2-37 18zm-63 281q-2 2-4 3-5 4-10 6-15 3-26-9-4-5-10.5-5t-11 5q-4.5 5-4.5 11.5t4 11.5q18 18 41 18 13 0 24-5t19-13q5-5 5-12t-4.5-11.5q-4.5-4.5-11-4.5t-11.5 5zm336-375q-11-82-63-149t-130-99q18-49 2.5-98T610 33Q569 1 516 1q-44 0-81.5 23T377 85.5Q357 124 360 169q-63 20-112 63.5t-77 102Q143 393 141 459q-28 10-45.5 34.5T78 548q0 39 27.5 66.5T172 642h31v62q0 81 41 150 39 67 106 106 69 41 150 41t150-41q67-39 106-106 41-69 41-150v-62h31q39 0 66.5-27.5T922 548q0-31-18.5-56T856 458zm-32-4h-11q-26 0-39 21-24-44-68.5-70.5T609 378H505q-7 0-14-2 39 0 69-22t42.5-57q12.5-35 2.5-72l9 2q14 4 23 7 73 25 123 84.5T824 454zM516 32q42 0 75 25t45 64q12 39-3 79-5-2-18-5l-28-7q-21-29-55-41.5t-70-3.5l-71 18q-1-35 15.5-64.5t46-47Q482 32 516 32zM387 194l83-21q27-7 52 3t40.5 32q15.5 22 15.5 50 0 36-25.5 61.5T491 345H391q-59 0-106.5 33T216 464q-9-7-19-9-7-1-21-1h-4q3-61 31.5-115t76-92Q327 209 387 194zM109 548q0-26 18.5-44.5T172 485h16q6 0 10.5 4.5T203 501v109h-31q-26 0-44.5-18T109 548zm657 156q0 72-36 133t-97 97q-61 36-133 36t-133-36q-61-36-97-97t-36-133V532q0-42 21.5-78t57.5-57q36-21 78-21h36q35 33 82 33h100q43 0 79 21t57 57q21 36 21 78v139zm62-94h-31V501q0-7 4.5-11.5T813 485h15q26 0 44.5 18.5T891 548q0 26-18.5 44T828 610zM328 298q3 0 7-2 37-18 104-25 34-4 61-4 7 0 11.5-4.5T516 251q0-7-4.5-11.5T500 235q-29 0-67 4-71 9-112 29-7 4-8 11t3 13q4 6 12 6zm297 15q0 7 4.5 11.5T641 329q17 0 38 9 40 17 57 59 2 6 8 8.5t12 .5q6-2 8.5-8t.5-12q-22-55-74-77-27-11-50-11-7 0-11.5 4.5T625 313z"/></svg>