<svg viewBox="0 0 1244 1083.753" xmlns="http://www.w3.org/2000/svg"><path d="M596 309h31q7 0 11-4.5t4-10.5q0-6-4-10t-11-4h-31q-6 0-10.5 4t-4.5 10q0 6 4.5 10.5T596 309zm97 29h-32q-6 0-10 4t-4 10q0 6 4 10.5t10 4.5h32q6 0 10-4t4-11q0-7-4-10.5t-10-3.5zm-320-29h32q6 0 10.5-4.5T420 294q0-6-4.5-10t-10.5-4h-32q-6 0-10 4t-4 10q0 6 4 10.5t10 4.5zm-19 43q0-6-4-10t-10-4h-32q-6 0-10.5 4t-4.5 10q0 6 4.5 10.5T308 367h32q6 0 10-4t4-11zm146-14q-6 0-10 4t-4 10v28q0 6 4 10.5t10 4.5q6 0 10.5-4.5T515 380v-28q0-6-4-10t-11-4zm-79 32q-3-5-9-7t-11 1q-5 3-6.5 9t1.5 11l14 24q3 7 12 7 5 0 8-1 5-4 6.5-9.5T435 394l-14-24zm-49 75l-24-14q-5-3-11-1t-9 7q-3 5-1 11t7 9l24 14q2 1 7 1 9 0 12.5-6t1.5-12q-2-6-7-9zm280-13l-24 14q-5 3-6.5 9t1.5 12q3 6 12 6 5 0 8-2l24-14q5-3 6.5-9t-1.5-11q-3-5-9-6.5t-11 1.5zm-52-67q-5-3-11-1.5t-9 6.5l-14 24q-3 5-1.5 11t6 8.5q4.5 2.5 7.5 2.5 8 0 13-7l14-24q3-5 1.5-11t-6.5-9zM327 578q0-6-4-10t-10-4h-20q-6 0-10.5 4t-4.5 10q0 6 4.5 10.5T293 593h20q6 0 10-4t4-11zm-14 134h19q6 0 10.5-4t4.5-10q0-6-4.5-10.5T332 683h-19q-7 0-11 4.5t-4 10.5q0 6 4 10t11 4zm93-41h19q6 0 10.5-4.5T440 656q0-6-4.5-10t-10.5-4h-19q-6 0-10.5 4t-4.5 10q0 6 4.5 10.5T406 671zm96 81q6 0 10.5-4t4.5-10q0-6-4.5-10.5T502 723h-20q-6 0-10 4.5t-4 10.5q0 6 4 10t10 4h20zm154-166h-20q-6 0-10.5 4.5T621 601q0 6 4.5 10t10.5 4h20q6 0 10-4t4-10q0-6-4-10.5t-10-4.5zm108-77h-20q-6 0-10.5 4t-4.5 10q0 6 4.5 10.5T744 538h20q6 0 10.5-4t4.5-10.5q0-6.5-4.5-10.5t-10.5-4zm232-18L852 347V164q0-6-4.5-10.5T837 149h-88q-6 0-10 4.5t-4 10.5q0 6 4 10t10 4h74v175q0 6 4 10l138 138-138 138q-4 4-4 10v174H648q-5 0-10 5L500 966 362 828q-5-5-10-5H178V649q0-5-5-10L35 501l138-138q5-5 5-10V178h174q6 0 10-4L500 36l138 138q4 4 10 4h33q6 0 10-4t4-10q0-6-4-10.5t-10-4.5h-27L510 5q-4-4-10-4t-10 4L346 149H163q-6 0-10.5 4.5T148 164v183L4 491q-4 4-4 10t4 10l144 144v183q0 6 4.5 10.5T163 853h183l144 144q4 4 10.5 4t9.5-4l144-144h183q6 0 10.5-4.5T852 838V655l144-144q4-4 4-10t-4-10zM758 228H622L510 117q-4-5-10-5t-10 5L378 228H242q-6 0-10.5 4.5T227 243v136L116 491q-4 4-4 10t4 10l111 112v136q0 6 4.5 10.5T242 774h29q6 0 10.5-4.5T286 759q0-6-4.5-10t-10.5-4h-15V616q0-6-4-10L147 501l8-8q15-15 34.5-23t41-7q21.5 1 41 9.5T305 497q75 81 169 130 123 65 270 68v50H616q-7 0-11 4L500 854 395 749q-4-4-10-4h-45q-7 0-11 4t-4 10q0 6 4 10.5t11 4.5h38l112 111q4 4 10.5 4t9.5-4l112-111h136q6 0 10.5-4.5T773 759V623l111-112q5-4 5-10t-5-10L773 379V243q0-6-4.5-10.5T758 228zm-10 378q-4 4-4 10v50q-114-3-210-43 91-49 161-126 31-32 75-34 21-1 40.5 7t34.5 23l8 8-105 105zm39-172h-18q-27 0-52 11.5T673 477q-16 18-50 50-3-37-26-66.5T539 420q-5-2-11 .5t-7.5 8.5q-1.5 6 1 11.5t8.5 6.5q29 10 46.5 34.5T594 536q0 10-1 15-43 33-93 57-52-26-93-57l-1-15q0-30 17.5-54.5T470 447q6-1 8.5-7t1-11.5q-1.5-5.5-7.5-8t-11-.5q-35 11-58 40.5T377 527q-29-26-50-50-19-20-44-31.5T231 434q-4-1-12 0h-5l38-38q4-4 4-11V257h129q6 0 10-4l105-105 105 105q4 4 11 4h128v128q0 7 4 11l39 38z"/></svg>