<svg viewBox="0 0 1244 1083.753" xmlns="http://www.w3.org/2000/svg"><path d="M244 759h-76q-8 0-13.5-6t-5.5-14V50q0-8 5.5-14t13.5-6h408v79q0 13 9.5 22t22.5 9h78v37q0 6 4 10t11 4q7 0 10.5-4t3.5-10v-37q0-19-14-35l-90-90Q597 1 576 1H168q-20 0-34.5 14.5T119 50v689q0 20 14.5 34.5T168 788h76q6 0 10.5-4t4.5-10q0-6-4.5-10.5T244 759zm364-648q-3 0-3-2V51l60 60h-57zm258 207l-90-90q-14-14-34-14H334q-20 0-34.5 14.5T285 263v689q0 20 14.5 34.5T334 1001h498q20 0 34.5-14.5T881 952V353q0-22-15-35zm-35 6h-58q-3 0-3-3v-57l61 60zm1 648H334q-8 0-14-6t-6-14V263q0-8 6-14t14-6h407v78q0 13 9.5 22.5T773 353h78v599q0 8-5.5 14t-13.5 6zM536 298H424q-14 0-24.5 10T389 332v113q0 14 10.5 24t24.5 10h112q14 0 24-10t10-24V332q0-14-10-24t-24-10zm-69 84q0-6 4-9.5t9-3.5q5 0 9 3.5t4 9.5q0 6-4 9.5t-9 3.5q-5 0-9-4t-4-9zm-6 59q0-7 5-12t12-5h3q7 0 12.5 5t5.5 12v8h-38v-8zm80 4q0 4-5 4h-8v-8q0-19-15-34 9-11 9-25 0-18-12.5-30.5T480 339q-17 0-29.5 12.5T438 382q0 14 8 25-14 14-14 34v8h-8q-5 0-5-4V332q0-5 5-5h112q5 0 5 5v113zm221-71H615q-7 0-11 4t-4 10q0 6 4 10.5t11 4.5h147q6 0 10-4.5t4-10.5q0-6-4-10t-10-4zM536 517H424q-14 0-24.5 10T389 551v113q0 14 10.5 24t24.5 10h112q14 0 24-10t10-24V551q0-14-10-24t-24-10zm-69 84q0-5 4-9t9-4q5 0 9 4t4 9q0 5-4 9t-9 4q-5 0-9-4t-4-9zm-6 59q0-7 5-12t12-5h3q7 0 12.5 5t5.5 12v9h-38v-9zm80 4q0 2-1.5 3.5T536 669h-8v-9q0-19-15-34 9-11 9-25 0-18-12.5-30.5T480 558q-17 0-29.5 12.5T438 601q0 14 8 25-14 14-14 34v9h-8q-2 0-3.5-1.5T419 664V551q0-5 5-5h112q5 0 5 5v113zm221-71H615q-7 0-11 4t-4 10q0 6 4 10.5t11 4.5h147q6 0 10-4.5t4-10.5q0-6-4-10t-10-4zM536 736H424q-14 0-24.5 10T389 770v113q0 14 10.5 24t24.5 10h112q14 0 24-10t10-24V770q0-14-10-24t-24-10zm-69 84q0-5 4-9t9-4q5 0 9 4t4 9q0 5-4 9t-9 4q-5 0-9-4t-4-9zm-6 59q0-7 5-12t12-5h3q7 0 12.5 5t5.5 12v9h-38v-9zm80 4q0 2-1.5 3.5T536 888h-8v-9q0-19-15-34 9-11 9-25 0-18-12.5-30.5T480 777q-17 0-29.5 12.5T438 820q0 14 8 25-14 14-14 34v9h-8q-2 0-3.5-1.5T419 883V770q0-5 5-5h112q5 0 5 5v113zm221-71H615q-7 0-11 4t-4 10q0 6 4 10.5t11 4.5h147q6 0 10-4.5t4-10.5q0-6-4-10t-10-4z"/></svg>