<svg viewBox="0 0 1244 1083.753" xmlns="http://www.w3.org/2000/svg"><path d="M942 497l-152-26q-10-1-18.5-7.5T758 449l-86-150q-11-19-30-30t-41-11h-31v-58q0-18-12.5-30.5T527 157h-66v-20q0-14-9.5-24T428 103h-47q-14 0-23.5 10t-9.5 24v20h-65q-18 0-31 12.5T239 200v58h-24q-21 0-39.5 10T146 296l-53 81q-3 5-1.5 11t6.5 9q5 3 11 2t9-6l52-82q7-11 19-17.5t26-6.5h386q14 0 26 7t19 20l87 149q8 15 21.5 24.5T785 500l152 26q15 3 24.5 14t9.5 26v8h-41q-14 0-24 10t-10 24v18q0 14 10 24t24 10h41v35H523V500h127q9 0 16.5-4.5T679 483q10-18 0-35l-55-95q-7-12-19.5-19.5T578 326h-50q-14 0-24.5 10T493 360v335h-86q-6 0-10.5 4t-4.5 10q0 6 4.5 10.5T407 724h278q-25 25-29 58H309q-4-33-29-58h67q6 0 10.5-4.5T362 709q0-6-4.5-10t-10.5-4H29v-35h41q14 0 24-10t10-24v-18q0-14-10-24t-24-10H29v-19q0-24 13-45l41-64q4-4 2.5-10t-6.5-9.5q-5-3.5-11-2t-9 6.5l-41 63Q0 521 0 555v210q0 19 13.5 32.5T46 811h61q6 38 34.5 63t66.5 25q38 0 67-25t34-63h347q5 38 33.5 63t67.5 25q28 0 51-14t37-37q14-23 14-51 0-21-8-40t-23-33h143v41q0 7-5 12t-12 5h-50q-6 0-10.5 4t-4.5 10.5q0 6.5 4.5 10.5t10.5 4h50q19 0 32.5-13.5T1000 765V566q0-26-16.5-45.5T942 497zM377 137q0-4 4-4h47q4 0 4 4v20h-55v-20zm-109 63q0-6 4.5-10t10.5-4h244q6 0 10 4t4 10v58H268v-58zm255 160q0-4 5-4h50q14 0 21 12l55 95q1 1 0 4v1q0 2-4 2H523V360zM70 603q5 0 5 5v18q0 5-5 5H29v-28h41zM29 765v-41h108q-24 22-30 58H46q-7 0-12-5t-5-12zm179 104q-30 0-51-21t-21-51q0-30 21-51.5t51-21.5q30 0 51.5 21t21.5 51.5q0 30.5-21.5 51.5T208 869zm621-72q0 30-21 51t-51.5 21q-30.5 0-51.5-21t-21-51q0-30 21-51.5t52-21.5q31 0 51.5 21t20.5 52zm101-166q-2 0-3.5-1.5T925 626v-18q0-2 1.5-3.5t3.5-1.5h41v28h-41zM208 751q-19 0-32 13.5T163 797q0 19 13 32t32 13q19 0 32.5-13t13.5-32q0-19-13.5-32.5T208 751zm0 62q-7 0-11.5-4.5T192 797q0-7 4.5-12t11.5-5q7 0 12 5t5 12q0 7-5 11.5t-12 4.5zm549-62q-19 0-32.5 13T711 796.5q0 19.5 13 32.5t32.5 13q19.5 0 32.5-13t13-32q0-19-13-32.5T757 751zm0 62q-7 0-12-4.5t-5-11.5q0-7 5-12t12-5q7 0 11.5 4.5t4.5 12q0 7.5-4.5 12T757 813zM565 543q-6 0-10.5 4.5T550 558q0 6 4.5 10.5T565 573h24q6 0 10-4.5t4-10.5q0-6-4-10.5t-10-4.5h-24zm-212 0q-6 0-10.5 4.5T338 558q0 6 4.5 10.5T353 573h24q6 0 10.5-4.5T392 558q0-6-4.5-10.5T377 543h-24zm-195-43h94q14 0 24-10t10-24V360q0-14-10-24t-24-10h-15q-14 0-26 7t-20 18l-62 96q-10 18-1 35 4 8 12.5 13t17.5 5zm-4-37l62-96q6-11 21-11h15q2 0 3.5 1.5t1.5 2.5v106q0 1-1.5 2.5T252 470h-94q-4 0-5-2t1-5zm314 3V360q0-14-10.5-24T433 326h-87q-14 0-24 10t-10 24v106q0 14 10 24t24 10h87q14 0 24.5-10t10.5-24zm-127 0V360q0-4 5-4h87q5 0 5 4v106q0 4-5 4h-87q-5 0-5-4z"/></svg>