<svg viewBox="0 0 1244 1083.753" xmlns="http://www.w3.org/2000/svg"><path d="M943 269Q890 168 797 99V76q0-16-11-29-13-11-29-11-21 0-34 18Q619 1 500 1 400 1 308.5 38.5T146 147Q75 218 37.5 309.5T0 501q0 100 37.5 191.5T146 855q71 71 162.5 108.5T500 1001q90 0 174.5-31.5T826 880q5-4 5.5-10t-3.5-10.5q-4-4.5-10-5t-11 3.5q-46 40-99 65l1-4v-52q98-56 155-154.5T921 501q0-102-46-192-3-6-9.5-7.5T854 303L173 740q-5 4-6 10.5t3 11.5q51 64 123 105v57q-78-39-138-103T63 676q-34-84-34-175 0-111 50-211 48-95 134-162-9 24-9 50v24q-58 57-90 131-35 81-35 168 0 102 46 192 3 6 10 7.5t12-1.5l680-437q5-4 6-10.5t-3-11.5q-13-17-33-37v-67q82 67 128 163t46 202q0 85-30.5 165T854 811q-4 4-3.5 10t4.5 10q4 4 10.5 4t10.5-5q60-68 92-153t32-176q0-123-57-232zM322 680l49-32v271q0 10-7 17.5t-16.5 7.5q-9.5 0-17.5-7t-8-18V680zm79-51l199-128v379q-52 13-100 13-53 0-99-13V629zm308 204V675q0-6-4.5-10t-10.5-4q-6 0-10.5 4t-4.5 10v244q0 10-7 17.5t-18 7.5q-8 0-16-7t-8-18V482l49-32v157q0 6 4.5 10.5T694 622q6 0 10.5-4.5T709 607V431l147-94q36 76 36 164 0 101-49 189.5T709 833zm-506-77l90-57v134q-50-31-90-77zm198 163v-9q48 12 99.5 12t99.5-12v9q0 22 16 38-57 15-116 15t-115-15q16-14 16-38zM746 75q0-7 5.5-9t11 .5Q768 69 768 76v188l-22 15V75zM596 375l-27-18q-13-9-20.5-23t-7.5-30V76q0-5 3.5-8t8-3q4.5 0 7.5 3t3 8v215q0 16 12 28t28 12q16 0 29-11 11-13 11-29V76q0-5 3.5-8t8-3q4.5 0 7.5 3t3 8v215q0 18 14 30l-83 54zM472 110q5 0 14-1h26v195q0 23 11 44t30 34l16 10-168 108v-87l47-31q20-14 31-34.5t11-43.5V178q0-34-18-68zm223 51q12 7 22 14v116q0 5-3.5 8t-7.5 3q-4 0-7.5-3.5T695 291V161zm22-21q-8-4-22-12V72l22 11v57zm-125-20q8 2 22 6v165q0 5-3 8t-7.5 3q-4.5 0-8-3.5T592 291V120zm34-73q-12 14-12 29v20l-22-6V76q0-17-11.5-28.5t-28-11.5Q536 36 524 47.5T512 76v4h-12q-24 0-47 3-4-4-5-6-23-23-56-34 57-13 108-13 63 0 126 17zM204 245v59q0 23 11 44t30 34l48 31v32q0 6 4 10t10 4q6 0 10.5-4t4.5-10v-40q0-7-7-12l-53-36q-14-9-21.5-23t-7.5-30V178q0-52 35-82 32-28 78.5-28T425 96q35 30 35 82v126q0 16-7.5 30T432 357l-54 36q-7 5-7 12v114l-49 32v-38q0-6-4.5-10.5T307 498q-6 0-10 4.5t-4 10.5v57l-149 95q-36-77-36-164 0-71 24.5-137T204 245zm173 113l38-26q15-9 15-28v-23q0-6-4-10.5t-10-4.5q-6 0-10.5 4.5T401 281v23q0 2-2 4l-39 26q-6 4-13.5 4t-13.5-4l-38-26q-3-2-3-4v-23q0-6-4-10.5t-10-4.5q-6 0-10.5 4.5T263 281v23q0 8 4 15.5t11 12.5l39 26q14 9 30.5 9t29.5-9z"/></svg>