<svg viewBox="0 0 1244 1083.753" xmlns="http://www.w3.org/2000/svg"><path d="M437 633q-15-19-45-56l-16-18q-15-15-20-37-2-8 2.5-15.5T371 497l5-1q7-1 10-3 6-4 7-11 3-10-7-17-21-14-46.5-16.5T291 457q-34 16-50.5 50t-8.5 71l2 10q-33-2-58 20-3 2-5 6t-1 8q2 10 9 13l3 1q13 6 18 11 8 9 0 24.5T179 705q-15 20-20.5 45t-.5 50q6 37 30.5 66.5T248 910q15 5 27 5 5 0 9.5-2.5t5.5-6.5q4-9-3-18l-10-10-8-8q-14-18-14.5-41t12.5-41q7-9 23-25l12-13q20-21 26-49 9 16 10 29 5 26-10 44l-4 4-4 4q-5 4-5 13 0 7 7 12t17 6.5q10 1.5 19-.5 15-4 31-18 5 20-.5 39.5T368 868q-4 5-13 15l-5 4q-4 4-5 9.5t2 10.5q3 5 8 7.5t10 .5q40-11 69.5-39.5T476 808q12-39 4-80-10-51-43-95zm-18 211q10-30 0-64-6-19-22-28-5-3-14-1-6 3-9 9l-2 3q-3 5-5 7 10-31-1-63-12-36-49-63-4-4-9.5-4t-10 3.5Q293 647 291 652t0 10q8 17 4 35t-17 31l-12 13q-17 17-24 26-15 20-19 44.5t4 47.5q-30-24-36-65-4-18 0-36.5t15-34.5q14-18 24-36 8-16 6-34t-15-31q17-3 33 3 8 2 15-5t4-16l-4-15q-3-10-4-16-4-29 6.5-52t33.5-34q16-6 32-5-8 10-11.5 22t-1.5 24q5 27 27 52l25 30q24 28 35 43 28 37 37 81 6 29-1.5 58T419 844zm20-753q0-7-5-11.5T422 75q-29 0-55 11t-46 32q-15 15-23 31-5 8-1 16.5t15 7.5q11-1 14-8 6-11 19-24 15-16 35-24.5t42-8.5q7 0 12-5t5-12zm495 116q-3-55-32-100t-75.5-71.5Q780 9 725 9H422q-42 0-80.5 16.5T274 72q-26 27-42 62t-18 73q-29 2-48.5 24.5t-18 51.5q1.5 29 22.5 49.5t50 20.5h364l39 40q-23 10-50 10-14 0-28-3-9-2-15.5 5.5t-3.5 16q3 8.5 13 10.5 17 3 35 3 37 1 74-16l35 35q10 10 22 10t22-10l33-33q33 16 68 14 39 0 69-17-10 30-35 48t-57 19H643l-8-13q-7-11-20-14t-24 4q-27 16-42 29-45-51-106-78.5t-128-27q-67 .5-128 30.5T83.5 498q-42.5 52-59 117T21 747q13 67 52.5 121t98 86.5Q230 987 298 992t130.5-19.5Q491 948 537.5 900T606 787q9 12 20 23 37 44 93 63 36 9 70 2 5 54 35 98 7 11 20.5 14t24.5-4q76-46 121-122 7-11 4-24t-14-20q-44-31-98-35 7-34-2-70-7-28-26-54-11-14-29-32l-7-7q-34-35-78-47-36-9-70-2-2-30-11-53h146q35 0 64.5-17t47-46.5Q934 424 934 389q18-18 29-45 20-12 30-34t5-46q-5-24-22.5-39.5T934 207zM320 960q-62 0-117-26.5T109.5 860Q71 813 56 753t-2-119.5q13-59.5 50-108t92-76.5q55-28 116-29.5T429 442q56 24 96 71-29 27-56 70-7 11-4 24.5t14 20.5q45 31 98 34-7 35 2 71l5 13q-13 62-51.5 110.5t-94 76Q383 960 320 960zm642-116q-22 37-48 63t-63 48q-13-20-20-40-12-30-8-53 30-15 47-46 23-4 53 8 21 8 39 20zM732 604q36 11 62 38l6 6q17 16 26 27 16 22 22 45 10 26 4 53t-25.5 46.5Q807 839 780 845t-53-4q-23-6-45-23-12-9-27-25l-6-6q-27-25-38-62-8-26-2.5-53t23.5-47q20-18 47-23.5t53 2.5zm-123-2q-9 9-20 27-22 4-52-8-16-6-39-19l-1-1q38-65 110-111 3 4 8 12l4 7q20 34 17 73-14 7-27 20zM298 95q24-25 56.5-39T422 42h303q45 0 84.5 22t64 59.5Q898 161 901 206H247q2-31 15-59.5T298 95zm407 335l-41-42-34-35h150l-75 77zm123-27q-25 0-43-7l41-43h95q-5 9-14 18-33 30-79 32zm98-82H221q-16 0-28.5-12.5t-12.5-29q0-16.5 12-28.5t29-12h705q17 0 29 12t12 29q0 17-12 29t-29 12zM659 728h4q7-2 10.5-7.5T675 708q-4-9-2.5-19t6.5-18q11-7 20-6 7 0 11.5-5t4.5-12q0-7-4.5-11.5T699 632q-12-1-23.5 3.5T656 648q-12 14-15.5 32.5T643 716q2 5 6 8.5t10 3.5zM426 140q7 0 12 5t5 12q0 7-5 11.5t-12 4.5q-7 0-11.5-4.5T410 157q0-7 4.5-12t11.5-5zm49-49q7 0 12 5t5 12q0 7-5 11.5t-12 4.5q-7 0-11.5-4.5T459 108q0-7 4.5-12t11.5-5zm50 49q7 0 11.5 5t4.5 12q0 7-4.5 11.5T525 173q-7 0-12-4.5t-5-11.5q0-7 5-12t12-5zm49-49q7 0 11.5 5t4.5 12q0 7-4.5 11.5T574 124q-7 0-12-4.5t-5-11.5q0-7 5-12t12-5zm49 49q7 0 12 5t5 12q0 7-5 11.5t-12 4.5q-7 0-11.5-4.5T607 157q0-7 4.5-12t11.5-5zm49-49q7 0 12 5t5 12q0 7-5 11.5t-12 4.5q-7 0-11.5-4.5T656 108q0-7 4.5-12t11.5-5zm49 49q7 0 12 5t5 12q0 7-5 11.5t-12 4.5q-7 0-11.5-4.5T705 157q0-7 4.5-12t11.5-5zm50-49q7 0 11.5 5t4.5 12q0 7-4.5 11.5T771 124q-7 0-12-4.5t-5-11.5q0-7 5-12t12-5zm49 49q7 0 11.5 5t4.5 12q0 7-4.5 11.5T820 173q-7 0-12-4.5t-5-11.5q0-7 5-12t12-5z"/></svg>