<svg viewBox="0 0 1244 1083.753" xmlns="http://www.w3.org/2000/svg"><path d="M621 472l-3-3q-27-32-70-32h-96q-43 0-70 32l-3 3q-7 8-9 18.5t3 20q5 9.5 14 15t19 5.5h26q29 0 52-11l2-1q14-6 28 0l2 1q23 11 52 11h26q10 0 19-5.5t14-14.5q5-9 3-20t-9-19zm-21 26q-2 4-6 4h-26q-19 0-40-8l-2-1q-26-12-52 0l-2 1q-21 8-40 8h-26q-4 0-6-4-1-1-.5-3t1.5-3l3-4q9-10 21.5-16t26.5-6h96q14 0 26.5 6t21.5 16l3 4q1 1 1.5 3t-.5 3zM416 364q-7 0-11.5 4.5T400 380q0 7 4.5 12t11.5 5q7 0 12-5t5-12q0-7-5-11.5t-12-4.5zm-34-19h69q6 0 10-4.5t4-10.5q0-6-4-10.5t-10-4.5h-69q-6 0-10 4.5t-4 10.5q0 6 4 10.5t10 4.5zm167 0h69q6 0 10-4.5t4-10.5q0-6-4-10.5t-10-4.5h-69q-6 0-10 4.5t-4 10.5q0 6 4 10.5t10 4.5zm-31 198l-4 1q-14 3-28 0l-4-1q-5-2-10.5 1.5T465 554q-1 6 2 11t8 7l4 1q14 2 21 2t21-2l4-1q5-2 8-7t2-11q-1-6-6.5-9.5T518 543zm381 395l-8-43q-8-42-34-77.5T793 763q-5-2-11 0t-8 7q-2 5-.5 11t6.5 8q32 16 54 46t28 65l8 43q3 10-4.5 19.5T846 972H745l-11-49q-2-6-7-9t-10.5-2q-5.5 1-9 6t-2.5 11l10 43H285l10-43q1-6-2-11t-9-6q-6-1-11 2t-7 9l-11 49H154q-11 0-18.5-8.5T130 943l8-43q8-40 34-71.5t64-46.5l85-32 89 100q12 14 31 14h1q18 0 31-13l27-27 27 27q13 13 31 13h1q19 0 31-14l89-100 46 18 5 1q9 0 14-10 2-5-.5-11t-8.5-8l-68-25-56-22v-76q8-4 11-7l37-22q30-19 46.5-48.5T722 475v-34h13q27 0 46.5-19.5T801 374q0-28-19.5-47T735 308h-13v-29l19-25q17-21 22.5-48t-1.5-54l-3-12q-7-25-28.5-41.5T682 82q-3 0-5-3-13-35-44-56.5T564 1H379q-35 0-67.5 14.5t-56 40.5Q232 82 221 116t-7 69l5 50q2 23 19 38t40 15v20h-13q-27 0-46.5 19.5T199 374q0 27 19.5 47t46.5 20h13v34q0 35 16.5 64.5T341 588l37 22q3 3 11 7v76l-41 16-122 46q-46 17-77 54.5T109 895l-8 43q-5 24 11.5 43.5T154 1001h692q25 0 42-19 16-20 11-44zM452 831q-6 4-10.5 4t-9.5-5l-82-91 50-18 80 82-28 28zm116-1q-5 5-9.5 5t-10.5-4l-27-28 79-82 50 18-82 91zm167-493q15 0 26 11t11 26q0 15-11 26t-26 11h-13v-22h10q6 0 10.5-4.5T747 374q0-6-4.5-10t-10.5-4h-10v-23h13zm-470 74q-15 0-26-10.5T228 374q0-16 11-26.5t26-10.5h13v23h-10q-6 0-10.5 4t-4.5 10q0 6 4.5 10.5T268 389h10v22h-13zm91 152q-23-14-36-37.5T307 475V288h39q6 0 10.5-4t4.5-10.5q0-6.5-4.5-10.5t-10.5-4h-68q-12 0-20-8t-10-19l-5-50q-3-29 6-57t29-49q20-21 46.5-33.5T379 30h185q28 0 51.5 16.5T650 89q4 10 13 16t19 6h1q17 0 30.5 10.5T731 148l3 12q5 20 1 40.5T718 236l-18 23h-1q-14 0-24-10t-10-24q0-19-18-27t-32 5q-30 27-67.5 41.5T470 259h-70q-6 0-10.5 4t-4.5 10q0 6 4.5 10.5T400 288h70q46 0 88.5-16t76.5-47q0-1 1-1v1q0 25 16.5 43t40.5 20v187q0 27-13 50.5T644 563l-37 22q-49 31-107 31t-107-31l-37-22zm144 82q43 0 82-15v68l-82 84-82-84v-68q39 15 82 15z"/></svg>