<svg viewBox="0 0 1244 1083.753" xmlns="http://www.w3.org/2000/svg"><path d="M982 826L859 703l61-61q13-14 12-30.5T915 583q-51-37-113-37-34 0-65.5 11T680 589L524 434 860 98q5-5 5-12.5T860.5 73q-4.5-5-12-5T836 73L500 409 164 73q-5-5-12-5t-12 5q-5 5-5 12.5t5 12.5l336 336-156 155q-25-21-56.5-32T198 546q-62 0-113 37-16 12-17 28.5T80 642l61 61L19 826Q0 844 0 870.5t18.5 45Q37 934 63.5 934t44.5-19l123-123 61 61q13 13 28 13 18 0 31-17 42-57 37-127-5-63-44-108l156-156 156 156q-39 45-44 108-5 70 37 127 13 17 31 17 15 0 28-13l61-61 123 123q18 19 44.5 19t45-18.5q18.5-18.5 18.5-45T982 826zM84 891q-10 8-21.5 8T43 890q-8-9-8-19.5t8-20.5l123-123 41 41L84 891zm239-63q-3 3-3 4-2-2-4-3L105 617l-2-2-1-1q2-2 4-3 42-31 92-31 32 0 60 12t50 34q27 27 38 62.5t5.5 72.5q-5.5 37-28.5 67zm361 1q-2 1-4 3 0-1-3-4-23-30-28.5-67t5.5-72.5q11-35.5 38-62.5 22-22 50-34t60-12q25 0 49 8t43 23q2 1 3 2.5t-2 3.5L684 829zm273 62q-8 8-19.5 8t-21.5-8L794 768l40-41 123 123q9 9 9 20.5t-9 20.5z"/></svg>