<svg viewBox="0 0 1244 1083.753" xmlns="http://www.w3.org/2000/svg"><path d="M56 423v302q0 6 4 10.5t10 4.5q6 0 10.5-4.5T85 725V434h830v88q0 6 4.5 10.5T930 537q6 0 10-4.5t4-10.5v-99l21-36q7-13 7-27t-7-26q-7-12-20-19.5t-27-7.5h-94L680 204v-40q0-16-11-27t-27-11h-35V39q0-16-11-27T569 1H432q-16 0-27.5 11T393 39v87h-35q-16 0-27 11t-11 27v40L176 307H82q-14 0-26.5 7T36 334q-15 27-1 53l21 36zM432 30h137q3 0 5.5 2.5T577 39v24H423V39q0-4 2.5-6.5T432 30zm-9 63h154v33H423V93zm-74 71q0-4 2.5-6.5t6.5-2.5h284q4 0 6.5 2.5t2.5 6.5v33H349v-33zM61 348q7-12 21-12h201q6 0 10-4t4-11q0-7-4-10.5t-10-3.5h-57l113-81h322l113 81H349q-6 0-10.5 4t-4.5 10q0 6 4.5 10.5T349 336h569q14 0 21 12 3 6 3.5 12.5T939 373l-18 31H79l-18-31q-8-13 0-25zm905 514h-22V582q0-6-4-10t-10-4q-6 0-10.5 4t-4.5 10v280H753V646q0-39-19.5-72T681 521.5Q648 502 609 502H391q-39 0-72 19.5T266.5 574Q247 607 247 646v216H85v-75q0-6-4-10.5T70.5 772q-6.5 0-10.5 4.5T56 787v75H34q-14 0-24 10T0 896v71q0 14 10 24t24 10h932q14 0 24-10t10-24v-71q0-14-10-24t-24-10zM29 967v-71q0-1 1.5-2.5T34 892h213v80H34q-2 0-3.5-1.5T29 967zm376 5v-36q0-6 4.5-10t10.5-4h160q6 0 10.5 4t4.5 10v36H405zm29-118q-18-26-18-57v-22q0-3 4-4t5 1l1 1q5 8 12.5 11.5T455 787q18-3 25-21l16-54q0-3 4-3t4 3l16 54q7 18 25 21 9 1 16.5-2.5T574 773l1-1q1-2 5-1t4 4v22q0 31-18 57l-25 38h-3v-23q0-17-7-31-4-9-12.5-14.5T500 818q-10 0-18.5 5.5T469 838q-7 14-7 31v23h-3l-25-38zm75 38h-18v-23q0-7 4-19 3-3 5-3t5 3q4 12 4 19v23zm115 80v-36q0-18-13-31t-31-13h-4l15-21q22-32 22-74v-22q0-12-7-21t-18-12q-11-3-21.5 1T550 757l-1 1-17-55q-3-11-12-17.5t-20-6.5q-11 0-20 6.5T468 703l-16 55h-1l-1-1q-6-10-16.5-14t-21.5-1q-11 3-18 12t-7 21v22q0 39 22 74l15 21h-4q-18 0-31 13t-13 31v36h-29V649q0-20 14-33.5t33-13.5h212q20 0 33.5 13.5T653 649v323h-29zm100 0h-42V649q0-32-22-54t-54-22H394q-31 0-53.5 22T318 649v323h-42V646q0-31 15.5-57.5t42-42Q360 531 391 531h218q31 0 57.5 15.5t42 42Q724 615 724 646v326zm247-5q0 5-5 5H753v-80h213q5 0 5 4v71z"/></svg>