<svg viewBox="0 0 1244 1083.753" xmlns="http://www.w3.org/2000/svg"><path d="M899 253q-4-5-10-5.5t-10.5 3.5q-4.5 4-5 10.5T877 272q25 31 40 57l-18 12q-8 6-18.5 6t-19.5-6l-22-15q-16-11-35-11t-35 11l-22 15q-8 6-18.5 6t-19.5-6l-22-15q-16-11-35-11t-35 11l-22 15q-8 6-18.5 6t-19.5-6l-22-15q-16-11-35-11t-35 11l-22 15q-9 6-19 6t-19-6l-22-15q-16-11-35-11t-35 11l-22 15q-9 6-19.5 6t-18.5-6l-22-15q-16-11-35-11t-35 11l-22 15q-9 6-19.5 6t-18.5-6l-18-12q33-56 81-99l46-42h580l46 42q4 4 10 3.5t10.5-5.5q4.5-5 4-10.5T855 208l-21-20h24q25 0 43-17.5t18-42.5v-8q0-25-18-43t-43-18H713q-6 0-10.5 4.5T698 74q0 6 4.5 10.5T713 89h145q13 0 22 9t9 22v8q0 13-9 22t-22 9H142q-13 0-22-9t-9-22v-8q0-13 9-22t22-9h504q6 0 10.5-4.5T661 74q0-6-4.5-10.5T646 59H142q-25 0-43 18t-18 43v8q0 25 18 42.5t43 17.5h24l-21 20Q73 272 36 357 0 439 0 530.5T36 705q37 85 109 149l36 33q30 27 68 41.5t78 14.5h347q40 0 77.5-14.5T819 887l36-33q64-57 101-133t43-160.5q6-84.5-20-163.5t-80-144zm-63 579l-1 2h-36l1-2q12-22 12-46.5T799 739l-2-3q-2-4-1.5-8.5t4.5-7.5l6-5q26-23 31-57t-13-63q-2-4-1.5-8.5t4.5-7.5q13-10 15.5-27t-8-30.5Q824 508 807 505.5t-31 8.5q-28 23-34.5 58t12.5 66q2 4 1.5 8.5T751 654l-6 5q-25 22-30.5 55.5T726 777l2 3q3 6 0 13l-22 41h-23q4-24-2.5-46.5T658 747l-4-5q-6-8-6.5-17.5T653 708q19-25 21.5-56T663 593l-22-41q-7-15-23.5-20.5t-31.5 2q-15 7.5-20.5 24T568 589l22 41q3 7 2 15t-5 14q-23 31-21.5 69t26.5 67l4 5q8 9 6 22l-2 12H369q-6 0-10.5 4t-4.5 10q0 6 4.5 10.5T369 863h433l-3 2q-25 23-57.5 35.5T674 913H327q-35 0-68-12.5T201 865l-3-2h108q6 0 10-4.5t4-10.5q0-6-4-10t-10-4H165l-1-2q-64-57-99.5-136T29 531q0-92 41-176l15 10q16 11 35 11t35-11l22-14q8-6 18.5-6t19.5 6l22 14q16 11 35 11t35-11l22-14q9-6 19-6t19 6l22 14q16 11 35 11t35-11l22-14q9-6 19.5-6t18.5 6l22 14q16 11 35 11t35-11l22-14q9-6 19.5-6t18.5 6l22 14q16 11 35 11t35-11l22-14q9-6 19.5-6t18.5 6l22 14q16 11 35 11t35-11l16-10q38 79 40 166.5T939 689q-35 83-103 143zm-83-66l-2-4q-11-20-7-43t21-38l5-5q12-10 14.5-25t-5.5-28q-13-22-8.5-46t23.5-40q5-3 9-2.5t7.5 4.5q3.5 4 3 9t-4.5 8q-13 10-15.5 25t5.5 29q12 20 8.5 43.5T786 693l-6 5q-11 10-13 25t5 28l2 3q8 15 8.5 32t-7.5 32l-9 16h-27l15-27q5-10 5-21t-6-20zm-135 15l-4-5q-19-21-19.5-49t16.5-51q10-13 11-28.5t-6-30.5l-22-41q-2-5 0-9.5t6-6.5q1-1 5-1h4q5 1 6 6l22 41q10 20 8.5 43T630 691q-12 16-11.5 35.5T632 761l4 5q11 14 16 30.5t2 33.5v4h-24l1-7q4-25-13-46zM487 651q-25-26-59.5-34t-67.5 6l-49 19-83-37q-12-4-23.5-2t-21 10q-9.5 8-12.5 20t2 23l8 24q5 9 0 19l-8 24q-5 11-2 23t13 20q11 11 27 11 9 0 17-4l83-37 49 20q22 8 43 8 23 0 45.5-9.5T487 728l6-6q13-14 13-33t-13-32l-6-6zm-271 96q-7 2-12.5-3t-3.5-12l9-23q6-20 0-39l-9-24q-2-5 2-11l1-1 1-1q4-2 7-2t5 1l62 27q-13 13-13 30t13 30l-62 28zm255-45l-5 6q-19 19-44.5 25t-50.5-4l-68-27q-8-3-8-12.5t8-12.5l68-27q25-10 50.5-4t44.5 25l5 6q5 5 5 12.5t-5 12.5zm-39-29q-7 0-11.5 4.5T416 689q0 7 4.5 12t11.5 5q7 0 12-5t5-12q0-7-5-11.5t-12-4.5zm62-141q-18 0-31 13t-13 31q0 18 13 31t31 13q18 0 31-13t13-31q0-18-12.5-31T494 532zm0 59q-6 0-10-4.5t-4-10.5q0-6 4-10.5t10-4.5q6 0 10.5 4.5T509 576q0 6-4.5 10.5T494 591zm-125-24q20 0 34.5-14.5T418 518q0-20-14.5-34.5T369 469q-20 0-34.5 14.5T320 518q0 20 14.5 34.5T369 567zm0-68q8 0 13.5 5.5T388 518q0 8-5.5 14t-13.5 6q-8 0-14-6t-6-14q0-8 6-13.5t14-5.5zm140-122q-25-2-42.5 15.5T452 435q1 18 14.5 31.5T498 482h6q20 0 37-15 17-18 15-43-2-19-15-32t-32-15zm11 69q-8 8-19 6-8-1-13.5-6.5T481 432q-2-11 6.5-18.5T504 406h2q8 2 14 7.5t7 13.5q0 12-7 19z"/></svg>