<svg viewBox="0 0 1244 1083.753" xmlns="http://www.w3.org/2000/svg"><path d="M792 438q2 0 4-2t2-4q0-2-2-4t-4-2q-2 0-4 2t-2 4q0 6 6 6zm0 40q2 0 4-2t2-5q0-6-6-6-2 0-4 2t-2 4.5q0 2.5 1.5 4.5t4.5 2zm-40-158q6 0 6-6 0-3-1.5-5t-4.5-2q-6 0-6 6.5t6 6.5zm0 39q6 0 6-6t-6-6q-6 0-6 6 0 2 2 4t4 2zm21 19q2 0 4-2t2-4q0-2-2-4t-4-2q-2 0-4 2t-2 4q0 6 6 6zm0 40q2 0 4-2t2-4q0-2-2-4.5t-4-2.5q-2 0-4 2t-2 5q0 6 6 6zm-21 20q6 0 6-6t-6-6q-6 0-6 6 0 2 2 4t4 2zm0 40q6 0 6-6.5t-6-6.5q-6 0-6 6 0 2 2 4.5t4 2.5zm21 19q2 0 4-2t2-5q0-6-6-6-2 0-4 2t-2 4.5q0 2.5 1.5 4.5t4.5 2zm-60-256q2 0 4-2t2-4q0-2-2-4t-4-2q-6 0-6 6t6 6zm0 39q6 0 6-6t-6-6q-2 0-4 2t-2 4q0 6 6 6zm20 19q6 0 6-6t-6-6q-6 0-6 6 0 2 2 4t4 2zm0 40q6 0 6-6 0-3-1.5-5t-4.5-2q-6 0-6 6.5t6 6.5zm0 39q6 0 6-6t-6-6q-6 0-6 6 0 2 2 4t4 2zm0 40q6 0 6-6 0-3-1.5-5t-4.5-2q-6 0-6 6.5t6 6.5zm-20 20q2 0 4-2t2-4q0-2-2-4t-4-2q-2 0-4 2t-2 4q0 6 6 6zm20 19q6 0 6-6t-6-6q-6 0-6 6 0 2 2 4t4 2zm-20 21q2 0 4-2t2-5q0-6-6-6-2 0-4 2t-2 4.5q0 2.5 1.5 4.5t4.5 2zm20 19q6 0 6-6.5t-6-6.5q-6 0-6 6 0 2 2 4.5t4 2.5zm-39-277q6 0 6-6t-6-6q-2 0-4 2t-2 4q0 6 6 6zm-21-19q7 0 7-6t-6.5-6q-6.5 0-6.5 6t6 6zm0 225q-2 0-4 2t-2 4q0 2 2 4t4 2q2 0 4.5-2t2.5-4q0-2-2-4t-5-2zm-39 0q-2 0-4 2t-2 4q0 2 2 4t4 2q2 0 4-2t2-4q0-2-2-4t-4-2zm-40 0q-2 0-4 2t-2 4q0 2 2 4t4 2q2 0 4.5-2t2.5-4q0-2-2-4t-5-2zm100 31q2 0 4-2t2-4q0-2-2-4t-4-2q-2 0-4 2t-2 4q0 6 6 6zm-21 8q-2 0-4 2t-2 4q0 2 2 4.5t4 2.5q2 0 4.5-2t2.5-5q0-6-7-6zm21 32q2 0 4-2t2-5q0-6-6-6-2 0-4 2t-2 4.5q0 2.5 1.5 4.5t4.5 2zm-60-32q-2 0-4 2t-2 4q0 2 2 4.5t4 2.5q2 0 4-2t2-5q0-6-6-6zm20 19q-2 0-4 2t-2 4q0 2 2 4.5t4.5 2.5q2.5 0 4.5-2t2-4.5q0-2.5-2-4.5t-5-2zm-39-39q-2 0-4 2t-2 4q0 2 2 4t4 2q2 0 4-2t2-4q0-2-2-4t-4-2zm-21 20q-2 0-4 2t-2 4q0 2 2 4.5t4 2.5q2 0 4.5-2t2.5-5q0-6-7-6zm21 19q-2 0-4 2t-2 4q0 2 2 4.5t4 2.5q2 0 4-2t2-4.5q0-2.5-2-4.5t-4-2zm-60-58q-2 0-4 2t-2 4q0 2 2 4t4 2q2 0 4-2t2-4q0-2-2-4t-4-2zm20 19q-2 0-4 2t-2 4q0 2 2 4t4.5 2q2.5 0 4.5-2t2-4q0-2-2-4t-5-2zm-20 20q-2 0-4 2t-2 4q0 2 2 4.5t4 2.5q2 0 4-2t2-5q0-6-6-6zm-39-39q-3 0-5 2t-2 4q0 2 2 4t5 2q6 0 6-6 0-2-2-4t-4-2zm-20-21q-2 0-4 2t-2 5q0 6 6 6 2 0 4.5-2t2.5-4.5q0-2.5-2-4.5t-5-2zm40 40q-2 0-4 2t-2 4q0 2 2 4t4 2q2 0 4-2t2-4q0-2-2-4t-4-2zm-60-19q-2 0-4 2t-2 4q0 2 2 4t4 2q2 0 4-2t2-4q0-2-2-4t-4-2zm-19-21q-2 0-4 2t-2 5q0 6 6 6 2 0 4-2t2-4.5q0-2.5-2-4.5t-4-2zm295 297q-2 0-4 2t-2 4q0 2 2 4t4 2q6 0 6-6t-6-6zm21 19q-6 0-6 6t6 6q6 0 6-6t-6-6zm0 40q-6 0-6 6t6 6q2 0 4-2t2-4q0-6-6-6zm-21 20q-2 0-4 2t-2 4q0 2 2 4t4 2q6 0 6-6t-6-6zm-19-99q-6 0-6 6t6 6q2 0 4-2t2-4q0-6-6-6zm0 39q-2 0-4 2t-2 4q0 2 2 4t4 2q6 0 6-6t-6-6zm-20 21q-6 0-6 6t6 6q6 0 6-6t-6-6zm20 19q-6 0-6 6 0 2 2 4t4 2q2 0 4-2t2-4q0-6-6-6zm-20 20q-6 0-6 6t6 6q6 0 6-6 0-2-2-4t-4-2zm20 19q-2 0-4 2t-2 4q0 2 2 4t4 2q6 0 6-6t-6-6zm-20 21q-6 0-6 6t6 6q6 0 6-6t-6-6zm-19-60q-6 0-6 6t6 6q6 0 6-6t-6-6zm-21 20q-2 0-4 2t-2 4q0 2 2 4t4.5 2q2.5 0 4.5-1.5t2-4q0-2.5-2-4.5t-5-2zm21 19q-6 0-6 6t6 6q6 0 6-6t-6-6zm-21 21q-6 0-6 6t6 6q2 0 4.5-2t2.5-4q0-6-7-6zm-39-40q-2 0-4 2t-2 4q0 2 2 4t4 2q6 0 6-6 0-2-2-4t-4-2zm-40 0q-2 0-4 2t-2 4q0 2 2 4t4.5 2q2.5 0 4.5-1.5t2-4q0-2.5-2-4.5t-5-2zm21 19q-2 0-4 2t-2 4q0 2 2 4t4 2q6 0 6-6t-6-6zm-21 21q-6 0-6 6t6 6q2 0 4.5-2t2.5-4q0-6-7-6zm0 39q-2 0-4 2t-2 4q0 2 2 4t4.5 2q2.5 0 4.5-1.5t2-4.5q0-6-7-6zm-19-60q-2 0-4 2t-2 4q0 2 2 4t4 2q7 0 7-6t-7-6zm-20 21q-6 0-6 6t6 6q2 0 4-2t2-4q0-6-6-6zm20 19q-6 0-6 6t6 6q3 0 5-2t2-4q0-2-2-4t-5-2zm-20 20q-2 0-4 2t-2 4q0 2 2 4t4 2q6 0 6-6t-6-6zm20 19q-2 0-4 2t-2 4q0 2 2 4t4 2q7 0 7-6 0-2-2-4t-5-2zm-39-39q-6 0-6 6t6 6q2 0 4-2t2-4q0-2-2-4t-4-2zm-20 20q-3 0-5 2t-2 4q0 2 2 4t5 2q6 0 6-6t-6-6zm20 19q-2 0-4 2t-2 4q0 2 2 4t4 2q6 0 6-6 0-2-2-4t-4-2zm-60-19q-2 0-4 2t-2 4q0 2 2 4t4 2q6 0 6-6t-6-6zm21 19q-3 0-5 2t-2 4q0 2 2 4t5 2q6 0 6-6 0-2-2-4t-4-2zm-60-19q-3 0-5 2t-2 4q0 2 2 4t5 2q6 0 6-6t-6-6zm-40-39q-6 0-6 6t6 6q2 0 4-2t2-4q0-6-6-6zm21 19q-3 0-5 2t-2 4q0 2 2 4t4.5 2q2.5 0 4.5-2t2-4q0-2-2-4t-4-2zm-21 20q-2 0-4 2t-2 4q0 2 2 4t4 2q6 0 6-6t-6-6zm-19-20q-6 0-6 6t6 6q6 0 6-6t-6-6zm-20 20q-6 0-6 6t6 6q6 0 6-6t-6-6zm20 19q-2 0-4 2t-2 4q0 2 2 4t4 2q6 0 6-6t-6-6zm-39-39q-6 0-6 6t6 6q6 0 6-6 0-2-2-4t-4-2zm158 0q-7 0-7 6t6.5 6q6.5 0 6.5-6 0-2-2-4t-4-2zm357-693Q783 76 691.5 38.5T500 1Q400 1 308.5 38.5T146 147Q75 218 37.5 309.5T0 501q0 100 37.5 191.5t108 162.5q70.5 71 162 108.5t192 37.5q100.5 0 192-37.5t162.5-108q71-70.5 108.5-162t37.5-192q0-100.5-37.5-192T854 147zM500 985q-131 0-244-66-110-64-174-174-66-113-66-244t66-244q64-110 174-174 113-66 244-66t244 66q110 64 174 174 66 113 66 244t-66 244q-64 110-174 174-113 66-244 66zm425-537q-8-70-39.5-134.5T803 198q-53-53-119.5-84.5T544 75q-36-15-70-18-64-8-111 24-16-11-31.5-12T308 78q-4 5-4 12t5 19q-23-6-30.5 3t-4.5 25q-36 22-77 61-61 61-93 139T72 501v8q-3 15-2 28 0 9 6 25 10 68 41 130t80 112q57 57 134 91 20 12 42 15 60 19 127 19 86 0 164-32t139-93q52-52 83.5-118T926 547q36-7 43-28 5-17-7-36t-37-35zm-17-10q-25-13-47.5-19t-42.5-9q-7-31-19-63-23-59-59-111.5T661 147q-32-28-68-48 81 19 148 67.5T851.5 285Q895 355 908 438zM451 71q6 0 19 2h3q42 4 87.5 26t90.5 60q43 35 79 89-3 1-3 6 0 2 2 4t4 2l4-1q19 28 37 68-1 0-1-1-6 0-6 6.5t6 6.5q4 0 5-3l6 17q7 17 12 35-2-2-4-2-6 0-6 6.5t5 6.5q5 0 7-5 10 37 9 65 0 25-9.5 35.5T758 511q0-6-6-6-2 0-4 2t-2 4v2q-8 1-28 1 1-1 1-3t-2-4q-2-2-4-2t-4 2q-2 2-2 4t1 3q-9 0-29-2v-1q0-6-6-6t-6 6q-5 0-13-2-42-7-73-17l1-2q0-2-2-4t-4.5-2q-2.5 0-4 1.5T570 489q-31-11-49-20-2-4-4.5-4t-2.5 1q-12-6-17-9 2 0 4-2t2-4q0-2-2-4t-4-2q-2 0-4.5 2t-2.5 4l1 3q-26-14-54-37-63-53-94-112-29-54-27-105 2-49 30-83 40-46 105-46zM320 88q4-4 12.5-3.5T350 91q-9 7-16 16-1 2-5 6-9-18-9-25zm-29 35h6q8 1 22 6-9 16-13 31-11-12-15-22.5t0-14.5zM139 307q10-11 23.5-17.5T190 283q25 0 42 16 21 16 24 45 3 25-15 47t-45.5 24.5q-27.5 2.5-48.5-15t-23-45q-2-27.5 15-48.5zm-39 180q21-24 51-24 24 0 43 15 8 8 11 12-3 11-1 24 2 18 11 34-5 14-13 24-18 22-45 23-25 3-48-15-21-16-23.5-44.5T100 487zm251 14q1 13-3 25.5T336 549q-17 21-44.5 23.5t-48.5-15q-21-17.5-23.5-45T234 464q21-23 51-23 24 0 43 15 22 18 23 45zm-65 167q24 0 43 16 14 11 20 28-23 8-40 29-23 27-25 60-23-2-40-16-21-17-23.5-44.5T235 692q20-22 45-23 2-1 6-1zm-60-105q3 4 7 7 17 14 37 17 11 13 14 35 1 15-5 31-35 3-56 29-6 8-8 12-22-2-40-15-15-13-20.5-31.5T154 611h5q34-3 55-29 8-10 12-19zM98 591v.5q0 .5 1 .5 17 15 39 18-5 22 2 44t25.5 37q18.5 15 42.5 18-4 16-3 33 3 35 29 56 22 17 50 19 2 23 14 43-76-42-128.5-112.5T98 591zm402 323q-38 0-80-8 21-7 38-23l12 12q12 11 32 19h-2zm94-11q10-6 21-19 19-22 23-48 31 22 68 19h6q-53 33-118 48zm178-103q-5 2-5 6v1q-2 2-2 3l-12 11h-1q-4 0-6 5-19 13-41 14-37 2-64-21-2-2-3-4-3-3-9-1-3 2-5 7 0 13-4 22-1-3-5-3-6 0-6 6t6 6q2 0 2-1-4 12-14 23-18 21-44 27-1-1-4.5-1t-5.5 3l-5 1q-37 2-64-21-8-7-15-17-1-3-6-3-4 0-6 2-13 14-30 22 1 0 1-2t-2-4q-2-2-4-2t-4.5 2q-2.5 2-2.5 5t4 5q-36 13-70-6 0-2-2-4t-4-2q-2 0-3 1l-6-6q-2-1-6-5v-3q0-6-6-6h-1q-15-20-17-46-3-36 21-63 15-20 44-28 4-1 5.5-3.5t.5-5.5q-4-20 1-40t18-36q23-26 58-29.5t62 18.5q4 2 7.5.5t5.5-4.5q4-17 17-31 23-28 59.5-30.5T663 582q17 14 24.5 33.5T693 657q0 3 2.5 5.5t5.5 2.5q31 2 55 21 27 25 30 60 2 29-14 54zM359 662q-11-18-10-39.5t15-38.5q10-12 23-18t28-6q24 0 42 15 7 6 15 18-26-4-50.5 5T378 628q-13 16-19 34zm436 127q9-24 6-44-3-44-35-71-26-21-57-24 1-23-8.5-44T674 570q-33-28-75.5-24.5T528 581q-11 13-17 27-8-5-19-10-8-21-25-35-24-21-59-18t-56 29q-20 24-19 54.5t21 53.5v6q-7-11-15-16-19-16-43-19 5-15 3-33t-9-31q36-3 58-30t19-60.5q-3-33.5-29.5-55T277 425q-34 3-55 29-8 12-11 19-1-2-5-5l-2-2q-26-22-60-18.5T88 477q3-54 22-110 7 29 27 46 24 19 53 19 5 0 7-1 35-3 56-28.5t19-60.5q-3-33-30-55-12-11-28-15.5t-32.5-3Q165 270 155 275q48-74 125-123 5 9 17 20l3 3 2 2q-6 40 5 80 24 93 120 172 43 36 101.5 61T651 525q37 5 61 5 7 24 18 46 21 42 49 67t52 25q10 0 17-4 20-10 20-49-1-27-10-65 27 2 52-1-8 69-38 130.5T795 789zm159-274q-4 12-33 17t-73 1q-4 0-6.5 3t-1.5 7q12 42 12 72t-11 35.5q-11 5.5-28-2.5t-35-28q-19-21-34-51-8-15-16-39 63-3 83-26 18-21 10-77 10 1 32 6l4 1q32 10 55.5 24.5T947 488q11 15 7 27zM528 279q-11 11-9.5 32.5t13.5 46q12 24.5 28 38.5t30 14q6 0 10-3 12-5 37.5-36.5T667 327q5-17-15-35-19-16-45.5-23.5T558 264q-22 3-30 15zm11 11l2-2q2-4 10-6.5t20-2.5q12 0 32 5 24 8 39 20 12 10 10 19-2 4-8 13l-34-29q-2-2-5.5-1.5T599 308q-2 2-1.5 5.5t2.5 5.5l35 30-16 19-36-29q-3-2-6.5-2t-4.5 3q-4 7 1 11l35 29q-10 11-15 13-7 3-20-7-15-12-26-35-10-20-12-37.5t4-23.5zm-124-88q8 7 21 7 16 0 26-12 9-10 7-24t-12.5-23q-10.5-9-24-7.5T410 155q-9 11-7.5 24.5T415 202zm7-37q6-7 14-7 5 0 11 4 5 4 6 12.5t-3 12.5q-5 6-12.5 7t-13-4q-5.5-5-6.5-12.5t4-12.5zm-36 168h1q38-1 72.5-18t59.5-48q23-28 34-61.5t9-68.5q-1-3-3.5-5t-5.5-2q-3 0-5 2.5t-2 5.5q2 32-8 63t-31 56q-23 28-54.5 43.5T386 318q-3 0-5.5 2t-2 5.5q.5 3.5 2.5 5.5t5 2z"/></svg>