<svg viewBox="0 0 1244 1083.753" xmlns="http://www.w3.org/2000/svg"><path d="M969 786V64q3-8 3-16 0-20-13.5-33T926 1q-19-1-33 13L312 595q-13-7-27.5-4.5T259 604L24 839Q2 860 1 893.5T23 950q23 23 55.5 23t55.5-23q6-7 169-169l20-20q29 23 66.5 23.5T457 763l22 22-21 20q-7 7-3.5 17t14.5 10q7 0 11-5l63-62q5-5 5-11.5t-4.5-11q-4.5-4.5-11-4.5t-11.5 5l-20 20-22-22q24-33 21-74t-32-69h17q38 0 70.5-19t51.5-51.5q19-32.5 19-70.5v-31h31q38 0 70-19t51-51.5q19-32.5 19-70.5v-31h32q32 0 60.5-14t48.5-38v584q-20 7-27.5 25.5t0 37Q918 867 938 874v73q0 10-6.5 17t-16.5 7q-10 0-17-7t-7-17v-7q11 0 14.5-10t-3.5-17l-15-16q-7-7-17-3.5T860 908v39q0 23 16 39t39 16q23 0 38.5-16t15.5-39v-73q20-7 27.5-25.5t0-37Q989 793 969 786zM914 37q6-5 13-4.5t11 6.5v18L424 571q-23-5-40-4L914 37zM112 927q-14 14-32.5 14.5t-33-13q-14.5-13.5-15-33T46 861l235-235q7-7 15-4-15 27-14 58.5t19 57.5L112 927zm345-209l-24-24q7-15 3.5-30.5t-16-26Q408 627 391 627q-19 0-33 13.5T344 674q0 17 10.5 29.5t26 16Q396 723 411 716l24 25q-25 17-54 12.5T332.5 728Q313 707 313 675.5t23-54.5q23-23 55-23 30 0 51.5 19.5t26 47.5q4.5 28-11.5 53zm-66-29q-6 0-10.5-4.5T376 674q0-6 4.5-11t10.5-5q6 0 11 4.5t5 11.5q0 7-4.5 11t-11.5 4zm94-123h-12l121-121v12q0 30-14.5 55T540 551.5Q515 566 485 566zm172-171h-12l121-122v12q0 30-14.5 55t-40 40Q686 395 657 395zm172-172h-12l121-122v12q0 30-14.5 55T884 208q-25 15-55 15zm125 623q-7 0-11.5-4.5T938 830q0-7 4.5-11.5T954 814q7 0 11 4.5t4 11.5q0 7-4.5 11.5T954 846z"/></svg>