<svg viewBox="0 0 1244 1083.753" xmlns="http://www.w3.org/2000/svg"><path d="M742 605l-94-55q-5-3-4.5-9t5.5-8l174-87q7-4 9.5-11.5t-1-15q-3.5-7.5-11-10T805 411l-4 2q-19-28-47-52-79-66-186-66h-33l-20-29q-23-32-57.5-50.5T383 197H252q-5 0-10 3t-7 7.5q-2 4.5-2 10.5t3 10l47 67h-14q-73 0-134.5 36T37 428Q0 491 0 564v93q0 82 42.5 143.5T161 891q7 3 14.5 0t10.5-10.5q3-7.5 0-15T175 855q-46-19-79-49 23-37 67-67 38-27 84-43 4 34 16 59 20 45 55 66v83q0 5 3 10t8 7l119 58q10 5 19.5-1.5T476 961V751q0-11-9.5-16.5T448 733l-110 54q-25-15-39-47-11-25-14-55 40-8 76-8h361q13 0 23.5-8t14-21q3.5-13-1.5-25t-16-18zM437 930l-80-39v-69l80-40v148zM289 236h94q30 0 56.5 14t43.5 39l4 6H330l-41-59zm72 402q-84 0-161 35-81 36-129 101-32-55-32-117v-93q0-62 31-115t84-84q53-31 115-31h299q92 0 159 56 23 19 39 41l-135 67q-16 8-22.5 25t-1 34.5Q613 575 629 584l92 54H508q-40-24-64-73-17-36-24-81-4-24-4-39 0-8-5.5-13.5T397 426H225q-5 0-9.5 2t-6.5 6q-6 9-2 18 0 4 10 20 14 22 34 41 25 23 58 38 43 19 94 20 16 39 43 67h-85zm17-173q2 31 11 66-83-7-130-66h119zm578-16q-19-13-29-31.5T917 377v-32q18-6 30-22t12-36q0-20-12-36t-30-22V41q0-8-6-14t-14-6q-8 0-13.5 6T878 41v188q-18 6-30 22t-12 36q0 20 12 36t30 22v32q0 31 14.5 58.5T933 481q14 10 21.5 25t6.5 32q-1 24-18.5 40.5T902 597q-27 2-47.5-17T834 534q0-8-6-14t-14-6q-8 0-13.5 6t-5.5 14q0 29 15 53t40.5 37.5Q876 638 905 636q38-2 65-29.5t30-65.5q2-28-10-52t-34-40zm-59-184q10 0 16.5 6.5T920 287q0 9-6.5 15.5T897 309q-10 0-16-6.5t-6-15.5q0-9 6.5-15.5T897 265zM529 493q25 0 42.5-17.5T589 433q0-25-17.5-42.5T529 373q-25 0-42.5 17.5T469 433q0 25 17.5 42.5T529 493zm0-81q8 0 14.5 6.5T550 433q0 8-6.5 14.5T529 454q-8 0-14.5-6t-6.5-15q0-9 6-15t15-6zM271 888q-3-7-11-10t-15.5 0q-7.5 3-10.5 10.5t.5 15q3.5 7.5 11 10.5t14.5 0q7-3 10.5-10.5t.5-15.5z"/></svg>