<svg viewBox="0 0 1244 1083.753" xmlns="http://www.w3.org/2000/svg"><path d="M238 601q-7 1-11.5 6t-3.5 12l9 112q1 9-3 17.5T218 761q-18 11-33 3-17-8-19-27l-13-152q-1-7-6-11.5t-12-3.5q-7 1-11.5 6t-4.5 12l14 152q2 26 21 43.5t45 17.5h6q27-3 44.5-24t15.5-49l-9-112q-2-7-6-11t-12-4zm674-27q-7-1-12 3.5t-6 11.5l-13 148q-1 14-11.5 23.5t-24 8.5q-13.5-1-23-11.5T814 734l10-115q1-7-3.5-12t-11.5-6q-7-1-12 3.5t-6 11.5l-10 112v6q0 26 17.5 45.5T842 800q2 1 6 1 26-1 45-18.5t21-42.5l13-149q1-5-4-11t-11-6zM945 5q-37-3-61 21t-38.5 80.5Q831 163 822 262l-7 68q0 7 4.5 12.5t11.5 6q7 .5 12-4t6-11.5l6-68q7-81 18-133 10-45 23-68 11-18 24-23 8-3 22-2l-34 383q-1 7 3.5 12t11.5 6h2q6 0 11-4.5t5-10.5l34-386q0-13-8.5-22.5T945 5zM841 568q11 0 22-5t18-14q14-19 10-41-14-58-53-101.5T753 338q-11-97-44-173.5t-80.5-120Q581 1 525 1T421.5 44.5Q374 88 341 164.5T297 338q-36 19-68 50-56 54-70 120-4 22 10 41 7 9 18 14t22 5h93q13 79 41.5 143T411 814q-26 17-39 31-32 30-49 73-5 13-2.5 26.5t11 24q8.5 10.5 21.5 15t26 2.5q20-4 46-4 41-2 76 13 11 6 24 6t23-6q36-15 77-13 20-1 46 4 13 2 26-2.5t21.5-15q8.5-10.5 10.5-24t-3-26.5q-17-42-48-73-17-17-39-31 39-40 67-103.5T747 568h94zm-83-134q0-37-2-55 33 22 57 49 35 39 45 87 1 7-4 13t-13 6h-89q6-50 6-100zM209 534q-8 0-13-6t-4-13q10-46 45-86 24-28 57-50-2 18-2 55 0 50 6 100h-89zM525 34q48 0 91 45 41 43 69 119-25 17-68 26.5t-92 9.5q-49 0-92-9.5T365 198q28-76 70-119 42-45 90-45zm130 835q25 24 41 62 2 4 1 8.5t-4 7.5q-6 8-15 6-30-5-53-5-48-2-92 18-8 3-16 0-45-20-92-17-22-1-52 4-9 2-15.5-5.5T355 931q13-34 40-62 22-20 43-32 14 10 21 14-12 25-17 46-1 6 2 12t10 8q2 1 4 1 6 0 11-3.5t6-9.5q5-23 15-42 35 9 70 0 10 19 15 42 1 6 6 9.5t11 3.5q2 0 4-1 6-2 10-8t2-12q-5-21-17-46 13-8 21-14 25 14 43 32zm-130-35q-53 0-100-55-45-54-72-145-28-93-28-200.5T354 230q81 41 171 38 90 3 171-38 29 96 29 203.5T697 634q-27 91-72 145-47 55-100 55zm12-638q5-5 5-12t-5-12l-22-21 22-22q7-7 4-16t-12-11.5q-9-2.5-16 4.5l-21 21-22-21q-4-5-11-5t-12 4.5q-5 4.5-5 11.5t5 12l21 22-21 21q-8 8-5 17t12 11.5q9 2.5 16-4.5l22-21 21 21q5 5 12 5t12-5zM425 418q28 0 47.5-19.5T492 351q0-7-5-12t-12-5q-7 0-12 5t-5 12q0 14-9.5 23.5T425 384q-14 0-23.5-9.5T392 351q0-7-5-12t-12-5q-7 0-12 5t-5 12q0 28 19.5 47.5T425 418zm50 16q-7 0-12 5t-5 12q0 28 19.5 47.5T525 518q28 0 47.5-19.5T592 451q0-7-5-12t-12-5q-7 0-12 5t-5 12q0 14-9.5 23.5T525 484q-14 0-23.5-9.5T492 451q0-7-5-12t-12-5zm100 200q-7 0-12 5t-5 12q0 14-9.5 23.5T525 684q-14 0-23.5-9.5T492 651q0-7-5-12t-12-5q-7 0-12 5t-5 12q0 28 19.5 47.5T525 718q28 0 47.5-19.5T592 651q0-7-5-12t-12-5zm100-300q-7 0-12 5t-5 12q0 14-9.5 23.5T625 384q-14 0-23.5-9.5T592 351q0-7-5-12t-12-5q-7 0-12 5t-5 12q0 28 19.5 47.5T625 418q28 0 47.5-19.5T692 351q0-7-5-12t-12-5zM492 551q0-7-5-12t-12-5q-7 0-12 5t-5 12q0 14-9.5 23.5T425 584q-14 0-23.5-9.5T392 551q0-7-5-12t-12-5q-7 0-12 5t-5 12q0 28 19.5 47.5T425 618q28 0 47.5-19.5T492 551zm183-17q-7 0-12 5t-5 12q0 14-9.5 23.5T625 584q-14 0-23.5-9.5T592 551q0-7-5-12t-12-5q-7 0-12 5t-5 12q0 28 19.5 47.5T625 618q28 0 47.5-19.5T692 551q0-7-5-12t-12-5zm-549-64q7-1 11.5-6t3.5-12l-8-97 66-5q7-1 21-5 27-9 42-33t13-53L259 77q-1-21-18-34-2-2-3-2-15-11-33.5-9.5T173 47q-16-12-35-10t-32 16Q91 41 72.5 42.5T41 58Q24 73 26 97l16 182q2 25 17.5 45T99 351l9 104q1 6 5.5 10.5T124 470h2zM75 277L59 94q0-9 6-13 2-3 10-4t12 3q4 4 6 11l12 133q0 6 5 10.5t11 4.5h2q7 0 11.5-5.5T138 221L126 89q-1-7 3.5-12.5t11-6Q147 70 153 75t6 11l12 133q2 10 10.5 14t16.5-2q8-6 6-15L193 83q-1-5 3-13 3-5 12-5 5-1 11 3l1 1q4 3 6 11l16 182q2 17-8 32t-26 20q-4 3-11 3l-67 6q-8 0-13-1-17-3-29-16t-13-29z"/></svg>