<svg viewBox="0 0 1244 1083.753" xmlns="http://www.w3.org/2000/svg"><path d="M195 572q-8 0-14 5.5t-6 13.5v119q0 23-16 39t-38 16q-22 0-38-16t-16-39V20q0-8-6-13.5T47 1q-8 0-13.5 5.5T28 20v690q0 39 27 66.5t66 27.5q39 0 66-27.5t27-66.5V591q0-8-5.5-13.5T195 572zm765 140q-12-5-21 4l-33 33q-5 6-5 14t5 13.5q5 5.5 12 6t13-3.5q-5 14-17.5 23t-27.5 9q-20 0-34-14t-14-34v-95q18-6 30-22t12-36q0-20-12-36t-30-23v-60q14 15 31 25 13 7 16 7 7 3 14.5 0t10-11q2.5-8-1-15T898 487q-15-7-28-18-24-23-32-56v-7q14 15 31 25 13 7 16 7 7 3 14.5 0t10-11q2.5-8-1-15.5T898 402q-15-7-28-18-24-23-32-56V104q0-39-28-67T742 9q-40 0-67.5 28T647 104v759q0 41-29 70t-70 29q-41 0-70-29t-29-70v-28l38-55q4-4 4-11v-64q20-8 28-29 10-23 18-64 9-49 9-95 0-35-10-65-5-17-17-29t-28-17v-64q0-20-11.5-35.5T449 284v-21q0-37-18.5-68.5t-50-50Q349 126 312 126t-68.5 18.5q-31.5 18.5-50 50T175 263v153q0 8 6 14t14 6q8 0 13.5-6t5.5-14V263q0-41 29-69.5t69.5-28.5q40.5 0 69 28.5T410 263v22q-18 6-29.5 22T369 342v64q-17 5-29 17t-16 29q-10 30-10 65 0 43 9 93 8 42 18 66 8 20 28 29v64q0 6 3 11l38 55v28q0 37 18.5 69t50.5 50.5q32 18.5 69 18.5t69-18.5q32-18.5 50.5-50.5t18.5-69V104q0-23 16.5-39.5T742 48q23 0 40 16.5t17 39.5v224q-8 35-33 57-15 13-26 17-7 2-10.5 9.5t-.5 15q3 7.5 10.5 11t15.5.5l2-1q25-12 42-30v6q-8 35-33 57-15 13-26 17-8 3-11 10.5t0 14.5q3 7 10.5 10.5t15.5.5q3 0 15-7 16-10 29-24v59q-18 7-30 23t-12 36q0 20 12 36t30 22v95q0 36 25.5 61.5T886 850q36 0 61-25.5t25-61.5v-33q1-6-2.5-11t-9.5-7zM408 342q0-9 6.5-15.5T430 320q9 0 15.5 6.5T452 342v61h-44v-61zm-47 121q3-9 10.5-15t16.5-6h83q10 0 17.5 6t10.5 15.5q3 9.5 6 29.5l1 4H354q1-13 7-34zm145 73q-1 36-9 74-6 33-13 51-4 9-14 9h-79q-11 0-14-9-7-18-14-52-8-37-10-73h153zm-98 173h44v54l-22 31-22-31v-54zm410-122q10 0 16.5 6.5T841 610q0 10-6.5 16t-16.5 6q-10 0-16-6.5t-6-15.5q0-9 6.5-16t15.5-7zm-641-74q3 7 10.5 10t14.5 0q7-3 10.5-10.5t.5-14.5q-3-7-10.5-10.5t-15-.5q-7.5 3-10.5 10.5t0 15.5z"/></svg>