<svg viewBox="0 0 1244 1083.753" xmlns="http://www.w3.org/2000/svg"><path d="M827 549H526l-1-66q0-37 23-66 10-13 31-29 4 3 8 4 12 4 25 1-2 14 4.5 26t19.5 16q6 3 13 3t17-4q12-6 18-17 8 11 21 15t26-2q15-8 20-22.5t1-24.5q17 3 31-8 6-6 9-10 10-20 1-37-7-12-17-17 14-9 16.5-25.5T784 256q-4-6-10-10-15-8-31-3 2-15-6.5-28T712 198q-11-2-19 1-16 6-23 19-7-11-21-14.5t-27 3q-13 6.5-18.5 19T602 252q-16-3-30 8-6 5-9 10-9 15-4 31t19 23q-10 7-14 18t-2 22q-31 23-48 50-6-16-10-24l-32-66q14 5 29 1.5t25-14.5q15-15 15-37-2-24-19-38l-5-5 7-1q22-2 37-17t13-38q-2-20-17-34t-36-14h-11l5-6q14-16 14-36.5T512 47q-16-13-37.5-12.5T438 52l-5 6-1-7q-1-22-16-36T380 1h-1q-22 0-37 16.5T329 57v8l-6-5q-16-14-37.5-13.5T250 62q-8 8-11 19t-2 21q1 20 18 35l5 5-7 1q-23 2-36 16-16 16-14 39 2 21 17.5 35t37.5 13h9l-6 6q-14 16-13 37t16 35.5q15 14.5 37.5 13.5t37.5-17l5-6 1 7q2 21 16.5 35.5T397 372h1q22 0 37-17 6-6 11-18l32 66q15 30 18 66-18-14-40-18l-8-16q-15-27-45-38t-58 0l-41 15q-19 6-22 25-1 9 2 17.5t11 14.5l33 27q24 18 53 18 34 0 57-22l13-12q23 5 37 22l2 2q6 7 6 18v27H173q-19 0-32 13t-13 31v42q0 19 13 32t32 13h20l3 35q1 6 5.5 10t10.5 3.5q6-.5 10-5t4-10.5l-4-33h387q6 0 10.5-4.5t5-10.5q.5-6-4-10.5T610 650H173q-7 0-11.5-4t-4.5-11v-42q0-6 4.5-10.5T173 578h654q7 0 11.5 4.5T843 593v42q0 7-4.5 11t-11.5 4H678q-6 0-10.5 4.5t-5 10.5q-.5 6 4 10.5T677 680h101l-14 133H236l-4-39q-1-6-5.5-10t-10.5-3.5q-6 .5-10 5t-3 10.5l18 172q2 23 19 38t39 15h442q22 0 39-15t20-38l27-268h20q19 0 32-13t13-32v-42q0-18-13-31t-32-13zM587 287q2-4 4.5-5t7.5-1l9 4q14 5 23.5-6.5T635 254l-4-9q-5-8 4-13 3-2 7-.5t5 4.5l5 10q6 12 21 12 7-1 12.5-5t7.5-10l3-10q2-4 5.5-5.5t7 0q3.5 1.5 5 5t-.5 7.5l-3 9q-2 6 0 12.5t7 11q5 4.5 11.5 5.5t12.5-2l9-5q4-2 7.5 0t5 5q1.5 3 .5 6.5t-5 5.5l-9 4q-6 3-9.5 9t-2.5 13q2 15 15 19l10 3q3 2 5 5t0 7q-2 4-4 5-4 3-7 1l-10-3q-6-2-13-.5t-11 6.5q-9 11-3 25l5 9q1 3 0 6.5t-4.5 5.5q-3.5 2-7.5.5t-5-5.5l-4-8q-3-6-9-9.5t-13-3q-7 .5-12.5 4.5t-6.5 10l-4 10q0 3-4 5t-7.5.5q-3.5-1.5-5-4.5t-.5-7l3-9q5-14-6-24-6-6-15-6-5 0-10 3l-9 4q-3 2-6.5 1t-5.5-5q-3-8 5-13l8-4q6-3 9.5-8.5t3-12.5q-.5-7-4.5-12.5t-11-7.5l-9-3q-4-2-5.5-5t-.5-7zm-169 16l1 16q1 9-5.5 16.5T397 343q-9 0-15.5-6.5T374 321l-1-15q0-8-5-14.5t-13-9.5q-2-1-8-1-12 0-20 9l-10 12q-7 7-15.5 7.5T284 303q-7-6-7-15t6-17l10-11q5-6 6.5-14t-2-15q-3.5-7-10-11t-15.5-4l-16 1q-9 1-16-5.5t-7.5-16Q232 186 238 179t15-7l16-1q8 0 14.5-5t9.5-13q6-16-8-28l-12-10q-7-7-8-16t6-16q7-7 16-7.5t16 5.5l12 10q6 5 14 6.5t15-2q7-3.5 11-10t4-15.5l-1-16q-1-9 5.5-16.5t16-7.5q9.5 0 16 6.5T403 52l1 15q0 8 5 14.5t13 9q8 2.5 15.5.5t12.5-8l10-12q7-7 16-8t15.5 5.5Q498 75 499 85t-5 16l-10 12q-5 6-6.5 14t2 15q3.5 7 10 11t15.5 4l16-1q9-1 16 5.5t7.5 16q.5 9.5-5 15.5t-15.5 8l-16 1q-8 0-14.5 5t-9 13q-2.5 8-.5 15.5t8 12.5l12 10q7 7 7.5 15.5T505 291q-6 6-15.5 6.5T473 292l-11-10q-6-5-14-6.5t-15 2q-7 3.5-11 10t-4 15.5zm-71 170l-34-27q-2-2-2-4t3-3l41-15q9-3 18-3 14 0 26.5 6.5T419 445l-41-7q-6-1-10.5 2.5t-6 9.5q-1.5 6 2 11t9.5 6l42 7q-15 11-34.5 11T347 473zm414 369l-4 44H244l-5-44h522zm-40 130H279q-11 0-19.5-8t-9.5-19l-3-29h506l-3 29q-1 11-9.5 19t-19.5 8zM454 182q-2-27-23-44.5T385 121q-28 2-46 22t-16.5 46.5Q324 216 343 234t45 18h4q27-1 45.5-22t16.5-48zm-63 40q-15 1-26-8.5t-12-25q-1-15.5 8.5-26T386 150h3q12 0 23 9.5t12.5 24.5q1.5 15-8.5 26t-25 12zm272 137q5 2 15 2t19-4q16-8 21.5-25t-2.5-33.5q-8-16.5-26-22t-32 2.5q-17 10-22.5 26t2.5 32q8 16 25 22zm1-46q3-10 13-10l5 1q5 2 8 7.5t1.5 10.5q-1.5 5-7.5 9-6 2-11 .5t-8-8q-3-6.5-1-10.5z"/></svg>