<svg viewBox="0 0 1244 1083.753" xmlns="http://www.w3.org/2000/svg"><path d="M352 647q-4 4-4 10.5t5 10.5q31 27 68.5 41t78.5 14q61 0 111.5-30t80.5-80.5Q722 562 722 501t-30-112q-30-51-81-81t-111-30q-60 0-111 30t-81 81q-30 51-30 113t32 115q3 5 9 6.5t11-2q5-3.5 6.5-9.5t-1.5-11q-28-47-28-100t26-97q26-44 70.5-70t96.5-26q52 0 96.5 26t70.5 70q26 44 26 97t-26 97q-26 44-70 70t-97 26q-35 0-68-12.5T372 646q-5-4-10.5-3.5T352 647zm140-240q6-1 10-5.5t3.5-10.5q-.5-6-5-10t-11.5-3q-23 2-43.5 12T409 417q-16 17-24.5 39t-8.5 45q0 33 17 61.5t45.5 45.5q28.5 17 61.5 17 43 0 76-26.5t44-67.5q2-5-1.5-10.5t-9.5-7q-6-1.5-11 1.5t-6 9q-8 31-34 51t-58 20q-39 0-66.5-27.5T406 501q0-37 25-64t61-30zm147 23q0-23-16.5-39.5T583 374q-23 0-39.5 16.5T527 430q0 23 16.5 39.5T583 486q23 0 39.5-16.5T639 430zm-83 0q0-11 8-18.5t19-7.5q11 0 19 7.5t8 18.5q0 11-8 19t-19 8q-11 0-19-8t-8-19zm400 32h-17q-74-108-149-179-4-4-10-4t-10.5 4.5q-4.5 4.5-4 10.5t4.5 10q71 68 133 158h-33q-18 0-31 13t-13 31q0 18 13 31t31 13h26q-61 86-131 152-112 104-221 124v-18q0-19-13-31.5T500 764q-18 0-31 12.5T456 808v18q-109-20-221-124-70-66-131-152h26q18 0 31-12.5t13-31.5q0-19-13-31.5T130 462H97q64-94 139-163 113-105 220-123v15q0 19 13 32t31 13q18 0 31-13t13-32v-15q88 15 179 87 3 3 9.5 3t10.5-4.5q4-4.5 3.5-11T741 240q-100-79-197-94v-40q0-19-13-31.5T500 62q-18 0-31 12.5T456 106v40q-124 20-251 141-75 73-144 175H44q-18 0-31 13T0 506q0 18 13 31t31 13h24q68 101 149 176 121 111 239 129v39q0 18 13 31t31 13q18 0 31-13t13-31v-39q118-18 239-129 81-75 149-176h24q18 0 31-12.5t13-31.5q0-19-13-31.5T956 462zM500 91q6 0 10.5 4.5T515 106v85q0 7-4.5 11t-10.5 4q-6 0-10.5-4t-4.5-11v-85q0-6 4.5-10.5T500 91zM29 506q0-6 4.5-10.5T44 491h86q6 0 10.5 4.5T145 506q0 6-4.5 10.5T130 521H44q-6 0-10.5-4.5T29 506zm471 402q-6 0-10.5-4t-4.5-10v-86q0-6 4.5-10.5T500 793q6 0 10.5 4.5T515 808v86q0 6-4.5 10t-10.5 4zm456-387h-86q-6 0-10.5-4.5T855 506q0-6 4.5-10.5T870 491h86q6 0 10.5 4.5T971 506q0 6-4.5 10.5T956 521zM746 146h118v109q0 18 13 31t31 13q18 0 31-13t13-31V123q0-27-19-45.5T888 59H746q-18 0-31 12.5T702 102q0 18 13 31t31 13zm0-58h142q14 0 24.5 10t10.5 25v132q0 6-4.5 10t-10.5 4q-6 0-10-4t-4-10V132q0-6-4.5-10.5T879 117H746q-6 0-10-4t-4-11q0-7 4-10.5t10-3.5zM92 299q18 0 31-13t13-31V146h118q18 0 31-12.5t13-31q0-18.5-13-31T254 59H112q-26 0-45 18.5T48 123v132q0 18 13 31t31 13zM77 123q0-15 10.5-25T112 88h142q6 0 10.5 4t4.5 10q0 6-4.5 10.5T254 117H121q-6 0-10.5 4.5T106 132v123q0 6-4 10t-10 4q-6 0-10.5-4T77 255V123zm831 580q-18 0-31 13t-13 31v109h-35q-6 0-10 4t-4 10q0 6 4 10.5t10 4.5h50q6 0 10.5-4.5T894 870V747q0-6 4-10.5t10-4.5q6 0 10.5 4.5T923 747v132q0 14-10.5 24.5T888 914H746q-6 0-10-4t-4-11q0-7 4-10.5t10-3.5h21q6 0 10.5-4.5T782 870q0-6-4.5-10t-10.5-4h-21q-18 0-31 12.5T702 899q0 18 13 31t31 13h142q26 0 45-18.5t19-45.5V747q0-18-12.5-31T908 703zM254 856H136V747q0-18-13-31t-31-13q-18 0-31 13t-13 31v132q0 27 19 45.5t45 18.5h142q18 0 31-12.5t13-31q0-18.5-13-31T254 856zm0 58H112q-14 0-24.5-10.5T77 879V747q0-6 4.5-10.5T92 732q6 0 10 4.5t4 10.5v123q0 6 4.5 10.5T121 885h133q6 0 10.5 4t4.5 10q0 6-4.5 10.5T254 914z"/></svg>