<svg viewBox="0 0 1244 1083.753" xmlns="http://www.w3.org/2000/svg"><path d="M992 327h-71q-4 0-7.5-3.5T910 316V60q0-5 3.5-8t7.5-3h71q6 0 10.5-4.5T1007 34q0-6-4.5-10.5T992 19h-71q-13 0-23 7.5T883 45h-45l-17-12Q778 3 728 3H469q-22 0-38 15.5T415 57q0 19 11 33-12 8-19.5 20t-7.5 27q0 19 11 33-12 7-19 19.5t-7 26.5q0 14 6 26H249q-22 0-38 15.5T195 296q0 23 16 39t38 16h200q6 0 10-4.5t4-10.5q0-6-4-10.5t-10-4.5H249q-10 0-17.5-7.5t-7.5-18q0-10.5 7.5-17.5t17.5-7h228q6 0 10-4t4-11q0-6-4-10t-10-4h-39q-10 0-17.5-7.5T413 217q0-10 7.5-18t17.5-8h41q6 0 10.5-4t4.5-10q0-6-4.5-10.5T479 162h-25q-10 0-17.5-7.5t-7.5-18q0-10.5 7.5-17.5t17.5-7h26q6 0 10-4.5t4-10.5q0-6-4-10t-10-4h-11q-10 0-17.5-8T444 57q0-10 7.5-17.5T469 32h259q42 0 76 25l20 15q5 3 9 3h47v226h-64q-17 0-33 11l-55 43q-20 17-20 42v65q0 14-10 24.5T674 497q-14 0-24.5-10.5T639 462v-97q0-18-12.5-31T596 321h-85q-6 0-10 4.5t-4 10.5q0 6 4 10.5t10 4.5h85q6 0 10 4t4 10v97q0 26 19 45t45 19q26 0 44.5-19t18.5-45v-65q0-12 9-18l55-44q8-5 15-5h67q4 12 14.5 19t23.5 7h71q6 0 10.5-4t4.5-10q0-6-4.5-10.5T992 327zM607 872q0-19-11-33 12-8 19.5-20t7.5-27q0-15-6-25h140q23 0 39-16.5t16-38.5q0-22-16-38t-39-16H410q-5 0-9.5-4t-4.5-10v-98q0-26-18.5-44.5T333 483q-26 0-44.5 18.5T270 546v65q0 10-9 19l-56 43q-7 5-15 5h-67q-5-12-15-19t-23-7H15q-6 0-10.5 4.5T0 667q0 6 4.5 10t10.5 4h70q5 0 8.5 3.5T97 693v107q0 7 4 11t11 4q7 0 10.5-4t3.5-11v-93h64q19 0 33-11l56-43q10-7 15-18.5t5-23.5v-65q0-14 10-24t24-10q14 0 24 10t10 24v98q0 18 13 30.5t30 12.5h347q11 0 18.5 7.5T783 712q0 10-7.5 17.5T757 737H530q-6 0-10.5 4.5T515 752q0 6 4.5 10.5T530 767h38q11 0 18.5 7.5T594 792q0 10-7.5 17.5T568 817h-40q-6 0-10.5 4.5T513 832q0 6 4.5 10t10.5 4h25q10 0 17.5 7.5t7.5 18q0 10.5-7 18t-18 7.5h-26q-6 0-10.5 4t-4.5 10q0 6 4.5 10.5T527 926h10q11 0 18 7t7 17.5q0 10.5-7 18t-18 7.5H278q-43 0-75-25l-21-14q-3-3-8-3h-48v-71q0-6-4-10.5t-10-4.5q-6 0-10.5 4.5T97 863v85q0 5-3.5 8.5T85 960H15q-6 0-10.5 4T0 974q0 6 4.5 10.5T15 989h70q13 0 23-7t15-19h46l16 12q42 30 93 30h259q23 0 39-16t16-38q0-19-11-33 12-7 19-19.5t7-26.5zm325-261q-6-2-11.5 1t-6.5 9q-28 105-103.5 184T629 917q-6 2-8.5 7.5T620 936q3 10 14 10 2 0 4-1 110-33 192.5-118.5T942 629q2-6-1-11.5t-9-6.5zm-7-225q-6 1-9 6.5t-1 11.5q13 51 13 107 0 16-2 47v3q-1 6 2.5 10.5t9.5 5.5h2q5 0 9.5-3.5t5.5-9.5q3-26 3-53 0-59-15-114-2-6-7-9t-11-2zM74 623q2 0 3-1 6-1 9.5-6t2.5-11q-11-49-11-94 0-68 21-132t61-118.5q40-54.5 93.5-93.5T370 107q6-1 9-6.5t1-11.5q-2-6-7.5-9T361 79q-68 23-125 64.5T137 242q-43 59-65.5 127.5T49 511q0 50 11 100 1 5 5 8.5t9 3.5zm108-275q-6-2-11.5 0t-8.5 7q-33 75-33 156 0 68 22 128 1 4 5 7t9 3l5-1q5-2 7.5-7.5T179 629q-21-57-21-118 0-77 31-143 2-6 0-11.5t-7-8.5zm647 317q2 1 6 1 10 0 13-9 30-69 30-145.5T850 369q-2-6-8-8t-11.5 0q-5.5 2-7.5 7.5t0 11.5q26 64 26 131 0 72-28 135-2 5 .5 11t7.5 8zM337 175q-3 1-9 5l-9 5q-5 3-7 9t1 11q5 8 13 8 3 0 7-2l17-10q6-2 8-8t-.5-11.5q-2.5-5.5-8.5-7t-12 .5zm358 623q-21 15-46 26-5 3-7 8.5t0 11.5q5 8 14 8 4 0 6-1 21-10 50-28 5-4 6-10t-2.5-11q-3.5-5-9.5-6t-11 2zM502 404q-6 0-10 4.5t-4 10.5v12q-23 4-39.5 21T427 492h-12q-6 0-10.5 4t-4.5 10q0 6 4.5 10.5T415 521h12q5 23 21.5 39.5T488 582v12q0 6 4 10t10 4q6 0 10.5-4t4.5-10v-12q23-5 40-21.5t21-39.5h12q6 0 10-4.5t4-10.5q0-6-4-10t-10-4h-12q-4-23-21-40t-40-21v-12q0-6-4.5-10.5T502 404zm48 102q0 20-14 34t-34 14q-20 0-33.5-14T455 506q0-20 14-33.5t33.5-13.5q19.5 0 33.5 14t14 33zm-62-2v4q0 6 4 10.5t10 4.5q6 0 10.5-4.5T517 508v-4q0-6-4.5-10.5T502 489q-6 0-10 4.5t-4 10.5z"/></svg>