<svg viewBox="0 0 1244 1083.753" xmlns="http://www.w3.org/2000/svg"><path d="M67 1001h450q28 0 47-19.5t19-47.5q0-7-4.5-11.5T567 918q-7 0-12 4.5t-5 11.5q0 14-9.5 24T517 968H67q-14 0-24-10t-10-24V68q0-14 10-24t24-10h24l42 63q11 17 29.5 27t39.5 10h181q21 0 39.5-10T453 97l42-63h22q14 0 23.5 10t9.5 24q0 7 5 11.5t12 4.5q7 0 11.5-4.5T583 68q0-28-19-47.5T517 1H67Q39 1 19.5 20.5T0 68v866q0 28 19.5 47.5T67 1001zM425 79q-7 10-18 16t-24 6H202q-12 0-23-6t-18-16l-30-45h323l-29 45zM133 901q0 7 5 12t12 5h283q7 0 12-5t5-12q0-7-5-12t-12-5H150q-7 0-12 5t-5 12zm-33-733q0-8-4.5-12.5t-12-4.5q-7.5 0-12 4.5T67 168v33q0 7 4.5 12t11.5 5q7 0 12-5t5-12v-33zm-17 83q-7 0-11.5 5T67 268v450q0 7 4.5 11.5T83 734q7 0 12-4.5t5-11.5V268q0-8-4.5-12.5T83 251zm588 323q-6-4-12.5-2t-10.5 8q-13 29-15 61t8 63q2 6 8.5 9.5t13 2q6.5-1.5 9.5-8t1-12.5q-16-49 4-99 4-6 2-12.5t-8-9.5zM567 884q20 1 36-12t20-33l4-19q25 30 55 47t60 17q13 0 25-3 8-1 16-6 10 5 17 6 37 10 75.5-8t69-58q30.5-40 45.5-93 13-48 9-94.5T976 547q-10-20-27.5-34T910 493l42-33q12-11 9-27-2-8-8-13.5t-13-6.5q-75-15-110-7t-58 34q-7-11-16-19-3-3-7.5-4t-8.5 1q-9 4-11.5 12.5T733 446q29 29 32 70-6-2-12-6-27-18-61-21-2-23-12.5-43T652 412l37-52q6-8 6.5-18.5t-5-19q-5.5-8.5-15-13T656 307l-11 3 24-57q4-9 2.5-18t-8-16.5Q657 211 648 208t-18 0l-18 4-13-52q-3-11-12-18.5t-20.5-7.5q-11.5 0-20.5 7.5T534 160l-13 52-18-4q-9-3-18 0t-15.5 10q-6.5 7-8 16.5T464 253l25 57-11-2q-10-2-20 2t-15 12.5q-5 8.5-5 19t6 18.5l37 52q-25 21-35 51.5t-3 62.5l67 313q5 20 21 33t36 12zm223-408q-2-8 12-20t37-18q14-2 21-2 35 2 60 7-31 28-70 43-20 6-44 1-13-5-16-11zm-23 75v17q0 7 4.5 11.5T783 584q7 0 12-4.5t5-11.5v-17q19-5 31-13 31-22 68-14 15 5 28 15t20 24q17 29 19.5 68.5T957 713q-12 44-36.5 78T866 840.5q-30 15.5-58 8.5-12-4-17-7-8-5-16 0-5 3-17 7-33 8-67-14t-58-65h-1q-16-29-23-57-12-42-9.5-81.5t19-69Q635 533 667 524q6-2 17-2 28 0 50 16 20 11 33 13zM482 342q19 4 32-11t6-35l-24-56 17 4q14 3 25-3.5t16-20.5l13-52 13 52q4 14 14.5 20.5T620 244l18-4-24 56q-4 9-2.5 18t7 16.5Q624 338 633 341t18 1l11-2-39 54q-21-10-47-10h-19q-27 0-47 10l-39-54 11 2zm30 89q19-13 45-13h19q32 0 55.5 21t27.5 53q-22 6-39.5 20T591 546q-20 35-23.5 81.5T577 722q9 31 24 59l-10 50q-2 9-9 14.5t-15.5 5.5q-8.5 0-15-5.5T543 832l-67-313q-6-26 4-50t32-38zm-195 37q7 0 11.5-5t4.5-12V241l39 38q5 5 12 5t11.5-5q4.5-5 4.5-12t-5-11l-66-67q-5-5-12-5t-12 5l-67 67q-5 5-4.5 12t5.5 11.5q5 4.5 11.5 4.5t11.5-5l38-38v210q0 7 5 12t12 5zm-79 278l67 67q5 4 12 4t12-4l66-67q5-5 5-12t-4.5-11.5q-4.5-4.5-11.5-5t-12 4.5l-39 39V551q0-7-4.5-12t-11.5-5q-7 0-12 5t-5 12v210l-38-39q-5-5-12-4.5t-11.5 5Q234 727 234 734t4 12z"/></svg>