<svg viewBox="0 0 1244.5 1083.753" xmlns="http://www.w3.org/2000/svg"><path d="M500.5 1Q400.5 1 309 39T147.5 146.5Q77.5 216 38.5 309T0 500.5q.5 98.5 38 190T145.5 853l1.5 1.5 1.5 1.5q96 95 226 129 126 32 252 0 130-34 226-129 0-1 1.5-1t1.5-1v-1q70-71 107.5-162.5t37.5-190.5q0-99-38-191T854 147Q783.5 77 692 39T500.5 1zm-17 34v459l-324 325q-62-66-94-150T34 495.5Q34.5 406 69.5 322T167 174q62.5-64 144.5-100t172-39zm-301 807l318-317 318 317q-88 82-205 111-113 29-226 0-117-29-205-111zm659-23l-324-325V35q90 3 172 39T834 174q62.5 64 97.5 148T967 495.5q.5 89.5-31.5 173.5t-94 150zm-502-390q1 0 1-1l1-1q12-18 15-39.5t-3-42.5l40-25q7-4 11-12t2.5-16.5q-1.5-8.5-7.5-16t-15-10.5l55-44q7-5 9.5-13t1-16q-1.5-8-8.5-15t-16-9l-2-1 6-29q2-10-2.5-19t-13-13.5q-8.5-4.5-18.5-4.5t-17 6l-24 19-1-2q-6-7-15-9.5T321 114q-8.5 2-14 8.5t-7.5 14.5l-12 69h-1q-7-7-16-8.5T253 199q-8.5 3-13.5 10t-5 15l-4 47q-26 5-45.5 22t-27.5 41l-83 242q-5 17 1 33t21 25q15 9 32 7t29-15l182-197zm-53-177q3 3 8 4t9 0q9-4 11-13l17-94 9 11q5 5 11.5 5t11.5-4l32-25-7 40q-2 7 1.5 12.5t10.5 6.5l14 3-75 60q-4 2-5.5 7t-.5 9q2 10 11 13l27 8-33 20q-15-17-27-24l-13-8q-17-9-34-12l2-38 20 19zm-173 353q-5-2-7-7.5t0-11.5l83-240q6-19 21.5-30.5t35.5-12.5h2q19 0 32 9l13 8q23 14 29 40 3 12 1 24.5t-9 23.5l-181 195q-4 4-10 4.5t-10-2.5zm472 122q-9-17-27-28 16-13 28-26 4-4 5.5-11t-.5-13q-6-15-17-19-39-16-80-11-22 6-37 21-5-5-12-5t-11.5 4q-4.5 4-5.5 11t3 12q11 12 16 33l1 6q-28-16-55-9-14 4-25.5 13t-18.5 22q-13 25-15 53t6 54q13 45 41.5 72.5t60.5 27.5q12 0 17-2 2 0 6-1l2-1 2 1q4 1 6 1 24 6 48-4.5t43-35q19-24.5 28-58.5 8-26 6-54t-15-53zm-83-75q28-2 52 7-19 20-43 31-17 6-33-5l-3-11q3-9 10.5-14.5t16.5-7.5zm60 173q-10 36-33.5 58t-45.5 17l-8-3q-8-5-16 0l-8 3q-22 5-45.5-16.5T372.5 826q-7-20-5.5-41.5t10.5-40.5q8-15 24-20 3-1 8-1 13 0 26 8 10 6 15 7v13q0 7 5 12t12 5q7 0 11.5-5t4.5-12v-13q6-1 16-7 7-5 16-7t17 0q16 4 24 19 19 38 6 82zm255-620q-39 17-63 41-11-24-35-44-17-15-38-25-16-8-20-8-6-2-12 .5t-9 7.5v1q-9 22-13 44-7 43 6 76-40 2-74 18-5 3-7.5 9t-.5 12v1q9 22 23 41 26 36 60 50 19 8 46 8 30 0 61-11l21 49-8-4q-25-10-57-8-23 2-46 9-16 6-21 9t-7.5 9q-2.5 6-.5 12v1q9 22 23 41 26 36 60 50 22 8 45 8 31 0 62-11l27 62q2 4 6 7t8.5 3q4.5 0 7.5-1 6-3 8.5-9.5t-.5-12.5l-26-62q52-25 76-76 14-36 4-82-6-24-14-41-3-6-9-8t-12 0h-1q-22 9-41 22-36 26-50 60l-3 9-21-49q25-12 44.5-31.5t31.5-44.5q14-36 4-82-6-24-14-41-3-6-9-8.5t-12-.5zm-152 1q41 19 59 56 3 5 5 17l-4 9q-8 21-8 40-17-15-35-22l-9-3q-6-8-9-15-13-40 1-82zm-19 192q-38-18-57-58 40-16 81-3 38 18 57 58-40 15-81 3zm71 165q-39-20-57-58 40-15 81-3 38 18 57 58-40 16-81 3zm110-98q19-39 58-57 16 41 2 82-19 39-58 57-15-42-2-82zm-10-140q-20 39-58 57-16-38-3-82 19-39 58-56 15 40 3 81z"/></svg>