<svg viewBox="0 0 1244 1083.753" xmlns="http://www.w3.org/2000/svg"><path d="M989 150l-61-41-103-67v-1h-1q-35-23-57-31-28-9-71-9H304q-43 0-71 10-22 7-58 31L72 109l-61 41q-6 4-8 10.5T5 173l84 143q5 9 15 9 2 0 6-1l64-33 51-26v719q0 7 5.5 12t12.5 5h231q7 0 11.5-4.5T492 986l8-69 9 69q1 6 5.5 10.5t11.5 4.5h232q7 0 12-5t5-12V265l113 58q6 2 8 2 11 0 15-9l84-143q4-6 2-12.5t-8-10.5zM567 36q-6 23-24.5 37T500 87q-24 0-42.5-14T433 36h134zM111 284L44 170l32-21 66 119-31 16zm156 682h-7V647h7v319zm431 0H541l-24-193q-1-7-5.5-11t-11.5-4q-7 0-11.5 4t-5.5 11l-24 193H303V647h395v319zm42 0h-7V647h7v319zm26-746q-10-3-18 1.5t-8 14.5v376H260V236q0-10-8.5-14.5T235 220l-62 32-68-122 90-59q32-21 50-28 22-7 59-7h93q7 37 36 62t67 25q38 0 67-25t36-62h93q37 0 59 8 17 6 50 27l90 59-68 122-61-32zm123 64l-31-16 66-119 32 21-67 114zM693 155h-87q-7 0-12.5 5t-5.5 12v52q0 25 18 43t43.5 18q25.5 0 43.5-18t18-43v-52q0-7-5.5-12t-12.5-5zm-17 69q0 10-7.5 18t-18.5 8q-11 0-19-8t-8-18v-34h53v34zm-3 79H374q-10 0-14 7l-47 64q-7 10-2 19t16 9h299q10 0 14-7l47-64q7-10 2.5-19t-16.5-9zm-56 64H361l22-29h256l-22 29z"/></svg>