<svg viewBox="0 0 1244 1083.753" xmlns="http://www.w3.org/2000/svg"><path d="M854 147Q783 76 691.5 38.5T500 1Q400 1 308.5 38.5T146 147Q75 218 37.5 309.5T0 501q0 100 37.5 191.5T146 855q71 71 162.5 108.5T500 1001q100 0 191.5-37.5t162.5-108q71-70.5 108.5-162t37.5-192q0-100.5-37.5-192T854 147zm-4 47l-63 196-103 34-167-121V194L684 73q96 42 166 121zM661 450l-61 189H401l-62-189 161-117 161 117zM500 35q71 0 145 24L500 164 355 59q74-24 145-24zM317 73l166 121v109L316 424l-102-34-64-196q72-80 167-121zM35 501q0-76 24-147 22-68 65-127l56 170L35 502v-1zm2 42l166-120 102 34 64 196-63 86H100q-54-89-63-196zm86 231h179l55 170q-71-23-131-67T123 774zm377 193q-53 0-103-12l-63-196 63-85h206l64 85-64 196q-49 12-103 12zm143-23l55-170h179q-43 59-103 103t-131 67zm257-205H694l-63-86 64-196 102-34 167 120q-11 108-64 196zm-79-342l55-170q43 59 66 127 24 71 24 147v1L821 397z"/></svg>