<svg viewBox="0 0 1244 1083.753" xmlns="http://www.w3.org/2000/svg"><path d="M279 386q-31 0-53.5 22T203 461q0 31 22 53t53.5 22q31.5 0 53.5-22t22-53q0-31-22-53t-53-22zm0 133q-24 0-41-17t-17-41q0-24 17-41t40.5-17q23.5 0 40.5 17t17 41q0 24-17 41t-40 17zm18-62q-4 0-6.5 2.5t-2.5 6q0 3.5 2.5 6t6.5 2.5h17q4 0 6-2.5t2-6q0-3.5-2-6t-6-2.5h-17zm-37 0h-17q-3 0-5.5 2.5t-2.5 6q0 3.5 2.5 6t5.5 2.5h17q4 0 6.5-2.5t2.5-6q0-3.5-2.5-6T260 457zm-50-71q0-3-2.5-5.5T201 378h-39q-3 0-5.5 2.5t-2.5 6q0 3.5 2.5 6t5.5 2.5h39q4 0 6.5-2.5t2.5-6.5zm185-8h-39q-4 0-6.5 2.5t-2.5 6q0 3.5 2.5 6t6.5 2.5h39q4 0 6-2.5t2-6q0-3.5-2-6t-6-2.5zm526-105q-11-9-25-11-20-4-40 7-22 12-27 33-1 0-3 2l-2-4q-5-8-8-12-1-2-5-3l-1-1q-4 0-7 3L286 804q-3 3-3 7l1 1q1 4 3 5 48 32 102.5 48.5T500 882q75 0 145-28.5T770 770q55-55 83.5-126.5t27.5-148Q880 419 849 349l4 1q14 4 25.5-1t15.5-15.5q4-10.5 0-22T876 294q-10-4-22-3l3-2q4-4 7-5 16-9 32-5 8 2 13 7 2 2 6 2t6-2q5-7 0-13zm-113 33q1 3 5 9-10 9-21 22l-6-9 22-22zm3 253H663q-4 0-6.5 2t-2.5 6q0 4 2.5 6.5t6.5 2.5h145q-1 9-6 26l-3 9h-59q-4 0-6.5 2.5T731 620q0 4 2.5 6t6.5 2h54q-14 40-34 79-13 25-25 42h-32q-30-77-34-107 0-5-4.5-7.5T655 636l-11 6q-15 8-36 14-29 9-66 13-46 5-101 4l69-69h68q4 0 6.5-2.5t2.5-6q0-3.5-2.5-6T578 587h-51l247-247q18 23 29 61.5t13 86.5q1 34-5 71zm-54 199q-59 60-139 87-77 27-159.5 18T305 809l119-119q91 4 158-9 45-9 72-24 8 34 34 99l2 5q2 6 8 6h42q3 0 7-4l1-2q28-43 49-92 40-96 36-182-3-83-31-134 9-13 20-23 37 69 41.5 147t-23 151.5Q813 702 757 758zm112-448q12 6 10 16-3 5-8 7.5t-13 .5q-11-5-13-18v-4q14-6 24-2zm-15-163Q783 76 691.5 38.5T500 1Q400 1 308.5 38.5T146 147Q75 218 37.5 309.5T0 501q0 100 37.5 191.5T146 855q71 71 162.5 108.5T500 1001q100 0 191.5-37.5T854 855q71-71 108.5-162.5T1000 501q0-100-37.5-191.5T854 147zm-13 695q-92 93-219 126-122 32-244 0-127-33-219.5-125.5T33 623Q1 501 33 379q33-127 126-219 69-70 159-107 87-35 182-35t182 35q90 37 159 106t105.5 157Q983 404 983 501t-36.5 185Q910 774 841 842zm-39-39q-82 82-193 111-109 29-217 0-112-29-194-111-2-2-6-2t-6.5 2q-2.5 2-2.5 6t3 6q63 63 144 96.5T500 945q89 0 170-33.5T814 815q3-2 3-6t-2.5-6q-2.5-2-6.5-2t-6 2zM702 278L435 544q-5 6 0 13 4 2 7 2t5-2l267-267q3-3 3-6.5t-2.5-6Q712 275 708 275t-6 3zM190 718h1q5 0 6-3l119-119q49-11 84.5-46.5T447 466l267-268q3-3 3-7l-1-1q-1-4-3-5-74-50-164-62-87-11-171 17t-147 91q-21 21-34 39-19-12-39-18-29-9-57-2-5 1-7 7v2q-3 25-1 46 4 39 26 58-13 32-13 64.5t13 65.5q-1 59 16 116.5T184 714q1 2 5 3l1 1zm70-90l-7-30q16 2 26 2h9l-28 28zm19-45q-42 0-78-21t-57-56.5Q123 470 123 428t21-78q21-36 57-57t78-21q42 0 77.5 21t56.5 57q21 36 21 78t-21 77.5Q392 541 356.5 562T279 583zm152-236q-21-40-58-64 14-9 31-14 23-6 44-3 4 59-17 81zm7 16q18-14 25-45 19-11 46-20 46-14 94-13L451 437v-9q0-33-13-65zM243 244q59-60 139-87 77-27 159.5-18T695 193l-75 75q-83-4-155 29 2-17-1-37v-3q-2-6-7-7-30-7-63 4-20 7-38 20-36-19-77-19-24 0-56 9 4-5 13-13l7-7zm-133 22q37-6 75 17-39 26-58 64-21-23-17-81zm124 328l12 48-54 54q-47-76-55-170 18 25 42.5 43t54.5 25z"/></svg>