<svg viewBox="0 0 1244 1083.753" xmlns="http://www.w3.org/2000/svg"><path d="M750 501q-38 0-71 10l21-160q-1-28-11.5-52.5T658 255l5-15q7-19-1-38t-27-27l-58-22 5-29q5-20-7.5-37.5T542 66l-82-14q-4-1-10-1 0-21-15-35.5T400 1h-84q-20 0-35 14.5T266 51v12l-71 7q-19 1-34 18-13 16-11 36l3 34-49 9q-21 4-32.5 21.5T64 226l1 8Q0 287 0 351q0 3 4 29l76 577q2 19 16.5 31.5T130 1001q25-2 45-17 34-19 65-24 54-11 110-9 56-2 110 9 35 8 65 24 20 15 45 17 17 0 31-10.5t18-26.5q68 41 147.5 36t141-55q61.5-50 83-126T986 668q-26-75-91-121t-145-46zm-85-166q-26 3-42 11l21-56q16 19 21 45zm-33-107l-56 147q-17 16-30 34-38 57-136 71l114-294q1-6 8-9t13 0l78 30q6 2 9 8.5t0 12.5zM350 484q-24 0-50-3V251q0-7 5-12t12-5h83q7 0 12 5t5 12v119l-44 113q-7 1-23 1zM454 85l82 14q7 2 10.5 6.5T550 118l-5 25q-17-3-32 5.5T492 174l-42 110v-33q0-16-9.5-29T416 204l18-106q2-8 8.5-11t11.5-2zM317 34h83q7 0 12 5t5 12v14q-12 10-15 28l-19 108h-42l-9-93q-1-14-9.5-25.5T300 66V51q0-7 5-12t12-5zm-130 75q4-4 11-6l85-7q7 0 11.5 4t4.5 11l9 91q-18 3-29.5 17T267 251v61l-23-120q-1-10-8-20-8-12-22-17.5t-28-3.5l-3-30q0-8 4-12zm-77 91l82-15q5-2 9.5.5t6.5 6.5q3 1 3 6l52 277q-75-16-109-66-13-20-28-32l-26-140-3-17q-1-7 2.5-12.5T110 200zm-37 72l14 79q-23-13-52-16 4-18 14-34.5T73 272zm514 681q-1 6-5.5 10.5T570 968q-16-3-28-12-32-19-75-29-57-11-117-9-58-2-117 9-39 7-75 29-12 9-28 12-7 0-11.5-4.5T113 953L36 369q28 5 51.5 20t38.5 38q26 39 72 61 60 30 152 30 13 0 35-2 133-10 189-89 15-23 38.5-38t51.5-20l-20 156q-58 27-96 78.5T502 718q-8 63 15 123t72 101l-2 11zm163 15q-59 0-109-29t-79-79q-29-50-29-109t29-109q29-50 79-79t109-29q59 0 109 29t79 79q29 50 29 109t-29 109q-29 50-79 79t-109 29zm129-346q-5-5-12-5t-12 5L750 727 645 622q-5-5-12-4.5t-11.5 5.5q-4.5 5-4.5 11.5t5 11.5l104 105-104 105q-8 7-5 16t12 12q9 3 16-4l105-105 105 105q5 5 12 4.5t11.5-5q4.5-4.5 5-11.5t-4.5-12L774 751l105-105q5-5 5-12t-5-12zM219 862q-22 4-49 14l-52-394q0-5-3-9t-7-5q-10-3-17.5 2.5T85 486l55 416q0 8 8 12t15 1q30-14 63-21 7-1 10.5-7t2.5-13q-1-7-7-10.5t-13-1.5z"/></svg>