<svg viewBox="0 0 1244 1083.753" xmlns="http://www.w3.org/2000/svg"><path d="M345 678q-6 0-10 4.5t-4 10.5v27q0 6 4 10.5t10 4.5q6 0 10.5-4.5T360 720v-27q0-6-4.5-10.5T345 678zm0 0zm302 0q-7 0-11 4.5t-4 10.5v27q0 6 4 10.5t10.5 4.5q6.5 0 10.5-4.5t4-10.5v-27q0-6-4-10.5t-10-4.5zm0 0zm-104 29q-5-4-11-3.5t-10 5.5q-9 11-26 11t-26-11q-4-5-10-5.5t-11 3.5q-5 4-5 10.5t4 10.5q19 21 48 21t48-21q4-5 3.5-11t-4.5-10zm0 0zM15 591q29 92 84 162 73 90 184 129v49q0 29 20.5 49.5T353 1001h286q29 0 49.5-20.5T709 931v-49q109-38 184-129 72-89 98-215 5-23-8-43.5T948 468q6-20 6-40 0-41-20.5-76T878 296.5Q843 276 802 276h-9 1q12-15 28-28l13-10q16-9 21-27t-4.5-34.5q-9.5-16.5-27.5-21t-34 4.5h-1q-22 14-43 34-40 39-59 85-13-3-29-3-8 0-20 2-34-42-82-65.5T454 189q-44 0-83.5 15.5T300 248q-35-17-60-46-41-46-40-104V43q0-17-12.5-29.5T158 1h-29q-17 0-29.5 12.5T87 43v52l-1 1q-21 60-32 120-1 6 2.5 11t9.5 6q6 1 11-2.5t6-9.5q8-48 28-105l1-4h59q3 58 43 105 26 31 64 52-51 59-57 136-2 32 4 60H110q-42-73-34-187 1-6-3-10.5t-10-5q-6-.5-11 3.5t-5 10q-7 111 30 189H60q-28 0-46 22.5T1 538l1 5q8 32 13 48zM117 83V43q0-5 3.5-9t8.5-4h29q5 0 8.5 4t3.5 9v40h-53zm562 848q0 17-11.5 29T639 972H353q-17 0-28.5-12T313 931v-44h366v44zm36-643q25-59 87-101l2-2q6-3 12.5-1.5t10 7.5q3.5 6 1.5 12t-8 10l-2 1q-27 19-47 43-10 12-19 28-5 1-16 6l-6 3-15-6zm-20 23q17 6 27 13 8 5 16 0 29-18 63-18t62 16.5q28 16.5 44.5 44.5t16.5 61q0 19-6 37H542q-3-7-5-21-4-31 7.5-61t35.5-49.5q24-19.5 55-25.5t60 3zm-89-26q-30 11-54 34.5t-35.5 55Q505 406 507 439q2 18 4 26H254v-1q-4-19-4-41 0-56 27.5-103t74.5-74.5Q399 218 454 218q43 0 83 17.5t69 49.5zM36 506q9-11 24-11h871q15 0 24.5 11.5T962 532q-6 26-10 40H839q-6 0-10.5 4t-4.5 10q0 6 4.5 10.5T839 601h104q-29 83-82 143-67 78-169 113H300q-102-35-169-113-53-60-82-143h731q6 0 10.5-4.5T795 586q0-6-4.5-10t-10.5-4H40q-4-14-10-40-3-14 6-26zm0 0z"/></svg>