<svg viewBox="0 0 1244 1083.753" xmlns="http://www.w3.org/2000/svg"><path d="M117 467q14-3 26-12 13-11 18-22 8-15 24-18 13-1 26-11 5-4 6-10.5t-3-11.5q-4-5-10.5-6t-11.5 3q-6 5-13 6-14 3-26 11.5T134 418q-8 15-23 18t-27 12q-5 4-6 10.5t3.5 11.5q4.5 5 10.5 6t11-3q8-6 14-6zm871 55l-11-24q-9-19-24-34t-34-23l-43-19q-22-10-46.5-10T782 423h-1l10-41q9-39-6-77l-17-41q-11-26-32.5-44.5T686 194l-143-34q-34-8-64 3l-87 30q-22 8-40 23.5T324 253q-19 33-28 72 1-2-14-10-25-17-55-20t-57 10l-91 44q-24 11-40.5 31T15 426L4 465q-11 41 5 81l10 24q10 26 32 44.5t49 25.5q-2-1-4 20-2 18-2 25 0 26 10.5 50t29.5 41l45 39q32 30 76 30 12 0 25-3l73-17q32-8 57-33l41-44 5 10q13 28 37.5 45.5T548 824q20 4 60 6h1q31 0 57.5-15.5T708 773l24-39q5-8 11-26 29 16 59 16 15 0 23-2l76-16q27-6 48.5-23t32.5-42l6-12q12-26 12-54t-12-53zM336 301l16-34q15-32 50-45l87-29q24-8 46-2l144 34q20 5 36.5 18.5T739 276l17 42q12 28 5 56l-10 43q-4 15-12 27l-32 15q-23 11-40 32-4 4-7 10-25-11-49-11-27-2-53 6l-50 18-49-51q-19-21-46-30t-55-4l-15 3v-10q0-32-13-57l-2-6q-6-30 8-58zM48 558l-10-24q-12-31-3-60l11-40q4-19 16.5-34T92 377l91-43q20-10 42-8t40 15q22 13 34.5 34.5T312 422q0 12-1 18-20 9-31 19L136 585q-12 9-22 26-23-4-40.5-18T48 558zm339 212q-17 19-42 25l-72 16q-19 5-39 0t-35-19l-43-39q-14-13-22-30.5t-8-37.5q-1-25 10-50 8-15 21-27l143-125q13-12 28-16 22-6 35-7 20-4 39.5 3t33.5 22l45 46q-22 18-35 47l-14 34q-11 25-10 51t13 50l2 5-50 52zm318-52l-24 39q-12 21-33.5 32t-46.5 9l-50-5q-22-2-40-15.5T484 744l-21-44q-9-18-9.5-38t7.5-38l14-35q7-17 20-30t31-19l42-15q19-6 43-4 26 0 47.5 15.5T689 577l23 59q8 20 6 41.5T705 718zm255-102l-6 12q-8 18-24 30.5T895 675l-77 16q-17 4-34.5 0T753 677l-4-3q1-24-8-48l-22-60q-11-28-34-48l5-7q11-14 31-24l75-36q16-8 34-8t34 8l42 19q29 12 43 42l11 24q9 19 9 39.5t-9 40.5zM547 451q39 0 71.5-13t51-35.5Q688 380 688 353t-18.5-49q-18.5-22-51-35T547 256q-39 0-71.5 13t-51 35Q406 326 406 353t19 49.5q19 22.5 51 35.5t71 13zm0-164q44 0 76.5 19.5T656 353q0 18-15 33.5T601 411q-25 9-54 9t-54-9q-25-9-40-24.5T438 353q0-27 32.5-46.5T547 287zM285 611q13-11 19-21 3-7 9-11.5t14-6.5q15-1 26-11 5-4 6-10.5t-3-11.5q-4-5-10-6t-11 3q-6 4-14 6-29 5-45 32-8 15-23 18-17 3-26 11-6 4-7.5 10.5T222 625q4 5 10.5 6.5T244 629h1v-1q7-5 14-5 14-3 26-12zm79 44q-6 6-13 6-14 3-26 11.5T306 694q-8 15-24 18-13 1-26 11-5 4-6 10.5t3 11.5q4 5 10.5 6t11.5-3q6-5 13-6 32-7 45-32 8-15 23-18t26-11q6-4 7-10.5t-3-11.5q-4-5-10.5-6.5T364 655zm212 71q3-30-17-53-11-12-9-30 3-13-2-29-2-6-8-9t-12-1q-6 2-9 8t-.5 12q2.5 6 .5 16-3 30 17 53 11 12 9 30-2 14 3 28 1 7 7 10t12 1q6-2 9-8t1-12q-2-10-1-16zm92-52q5-30-16-54-12-14-9-30 2-14-3-28-1-6-7-9.5t-12-2q-6 1.5-9.5 7.5t-1.5 12v1q3 9 2 16-2 14 2 28.5t14 25.5q12 14 9.5 29t2.5 29q2 6 7.5 9t12 1.5q6.5-1.5 9.5-7.5t1-11.5q-2-5.5-2-16.5zm129-126q7 0 11-1 12-1 24-10 10-8 25-5 12 4 26 1 7-1 10.5-6t2.5-11.5q-1-6.5-6-10t-12-2.5q-9 0-13-1-26-7-51 9-11 8-25 5-11-4-26-1-7 1-10.5 6t-2 11.5q1.5 6.5 6.5 10t11 2.5q14 0 29 3zm110 48q-8 2-13-1-26-7-51 9-10 8-25 4.5t-26-.5q-7 1-10.5 6.5T779 626q1 6 6.5 10t12 3q6.5-1 12.5 0 8 3 16 3 18 0 35-12 11-8 24.5-4.5t27.5.5q6-1 9.5-6t2-11.5q-1.5-6.5-6.5-10t-11-2.5z"/></svg>