<svg viewBox="0 0 1244 1083.753" xmlns="http://www.w3.org/2000/svg"><path d="M984 798H16q-7 0-11.5 4.5T0 813q0 6 4.5 11t11.5 5h968q7 0 11.5-4.5t4.5-11.5q0-7-4.5-11t-11.5-4zm-640 94q6 0 10.5-4.5T359 876q0-7-4.5-11.5T344 860h-31q-7 0-11.5 4.5T297 876q0 7 4.5 11.5T313 892h31zm344 0q6 0 10.5-4.5T703 876q0-7-4.5-11.5T688 860h-32q-6 0-10.5 4.5T641 876q0 7 4.5 11.5T656 892h32zm-516 47q7 0 11.5-4.5T188 923q0-7-4.5-11.5T172 907h-31q-7 0-11.5 4.5T125 923q0 7 4.5 11.5T141 939h31zm344 0q6 0 10.5-4.5T531 923q0-7-4.5-11.5T516 907h-32q-6 0-10.5 4.5T469 923q0 7 4.5 11.5T484 939h32zm343 0q7 0 11.5-4.5T875 923q0-7-4.5-11.5T859 907h-31q-6 0-10.5 4.5T813 923q0 7 4.5 11.5T828 939h31zM16 892h31q7 0 11.5-4.5T63 876q0-7-4.5-11.5T47 860H16q-7 0-11.5 4.5T0 876q0 7 4.5 11.5T16 892zm968-32h-31q-6 0-10.5 4.5T938 876q0 7 4.5 11.5T953 892h31q7 0 11.5-4.5t4.5-11.5q0-7-4.5-11.5T984 860zm0-500h-46v-31h46q7 0 11.5-4.5t4.5-11.5q0-7-4.5-11t-11.5-4h-58q-10-10-21-14-5-27-26.5-45.5T828 220l-5-6q-7-8-16-13-12-8-26-11v-33h16q32 0 55-23t23-55V48q0-7-4.5-11.5T859 32h-31q-26 0-47 16V17q0-7-4.5-11.5T766 1q-6 0-11 4.5T750 17l-6-4q-7-5-15-8-13-4-26-4h-31q-7 0-11.5 4.5T656 17v31q0 32 23 55t55 23h16v64q-29 6-47 30-28 0-49.5 17.5T627 282h-33q-7 0-11.5 4.5T578 298q0 34 17 62.5t45.5 45.5q28.5 17 62.5 17h188q15 0 27-8.5t17-22.5h49q7 0 11.5-4.5t4.5-11.5q0-7-4.5-11.5T984 360zM828 63h16v16q0 19-13.5 33T797 126h-16v-16q0-20 14-33.5T828 63zM688 48V32h15q20 0 33.5 13.5T750 79v16h-16q-19 0-32.5-14T688 48zm21 203q5 1 9.5-1t6.5-6q9-16 25-21.5t32 0q16 5.5 25 21.5 2 4 6.5 6t8.5 1q17-2 31 6.5t19 24.5H659q5-16 19-24.5t31-6.5zm182 141H703q-34 0-60.5-22.5T611 313h280q6 0 10.5 4.5T906 329v47q0 7-4.5 11.5T891 392zm93 234h-46q-13 0-22.5 9t-9.5 22q0 13-9 22t-22 9q-7 0-11.5 4.5T859 704q0 14-9 22.5t-21.5 9q-12.5.5-22-9T797 704q0-7-4.5-11.5T781 688q-14 0-26-8t-17-20q-6-15-22-20t-29 4q-19 13-43 13h-6q-26 0-43-13-37-23-79-17v-32h15q32 0 55-23t23-55v-32q0-6-4.5-10.5T594 470h-31q-25 0-47 15v-31q0-7-4.5-11.5t-11-4.5q-6.5 0-11.5 4.5t-5 11.5q-21-16-46-16h-32q-6 0-10.5 4.5T391 454v31q0 32 23 55t55 23h15v72l-16 9q-19 13-43 13h-6q-24 0-43-13-27-18-60-18h-7q-33 0-60 18-19 13-43 13-11 0-18-1v-61h15q32 0 55-23t23-55v-32q0-6-4.5-10.5T266 470h-32q-24 0-46 15v-31q0-7-4.5-11.5T172 438q-7 0-11.5 4.5T156 454l-1-1q-20-15-46-15H78q-6 0-10.5 4.5T63 454v31q0 32 23 55t55 23h15v81q-25-18-59-18-27 0-46 7-12 5-36 22l-8 5q-5 4-6.5 10t2 11.5q3.5 5.5 10 7T24 686l8-6q21-14 30-18 14-5 35.5-5t42.5 13q27 18 60 18h6q34 0 61-18 20-13 42-13h7q22 0 43 13 26 18 60 18h6q33 0 60-18 21-13 43-13h6q24 0 43 13 27 18 61 18h6q33 0 60-18 3-2 5 2 8 18 23.5 30.5T767 718q5 23 24 36t41.5 12q22.5-1 39.5-18 12-10 17-30 21-5 35-22t14-39h46q7 0 11.5-4.5t4.5-10.5q0-6-4.5-11t-11.5-5zM563 501h15v16q0 19-14 32.5T531 563h-15v-15q0-20 14-33.5t33-13.5zm-141-16v-15h16q19 0 32.5 14t13.5 33v15h-15q-19 0-33-14t-14-33zm-188 16h16v16q0 19-14 32.5T203 563h-15v-15q0-19 13.5-33t32.5-14zM94 485v-15h15q20 0 33.5 13.5T156 517v15h-15q-19 0-33-14t-14-33zm890 485H16q-7 0-11.5 4.5T0 985q0 6 4.5 11t11.5 5h968q7 0 11.5-4.5t4.5-11.5q0-7-4.5-11t-11.5-4z"/></svg>