<svg viewBox="0 0 1244 1083.753" xmlns="http://www.w3.org/2000/svg"><path d="M945 563q2 0 4-2t2-4q0-2-2-4t-4-2q-2 0-4 2t-2 4q0 2 2 4t4 2zm20 19q6 0 6-6t-6-6q-6 0-6 6 0 2 2 4t4 2zm-20 47q-2 0-4 2t-2 4q0 6 6 6t6-6q0-6-6-6zm20 19q-2 0-4 2t-2 4q0 2 2 4t4 2q2 0 4-2t2-4q0-6-6-6zm-20 20q-2 0-4 2t-2 4q0 6 6 6t6-6q0-6-6-6zm20 19q-2 0-4 2t-2 4q0 2 2 4t4 2q2 0 4-2t2-4q0-6-6-6zm-20 20q-2 0-4 2t-2 4q0 6 6 6t6-6q0-6-6-6zm20 19q-2 0-4 2t-2 4q0 2 2 4t4 2q2 0 4-2t2-4q0-6-6-6zm-20 59q-2 0-4 2t-2 4.5q0 2.5 2 4.5t4 2q2 0 4-2t2-5q0-6-6-6zm20 19q-2 0-4 2t-2 4q0 6 6 6t6-6q0-6-6-6zm-20 20q-2 0-4 2t-2 4.5q0 2.5 2 4.5t4 2q2 0 4-2t2-4q0-2-2-4.5t-4-2.5zm20 19q-2 0-4 2t-2 4q0 6 6 6t6-6q0-6-6-6zm-20 21q-6 0-6 6 0 2 2 4t4 2q2 0 4-2t2-4q0-2-2-4t-4-2zm20 18q-2 0-4 2t-2 4.5q0 2.5 2 4.5t4 2q2 0 4-2t2-5q0-6-6-6zm-20 21q-6 0-6 6 0 2 2 4t4 2q2 0 4-2t2-4q0-2-2-4t-4-2zm20 18q-2 0-4 2t-2 4.5q0 2.5 2 4.5t4 2q2 0 4-2t2-4q0-7-6-7zm-20 21q-6 0-6 6 0 2 2 4t4 2q2 0 4-2t2-4q0-2-2-4t-4-2zm20 19q-6 0-6 6 0 2 2 4t4 2q2 0 4-2t2-4q0-6-6-6zm-59-398q2 0 4-2t2-4q0-2-2-4t-4-2q-2 0-4 2t-2 4q0 2 2 4t4 2zm20 19q6 0 6-6t-6-6q-6 0-6 6 0 2 2 4t4 2zm-20 47q-2 0-4 2t-2 4q0 6 6 6t6-6q0-6-6-6zm20 19q-2 0-4 2t-2 4q0 2 2 4t4 2q2 0 4-2t2-4q0-6-6-6zm-20 20q-2 0-4 2t-2 4q0 6 6 6t6-6q0-6-6-6zm20 19q-2 0-4 2t-2 4q0 2 2 4t4 2q2 0 4-2t2-4q0-6-6-6zm-20 20q-2 0-4 2t-2 4q0 6 6 6t6-6q0-6-6-6zm20 19q-2 0-4 2t-2 4q0 2 2 4t4 2q2 0 4-2t2-4q0-6-6-6zm-20 72q2 0 4-2t2-4.5q0-2.5-2-4.5t-4-2q-2 0-4 2t-2 4.5q0 2.5 2 4.5t4 2zm20 6q-2 0-4 2t-2 4q0 6 6 6t6-6q0-6-6-6zm-14 27q0-3-2-5t-4-2q-2 0-5 3 0-1-2-1-7 0-12 5t-5 12l1 2q-2 2-2 4 0 6 6 6h1q4 4 11 4t11.5-4.5Q915 850 915 843t-3-11v-1zm14 12q-2 0-4 2t-2 4q0 6 6 6t6-6q0-6-6-6zm-14 27q0-6-6-6t-6 6q0 2 2 4t4 2q2 0 4-2t2-4zm14 12q-2 0-4 2t-2 4.5q0 2.5 2 4.5t4 2q2 0 4-2t2-5q0-6-6-6zm0 39q-2 0-4 2t-2 4.5q0 2.5 2 4.5t4 2q2 0 4-2t2-4q0-7-6-7zm-20 21q-6 0-6 6 0 2 2 4t4 2q2 0 4-2t2-4q0-2-2-4t-4-2zm20 19q-6 0-6 6 0 2 2 4t4 2q2 0 4-2t2-4q0-6-6-6zm-39-379q6 0 6-6t-6-6q-6 0-6 6 0 2 2 4t4 2zm0 66q-2 0-4 2t-2 4q0 2 2 4t4 2q2 0 4-2t2-4q0-6-6-6zm0 39q-2 0-4 2t-2 4q0 2 2 4t4 2q2 0 4-2t2-4q0-6-6-6zm0 39q-2 0-4 2t-2 4q0 2 2 4t4 2q2 0 4-2t2-4q0-6-6-6zm0 90q6 0 6-6t-6-6q-6 0-6 6t6 6zm0 79q6 0 6-6.5t-6-6.5q-6 0-6 6 0 3 2 5t4 2zm-20 8q-6 0-6 6 0 2 2 4t4 2q2 0 4-2t2-4q0-2-2-4t-4-2zm0 39q-6 0-6 6 0 2 2 4t4 2q2 0 4-2t2-4q0-2-2-4t-4-2zm20 19q-6 0-6 6 0 2 2 4t4 2q2 0 4-2t2-4q0-6-6-6zm-39-79q-2 0-4 2t-2 4.5q0 2.5 2 4.5t4 2q2 0 4-2t2-4.5q0-2.5-2-4.5t-4-2zm-20 21q-6 0-6 6 0 2 2 4t4 2q2 0 4-2t2-4q0-2-2-4t-4-2zm20 18q-2 0-4 2t-2 4.5q0 2.5 2 4.5t4 2q2 0 4-2t2-4.5q0-2.5-2-4.5t-4-2zm-20 21q-6 0-6 6 0 2 2 4t4 2q2 0 4-2t2-4q0-2-2-4t-4-2zm20 19q-6 0-6 6 0 2 2 4t4 2q2 0 4-2t2-4q0-6-6-6zm-59-58q-6 0-6 6t6 6q6 0 6-6 0-2-2-4t-4-2zm20 18q-2 0-4 2t-2 4.5q0 2.5 2 4.5t4 2q2 0 4-2t2-4.5q0-2.5-2-4.5t-4-2zm-20 21q-6 0-6 6t6 6q6 0 6-6 0-2-2-4t-4-2zm20 19q-6 0-6 6 0 2 2 4t4 2q2 0 4-2t2-4q0-6-6-6zm-59-58q-6 0-6 6t6 6q6 0 6-6 0-2-2-4t-4-2zm20 18q-2 0-4 2t-2 4.5q0 2.5 2 4.5t4 2q2 0 4-2t2-4.5q0-2.5-2-4.5t-4-2zm-20 21q-6 0-6 6t6 6q6 0 6-6 0-2-2-4t-4-2zm20 19q-6 0-6 6 0 2 2 4t4 2q2 0 4-2t2-4q0-6-6-6zm-39-40h-1l-1 1q0-3-2.5-5.5T721 914h-8q1 0 2.5-1.5t1.5-3.5q0-6-6-6t-6 5.5q0 5.5 4 5.5h-36q2 0 3.5-1.5t1.5-3.5q0-6-6-6t-6 5.5q0 5.5 4 5.5h-36q2 0 3.5-1.5t1.5-3.5q0-6-6-6-3 0-5 1.5t-2 4q0 2.5 1.5 4t3.5 1.5h-36q2 0 3.5-1.5t1.5-3.5q0-6-6.5-6t-6.5 6q0 2 1.5 3.5t3.5 1.5h-36q4 0 4-5.5t-6-5.5q-6 0-6 6 0 2 1.5 3.5t3.5 1.5h-36q4 0 4-5.5t-6-5.5q-6 0-6 6 0 2 1.5 3.5t3.5 1.5h-36q4 0 4-5.5t-6-5.5q-6 0-6 6 0 2 1.5 3.5t2.5 1.5h-35q4 0 4-5.5t-6-5.5q-6 0-6 6 0 2 1.5 3.5t2.5 1.5h-35q1 0 2.5-1.5t1.5-3.5q0-6-6-6t-6 6q0 2 1.5 3.5t2.5 1.5h-35q1 0 2.5-1.5t1.5-3.5q0-6-6-6t-6 6q0 2 1.5 3.5t2.5 1.5h-35q1 0 2.5-1.5t1.5-3.5q0-6-6-6t-6 6q0 2 1.5 3.5t2.5 1.5h-35q1 0 2.5-1.5t1.5-3.5q0-6-6-6t-6 6q0 2 1.5 3.5t2.5 1.5h-8q-3 0-5.5 2.5T263 922l-1-1q-2 0-4 2t-2 4.5q0 2.5 2 4.5t5 2q3 0 5-4h28q2 4 5.5 4t5.5-4h28q2 4 5.5 4t5.5-4h28q2 4 5.5 4t5.5-4h28q2 4 5.5 4t5.5-4h28q2 4 5.5 4t5.5-4h28q2 4 5.5 4t5.5-4h28q2 4 5.5 4t5.5-4h28q2 4 5.5 4t5.5-4h28q2 4 5.5 4t5.5-4h28q2 4 5.5 4t5.5-4h28q2 4 5.5 4t5.5-4h24q3 0 4-1 2 5 5 5t5-2q2-2 2-4.5t-2-4.5q-2-2-4-2zm-20 21q-6 0-6 6t6 6q6 0 6-6 0-2-2-4t-4-2zm20 19q-6 0-6 6 0 2 2 4t4 2q2 0 4-2t2-4q0-6-6-6zm-59-19q-6 0-6 6t6 6q6 0 6-6 0-2-2-4t-4-2zm20 19q-6 0-6 6 0 2 2 4t4 2q2 0 4-2t2-4q0-6-6-6zm-59-19q-7 0-7 6 0 2 2 4t5 2q6 0 6-6 0-2-2-4t-4-2zm20 19q-6 0-6 6t6 6q6 0 6-6t-6-6zm-60-19q-6 0-6 6 0 2 2 4t4 2q2 0 4.5-2t2.5-4q0-2-2-4t-5-2zm21 19q-6 0-6 6t6 6q6 0 6-6t-6-6zm-60-19q-6 0-6 6 0 2 2 4t4 2q2 0 4-2t2-4q0-6-6-6zm21 19q-6 0-6 6t6 6q6 0 6-6t-6-6zm-60-19q-6 0-6 6 0 2 2 4t4 2q2 0 4-2t2-4q0-6-6-6zm21 19q-6 0-6 6t6 6q6 0 6-6t-6-6zm-60-19q-6 0-6 6 0 2 2 4t4 2q2 0 4-2t2-4q0-6-6-6zm21 19q-6 0-6 6t6 6q6 0 6-6t-6-6zm-60-19q-6 0-6 6 0 2 2 4t4 2q2 0 4-2t2-4q0-6-6-6zm21 19q-7 0-7 6 0 2 2 4t5 2q6 0 6-6t-6-6zm-60-19q-6 0-6 6 0 2 2 4t4 2q2 0 4-2t2-4q0-6-6-6zm20 19q-6 0-6 6 0 2 2 4t4 2q2 0 4.5-2t2.5-4q0-6-7-6zm-59-19q-6 0-6 6 0 2 2 4t4 2q2 0 4-2t2-4q0-2-2-4t-4-2zm20 19q-6 0-6 6 0 2 2 4t4 2q2 0 4-2t2-4q0-6-6-6zm-59-19q-6 0-6 6 0 2 2 4t4 2q2 0 4-2t2-4q0-2-2-4t-4-2zm20 19q-6 0-6 6 0 2 2 4t4 2q2 0 4-2t2-4q0-6-6-6zm-59-19q-6 0-6 6 0 2 2 4t4 2q2 0 4-2t2-4q0-2-2-4t-4-2zm20 19q-6 0-6 6 0 2 2 4t4 2q2 0 4-2t2-4q0-6-6-6zm-59-58q-6 0-6 6 0 2 2 4t4 2q2 0 4-2t2-4q0-2-2-4t-4-2zm0 39q-6 0-6 6 0 2 2 4t4 2q2 0 4-2t2-4q0-2-2-4t-4-2zm20 19q-6 0-6 6 0 2 2 4t4 2q2 0 4-2t2-4q0-6-6-6zm-59-58q-6 0-6 6 0 2 2 4t4 2q2 0 4-2t2-4q0-2-2-4t-4-2zm20 18q-2 0-4 2t-2 4.5q0 2.5 2 4.5t4 2q2 0 4-2t2-4.5q0-2.5-2-4.5t-4-2zm-20 21q-6 0-6 6 0 2 2 4t4 2q2 0 4-2t2-4q0-2-2-4t-4-2zm20 19q-6 0-6 6 0 2 2 4t4 2q2 0 4-2t2-4q0-6-6-6zm-59-58q-6 0-6 6t6 6q6 0 6-6 0-2-2-4t-4-2zm20 18q-2 0-4 2t-2 4.5q0 2.5 2 4.5t4 2q2 0 4-2t2-4.5q0-2.5-2-4.5t-4-2zm-20 21q-6 0-6 6t6 6q6 0 6-6 0-2-2-4t-4-2zm20 19q-6 0-6 6 0 2 2 4t4 2q2 0 4-2t2-4q0-6-6-6zm-59-58q-6 0-6 6t6 6q6 0 6-6 0-2-2-4t-4-2zm20 18q-2 0-4 2t-2 4.5q0 2.5 2 4.5t4 2q2 0 4-2t2-4.5q0-2.5-2-4.5t-4-2zm-20 21q-6 0-6 6t6 6q6 0 6-6 0-2-2-4t-4-2zm20 19q-6 0-6 6 0 2 2 4t4 2q2 0 4-2t2-4q0-6-6-6zm-59-58q-6 0-6 6t6 6q6 0 6-6 0-2-2-4t-4-2zm20 18q-2 0-4 2t-2 4.5q0 2.5 2 4.5t4 2q2 0 4-2t2-4.5q0-2.5-2-4.5t-4-2zm-20 21q-6 0-6 6t6 6q6 0 6-6 0-2-2-4t-4-2zm20 19q-6 0-6 6 0 2 2 4t4 2q2 0 4-2t2-4q0-6-6-6zm-59-58q-6 0-6 6t6 6q6 0 6-6 0-2-2-4t-4-2zm20 18q-2 0-4 2t-2 4.5q0 2.5 2 4.5t4 2q2 0 4-2t2-4.5q0-2.5-2-4.5t-4-2zm-20 21q-6 0-6 6t6 6q6 0 6-6 0-2-2-4t-4-2zm20 19q-6 0-6 6 0 2 2 4t4 2q2 0 4-2t2-4q0-6-6-6zm-39-40q-6 0-6 6.5t6 6.5q6 0 6-6 0-3-2-5t-4-2zm0-39q-6 0-6 6.5t6 6.5q6 0 6-7 0-2-2-4t-4-2zm39 0q-2 0-4 2t-2 4.5q0 2.5 2 4.5t4 2q2 0 4-2t2-4.5q0-2.5-2-4.5t-4-2zm39 0q-2 0-4 2t-2 4.5q0 2.5 2 4.5t4 2q2 0 4-2t2-4.5q0-2.5-2-4.5t-4-2zm39 0q-2 0-4 2t-2 4.5q0 2.5 2 4.5t4 2q2 0 4-2t2-4.5q0-2.5-2-4.5t-4-2zm39 0q-2 0-4 2t-2 4.5q0 2.5 2 4.5t4 2q2 0 4-2t2-4.5q0-2.5-2-4.5t-4-2zm39 0q-2 0-4 2t-2 4.5q0 2.5 2 4.5t4 2q2 0 4-2t2-4.5q0-2.5-2-4.5t-4-2zm33 6q0 3 2 5t4 2q2 0 4-2t2-5q0-6-6-6-2 0-4 2t-2 4zm39 0q0 3 2 5t4 2q2 0 4-2t2-5q0-6-6-6-2 0-4 2t-2 4zm39 0q0 3 2 5t4 2q2 0 4-2t2-5q0-6-6-6-2 0-4 2t-2 4zm39 0q0 3 2 5t4 2q2 0 4-2t2-5q0-6-6-6-2 0-4 2t-2 4zm39 0q0 3 2 5t4 2q2 0 4.5-2t2.5-5q0-6-7-6-2 0-4 2t-2 4zm46-6q-3 0-5 2t-2 4.5q0 2.5 2 4.5t5 2q6 0 6-7 0-2-2-4t-4-2zm39 13q2 0 4-2t2-5q0-6-6-6-2 0-4 2t-2 4q0 7 6 7zm39 0q2 0 4-2t2-5q0-6-6-6-2 0-4 2t-2 4q0 7 6 7zm39 0q2 0 4-2t2-5q0-6-6-6-2 0-4 2t-2 4q0 7 6 7zm39 0q2 0 4-2t2-5q0-6-6-6-2 0-4 2t-2 4q0 7 6 7zm39 0q2 0 4-2t2-5q0-6-6-6-2 0-4 2t-2 4q0 7 6 7zm39 0q2 0 4-2t2-5q0-6-6-6-2 0-4 2t-2 4.5q0 2.5 2 4.5t4 2zm39-13q-2 0-4 2t-2 4.5q0 2.5 2 4.5t4 2q2 0 4-2t2-4.5q0-2.5-2-4.5t-4-2zm39 0q-2 0-4 2t-2 4.5q0 2.5 2 4.5t4 2q2 0 4-2t2-4.5q0-2.5-2-4.5t-4-2zm39 0q-2 0-4 2t-2 4.5q0 2.5 2 4.5t4 2q2 0 4-2t2-4.5q0-2.5-2-4.5t-4-2zm189-164V576q0-22-15-37.5T946 523h-35Q799 418 720 401v-91q16-29 38-51l4 1q34 8 59 8 32 0 53-12 29-15 40-43 5-12 4-25t-8-23.5q-7-10.5-17.5-17.5t-23.5-8q-28-3-56 13-25 14-43 47-12 21-18 44-19 17-32 37v-98q15-30 42-59 29 8 57 8 33 0 54-12 30-17 39-43.5T908 27q-6-10-17-17t-24-9q-26-3-56 14-27 15-46 53-9 20-16 43v3q-16 16-29 36V31q0-11-8-19.5T692 3q-12 0-20.5 8.5T663 31v116q-11-18-26-33v-3q-7-23-17-43-19-38-46.5-54t-55-12Q491 6 477 27q-13 25-3.5 50t39.5 42q21 12 54 12 28 0 57-8 25 27 39 55v99q-15-21-29-34-6-23-18-44-18-33-43-47-28-16-56-13-13 1-24 8t-17.5 17.5Q469 175 468 188t4 25q11 28 39 43 23 12 54 12 25 0 59-8l4-1q20 20 35 47v96q-77 18-188 121h-66q-17-16-42-34-1-30-16-56t-40-42q12-43 21-91 17-91 22-173 2-47-4-67-4-14-13-16t-18 10q-12 17-26 62l-3 11q-7 21-10 32-2-30-4-43-6-47-15-65-7-13-16-13t-16 13q-9 18-15 65-2 14-2 21-3-7-7-21-14-45-26-62-9-12-18-10t-13 16q-6 20-4 67 5 82 22 173 8 39 20 87-29 15-46.5 44T122 494v2q-11 9-31 27H54q-22 0-37 15.5T2 576v142q0 13 6.5 25T26 762q-11 7-17.5 19T2 807v142q0 22 15 37t37 15h892q22 0 37-15t15-37V807q0-14-6.5-26T974 762q11-7 17.5-18.5T998 718zM854 192q-1-3-4-4.5t-6-1q-3 .5-19 7.5-23 10-44 25l-5 4q17-42 45-57 23-14 46-12 19 3 29.5 19t3 35.5Q892 228 867 243q-33 18-95 3 17-14 37-26 14-8 28-14l11-4q8-2 6-10zM819 28q28-14 46-11 21 3 30.5 19t1.5 34q-8 21-32 35-31 18-89 5 16-13 34-24 14-8 27-14l10-4q3-1 4.5-4t.5-6q-1-3-3.5-4.5T843 53l-2 1q-32 12-61 33-6 4-9 7 19-50 48-66zM538 68q4 0 23 10 26 13 49 32-58 13-90-5-23-14-32-35-6-19 3-34.5T521 17h6q18 0 40 11 16 10 30 30 11 17 17 36l-8-7q-27-19-60-33l-3-1q-7-2-10 5-1 3 .5 6t4.5 4zm-19 175q-24-14-32-35-8-19 2-35t30-19h6q21 0 40 12 26 14 45 57-2-1-5-4-21-15-44-25-16-7-19-7.5t-6 1q-3 1.5-4 4.5-2 8 5 10 2 0 12 4 14 6 28 14 20 12 37 26-62 15-95-3zM679 31q0-5 4-8.5t9-3.5q5 0 9 3.5t4 8.5v368q-4-1-12.5-1t-13.5 1V31zm14 383q74 0 195 109H498q121-109 195-109zM284 212q13-56 22-84 17-56 28-67 7 15 4 73-4 67-22 164-7 44-20 85l-15-6q4-36 4-86 0-54-1-79zm-55-86q7-59 16-71 9 12 16.5 71.5T269 291q0 44-3 82-7-1-21-1t-21 1q-4-50-4-82 0-98 9-165zm-47 172q-18-97-22-164-3-58 4-73 11 11 28 67 7 19 16 56-3 49-3 107 0 50 4 86l-8 3q-11-36-19-82zm63 89q39 0 69 25.5t36 63.5q-58-39-100-39-47 0-111 47 4-41 34-69t72-28zm5 65q52 0 135 71H115q83-71 135-71zm728 337v2q0 4 3 6 2 6 2 10v18q-2 0-3.5 2t-1.5 4q0 2 1.5 3.5t3.5 1.5v28q-2 0-3.5 2t-1.5 5q0 3 5 5v27q-5 2-5 6t5 6v27q-5 2-5 6t4 6q-1 12-10 20.5T951 985q-2-4-6-4t-6 4h-27q-2-4-6-4t-6 4h-27q-2-4-6-4t-6 4h-27q-2-4-6-4t-6 4h-27q-2-4-6-4t-6 4h-27q-2-4-6-4t-6 4h-27q-2-4-6-4t-6 4h-28q0-1-1.5-2.5T672 981q-2 0-4 1.5t-2 2.5h-28q0-1-1.5-2.5T633 981q-2 0-4 1.5t-2 2.5h-28q0-2-2-3t-4-1q-5 0-5 4h-28q0-2-2-3t-4-1q-5 0-5 4h-28q0-2-2-3t-4-1q-5 0-5 4h-28q-2-4-6-4t-6 4h-27q-2-4-6-4t-6 4h-27q-2-4-6-4t-6 4h-27q-2-4-6-4t-6 4h-27q-2-4-6-4t-6 4h-27q-2-4-6-4t-6 4h-27q-2-4-6-4t-6 4h-27q-2-4-6-4t-6 4h-27q-2-4-6-4t-6 4h-27q-2-4-6-4t-6 4H92q-2-4-6-4t-6 4H52q0-1-1.5-2.5t-4-1.5q-2.5 0-4.5 2-10-3-16-11 1 1 2.5 1t3.5-2q2-2 2-4 0-6-6-6-2 0-4 1.5t-2 3.5q-5-8-5-17V807q0-16 11-26.5T54 770h827v1q0 6 6 6t6-6v-1h27v1q0 6 6 6t6-6v-1h14q5 0 13 2 2 5 6 5h2q8 5 11 12zm-27-35v-2.5q0-1.5-2-3.5t-4-2q-2 0-4 2t-2 4v2h-27v-2q0-2-2-4t-4-2q-2 0-4 2t-2 4v2h-27v-4h-1v-2l-2-1-3-1q-2 0-4 2t-2 4v2H54q-15 0-26-10.5T17 718V576q0-16 11-26.5T54 539h828q0 1 1.5 2.5t3.5 1.5q4 0 6-4h28q0 1 1.5 2.5t3.5 1.5q4 0 6-4h14q15 0 26 10.5t11 26.5v14q-5 2-5 5h-27q0-2-2-3.5t-4-1.5q-2 0-4 1.5t-2 3.5h-27q0-2-2-3.5t-4-1.5q-2 0-4 1.5t-2 3.5H511q-4 0-6 2.5t-2 5.5q0 8 8 8h372q-2 2-2 4t2 4q2 2 4 2t4-2q2-2 2-4.5t-1-3.5h30q-2 2-2 4t2 4q2 2 4 2t4-2q2-2 2-4.5t-1-3.5h30q-2 2-2 4t2 4q2 2 4 2t4-2q2-2 2-4.5t-1-3.5h13v18q-5 2-5 6t5 6v27q-5 2-5 5t1.5 5q1.5 2 3.5 2v27q-5 2-5 5t1.5 5q1.5 2 3.5 2-1 13-10 23t-22 12zM100 593q-7 0-11.5 4.5T84 609q0 7 4.5 12t11.5 5q7 0 12-5t5-12q0-7-5-11.5t-12-4.5zm0 69q-7 0-11.5 5T84 679q0 7 4.5 11.5T100 695q7 0 12-4.5t5-11.5q0-7-5-12t-12-5zm799 234q-7 0-12 4.5t-5 11.5q0 3 2 7l1 3q-4 2-4 5t2 5q2 2 4 2t4-2q2-2 2-4 2 1 6 1 7 0 11.5-5t4.5-12q0-7-4.5-11.5T899 896zM673 671H302q-3 0-5.5 2t-2.5 5.5q0 3.5 2.5 5.5t5.5 2h371q8 0 8-7 0-3-2-5.5t-6-2.5zM91 835h371q3 0 5.5-2.5t2.5-6q0-3.5-2.5-5.5t-5.5-2H91q-3 0-5.5 2t-2.5 6q0 4 2.5 6t5.5 2z"/></svg>