<svg viewBox="0 0 1244 1083.753" xmlns="http://www.w3.org/2000/svg"><path d="M874 356h-65q-2-9-10-25-12-20-32.5-31.5T723 288h-19q-60 0-107 35-5 4-6 9.5t2 10.5q3 5 9.5 6t11.5-2q41-30 90-30h19q16 0 29.5 8t21 21.5q7.5 13.5 8 28.5t-6.5 29q-21 39-58.5 61.5T635 488h-8q-6 0-10 4t-4 10q0 6 4 10.5t10 4.5h8q27 0 56-8l7 11q30 51 30 112v75q0 6-4 6-3 3-7 0l-14-11q-7-5-15-5t-15 5l-14 11q-3 2-8 0-1 0-2.5-1.5T647 707v-67q0-43-14-85-2-6-8-8.5t-11.5-.5q-5.5 2-8 7.5T605 565q13 35 13 75v67q0 10 5.5 19t15 13.5Q648 744 658 743t18-7l12-9 11 9q10 7 22 7 9 0 16-3 10-4 15.5-13t5.5-20v-75q0-64-33-124h101v78q0 6 4.5 10.5T841 601q6 0 10-4.5t4-10.5v-78h19q16 0 27-11t11-27v-76q0-16-11-27t-27-11zm9 114q0 4-2.5 6.5T874 479H749q33-25 52-62 7-13 10-32h63q4 0 6.5 2.5t2.5 6.5v76zm-42 166q-6 0-10.5 4t-4.5 10v292q0 12-8.5 21t-21.5 9H560V540h2q14 0 23.5-10t9.5-23v-47l99-61q5-4 6.5-9.5T699 379q-3-5-9-6.5t-11 1.5l-84 52v-48q0-14-9.5-24T562 344H438q-14 0-23.5 10t-9.5 24v48l-84-52q-5-3-11-1.5t-9 6.5q-3 5-1.5 10.5t6.5 9.5l99 61v47q0 13 10 23t23 10h2v432H204q-13 0-21.5-9t-8.5-21V508h101q-33 60-33 124v75q0 11 5.5 20t15 13q9.5 4 20 3t18.5-7l11-9 12 9q8 7 22 7 9 0 17-4t13.5-13q5.5-9 5.5-19v-67q0-37 12-73 2-5-.5-10.5T385 549q-6-2-11.5.5T366 558q-13 38-13 82v67q0 3-1.5 4.5T349 713q-3 3-8 0l-14-11q-7-5-15-5t-15 5l-14 11q-4 3-7 0-4 0-4-6v-75q0-62 31-112l6-12q27 9 56 9h10q6 0 10-4.5t4-10.5q0-6-4-10t-10-4h-10q-44 0-81.5-22.5T225 404q-7-14-6.5-29t8.5-29q8-14 21-21.5t29-7.5h19q48 0 88 28 5 4 11 3t10-5.5q4-4.5 2.5-11T401 321q-49-33-105-33h-19q-23 0-43 11.5T202 331q-8 14-11 25h-65q-16 0-27 11t-11 27v76q0 16 11 27t27 11h19v434q0 25 17 42t42 17h592q25 0 42-17t17-42V650q0-6-4-10t-10-4zM117 470v-76q0-4 2.5-6.5t6.5-2.5h63q3 19 10 32 20 38 53 62H126q-4 0-6.5-2.5T117 470zm317 37V378q0-4 4-4h124q4 0 4 4v129q0 3-4 3H438q-4 0-4-3zm36 33h60v432h-60V540zm-89-404l91 80q11 10 28 10t28-10l91-80q22-19 25.5-48T632 35Q613 7 579 2t-59 16l-18 14q-2 2-4 0l-18-14Q455-3 421 2q-16 2-29.5 11T369 35q-17 24-13.5 53t25.5 48zm12-85q11-17 32-20 2-1 7-1 16 0 30 11l18 14q9 7 20 7t20-7l18-14q16-13 37-10t31.5 19Q617 66 615 84t-16 30l-90 80q-4 3-9 3t-9-3l-90-80q-14-12-16-30t8-33zm288 159q1 12 9.5 21t21.5 10l83 5q20 0 35.5-13t19.5-33q5-25-9.5-44T802 134l-13-1-2-13q-1-22-22-39-20-14-44-9-20 4-33 20.5T676 130l5 80zm46-110q11-2 20 4t11 19l2 16q1 9 7.5 15t15.5 8l15 1q11 1 18.5 11t5.5 20.5q-2 10.5-10 16.5t-18 5l-80-5q-4 0-4-3l-5-80q0-10 6-18t16-10zM205 246h3l80-5q13-1 21.5-10t9.5-21l5-80q1-21-12-37.5T279 72q-24-5-44 9-19 16-22 39l-2 13-13 1q-24 3-38.5 23t-9.5 43q4 20 19.5 33t35.5 13zm-22-72q8-10 19-11l15-1q9-2 15.5-8t7.5-15l2-16q2-13 10-18t16-5h5q10 2 16.5 10t5.5 18l-5 80q0 3-4 3l-80 5q-10 1-18-5t-10-16.5q-2-10.5 5-20.5z"/></svg>