<svg viewBox="0 0 1244 1083.753" xmlns="http://www.w3.org/2000/svg"><path d="M824 596H666q-22 0-38 15.5T612 650v30q0 22 16 38t38 16h158q22 0 37.5-16t15.5-38v-30q0-22-15.5-38T824 596zm24 84q0 10-7 17.5t-17 7.5H666q-10 0-17.5-7.5T641 680v-30q0-11 7.5-18t17.5-7h158q10 0 17 7.5t7 17.5v30zm0 0zM334 210H177q-22 0-38 15.5T123 264v30q0 22 16 38t38 16h157q23 0 38.5-16t15.5-38v-30q0-23-15.5-38.5T334 210zm25 84q0 10-7.5 17.5T334 319H177q-10 0-17.5-7.5T152 294v-30q0-11 7.5-18t17.5-7h157q11 0 18 7t7 18v30zm0 0zm617 172l-48-25q-13-6-27-3t-24 13v-2q1-16-8.5-28.5T843 404l-55-9q-24 0-36 20-5-12-16-20t-24-8h-47q-16 0-28 10.5T623 424l-2 11q-7-15-22-22t-31-2l-46 16q-15 4-23 17.5t-6 29.5q7 31 15 58l-3-1q-23-8-41 5l-37 27q-11 8-15 20.5t0 25.5q12 42 36 86 36 63 95 119v52q0 23 16.5 39.5T599 922h275q24 0 40.5-16.5T931 866v-55q57-114 68-266 1-14 1-41 0-13-6.5-23T976 466zm-78 6q3-4 8-5t9 1l48 24q8 3 8 12 0 11-1 17l-79-39q2-2 5-6l2-4zm-110-48q25 4 49 9 5 1 8 5t3 9.5q0 5.5-1 9.5l-74-15 3-9q2-9 12-9zm-136 4q2-11 13-11h47q5 0 9 3t4 8q2 8 2 13h-77l2-13zm-121 26l47-15q1-1 4-1 7 0 12 7 1 4 5 12l-74 25-3-13q-1-5 2-9.5t7-5.5zm376 339h-72q-6 0-10 4t-4 10.5q0 6.5 4 10.5t10 4h67v44q0 11-8.5 19t-19.5 8H599q-11 0-19-8t-8-19v-44h205q6 0 10-4t4-10.5q0-6.5-4-10.5t-10-4H563q-57-54-91-116-22-40-32-76-2-4-.5-8t5.5-6l37-27q5-5 12-2l34 13q9 4 15.5-2.5T547 552q-9-21-15-42l78-26 11 37q1 6 6 9t10.5 2q5.5-1 9-5.5t3.5-9.5q-2-32-2-47h81q0 31-1 47-1 5 3 9.5t10 5.5q6 1 10.5-3t5.5-10q2-19 8-48l79 15q-6 32-11 48-2 6 1 11.5t8.5 7q5.5 1.5 11-1t7.5-7.5q9-23 16-36l92 45q-11 135-62 240zm0 0zM1 159q11 152 68 266v54q0 23 17 40t40 17h275q23 0 39.5-17t16.5-40v-51q59-57 95-120 26-45 36-86 4-13 0-25.5T573 177l-37-27q-19-14-41-5l-3 1 2-7 6-21q3-11 7-31 2-15-6-28.5T478 40l-46-15q-15-5-29.5 1T380 46l-1 3-2-11q-1-16-13.5-26.5T335 1h-47q-13 0-24 7.5T248 28Q235 8 212 8q-12 0-35 6-14 3-20 4-16 3-25.5 15.5T123 62v3q-12-14-32-14-11 0-19 4L24 79Q13 85 6.5 95T0 117l1 42zm505 13q6-3 12 1l37 28q8 5 5 14-10 36-32 76-34 61-91 116H224q-6 0-10.5 4t-4.5 10q0 6 4.5 10.5T224 436h204v43q0 11-8 19t-19 8H126q-11 0-19-8t-8-19v-43h66q6 0 10.5-4.5T180 421q0-6-4.5-10t-10.5-4H93Q42 302 31 167l92-45q6 11 16 35 3 8 11 9t13.5-4.5Q169 156 167 148q-7-28-11-48l79-16q4 17 8 49 1 9 9 11.5t14.5-1.5q6.5-4 6.5-13-2-16-2-46h81q0 30-2 46 0 9 6 13t13.5 2q7.5-2 9.5-10l4-15q5-15 7-22l78 26q-8 25-15 42-4 9 3 16t16 3l34-13zM406 59q2-4 6.5-6.5t9.5-.5l47 16q5 2 7.5 6t1.5 9l-3 12-74-25q4-8 5-11zM275 42q1-5 4.5-8.5T288 30h47q5 0 8.5 3.5T348 42l2 13h-77l2-13zm-112 5q25-5 49-9 11 0 12 9l3 9-74 14q-1-3-1-8.5t3-9.5q3-4 8-5zM37 106q24-13 48-25 8-3 14 2 4 3 10 12v1l-79 39q-1-6-1-18 0-8 8-11zm0 0z"/></svg>