<svg viewBox="0 0 1244 1083.753" xmlns="http://www.w3.org/2000/svg"><path d="M215 430h2l112-15q6-2 10-7.5t3-11.5q-1-6-6-10t-12-3l-111 15q-7 1-11 6t-3 11.5q1 6.5 5.5 10.5t10.5 4zm738-11q-15-3-28 0l5-21q5-24-8.5-45T884 327q-16-3-32 2-3-13-9-23-15-22-37.5-26t-41.5 6.5Q745 297 737 317q-14-10-26-13-25-5-45.5 8.5T640 350l-35 156-17-27q-16-25-45.5-31.5t-55 10Q462 474 456 503.5t10 54.5l81 127q19 29 33 65-17 7-20 25l-15 68q-3 16 4.5 28t22.5 15l261 57q2 1 7 1 13 0 23-8t13-20l15-69q4-19-11-34 7-13 20-35 22-40 35-66 1-1 1-3 27-54 36-99l27-120q5-24-8.5-45T953 419zm-108-39q2-11 11.5-17t20.5-4q11 2 17 11.5t4 20.5l-5 23-53-12 5-22zm-12 54l53 11-6 28-53-11 6-28zm-67-102q2-11 12-17t20-3q13 2 17 12 7 10 4 20l-3 14-53-12 3-14zm-10 46l53 12-6 28-53-12 6-28zm-85-21q3-11 13-17.5t20-4.5q10 2 17 13 6 8 4 20l-2 8-53-11 1-8zm-8 39l53 12-6 28-54-12 7-28zm-44 392l-15 68v4l-25-5q-2 0-2-2l-1-3 15-68q2-3 4-3l25 5q0 3-1 4zm240 52l-15 69q0 3-4 3l-201-44q-2 0-2-2-1 0-1-3l15-68q0-2 1.5-3t2.5 0l201 44q2 0 3 1.5t0 2.5zm13-78q-11 17-22 39l-188-41-47-10q-14-42-41-83l-81-127q-9-14-5.5-30.5T505 484q14-9 30.5-5t25.5 18l38 60q7 8 17 6.5t13-12.5l4-20 67-5 201 181q-7 14-21 39l-8 16zm69-159q-7 31-25 74L717 498q-5-5-12-4l-65 4 10-42 69 15q1 1 3 1 6 0 10-3.5t6-9.5l5-21 53 11-5 22q-1 6 2.5 12t10.5 7l69 15-7 30q-1 7 2.5 12.5T879 554l69 15-7 34zm14-65l-53-12 6-28 53 12-6 28zm-40-72q4-9 13-13.5t18.5-2.5q9.5 2 15.5 10t6 18l-53-12zm-582-30h-2l-176 24q-7 1-11 6.5t-3 11.5q3 14 16 14h3l176-24q7-1 11-6t3-11.5q-1-6.5-6-10.5t-11-4zm313 171q-1 6 2.5 12t10.5 7l110 24h3q6 0 10-3.5t5.5-9.5q1.5-6-2-11.5T776 618l-110-24q-7-1-12.5 2.5T646 607zm-11 52q-1 7 2.5 12.5t9.5 7.5l174 38h4q5 0 9.5-3.5t6-9.5q1.5-6-2-12t-10.5-7l-174-38q-7-1-12 2.5t-7 9.5zM527 362q17-25 13-54t-27.5-47.5Q489 242 459 246t-48 28l-20 26-21-159q-5-26-23.5-40T302 90q-14 1-27 11-6-21-24.5-33.5T209 58q-23 3-38 23-7 9-11 23-13-7-32-5-25 4-40 23.5T77 166l3 22q-17-6-28-3-25 3-40 22.5T1 252l16 122q6 43 28 102l1 2q8 21 24 56l6 13q13 26 17 37-16 14-13 33l9 69q2 14 12.5 23t23.5 9q3 0 5-1l264-36q15-1 24-13t7-28l-9-69q-3-17-19-27 18-35 39-62l91-120zM347 214l-27 4-27 3-4-28 54-8 4 29zm-58-81q6-10 17-11t20 5.5q9 6.5 11 17.5l2 8-55 8-1-8q-2-12 6-20zm-34 55l-54 8-4-29 55-7 3 28zm-59-87q8-10 18.5-11t19.5 6q9 7 11 18l2 14-54 7-2-14q-1-10 5-20zm-22 137l-54 7-1-9-3-19 54-8 4 29zm-42-107q11-1 20 6t11 18l3 22-54 7-3-22q-2-11 5-20.5t18-10.5zm-76 86q10-1 18.5 4T86 235l-53 8q0-10 6.5-17t16.5-9zm-20 58l55-8 4 29-55 7-4-28zm32 170q-14-41-19-76l-4-34 70-9q7-1 11-6.5t3-11.5l-4-31 70-9q7-2 11-7t3-12l-3-21 54-8 3 22q1 6 5.5 10t10.5 4l72-10 6 42-64-9q-5-1-12 3L68 445zm264 211l-1 .5q-1 .5-2 .5l-203 28q-3 1-5-3l-9-69q0-4 3-5l204-28q2 0 3 1t1 3l10 69-1 3zm60-8q-1 0-2 1l-25 3v-3l-10-70q0-2-1-4l22-3h4q3 0 3 3l10 70q0 2-1 3zm-29-106l-49 6-190 26q-9-23-18-41l-26-56 215-165 67 10 3 21q0 5 3.5 8.5t7.5 4.5q12 3 18-6l43-56q10-14 26.5-16t29.5 7q13 9 16 28 2 16-8 29l-91 120q-31 41-47 80z"/></svg>