<svg viewBox="0 0 1244 1083.753" xmlns="http://www.w3.org/2000/svg"><path d="M983 619h-29V192q0-25-18-43t-43-18H107q-25 0-43 18t-18 43v427H17q-7 0-12 5t-5 12v219q0 7 5 11.5t12 4.5h966q7 0 12-4.5t5-11.5V636q0-7-5-12t-12-5zM80 192q0-12 8-20t19-8h786q11 0 19.5 8t8.5 20v427h-56V236q0-7-4.5-12t-11.5-5H151q-7 0-11.5 5t-4.5 12v383H80V192zm121 112v61h-33v-61h33zm-33-33v-19h33v19h-33zm33 127v61h-33v-61h33zm0 94v61h-33v-61h33zm0 94v33h-33v-33h33zm678 66v90H121v-90h758zM295 304v61h-61v-61h61zm-61-33v-19h61v19h-61zm61 127v61h-61v-61h61zm0 94v61h-61v-61h61zm0 94v33h-61v-33h61zm94-282v61h-61v-61h61zm-61-33v-19h61v19h-61zm61 127v61h-61v-61h61zm0 94v61h-61v-61h61zm0 94v33h-61v-33h61zm94-282v61h-61v-61h61zm-60-33v-19h61v19h-61zm60 127v61h-61v-61h61zm0 94v61h-61v-61h61zm0 94v33h-61v-33h61zm95-282v61h-61v-61h61zm-61-33v-19h61v19h-61zm61 127v61h-61v-61h61zm0 94v61h-61v-61h61zm0 94v33h-61v-33h61zm94-282v61h-61v-61h61zm-61-33v-19h61v19h-61zm61 127v61h-61v-61h61zm0 94v61h-61v-61h61zm0 94v33h-61v-33h61zm94-282v61h-61v-61h61zm-61-33v-19h61v19h-61zm61 127v61h-61v-61h61zm0 94v61h-61v-61h61zm0 94v33h-61v-33h61zm66-282v61h-33v-61h33zm-33-33v-19h33v19h-33zm33 127v61h-33v-61h33zm0 94v61h-33v-61h33zm0 94v33h-33v-33h33zm135 252H33V652h55v107q0 7 4.5 11.5T104 775h792q7 0 12-4.5t5-11.5V652h54v186z"/></svg>