<svg viewBox="0 0 1244 1083.753" xmlns="http://www.w3.org/2000/svg"><path d="M813 852q-65 58-145.5 89T500 972q-94 0-179.5-35.5t-152-102q-66.5-66.5-102-152T31 503q0-94 35.5-179.5t102-152q66.5-66.5 152-102T499 34q93 0 176 34 5 2 11-.5t8-8q2-5.5-.5-11T686 41Q598 5 499 5T309.5 42.5Q219 80 148 151T39.5 312.5Q2 403 2 503t37.5 190.5Q77 784 148 855t161.5 108.5Q400 1001 500 1001q92 0 178-33t155-94q4-4 4.5-10t-3.5-11q-4-5-10.5-5t-10.5 4zm147-541q-2-6-8-8t-11.5 0q-5.5 2-7.5 8t0 11q36 85 36 181 0 84-29 162.5T856 808q-4 4-3.5 10t5 10q4.5 4 10.5 4t11-5q58-67 88.5-151T998 503q0-99-38-192zm-782 11q-5-2-11 0t-9 7q-41 82-41 174 0 104 52 193 51 87 138 138 89 53 193 53t193-53q87-51 138-138 53-89 53-193 0-54-15-106-2-5-7-8t-11-2q-6 1-9 7t-1 11q13 46 13 98 0 96-48 178-47 81-128 128-82 48-178 48t-178-48q-81-47-128-128-48-82-48-178 0-85 38-161 3-5 1-11t-7-9zm434-171q1-6-2-11t-9-7q-51-14-101-14-89 0-175 42-79 42-132 113-4 5-3 10.5t6 9.5q3 3 8 3 8 0 12-6 49-66 123-103 75-39 161-39 48 0 94 12 5 2 10.5-1t7.5-9zm-81 110q1-6-3-10.5t-10-5.5h-18q-70 0-129 35t-94 94q-35 59-35 129t35 129q35 59 94 94t129 35q70 0 129-35t94-94q35-59 35-129 0-14-.5-20.5t-5-10.5q-4.5-4-10.5-3.5t-10 5.5q-4 5-3.5 11t.5 18q0 62-31 114.5T614.5 701Q562 732 500 732t-114.5-31Q333 670 302 617.5T271 503q0-62 31-114.5t83.5-83.5Q438 274 500 274q11 0 16.5.5t10-3.5q4.5-4 4.5-10zm-31 141h1q6 0 10.5-4t4.5-10.5q0-6.5-4.5-10.5t-10.5-4h-1q-35 0-65 17.5T387.5 438Q370 468 370 503t17.5 65q17.5 30 47.5 47.5t65 17.5q35 0 65-17.5t47.5-47Q630 539 630 504q0-6-4-10.5t-10-4.5q-6 0-10.5 4.5T601 504q0 27-13.5 50t-37 36.5Q527 604 500 604q-42 0-71.5-29.5T399 503q0-42 29.5-71.5T500 402zm62-124l27 81-72 75q-12 13-19 30t-6 35q0 6 4.5 10t9.5 4h1q37 0 64-27l19-18q4-5 3.5-11t-4.5-10q-4-4-10-4t-10 4l-19 19q-11 11-27 16 4-16 15-28l337-349q1-1 3-1t3 1l11 10q1 2 1 4t-1 3L614 402q-4 4-4 10t4 10.5q4 4.5 10 4.5t10-4l10-10 45 13q45 14 47 14 13 0 22-9l229-213q7-5 9.5-13t.5-17q-2-9-7-15.5t-13-9.5l-61-25q7-11 7-20-2-15-11-23l-10-11q-9-9-24-9-11 0-20 6l-26-60q-3-8-10-13.5T807 1q-8-1-16.5 2T777 12L569 245q-6 7-8 16t1 17zm304 13l-72-29 46-46 74 30-48 45zm-72 67l-68-28 46-46 70 29-48 45zm-56 51q-2 2-4 1l-67-20 37-37 66 27-32 29zm230-216q1 1 .5 2t-1.5 2l-29 27-76-30 32-33 72 29q2 1 2 3zm-283-34l30 70-45 46-29-67 44-49zm65-73l32 74-45 46-31-71 44-49zm48-54q2-2 4.5-2t2.5 3l31 71-32 33-32-75 26-30zM591 265l28-32 29 65-36 38-22-67q-1-2 1-4z"/></svg>