<svg viewBox="0 0 1244 1083.753" xmlns="http://www.w3.org/2000/svg"><path d="M715 1q-25 0-42.5 17.5T655 61v277H345V61q0-25-17.5-42.5T285 1q-25 0-42.5 17.5T225 61v337q0 25 17.5 42.5T285 458h155v136q-22 3-37.5 20T387 653v236q-7-29-31-48t-54-19q-7 0-11.5 4.5T286 838q0 7 4.5 12t11.5 5q19 0 33.5 11t19.5 28h-90q-7 0-11.5 4.5T249 910v75q0 7 4.5 11.5t11.5 4.5h470q7 0 11.5-4.5T751 985v-75q0-7-4.5-11.5T735 894H615q5-17 19.5-28t33.5-11q7 0 11.5-5t4.5-12q0-7-4.5-11.5T668 822q-30 0-55 20V653q0-22-15-39t-38-20V458h155q25 0 42.5-17.5T775 398V61q0-25-17.5-42.5T715 1zM420 722h160v48H420v-48zm0 81h160v91H420v-91zm299 124v41H281v-41h438zM580 653v36H420v-36q0-11 8-19t19-8h106q11 0 19 8t8 19zm162-255q0 11-8 19t-19 8H544q-7 0-12 5t-5 12v152h-54V442q0-7-4.5-12t-11.5-5H285q-11 0-19-8t-8-19V61q0-11 8-19t19-8q11 0 19.5 8t8.5 19v294q0 7 4.5 11.5T329 371h342q7 0 12-4.5t5-11.5V61q0-11 8-19t19-8q11 0 19 8t8 19v337z"/></svg>