<svg viewBox="0 0 1244 1083.753" xmlns="http://www.w3.org/2000/svg"><path d="M672 562q-22 0-42 8.5T594 595q-21 21-28.5 50t0 57.5Q573 731 594 752q16 16 36.5 24t41.5 8q21 0 42-8t37-24q32-32 32-79 0-22-8-42t-24-36q-33-33-79-33zm55 165q-22 22-54 22t-54.5-22Q596 705 596 673t22-54q24-22 54.5-22t54.5 22q22 24 22 55t-22 53zM323 435q47 0 79-32 21-21 28.5-50t0-57.5Q423 267 402 246t-49.5-28.5q-28.5-7.5-57.5 0T245 246q-16 16-24 36t-8 42q0 47 32 79 16 16 36 24t42 8zm-54-165q23-22 54.5-22t54 22q22.5 22 22.5 54t-22 54.5Q356 401 324 401t-54.5-22.5Q247 356 247 325t22-55zm585-123Q783 76 691.5 38.5T500 1Q400 1 308.5 38.5T146 147Q75 218 37.5 309.5T0 501q0 100 37.5 191.5T146 855q71 71 162.5 108.5T500 1001q100 0 191.5-37.5T854 855q71-71 108.5-162.5T1000 501q0-100-37.5-191.5T854 147zm-82-24q32 24 57.5 49.5T875 225q-22 11-46.5 7t-42-21.5Q769 193 765 169t7-46zM478 36q9 21 4.5 44.5T462 120q-22 22-54 22t-54.5-21.5Q331 99 331 67q73-28 147-31zM171 172q26-26 51-44 6 20 1 40t-20 35.5Q188 219 167.5 224t-40.5-1q18-25 44-51zM66 332q31 0 53.5 22t22.5 54q0 32-23 54-16 17-39 21.5T35 479q5-78 31-147zm158 544q-27-20-52.5-45.5T122 773q22-11 46-7t41.5 21.5q17.5 17.5 21.5 42t-7 46.5zm441 61q-70 26-145 29-11-22-7-46.5t21-41.5q23-23 54.5-23t53.5 23q25 25 23 59zm164-107q-26 26-53 46-8-21-3.5-43.5T793 794q16-16 38.5-20.5T875 777q-24 31-46 53zm66-82q-32-15-66.5-9.5T769 769q-25 25-31 60t9 67q-16 10-48 26-1-19-9.5-36.5T667 854q-21-22-50-29.5t-57.5 0q-28.5 7.5-50 29.5t-29 52.5Q473 937 483 966q-38-2-57-5-6-11-18-23-24-24-57.5-30.5T286 914q-12-5-34-19 18-32 13-68.5t-31-63Q208 737 171.5 732T103 744l-4-7q-11-18-15-28 12-31 5.5-64T59 589q-5-6-19-16-3-19-5-58 13 4 30 4 21 0 42-8.5t36-23.5q22-21 29.5-50t0-57.5Q165 351 143 330q-26-26-62-31 10-23 26-47 20 9 42 9 47 0 78-33 25-24 31.5-57t-7.5-64q25-15 47-26 5 37 31 63 33 33 78.5 33t78.5-33q22-22 29-50.5T514 36q26 0 58 5 8 10 16 19 16 16 36 24.5t42.5 8.5q22.5 0 41.5-9 17 8 35 20-17 32-12 68.5t31 62.5q34 32 79 32 31 0 53-14 9 15 19 34-13 31-6.5 64.5T937 409q11 11 22 18 5 28 6 57-29-10-59.5-2.5t-52.5 29q-22 21.5-29.5 50t0 57.5q7.5 29 29.5 50 27 27 68 32-16 32-26 48zm40-82q-33 2-58-23-22-22-22-54t22-54q17-17 41.5-21t46.5 7q-3 75-30 145zM582 351q21 0 42-8.5t36-23.5q33-33 33-79 0-22-8.5-42t-24-36q-15.5-16-36-24.5T582 129q-45 0-78 33-22 21-29.5 49.5t0 57Q482 297 504 319q15 15 36 23.5t42 8.5zm-54-165q10-10 24.5-16t29.5-6q15 0 29.5 6t24.5 16q22 24 22 55t-22 53q-22 22-53.5 22t-54-22Q506 272 506 240t22-54zM420 420q-22 22-29.5 50.5t0 57Q398 556 420 577q15 16 35.5 24.5T498 610q22 0 42.5-8.5T576 577q22-21 29.5-49.5t0-57q-7.5-28.5-29-50t-50-29q-28.5-7.5-57 0T420 420zm132 133q-22 22-53.5 22t-54-22.5Q422 530 422 498.5t22.5-54q22.5-22.5 54-22.5t54 22.5q22.5 22.5 22.5 54T552 553zM318 661q21-21 28.5-49.5t0-57Q339 526 318 505q-33-33-79-33-22 0-42 8.5t-36 24q-16 15.5-24.5 36T128 583q0 45 33 78t78.5 33q45.5 0 78.5-33zm-25-24q-22 22-53.5 22T185 637q-10-10-16-24.5t-6-29.5q0-15 6-29.5t16-24.5q22-22 54.5-22t54.5 22q22 22 22 53.5T293 637zm385-301q-21 22-28.5 50.5t0 57Q657 472 678 493q33 33 78.5 33t78.5-33q16-16 24-36t8-42q0-47-32-79-21-21-50-28.5t-57.5 0Q699 315 678 336zm25 25q22-23 54-23t54 22.5q22 22.5 22 53.5t-21.5 54Q790 491 757 491q-15 0-29.5-6T703 469q-22-23-22-54.5t22-53.5zM335 679q-15 16-23.5 36t-8.5 42q0 22 8.5 42.5T335 836q32 32 78.5 32t79-32.5Q525 803 525 757q0-22-8.5-42T492 679q-21-21-49.5-28.5t-57 0Q357 658 335 679zm133 132q-23 23-54 23-15 0-29.5-6T360 811q-23-21-23-53t23.5-54.5Q384 681 414 681q14 0 28.5 6t25.5 16q22 24 22 55t-22 53z"/></svg>