<svg viewBox="0 0 1244 1083.753" xmlns="http://www.w3.org/2000/svg"><path d="M379 902l-206-42q-7-1-12.5 2.5t-7 10.5q-1.5 7 2 12.5T166 893l206 43h3q6 0 11-3.5t6-10q1-6.5-2.5-12.5t-10.5-8zm38-63l-249-52q-7-1-13 2.5t-7.5 11q-1.5 7.5 2.5 13t11 6.5l249 52h3q6 0 11-3.5t6-10q1-6.5-2.5-12T417 839zM926 48q-9-27-36-40-14-7-30-7-20 0-37.5 11T796 41L676 289q-13 25-3 52L459 782q-45-22-120-46-61-20-105-29-92-18-133 47-38 62-29 134 3 34 30.5 58t74.5 34q39 8 92 13 66 8 115 8 30 0 51-3 36-4 62.5-28t33.5-59q4-22 0-44l233-482q27-10 39-35l120-248q12-26 3-54zM498 858q-3 5-1 11 4 16 1 35-5 25-23.5 41.5T431 964q-44 6-127-1-72-6-120-17-28-5-48-18-27-17-30-44.5t1-49.5q5-32 23-62 28-46 97-31.5T371 782q61 23 87 39 8 4 13 1 8-2 11-9l212-439 15 9q9 4 16 5L498 858zm274-523q-4 10-13 15.5t-20 5.5q-8 0-15-4-14-6-18.5-20t1.5-28l51-106 66 30-52 107zm67-137l-66-30 13-29 66 31-13 28zm53-111l-25 52-66-30 26-54q5-9 14-14.5t18-5.5q9 0 16 4 14 6 18.5 19.5T892 87z"/></svg>