<svg viewBox="0 0 1244 1083.753" xmlns="http://www.w3.org/2000/svg"><path d="M410 640q5 3 12 3 11 0 20-9 6-6 7.5-15t-2.5-17l-54-111q-11-22-33-32l-110-54q-8-4-17-2.5t-15.5 8q-6.5 6.5-8 15T212 442l55 111q10 21 32 33l111 54zM261 454l82 40q11 4 15 15l40 82-82-40q-10-7-14-15l-41-82zM915 1H330q-8 0-14 5.5T310 20v239q-67 5-123 41.5t-88.5 95Q66 454 66 522q0 69 33 128 32 58 88 94.5T310 786v196q0 8 6 13.5t14 5.5h585q8 0 13.5-5.5T934 982V807q0-8-5.5-14t-13.5-6q-8 0-14 6t-6 14v155H780V478q0-5 4-9t9-4h102v170q0 8 6 13.5t14 5.5q8 0 13.5-5.5T934 635V20q0-8-5.5-13.5T915 1zm-20 337H793q-5 0-9-4t-4-9V40h115v298zM349 40h301v15q0 29-14 53t-38 38q-24 14-53 14H349V40zm121 706q58-37 92-99.5T594 514q-2-66-36-124.5T468 297h77q39 0 74-13 15-6 31-14v465q0 5-4 9t-9 4H468q0-1 1-1l1-1zM106 542h23q8 0 13.5-6t5.5-14q0-8-5.5-13.5T129 503h-23q4-54 32.5-99t73.5-73.5q45-28.5 98-32.5v23q0 8 6 14t14 6q8 0 13.5-6t5.5-14v-23q54 4 99 32.5t73 73.5q28 45 33 99h-23q-8 0-14 5.5t-6 13.5q0 8 6 14t14 6h23q-5 53-33 98.5T448 714q-45 28-99 33v-23q0-8-5.5-14t-13.5-6q-8 0-14 6t-6 14v23q-53-5-98-33.5T138.5 640Q110 595 106 542zm243 341h288q5 0 9 4t4 9v66H349v-79zm444-457q-22 0-37 15t-15 37v484h-52v-66q0-22-15-37t-37-15H349v-57h288q22 0 37-15.5t15-36.5V233q0-5-3-10t-8-7q-11-6-21 2-25 21-52 29-30 11-60 11H349v-59h196q39 0 72-19.5t52.5-52.5Q689 94 689 55V40h52v285q0 22 15 37t37 15h102v49H793zm138 283q-5-7-12.5-8.5T904 703q-7 4-8.5 12t3.5 15q5 7 12.5 8.5T926 736q7-4 8.5-12.5T931 709z"/></svg>