<svg viewBox="0 0 1244 1083.753" xmlns="http://www.w3.org/2000/svg"><path d="M416 384q-7 0-11.5 4.5T400 400q0 7 4.5 11.5T416 416q7 0 12-4.5t5-11.5q0-7-5-11.5t-12-4.5zm-34-20h69q6 0 10-4t4-11q0-7-4-10.5t-10-3.5h-69q-6 0-10 4t-4 10q0 6 4 10.5t10 4.5zm167 0h69q6 0 10-4t4-11q0-7-4-10.5t-10-3.5h-69q-6 0-10 4t-4 10q0 6 4 10.5t10 4.5zm-31 184l-4 1q-14 3-28 0l-4-1q-5-2-10.5 1.5T465 559q-1 6 2 11t8 7l4 1q14 2 21 2t21-2l4-1q5-2 8-7t2-11q-1-6-6.5-9.5T518 548zm-39-52h42q2 15 12.5 25.5T560 532h47q16 0 27.5-11.5T646 493v-23q0-17-11-28t-28-11h-47q-16 0-26.5 10T521 467h-42q-2-16-12.5-26T440 431h-47q-16 0-27.5 11T354 470v23q0 16 11.5 27.5T393 532h47q16 0 26.5-10.5T479 496zm71-26q0-5 3-7.5t7-2.5h47q5 0 7.5 2.5t2.5 7.5v23q0 4-3 7t-7 3h-47q-4 0-7-3t-3-7v-23zm-167 23v-23q0-5 3-7.5t7-2.5h47q5 0 7.5 2.5t2.5 7.5v23q0 4-3 7t-7 3h-47q-4 0-7-3t-3-7zm516 445l-8-43q-6-35-25.5-65.5T817 778q-4-4-10-3t-10 6q-4 5-3 11t6 10q25 18 41 43.5t21 54.5l8 43q3 10-4.5 19.5T846 972H745l-11-49q-2-6-7-9t-10.5-2q-5.5 1-9 6t-2.5 11l10 43H515v-96q0 1 1 1 17 9 35 9 4 0 6-1 27-1 46.5-20.5T625 818q1-1 1-4.5t2.5-6.5q2.5-3 6.5-3l1-1q20-3 35-15.5t23-31.5l59 22q2 1 6 1t8-2.5q4-2.5 5.5-7.5t-1-10.5Q769 753 764 751l-153-58v-52q8-4 11-6l13-8q27-17 49-44h22q33 0 56.5-23.5T786 503v-62q15-20 15-43t-15-41v-97q0-49-24.5-90.5t-66.5-66Q653 79 604 79V68q0-28-19.5-47.5T537 1h-74q-28 0-47.5 19.5T396 68v11q-36 0-69 13.5T269 131q-4 4-4 9.5t4 10q4 4.5 10 4.5t10-4q22-20 49.5-31.5T396 108h208q41 0 76 20.5t55.5 55.5q20.5 35 20.5 76v18H653q-49 0-89-28l-33-23q-13-10-30.5-10T469 227l-33 23q-40 28-89 28H244v-18q0-36 15-67 3-5 1-11t-7-8.5q-5-2.5-11-.5t-9 7q-19 40-19 80v96q-15 20-15 42.5t15 42.5v62q0 33 23.5 56.5T294 583h22q22 27 49 44l13 8q3 2 11 6v52l-163 62q-46 17-77 54.5T109 895l-8 43q-5 24 11.5 43.5T154 1001h692q25 0 42-19 16-20 11-44zM425 68q0-16 11-27t27-11h74q16 0 27 11t11 27v11H425V68zm206 707q-15 2-24.5 12.5T596 813v2q-1 16-13 27.5T555 856q-14 2-25-5-7-5-15-6v-19q27-6 42-30l46-74 63 24q-4 11-13.5 19T631 775zm75-221h-4q20-38 20-83v-6h13q13 0 21-4v42q0 21-14.5 36T706 554zm50-218q-12-4-21-4h-13v-25h34v29zm-21 100h-13v-23h10q6 0 10.5-4t4.5-10q0-6-4.5-10.5T732 384h-10v-22h13q15 0 26 10.5t11 26.5q0 16-11 26.5T735 436zm-457 0h-13q-15 0-26-11t-11-26q0-15 11-26t26-11h13v22h-10q-6 0-10.5 4.5T253 399q0 6 4.5 10t10.5 4h10v23zm0-129v25h-13q-7 0-21 4v-29h34zm16 247q-21 0-35.5-15T244 503v-42q9 4 21 4h13v6q0 45 20 83h-4zm13-83V307h40q60 0 106-33l33-23q6-5 14-5t14 5l33 23q47 33 106 33h40v164q0 40-19.5 75T619 602l-12 8q-49 30-106.5 30T393 610l-12-8q-35-21-54.5-56T307 471zm193 198q42 0 82-14v45l-50 81q-5 8-13.5 13t-18.5 5q-10 0-18.5-5T468 781l-50-82v-44q40 14 82 14zm-102 53l45 74q15 24 42 30v19q-7 1-15 6-11 7-25 5-16-2-28-13.5T404 815v-2q-1-15-10.5-25.5T369 775q-12-2-21.5-10T334 746l64-24zM135 963q-7-8-5-20l8-43q8-40 34-71.5t64-46.5l71-26q7 18 22 31t35 16l1 1q4 0 6.5 3t2.5 6.5q0 3.5 1 4.5 2 27 21.5 46.5T443 885q22 3 41-8 1 0 1-1v96H285l10-43q1-6-2-11t-9-6q-6-1-11 2t-7 9l-11 49H154q-11 0-19-9z"/></svg>