<svg viewBox="0 0 1244 1083.753" xmlns="http://www.w3.org/2000/svg"><path d="M902 941l-16-137q-4-40-25-74t-54-57q-5-3-11-2t-9.5 6q-3.5 5-2.5 11t6 10q28 19 45.5 47.5T857 808l16 136q2 11-5.5 19.5T849 972H747l-13-147q0-6-4.5-10t-11-3.5q-6.5.5-10.5 5t-3 10.5l12 145H283l12-145q1-6-3-10.5t-10-5q-6-.5-11 3.5t-5 10l-13 147H151q-12 0-19-8.5t-5-19.5l16-136q5-44 32-78t68-50l116-44 34 22q36 22 78 22h58q40 0 78-22l34-22 101 38q5 2 11-.5t8-7.5q2-5-.5-11t-8.5-8l-98-37v-68l5-2q29-14 46-41.5t17-58.5v-99h13q27 0 46.5-19.5T801 275q0-27-19.5-47T735 208h-13v-31q0-6-4.5-10.5T707 162q-6 0-10 4.5t-4 10.5v31h-20q-4 0-7-3t-3-7v-20q0-13-7-25t-18-20l-12-7q-11-6-11-19V53q0-5 4-9t9-4q26 0 45.5 19.5T693 106v18q0 7 4 11t10 4q6 0 10.5-4t4.5-11v-18q0-40-27.5-67.5T628 11q-13 0-24 8-39-18-82-18h-44q-43 0-82 18-11-8-24-8-39 0-66.5 27.5T278 106v102h-13q-27 0-46.5 19.5T199 275q0 28 19.5 47t46.5 19h13v99q0 31 17 58.5t46 41.5l5 2v68l-114 43q-48 18-80 58.5T114 804L98 941q-1 11 2 22.5t11 19.5q8 8 18.5 13t21.5 5h698q11 0 21.5-5t18.5-13q8-8 11-19.5t2-22.5zM440 646v-59l28 14q9 5 19 6v43h-16q-18 0-31-4zm76 4v-44q7-1 16-5l28-14v59q-13 4-31 4h-13zm109-38l-34 21q-1 0-1 1v-61l35-17v56zm147-337q0 15-11 26t-26 11h-13v-23h10q6 0 10.5-4t4.5-10q0-6-4.5-10.5T732 260h-10v-22h13q15 0 26 10.5t11 26.5zM522 30q31 0 65 13-1 3-1 10v54q0 13 7 25t18 19l12 7q5 3 8 8.5t3 11.5v20q0 17 11.5 28.5T673 238h20v93h-47v-17q0-17-11-28t-28-11h-47q-16 0-26.5 10.5T521 311h-42q-2-15-12.5-25.5T440 275h-47q-16 0-27.5 11T354 314v17h-47v-93h20q16 0 27.5-11.5T366 198v-20q0-6 3-11.5t8-8.5l12-7q11-7 18-19t7-25V53q0-7-1-10 34-13 65-13h44zm95 284v23q0 4-3 7t-7 3h-47q-4 0-7-3t-3-7v-23q0-4 3-7t7-3h47q4 0 7 3t3 7zm-167 0v23q0 4-3 7t-7 3h-47q-4 0-7-3t-3-7v-23q0-4 3-7t7-3h47q4 0 7 3t3 7zM307 106q0-27 19.5-46.5T372 40q5 0 9 4t4 9v54q0 13-11 19l-12 7q-11 8-18 20t-7 25v20q0 4-3 7t-7 3h-20V106zm-42 206q-15 0-26-11t-11-26q0-15 11-26t26-11h13v22h-10q-6 0-10.5 4.5T253 275q0 6 4.5 10t10.5 4h10v23h-13zm42 128v-80h54q13 16 32 16h47q16 0 26.5-10.5T479 340h42q2 15 12.5 25.5T560 376h47q19 0 32-16h54v80q0 23-12.5 43T647 513l-128 61q-19 9-38 0l-127-61q-22-10-34.5-30T307 440zm103 133v60l-35-21v-56l35 17zm-25-383q0 6 4.5 10t10.5 4h58q6 0 10.5-4t4.5-10q0-6-4.5-10.5T458 175h-58q-6 0-10.5 4.5T385 190zm157 14h58q6 0 10.5-4t4.5-10q0-6-4.5-10.5T600 175h-58q-6 0-10.5 4.5T527 190q0 6 4.5 10t10.5 4zm-7 256q-1-6-6.5-9.5T518 449l-4 1q-14 3-28 0l-4-1q-5-2-10.5 1.5t-6.5 9q-1 5.5 2 12.5t10 8l3 1q9 3 20 3t20-3l3-1q7-1 10-8t2-12zm-142-26h54q17 0 31-8l12-8q5-3 10.5-3t9.5 3l12 8q14 8 30 8h55q6 0 10.5-4t4.5-10q0-6-4.5-10.5T607 405h-55q-8 0-15-4l-11-8q-12-8-26-8t-26 8l-12 8q-5 4-15 4h-54q-6 0-10.5 4.5T378 420q0 6 4.5 10t10.5 4z"/></svg>