<svg viewBox="0 0 1244 1083.753" xmlns="http://www.w3.org/2000/svg"><path d="M847 409h-41v-27h7q20 0 34.5-14t14.5-34v-18q0-20-14.5-34.5T813 267H187q-20 0-34 14.5T139 316v18q0 20 14 34t34 14h7v27h-41q-18 0-31 12.5T109 453v10q0 18 13 31t31 13h47q11 41 40 72.5t69 46.5l-14 65q-1 6 2.5 11.5t9.5 6.5q6 1 11-2.5t6-9.5l13-64q15 3 32 3l-12 60q-3 17 7.5 29.5T391 738h213q16 0 26.5-12.5T638 696l-12-60h5q18 0 27-2l27 136q2 5 6 8t9 3h2q6-2 9.5-6.5T714 764l-28-137q42-14 72.5-45.5T800 507h47q18 0 31-13t13-31v-10q0-19-13-31.5T847 409zm-694 69q-6 0-10-4.5t-4-10.5v-10q0-6 4-10.5t10-4.5h41v23q0 11 1 17h-42zm234 229q-2-2-1-5l13-66h56v73h-64q-1 0-3-1l-1-1zm129-71v73h-32v-73h32zm93 66q1 3-1 5l-1 1q-2 1-3 1h-59v-73h51l13 66zm22-95H370q-40 0-73.5-19.5t-53.5-53Q223 501 223 461v-79h402q6 0 10-4t4-10q0-6-4-10.5t-10-4.5H187q-7 0-13-6t-6-13v-18q0-8 5.5-13.5T187 297h626q8 0 13.5 5.5T832 316v18q0 7-5.5 13t-13.5 6H677q-6 0-10.5 4.5T662 368q0 6 4.5 10t10.5 4h100v79q0 40-19.5 73.5t-53.5 53Q670 607 631 607zm230-144q0 6-4 10.5t-10 4.5h-42q1-6 1-17v-23h41q6 0 10 4.5t4 10.5v10zM697 805q-17 0-36 7l-3-15q-2-12-11.5-20t-22.5-8H371q-13 0-22.5 8T336 797l-31 157q-1 6-7.5 9.5T285 966q-6-1-9.5-6.5T274 947l40-199q1-6-2.5-11.5T302 730q-6-1-10.5 2.5T285 742l-40 199q-4 19 6.5 34.5T280 995l9 1q14 0 25-8 15-11 20-29l31-156q2-5 6-5h84v153q0 18 13 31.5t32 13.5q19 0 32-13.5t13-31.5V798h79q5 0 5 5l6 25q-17 14-26.5 33.5T599 903q0 40 29 69t69 29q40 0 68.5-28.5T794 903q0-41-28.5-69.5T697 805zM516 951q0 6-4.5 10.5T500 966q-7 0-11.5-4.5T484 951V798h32v153zm181 21q-28 0-48.5-20.5T628 903q0-28 20-48t48.5-20q28.5 0 48.5 20t20 48q0 28-20 48.5T697 972zm0-114q-19 0-32 13.5T652 903q0 18 13 31.5t32 13.5q19 0 32-13t13-32q0-19-13.5-32T697 858zm0 61q-7 0-11.5-4.5T681 903q0-7 4.5-11t11.5-4q7 0 11 4.5t4 10.5q0 6-4.5 11t-10.5 5zM305 244q20 0 35-11.5t19-30.5h20v4q0 16 11 27t27 11h36q16 0 27.5-11t11.5-27v-4h19q5 19 20.5 30.5t35 11.5q19.5 0 34.5-11.5t19-30.5h20v4q0 16 11 27t27 11h36q16 0 27.5-11t11.5-27v-4h92q6 0 10.5-4t4.5-10q0-6-4.5-10.5T845 173h-92v-3q0-16-11.5-27.5T714 131h-36q-16 0-27 11.5T640 170v3h-20q-5-18-20-30t-34-12q-19 0-34.5 12T511 173h-19v-3q0-16-11.5-27.5T453 131h-36q-16 0-27 11.5T379 170v3h-20q-5-18-20-30t-34-12q-24 0-40.5 17T248 188q0 23 16.5 39.5T305 244zm364-74q0-4 2.5-6.5t6.5-2.5h36q4 0 6.5 2.5t2.5 6.5v36q0 4-2.5 6.5T714 215h-36q-4 0-6.5-2.5T669 206v-36zm-103-9q11 0 19 8t8 19q0 11-8 19t-19 8q-11 0-19-8t-8-19q0-11 8-19t19-8zm-158 9q0-4 2.5-6.5t6.5-2.5h36q4 0 6.5 2.5t2.5 6.5v36q0 4-2.5 6.5T453 215h-36q-4 0-6.5-2.5T408 206v-36zm-103-9q11 0 19 8t8 19q0 11-8 19t-19 8q-11 0-19.5-8t-8.5-19q0-11 8.5-19t19.5-8zm104-76l5 14q1 4 5 6.5t8 2.5q4 0 6-1 5-2 7.5-7.5T441 88l-5-13q-3-6 2-11 8-10 9.5-22T444 19l-5-10q-2-5-8-7t-12 0q-6 2-7.5 8.5T413 22l5 10q3 7-2 12-8 9-9.5 20t2.5 21zm73 0l5 14q3 9 14 9 3 0 5-1 5-2 7.5-7.5T514 88l-5-13q-2-7 2-11 8-10 9.5-22T517 19l-5-10q-2-5-8-7t-11.5.5Q487 5 485 11t1 11l5 10q3 7-2 12-8 9-9.5 20t2.5 21zm73 0l5 14q3 9 14 9 3 0 5-1 5-2 7.5-7.5T587 88l-5-13q-2-7 2-11 8-10 9.5-22T590 19l-5-10q-2-5-8-7t-11.5.5Q560 5 558 11t1 11l5 10q3 7-2 12-8 9-9.5 20t2.5 21z"/></svg>