<svg viewBox="0 0 1244 1083.753" xmlns="http://www.w3.org/2000/svg"><path d="M929 353h-61v-8q0-12-9-21t-22-9H717q-6 0-10 4t-4 11q0 7 4 10.5t10 3.5h120l2 1v264q0 6 4 10t10 4q6 0 10.5-4t4.5-10V382h61q2 0 3 1t1 3v523q0 25-18 43.5T871 971H129q-25 0-43.5-18.5T67 909V386q0-2 1.5-3t2.5-1h63v513q0 16 11 27t27 11h658q16 0 27-11t11-27V671q0-6-4.5-10t-10.5-4q-6 0-10 4t-4 10v137H596q-23 0-43.5 9.5T516 843V663h29q32 0 55.5-23t23.5-56v-71q0-14-10.5-24.5T589 478h-76v-16h20q23 0 39.5-16.5T589 406v-15q0-10-7-17t-17-7h-26q-12 0-26 7v-51l74 39q6 3 13 3 10 0 16-5 13-9 11-27l-17-97 71-70q5-5 7-13t0-15q-2-7-8-12t-14-6l-99-15-44-89q-3-7-9.5-11t-14-4Q492 1 485 5t-11 11l-44 89-18 3q-6 1-9.5 6t-2 11q1.5 6 5.5 9.5t10 2.5l20-3q13-1 20-15l43-86 43 86q7 14 20 15l96 14-69 67q-11 11-8 24l16 96-85-45q-6-4-13-4t-13 4l-85 45 16-96q3-13-8-24l-69-67 14-2q6-1 10-6t3-11q-1-6-6-9.5t-11-2.5l-18 3q-8 1-14 6t-8 12.5q-2 7.5-.5 15T317 166l71 70-17 97q-2 18 11 27 7 5 14.5 5.5T411 362l72-38v50q-14-7-26-7h-26q-10 0-17 7t-7 17v15q0 23 16.5 39.5T463 462h20v16h-76q-14 0-24.5 10.5T372 513v71q0 33 23.5 56t55.5 23h35v180q-16-16-36.5-25.5T406 808h-99q-6 0-10 4.5t-4 10.5q0 6 4 10t10 4h99q30 0 52 19t27 48H172q-4 0-6.5-2.5T163 895v-58h82q6 0 10.5-4t4.5-10q0-6-4.5-10.5T245 808h-82V345l2-1h120q6 0 10-4t4-10q0-6-4-10.5t-10-4.5H165q-13 0-22 9t-9 21v8H71q-14 0-24 9.5T37 386v523q0 38 27 65t65 27h742q38 0 64.5-27t26.5-65V386q0-14-9.5-23.5T929 353zM596 837h243v58q0 4-2.5 6.5T830 904H517q5-29 27-48t52-19zm-83-414q0-11 8-18.5t18-7.5h21v9q0 11-8 18.5t-19 7.5h-20v-9zm-50 9q-11 0-19-7.5t-8-18.5v-9h21q11 0 18.5 7.5T483 423v9h-20zm-12 202q-20 0-34.5-14.5T402 584v-71q0-5 5-5h182q5 0 5 5v71q0 21-14.5 35.5T545 634h-94zM751 93q6 0 11-5l33-35q4-4 4-10t-4.5-10.5Q790 28 784 28t-10 5l-33 35q-4 4-4 10.5t4 10.5q4 4 10 4zm2 90q0 6 4.5 10.5T768 198h34q6 0 10.5-4.5T817 183q0-6-4.5-10t-10.5-4h-34q-6 0-10.5 4t-4.5 10zM236 88q5 5 11 5t10-4q4-4 4-10.5T257 68l-33-35q-4-5-10-5t-10.5 4.5Q199 37 199 43t4 10l33 35zm-40 110h34q6 0 10.5-4.5T245 183q0-6-4.5-10t-10.5-4h-34q-7 0-11 4t-4 10q0 6 4 10.5t11 4.5zm600 290H681q-6 0-10.5 4t-4.5 10q0 6 4.5 10.5T681 517h115q6 0 10-4.5t4-10.5q0-6-4-10t-10-4zm0 74H681q-6 0-10.5 4.5T666 577q0 6 4.5 10t10.5 4h115q6 0 10-4t4-10q0-6-4-10.5t-10-4.5zm0 74H656q-6 0-10.5 4.5T641 651q0 6 4.5 10.5T656 666h140q6 0 10-4.5t4-10.5q0-6-4-10.5t-10-4.5zm0 75H593q-6 0-10 4t-4 10q0 6 4 10.5t10 4.5h203q6 0 10-4.5t4-10.5q0-6-4-10t-10-4zM321 488H206q-6 0-10.5 4t-4.5 10q0 6 4.5 10.5T206 517h115q6 0 10.5-4.5T336 502q0-6-4.5-10t-10.5-4zM206 591h115q6 0 10.5-4t4.5-10q0-6-4.5-10.5T321 562H206q-6 0-10.5 4.5T191 577q0 6 4.5 10t10.5 4zm140 45H206q-6 0-10.5 4.5T191 651q0 6 4.5 10.5T206 666h140q6 0 10.5-4.5T361 651q0-6-4.5-10.5T346 636zm-155 89q0 6 4.5 10.5T206 740h203q6 0 10-4.5t4-10.5q0-6-4-10t-10-4H206q-6 0-10.5 4t-4.5 10z"/></svg>