<svg viewBox="0 0 1244 1083.753" xmlns="http://www.w3.org/2000/svg"><path d="M935 804h-6V336q0-14-10-24t-24-10h-21q43-48 72-89l10 7q6 4 13 5t13.5-2q6.5-3 10-9t3.5-13l3-105q2-13-9-20.5T966 71l-99 34q-16 5-17.5 20t10.5 24l16 12-11 13q-23 30-35 44-4 4-3.5 10.5t5 10.5q4.5 4 10.5 3.5t11-5.5q33-40 55-71 4-4 3-10t-6-10l-22-16 87-29-3 91-15-11q-5-5-11.5-3t-9.5 6q-72 101-167 183.5T559 507q-110 57-232 86.5T80 623H44q-6 0-10.5-4.5T29 608q0-6 4.5-10t10.5-4h36q205 0 398-82 187-79 332-228 4-4 4-10t-4.5-10.5q-4.5-4.5-10.5-4t-10 4.5q-53 55-118 104H554q-14 0-24 10t-10 24v59l-11 5q-19 9-29 13v-20q0-14-10-24t-24-10H330q-14 0-24 10t-10 24v82l-40 8v-44q0-14-10-24t-24-10H105q-14 0-24 10t-10 24v59H44q-18 0-31 13T0 608q0 18 13 31t31 13h27v152h-8q-25 0-43.5 18T1 866v40q0 10 7.5 17.5T27 931h945q11 0 18-7.5t7-17.5v-40q0-26-18-44t-44-18zM549 402q0-5 5-5h76q-47 31-81 49v-44zm-224 57q0-5 5-5h116q5 0 5 5v33q-61 25-126 42v-75zm-220 42h117q2 0 3.5 1.5t1.5 2.5v49q-59 8-127 10v-59q0-4 5-4zm741-170h49q5 0 5 5v468H774V398q31-26 72-67zM572 533q53-28 104-61v156q0 6 4 10.5t10 4.5q6 0 10.5-4.5T705 628V452l40-30v382h-40V690q0-6-4.5-10t-10.5-4q-6 0-10 4t-4 10v114H549V544q11-4 23-11zm-247 91q61-14 126-38v218H325V624zm155-49l15-6 25-11v246h-40V575zm-380 77q68-2 127-10v49q0 6 4 10t10 4q6 0 10.5-4t4.5-10v-53l40-8v174h-40v-51q0-6-4.5-10t-10.5-4q-6 0-10 4t-4 10v51H100V652zm868 250H31v-36q0-14 9.5-23.5T63 833h872q14 0 23.5 9.5T968 866v36z"/></svg>