<svg viewBox="0 0 1244 1083.753" xmlns="http://www.w3.org/2000/svg"><path d="M206 690q-4-5-10.5-5t-11.5 4.5q-5 4.5-5 11t5 11.5l105 105q4 5 11 5 11 0 14.5-10t-3.5-17L206 690zm790-527l-16-15q21-20 16-49l-3-14q-5-27-8.5-34T966 29l-2-2q-10-12-27-15l-35-7q-29-5-49 16L838 6q-5-5-11.5-5t-11 4.5q-4.5 4.5-4.5 11t4 11.5l16 15-31 30-15-15q-4-5-10.5-5t-11 4.5q-4.5 4.5-4.5 11t4 11.5l17 17q-8 14-6 29L556 344l-45-32q-30-22-67-28t-72.5 5Q336 300 309 327q-15 16-25 34-6 11-15 34l-3 8q-13 34-42.5 55.5T158 483q-53 5-93 37.5T8.5 602Q-8 651 6 702q17 60 61 104l128 128q45 45 104 61 51 14 100-2.5t81.5-56.5q32.5-40 37.5-93 4-36 25-65t55-42l23-10q46-18 72.5-58.5t26-89Q719 530 689 490l-32-45 218-218q15 2 29-6l17 17q5 5 11 5 11 0 14.5-10t-3.5-17l-15-15 30-31 15 16q4 4 11 4 10 0 14.5-9.5T996 163zM896 36q5 1 13 3 19 3 24 4.5t9 5.5l6 5q7 8 9 12t5 23l3 16q3 11-6 20l-65 65q-6 6-15 6t-15-6l-53-53q-6-6-6-15t6-15l65-65q4-4 9.5-5.5T896 36zM664 508q21 28 23.5 62t-12 65Q661 666 632 686q-10 6-30 15l-15 6q-42 17-69 52.5T487 839q-4 44-31 77t-67 46.5q-40 13.5-81 2.5-52-14-91-53L89 784q-38-38-53-91-11-42 2.5-82t46-66.5Q117 518 161 514t80.5-30.5Q278 457 295 414l4-11q7-19 12-27 8-15 20-26 33-33 79-36.5t83 23.5l40 30-104 104q-31-6-61 3t-53 32q-25 25-33.5 57.5t0 65Q290 661 315 686t57.5 33.5q32.5 8.5 65.5 0t56.5-32.5q23.5-24 32.5-54t3-61l104-104 30 40zm-163 88q0 40-28 68t-68 28q-40 0-68-28t-28-68q0-40 28-68t68-28q40 0 68 28t28 68zm18-57q-18-39-57-57l325-325 57 57-325 325z"/></svg>