<svg viewBox="0 0 1244 1083.753" xmlns="http://www.w3.org/2000/svg"><path d="M1000 351q0-73-29-140T889 95q-68-62-156.5-84T556 14q-88 25-152.5 89T314 255q-9 27-12 65 0 1-1 2v12h-34v-33q0-18-12-32t-30-17q-18-3-33.5 6T170 284H67q-28 0-47.5 19.5T0 351q0 28 19.5 47.5T67 418h103q6 17 21.5 26t33.5 6q18-3 30-17t12-32v-33h33v1q0 2 1 3 3 58 26 112H158q-31 0-53 22t-21.5 53q.5 31 22 53t52.5 22h287q59 43 129.5 58.5t141.5 2Q787 681 847 640l20 1q42 1 70.5 30t29 70.5Q967 783 937 813q-14 14-33 22t-38 8H417v-58q0-23-15.5-40T363 726q-23-2-41 13t-21 37H83q-34 0-58.5 24.5T0 859.5q0 34.5 24.5 59T83 943h218q3 23 21 37t40.5 13q22.5-1 38.5-18t16-40v-59h448q27 0 51.5-10t44-29.5q19.5-19.5 29.5-44t10-50.5q0-50-32.5-87.5T886 609q55-49 84.5-116.5T1000 351zm-967 0q0-14 10-23.5t24-9.5h100v66H67q-14 0-24-9.5T33 351zm200 50q0 7-4.5 12t-11.5 5q-7 0-12-5t-5-12V301q0-7 5-12t12-5q7 0 11.5 5t4.5 12v100zM33 860q0-21 15-35.5T83 810h217v100H83q-20 0-35-15t-15-35zm350 75q0 10-7 17.5t-17.5 7.5q-10.5 0-18-7.5T333 935V785q0-10 7.5-17.5T358 760q10 0 17.5 7.5T383 785v150zm573-665q-34 34-82 45-18 4-25.5 5.5t-11.5 6q-4 4.5-3.5 11.5t5 11.5Q843 354 850 354q2 0 3-1 15-2 30-6 46-11 81-39 3 21 3 43 0 30-6 60-9 12-23 24-53 41-144.5 48T605 459q-90-28-157.5-78T352 272l-5-12q18-60 57-108 16 36 46 68 83 83 195 115 39 13 86 19h2q7 0 11.5-4.5t5.5-11q1-6.5-3.5-11.5t-10.5-6q-35-4-81-18-106-31-181-106-30-32-44-73 48-47 109-69-6 30 11 60.5t52 56.5q35 26 81 40 37 12 83 13t81-16q40-20 49-57 43 50 60 118zm-93-153q5 14 0 30 0 2-1 3-17 42-86 42-36 0-80-10l-3-1q-38-12-67.5-32.5t-44-45Q567 79 572 57l1-1q2-8 7-13 35-9 70-9 60 0 115 21.5t98 61.5zM129 589q-12-12-12-29.5t12-29.5q12-12 29-12h185q23 45 63 83H158q-15 0-29-12zm236-101q39 40 88 70 8 5 16.5 0t8.5-14.5q0-9.5-8-14.5-68-41-102-85-27-35-33-73-3-22 1-55v-4q35 58 103.5 105.5T594 491q83 25 168 27 47 2 93.5-10t86.5-36q-3 9-13 27v2q-17 29-33 49-47 42-134 49.5T580 578q-4-2-6-2l-2-1q-10-3-17 3t-5 15.5q2 9.5 11 13.5h2l8 3q80 24 156 24 37 0 80-8-57 33-122.5 40T556 653.5q-63-19.5-112.5-63T365 488zm330-388l50 17q7 2 13-1t8-10q2-7-1-13t-10-8l-50-16q-6-2-12.5.5T684 79q-2 7 1 13t10 8z"/></svg>