<svg viewBox="0 0 1244 1083.753" xmlns="http://www.w3.org/2000/svg"><path d="M405 501q0 39 28 67t67 28q39 0 67-28t28-67q0-39-28-67t-67-28q-39 0-67 28t-28 67zm160 0q0 27-19 46t-46 19q-27 0-46-19t-19-46q0-27 19-46t46-19q27 0 46 19t19 46zm0 0zm-253 0q0 51 25.5 94t68.5 68.5q43 25.5 94 25.5t94.5-25.5q43.5-25.5 69-68.5t25.5-94q0-51-25.5-94.5t-69-69Q551 312 500 312t-94 25.5q-43 25.5-68.5 69T312 501zm347 0q0 43-21.5 79.5t-58 58Q543 660 500 660t-79.5-21.5q-36.5-21.5-58-58T341 501q0-43 21.5-79.5t58-58Q457 342 500 342t79.5 21.5q36.5 21.5 58 58T659 501zm0 0zm176 330q-67 68-153.5 104.5t-181 36.5Q406 972 320 936.5T167 834q-67-67-102.5-153T29 501q0-83 28.5-161T140 198q4-4 3.5-10t-5-10q-4.5-4-11-4t-10.5 5q-56 68-86.5 151T0 501q0 100 37.5 191.5T146 855q71 71 162.5 108.5t192 37.5q100.5 0 192.5-38.5T856 852q5-5 5-11t-4.5-10q-4.5-4-10.5-4t-11 4zm0 0zm58-475q-26-68-75-124.5T705 139q-18-11-38.5-5T636 159l-28 50q-10 18-4.5 38t23.5 30q40 22 70 56t47 76q7 18 24.5 26.5T805 439l55-16q21-6 31-26t2-41zm-28 28q-3 8-13 11l-55 16q-8 2-15.5-1.5T771 398q-19-46-52-83.5T642 252q-8-5-10-13.5t2-15.5l27-50q4-7 12.5-10t16.5 1q60 35 105.5 87T866 367q3 10-1 17zm0 0zM256 592q-8-17-25-25.5t-36-3.5l-55 16q-21 6-31 26t-2 41q26 68 74.5 124T295 863q18 11 38.5 5t30.5-25l28-50q10-18 4.5-38T373 724q-40-22-70-56t-47-76zm83 237q-5 8-13.5 10t-15.5-2q-60-34-105.5-86T134 635q-4-9 .5-17.5T148 607l56-16q7-2 14.5 1.5T229 604q19 46 52 83.5t77 62.5q7 4 10 12.5t-1 16.5l-28 50zm0 0zM500 1q-95 0-183 35T159 136q-5 4-5 10t4.5 10.5Q163 161 169 161t10-4q65-61 148-94t173-33q94 0 180 35.5T833 168q67 67 102.5 153T971 501q0 79-25 152.5T873 789q-4 4-3.5 10t5.5 10q5 4 11 3.5t10-5.5q51-67 77.5-144.5T1000 501q0-100-37.5-191.5T854 147Q783 76 691.5 38.5T500 1zm0 0zM364 159q-10-19-30.5-25t-38.5 5q-64 36-113 92.5T107 356q-8 21 2 41t31 26l55 16q19 5 36.5-3.5T256 409q17-42 47-76t70-56q18-10 23.5-30t-4.5-38l-28-50zm-6 93q-44 25-77 62.5T229 398q-3 8-10.5 11.5T204 411l-56-16q-9-2-13.5-11t-.5-17q25-64 70.5-116T310 164q8-4 16.5-1t12.5 10l28 50q4 8 1 16.5T358 252zm0 0zm502 327l-55-16q-19-5-36 3.5T744 592q-17 42-47 76t-70 56q-18 10-23.5 30.5T608 793l28 50q10 18 30.5 24t38.5-4q65-37 113.5-93T893 646q8-21-2-41t-31-26zm6 56q-25 64-70.5 116T690 837q-7 4-15.5 2T661 829l-27-50q-4-7-2-15.5t10-13.5q44-25 77-62.5t52-83.5q3-8 10.5-11.5T797 591l55 16q9 2 13.5 10.5t.5 17.5zm0 0z"/></svg>