<svg viewBox="0 0 1244 1083.753" xmlns="http://www.w3.org/2000/svg"><path d="M1000 859q0-22-14-38t-36-19q0-10-4-17L819 560q-7-12-18-18.5t-25-6.5H224q-14 0-25 6.5T181 560L54 785q-4 7-4 17-16 2-29 12.5T3 841q-5 16-1 32.5T18 901Q5 914 1 931.5T4 965q7 16 22 26t32 10h267q18 0 32.5-10t21.5-26.5q7-16.5 3.5-33.5T366 901q22-22 16-53-2-14-11-25.5T348 805l40-71h225l40 71q-13 6-22.5 17.5T618 848q-3 14 1.5 28.5T634 901q-13 12-16.5 29.5t3.5 34q7 16.5 21.5 26.5t32.5 10h267q17 0 32-10t22-26.5q7-16.5 3.5-34T983 901q17-17 17-42zM715 568l-35 43q-5 7-13 7H333q-6 0-13-7l-35-43h430zm-505 8q5-8 14-8h19l51 64q16 19 39 19h334q23 0 39-19l51-64h19q9 0 14 8l70 125H140l70-125zm140 367q0 10-7 17.5t-18 7.5H58q-10 0-17.5-7.5T33 943q0-10 7.5-17.5T58 918h267q11 0 18 7t7 18zm-25-59H58q-10 0-17.5-7.5T33 859q0-10 7.5-17.5T58 834h267q11 0 18 7t7 17.5q0 10.5-7 18t-18 7.5zm-13-83H83l38-67h228l-37 67zm567-67l38 67H688l-37-67h228zm88 209q0 10-7 17.5t-18 7.5H675q-10 0-17.5-7.5t-7.5-18q0-10.5 7.5-17.5t17.5-7h267q11 0 18 7t7 18zm-292-59q-10 0-17.5-7.5t-7.5-18q0-10.5 7.5-17.5t17.5-7h267q11 0 18 7t7 17.5q0 10.5-7 18t-18 7.5H675zm-175-50q51 0 99-12 4-1 7.5-4t4.5-7q3-9-4-16.5t-16-4.5q-91 23-182 0-7-2-13 1.5t-8 10.5q-2 7 1.5 13t10.5 7q50 12 100 12zm-65-726q7-1 10.5-7t2-13q-1.5-7-7-10.5T428 75q-80 17-143 67t-99 122q-36 72-36 154 0 7 5 11.5t12 4.5q7 0 11.5-4.5T183 418q0-74 32.5-139.5t90-110.5Q363 123 435 108zm65-40q7 0 12 4.5t5 11.5q0 7-5 12t-12 5q-7 0-12-5t-5-12q0-7 5-11.5t12-4.5zm416 320q-5-74-36-142t-84-121q0-1-1-1-59-59-135.5-91T500.5.5Q418 0 341 32t-135.5 90.5Q147 181 115 257.5T83 418q0 73 26 143 2 7 8.5 10t12.5 1q6-2 9.5-8.5T141 551q-24-65-24-134 0-73 27-140v-1q29-73 85-129 72-73 170-100 95-26 191-2 99 24 173 94-10 10-43 20-36 11-89 17-60 8-130 8t-141-9q-7-1-12 3t-6.5 11q-1.5 7 3 12.5T356 208q72 9 144 9 87 0 161-11 94-15 125-44 42 48 65 103-36 22-126 36-98 16-225 16-117 1-243-19-10-2-16 5t-3 16.5q3 9.5 13 11.5 117 20 249 20 121 0 219-15t144-40q14 41 19 90-8 14-53 28-51 16-129 26-91 11-200 11-132 2-263-21-7-2-12.5 2t-6.5 11q-1 7 2.5 12.5T231 463q134 23 269 21 120 0 222-14 112-15 161-43-1 64-24 124-1 2-1 7t4 9.5q4 4.5 10 5.5t11.5-2q5.5-3 6.5-9 26-66 26-144 0-20-1-29l1-1z"/></svg>