<svg viewBox="0 0 1244 1083.753" xmlns="http://www.w3.org/2000/svg"><path d="M379 493v-24q0-6-4.5-10.5T364 454q-6 0-10.5 4.5T349 469v24q0 6 4.5 10.5T364 508q6 0 10.5-4.5T379 493zm0 0zm269 0v-24q0-6-4-10.5t-10.5-4.5q-6.5 0-10.5 4.5t-4 10.5v24q0 6 4 10.5t10.5 4.5q6.5 0 10.5-4.5t4-10.5zm0 0zm-149 28q27 0 44-20 4-5 3.5-10.5T542 481q-4-4-10.5-4t-10.5 4.5q-4 4.5-10 7.5t-12 3q-14 0-22-10-5-5-11-5t-10.5 4q-4.5 4-5 10t3.5 10q8 10 20 15t25 5zm0 0zM376 201q47 0 47-45v-20q0-9-9-9h-32q-4 0-6.5 3t-2.5 8q0 5 2.5 8t6.5 3h12v7q0 19-17.5 19T359 156v-51q0-19 18-19 10 0 14 5 2 3 3 10v2q0 9 14 9 9 0 12-2.5t3-11.5q0-18-13.5-28t-34-10q-20.5 0-33 11T330 105v51q0 23 12.5 34t33.5 11zm0 0zm93-61q1 1 1 3v48q0 4 4.5 6.5T485 200q6 0 10.5-2.5t4.5-6.5v-51l40-65v-2q0-5-7-9t-13-4q-6 0-9 6l-26 49-27-49q-3-6-9-6t-13 4q-7 4-7 9l1 2 39 65zm0 0zm97 60q6 0 10.5-2.5t4.5-6.5v-74l18 33q4 6 10 6t10-6l18-31v72q0 4 4.5 6.5T652 200q6 0 10.5-2.5t4.5-6.5V75q0-8-4.5-11.5T652 60q-9 0-13.5 3T629 75l-20 35-20-35q-5-9-9.5-12T566 60q-6 0-10.5 3.5T551 75v116q0 4 4.5 6.5T566 200zm0 0zM411 774q-18 0-31 13t-13 31q0 18 13 30.5t31 12.5q18 0 30.5-12.5T454 818q0-18-12.5-31T411 774zm0 58q-6 0-10-4.5t-4-10q0-5.5 4-9.5t10-4q6 0 10 4t4 9.5q0 5.5-4 10t-10 4.5zm0 0zm176 29q18 0 30.5-12.5T630 818q0-18-12.5-31T587 774q-18 0-31 13t-13 31q0 18 13 30.5t31 12.5zm0-57q5 0 9.5 4t4.5 9.5q0 5.5-4.5 10t-10 4.5q-5.5 0-9.5-4.5t-4-9.5q0-5 4-9.5t10-4.5zm0 0zm309 182v-96q0-6-4.5-10t-10.5-4q-6 0-10.5 4t-4.5 10v82H751V681q0-28-19.5-47.5T684 614H314q-28 0-47.5 19.5T247 681v291H131V558q0-6-4-10t-10.5-4q-6.5 0-10.5 4t-4 10v428q0 6 4 10.5t11 4.5h764q6 0 10.5-4.5T896 986zM721 681v291H513V643h171q15 0 26 11t11 27zm-445 0q0-16 11-27t27-11h170v329H276V681zm0 0zm620-280q11-5 18.5-15t7.5-23v-15h33q17 0 29-12t12-29v-41q0-17-12-29t-29-12h-33v-15q0-17-12-29t-29-12h-34q-3 0-11 2 0-17-12-28.5T795 131h-33q-8 0-11 1V52q0-21-15-36T700 1H298q-21 0-36 15t-15 36v80q-4-1-11-1h-34q-17 0-29 12t-12 28q-6-2-11-2h-33q-17 0-29 12t-12 29v15H42q-17 0-29 12T1 266v41q0 17 12 29t29 12h34v15q0 13 7.5 23t18.5 15v99q0 6 4 10t10.5 4q6.5 0 10.5-4t4-10v-97h19q11 0 11-1 0 16 12 28t29 12h34q17 0 28.5-12t11.5-28v-54h445v54q0 16 11 27.5t27 12.5h36q16 0 29-12t12-28q0 1 6 1h24v429q0 6 4.5 10t10.5 4q6 0 10.5-4t4.5-10V401zm59-147q5 0 8.5 3.5t3.5 8.5v41q0 5-3.5 8.5T955 319h-33v-65h33zm-193-94h33q5 0 8.5 3t3.5 8v231q0 5-3.5 8t-8.5 3h-33q-4 0-7.5-3.5T751 402V171q0-5 3.5-8t7.5-3zM276 52q0-9 6.5-15.5T298 30h402q9 0 15 6.5t6 15.5v173H276V52zm-85 119q0-5 3.5-8t7.5-3h34q5 0 8 3t3 8v231q0 4-3 7.5t-8 3.5h-34q-4 0-7.5-3.5T191 402V171zM42 319q-5 0-8.5-3.5T30 307v-41q0-5 3.5-8.5T42 254h34v65H42zm75 55q-5 0-8.5-3t-3.5-8V210q0-5 3.5-8t8.5-3h33q5 0 8 3t3 8v153q0 4-3 7.5t-8 3.5h-33zm159-55v-65h445v65H276zm571 55q-4 0-7.5-3.5T836 363V210q0-5 3.5-8t7.5-3h34q5 0 8 3t3 8v153q0 4-3 7.5t-8 3.5h-34zm0 0z"/></svg>