<svg viewBox="0 0 1244 1083.753" xmlns="http://www.w3.org/2000/svg"><path d="M947 855q-6 0-6 6t6 6q2 0 4-2t2-4q0-6-6-6zm20 18q-2 0-4 2t-2 4q0 2 2 4t4 2q6 0 6-6t-6-6zm-20 21q-6 0-6 6t6 6q2 0 4-2t2-4q0-6-6-6zm20 18q-2 0-4 2t-2 4q0 2 2 4.5t4 2.5q2 0 4-2t2-5q0-6-6-6zm-20 21q-6 0-6 6t6 6q2 0 4-2t2-4q0-6-6-6zm20 18q-2 0-4 2t-2 5q0 6 6 6 2 0 4-2t2-4.5q0-2.5-1.5-4.5t-4.5-2zm-39-78q-2 0-4 2t-2 4q0 2 2 4t4 2q6 0 6-6t-6-6zm0 39q-2 0-4 2t-2 4q0 2 2 4.5t4 2.5q2 0 4-2t2-5q0-6-6-6zm-20 21q-6 0-6 6t6 6q2 0 4-2t2-4q0-6-6-6zm20 18q-2 0-4 2t-2 5q0 6 6 6 2 0 4-2t2-4.5q0-2.5-1.5-4.5t-4.5-2zm-39-39q-2 0-4 2t-2 4q0 2 2 4.5t4 2.5q2 0 4-2t2-5q0-6-6-6zm-20 21q-6 0-6 6t6 6q2 0 4-2t2-4q0-6-6-6zm20 18q-2 0-4 2t-2 5q0 6 6 6 2 0 4-2t2-4q0-2-2-4.5t-4-2.5zm-39-39q-2 0-4 2t-2 4q0 2 2 4.5t4 2.5q2 0 4-2t2-5q0-6-6-6zm-20 21q-6 0-6 6t6 6q6 0 6-6t-6-6zm20 18q-2 0-4 2t-2 5q0 6 6 6 2 0 4-2t2-4q0-2-2-4.5t-4-2.5zm-39-39q-2 0-4 2t-2 4q0 2 2 4.5t4 2.5q2 0 4-2t2-5q0-6-6-6zm-20 21q-6 0-6 6t6 6q6 0 6-6t-6-6zm20 18q-2 0-4 2t-2 5q0 6 6 6 2 0 4-2t2-4q0-2-2-4.5t-4-2.5zm-39-39q-2 0-4 2t-2 4q0 2 2 4.5t4 2.5q2 0 4-2t2-5q0-6-6-6zm-20 21q-6 0-6 6t6 6q6 0 6-6t-6-6zm20 18q-2 0-4 2t-2 5q0 6 6 6 2 0 4-2t2-4q0-2-2-4.5t-4-2.5zm-39-39q-2 0-4 2t-2 4q0 2 2 4.5t4 2.5q2 0 4-2t2-5q0-6-6-6zm-20 21q-6 0-6 6t6 6q6 0 6-6t-6-6zm20 18q-2 0-4 2t-2 5q0 6 6 6 2 0 4-2t2-4q0-2-2-4.5t-4-2.5zm-39-39q-6 0-6 6 0 3 1.5 5t4.5 2q6 0 6-6.5t-6-6.5zm-20 21q-6 0-6 6t6 6q6 0 6-6t-6-6zm20 18q-6 0-6 6.5t6 6.5q6 0 6-6 0-2-2-4.5t-4-2.5zm-39-39q-6 0-6 6 0 3 1.5 5t4.5 2q6 0 6-6.5t-6-6.5zm-20 21q-7 0-7 6t6.5 6q6.5 0 6.5-6t-6-6zm20 18q-6 0-6 6.5t6 6.5q6 0 6-6 0-2-2-4.5t-4-2.5zm-39-39q-6 0-6 6 0 3 1.5 5t4.5 2q6 0 6-6.5t-6-6.5zm-21 21q-6 0-6 6t6 6q2 0 4.5-2t2.5-4q0-6-7-6zm21 18q-6 0-6 6.5t6 6.5q6 0 6-6 0-2-2-4.5t-4-2.5zm-39-39q-6 0-6 6 0 3 1.5 5t4.5 2q6 0 6-6.5t-6-6.5zm-21 21q-6 0-6 6t6 6q2 0 4-2t2-4q0-6-6-6zm21 18q-6 0-6 6.5t6 6.5q6 0 6-6 0-2-2-4.5t-4-2.5zm-39-39q-6 0-6 6 0 3 1.5 5t4.5 2q6 0 6-6.5t-6-6.5zm-21 21q-6 0-6 6t6 6q2 0 4-2t2-4q0-6-6-6zm21 18q-6 0-6 6.5t6 6.5q6 0 6-6 0-2-2-4.5t-4-2.5zm-39-39q-3 0-5 2t-2 4q0 2 2 4.5t5 2.5q6 0 6-6.5t-6-6.5zm-21 21q-6 0-6 6t6 6q2 0 4-2t2-4q0-6-6-6zm21 18q-3 0-5 2t-2 5q0 6 6.5 6t6.5-6q0-2-2-4.5t-4-2.5zm-40-39q-2 0-4 2t-2 4q0 2 2 4.5t4 2.5q2 0 4.5-2t2.5-5q0-6-7-6zm-20 21q-6 0-6 6t6 6q2 0 4-2t2-4q0-6-6-6zm20 18q-2 0-4 2t-2 5q0 6 6 6 2 0 4.5-2t2.5-4q0-2-2-4.5t-5-2.5zm-39-39q-2 0-4 2t-2 4q0 2 2 4.5t4 2.5q2 0 4-2t2-5q0-6-6-6zm-20 21q-6 0-6 6t6 6q2 0 4-2t2-4q0-6-6-6zm20 18q-2 0-4 2t-2 5q0 6 6 6 2 0 4-2t2-4.5q0-2.5-1.5-4.5t-4.5-2zm-39-39q-2 0-4 2t-2 4q0 2 2 4.5t4 2.5q2 0 4-2t2-5q0-6-6-6zm-20 21q-6 0-6 6t6 6q2 0 4-2t2-4q0-6-6-6zm20 18q-2 0-4 2t-2 5q0 6 6 6 2 0 4-2t2-4.5q0-2.5-1.5-4.5t-4.5-2zm-39-39q-2 0-4 2t-2 4q0 2 2 4.5t4 2.5q2 0 4-2t2-5q0-6-6-6zm-20 21q-6 0-6 6t6 6q2 0 4-2t2-4q0-6-6-6zm20 18q-2 0-4 2t-2 5q0 6 6 6 2 0 4-2t2-4.5q0-2.5-1.5-4.5t-4.5-2zm-39-39q-2 0-4 2t-2 4q0 2 2 4.5t4 2.5q2 0 4-2t2-5q0-6-6-6zm-20 21q-6 0-6 6t6 6q2 0 4-2t2-4q0-6-6-6zm20 18q-2 0-4 2t-2 5q0 6 6 6 2 0 4-2t2-4.5q0-2.5-1.5-4.5t-4.5-2zm-39-39q-2 0-4 2t-2 4q0 2 2 4.5t4 2.5q2 0 4-2t2-5q0-6-6-6zm-20 21q-6 0-6 6t6 6q2 0 4-2t2-4q0-6-6-6zm20 18q-2 0-4 2t-2 5q0 6 6 6 2 0 4-2t2-4q0-2-2-4.5t-4-2.5zm-39-39q-2 0-4 2t-2 4q0 2 2 4.5t4 2.5q2 0 4-2t2-5q0-6-6-6zm-20 21q-6 0-6 6t6 6q6 0 6-6t-6-6zm20 18q-2 0-4 2t-2 5q0 6 6 6 2 0 4-2t2-4q0-2-2-4.5t-4-2.5zm-39-39q-2 0-4 2t-2 4q0 2 2 4.5t4 2.5q2 0 4-2t2-5q0-6-6-6zm-20 21q-6 0-6 6t6 6q6 0 6-6t-6-6zm20 18q-2 0-4 2t-2 5q0 6 6 6 2 0 4-2t2-4q0-2-2-4.5t-4-2.5zm-39-39q-2 0-4 2t-2 4q0 2 2 4.5t4 2.5q2 0 4-2t2-5q0-6-6-6zm-20 21q-6 0-6 6t6 6q6 0 6-6t-6-6zm20 18q-2 0-4 2t-2 5q0 6 6 6 2 0 4-2t2-4q0-2-2-4.5t-4-2.5zm-39-39q-2 0-4 2t-2 4q0 2 2 4.5t4 2.5q2 0 4-2t2-5q0-6-6-6zm-20 21q-6 0-6 6t6 6q6 0 6-6t-6-6zm20 18q-2 0-4 2t-2 5q0 6 6 6 2 0 4-2t2-4q0-2-2-4.5t-4-2.5zm-39-39q-6 0-6 6 0 3 1.5 5t4.5 2q6 0 6-6.5t-6-6.5zm-20 21q-6 0-6 6t6 6q6 0 6-6t-6-6zm20 18q-6 0-6 6.5t6 6.5q6 0 6-6 0-2-2-4.5t-4-2.5zm-39-39q-6 0-6 6 0 3 1.5 5t4.5 2q6 0 6-6.5t-6-6.5zm0 39q-6 0-6 6.5t6 6.5q6 0 6-6 0-2-2-4.5t-4-2.5zm223-568l-68 68q-2 2-2 5.5t3 5.5q3 2 5 2t6-2l67-68q2-2 2-5.5t-2-5.5q-2-2-5.5-2t-5.5 2zm100 0l-68 68q-2 2-2 5.5t3 5.5q3 2 5.5 2t4.5-2l68-68q2-2 2-5.5t-2-5.5q-2-2-5.5-2t-5.5 2zm423 0l-68 68q-2 2-2 5.5t3 5.5q3 2 5.5 2t4.5-2l68-68q2-2 2-5.5t-2-5.5q-2-2-5.5-2t-5.5 2zM309 689q-4 0-6 2.5t-2 5.5v41q0 8 7.5 8t7.5-8v-41q0-3-2-5.5t-5-2.5zm291-61l-68 67q-2 2-2 5.5t2.5 6q2.5 2.5 5.5 2.5t6-3l67-67q2-2 2-5.5t-2-5.5q-2-2-5.5-2t-5.5 2zm95 6l-68 68q-2 2-2 5.5t3 5.5q3 2 5.5 2t4.5-2l68-68q2-2 2-5.5t-2-5.5q-2-2-5.5-2t-5.5 2zm272 194h-16v-19q0-10-5.5-17.5T932 780V293q8-2 13.5-8.5T951 269v-94q0-11-7-18t-18-7H685q-9 0-12-9-8-27-24.5-51T609 49q-50-36-109-36T391 49q-23 17-39.5 41T327 141q-3 9-12 9H74q-10 0-17.5 7T49 175v94q0 9 5.5 15.5T68 293v487q-8 4-13.5 11.5T49 809v19H33q-13 0-23 9.5T0 861v95q0 13 10 23t23 10h934q14 0 23.5-10t9.5-23v-95q0-14-9.5-23.5T967 828zM390 153q0-4 2.5-6.5t6.5-2.5h14v-6q0-4 2.5-6.5t5.5-2.5h26q3 0 5.5 2.5t2.5 6.5v29h90v-29q0-4 2.5-6.5t6.5-2.5h25q4 0 6 2.5t2 6.5v6h14q4 0 6.5 2.5t2.5 6.5v54q0 4-2.5 6t-6.5 2h-14v6q0 4-2 6.5t-6 2.5h-25q-4 0-6.5-2.5T545 221v-29h-90v29q0 4-2.5 6.5T447 230h-26q-3 0-5.5-2.5T413 221v-6h-14q-4 0-6.5-2t-2.5-6v-54zM84 294h832v49H84v-49zm0 65h832v138H84V359zm0 154h832v264h-79V601q0-16-11.5-27.5T798 562H483q-16 0-27.5 11.5T444 601v176h-89V591q0-12-8.5-20.5T326 562H201q-12 0-20.5 8.5T172 591v186H84V513zm737 88v176H459V601q0-10 7-16.5t17-6.5h315q10 0 16.5 6.5T821 601zM340 828H187V591q0-5 4-9t10-4h125q6 0 10 4t4 9v237zm627 145H33q-7 0-12-5t-5-12v-95q0-7 5-12.5t12-5.5h890q2 3 5.5 3t4.5-3h29q2 3 5.5 3t4.5-2q8 3 11 11-3 1-3 6 0 2 1.5 3.5t2.5 1.5v28q-4 2-4 6.5t4 4.5v28q-4 2-4 6t4 6v11q0 7-5 12t-12 5z"/></svg>