<svg viewBox="0 0 1244 1083.753" xmlns="http://www.w3.org/2000/svg"><path d="M746 351V17q0-6-4-10.5T731 2H631q-6 0-10.5 4.5T616 17v229q0 6 4.5 10.5T631 261q6 0 10.5-4.5T646 246V31h71v428q0 14-10.5 24.5T681 494q-15 0-25-10.5T646 459V305q0-6-4.5-10.5T631 290q-6 0-10.5 4.5T616 305v46q-64 14-115 49-51-35-115-49V17q0-6-4.5-10.5T371 2H271q-6 0-10.5 4.5T256 17v68q0 6 4.5 10t10.5 4q6 0 10-4t4-10V31h71v428q0 14-10.5 24.5T321 494q-14 0-25-10.5T285 459V143q0-6-4-10t-10-4q-6 0-10.5 4t-4.5 10v208q-52 10-98 37.5T77 457q-37 43-57 97T0 665q0 87 44 162 42 73 115 115 75 44 162 44 100 0 180-55 81 55 180 55 87 0 162-44 73-42 115-115 44-75 44-162 0-57-20-111t-57-97q-35-41-81-68.5T746 351zm-65 173q24 0 42-15.5t22-38.5q59 19 97 66 45 57 45 129 0 56-27.5 103.5t-75 75Q737 871 681 871q-52 0-96-24 27-39 42-85.5t15-96q0-49.5-14.5-96T585 483q17-9 32-14 4 23 22 39t42 16zM526 419q43-28 90-38v58q-24 7-49 21 0-1-20-21.5T526 419zM321 524q24 0 42-15.5t22-38.5q13 4 32 13-57 83-57 182.5T417 847q-43 24-96 24-56 0-103.5-27.5t-75-75Q115 721 115 665q0-72 45-129 38-47 97-66 4 23 22 38.5t42 15.5zm162 14q-37 59-37 127t37 127q-19 24-41 40-52-75-52-166.5T442 499q15 10 27 24l14 15zm44 127q0 51-26 100-26-46-26-99.5T501 565q26 47 26 100zm-498 0q0-52 18-100.5T99 476q31-36 71-60t86-35v58q-34 10-65 30t-54 49q-25 31-38 69t-13 78q0 64 31.5 118t85.5 86q54 32 117.5 32T438 869q54-32 86-86.5T556 665q0-60-29.5-114T445 465q-28-17-59-26v-58q60 14 108 50 55 40 86.5 102.5T612 665q0 79-40 147-38 66-104 105-68 40-147 40t-147-40q-66-39-105-105-40-68-40-147zm652 292q-84 0-155-45 23-18 41-41 53 30 114 30 64 0 118-32t85.5-86Q916 729 916 665q0-40-13-78t-38-69q-23-29-54-49t-65-30v-58q46 11 86 35t71 60q34 40 52 88.5T973 665q0 79-40 147-39 66-105 105-68 40-147 40zm0 0z"/></svg>