<svg viewBox="0 0 1244 1083.753" xmlns="http://www.w3.org/2000/svg"><path d="M843 669L739 496V198q0-20-12-36t-30-22q-4-39-25.5-70.5t-55.5-50Q582 1 543 1H248q-32 0-59 16t-43 43q-16 27-16 58.5t16 58.5q16 27 43 43t59 16h178q33 0 56 23t23 55v3q0 32-23 55t-56 23H251q-32 0-60 16.5T146.5 456Q130 484 130 516t16.5 60.5q16.5 28.5 44.5 45t60 16.5h172q34 0 58 24t24 58q0 34-24 58t-58 24H316q-8 0-14 6t-6 14q0 8 6 13.5t14 5.5h107q33 0 61-16t44-44q16-28 16-61t-16-61q-16-28-44-44t-61-16H251q-34 0-58-24.5T169 516q0-34 24-58t58-24h175q32 0 59-15.5t43-42.5q16-27 16-59v-3q0-31-16-58t-43-43q-27-16-59-16H248q-33 0-56-23t-23-56q0-33 23-55.5T248 40h295q44 0 77 29t38 72q-18 7-29 22.5T618 198v425q-15 20-15 42v187q0 42 24 82l39 58q5 9 16 9h150q7 0 12.5-5t6.5-13l18-199q3-30-3.5-60T843 669zm-143-65q-16-7-29-7-4 0-12 2h-2V290h43v314zm-21-428q8 0 14.5 6.5T700 198v53h-43v-53q0-9 6.5-15.5T679 176zm151 605l-16 181H693l-33-50q-18-27-18-60V665q0-11 9-19.5t20.5-8.5q11.5 0 20 8t8.5 20v119q0 8 6 14t14 6q8 0 13.5-6t5.5-14V571l71 118q25 41 20 92zm-582 33q-3-8-11-11t-15 .5q-7 3.5-10 10.5t0 15q3 8 10.5 11t14.5 0q7-3 10.5-10.5t.5-15.5z"/></svg>