<svg viewBox="0 0 1244 1083.753" xmlns="http://www.w3.org/2000/svg"><path d="M814 287l-1-7q-17-73-21-109-8-57-1-94 6-34-10-53-17-23-66-23H285q-49 0-66 23-16 19-10 53 8 36 0 92-4 33-21 105l-2 13q-11 45-6 87 1 8 9 37l3 10q24 78 30 130 4 27 0 81l-2 22q-3 48 0 69 6 46 30 69 14 13 37 21l5 2q29 9 49 25 16 14 27 34 7 12 18 39 11 28 19 41 14 22 34 33 24 14 61 14t61-14q20-11 34-33 8-13 19-41 11-27 18-39 11-20 28-34 19-16 49-25l4-2q23-8 37-21 24-23 30-69 3-21 0-69l-2-22q-4-54 0-81 6-52 30-130l3-10q8-29 9-37 5-42-6-87zM645 38q-4 36-24.5 65T568 149q-32 17-68 17t-68-17q-32-17-52.5-46T355 38h290zM222 295l2-6 1-5q17-76 22-112 7-61-1-102-3-18 2-23 2-3 10-6 10-3 27-3h32q6 54 40 96t84 59q-5 5-11 8-35 25-82 55-65 41-122 74l-9 6q0-19 5-41zm6 115q-5-17-9-32 7-4 19-12l7-4q73-42 123-74 46-29 84-56 20-14 38-29h18l-3 3q-25 23-39 35-32 28-78 64-27 21-83 61l-74 53-3-9zm14 47q1 0 3-2l52-37q77-55 114-84 43-33 80-65 49-44 72-69l4-4 9-9q26-13 38-24l-6 11-29 39q-27 35-66 79-29 32-74 75-42 41-117 108l-12 11q-16 14-23 20.5T268 524l-10 9q-5-31-16-76zm16 189q4-42 3-65l51-47 69-62q56-51 84-78l16-16q41-41 59-61 41-44 69-81 11-14 29-41l1-1q10-15 19-30-12 24-19 36t-27.5 44.5Q591 277 549 331q-32 41-70 85-50 56-101 110l-42 45q-36 38-61 68l-18 22 1-15zm525-276q-1 5-6 22l-6 22q-12 39-17 62-10 39-13 71-5 42 1 99v1q4 50 1 71-5 32-18 46-8 8-24 14l-4 1q-37 11-62 33-21 17-35 42-9 15-21 44l-1 3q-10 24-15 34-9 15-23.5 22t-39.5 7q-25 0-39.5-7T437 935q-5-10-15-34l-1-3q-12-29-21-44-14-25-35-42-25-22-62-33l-3-1q-16-4-24-13-14-14-19-44 21-28 46-57.5t61-67.5l12-13q19-21 29-31l28-30q49-54 74-82 35-39 72-86 40-52 65-90l28-46q8-15 24-47 23-45 35-90 8-26 11-40 8 2 11.5 7t.5 22q-8 41-1 102 5 36 22 112l3 11q8 41 5 75z"/></svg>