<svg viewBox="0 0 1244 1083.753" xmlns="http://www.w3.org/2000/svg"><path d="M948 858h-14L828 85q-2-19-17-32t-35-13H224q-20 0-34.5 13T172 85L66 858H52q-22 0-37 15T0 910q0 22 15 37t37 15h119q22 0 37.5-15t15.5-37q0-22-15.5-37T171 858l98-714h73v256q-50 7-83.5 45T225 534q0 36 18 67t49 49q31 18 67 18t67-18q31-18 49-49t18-67q0-51-33.5-89T376 400V144h248v256q-50 7-83.5 45T507 534q0 36 18 67t49 49q31 18 67 18t67-18q31-18 49.5-49t18.5-67q0-51-34-89t-84-45V144h73l98 714q-22 0-37.5 15T776 910q0 22 15.5 37t37.5 15h119q22 0 37-15t15-37q0-22-15-37t-37-15zm-777 34q8 0 13 5t5 12.5q0 7.5-5.5 12.5t-12.5 5H52q-7 0-12-5t-5-12q0-7 5-12.5t12-5.5h119zm205-449v-8q36 7 59.5 35t23.5 64q0 41-29.5 70T359 633q-41 0-70.5-29T259 534q0-36 23.5-64t59.5-35v8q0 6 3 11-29 5-48 27.5T278 534q0 33 23.5 57t57.5 24q34 0 57.5-24t23.5-57q0-30-19-52.5T373 454q3-5 3-11zm-17 44q19 0 32.5 13.5t13.5 33q0 19.5-13.5 33T359 580q-19 0-32.5-13.5t-13.5-33q0-19.5 13.5-33T359 487zm300-44v-8q35 7 58.5 35t23.5 64q0 41-29.5 70T641 633q-41 0-70.5-29T541 534q0-36 23.5-64t59.5-35v8q0 6 3 11-29 5-48 27.5T560 534q0 33 23.5 57t57.5 24q34 0 57.5-24t23.5-57q0-30-19-52.5T655 454q4-6 4-11zm-18 44q19 0 32.5 13.5t13.5 33q0 19.5-13.5 33T641 580q-19 0-32.5-13.5T595 534q0-19 13.5-33t32.5-14zm122-362q-1-7-5.5-11t-11.5-4H254q-7 0-11.5 4t-5.5 11L136 858h-35L206 90q2-7 6.5-11t11.5-4h552q7 0 11.5 4t6.5 11l105 768h-35L763 125zm185 802H829q-7 0-12.5-5t-5.5-12.5q0-7.5 5.5-12.5t12.5-5h119q7 0 12 5.5t5 12.5q0 7-5 12t-12 5z"/></svg>