<svg viewBox="0 0 1244 1083.753" xmlns="http://www.w3.org/2000/svg"><path d="M863 854q6 0 10.5-4.5T878 839v-46q0-60-37-107t-95-61l-158-39v-65q38-23 61.5-62.5T673 373v-5h24q14 0 24.5-10.5T732 333v-39q0-10-5.5-18.5T712 263v-90q0-34-16-63t-43.5-47.5Q625 44 591 41q-8-17-31-29-21-11-40-11h-59q-47 0-87 23t-63 62.5Q288 126 288 173v90q-9 4-14.5 12.5T268 294v39q0 14 10.5 24.5T303 368h25v5q0 46 23 85.5t61 62.5v65l-158 39q-58 14-95 61t-37 107v46q0 6 4.5 10.5T137 854q6 0 10.5-4.5T152 839v-46q0-50 30.5-89t78.5-51l170-41q5-2 8-6t3-8v-63q26 10 58 10t58-10v64q1 1 1 15-1 18-7 37-7 27-22 53-27 48-77 90-66 54-165 92v-16q0-6-4.5-10.5T273 855q-6 0-10 4.5t-4 10.5v102H152v-65q0-6-4.5-10t-10.5-4q-6 0-10.5 4t-4.5 10v79q0 6 4.5 10.5t10.5 4.5h726q6 0 10.5-4.5T878 986v-79q0-6-4.5-10t-10.5-4q-6 0-10.5 4t-4.5 10v65H742v-65q0-6-4.5-10t-10.5-4q-6 0-10.5 4t-4.5 10v65h-67q9-37 33-62 5-5 5-11t-4.5-10q-4.5-4-10.5-4t-11 4q-32 34-42 83h-71l3-3q33-25 52-43 4-4 4.5-9.5t-4-10.5q-4.5-5-10.5-5.5t-10 3.5q-41 36-84 68h-74q78-40 131-98 4-4 4-10t-5-10.5q-5-4.5-10.5-4T531 854q-49 53-118 89-38 20-71 29h-54v-54q108-40 177-96 57-44 92-105 26-49 31-101l84 21q-16 38-41 77-4 4-2.5 10.5t6.5 9.5q3 3 9 3t11-7q28-40 45-86l28 7q0 30-8 60-12 46-39 74-4 4-4 10t4.5 10.5q4.5 4.5 10 4.5t10.5-5q30-30 44-78 10-33 11-68 41 16 66 52.5t25 81.5v46q0 6 4.5 10.5T863 854zM702 333q0 5-5 5h-24v-49h24q5 0 5 5v39zm-19-160v86h-25q-6 0-10.5 4.5T643 274v32l-17-38q-5-9-13-9t-13.5-5q-5.5-5-5.5-13V71q38 5 63.5 34t25.5 68zm-366 0q0-39 19.5-72T389 49q33-19 72-19h59q13 0 28.5 8.5T564 55v186q0 8-5.5 13t-13.5 5H388q-9 0-14 9l-17 38v-32q0-6-4.5-10.5T342 259h-25v-86zm-14 165q-5 0-5-5v-39q0-5 5-5h25v49h-25zm54 38l40-87h148q18 0 34-14 10 10 24 13l40 88q0 38-19.5 70T571 497q-33 19-71 19t-70.5-19q-32.5-19-52-51T357 376zm267 372q-4-4-10-3.5t-10 5.5l-9 10q-11 13-17 19-4 4-4 10t4.5 10.5Q583 804 589 804t9-5q8-7 21-23l7-7q4-4 3.5-10.5T624 748z"/></svg>