<svg viewBox="0 0 1244 1083.753" xmlns="http://www.w3.org/2000/svg"><path d="M490 887q6 4 10 4 7 0 10-5l106-105h149q6 0 10.5-4.5T780 766V617l105-106q5-4 5-10t-5-10L780 385V236q0-6-4.5-10.5T765 221H616L510 116q-4-4-10-4.5t-10 3.5L384 220l-149 1q-6 0-10.5 4.5T220 236l-2 149-103 106q-4 4-4 10t4 10l103 106 2 149q0 6 4.5 10.5T235 781l149 1 106 105zm10-32l-58-57q27 6 57.5 6t58.5-6l-58 57zm168-103q50-33 83-83v83h-83zm128-193q6-29 6-59t-6-58l58 59-58 58zm-45-226q-33-50-83-83h83v83zM500 147l58 57q-28-6-57.5-6t-58.5 6l58-57zM330 250q-11 7-19 14-5 4-6 10t3 11q4 5 10.5 5.5T329 287q37-29 80-44t90-15q74 0 137 36.5t99.5 99.5Q772 427 772 501t-36.5 137Q699 701 636 737.5T499 774q-74 0-137-36.5T262.5 638Q226 575 226 501q0-53 20-104l1-2q13-32 36-61 4-5 3-11t-6-10q-5-4-10.5-3t-9.5 6l-12 15 1-81h81zM202 443q-6 28-6 57.5t6 58.5l-56-58 56-58zm46 227q32 48 83 82h-82l-1-82zm352-167q-4 4-4 10t4.5 10.5Q605 528 611 528t10-4q3-3 8-6t10-3q13 0 47 17-47 18-77 18-23 0-31-51-4-28-4-84 0-6-4-10t-10-4.5q-6-.5-10.5 4T545 415q0 13-5 36-10 41-31 70-29 40-77 52-6 1-9.5 6.5t-2 10.5q1.5 5 5.5 8.5t9 3.5q2 0 3-1 37-8 66-31.5t47-60.5q13 70 58 70 22 0 52-8 22-6 45-15 18-7 21-9 8-3 8-12.5t-7-12.5q-62-37-89-37-21 0-39 18zm-117-11q1 9 8.5 12t14.5-1.5q7-4.5 6-13.5-3-29-28-51-13-12-28-19-6-3-11.5-.5T437 426q-2 5 0 11t7 8l2 2q34 20 37 45zm-220 63q3 25 23 37 16 10 35 10h40q23 0 39-16 12-12 16-30 3-14 1-20V377q0-6-4-10t-10-4q-6 0-10.5 4t-4.5 10v160q0 20-9 29-7 6-18 6h-38q-1 1-8.5 0t-13.5-5q-8-5-9-15-2-21 19-28 6-2 9-7t2-11q-1-6-6-9t-11-2q-17 4-28 17-17 17-14 43zm733-64L852 347V164q0-6-4.5-10.5T837 149h-66q-6 0-10 4.5t-4 10.5q0 6 4 10t10 4h52v175q0 6 4 10l138 138-138 138q-4 4-4 10v174H648q-5 0-10 5L500 966 362 828q-5-5-10-5h-68q-6 0-10.5 4.5T269 838q0 6 4.5 10.5T284 853h62l144 144q4 4 10.5 4t9.5-4l144-144h183q6 0 10.5-4.5T852 838V655l144-144q4-4 4-10t-4-10zM215 823h-37V649q0-5-5-10L35 501l138-138q5-5 5-10V178h174q6 0 10-4L500 36l138 138q4 4 10 4h55q6 0 10-4t4-10q0-6-4-10.5t-10-4.5h-49L510 5q-4-4-10-4t-10 4L346 149H163q-6 0-10.5 4.5T148 164v183L4 491q-4 4-4 10t4 10l144 144v183q0 6 4.5 10.5T163 853h52q6 0 10.5-4.5T230 838q0-6-4.5-10.5T215 823zm99-458q4 4 10 4t11-5q30-37 73-57t91-20q48 0 91 20t73 57q5 5 11 5t10.5-4q4.5-4 5-10t-3.5-10q-35-42-84-65t-103-23q-54 0-103 23t-84 65q-4 4-3.5 10t5.5 10zm370 271q-4-4-10-3.5t-11 5.5q-30 37-73 57t-91 20q-48 0-91-20t-73-57q-5-5-11-5.5t-10.5 4q-4.5 4.5-5 10.5t3.5 10q35 42 84 64.5T499 744q54 0 103-22.5t84-64.5q4-4 3.5-10t-5.5-11z"/></svg>