<svg viewBox="0 0 1244 1083.753" xmlns="http://www.w3.org/2000/svg"><path d="M1000 27q0-5-3-10t-8-7q-11-5-20 1-25 18-48 46-47 56-63 120-45-23-101-33.5T646 137q-12 2-17 13t4 21l97 96q-72 10-138 64-33 28-55 57-7 10-1 21 2 4 7 7t10 3h297q6 15 16 25l-16 214q-174 27-350 27t-350-27l-16-214q10-10 16-25h297q11 0 18-10 3-4 2-10t-4-11q-22-30-55-57-66-54-138-64l97-96q9-10 4-21t-17-13q-55-4-110.5 6.5T142 177q-16-64-63-120-23-28-48-46-9-6-20-1-5 2-8 7T0 27v948q0 8 6 13.5t14 5.5h134q10 0 15-6t5-15l-21-275 15 2q19 3 29 4 26 56 66 102 64 72 147 98 7 3 14.5-.5T434 892q2-8-1.5-15.5T421 867q-109-34-178-157 120 14 257.5 14T757 710q-27 49-64 86-51 52-116 72-8 2-11.5 9.5t-1.5 15q2 7.5 9.5 11T589 905q83-25 147-98 41-47 67-103 11-1 31-4l13-2-21 275q0 9 5.5 15t14.5 6h135q8 0 13.5-5.5t5.5-13.5V27zM39 562h12q8 0 14-6t6-14q0-8-6-13.5T51 523H39v-65q13 8 28 10t29-2l14 186q-23-4-71-14v-76zm21-206q14-8 28.5-2.5T111 373q8 14 4 29-4 11-13 18.5t-21.5 9q-12.5 1.5-24-6t-16-21Q36 389 41.5 376T60 356zm174-53h8l7 1q46 2 91 28 34 19 64 48H157l77-77zm73-128L139 343q-14-19-36-26.5T58 315q23-51 73-85 45-31 104-45 32-8 72-10zm-200 23q-40 28-68 70V71q53 58 68 127zm26 757H39V836h25q8 0 14-5.5t6-13.5q0-8-6-14t-14-6H39V678q50 10 74 14l20 263zm660-249h1-1zm129-277q-15 0-26-10.5T884 393q-1-15 9-27 12-13 28.5-13.5t28.5 11q12 11.5 11 28t-12 27Q938 429 922 429zm39-357v196q-24-38-66-69l-2-1q15-71 68-126zM844 213q32 18 57.5 44t40.5 58q-23-6-45 1.5T861 343L693 175q86 3 151 38zM596 380q30-29 64-48 45-26 91-28l15-1 77 77H596zm308 86q14 4 29 2t28-10v65h-12q-8 0-14 5.5t-6 13.5q0 8 6 14t14 6h12v76l-11 2q-40 9-60 12l14-186zm-37 489l20-263q21-3 63-12l11-2v119h-25q-8 0-14 6t-6 14q0 8 6 13.5t14 5.5h25v119h-94zm-349-63q-5-13-18-12.5T482 892q-3 8 1 15.5t11.5 10Q502 920 509 916t9.5-11q2.5-7-.5-13z"/></svg>