<svg viewBox="0 0 1244 1083.753" xmlns="http://www.w3.org/2000/svg"><path d="M915 504q0-1-6-8-9-9-19-18-14-11-30-19-27-15-57-18-39-4-79 14V153q0-29-20.5-50T654 82h-19q-16 0-30.5 7T580 108V71q0-29-21-49.5T509 1h-18q-29 0-50 20.5T420 71v36q-22-25-54-25h-19q-29 0-49.5 21T277 153v302q-40-18-79-14-30 3-58 18-16 8-30 19-10 9-19 18-6 7-6 8-3 5-1 9.5t8 4.5q36 0 61 26 37 38 51 128 7 45 7 85v1q0 55 22 100.5t65 79.5q40 31 92 47t110.5 16q58.5 0 110-16t91.5-47q43-34 65.5-80T790 758v-1q-1-41 6-86 14-89 51-127 25-26 62-26 5 0 7.5-4.5T915 504zM680 933H564q-4 0-6 2.5t-2 6q0 3.5 2 6t6 2.5h86q-67 34-149.5 34T351 950q-74-37-105-103 51 36 120 55t150 19q4 0 6.5-2.5t2.5-6q0-3.5-2.5-6T516 904q-85 0-159-23t-122-64q-6-30-7-46 37 48 110.5 77T500 877q88 0 161.5-29T772 771q-4 69-44 118h-78q-4 0-6.5 2.5T641 898q0 4 2.5 6.5t6.5 2.5h62q-16 14-32 26zm-72-191q0 30-14.5 54.5t-39 39Q530 850 500 850t-54.5-14.5q-24.5-14.5-39-39T392 742q0-30 14.5-54.5t39-39Q470 634 500 634t54.5 14.5q24.5 14.5 39 39T608 742zm18 0q0-35-17.5-64T561 632q62 9 110 31 34 15 59 36t38 45q-13 24-38 45t-59 36q-55 26-121 32 34-14 55-45.5t21-69.5zm-252 0q0 38 21 69.5t55 45.5q-66-6-121-32-34-15-59-36t-38-45q13-24 38-45t59-36q48-22 110-31-30 17-47.5 46T374 742zm461-210q-42 42-55 130-48-44-125.5-69.5T490 567q-4 0-6.5 2t-2.5 6q0 4 2.5 6.5t6.5 2.5q88 0 165 26.5T777 684q-2 11-3 30l-1 5q-36-49-110-78.5T500 611q-89 0-163 29.5T227 719q-2-34-8-63h23q4 0 6.5-2.5t2.5-6q0-3.5-2.5-6T242 639h-26l-7-27h94q4 0 6.5-2.5t2.5-6.5q0-4-2.5-6t-6.5-2H203q-15-40-37.5-63.5T110 502q16-16 39-28 62-33 128 0v81q0 3 2.5 5.5t6.5 2.5q4 0 6-2.5t2-5.5V153q0-22 15.5-37.5T347 100h19q22 0 38 15.5t16 37.5v320q0 4 2.5 6.5t6.5 2.5q4 0 6.5-2.5t2.5-6.5V71q0-22 15.5-37.5T491 18h18q22 0 37.5 15.5T562 71v402q0 4 2.5 6.5t6.5 2.5q4 0 6.5-2.5t2.5-6.5V153q0-22 16-37.5t39-15.5h19q22 0 37.5 15.5T707 153v402q0 3 2.5 5.5t6 2.5q3.5 0 6-2.5t2.5-5.5v-81q67-33 127 0 23 12 39 28-31 6-55 30zM491 32q-16 0-28 11.5T451 71q0 4 2.5 6.5T460 80q4 0 6.5-2.5T469 71q0-9 6.5-15.5T491 49q4 0 6-2.5t2-6q0-3.5-2-6t-6-2.5zm178 139q-3 0-5.5 2.5T661 180v270q0 4 2.5 6.5t6 2.5q3.5 0 6-2.5t2.5-6.5V180q0-4-2.5-6.5T669 171zm-340-34q-4 0-6.5 2.5T320 146v107q0 4 2.5 6.5t6.5 2.5q4 0 6.5-2.5t2.5-6.5V146q0-4-2.5-6.5T329 137zm103 609h23q2 17 14.5 29t30.5 12q14 0 25.5-8t16.5-21h23q3 0 5.5-2.5t2.5-6q0-3.5-2.5-6T565 741h-20q0-19-13-31.5T500 697q-15 0-27 9t-16 23h-25q-4 0-6.5 2.5t-2.5 6q0 3.5 2.5 6t6.5 2.5zm68-32q11 0 19.5 8.5T528 742q0 11-8.5 19.5T500 770q-11 0-19.5-8.5T472 742q0-11 8.5-19.5T500 714zm-74-219q-4 0-6.5 2.5T417 504v36q0 4 2.5 6.5t6.5 2.5q4 0 6.5-2.5t2.5-6.5v-36q0-4-2.5-6.5T426 495zm144-3q-4 0-6.5 2.5T561 501v30q0 4 2.5 6.5t6.5 2.5q4 0 6-2.5t2-6.5v-30q0-4-2-6.5t-6-2.5z"/></svg>