<svg viewBox="0 0 1244 1083.753" xmlns="http://www.w3.org/2000/svg"><path d="M592 193q0-38-27-65.5T500 100q-38 0-65 27.5T408 193q0 38 27 65t65 27q38 0 65-27t27-65zm-155 0q0-26 18.5-44.5T500 130q26 0 44.5 18.5T563 193q0 26-18.5 44T500 255q-26 0-44.5-18T437 193zm0 0zM43 915l160 48q23 7 45.5-5t29.5-35l133-445q7-24-4.5-46T371 402l-8-2 22-55q50 39 115 39t115-39l23 55-9 2q-24 8-35.5 30t-4.5 46l133 445q7 23 29.5 35t45.5 5l160-48q24-7 36-29t5-46l-29-94q-1-6-6.5-9t-11.5-1.5q-6 1.5-9 7t-1 11.5l28 94q4 13-2 24t-18 15l-160 48q-13 4-24-2t-15-19l-8-26q20-6 31-13 16-10 24.5-24t10-29.5Q809 806 805 792l-75-251q-9-29-36-43.5t-56-5.5l-13 4-8-27q-4-12 2-23.5t19-14.5l159-48q12-5 24 2t15 19l86 286q2 6 7.5 9t11 1q5.5-2 8.5-7t1-11l-86-287q-6-23-29-35t-46-5l-27 8-70-173q-1-52-27-95t-69.5-68.5Q552 1 500 1q-55 0-105 31-5 4-6 10t2.5 10.5q3.5 4.5 9 6T411 57q41-27 89-27 44 0 81.5 22t59 59.5Q662 149 662 193q0 32-13 63t-37 54q-22 21-51 33t-61 12q-32 0-61-12t-51-33q-24-23-37-54t-13-63q0-55 34-100 4-5 3-11t-6-9.5q-5-3.5-10.5-2.5t-9.5 5q-40 51-40 115l-71 173-27-8q-23-7-45.5 5T136 395L3 840q-8 24 4 46t36 29zm603-395q17-5 34 4t22 26l75 250q7 23-10 44-8 8-27 14l-6 2-101-336 13-4zm20-128l-27-67q32-35 45-77l50 123-68 21zM231 841q-7-8-9-19t1-22l75-250q5-17 22-26t34-4l13 4-101 336-9-3q-19-8-26-16zm86-593q12 42 45 77l-28 67-68-21 51-123zM31 848q67-222 133-444 4-12 15.5-18.5T203 383l159 48q13 3 19 14.5t2 23.5l-8 27q-16-6-26-7-26-3-48.5 12T270 541l-75 251q-9 28 6 55.5t44 36.5q8 2 13 4l-8 26q-4 12-15.5 18.5T211 935L52 887q-13-4-19-15t-2-24zm0 0z"/></svg>