<svg viewBox="0 0 1244 1083.753" xmlns="http://www.w3.org/2000/svg"><path d="M839 760H161q-16 0-31-7.5T104 731q-11-14-15-32.5t1-36.5l75-288q6-25 26-41t45-16h529q25 0 45 16t26 41l74 288q5 18 1.5 36.5T897 731q-11 14-26.5 21.5T839 760zM236 342q-17 0-30 10.5T189 380l-75 289q-3 12-.5 24.5t10 22q7.5 9.5 17 14.5t20.5 5h678q23 0 37-19 8-10 10.5-22.5T886 669l-75-289q-4-17-17-27.5T764 342H236zm41 418q-5 0-8.5-4t-3.5-9V329q0-5 3.5-8.5t8.5-3.5q5 0 9 3.5t4 8.5v418q0 5-4 9t-9 4zm446 0q-5 0-9-4t-4-9V329q0-5 4-8.5t9-3.5q5 0 8.5 3.5t3.5 8.5v418q0 5-3.5 9t-8.5 4zm-93-418q-5 0-8-3t-4-7q-6-19-23-34-33-30-95-31-60 1-94 30-17 15-24 34v1q-1 5-5.5 8t-9.5 1.5q-5-1.5-8-6t-2-9.5q7-24 28-43 40-39 114-41 75 2 115 40 21 20 28 44 2 5-1 9.5t-8 5.5l-3 1zm-73 263H443q-21 0-36.5-15T391 554v-36q0-5 4-8.5t9-3.5h192q5 0 9 3.5t4 8.5v36q0 21-15 36t-37 15zm-141-74v23q0 11 8 18.5t19 7.5h114q11 0 18.5-7.5T583 554v-23H416zm198 0H387q-5 0-9-4t-4-9q0-5 4-8.5t9-3.5h227q5 0 8.5 3.5t3.5 8.5q0 5-3.5 9t-8.5 4z"/></svg>