<svg viewBox="0 0 1244 1083.753" xmlns="http://www.w3.org/2000/svg"><path d="M876 452q0 6 5.5 6t5.5-6q0-2-1.5-4t-3.5-2q-6 0-6 6zm-14 14q-6 0-6 5.5t6 5.5q2 0 4-1.5t2-3.5q0-6-6-6zm-39 0q-6 0-6 6 0 2 2 3.5t4 1.5q2 0 4-1.5t2-3.5q0-2-2-4t-4-2zm20 18q-2 0-4 2t-2 4q0 2 2 4t4 2q2 0 4-2t2-4q0-2-2-4t-4-2zm-20 20q-2 0-4 2t-2 4q0 2 2 4t4 2q2 0 4-2t2-4q0-2-2-4t-4-2zm-18-20q-6 0-6 6t6 6q2 0 4-2t2-4q0-2-2-4t-4-2zm-20 20q-6 0-6 6t6 6q6 0 6-6 0-2-2-4t-4-2zm20 18q-6 0-6 6t6 6q6 0 6-6 0-2-2-4t-4-2zm-20 20q-6 0-6 6t6 6q6 0 6-6t-6-6zm20 19q-6 0-6 6t6 6q2 0 4-2t2-4q0-2-2-4t-4-2zm-20 20q-6 0-6 6t6 6q6 0 6-6 0-2-2-4t-4-2zm-19-59q-2 0-4 2t-2 4q0 6 6 6t6-6q0-6-6-6zm0 39q-2 0-4 2t-2 4q0 2 2 4t4 2q2 0 4-2t2-4q0-6-6-6zm-20 20q-2 0-4 2t-2 4q0 2 2 4t4 2q2 0 4-2t2-4q0-6-6-6zm20 18q-2 0-4 2t-2 4q0 6 6 6t6-6q0-6-6-6zm-20 20q-2 0-4 2t-2 4q0 2 2 4t4 2q6 0 6-6t-6-6zm-18-20q-2 0-4 2t-2 4q0 6 6 6t6-6q0-2-2-4t-4-2zm-20 20q-2 0-4 2t-2 4q0 2 2 4t4 2q6 0 6-6t-6-6zm20 19q-6 0-6 6 0 2 2 4t4 2q2 0 4-2t2-4q0-6-6-6zm-20 20q-6 0-6 6 0 2 2 4t4 2q2 0 4-2t2-4q0-6-6-6zM247 385q2 0 4-2t2-4q0-2-2-4t-4-2q-6 0-6 6t6 6zm-19-20q6 0 6-6t-6-6q-6 0-6 6 0 2 2 4t4 2zm0 39q6 0 6-6t-6-6q-6 0-6 6 0 2 2 4t4 2zm-77-12q-6 0-6 6 0 2 2 4t4 2q6 0 6-6t-6-6zm0 38q-2 0-4 2t-2 4q0 2 2 4t4 2q6 0 6-6t-6-6zm-76 0q-6 0-6 6t6 6q2 0 4-2t2-4q0-2-2-4t-4-2zm-20 20q-6 0-6 6t6 6q2 0 4-2t2-4q0-2-2-4t-4-2zm20 18q-6 0-6 6t6 6q6 0 6-6 0-2-2-4t-4-2zm594 317q6 0 6-6t-6-6q-2 0-4 2t-2 4q0 2 2 4t4 2zm20 18q6 0 6-6t-6-6q-2 0-4 2t-2 4q0 6 6 6zm-58 59q2 0 4-2t2-4q0-2-2-4t-4-2q-2 0-4 2t-2 4q0 2 2 4t4 2zm-38 77q2 0 4-2t2-4q0-6-6-6t-6 6q0 6 6 6zm-39-12q-6 0-6 6 0 2 2 4t4 2q2 0 4-2t2-4q0-6-6-6zm20 18q-2 0-4 2t-2 4q0 6 6 6t6-6q0-2-2-4t-4-2zm401-805q-20-39-53.5-66.5T846 33q-42-13-85-9t-82 24q-5 3-17 9L294 249q-15-33-36-39-18-6-34 2t-23 23.5q-7 15.5-2 31.5L26 357Q8 367 2 385.5T5 422l29 55q10 18 28 24 10 2 15 2 12 0 22-6l173-89q9 11 22 15 19 6 36-3t23-27.5q6-18.5-3-35.5l-9-18 222-117q-6 65 24 121 20 39 53 66.5t75 41.5q31 10 66 10h2L664 646l-17-11q-16-11-35-7t-30 21q-10 15-7 35 3 14 13 24L483 871q-11 18-6.5 37.5T497 938l52 34q16 10 36 6t31-21l106-163q15 6 31 .5t25-19.5q11-16 6-35-3-18-20-30l-16-10 211-327q4-8 5-11 18-27 26-55 13-42 9-85t-24-82zM92 484q-13 5-25.5 1T48 470l-29-56q-6-10-2-23t16-20l15-8 45 87q-2 0-4 2t-2 4q0 2 2 4t5 2q3 0 4-3l9 17-15 8zm53-28l-17-34q1 1 3 1 6 0 6-5.5t-5.5-5.5q-5.5 0-5.5 6l-39-75 38-20 47 89h-2q-6 0-6 5.5t5.5 5.5q5.5 0 6.5-4l8 17-39 20zm78-40l-17-31h2q6 0 6-6t-6-6q-2 0-3.5 1.5T203 377l-39-74 41-21 59 112-41 22zm100-10q-13 6-25 2.5T281 393l-65-124q-5-11-1-23.5t15-18.5q8-4 14-4 9 0 16.5 4.5T272 240l64 124q6 11 2 23.5T323 406zm279 543q-6 11-19 14t-25-4l-37-24q1-1 1-2 0-6-6-6-3 0-5 2l-5-4q-12-8-15-21t5-24l10-16 68 43q-2 0-3 1l-3 4v1q0 2 2 4t4 2q2 0 4-2t2-4v-2l33 21-11 17zm52-80l-1-1h-2q-2 0-4 2t-2 4.5q0 2.5 3 4.5l-11 17v-2q0-2-2-4t-4-2q-2 0-4 2l-14-10q5 0 5-6 0-2-1.5-4t-3.5-2q-2 0-4 2t-2 4v3l-77-50 24-36 107 68-7 10zm30-47l-9-5q0-6-6-6l-2 1-14-9q4-2 4-5t-2-5q-2-2-4-2t-4 2q-2 2-2 4v1l-68-44 24-37 107 69-24 36zm71-98q11 6 14 18.5t-3.5 24q-6.5 11.5-20.5 14t-24-4.5l-117-75q-12-8-13-20-3-14 4-24 9-14 26-14 9 0 17 5l117 76zm149-295q-2-2-4-2t-4 2q-2 2-2 5t4 5l-54 84-1-1q-2 0-4 2t-2 4.5q0 2.5 1 3.5l-9 14q-2-4-5-4t-5 2q-2 2-2 4t2 4q2 2 4 2l-54 85q-1-1-3-1-6 0-6 6 0 3 3 5l-11 16v-1q0-6-6-6t-6 6q0 2 2 4t4 2q2 0 4-2l-15 24-6-4q5-2 5-5t-2-5q-2-2-4-2t-4 2q-2 2-2 4v2l-45-30 6-10q2 6 7 6t5-6q0-6-6-6h-2l42-65q5-2 5-6v-1l8-13q1 1 4 1 6 0 6-6 0-4-3-5l53-83q20-2 35-7 2 5 5 5t5-2q2-2 2-4v-2l4-2q20-7 30-12 14-7 28-18l-7 11zm71-127q-12 39-38 70t-62 50q-44 23-94 23-31 0-61-9-39-12-69.5-38T601 336q-32-59-21-126 1-4-3-7.5t-8-1.5L333 325l-32-62L676 67q7-4 10-5 37-20 77-23.5t79 9q39 12.5 69.5 38T961 147q19 36 22.5 76.5T975 302zM781 108q-33 0-62 15-32 17-51 47t-21 65.5q-2 35.5 15 68.5 26 49 79 66 20 6 40 6 34 0 62-15 32-17 51-47.5t21-66q2-35.5-15-68.5t-49-52q-32-19-70-19zm55 239q-44 22-90.5 7.5T676 297q-15-29-13.5-60.5t18.5-58q17-26.5 44-41t56-14.5q33 0 61 17.5t43.5 46.5q15.5 29 14 60t-18 58Q865 332 836 347z"/></svg>