<svg viewBox="0 0 1244 1083.753" xmlns="http://www.w3.org/2000/svg"><path d="M1 505q0 62 14 115 8 32 28 79l2 6q15 33 20 50 8 26 7 52-1 29-14 66-4 12 1.5 22.5t17 14Q88 913 99 907q58-32 99-91 43-62 53-141 39 63 104 104-8 92-72 180-7 10-5 21t10.5 17.5q8.5 6.5 20.5 5.5 87-14 149-76 14-15 19.5-35.5t.5-40.5q-6-24-2-44 5-24 20.5-42.5T535 737q30-12 61-3t51 34q20 25 20 58 0 20 10 38t28 29q35 23 76 41 52 23 103 35 6 2 11.5-2t5.5-11q12-144-16-229-9-28-21-47-9-12-13-14-2-2-8-4-57-7-95-30-56-32-63-91 0-2 1.5-3.5t3.5-.5q68 20 99 20 17 2 28 11l60 46q10 8 22.5 8t22.5-8q10-8 12-21 24-113-11-224-23-73-67-132-10-15-28.5-13T801 243q-19 42-47 78-31-38-74-66l63-136q10-22 1.5-45.5T713 40Q616 1 517 1q-61 0-116 13-6 1-9.5 6T390 31q2 6 7 9t11 2q54-12 109-12 98 2 184 37 12 5 16.5 17t-.5 23l-63 133q-52-26-110-32-10-1-29-1-56 0-109 20t-94.5 57Q270 321 243 370.5T209 475q-1 6 3 10.5t10 5.5q6 1 11-2.5t6-9.5q6-50 30-95t62-78q38-33 85-51t97-19q22 0 44 3 53 8 99 35.5t79 69.5q-28 32-68 61-54 38-120 62-34 13-67 20h-1q-10 2-12 11-14 52-8 102 4 38 19 71 13 28 28 47-23 14-38 35.5T448 801q-6 30 1 57 4 13 .5 26T437 907q-53 53-128 66 28-38 47-82 26-60 29-120 0-4-2-8t-5-5q-43-25-75-62.5T254 612q-14-34-17-77-1-6-5-10t-10-4q-6 0-10.5 4.5T208 537q3 41 17 83l1 2q-1 102-50 176-35 51-90 83 14-41 15-76 1-29-8-59-6-18-21-53l-2-5q-19-45-27-75-13-49-13-108 2-95 40-181.5T176 169q76-74 170-108 6-2 8.5-7.5T355 42q-2-6-8-8.5t-11-.5Q236 70 155 148 82 219 42.5 311T1 505zm827-250q2-4 5-1 40 54 61 122 33 104 11 212-1 3-4 4t-6-1l-60-47q-19-14-45-16-30 0-91-19-17-5-31 6.5T656 544q7 49 40 85 47 49 138 62 17 18 28 63 19 72 11 183-78-21-153-69-11-7-17.5-18.5T696 825q0-33-17-61.5T633 718q-29-17-62-17-22 0-37 5-28-33-41-81-13-53 0-111 55-12 114-40 96-46 158-120 38-42 63-99zm0 0z"/></svg>