<svg viewBox="0 0 1244 1083.753" xmlns="http://www.w3.org/2000/svg"><path d="M807 122q-20 0-34 14.5T759 171q0 20 14 34.5t34 14.5h54q20 0 34.5-14.5T910 171q0-20-14.5-34.5T861 122h-54zm74 49q0 8-6 13.5t-14 5.5h-54q-8 0-13.5-5.5T788 171q0-8 5.5-14t13.5-6h54q8 0 14 6t6 14zm0 0zm-87 784h87q6 0 10.5-4.5T896 940V768q7-4 11.5-11t4.5-16V481q45-36 68-98 20-55 20-119 0-50-13-97-23-78-77-121-4-4-10-3.5T890 48q-4 5-3.5 11t5.5 10q47 38 67 108 12 43 12 87t-11 84q-11 40-31 70-25 38-64.5 58.5T778 498q-81 3-141-34-30-19-54-51 27-17 42-39 27-38 27-83v-53q0-27-10-52t-28-45q-14-16-31-25 24-32 54-51 56-35 133-35 43 0 75 13 6 2 11.5-.5T864 34q2-6-.5-11.5T855 15Q816 1 770 1q-87 0-150 40-44 28-71 72-20 32-20 71v161q0 39 20 71 27 43 70 70 60 40 144 42v213q0 9 4.5 16t11.5 11v172q0 6 4.5 10.5T794 955zM558 345V184q0-24 9-43 26 15 41 41.5t15 55.5v53q0 22-9 43.5T588 372l-10 9q-10 8-11 7-9-20-9-43zm308 581h-57V772h57v154zm16-185q0 2-1 2h-87q-1 0-1-2V527q38-3 69-16 14-6 20-10v240zm0 0zM477 567h8v8q0 6 4.5 10.5T500 590q6 0 10.5-4.5T515 575v-8h8q6 0 10.5-4.5T538 552q0-6-4.5-10.5T523 537h-8v-8q0-6-4.5-10t-10.5-4q-6 0-10.5 4t-4.5 10v8h-8q-6 0-10 4.5t-4 10.5q0 6 4 10.5t10 4.5zm0 0zm46 287h-46q-6 0-10 4.5t-4 10.5q0 6 4 10t10 4h46q6 0 10.5-4t4.5-10q0-6-4.5-10.5T523 854zm0 0zm2-387h-50q-22 0-38 16t-16 39v379q0 22 16 38t38 16h50q23 0 38.5-16t15.5-38V522q0-23-16-39t-38-16zm-75 319V636h100v150H450zm25-289h50q10 0 17.5 7.5T550 522v85H450v-85q0-10 7.5-17.5T475 497zm50 429h-50q-10 0-17.5-7.5T450 901v-85h100v85q0 10-7.5 17.5T525 926zm0 0zM139 122q-20 0-34.5 14.5T90 171q0 20 14.5 34.5T139 220h54q20 0 34-14.5t14-34.5q0-20-14-34.5T193 122h-54zm0 29h54q8 0 13.5 6t5.5 14q0 8-5.5 13.5T193 190h-54q-8 0-13.5-5.5T120 171q0-8 5.5-14t13.5-6zm0 0zm82 789V768q7-4 11.5-11t4.5-16V528q84-2 145-42 42-27 69-70 21-32 21-71V184q0-40-21-71-27-44-71-72Q317 1 230 1q-45 0-85 14-6 2-8.5 7.5T136 34q2 6 7.5 8.5t11.5.5q32-13 75-13 77 0 133 35 34 22 54 51-13 7-31 26t-28 44q-10 25-10 52v53q0 45 27 83 15 22 42 39-20 29-54 51-60 37-141 34-47-1-86.5-21.5T71 418q-20-30-31-70t-11-84q0-44 12-87 20-70 67-108 5-4 5.5-10T110 48q-4-5-10-5.5T90 46Q37 89 14 167 0 215 0 264q0 64 20 119 23 62 68 98v260q0 9 4.5 16t11.5 11v172q0 6 4.5 10.5T119 955h87q6 0 10.5-4.5T221 940zm212-552q0 1-10-7l-11-9q-17-16-26-37.5t-9-43.5v-53q0-29 15-55.5t41-41.5q9 19 9 43v161q0 23-9 43zM134 772h58v154h-58V772zm-16-271q6 4 20 10 31 13 69 16h1v214q0 2-2 2h-87q-1 0-1-2V501zm0 0z"/></svg>