<svg viewBox="0 0 1244 1083.753" xmlns="http://www.w3.org/2000/svg"><path d="M668 827q-70 36-148 40t-150.5-23.5Q297 816 241 760t-83.5-128.5Q130 559 134 481t40-148q2-4 2-8.5t-2-8.5q-5-8-15-8-4 0-8 2.5t-6 6.5q-40 77-44.5 162T126 643.5Q156 723 217 784t140.5 91Q437 905 522 901t161-44q7-4 9-10.5t-1.5-12.5q-3.5-6-10-8t-12.5 1zM317 145q-9 4-9 15-1 4 1 8t6 6.5q4 2.5 8.5 2.5t8.5-2q70-36 148-40t151 23.5Q704 186 759 242t83 129q28 73 24 150.5T826 669q-3 6-1 12.5t8 9.5q6 3 12.5 1t10.5-8q39-76 43.5-161T874 358.5Q844 279 783 218t-140.5-91Q563 97 478 101.5T317 145zM500 1Q364 1 248 69 135 136 68 249 0 365 0 501t68 252q67 113 180 180 116 68 252 68t252-68q113-67 180-180 68-116 68-252t-68-252Q865 136 752 69 636 1 500 1zm0 967q-127 0-236-64-105-62-167-167-64-109-64-236t64-236q62-105 167-167 109-64 236-64t236 64q105 62 167 167 64 109 64 236t-64 236q-62 105-167 167-109 64-236 64zm-7-435q7 3 14 0 111-54 160-121 33-47 33-94 1-23-7-44.5T670 236q-32-33-78-35-53 0-92 37-39-37-92-37-22 1-42.5 10T330 236q-15 16-23 37.5t-7 44.5q0 47 34 94 48 67 159 121zm-85-299q23 0 44 10t34 28q6 7 15 7t13-7q13-18 34-28t44-10q32 0 53.5 24t21.5 60q0 38-29 77-42 56-138 104-96-48-138-104-29-39-29-77 0-36 21.5-60t53.5-24zm309 434h-72l-38-101q-2-7-9-11.5t-14.5-4.5q-7.5 0-14 4.5T560 568l-60 181-60-181q-2-7-8.5-12t-14.5-5q-8 0-14.5 4t-9.5 12l-38 101h-88q-7 0-12 4.5t-5 11.5q0 7 5 12t12 5h94q7 0 14-4.5t9-11.5l32-84 60 182q3 8 9.5 13t14.5 5q8 0 15-5t9-13l61-182 31 83q3 8 9.5 12.5T640 701h77q7 0 12-5t5-12q0-7-5-11.5t-12-4.5zm-533-62q2 5 6 8.5t9 3.5l6-1q6-3 9.5-9.5t.5-11.5q-15-47-15-95.5t15-94.5q2-4 1-8.5t-4-7.5q-7-8-16-6t-12 12q-17 51-17 105t17 105zm632-210q-1-7-7.5-10t-13-1q-6.5 2-9.5 8t-1 13q15 46 15 94.5T785 596q-2 5 1 11.5t9 9.5l6 1q5 0 9-3.5t6-8.5q17-51 17-105t-17-105zm-412-28q5-4 7-11t-2-12q-7-12-9-27 0-5 2-11t6-6q8 0 12.5-5t4.5-12q0-7-5-11.5t-12-4.5q-19 0-30 15t-11 35q0 23 14 45 4 5 10.5 7t12.5-2z"/></svg>