<svg viewBox="0 0 1244 1083.753" xmlns="http://www.w3.org/2000/svg"><path d="M475 1q-88 0-169 33t-143.5 93.5Q100 188 64 269T25.5 437Q23 524 53 606t89 147L80 910q-10 25 .5 50.5T117 997q11 4 25 4 21 0 38-11.5t24-30.5l47-118q104 60 224.5 60T699 841l48 119q7 19 24 30t37 11q14 0 25-4 26-11 37-36 5-12 5-25.5t-5-25.5l-62-156 3-4 53 28q7 4 15.5 4t16-3.5Q903 775 907 768q10-15 4-31l-23-60 62-16q10-2 16.5-10t8-19q1.5-11-3.5-20t-15-13l-49-25q18-60 18-123 0-122-62-227-59-102-161-161Q597 1 475 1zM173 947q-4 9-12.5 15t-18.5 6q-7 0-13-3-13-5-18-17.5t0-25.5l57-143q27 26 54 44l-49 124zM58 451q0-113 57-210 55-95 150-150 97-57 210-57t210 57q95 55 150 150 57 97 57 210 0 55-15 108l-76-38q16-74-1.5-147.5T734 241q-48-59-115.5-91.5T475 118q-46-1-91 12t-84 38q-6 3-7.5 10t2 12.5Q298 196 305 198t12-2q70-43 151.5-45T621 189q71 40 112.5 110T775 451q0 26-5 58-8 0-16 3l-76 37-10-5q10-26 13-39 13-48 10-94.5T668 330q-11-20-29-34.5T599 275q-6-2-10-2 16-16 25-26 11-11 6-26.5T602 201q-63-21-94-13-29 6-48 30-4-5-12-13-5-5-12-5t-12 5q-5 5-4.5 12t5.5 12q29 31 32 70-7-2-12-5-21-15-45.5-19.5t-48.5.5q-22 6-40 20.5T282 330q-20 35-23 81t10 93.5q13 47.5 39 84.5t59 58q33 21 66 21 13 0 25-3l17-6 16 6q42 10 86.5-15t74.5-76l10 5 14 84 1 3q1 3 2 5-42 39-94.5 60T475 752q-88 0-162-47.5t-111-127q-37-79.5-24.5-167T247 256q4-5 3.5-11.5t-5.5-11q-5-4.5-12-4t-11 5.5q-57 66-74 151-17 83 8 164 26 83 89 143t147 81q83 21 165 0 84-21 147-81l77 41-2 2-3 3q-33 36-78 64-96 61-210 65t-214-51q-100-55-158-153.5T58 451zm409 27l156 80q-24 41-57.5 61.5T500 632q-4-1-11-4l-6-2q-8-5-16 0l-4 2q-8 3-12 4-29 7-59-8.5T337.5 574Q313 540 301 496q-11-41-8-81t19-68q16-31 48-40 10-2 17-2 29 2 50 17 15 9 32 12v17q0 7 4.5 12t11.5 5q7 0 12-5t5-12v-17q18-3 31-12 32-22 68-15 15 4 28 15t20 25q17 29 19.5 68.5T649 496q-3 11-11 33l-155-80q-9-5-17 .5t-7 15q1 9.5 8 13.5zm62-205q-17 5-33-2-9-3-15-14-2-11 8-21.5t27-15.5l10-1q28 1 58 11-23 28-55 43zm310 674q-4 13-17.5 18t-26 0q-12.5-5-18.5-18l-49-124q27-18 54-44l57 143q5 11 0 25zM709 657l-10-59 154 79 27 71-171-91zm159-9l-154-80 54-26 174 86-74 20zM363 357q-7-3-13-1t-10 7q-13 29-15 61.5t8 62.5q1 6 5.5 9t10.5 3h5q6-2 9.5-8.5T365 478q-8-24-7-49t11-49q4-7 2-13.5t-8-9.5z"/></svg>