<svg viewBox="0 0 1244 1083.753" xmlns="http://www.w3.org/2000/svg"><path d="M470 447q-4-5-11-5t-12 5l-64 64V384q0-7-4.5-11.5T367 368q-7 0-12 4.5t-5 11.5v167q0 12 11 15 4 2 6 2 7 0 12-5l91-92q5-5 5-12t-5-12zm372 54q-61 0-109 33 0-75-29-143.5T621 270l29-29 21 22q5 5 12 4.5t12-5.5q5-5 5-11.5t-5-11.5l-67-67q-5-5-12-4.5t-11.5 5Q600 177 600 184t5 12l21 22-30 30q-46-36-96-55v-59q0-36-18-66.5T433.5 19Q403 1 367 1t-67 18q-31 18-49 48.5T233 134v59q-52 20-95 55l-31-30 21-22q5-5 5-12t-4.5-11.5Q124 168 117 168t-12 5l-67 66q-3 3-4 7.5t0 8.5q1 4 4.5 7.5T46 267q10 2 16-4l21-22 30 29q-63 60-91.5 140.5t-19 165Q12 660 59 733t120.5 116.5Q253 893 337.5 900T502 875q83 75 183 123 7 3 15 3t15-3q164-82 236-184 49-70 49-141 0-47-21-86.5T922 524q-36-23-80-23zM267 134q0-41 29-70.5T367 34q42 0 71 29.5t29 70.5v48q-12-4-34-8v-40q0-28-19.5-47T367 68q-27 0-47 19.5T300 134v40q-22 4-33 8v-48zm133 35q-11-1-33.5-1t-33.5 1v-35q0-14 10-23.5t24-9.5q14 0 23.5 9.5T400 134v35zM33 534q0-90 46-168 44-75 120-120 77-45 168-45t168 45q75 45 120 120 45 77 45 168 0 18-1 27-17-17-32-27 0-64-26-122t-73-101q-47-43-108-63t-124.5-14Q272 240 217 271.5T124 354q-38 51-51.5 113.5t-1.5 125Q83 655 120 707t92 84.5Q267 824 330 832t124-11q14 18 23 28-76 27-156.5 16t-147-57.5Q107 761 70 688.5T33 534zm367 139q2 64 35 119-21 6-52 8v-32q0-7-4.5-12t-11.5-5q-7 0-12 5t-5 12v32q-54-3-102-27l17-28q3-6 1-12.5t-8-10q-6-3.5-12.5-2T236 728l-17 28q-45-29-74-74l28-17q8-5 8-14.5t-8-13.5q-8-4-17-1l-28 17q-24-48-27-102h32q7 0 12-5t5-12q0-7-5-11.5t-12-4.5h-32q3-56 27-102l28 16q4 2 8.5 2t8.5-2q8-5 8-14.5t-8-14.5l-28-16q27-43 74-75l17 29q5 8 14.5 8t13.5-8.5q4-8.5 1-16.5l-17-28q48-24 102-27v32q0 7 5 12t12 5q7 0 11.5-5t4.5-12v-32q54 3 102 27l-16 28q-2 4-2 8.5t2 8.5q5 8 14.5 8t14.5-8l16-29q43 29 75 75l-29 16q-8 5-8 14.5t8 14.5q4 2 8.5 2t8.5-2l28-16q24 46 27 100-36-15-74-14-43 0-79.5 22.5t-57.5 62Q400 626 400 673zm300 295q-95-48-158.5-103.5T451 751h72l29 57q5 9 15 9t14-9l65-128 55 192q2 5 6 8.5t9 3.5h1q5 0 9.5-3t5.5-7l46-123h171q-27 58-90.5 113.5T700 968zm261-250H767q-11 0-16 10l-32 86-53-185q-3-11-14-11.5t-17 9.5l-68 136-18-36q-5-10-15-10h-94q-6-21-6-44 0-39 16-71t45-50q29-18 64-18 45 0 83 23 1 0 1 1 26 16 44 39 5 6 14 6t13-6q5-8 12-14 23-23 53-36t64-13q34 0 62.5 18t45 50q16.5 32 16.5 71 0 22-6 45zM558 568q-42 0-68 33-23 31-23 72 0 7 4.5 12t11.5 5q7 0 12-5t5-12q0-28 15-49 17-23 43-23 7 0 12-5t5-12q0-7-5-11.5t-12-4.5z"/></svg>