<svg viewBox="0 0 1244 1083.753" xmlns="http://www.w3.org/2000/svg"><path d="M593 108q-2 0-4 2t-2 4q0 2 2 4t4 2q6 0 6-6t-6-6zm20 19q-2 0-4 2t-2 4q0 2 2 4t4 2q2 0 4-2t2-4q0-6-6-6zm-59-19q-2 0-4 2t-2 4q0 2 2 4t4 2q6 0 6-6t-6-6zm20 19q-2 0-4 2t-2 4q0 2 2 4t4 2q2 0 4-2t2-4q0-6-6-6zm-59-19q-2 0-4 2t-2 4q0 2 2 4t4 2q6 0 6-6t-6-6zm20 19q-2 0-4 2t-2 4q0 2 2 4t4 2q2 0 4-2t2-4q0-2-2-4t-4-2zm-59-19q-6 0-6 6t6 6q6 0 6-6t-6-6zm20 19q-2 0-4 2t-2 4q0 2 2 4t4 2q2 0 4-2t2-4q0-2-2-4t-4-2zm-59-19q-6 0-6 6t6 6q6 0 6-6t-6-6zm20 19q-2 0-4 2t-2 4q0 2 2 4t4 2q2 0 4-2t2-4q0-2-2-4t-4-2zm-59-19q-6 0-6 6t6 6q6 0 6-6t-6-6zm20 19q-2 0-4 2t-2 4q0 2 2 4t4 2q2 0 4-2t2-4q0-2-2-4t-4-2zm-59-19q-6 0-6 6t6 6q6 0 6-6t-6-6zm20 19q-6 0-6 6t6 6q6 0 6-6 0-2-2-4t-4-2zm-59-19q-3 0-5 2t-2 4q0 2 2 4t5 2q6 0 6-6t-6-6zm20 19q-6 0-6 6t6 6q6 0 6-6 0-2-2-4t-4-2zm253 748q6 0 6-6t-6-6q-2 0-4 2t-2 4q0 2 2 4t4 2zm20 19q6 0 6-6t-6-6q-6 0-6 6 0 2 2 4t4 2zm-59-19q6 0 6-6t-6-6q-2 0-4 2t-2 4q0 6 6 6zm20 19q6 0 6-6t-6-6q-6 0-6 6 0 2 2 4t4 2zm-59-19q6 0 6-6t-6-6q-2 0-4 2t-2 4q0 2 2 4t4 2zm20 19q2 0 4-2t2-4q0-2-2-4t-4-2q-2 0-4 2t-2 4q0 2 2 4t4 2zm-59-19q6 0 6-6t-6-6q-2 0-4 2t-2 4q0 6 6 6zm20 19q2 0 4-2t2-4q0-2-2-4t-4-2q-2 0-4 2t-2 4q0 2 2 4t4 2zm-59-19q6 0 6-6t-6-6q-2 0-4 2t-2 4q0 6 6 6zm20 19q2 0 4-2t2-4q0-2-2-4t-4-2q-2 0-4 2t-2 4q0 2 2 4t4 2zm-59-19q6 0 6-6t-6-6q-2 0-4 2t-2 4q0 6 6 6zm20 19q2 0 4-2t2-4q0-2-2-4t-4-2q-2 0-4 2t-2 4q0 2 2 4t4 2zm-59-19q6 0 6-6t-6-6q-2 0-4 2t-2 4q0 6 6 6zm20 19q2 0 4-2t2-4q0-2-2-4t-4-2q-2 0-4 2t-2 4q0 6 6 6zm-59-19q6 0 6-6t-6-6q-2 0-4.5 2t-2.5 4q0 2 2 4t5 2zm20 19q2 0 4-2t2-4q0-2-2-4t-4-2q-2 0-4 2t-2 4q0 6 6 6zm466-484h-28V285q0-38-18.5-71t-51-53Q676 141 638 140V9q0-4-2.5-6T630 1q-3 0-5.5 2T622 9v33H310V9q0-8-7.5-8T295 9v131q-39 0-72.5 19.5t-53 53Q150 246 150 285v432q0 39 19.5 72.5t53 53Q256 862 295 862v131q0 8 7 8 3 0 5.5-2t2.5-6v-32h312v32q0 4 2.5 6t5.5 2q3 0 5.5-2t2.5-6V862q38-1 70.5-21t51-53q18.5-33 18.5-71V591h28q18 0 31-13t13-31v-92q0-19-13-32t-31-13zM310 58h312v33H310V58zm0 49h312v33H310v-33zm312 839H310v-34h312v34zm0-49H310v-35h312v35zm141-180q0 35-17.5 64.5t-47.5 47Q668 846 633 846H295q-35 0-64.5-17.5t-47-47Q166 752 166 717V285q0-35 17.5-65t47-47.5Q260 155 295 155h338q35 0 65 17.5t47.5 47.5q17.5 30 17.5 65v432zm72-170q0 12-8.5 20.5T806 576h-28v-40h57v11zm0-27h-57v-39h57v39zm0-54h-57v-40h28q12 0 20.5 8.5T835 455v11zM624 204H304q-40 0-69 28.5T206 302v398q0 40 29 69t69 29h320q41 0 70-28.5t29-69.5V302q0-41-29-69.5T624 204zm83 496q0 34-24.5 58T624 782H304q-34 0-58.5-24T221 700V302q0-34 24.5-58t58.5-24h320q34 0 58.5 24t24.5 58v398zm-50-195h-24q13-25 13-54.5T633 396q-13-25-35-39.5T549 342q-27 0-50 16t-35 43q-12-27-35-43t-50-16q-27 0-49 14.5T295 396q-13 25-13 54t12 55h-23q-4 0-6 2.5t-2 5.5q0 3 2 5.5t6 2.5h33q13 17 60 70 41 47 81 90 8 8 19 8 13 0 19-8 117-128 141-160h33q4 0 6-2.5t2-5.5q0-3-2-5.5t-6-2.5zM472 670q-3 4-8 4t-8-4l-10-11Q342 544 324 521h15q5 0 7-5l23-50 49 108q2 4 7.5 4t6.5-4l27-53h48q3 0 6-3l27-34 24 34q2 3 6 3h34q-23 29-132 149zm143-165h-41l-28-39q-2-3-6-3t-6 3l-31 39h-49q-4 0-7 5l-21 43-49-108q-2-5-7.5-5t-7.5 4l-28 61h-22q-14-22-14-54 0-39 23.5-66.5T379 357q27 0 48.5 19.5T457 427q1 5 7.5 5t7.5-5q7-31 28.5-50.5T550 357q33 0 56.5 27.5T630 451q0 29-15 54z"/></svg>