<svg viewBox="0 0 1244 1083.753" xmlns="http://www.w3.org/2000/svg"><path d="M985 334h-78q32-79 20-150-11-61-51-106.5T775 13Q706-9 633.5 9T500 83Q435 24 356.5 7T206 20q-5 2-7.5 8t0 11.5q2.5 5.5 8 7.5t11.5 0q62-26 132-12 76 17 140 78 5 4 10.5 4t9.5-4q56-55 124-74t132 2q52 17 87 56t45 92q12 67-23 145h-94q-7 0-12 6l-42 66-78-148q-5-8-13.5-7.5T623 259L502 528 378 181q-4-9-13.5-9t-13.5 8l-96 218-23-55q-3-9-13-9h-94q-20-45-25-89-5-50 13.5-94.5T169 76q5-4 5.5-10.5t-3.5-11q-4-4.5-10-5T151 53q-43 34-64 85T71 248q5 44 22 86H15q-6 0-10.5 4T0 348q0 6 4.5 10.5T15 363h91q44 86 139 169t234 158q10 5 21 5t21-5q74-39 139-84 5-4 6-10t-2.5-11q-3.5-5-9.5-6t-11 3q-63 44-136 82-3 2-7 2t-7-2Q299 560 196 442q-33-39-56-79h69l32 78q4 8 13.5 8t13.5-8l95-215 123 346q4 9 13.5 9.5T513 573l124-274 76 143q4 7 12 7.5t13-6.5l51-80h71q-53 93-169 184-5 4-6 10t3 11q4 5 10 5.5t11-3.5q126-96 183-204l2-3h91q6 0 10.5-4.5t4.5-10.5q0-6-4.5-10t-10.5-4zm0 0z"/></svg>