<svg viewBox="0 0 1244 1083.753" xmlns="http://www.w3.org/2000/svg"><path d="M159 638q1 8 11 12 4 2 8.5 1t8-4q3.5-3 5-7.5t-.5-8.5q-13-54-7-109.5T215 417q2-1 3-5l1-1q15-27 39-47.5t53-30.5q31-12 64.5-11t64.5 15q46 22 80 75 21 31 34 68l2 9q2 7 8 10t13 1q7-2 10-8t1-13l-3-10q-14-39-35-73-34-52-78-79 48-59 110-88 94-45 199-10 4 1 14 5-16 16-24 37.5t-6 44.5q-49-11-90-6-32 5-56 19-16 10-27 22-6 9-1 17.5t14.5 8.5q9.5 0 13.5-6 8-8 13-11 38 2 62 27 40 37 63.5 108T779 634q-2 6 3.5 11.5T795 651q7 0 12-4.5t5-11.5q2-86-24-163t-72-119q-12-13-26-20 53-2 102 15l2 1q8 1 11 1 17 0 32-13 19-16 28.5-42.5t5-50.5q-4.5-24-24.5-33-24-13-47-20l-1-1 23-15q20-13 25-37t-8.5-44Q824 74 800 69t-44 9l-5 3 2-3q5-17 .5-34t-18-28.5Q722 4 704.5 1.5T671 7q-21 10-29 33l-11 31V59q0-24-17.5-41T572 1q-24 0-41 17t-17 41v61q-20 9-37 22-5-32-5-58 0-23-29-37-25-12-62.5-12T318 47q-29 14-29 37 0 90 18 133-52 20-83 57-42 50-39 127-27 55-33.5 116t7.5 121zm283-336q-13-6-29-9 9-30 24-57 27-49 72.5-75.5T613 129h1q33-3 64 2 59 10 80 47-109-24-206 29-63 35-110 95zm392-18q-4 16-18 28-7 6-11 4-2 0-3.5-3t-2.5-8q-2-17 4-32.5t18-27.5q5-3 10-5h2q3 3 3 5 8 20-2 39zm-58-179q8-6 18.5-3.5t16 10.5q5.5 8 3.5 18.5T804 147l-18 12q-14-22-36-37l26-17zM674 51q4-9 12.5-13.5T705 36q10 3 14.5 11.5T722 67l-15 37q-24-7-50-9l17-44zm-126 8q0-11 7.5-18t18-7q10.5 0 17.5 7t7 18v38q-12 1-29 5-5 1-14 4l-7 2V59zm-167 9q24 0 42 6 14 5 16 10-2 5-16 10-18 7-42 7t-42-7q-15-5-16-9v-1q1-4 16-10 18-6 42-6zm-44 174l24-6q7-2 10.5-7t2.5-12q-1-7-6.5-11t-12.5-3l-15 4q-16-42-16-83 29 11 59 10.5t58-11.5v3q4 27 8 40-22 21-42 54-19 38-28 69-41 0-79 13-42 13-77 48 11-44 46-73 27-23 68-35zm444 509q-7-1-12.5 2.5T761 764q-13 63-31 104-25 56-63 80-52 32-138 10-32-9-56-19-28-11-60-27-105-51-170-153-5-8-14-8-4 0-8.5 2.5T214 760q-3 9 1 16 69 110 184 166 39 20 62 28 33 13 60 20 34 10 74 10 49 2 90-24 45-28 74-90 20-44 35-115 1-7-2.5-13t-10.5-7zm169-67H661l-46-106q-1-4-5.5-7t-9.5-3q-11 0-16 10l-84 225-101-275q-1-4-5.5-7t-9.5-4q-11 0-16 11l-62 156H50q-7 0-12 5t-5 12q0 7 5 11.5t12 4.5h267q5 0 9.5-3t5.5-7l51-127 101 277q5 11 16 11t16-11l85-228 34 79q2 4 6 7t9 3h300q7 0 11.5-5t4.5-12q0-7-4.5-12t-11.5-5z"/></svg>