<svg viewBox="0 0 1244 1083.753" xmlns="http://www.w3.org/2000/svg"><path d="M574 899q-55 0-147-46-73-36-120-95-42-51-60-113-17-56-13-109 1-7-3.5-12t-11.5-5.5q-7-.5-12.5 4T201 534q-4 59 14 120 20 69 66 125 52 64 131 104 98 49 162 49 7 0 12-4.5t5-11.5q0-7-5-12t-12-5zm256-688v-.5q0-.5-1-.5-30-14-46-19l-1-1 23-15q21-14 25.5-38t-9-43.5Q808 74 784 69t-44 9l-5 3 1-3q6-17 1.5-34t-18-28.5Q706 4 688.5 1.5T655 7q-21 10-29 33l-12 31V59q0-24-17-41T556 1q-24 0-41 17t-17 41v61q-18 9-37 22-5-24-5-58 0-23-29-37-25-12-62.5-12T302 47q-29 14-29 37 0 90 18 133-52 20-83 57-42 50-39 127-30 56-35 126-4 87 25 168.5T245.5 841Q303 905 382 942q115 58 196 58 41 2 79-18 40-21 68-66 23-38 40-98 12-43 24-114.5t3-142.5q-8-63-31-117-22-50-52-82-15-17-35-29 52-2 102 15 12 4 24 1t21-12q19-18 28-41 13-34 1-65-6-14-20-20zm-404 91q-15-6-30-9 7-23 24-57 17-31 42-53 43-37 98-49 52-11 102-2 59 10 80 46-110-24-206 29-64 35-110 95zm333-197q6-5 13.5-5t14 5q6.5 5 9 12t1 15q-1.5 8-9.5 15l-18 12q-12-20-36-37l26-17zM657 51q3-9 13.5-14t19.5-1.5q9 3.5 13.5 12T705 66l-14 38q-26-8-50-9l16-44zm-126 8q0-11 7.5-18t18-7q10.5 0 17.5 7t7 18v38q-10 1-28 5-6 1-16 4l-6 2V59zm-166 9q23 0 41 6 14 5 17 10-3 5-17 10-18 7-41.5 7T322 94q-13-5-16-9v-1q2-4 16-10 19-6 43-6zm-45 174q16-4 25.5-6t12.5-11.5q3-9.5-3-16.5t-16-5l-16 4q-14-38-16-83 31 11 58 10 30 2 60-11 1 15 7 43-25 25-41 54-17 31-28 69-41 0-79 13-42 13-77 48 20-80 113-108zm283 77q-16 10-27 22-6 9-1 17 6 10 14.5 10t13.5-7q8-8 13-11 20 1 38 10t31 25q27 28 46 74 22 50 29 108 7 65-4 131-17 103-36 154-29 76-78 101-82 42-245-40-72-35-125-94.5T192 684q-27-75-24-155 3-59 30-111 3-3 4-7 16-27 40-47t53-30q39-14 78-11 25 3 51 14 29 14 53 41 20 21 36 50 12 21 21 43 6 16 6 18 2 7 8 10t12.5 1q6.5-2 9.5-7.5t2-12.5q-2-10-12-33-15-36-37-66-30-41-67-64 49-58 110-87 93-45 198-10 5 1 15 5-16 15-24 36.5t-6 44.5q-88-19-146 13zm215-35q-6 16-19 28-7 6-11 4-2 0-3.5-3t-2.5-8q-2-17 4-32.5t18-27.5q5-4 11-5h1q2 1 4 5 6 20-2 39zM431 668q0 36 18 66.5t49 48.5q31 18 67 18t66.5-18q30.5-18 48.5-48.5t18-66.5q0-7-5-12t-12-5H448q-7 0-12 5t-5 12zm232 16q-6 36-34 60t-64.5 24q-36.5 0-64.5-23.5T466 684h197zm-223-66q31 0 53-22t22-53q0-31-22-53t-53-22q-31 0-53 22t-22 53q0 31 22 53t53 22zm0-117q17 0 29 12.5t12 29.5q0 17-12 29t-29.5 12q-17.5 0-29.5-12t-12-29q0-17 12-29.5t30-12.5zm216 117q31 0 53-22t22-53.5q0-31.5-21.5-53t-53-21.5q-31.5 0-53.5 22t-22 53q0 31 22 53t53 22zm0-117q17 0 29.5 12.5T698 543q0 17-12.5 29T656 584q-17 0-29-12t-12-29q0-17 12-29.5t29-12.5zm-208 33q7 0 11.5 5t4.5 12q0 7-4.5 12t-11.5 5q-7 0-12-5t-5-12q0-7 5-12t12-5zm200 0q7 0 11.5 5t4.5 12q0 7-4.5 12t-11.5 5q-7 0-12-5t-5-12q0-7 5-12t12-5zm-417-83q7 0 12 5t5 12q0 7-5 11.5t-12 4.5q-7 0-11.5-4.5T215 468q0-7 4.5-12t11.5-5z"/></svg>