<svg viewBox="0 0 1244 1083.753" xmlns="http://www.w3.org/2000/svg"><path d="M983 672H625V523q58-47 168-47h149q7-2 10.5-7.5T955 456q-13-82-55-156T793 170.5q-65-55.5-146-85T481 56q-96 0-184 36.5T141 197Q73 265 36.5 352.5T0 537v178q0 30 15.5 56T57 812.5Q83 828 113 828h20q8 0 14.5 6.5T154 850q0 23 16.5 39t39.5 16h207q37 0 68.5-17t52-46.5Q558 812 562 776h30v56q3 62 33 91 25 23 72 23h184q29 0 57-18.5t45-48.5q17-30 17-62V688q0-7-5-11.5t-12-4.5zM625 481v-5h10q-5 3-10 5zM497 672l-17-27 112-142v5l-4 3q-55 58-59 161h-32zm31 49l-10-16h10v16zm64-160v111h-30q4-68 30-111zm0 181h-30v-37h30v37zm13-300q-8 0-13 7L447 634q-4 4-4 9t3 10l72 115q4 5 10 7-6 42-37.5 69.5T417 872H210q-9 0-15.5-6.5T188 850q0-23-16-39.5T133 794h-20q-33 0-56-23t-23-56V537q0-121 61-226 59-101 160-160 105-61 226-61 80 0 155 27.5T771 197q56 47 94 110.5T918 442H605zm20 263h225v37H625v-37zm225 207H697q-22 0-34-5-18-7-27-26-11-23-11-64v-41h225v136zm116-95q0 24-12.5 45.5t-32 35.5Q902 912 884 912V776h82v41zm0-75h-82v-37h82v37zM350 637q-30 0-51 21t-21 50q0 29 21 50.5t50.5 21.5q29.5 0 50.5-21t21-50.5q0-29.5-21-50.5t-50-21zm0 109q-16 0-27-11t-11-27q0-16 11-27t27-11q16 0 27 11t11 27q0 16-11 27t-27 11zm131-565q-9-5-17-1l-78 45q-43-31-96-31-43 0-80 21.5t-58.5 58Q130 310 130 353l1 17-21 12q-9 5-9 15v91q0 10 9 15 4 2 7.5 2t9.5-2l55-32q23 20 50.5 31t57.5 11q43 0 79.5-21.5t58-58.5q21.5-37 21.5-80 0-17-3-32l35-20q9-5 9-15v-91q0-9-9-14zm-191 46q34 0 63 17L164 351q0-34 17.5-62t46-45q28.5-17 62.5-17zm0 252q-44 0-76-26l201-114q1 4 1 14 0 34-17 63t-46 46q-29 17-63 17zm166-202L135 459v-52l321-183v53z"/></svg>