<svg viewBox="0 0 1244 1083.753" xmlns="http://www.w3.org/2000/svg"><path d="M786 296q-2-58-25.5-115T698 84q-39-40-90-61.5T500.5 1q-56.5 0-108 21.5t-91 62Q262 125 239.5 178T215 289q-3 74-9 119-11 80-35 137-30 73-83 113-6 4-8 6-21 15-31 26-16 17-25 41-10 30-10 72v189q0 4 2.5 6.5t6 2.5q3.5 0 6-2.5T31 992v-71h127q4 0 6.5-2.5t2.5-6q0-3.5-2.5-6T158 904H31v-30h51q4 0 6.5-2.5t2.5-6q0-3.5-2.5-6T82 857H31v-54q0-25 5-47h30q4 0 6.5-2.5T75 747q0-4-2.5-6.5T66 738H40q7-19 19-34 9-9 25-22h74q4 0 6.5-2.5t2.5-6q0-3.5-2.5-6T158 665h-51q73-62 103-182 11-46 16-104 4-34 6-88v-2q3-74 40-136.5T369 54q60-36 130.5-36T632 57q59 37 96 101t40 138v2q3 80 10 128 11 84 37 142 33 74 91 107 26 15 38 31 21 29 24 81h-64q-4 0-6.5 2.5T895 796q0 4 2.5 6.5t6.5 2.5h65v26H826q-3 0-5.5 2.5T818 840q0 4 2.5 6.5t5.5 2.5h143v26h-40q-4 0-6.5 2.5T920 884q0 4 2.5 6.5t6.5 2.5h40v99q0 4 2.5 6.5t6 2.5q3.5 0 6-2.5t2.5-6.5V803q0-64-23-100-15-25-48-43-54-31-86-102-24-56-35-138-6-48-8-124zm-84 29q0-28 3-55v-2q0-56-27.5-102.5t-74.5-74Q556 64 500 64T397 91.5q-47 27.5-74.5 74T295 268v5q1 28 1 52 0 68-17 259l-18 177q0 2 1.5 4.5t3.5 3.5q101 49 224 49 48 0 95-7 55-9 105-26 28-9 41-16 3-1 4.5-3.5t.5-4.5l-9-89q-11-105-17-186-9-113-8-161zm-389-60h66q3 0 5.5-2.5t2.5-6.5q0-4-2.5-6t-5.5-2h-65l1-11h370q3 16 3 32v13q-1 16-3 34H313q-2-14-1-34l1-17zM500 81q54 0 98 27.5t69 73.5h-23q-3 0-5.5 2.5T636 191q0 4 2.5 6t5.5 2h31l2 7q3 9 4 14H319q8-29 24-53h54q4 0 6.5-2.5t2.5-6.5q0-4-2.5-6.5T397 149h-42q27-32 64.5-50T500 81zm82 713q-143 21-264-22l22-299q0-4-2.5-6.5t-6-3q-3.5-.5-6 2T322 472l-21 294-22-10 34-422h372l3 41H506q-4 0-6.5 2.5T497 384q0 4 2.5 6.5t6.5 2.5h184l21 265h-48q-4 0-6.5 2.5T654 667q0 4 2.5 6.5t6.5 2.5h49l2 25h-90q-4 0-6.5 2.5T615 710q0 4 2.5 6.5t6.5 2.5h92l3 37q-64 26-137 38z"/></svg>