<svg viewBox="0 0 1244 1083.753" xmlns="http://www.w3.org/2000/svg"><path d="M500 64q-56 0-103 27.5t-74.5 74Q295 212 295 268v3q-1 52 7 101 17 94 65 145 52 55 133 55 75 0 123-51 52-52 72-153 10-51 10-100 0-56-27.5-102.5t-74.5-74Q556 64 500 64zm0 17q54 0 98 27.5t69 73.5h-23q-3 0-5.5 2.5T636 191q0 4 2.5 6t5.5 2h31l2 7q3 9 4 14H319q8-29 24-53h54q4 0 6.5-2.5t2.5-6.5q0-4-2.5-6.5T397 149h-42q27-32 64.5-50T500 81zm111 428q-43 45-111 45-75 0-120.5-49T319 362q-8-47-6-92v-2q0-9 2-28v-3h370q3 16 3 32 0 42-9 92-19 99-68 148zm252 113q-30-12-52-49-18-30-31-74-10-31-15-67-4-24-4-30-2-8-10-8-4 0-6 3t-2 6v2q7 58 23 109 32 100 90 124 2 1 4 1 5 0 8-5 2-4 .5-7.5T863 622zm59 45q12-12 19-23 6-9 6-10 2-4 .5-7t-4.5-5q-146-62-158-336-2-57-24.5-109t-62-92.5Q659 44 608 22.5T500.5 1q-56.5 0-108 21.5t-91 62Q262 125 239.5 177T215 286Q203 560 57 622q-3 2-4.5 4.5t.5 7.5q0 1 6 10 7 11 19 23-23 17-39 44-25 40-25 92v189q0 4 2.5 6.5t6 2.5q3.5 0 6-2.5T31 992v-71h127q4 0 6.5-2.5t2.5-6q0-3.5-2.5-6T158 904H31v-30h51q4 0 6.5-2.5t2.5-6q0-3.5-2.5-6T82 857H31v-54q0-24 7-47h28q4 0 6.5-2.5T75 747q0-4-2.5-6.5T66 738H44q9-22 25-39 10-12 21-20l3 2q29 26 51 39 57 35 132 55 100 28 224 28t224-28q75-20 132-55 33-21 54-41 18 12 32 33 23 33 26 75h-64q-4 0-6.5 2.5T895 796q0 4 2.5 6.5t6.5 2.5h65v26H826q-3 0-5.5 2.5T818 840q0 4 2.5 6.5t5.5 2.5h143v26h-40q-4 0-6.5 2.5T920 884q0 4 2.5 6.5t6.5 2.5h40v99q0 4 2.5 6.5t6 2.5q3.5 0 6-2.5t2.5-6.5V803q0-52-25-93-16-26-39-43zm-76 39q-54 33-128 53-97 26-218 26t-218-26q-74-20-127.5-53T73 634q20-9 37-23 52 52 135 84 118 46 282 46 3 0 5.5-2.5t2.5-6q0-3.5-2.5-6T527 724q-159 0-273-44-81-31-131-80 14-12 22-23 21 21 61 47 1 1 4 1 5 0 7.5-3.5t1.5-7.5q-1-4-4-5-33-20-59-46 28-38 45-89 26-76 31-188 3-74 40-135.5t97-97Q429 18 500 18t131 35.5q60 35.5 97 97T768 286q5 112 31 188 41 118 128 160-28 39-81 72z"/></svg>