<svg viewBox="0 0 1244 1083.753" xmlns="http://www.w3.org/2000/svg"><path d="M981 576h-60q-19 0-37 6l3-4q29-43 28-95t-31-95l-7-9q-14-22-40-30t-50 2l-95 40q-20 9-42 4l-215-41-94-132q-4-6-11.5-7.5T315 217L252 15q-2-6-7.5-10T233 1H20Q12 1 6 7T0 21v201q0 2 1 6l78 184q-4 4-4.5 9.5T76 432l46 110 41 161q1 1 1 3l56 133q4 8 7 11h-65q-23 0-44 9L13 901q-6 2-9.5 7T0 919v62q0 8 6 14t14 6h634q8 0 14-6t6-14q0-8-6-13.5t-14-5.5H314l79-34q20-9 40-9h48q8 0 13.5-5.5T500 900q0-8-5.5-14t-13.5-6h-48q-29 0-56 12l-160 70H39v-30l94-37q15-5 29-5h65q21 0 46-10l143-60q25-9 41-32 19-25 46.5-36t59.5-7q26 2 48-7l279-116q14-7 31-7h40v81l-9-5q-16-10-33.5-11t-34.5 7l-71 34q-7 4-10 11.5t.5 15q3.5 7.5 11 10t15.5-.5l71-34v-1q17-7 30 2l30 18v106H854q-11 0-19-4l-53-27q-17-8-36.5-8t-36.5 8l-53 27q-8 4-19 4h-34q-8 0-13.5 6t-5.5 14q0 8 5.5 13.5T603 887h34q18 0 37-8l52-27q9-5 19.5-5t19.5 5l52 27q19 8 37 8h107v75H827q-7 0-13 5.5t-6 13.5q0 8 6 14t13 6h154q8 0 13.5-6t5.5-14V596q0-8-5.5-14t-13.5-6zM567 706q-42-5-79 10t-62 48q-9 14-25 20l-1 1-120 50q-7 2-14-1.5T256 823l-16-37 548-231q28-11 50.5-32.5T875 473q2 22-3 43.5T855 556q-35 52-73 68l-184 77q-13 7-31 5zM226 439q6 13 .5 27.5T207 486l-56 24-34-80 79-64 30 73zM39 40h180l64 203-173 143-71-168V40zm124 507l59-25q28-12 40-41t0-58l-35-83 95-78 79 113-25 61q-3 7 0 14.5t10.5 10.5q7.5 3 15 0t10.5-11l23-56 66 13-20 48q-3 8 0 15.5t10.5 10.5q7.5 3 15-.5T517 470l23-56 65 13-20 48q-3 8 .5 15.5T596 501q7 3 14.5 0t10.5-11l23-56q31 6 63-7l95-40q12-5 24-1t19 15q13 22-7 60-10 19-27.5 34.5T773 519L225 750l-24-58-38-145zm597 427q-3-8-11-10.5t-15.5.5q-7.5 3-10 11t1.5 15q4 7 12 9.5t15-1.5q7-4 9-10.5t-1-13.5z"/></svg>