<svg viewBox="0 0 1244 1083.753" xmlns="http://www.w3.org/2000/svg"><path d="M712 503q-2 0-4.5 2t-2.5 5q0 3 2.5 5t4.5 2q2 0 4.5-2t2.5-5q0-3-2-5t-5-2zm-23 23q-3 0-5 2t-2 5q0 3 2 5t5 2q3 0 5-2t2-5q0-3-2-5t-5-2zm23 21q-2 0-4.5 2.5T705 554q0 2 2.5 4.5t4.5 2.5q2 0 4.5-2t2.5-5q0-3-2-5t-5-2zm-23 24q-3 0-5 2t-2 4q0 2 2 4.5t5 2.5q3 0 5-2t2-5q0-6-7-6zm23 21q-2 0-4.5 2t-2.5 5q0 3 2.5 5t4.5 2q2 0 4.5-2t2.5-5q0-3-2-5t-5-2zm-23 23q-3 0-5 2t-2 5q0 3 2 5t5 2q3 0 5-2t2-5q0-3-2-5t-5-2zm23 22q-2 0-4.5 2t-2.5 4q0 2 2.5 4.5t4.5 2.5q2 0 4.5-2t2.5-5q0-6-7-6zm-23 23q-3 0-5 2t-2 5q0 6 7 6 3 0 5-2t2-4q0-2-2-4.5t-5-2.5zm23 21q-2 0-4.5 2t-2.5 5q0 3 2.5 5t4.5 2q2 0 4.5-2t2.5-5q0-3-2-5t-5-2zm-23 23q-3 0-5 2t-2 5q0 3 2 5t5 2q3 0 5-2t2-5q0-3-2-5t-5-2zm23 22q-2 0-4.5 2t-2.5 5q0 3 2 4.5t4.5 1.5q2.5 0 5-2t2.5-4q0-2-2-4.5t-5-2.5zm-23 23q-3 0-5 2t-2 5q0 3 2 5t5 2q3 0 5-2t2-5q0-3-2-5t-5-2zm23 21q-2 0-4.5 2t-2.5 5q0 3 2.5 5t4.5 2q2 0 4.5-2t2.5-5q0-3-2-5t-5-2zm-23 23q-3 0-5 2t-2 5q0 3 2 5t5 2q3 0 5-2t2-5q0-3-2-5t-5-2zm23 22q-2 0-4.5 2t-2.5 5q0 3 2.5 5t4.5 2q2 0 4.5-2.5t2.5-4.5q0-2-2-4.5t-5-2.5zm-23 23q-3 0-5 2t-2 5q0 3 2 5t5 2q3 0 5-2t2-5q0-3-2-5t-5-2zm23 21q-2 0-4.5 2t-2.5 5q0 3 2.5 5t4.5 2q2 0 4.5-2t2.5-5q0-3-2-5t-5-2zm-23 24q-3 0-5 2t-2 4.5q0 2.5 2 4.5t5 2q3 0 5-2t2-4.5q0-2.5-2-4.5t-5-2zm23 21q-2 0-4.5 2t-2.5 5q0 3 2.5 5t4.5 2q2 0 4.5-2t2.5-5q0-3-2-5t-5-2zm-23 23q-3 0-5 2t-2 5q0 3 2 5t5 2q3 0 5-2t2-5q0-3-2-5t-5-2zm-44-401q-3 0-5 2t-2 5q0 3 2 5t5 2q3 0 5-2t2-5q0-3-2-5t-5-2zm23 21q-3 0-5 2.5t-2 4.5q0 2 2 4.5t5 2.5q3 0 5-2t2-5q0-3-2-5t-5-2zm-23 24q-3 0-5 2t-2 4q0 2 2 4.5t5 2.5q3 0 5-2t2-5q0-6-7-6zm23 21q-3 0-5 2t-2 5q0 3 2 5t5 2q3 0 5-2t2-5q0-3-2-5t-5-2zm-23 23q-3 0-5 2t-2 5q0 3 2 5t5 2q3 0 5-2t2-5q0-3-2-5t-5-2zm23 22q-3 0-5 2t-2 4q0 2 2 4.5t5 2.5q3 0 5-2t2-5q0-6-7-6zm-23 23q-3 0-5 2t-2 5q0 6 7 6 3 0 5-2t2-4q0-2-2-4.5t-5-2.5zm23 21q-3 0-5 2t-2 5q0 3 2 5t5 2q3 0 5-2t2-5q0-3-2-5t-5-2zm-23 23q-3 0-5 2t-2 5q0 3 2 5t5 2q3 0 5-2t2-5q0-3-2-5t-5-2zm0 45q-3 0-5 2t-2 5q0 3 2 5t5 2q3 0 5-2t2-5q0-3-2-5t-5-2zm0 44q-3 0-5 2t-2 5q0 3 2 5t5 2q3 0 5-2t2-5q0-3-2-5t-5-2zm0 45q-3 0-5 2t-2 5q0 3 2 5t5 2q3 0 5-2t2-5q0-3-2-5t-5-2zm23-112q-3 0-5 2t-2 5q0 6 7 6 3 0 5-2t2-4q0-2-2-4.5t-5-2.5zm0 44q-3 0-5 2t-2 5q0 3 2 5t5 2q3 0 5-2t2-5q0-3-2-5t-5-2zm0 45q-3 0-5 2t-2 5q0 3 2 5t5 2q3 0 5-2.5t2-4.5q0-2-2-4.5t-5-2.5zm0 44q-3 0-5 2t-2 5q0 3 2 5t5 2q3 0 5-2t2-5q0-3-2-5t-5-2zm-23 24q-3 0-5 2t-2 4.5q0 2.5 2 4.5t5 2q3 0 5-2t2-4.5q0-2.5-2-4.5t-5-2zm23 21q-3 0-5 2t-2 5q0 3 2 5t5 2q3 0 5-2t2-5q0-3-2-5t-5-2zm-23 23q-3 0-5 2t-2 5q0 3 2 5t5 2q3 0 5-2t2-5q0-3-2-5t-5-2zm23 22q-3 0-5 2t-2 4q0 2 2 4.5t5 2.5q3 0 5-2t2-5q0-6-7-6zm-23 23q-3 0-5 2t-2 5q0 6 7 6 3 0 5-2t2-4q0-2-2-4.5t-5-2.5zm-22-68q-3 0-5 2t-2 5q0 3 2 5t5 2q3 0 5-2t2-5q0-3-2-5t-5-2zm-23 23q-3 0-5 2t-2 5q0 3 2 5t5 2q3 0 5-2t2-5q0-3-2-5t-5-2zm23 22q-3 0-5 2t-2 4q0 2 2 4.5t5 2.5q3 0 5-2t2-5q0-6-7-6zm-23 23q-3 0-5 2t-2 5q0 6 7 6 3 0 5-2t2-4.5q0-2.5-2-4.5t-5-2zm-21-23q-3 0-5 2t-2 4q0 2 2 4.5t5 2.5q3 0 5-2t2-5q0-6-7-6zm-23 23q-3 0-5 2t-2 5q0 6 7 6 3 0 5-2t2-4q0-2-2.5-4.5T556 972zm-22-68q-3 0-5 2t-2 5q0 3 2 5t5 2q3 0 5-2t2-5q0-3-2-5t-5-2zm0 45q-3 0-5 2t-2 4q0 2 2 4.5t5 2.5q3 0 5-2t2-5q0-6-7-6zm-23 23q-3 0-5 2t-2 5q0 6 7 6 3 0 5-2t2-4q0-2-2-4.5t-5-2.5zm-21-68q-3 0-5 2t-2 5q0 3 2 5t5 2q3 0 5-2t2-5q0-3-2.5-5t-4.5-2zm0 45q-3 0-5 2t-2 4q0 2 2 4.5t5 2.5q3 0 5-2t2-5q0-3-2-4.5t-5-1.5zm-23 23q-3 0-5 2t-2 5q0 6 6.5 6t6.5-6q0-2-2-4.5t-4-2.5zm-22-68q-3 0-5 2t-2 5q0 3 2 5t5 2q3 0 5-2t2-5q0-3-2-5t-5-2zm0 45q-3 0-5 2t-2 4q0 2 2 4.5t5 2.5q3 0 5-2t2-5q0-6-7-6zm-23 23q-3 0-5 2t-2 5q0 6 7 6 3 0 5-2t2-4q0-2-2-4.5t-5-2.5zm-21-68q-3 0-5 2t-2 5q0 3 2 5t5 2q6 0 6-7 0-3-2-5t-4-2zm0 45q-3 0-5 2t-2 4q0 2 2 4.5t5 2.5q6 0 6-6.5t-6-6.5zm-24 23q-2 0-4 2t-2 5q0 6 6 6 2 0 4.5-2t2.5-4q0-2-2-4.5t-5-2.5zm-21-68q-3 0-5 2t-2 5q0 3 2 5t5 2q3 0 5-2t2-5q0-3-2-5t-5-2zm0 45q-3 0-5 2t-2 4q0 2 2 4.5t5 2.5q3 0 5-2t2-5q0-6-7-6zm-23 23q-3 0-5 2t-2 5q0 6 7 6 3 0 5-2t2-4q0-2-2-4.5t-5-2.5zm-22-68q-2 0-4 2t-2 5q0 3 2 5t4 2q2 0 4.5-2t2.5-5q0-3-2-5t-5-2zm0 45q-2 0-4 2t-2 4q0 2 2 4.5t4 2.5q2 0 4.5-2t2.5-5q0-6-7-6zm-23 23q-2 0-4.5 2t-2.5 5q0 3 2 4.5t4.5 1.5q2.5 0 5-2t2.5-4q0-2-2-4.5t-5-2.5zm-21-68q-3 0-5 2t-2 5q0 3 2 5t5 2q3 0 5-2t2-5q0-3-2-5t-5-2zm-23 23q-3 0-5 2t-2 5q0 3 2 5t5 2q3 0 5-2t2-5q0-3-2-5t-5-2zm23 22q-3 0-5 2t-2 4q0 2 2 4.5t5 2.5q3 0 5-2t2-5q0-6-7-6zm-23 23q-3 0-5 2t-2 5q0 6 7 6 3 0 5-2t2-4q0-2-2-4.5t-5-2.5zm-22-68q-2 0-4.5 2t-2.5 5q0 3 2.5 5t4.5 2q2 0 4.5-2t2.5-5q0-3-2-5t-5-2zm-23 23q-3 0-5 2t-2 5q0 3 2 5t5 2q3 0 5-2t2-5q0-3-2-5t-5-2zm23 22q-2 0-4.5 2t-2.5 4q0 2 2.5 4.5t4.5 2.5q2 0 4.5-2t2.5-5q0-6-7-6zm-23 23q-3 0-5 2t-2 5q0 6 7 6 3 0 5-2t2-4q0-2-2-4.5t-5-2.5zm-21-68q-3 0-5 2t-2 5q0 3 2 5t5 2q3 0 5-2t2-5q0-3-2-5t-5-2zm-23 23q-3 0-5 2t-2 5q0 3 2 5t5 2q3 0 5-2t2-5q0-3-2.5-5t-4.5-2zm23 22q-3 0-5 2t-2 4q0 2 2 4.5t5 2.5q3 0 5-2t2-5q0-6-7-6zm623-822H573v-1q0-17-12-29t-29-12H331q-17 0-29 12t-12 29v1H61q-23 1-38.5 37.5T7 255.5Q7 310 22.5 346T61 384h51l7 165H93q-17 0-29.5 12.5T51 591v37q0 10 5.5 20T70 663v162q0 19 13.5 32.5T116 871h1v5l-3 32q-3 37 22.5 65t63.5 28h460q38 0 65-29 26-31 20-68l-2-33h1q19 0 32-13.5t13-32.5V663q9-5 14.5-15t5.5-20v-37q0-17-12.5-29.5T767 549h-24l8-165h50q24 0 39.5-36.5t15.5-92q0-55.5-15.5-92T801 127zM544 451V200h59v251h-59zm59 140v103q0 4-2.5 6.5T594 703h-41q-4 0-6.5-2.5T544 694V591h59zM306 126q0-11 7.5-18t17.5-7h201q11 0 18 7t7 18v59h-30v-24q0-13-9-21.5t-21-8.5H366q-12 0-21 8.5t-9 21.5v24h-30v-59zm29 326V200h194v252q-8 2-13 9t-5 15v26H352v-26q0-8-5-15t-12-9zm17-267v-24q0-6 4-10.5t10-4.5h131q6 0 10 4.5t4 10.5v24H352zm-33 15v251h-59V200h59zm0 391v103q0 4-2.5 6.5T310 703h-41q-4 0-6.5-2.5T260 694V591h59zM62 368q-10 0-19-14.5T28 314q-6-27-6-59t6-57.5q6-25.5 15-40T62 143q10 0 19 14.5t15 40q6 25.5 6 57.5t-6 59q-6 25-15 39.5T62 368zm48-30l1 30H89q13-16 20.5-46t7.5-67q0-37-7.5-66.5T89 143h201v42h-71q-29 0-49 20t-20 49v16q-12 6-21 15-21 22-19 53zm135-138v252q-8 2-13 9t-5 15v26h-8q-22 0-38-16t-16-38V254q0-23 16-38.5t38-15.5h26zM66 628v-37q0-11 8-18.5t19-7.5h27l2 54q1 12 1 35H93q-11 0-19-7.5T66 628zm52 227h-2q-13 0-21.5-8.5T86 825V669l7 1h31q2 92-6 185zm601 99q-2-5-7-5-2 0-4.5 2t-2.5 4.5q0 2.5 2 4.5t5 2q-6 7-16 14-1-4-7-4-3 0-5 2t-2 5l1 3q-14 4-23 4H200q-15 0-28.5-6T148 963q-19-21-19-47 2 2 4.5 2t4.5-2q2-2 2-5t-2-5q-2-2-4.5-2t-3.5 1l2-27q12-130 6-260l-13-281q-2-23 15-41 6-6 10-8v160q0 29 20 49t49 20h8v49q0 8 5 15t13 9v104q0 10 7 17.5t17 7.5h41q10 0 17.5-7.5T335 694V590q7-2 12-9t5-15v-49h159v49q0 8 5 15t13 9v104q0 10 7 17.5t17 7.5h41q10 0 17-7.5t7-17.5V590q8-2 13-9t5-15v-49h8q7 0 19-2 2 2 5 2t5-2q2-2 2-5 24-12 34-38h3q3 0 5-2t2-6q0-4-6-6l1-10v-20q5-2 5-8t-5-6v-31q5-2 5-7t-5-7v-31q2 0 3.5-2t1.5-4q0-7-5-7v-31q3 0 4-3l3 3 2 2 7 9q-3 1-3 4.5t2 5.5q2 2 5 2h1q3 9 3 20l-1 12q-1-1-3.5-1t-4.5 2q-2 2-2 5t2 5q2 2 5 2l3-1-2 32v-1h-1q-3 0-5 2t-2 5q0 3 2 5t5 2l-1 31q-2 0-4 2t-2 5q0 5 5 7l-1 31q-4 1-4 5.5t3 6.5l-6 128q-6 130 4 252l2 32q3 26-11 48zm-75-452h-8v-26q0-8-5-15t-13-9V200h26q23 0 38.5 15.5T698 254v194q0 22-15.5 38T644 502zm130 323q0 13-9 21.5t-21 8.5h-2q-7-83-5-185h30l7-1v156zm-7-260q11 0 18.5 7.5T793 591v37q0 10-7.5 18t-18.5 8h-29l4-89h25zm-15-197l1-30q1-29-19-53-9-9-21-15v-16q0-29-20-49t-49-20h-71v-42h201q-13 16-20.5 45.5T746 255q0 37 7.5 67t20.5 46h-22zm49 0q-10 0-19-14.5T767 314q-6-27-6-59t6-57.5q6-25.5 15-40t19-14.5q10 0 19 14.5t15 40q6 25.5 6 57.5t-6 59q-6 25-15 39.5T801 368zM553 757H310q-14 0-23.5 10t-9.5 24v23q0 9 5 19v72q0 12 8 22h-2q-2 0-4.5 2t-2.5 5q0 3 2.5 5t4.5 2q2 0 4.5-2t2.5-5v-1q11 9 24 9h225q12 0 21-6.5t14-17.5q3 0 5-2t2-5q0-5-5-7v-71q5-10 5-19v-23q0-14-9.5-24T553 757zm13 148q0 9-6.5 15.5T544 927H319q-9 0-15.5-6.5T297 905v-59q8 2 13 2h243q5 0 13-2v59zm5-91q0 8-5.5 13.5T553 833H310q-7 0-12.5-5.5T292 814v-23q0-8 5.5-13.5T310 772h243q7 0 12.5 5.5T571 791v23zm404 68q8 0 13-5.5t5-13q0-7.5-5.5-13T975 845h-26V206q11-2 17.5-9.5T973 179V56q0-11-7-18.5T949 29V18q0-7-5-12t-12-5q-7 0-12 5t-5 12v11q-10 1-17 8.5T891 56v123q0 10 6.5 17.5T915 206v639h-26q-7 0-12.5 5.5t-5.5 13q0 7.5 5.5 13T889 882h26v36h-10q-7 0-12.5 5t-5.5 12.5q0 7.5 5.5 13T905 954h10v17q0 7 5 12t12.5 5q7.5 0 12-5t4.5-12v-17h10q8 0 13-5.5t5-13q0-7.5-5-12.5t-13-5h-10v-36h26zm-57-691q-4 0-8-4t-4-8V56q0-5 3.5-8.5T918 44h28q5 0 8.5 3.5T958 56v123q0 4-3.5 8t-8.5 4h-28z"/></svg>