<svg viewBox="0 0 1244 1083.753" xmlns="http://www.w3.org/2000/svg"><path d="M987 99q14-23 6-49.5T962 9q-16-8-33-8t-32.5 9Q881 19 872 35L476 744q-9 5-42 8-43 4-111 2-54-1-103-6-45-4-59-8-21-9-44-9-47 0-79.5 32.5T5 842q0 29 14.5 55T59 939l8 4q12 6 25 9 34 10 92 15 55 5 118 5 55 0 95-4 15 15 34.5 24t41.5 9h233q29 0 53-14t38.5-38.5Q812 924 812 895t-14.5-53Q783 818 759 803.5T706 789H602l187-334L987 99zM706 824q29 0 49.5 21t20.5 50q0 29-20.5 50T706 966H473q-29 0-49.5-21T403 895q0-29 20.5-50t49.5-21h233zm-144-35h-89q-29 0-53 14.5T381.5 842Q367 866 367 895q0 20 8 39-72 5-151.5.5T101 918h-1q-12-4-17-7h-1l-4-2-1-1q-17-10-27-28t-10-38q0-31 22.5-53.5T117 766q17 0 31 7h1q17 6 73 11 51 4 105 6 98 2 142-7 25-6 35-16 0-1 2-3l190-341 53 30-187 336zm151-397L903 52q8-16 27-16 6 0 14 4 12 6 15 18.5T956 82L767 422l-54-30z"/></svg>