<svg viewBox="0 0 1244 1083.753" xmlns="http://www.w3.org/2000/svg"><path d="M66 502h65v319q0 6 4 10.5t10 4.5q6 0 10.5-4.5T160 821V494l322-302q8-7 18.5-7t17.5 7l322 302v324q0 6 4.5 10.5T855 833q6 0 10-4.5t4-10.5V502h65q19 0 34-10.5t22-28q7-17.5 3.5-35.5T976 397L869 296V116h5q13 0 22.5-9.5T906 83V48q0-14-9.5-23.5T874 15H742q-13 0-23 9.5T709 48v35q0 13 10 23t23 10h4v63L601 41q-28-27-64.5-36t-73 0Q427 14 399 41L252 180q-4 4-4 10t4 10.5q4 4.5 10 5t11-3.5L419 63q22-22 51.5-29.5t59 0Q559 41 581 63l374 355q8 8 9.5 17t-1.5 18q-8 20-29 20h-74L538 171q-16-15-37.5-15T462 171L140 473H66q-10 0-18-6t-11-14.5q-3-8.5-1.5-17.5t9.5-17l181-173q5-4 5-10t-4-10q-4-4-10-4.5t-11 3.5L24 397q-14 13-17.5 31t3.5 35.5q7 17.5 22 28T66 502zM738 83V48q0-3 4-3h132q3 0 3 3v35q0 3-3 3H742q-4 0-4-3zm37 33h65v152l-65-61v-91zM379 448q0 33 16.5 61t44 44.5Q467 570 500 570t60.5-16.5q27.5-16.5 44-44.5t16.5-61q0-33-16-61t-44-44q-28-16-61-16t-61 16q-28 16-44 44t-16 61zm106-90v76h-76q5-29 26-50.5t50-25.5zm-76 105h76v76q-29-4-50-25.5T409 463zm106 76v-76h76q-4 29-25.5 50T515 539zm76-105h-76v-76q29 4 50.5 25.5T591 434zm354 427q-14 0-28 6-7 4-16 1-11-7-26.5-7t-26.5 7q-8 3-16 0-11-7-26.5-7t-26.5 7q-9 3-16-1-12-6-28-6-23 1-39 18t-16 40v48q0 14 10.5 24t24.5 10h251q14 0 24-10t10-24v-48q0-23-16-40t-39-18zm26 106q0 5-5 5H715q-5 0-5-5v-48q0-11 7.5-19.5T736 890h1q7 0 13 3 11 6 22 6t21-6q6-3 13-3t13 3q10 6 21.5 6t21.5-6q6-3 12.5-3t12.5 3q22 13 44 0 6-3 13-3 11 1 19 9.5t8 19.5v48zm-334 5h-29V792q0-20-14-34t-34-14H440q-19 0-33 14t-14 34v180h-30q-6 0-10.5 4t-4.5 10q0 6 4.5 10.5t10.5 4.5h274q6 0 10.5-4t4.5-10.5q0-6.5-4.5-10.5t-10.5-4zM422 792q0-8 5.5-13t12.5-5h120q8 0 13 5t5 13v180H422V792zm-157 69q-16 0-28 6-7 4-16 1-11-7-26.5-7t-26.5 7q-8 3-16 0-11-7-26.5-7T99 868q-9 3-16-1-13-6-28-6-23 1-39 18T0 919v48q0 14 10 24t24 10h252q14 0 24-10t10-24v-48q0-23-16-40t-39-18zm25 106q0 5-4 5H34q-2 0-3.5-1.5T29 967v-48q0-11 8-19.5t19-9.5h1q6 0 12 3 22 13 44 0 6-3 12.5-3t12.5 3q11 6 22 6t21-6q6-3 13-3t13 3q10 6 21.5 6t21.5-6q8-3 14-3 11 1 18.5 9.5T290 919v48z"/></svg>