<svg viewBox="0 0 1244 1083.753" xmlns="http://www.w3.org/2000/svg"><path d="M950 207h-67v-9q0-13-9-22t-22-9h-55q-6 0-10 4t-4 10q0 6 4 10.5t10 4.5h55q2 0 2 2v565H594q-26 0-48.5 10.5T507 803V225q0-12 8.5-20.5T537 196h54q6 0 10-4t4-11q0-7-4-10.5t-10-3.5h-54q-27 0-45 20-18-20-45-20H135q-13 0-22.5 9t-9.5 22v9H34q-14 0-24 10T0 241v649q0 32 22.5 54T77 966h830q32 0 54.5-22t22.5-54V241q0-14-10-24t-24-10zM132 792h260q32 0 56 21t29 52H142q-4 0-7-3t-3-7v-63zm3-596h312q13 0 21.5 8.5T477 225v576q-16-18-38-28t-47-10H132V198q0-2 3-2zm820 694q0 19-14 33t-34 14H77q-20 0-34-14t-14-33V241q0-2 2-3.5t3-1.5h69v619q0 16 11.5 27.5T142 894h478q6 0 10-4t4-11q0-7-4-10.5t-10-3.5H509q5-31 29-52t56-21h260v63q0 4-3 7t-7 3H682q-6 0-10.5 4t-4.5 10q0 6 4.5 10.5T682 894h162q16 0 27.5-11.5T883 855V236h67q2 0 3.5 1.5t1.5 3.5v649zM672 725q8 11 22 11t22-11l31-40q6-8 6-17V70q0-21-14.5-35.5T703 20h-18q-21 0-35.5 14.5T635 70v328q0 6 4 10.5t10 4.5q6 0 10.5-4.5T664 398V123h60v545l-30 38-30-38V461q0-7-4.5-11t-10.5-4q-6 0-10 4t-4 11v207q0 9 6 17l31 40zm-8-631V70q0-9 6-15t15-6h18q9 0 15 6t6 15v24h-60zM301 559q24 0 44-7 6-2 8.5-8t.5-11.5q-2-5.5-7.5-8T335 524q-16 6-34 6-32 0-59-20l70-70q4-4 4-11v-99q37 5 61.5 33.5T402 429q0 35-22 63-4 5-3.5 11t5 10q4.5 4 10.5 3.5t11-5.5q28-36 28-82 0-35-17.5-64.5t-47.5-47Q336 300 301 300t-65 17.5q-30 17.5-47 47T172 429q0 35 17.5 65t47 47.5Q266 559 301 559zm-14-229v93l-66 66q-20-26-20-60 0-37 24.5-65.5T287 330zm-94-63h224q6 0 10-4t4-10q0-6-4-10.5t-10-4.5H193q-6 0-10.5 4.5T178 253q0 6 4.5 10t10.5 4zm224 331H193q-6 0-10.5 4t-4.5 10.5q0 6.5 4.5 10.5t10.5 4h224q6 0 10-4t4-10q0-6-4-10.5t-10-4.5zm0 75H193q-6 0-10.5 4t-4.5 10q0 6 4.5 10.5T193 702h224q6 0 10-4t4-11q0-7-4-10.5t-10-3.5z"/></svg>