<svg viewBox="0 0 1244 1083.753" xmlns="http://www.w3.org/2000/svg"><path d="M827 313q-7 0-11 4.5t-4 10.5v276q0 64-30 119.5T699 814l-6 4V606h39q14 0 26-8t17-21q5-13 2-27t-13-24l-67-64V308q0-14-10-24t-24-10h-34q-13 0-23.5 10T595 308v58l-86-82q-31-29-72.5-29T364 284l-88 84q-4 4-4.5 9.5t3.5 10q4 4.5 10 5t11-3.5l88-84q22-21 52-21t52 21l256 242q8 8 3.5 18.5T732 576h-48L465 372q-12-11-28.5-11T408 372L189 576h-48q-11 0-16-10-2-3-1-8 0-7 5-11l124-118q4-4 4.5-9.5t-3.5-10q-4-4.5-10-5t-11 3.5L109 526q-10 10-13 23.5t2 27q5 13.5 17 21.5t26 8h39v212l-6-4q-53-35-83-90.5T61 604V352q0-6-4.5-10.5T46 337q-6 0-10.5 4.5T31 352v252q0 71 33.5 133T158 839l226 149q23 13 52.5 13t57.5-17l221-145q59-40 92.5-102T841 604V328q0-6-4-10.5t-10-4.5zm-202-5q0-2 1.5-3t2.5-1h34q2 0 3 1t1 3v126l-42-40v-86zM209 597l219-204q3-3 8-3t9 3l218 204v240l-149 98V809q0-20-14-34t-33-14h-61q-19 0-33.5 14T358 809v127l-149-98V597zm269 362q-19 13-42 13t-43-13l-5-4V809q0-8 5.5-13t12.5-5h61q8 0 13 5t5 13v146l-7 4zM46 304q6 0 10.5-4.5T61 289V182q0-22 13.5-40t35.5-25l285-81q42-12 82 0l169 48q6 2 11.5-1t7-9q1.5-6-1.5-11.5t-9-6.5L486 8q-50-14-99 0L102 89q-31 9-51 35t-20 58v107q0 6 4.5 10.5T46 304zm390 348q36 0 62-26t26-62q0-36-26-61.5T436 477q-36 0-61.5 25.5T349 564q0 36 25.5 62t61.5 26zm-56-73h42v41q-15-4-26-15t-16-26zm71 41v-41h41q-4 15-15 26t-26 15zm41-70h-41v-42q15 4 26 15t15 27zm-70-42v42h-42q5-16 15.5-27t26.5-15zM827 1q-39 0-72 19t-52 52q-19 33-19 71t19 71q19 33 52 52t72 19q39 0 71.5-19t51.5-52q19-33 19-71t-19-71q-19-33-52-52T827 1zm0 255q-31 0-57-15.5t-41-41Q714 174 714 143t15-56.5q15-25.5 41-41T827 30q31 0 56.5 15T924 86q15 26 15 57t-15 56.5q-15 25.5-41 41T827 256zm45-154l-51 55q-1 2-4.5 2.5T811 158l-31-28q-4-4-10-3.5t-10.5 5q-4.5 4.5-4 10.5t5.5 11l31 27q11 9 24 9 17 0 27-12l51-55q4-5 3.5-11t-5-10q-4.5-4-10.5-3.5t-10 4.5z"/></svg>