<svg viewBox="0 0 1244 1083.753" xmlns="http://www.w3.org/2000/svg"><path d="M322 291v30q0 6 4.5 10.5T337 336q6 0 10-4.5t4-10.5v-30q0-6-4-10t-10-4q-6 0-10.5 4t-4.5 10zm0 0zm356 30v-30q0-6-4-10t-10.5-4q-6.5 0-10.5 4t-4 10v30q0 6 4 10.5t10.5 4.5q6.5 0 10.5-4.5t4-10.5zm0 0zm-178 30q15 0 28.5-6t22.5-16q4-5 4-11t-5-10q-5-4-11-3.5t-10 4.5q-11 13-29 13t-29-13q-4-4-10-4.5t-11 3.5q-5 4-5 10t4 11q9 10 22.5 16t28.5 6zm0 0zm395-222h-50V42q0-17-12.5-29T803 1h-41q-17 0-29 12t-12 29v87H422q-6 0-10 4t-4 11q0 7 4 10.5t10 3.5h473q31 0 53.5 22t22.5 53v162q0 31-22.5 53T895 470H680q-6 0-10.5 4.5T665 485q0 6 4.5 10t10.5 4h48l64 190h-7q-16 0-27 11t-11 27v44q0 16 11 27t27 11h177q16 0 27-11t11-27v-44q0-16-11-27t-27-11h-28l-64-190h25q28 0 52.5-14t38.5-38q14-24 14-52V233q0-28-14-52t-38.5-38Q923 129 895 129zm-145 0V42q0-5 3.5-8.5T762 30h41q5 0 8.5 3.5T815 42v87h-65zm221 598v44q0 3-2.5 5.5T962 779H785q-4 0-6.5-2.5T776 771v-44q0-3 2.5-5.5t6.5-2.5h177q4 0 6.5 2.5t2.5 5.5zm-68-38h-80l-64-190h80l64 190zm0 0zM621 470H105q-31 0-53.5-22T29 395V233q0-31 22.5-53t53.5-22h259q6 0 10-4t4-10.5q0-6.5-4-10.5t-10-4h-85V42q0-17-12-29T238 1h-41q-17 0-29.5 12T155 42v87h-50q-28 0-52.5 14T14 181Q0 205 0 233v162q0 28 14 52t38.5 38Q77 499 105 499h25L66 689H38q-16 0-27 11T0 727v44q0 16 11 27t27 11h177q16 0 27-11t11-27v-44q0-16-11-27t-27-11h-7l64-190h349q7 0 11-4t4-10q0-6-4-10.5t-11-4.5zM185 42q0-5 3.5-8.5T197 30h41q5 0 8.5 3.5T250 42v87h-65V42zm39 685v44q0 3-2.5 5.5T215 779H38q-4 0-6.5-2.5T29 771v-44q0-3 2.5-5.5T38 719h177q4 0 6.5 2.5t2.5 5.5zm-47-38H97l64-190h80l-64 190zm0 0z"/></svg>