<svg viewBox="0 0 1244 1083.753" xmlns="http://www.w3.org/2000/svg"><path d="M997 662q-7-20-26.5-27.5T933 636l-19 8q-5 2-7-3l-5-10q-2-3 0-5l1-1 2-2 18-8q19-8 25.5-28t-1.5-35q-8-18-26.5-25t-36.5 1l-17 8q-7 2-10-4l-27-61q49-43 71-103 19-48 17-98.5T895 171Q861 93 784 51q-5-3-11-1t-9 7q-3 5-1 11t7 8q67 37 98 107 19 42 20.5 87T874 358q-16 43-47 75.5T754 485q-42 19-87 20.5t-88-15q-43-16.5-76-47T451 371q-19-42-20-87t15.5-88q16.5-43 47-76T566 68q70-31 144-14 6 1 11-2t6.5-9q1.5-6-2-11.5T716 25q-40-9-82-4.5T554 42q-47 21-82 58t-53.5 85.5Q400 234 401.5 285t23 98q21.5 47 58.5 82t86 53q45 17 91 17 12 0 34-2l35 78q2 5 8 7t11.5 0q5.5-2 7.5-8t0-11l-33-72q21-6 43-15 18-8 40-23l25 55q6 14 20.5 19.5T879 562l17-7q7-4 14-1t10.5 9.5q3.5 6.5 0 14T911 588l-18 9q-13 5-18.5 18.5t.5 27.5l5 10q5 12 19 19 15 5 27-1l19-9q7-4 14.5-.5t10 10.5q2.5 7-.5 14t-10 10l-16 8q-14 6-19.5 20t.5 28l8 16q5 13 2 24l-12 43q-1 4-5 7l-1 1q-5 2-11 0l-40-20q-12-7-16-17l-66-145q-2-6-8-8t-11.5.5q-5.5 2.5-7.5 8t1 11.5l65 145q9 20 30 31l40 20q10 5 19 5 5 0 17-4 17-8 22-27l12-44q6-20-4-43l-7-16q-1-1 0-4v-1q0-2 4-5l16-7q18-8 25.5-26t.5-35zM427 487q-33 35-77 54.5T258 561q-62 0-114.5-30.5t-83.5-83Q29 395 29 333t31-114.5Q91 166 143.5 135T258 104q66 0 122 35 5 3 11 2t9-6q3-5 2-11t-6-10q-63-39-138-39-70 0-129 34.5t-94 94Q0 263 0 333q0 79 44 143.5T160 571v292q0 29 19 53l39 48q16 19 40 19t40-19l39-48q19-24 19-53v-30q0-18-13-33l-17-17v-2l15-15q8-9 8-21.5t-8-21.5l-15-15v-2l17-17q13-15 13-33v-85q52-21 92-64 4-4 4-10.5t-5-10.5q-5-4-10.5-3.5T427 487zM327 656q0 6-5 13l-17 16q-8 9-8 22t8 21l15 15v3l-15 14q-8 9-8 22t8 22l17 16q5 7 5 13v30q0 17-12 34l-40 49q-6 8-17 8t-17-8l-40-49q-12-17-12-34V581q37 10 69 10t69-10v75zM160 259q0 40 29 69t69.5 29q40.5 0 69-29t28.5-69.5q0-40.5-28.5-69t-69-28.5q-40.5 0-69.5 28.5T160 259zm167 0q0 28-20 48.5T258.5 328q-28.5 0-49-20.5T189 259q0-28 20-48t49-20q29 0 49 20t20 48zm338-141q-19-7-38.5-6t-36.5 9q-38 18-52 54-7 19-6.5 38.5t8.5 37q8 17.5 22.5 31t32 20q17.5 6.5 36 6.5t39.5-8q37-17 51-55t-2.5-74.5Q702 134 665 118zm-7 155q-26 11-53 2-24-8-38-37-12-26-1.5-52.5T602 148q13-7 28-7 11 0 24 5 26 9 38 35.5t2 53Q684 261 658 273z"/></svg>