<svg viewBox="0 0 1244 1083.753" xmlns="http://www.w3.org/2000/svg"><path d="M232 555q41 0 69.5-28.5T330 458q0-40-28.5-68.5t-69-28.5q-40.5 0-69 28.5T135 458q0 40 28.5 68.5T232 555zm0-160q26 0 44.5 18.5T295 458q0 26-18.5 44.5T232 521q-26 0-44-18.5T170 458q0-26 18-44.5t44-18.5zm709 316q-25 0-42 17.5T882 771q0 19-13.5 32T836 816H733v-50h96q25 0 42.5-18t17.5-43v-28q0-72-36-133t-97-97q-61-36-133-36-5-10-14.5-16.5T588 388h-84q-15 0-27 12v-11q10-5 16-14.5t6-20.5v-84q0-12-6-21.5T477 234v-24q0-39-19-72t-52-52q-33-19-72-19-43 0-78.5 24T203 155q-7 17-22 29-10 8-16 8h-50q-26 0-44 18.5T53 255v441q0 29 20.5 49.5T123 766h24v50H59q-24 0-41.5 17.5T0 875.5q0 24.5 17.5 42T59 935h777q44 0 82-22t60-60q22-38 22-82 0-25-17.5-42.5T941 711zm-86-34v28q0 11-7.5 19t-18.5 8H651q6-68 38-127.5T776 502q37 33 58 77 21 47 21 98zm-156 89v50h-49v-50h49zM499 428q0-5 5-5h84q5 0 5 5v83q0 19-13.5 33t-33 14q-19.5 0-33.5-14t-14-33v-83zm-34-158v84q0 2-2 3.5t-4 1.5h-82q-19 0-33-14t-14-33.5q0-19.5 14-33t33-13.5h82q2 0 4 1.5t2 3.5zm-350-43h50q14 0 35-14 23-17 34-45h1q12-30 39.5-48t59.5-18q30 0 54.5 14.5t39 39Q442 180 442 210v21h-65q-34 0-58 23.5T295 312q0 34 24 57.5t58 23.5h65v35q0 7 5 12t12 5h6v66q0 34 23.5 57.5T546 592q34 0 57.5-23.5T627 511v-66q67 2 120 36-57 49-88 107-37 68-43 144H265q-4-46-28.5-85.5t-64-64Q133 558 87 554V255q0-12 8.5-20t19.5-8zm500 539v50H265v-50h350zm-492-34q-15 0-25.5-10.5T87 696V589q56 6 96.5 46.5T230 732H123zm108 34v50h-49v-50h49zm605 134H59q-10 0-17.5-7T34 876q0-10 7.5-18t17.5-8h777q33 0 56.5-23t23.5-56q0-11 7.5-18t18-7q10.5 0 17.5 7t7 18q0 35-17.5 64.5t-47.5 47Q871 900 836 900z"/></svg>