<svg viewBox="0 0 1244 1083.753" xmlns="http://www.w3.org/2000/svg"><path d="M888 831v-61q0-38-22-69t-57-43l-66-24q-57-21-92-43-45-29-71-70h5q10 0 18.5-5t13.5-13q10-16 2-36-8-17-19-50l-2-7q-3-12-13-20t-23-8h-27V267q0-10-8.5-16t-17.5-3l-17 7 17-233q0-10-5.5-15.5T490 1H163q-9 0-14.5 6.5T143 23l9 62q1 8 7.5 13t14.5 3.5q8-1.5 13-7.5t4-14l-6-40h284l-18 229-44 16q-27 9-57 9H220l-6-44q-1-8-7.5-13t-14.5-3.5q-8 1.5-12.5 8T176 255l8 59v211q0 16-5 36l-29 95q-12 40-3 83l31 136q2 7 7 11.5t12 4.5h41v71h-5q-48 0-91-27-8-4-15.5-2t-11.5 9q-4 7-2.5 14.5T121 969q42 24 84 30 18 2 28 2h580q32 0 53.5-22t21.5-52q0-30-20-52 9-8 14.5-19.5T888 831zM695 658q-27 13-56 12t-53-17q-55-33-95-105-9-14-15-27h58q42 76 116 117 15 8 45 20zM582 482H377q-12 0-20.5-8T346 454q-2-12 7.5-22.5T376 421h185q8 33 21 61zM440 315l56-20v87h-56v-67zM188 667l28-95q7-21 7-47V333h127q26 0 51-6v55h-25q-23 0-42 14.5T309 434q-3 12-2 23 2 27 22.5 45.5T377 521h56q11 26 24 47 47 81 108 118 36 23 80 23 53 0 96-34l55 19q24 9 38.5 30t14.5 46v61q0 8-6 14.5t-15 6.5H604q-38 0-73-15l-125-52q-87-36-182-36h-34l-5-19q-7-35 3-63zm10 121q43 0 64.5 2t32.5 4v58h-82l-15-64zm79 174v-71h38q8 0 13.5-6t5.5-14v-69q26 6 58 20l124 51q34 14 68 17v72H277zm536 0H623v-71h191q14 0 24.5 10.5t10.5 25q0 14.5-10.5 25T813 962zM167 178q7 11 20 8t15-16q1-9-4-15.5t-13.5-7.5q-8.5-1-14 4.5t-6.5 13q-1 7.5 3 13.5z"/></svg>