<svg viewBox="0 0 1244 1083.753" xmlns="http://www.w3.org/2000/svg"><path d="M193 653q-34 33-53 73l-7 14L21 882q-4 4-3.5 10t5.5 9.5q5 3.5 9 3.5 8 0 12-5l113-143q0-1 2-3l7-16q18-37 47-64 4-4 4.5-9.5t-4-10.5q-4.5-5-10.5-5t-10 4zm773-99q-15-18-38.5-20T887 547l-8 7q-3-14-12-26-15-18-38.5-20T788 521l-7 6q-3-13-12-25-15-17-38.5-19T689 496l-112 95q-12-2-18-2H356q-58 0-108 26-6 2-7.5 7.5t.5 11q2 5.5 8.5 7.5t11.5 0q44-23 95-23h203q15 0 26 11t11 26.5q0 15.5-12 26.5t-26 11H427q-6 0-10.5 4.5T412 708q0 6 4.5 10t10.5 4h132q28 0 46-19l2-2 3-3h124q20 0 36-14l136-114q8-8 19.5-7t18.5 9.5q7 8.5 6 20t-9 18.5L727 792q-29 24-70 31l-27 3q-6 1-10 5.5t-3 10.5q1 6 5.5 9.5t9.5 3.5l28-3q48-6 86-38l214-181q17-15 19-38.5T966 554zm-258-36q9-7 20-6t18 9q7 8 7 18t-7 18L625 659v-4q0-29-21-48l104-89zm-48 150l146-124q9-7 20-6t18.5 9q7.5 8 6.5 19.5T841 585l-90 77q-6 6-17 6h-74zm-92 165l-150 18q-5 1-10 6l-98 117q-4 4-3.5 10t5.5 10q5 4 9 4 7 0 12-5l94-113 144-18q6-1 10-5.5t3-10.5q-1-6-5.5-10t-10.5-3zM452 420q-43-67-86-133-22-30-28-70-1-6-6-9.5t-11-2.5q-6 1-9.5 6t-2.5 11q6 43 33 81l83 129v22q0 9 5 16v50q0 18 13 30.5t30 12.5h52q17 0 30-12.5t13-30.5v-50q5-7 5-16v-22l83-129q35-49 35-110 0-47-22-89.5T607 34Q567 7 518.5 2T423 16q-35 14-61.5 40T322 116q-8 20-11 38-2 6 1.5 11t9.5 6q6 1 11-2t7-9q3-17 9-33 11-29 33.5-51T434 43q41-16 82-12t74.5 27.5Q624 82 643 117.5t19 75.5q0 52-30 94l-86 133q-2 4-2 8v22h-4l9-141h14q17 0 29-12.5t12-28.5v-2q0-16-12-28t-29-12q-17 0-28.5 11T522 264l-1 15h-44l-1-15q-1-16-12.5-27t-28-11q-16.5 0-28.5 11.5T395 266v2q0 17 12 29t28 12h14l9 141h-4v-22q0-4-2-8zm99-154q1-5 4.5-8t8-3q4.5 0 7.5 3t3 8v2q0 4-3 7.5t-8 3.5h-12v-13zm-116 13q-4 0-7.5-3.5T424 268v-2q0-5 3.5-8t7.5-3q4 0 7.5 3t4.5 8l1 13h-13zm103 241q0 6-4 10t-9 4h-52q-5 0-9-4t-4-10v-40h78v40zm-59-211h40l-8 141h-24l-8-141zm274-100q0 6 4 10.5t10 4.5h35q6 0 10.5-4.5T817 209q0-6-4.5-10.5T802 194h-35q-6 0-10 4.5t-4 10.5zm-9-78h5l33-12q5-2 7.5-8t.5-11.5q-2-5.5-7.5-8T771 91l-32 12q-6 2-8.5 7.5T730 122q5 9 14 9zm-5 184l32 12 6 1q4 0 8-3t5.5-7.5q1.5-4.5-1-10.5t-7.5-8l-33-12q-5-2-11 .5t-8 8.5q-2 6 .5 11.5t8.5 7.5zm-543-91h35q6 0 10-4.5t4-10.5q0-6-4-10.5t-10-4.5h-35q-6 0-10.5 4.5T181 209q0 6 4.5 10.5T196 224zm20-105l33 12h5q10 0 14-9 1-6-1.5-11.5T259 103l-32-12q-6-2-11.5.5t-7.5 8q-2 5.5.5 11.5t7.5 8zm52 177q-2-6-8-8.5t-11-.5l-33 12q-5 2-7.5 8t-.5 11q3 10 13 10l6-1 32-12q5-2 7.5-7.5T268 296z"/></svg>