<svg viewBox="0 0 1244 1083.753" xmlns="http://www.w3.org/2000/svg"><path d="M708 429q0-5-3.5-8.5T696 417q-5 0-8 3.5t-3 8.5q0 5 3 8.5t8 3.5q5 0 8.5-4t3.5-8zm29 48q5 0 8.5-3t3.5-8q0-5-3.5-8.5T737 454q-5 0-8.5 3.5t-3.5 8q0 4.5 3.5 8t8.5 3.5zm-41 91q0 5 3.5 8.5t8.5 3.5q5 0 8.5-3.5t3.5-8.5q0-5-3.5-8t-8.5-3q-5 0-8.5 3t-3.5 8zm266 274H836q-33-40-62-68-46-43-69-43t-69 43q-29 28-62 68H243l-23-17 487-486q8-9 8-21.5t-8-21.5q-9-8-21.5-8t-21.5 8L171 789 61 707q-12-9-28-6.5t-25.5 15q-9.5 12.5-7 28T16 769l191 142q10 7 23 7h40v26q0 11 8.5 19.5T298 972h24q11 0 19.5-8.5T350 944v-26h475v26q0 11 8.5 19.5T853 972h23q12 0 20.5-8.5T905 944v-26h57q16 0 27-11t11-27q0-16-11-27t-27-11zm-257-95q16 0 50 31 29 26 61 64H594q32-38 61-64 34-31 50-31zm-30-440q6-4 11-4t9.5 4q4.5 4 4.5 10t-5 11L553 470l-20-20 142-143zM522 461l20 20-334 335-24-18 338-337zm440 442H230q-8 0-13-5L25 756q-7-5-8.5-14.5T20 725q5-7 14.5-8.5T52 720l184 137q3 1 4 1h722q9 0 15.5 6.5t6.5 16q0 9.5-6.5 16T962 903zM526 294q0 4 2.5 6t5.5 2q3 0 5.5-2t2.5-6q0-12 3-22 3-5 8-15l1-1q7-11 10-19 5-13 5-28t-5-28q-3-8-10-19l-2-3q-5-9-7-15-3-9-3-21t3-22q3-5 8-15l1-1q7-11 10-19 5-13 5-28 0-8-7.5-8t-7.5 8q0 13-4 22-2 7-9 16v1q-8 11-10 18-5 12-5 28t5 28q2 7 10 18v2q7 10 9 16 4 10 4 22.5t-4 21.5q-2 7-9 17t-10 18q-5 13-5 28zm97-76q0 3 2.5 5.5t5.5 2.5q3 0 5.5-2.5t2.5-5.5q0-8 3-14 2-4 8-11 8-8 11-14 5-9 5-21 0-20-16-36l-1-1q-5-6-7-10-3-5-3-13t3-14q2-4 8-11 8-8 11-14 5-9 5-21 0-8-7.5-8t-7.5 7.5q0 7.5-3 12.5-2 4-7 9l-2 3q-8 9-11 15-5 9-5 20.5t5 20.5q3 6 10 14l2 2q6 7 8 10 3 7 3 14t-3 12q-2 4-7 9l-2 3q-8 9-11 15-5 9-5 21z"/></svg>