<svg viewBox="0 0 1244 1083.753" xmlns="http://www.w3.org/2000/svg"><path d="M202 660q-19 26-34 58-3 5-1 11t7 8q5 2 8 2t7-2.5q4-2.5 5-6.5 45-93 134-148.5T521 526h41q6 0 10.5-4.5T577 511q0-6-4.5-10.5T562 496h-41q-55 0-108 15.5T313 556l-23 15-33-33q-12-12-27.5-12T202 538l-33 33q-11 11-11 27.5t11 27.5l33 34zm-12-68l33-33q3-3 7.5-3t5.5 3l31 30q-27 24-46 47l-31-31q-3-2-3-6t3-7zm716-247H705q-19 0-33-14t-14-33.5q0-19.5 14-33t33-13.5h51q35 0 59.5-25t24.5-59V16q0-6-4-10.5T826 1q-6 0-10.5 4.5T811 16v151q0 22-16 38.5T756 222h-51q-31 0-53.5 22T629 297.5q0 31.5 22.5 54T705 374h201q27 0 46 19t19 46v93q0 26-19 45t-46 19h-22l-3-14q-4-15-15.5-24t-26.5-9h-23q-6-23-25-38t-42-15H630q-6 0-10 4.5t-4 10.5q0 6 4 10.5t10 4.5h119q14 0 24.5 8.5T787 556l54 219q4 13 1.5 27.5T832 829l-49 73H111l55-114q3-5 1-11t-7.5-8.5Q154 766 148 768t-8 7L78 902H47q-19 0-33 13.5T0 949v5q0 19 14 33t33 14h774q20 0 34-14t14-33v-5q0-19-14-33t-34-14h-2l37-56q11-17 15-37.5t-1-40.5l-24-95h11q17 0 27.5-12.5T892 629l-1-3h15q39 0 66.5-28t27.5-66v-93q0-39-27.5-66.5T906 345zm-67 604v5q0 7-5 12.5t-13 5.5H47q-7 0-12.5-5.5T29 954v-5q0-8 5.5-13t12.5-5h774q8 0 13 5t5 13zm23-307l-1.5 1q-1.5 1-3.5 1h-18l-16-66h16q5 0 8.5 3t4.5 8l11 47q1 4-1 6zm-90 109q13-16 7-36l-26-107q-4-16-17.5-26.5T706 571h-89q-91 0-169 49-50 31-87 80-7 10-7.5 21.5T358 744q5 11 15 17t22 6h344q20 0 33-16zm-131-13H520v-19q0-5 3.5-8.5t8.5-3.5h97q5 0 8.5 3.5t3.5 8.5v19zm108-5q-5 5-10 5h-69v-19q0-17-12-29t-29-12h-97q-17 0-29 12t-12 29v19h-96q-6 0-10-6l-1-1q-4-7 1-14 33-44 79-72 70-44 153-44h89q7 0 12 4t7 10l26 107q1 6-2 11zM185 853q-6 0-10.5 4.5T170 868q0 6 4.5 10.5T185 883h5q6 0 10.5-4.5T205 868q0-6-4.5-10.5T190 853h-5zm70 0q-6 0-10.5 4.5T240 868q0 6 4.5 10.5T255 883h5q7 0 11-4.5t4-10.5q0-6-4-10.5t-11-4.5h-5zm70 0q-6 0-10.5 4.5T310 868q0 6 4.5 10.5T325 883h6q6 0 10-4.5t4-10.5q0-6-4-10.5t-10-4.5h-6zm70 0q-6 0-10 4.5t-4 10.5q0 6 4 10.5t10 4.5h6q6 0 10-4.5t4-10.5q0-6-4-10.5t-10-4.5h-6zm70 0q-6 0-10 4.5t-4 10.5q0 6 4 10.5t10 4.5h6q6 0 10-4.5t4-10.5q0-6-4-10.5t-10-4.5h-6zm70 0q-6 0-10 4.5t-4 10.5q0 6 4 10.5t10 4.5h6q6 0 10-4.5t4-10.5q0-6-4-10.5t-10-4.5h-6zm70 0q-6 0-10 4.5t-4 10.5q0 6 4 10.5t10 4.5h6q6 0 10-4.5t4-10.5q0-6-4-10.5t-10-4.5h-6zm71 0q-7 0-11 4.5t-4 10.5q0 6 4 10.5t11 4.5h5q6 0 10.5-4.5T696 868q0-6-4.5-10.5T681 853h-5zm70 0q-6 0-10.5 4.5T731 868q0 6 4.5 10.5T746 883h5q6 0 10.5-4.5T766 868q0-6-4.5-10.5T751 853h-5z"/></svg>