<svg viewBox="0 0 1244 1083.753" xmlns="http://www.w3.org/2000/svg"><path d="M996 491L852 347V164q0-6-4.5-10.5T837 149h-88q-6 0-10 4.5t-4 10.5q0 6 4 10t10 4h74v175q0 6 4 10l138 138-138 138q-4 4-4 10v174H648q-5 0-10 5L500 966 362 828q-5-5-10-5H178V649q0-5-5-10L35 501l138-138q5-5 5-10V178h174q6 0 10-4L500 36l138 138q4 4 10 4h33q6 0 10-4t4-10q0-6-4-10.5t-10-4.5h-27L510 5q-4-4-10-4t-10 4L346 149H163q-6 0-10.5 4.5T148 164v183L4 491q-4 4-4 10t4 10l144 144v183q0 6 4.5 10.5T163 853h183l144 144q4 4 10.5 4t9.5-4l144-144h183q6 0 10.5-4.5T852 838V655l144-144q4-4 4-10t-4-10zM758 228H622L510 117q-4-5-10-5t-10 5L378 228H242q-6 0-10.5 4.5T227 243v136L116 491q-4 4-4 10t4 10l111 112v136q0 6 4.5 10.5T242 774h29q6 0 10.5-4.5T286 759q0-6-4.5-10t-10.5-4h-15V616q0-6-4-10L147 501l8-8q15-15 34.5-23t41-7q21.5 1 41 9.5T305 497q75 81 169 130 123 65 270 68v50H616q-7 0-11 4L500 854 395 749q-4-4-10-4h-45q-7 0-11 4t-4 10q0 6 4 10.5t11 4.5h38l112 111q4 4 10.5 4t9.5-4l112-111h136q6 0 10.5-4.5T773 759V623l111-112q5-4 5-10t-5-10L773 379V243q0-6-4.5-10.5T758 228zm-10 378q-4 4-4 10v50q-114-3-210-43 91-49 161-126 31-32 75-34 21-1 40.5 7t34.5 23l8 8-105 105zm39-172h-18q-27 0-52 11.5T673 477q-75 83-173 131-100-49-173-131-19-20-44-31.5T231 434h-17l38-38q4-4 4-11V257h129q6 0 10-4l105-105 105 105q4 4 11 4h128v128q0 7 4 11l39 38zM327 578q0-6-4-10t-10-4h-20q-6 0-10.5 4t-4.5 10q0 6 4.5 10.5T293 593h20q6 0 10-4t4-11zm-14 134h19q6 0 10.5-4t4.5-10q0-6-4.5-10.5T332 683h-19q-7 0-11 4.5t-4 10.5q0 6 4 10t11 4zm93-41h19q6 0 10.5-4.5T440 656q0-6-4.5-10t-10.5-4h-19q-6 0-10.5 4t-4.5 10q0 6 4.5 10.5T406 671zm96 81q6 0 10.5-4t4.5-10q0-6-4.5-10.5T502 723h-20q-6 0-10 4.5t-4 10.5q0 6 4 10t10 4h20zm154-166h-20q-6 0-10.5 4.5T621 601q0 6 4.5 10t10.5 4h20q6 0 10-4t4-10q0-6-4-10.5t-10-4.5zm108-77h-20q-6 0-10.5 4t-4.5 10q0 6 4.5 10.5T744 538h20q6 0 10.5-4t4.5-10.5q0-6.5-4.5-10.5t-10.5-4zM625 364q-8-14-22.5-22t-31-8q-16.5 0-31 8.5T518 365q-18 1-30 14.5T475 412q-9-9-13-18-15-26-7-55t34-44q14-8 31-10 5 0 9-3.5t5-8.5q1-5-2-10t-8-6q-27-10-56-7t-54 17q-37 21-55.5 60T348 407q1 6 6 9.5t11 2.5q6-1 9.5-6t2.5-11q-6-32 8-62t43-47q10-6 30-12-27 24-33.5 60t11.5 68q13 24 37.5 37.5T525 460h27q-8 8-20 15-31 18-66.5 12.5T404 456q-4-4-10-4t-10 4q-4 4-4.5 10t3.5 11q19 20 44.5 30.5T480 518q36 0 67-18 25-15 44-40h31q20 0 34-14t14-33.5q0-19.5-13-33T625 364zm-3 67h-99q-7 0-12.5-5.5T505 412q0-8 5.5-13.5T523 393l2 1q12 0 15.5-9.5T553 369q9-6 19-6t18.5 6q8.5 6 13 16.5T619 394l3-1q8 0 13.5 5.5t5.5 13q0 7.5-5.5 13.5t-13.5 6z"/></svg>