<svg viewBox="0 0 1244 1083.753" xmlns="http://www.w3.org/2000/svg"><path d="M9 606h982q4 0 6.5-2.5t2.5-6.5q0-4-2.5-6.5T991 588H661q36-33 56-79h107q3 0 5.5-2.5t2.5-6q0-3.5-2.5-6T824 492H723q12-36 12-76 0-20-3-39-2-8-8-8-3 0-5.5 2t-3.5 5q-10 52-51 85t-94 33q-40 0-74-20t-54-54q-20-34-20-74 0-32 12-57h53q3 0 5.5-2.5t2.5-6.5q0-4-2.5-6.5T487 271h-44q9-15 23-29h121q3 0 5.5-2.5t2.5-6.5q0-4-2.5-6.5T587 224H486q25-17 54-23 7-2 7-8.5t-7-8.5q-19-3-40-3-69 0-126.5 37T287 315h-93q-3 0-5.5 2.5T186 324q0 4 2.5 6.5t5.5 2.5h86q-15 39-15 83 0 59 26 109h-52q-4 0-6.5 2.5t-2.5 6q0 3.5 2.5 6t6.5 2.5h62q14 23 38 46H9q-4 0-6.5 2.5T0 597q0 4 2.5 6.5T9 606zm273-190q0-58 29-108t78-79.5Q438 199 496 198q-42 21-66.5 61T405 345q0 46 22 84t60 60.5q38 22.5 83 22.5 48 0 88-25t60-67q-1 50-22.5 93.5T634 588H366q-40-31-62-76t-22-96zm709 227H9q-4 0-6.5 2.5T0 652q0 4 2.5 6t6.5 2h982q4 0 6.5-2t2.5-6q0-4-2.5-6.5T991 643zm-99 97H606q-4 0-6.5 2t-2.5 6q0 4 2.5 6.5t6.5 2.5h286q4 0 6.5-2.5t2.5-6.5q0-4-2.5-6t-6.5-2zm-440 0H196q-3 0-5.5 2t-2.5 6q0 4 2.5 6.5t5.5 2.5h256q3 0 5.5-2.5t2.5-6.5q0-4-2.5-6t-5.5-2zm-174 48H34q-4 0-6.5 2.5T25 797q0 4 2.5 6.5T34 806h244q3 0 5.5-2.5t2.5-6.5q0-4-2.5-6.5T278 788zm351 16H482q-3 0-5.5 2.5t-2.5 6q0 3.5 2.5 6t5.5 2.5h147q4 0 6.5-2.5t2.5-6q0-3.5-2.5-6T629 804zM375 536q-26-20-40.5-49.5T320 423q0-4-2.5-6t-6.5-2q-4 0-6.5 2t-2.5 6q0 37 16.5 70.5T365 550q1 1 5 1t6.5-3q2.5-3 2-6.5T375 536zM74 333h67q4 0 6.5-2.5t2.5-6.5q0-4-2.5-6.5T141 315H74q-4 0-6.5 2.5T65 324q0 4 2.5 6.5T74 333zm30 72q0 3 2.5 5.5t6.5 2.5h79q4 0 6.5-2.5t2.5-6q0-3.5-2.5-6T192 396h-79q-4 0-6.5 2.5T104 405z"/></svg>