<svg viewBox="0 0 1244 1083.753" xmlns="http://www.w3.org/2000/svg"><path d="M767 69V10q0-4-2.5-6.5t-6-2.5q-3.5 0-6 2.5T750 10v58h-30V10q0-4-2.5-6.5t-6-2.5q-3.5 0-6 2.5T703 10v58h-30V10q0-4-2.5-6.5t-6-2.5q-3.5 0-6 2.5T656 10v58h-30V10q0-4-2.5-6.5t-6-2.5q-3.5 0-6 2.5T609 10v58h-30V10q0-4-2.5-6.5t-6-2.5q-3.5 0-6 2.5T562 10v58h-30V10q0-4-2.5-6.5t-6-2.5q-3.5 0-6 2.5T515 10v58h-30V10q0-4-2.5-6.5t-6-2.5q-3.5 0-6 2.5T468 10v58h-30V10q0-4-2.5-6.5t-6-2.5q-3.5 0-6 2.5T421 10v58h-30V10q0-4-2.5-6.5t-6-2.5q-3.5 0-6 2.5T374 10v58h-30V10q0-4-2.5-6.5t-6-2.5q-3.5 0-6 2.5T327 10v58h-30V10q0-4-2.5-6.5t-6-2.5q-3.5 0-6 2.5T280 10v58h-30V10q0-4-2.5-6.5t-6-2.5q-3.5 0-6 2.5T233 10v59q-5 3-5 8v846q0 5 5 8v61q0 4 2.5 6.5t6 2.5q3.5 0 6-2.5t2.5-6.5v-60h30v60q0 4 2.5 6.5t6 2.5q3.5 0 6-2.5t2.5-6.5v-60h30v60q0 4 2.5 6.5t6 2.5q3.5 0 6-2.5t2.5-6.5v-60h30v60q0 4 2.5 6.5t6 2.5q3.5 0 6-2.5t2.5-6.5v-60h30v60q0 4 2.5 6.5t6 2.5q3.5 0 6-2.5t2.5-6.5v-60h30v60q0 4 2.5 6.5t6 2.5q3.5 0 6-2.5t2.5-6.5v-60h30v60q0 4 2.5 6.5t6 2.5q3.5 0 6-2.5t2.5-6.5v-60h30v60q0 4 2.5 6.5t6 2.5q3.5 0 6-2.5t2.5-6.5v-60h30v60q0 4 2.5 6.5t6 2.5q3.5 0 6-2.5t2.5-6.5v-60h30v60q0 4 2.5 6.5t6 2.5q3.5 0 6-2.5t2.5-6.5v-60h30v60q0 4 2.5 6.5t6 2.5q3.5 0 6-2.5t2.5-6.5v-60h30v60q0 4 2.5 6.5t6 2.5q3.5 0 6-2.5t2.5-6.5v-61q5-3 5-8V77q0-5-5-8zM246 914V322h22q4 0 6.5-2.5t2.5-6.5q0-4-2.5-6t-6.5-2h-22V195h45q4 0 6.5-2.5t2.5-6.5q0-4-2.5-6.5T291 177h-45v-24h186q4 0 6.5-2.5t2.5-6.5q0-4-2.5-6.5T432 135H246v-17h18q4 0 6.5-2.5t2.5-6.5q0-4-2.5-6.5T264 100h-18V86h508v14h-34q-4 0-6.5 2.5T711 109q0 4 2.5 6.5t6.5 2.5h34v17H592q-3 0-5.5 2.5T584 144q0 4 2.5 6.5t5.5 2.5h162v20h-71q-4 0-6.5 2.5T674 182q0 4 2.5 6.5t6.5 2.5h71v81h-20q-4 0-6.5 2.5t-2.5 6q0 3.5 2.5 6t6.5 2.5h20v625H246zm467-544h-20q-5-62-89-142-43-40-97-78l-2-1q-5-2-10 0l-2 1q-54 38-97 78-84 80-89 142h-20q-4 0-6.5 2.5T278 379v495q0 4 2.5 6.5t6.5 2.5h426q4 0 6.5-2.5t2.5-6.5V379q0-4-2.5-6.5T713 370zm-32 495V736q0-4-2.5-6.5t-6-2.5q-3.5 0-6 2.5T664 736v129H334V633q0-8-8-8-4 0-6.5 2t-2.5 6v232h-22V429h57q4 0 6.5-2.5t2.5-6.5q0-4-2.5-6.5T352 411h-57v-24h20q4 0 6.5-2t2.5-6q0-56 77-132 43-41 99-80 56 39 99 80 77 76 77 132 0 4 2.5 6t6.5 2h20v65h-26q-4 0-6.5 2.5T670 461q0 4 2.5 6.5t6.5 2.5h26v395h-24zM505 232q-5-3-10 0-12 7-33 24-35 28-57 55-30 37-30 68 0 3 2.5 5.5t6.5 2.5q4 0 6-2.5t2-5.5q0-33 46-79 25-25 62-51 37 26 62 51 46 46 46 79 0 3 2.5 5.5t6 2.5q3.5 0 6-2.5t2.5-5.5q0-31-30-68-22-27-57-55-21-17-33-24zM326 532q-4 0-6.5 2.5T317 541v49q0 4 2.5 6.5t6.5 2.5q4 0 6-2.5t2-6.5v-49q0-4-2-6.5t-6-2.5zm346 103q-3 0-5.5 2.5T664 644v49q0 4 2.5 6t6 2q3.5 0 6-2t2.5-6v-49q0-4-2.5-6.5T672 635zM371 100h-43q-4 0-6.5 2.5T319 109q0 4 2.5 6.5t6.5 2.5h43q4 0 6.5-2.5t2.5-6.5q0-4-2.5-6.5T371 100zm106 9q0-4-2-6.5t-6-2.5h-43q-4 0-6.5 2.5T417 109q0 4 2.5 6.5t6.5 2.5h43q4 0 6-2.5t2-6.5zm43 9h49q4 0 6.5-2.5t2.5-6.5q0-4-2.5-6.5T569 100h-49q-4 0-6 2.5t-2 6.5q0 4 2 6.5t6 2.5zm104 0h37q4 0 6.5-2.5t2.5-6.5q0-4-2.5-6.5T661 100h-37q-4 0-6.5 2.5T615 109q0 4 2.5 6.5t6.5 2.5z"/></svg>