<svg viewBox="0 0 1244 1083.753" xmlns="http://www.w3.org/2000/svg"><path d="M274 373q-32 0-55.5 23.5T195 452q0 4 2.5 6.5t6.5 2.5q4 0 6.5-2.5t2.5-6.5q0-26 18-43.5t43-17.5q4 0 6.5-2.5t2.5-6.5q0-4-2.5-6.5T274 373zM834 1q-4 0-6.5 2.5T825 10v325H637v-6q0-11-8-19t-19-8h-20v-72q27-13 39-39h48q9 18 26 28.5t37 10.5q29 0 49.5-20.5T810 160q0-29-20.5-50T740 89q-20 0-37 10.5T677 128h-48q-9-20-28-32.5T559 83q-23 0-41.5 12T490 128h-48q-9-18-26-28.5T379 89q-29 0-50 21t-21 50q0 29 21 49.5t50 20.5q20 0 37-10.5t26-28.5h48q12 26 39 39v72h-20q-11 0-19.5 8t-8.5 19v6H274q-32 0-59 15.5T172 393q-16 27-16 59v120h-10q-11 0-19 8.5t-8 19.5v103q0 11 8 19.5t19 8.5h209q12 0 20-8.5t8-19.5V600q0-11-8-19.5t-20-8.5h-12v-35q0-14 10.5-25t25.5-11h102v10q0 11 8.5 19t19.5 8h101q11 0 19-8t8-19v-10h188v491q0 4 2.5 6.5t6 2.5q3.5 0 6-2.5t2.5-6.5V10q0-4-2.5-6.5T834 1zM504 180q-3-6-8-6h-60q-6 0-8 5-6 16-19 25t-30 9q-22 0-37.5-15.5T326 160q0-22 15.5-37.5T379 107q16 0 29.5 9t19.5 24q2 6 8 6h60q4 0 8-6 6-18 21-28.5t34-10.5q19 0 34.5 10.5T615 140q1 2 3.5 4t4.5 2h60q4 0 8-6 6-15 19.5-24t29.5-9q22 0 37.5 15.5T793 160q0 22-15.5 37.5T740 213q-17 0-30-9t-19-25q-3-5-8-5h-60q-6 0-8 6-6 17-21.5 28T559 219q-19 0-34-11t-21-28zm42 55q5 1 13.5 1t12.5-1v67h-26v-67zM365 600v70H249q-4 0-6.5 2.5T240 679q0 4 2.5 6t6.5 2h116v16q0 4-2.5 7t-7.5 3H146q-4 0-7-3t-3-7v-66h139q4 0 6-2.5t2-6.5q0-4-2-6.5t-6-2.5H136v-19q0-4 3-7t7-3h209q5 0 7.5 2.5t2.5 7.5zm14-116q-22 0-37.5 15.5T326 537v35H174V452q0-41 29.5-70.5T274 352h207v94H347q-4 0-6.5 2t-2.5 6q0 4 2.5 6.5t6.5 2.5h134v21H379zm241 27q0 4-3 7t-7 3h-71V376q0-3-2.5-5.5t-6-2.5q-3.5 0-6 2.5T522 376v145h-13q-4 0-7-3t-3-7V329q0-4 3-7t7-3h101q4 0 7 3t3 7v182zm17-27v-40h76q4 0 6.5-2.5t2.5-6.5q0-4-2.5-6.5T713 426h-76v-32h130q4 0 6.5-2.5t2.5-6q0-3.5-2.5-6T767 377H637v-25h188v132H637zM251 751q-24 0-45 33-18 27-30 69-10 37-10 60 0 35 25 60t60 25q35 0 60-25t25-60q0-23-11-60-12-42-29-69-22-33-45-33zm0 230q-28 0-48-20t-20-48q0-23 10.5-57.5T219 797q17-28 32-28t32 28q15 24 25 58.5t10 57.5q0 28-19.5 48T251 981zm0-30q-16 0-27-11t-11-27q0-4-2.5-6.5t-6-2.5q-3.5 0-6 2.5T196 913q0 23 16 39t39 16q4 0 6.5-2.5t2.5-6q0-3.5-2.5-6T251 951zm312-833q0-4-2.5-6.5T554 109q-12 0-21.5 7T519 134q-3 8 5 11l3 1q2 0 4.5-2t3.5-4q2-6 7.5-10t11.5-4q4 0 6.5-2.5t2.5-5.5zm310 516q-4 0-6.5 2.5T864 643v349q0 4 2.5 6.5t6 2.5q3.5 0 6-2.5t2.5-6.5V643q0-4-2.5-6.5T873 634z"/></svg>