<svg viewBox="0 0 1244 1083.753" xmlns="http://www.w3.org/2000/svg"><path d="M58 421q0-4-2.5-6.5T49 412q-4 0-6.5 2.5T40 421q0 94 48 174t130 124q1 1 5 1t7-5q2-3 1-6.5t-5-5.5q-77-42-122.5-118T58 421zm818-26q-12-36-41-62.5T768 297l-13-60q14-9 14-27 0-12-7-21t-18-12v-49q0-3-2.5-5.5T735 120q-4 0-6.5 2.5T726 128v49q-11 3-18 12t-7 21q0 18 14 27l-13 60q-38 9-67 35.5T594 395h-2q-5 0-8 4-1 2-1 7H359q-7 0-9 8-1 9 3 18 8 16 31 24l4 2q177 62 209 143-4 14-7 21-37 9-72 9-82 0-153-41-68-41-109-109-41-71-41-153 0-74 34-139t93-108q59-43 131-53 4-1 6-3.5t2-5.5q0-7-8-9-25-3-53-3-114 0-212 57-95 56-151 151Q0 312 0 426q0 57 17 113.5T66 647q62 96 156 149l-3 6h-1q-20 34-20 72 0 43 24 78h-80q-4 0-6.5 2.5T133 961q0 17 8 25.5t18 8.5h320q11 0 18.5-8.5T505 961q0-4-2.5-6.5T496 952h-80q24-35 24-78 0-16-3-29 46-2 79-10 0 36 11 64 8 24 26 48 11 14 39 44l2 2q4 2 7 2h268q3 0 7-2l2-2q28-30 39-45 18-24 27-49 10-29 10-66 0-71-32-132 33-4 54-27 14-16 20-40 4-14 4-22V404q0-4-2.5-6.5T991 395H876zm66 198v5q-1 6-3 12-3 8-9 14-13 14-42 16-27-54-27-118 0-36 9-70h72v141zm-316-84q-1-50-20-96h258q-18 45-21 96H626zm109-316q7 0 11.5 5t4.5 12q0 7-4.5 11.5T735 226q-7 0-11.5-4.5T719 210q0-7 4.5-12t11.5-5zm-24 121q5-2 7-7l14-63h6l14 63q2 5 7 7 34 6 60 27.5t38 53.5H613q12-31 38.5-53t59.5-28zM394 441l-4-2q-17-5-21-15h222q18 46 18 98 0 24-5 52-46-76-210-133zm-11 321H255v-2q2-16 2-24 0-39-22-74h168q-22 35-22 74 0 8 2 24v2zm96 215H159q-5 0-7-7h334q-2 7-7 7zm-86-25H245q-10-12-19-29h77q4 0 6.5-2.5t2.5-6.5q0-4-2.5-6.5T303 905h-83q-4-13-4-31 0-33 17-62 10-13 17-33h138q7 19 15 31 0 1 1 1 18 27 18 63 0 44-29 78zm26-151h-1q-19-30-19-65 0-45 29-77 4-4 1.5-9.5T421 644H216q-5 0-7.5 6t1.5 9q29 32 29 77 0 24-9 44-97-56-154.5-152T18 425q0-107 54-199 52-90 141-144 92-55 199-57-79 27-136 92-38 43-58.5 97.5T197 328q0 87 44 162 42 73 115 115 75 44 162 44 25 0 63-7-10 21-20 34v1q-41 62-44 140-39 10-85 10-8-18-13-26zm479 141H725q-4 0-6.5 2.5T716 951q0 4 2.5 6.5t6.5 2.5h157l-16 17H604q-24-24-33-37-16-19-24-38h59q4 0 6.5-2.5t2.5-6.5q0-4-2.5-6.5T606 884h-65q-5-17-6-37h275q4 0 6.5-2.5t2.5-6.5q0-4-2.5-6.5T810 829H534q2-79 42-143 24-35 37-76t14-84h216q2 87 49 157 44 67 44 148 0 36-10 64-9 24-28 47zm14-261q-2-4-5-7v-1q-5-7-10-16 29-3 46-20 11-12 15-28 2-9 2-16V443q0-4-2.5-6.5T951 434h-76l9-21h98v197q0 18-9 36-18 34-61 35z"/></svg>