<svg viewBox="0 0 1244 1083.753" xmlns="http://www.w3.org/2000/svg"><path d="M971 534h-13V164q0-16-13-24-2-33-12-68-16-61-37-61t-37 61q-10 43-12 68-13 8-13 24v370h-41q-2-76-40.5-141T651 290q-66-39-142-41v-60q23-3 38-20 20-18 20-47t-20-47l-6-6q-2-2-5.5-1.5T530 70q-5 5-1 11 8 11 7 24t-11 23q-10 10-25 10t-25-10q-10-10-11-23t7-24q4-6-1-11-2-2-5.5-2.5T459 69l-6 6q-19 19-19 46.5t19 47.5q15 17 39 20v60q-77 2-142 41-64 38-102.5 103T207 534h-41V164q0-16-13-24-2-25-12-68-16-61-37-61T67 72q-10 43-12 68-13 8-13 24v370H29q-12 0-20.5 8.5T0 563v399q0 12 8.5 20.5T29 991h942q12 0 20.5-8.5t8.5-20.5V563q0-12-8.5-20.5T971 534zM851 177v-13q0-5 3.5-8.5t8.5-3.5h66q5 0 8.5 3.5t3.5 8.5v13h-90zm45-149q4 2 8 12 7 14 13 39 5 19 10 52l1 4h-63q2-29 10-56 6-25 13-39 4-10 8-12zm-45 166h16v73q0 3 2 5.5t6 2.5q4 0 6.5-2.5t2.5-5.5v-73h28v145q0 4 2.5 6t6 2q3.5 0 6-2t2.5-6V194h12v340h-90V194zm-401-74q5 12 13 20 15 15 37.5 15t37.5-15q7-8 12-20v2q0 21-14 35.5T500.5 172q-21.5 0-36-14.5T450 120zM227 502h72q4 0 6.5-2.5t2.5-6q0-3.5-2.5-6T299 485h-69q13-62 52-112t96-78.5Q435 266 500 266t122 28.5q57 28.5 96 78.5t52 112H426q-4 0-6.5 2.5t-2.5 6q0 3.5 2.5 6t6.5 2.5h347q3 16 3 32H224q0-16 3-32zM59 177v-13q0-5 3.5-8.5T71 152h66q5 0 8.5 3.5t3.5 8.5v13H59zm45-149q4 2 8 12 7 14 13 39 8 27 10 56H72l1-4q5-33 10-52 6-25 13-39 4-10 8-12zM59 194h13v156q0 3 2.5 5.5T81 358q4 0 6-2.5t2-5.5V194h25v34q0 4 2.5 6t6 2q3.5 0 6-2t2.5-6v-34h18v340H59V194zM29 551h942q5 0 8.5 3.5t3.5 8.5v29H17v-29q0-5 3.5-8.5T29 551zm236 423h-77V827q0-4-2.5-6.5t-6-2.5q-3.5 0-6 2.5T171 827v147h-12V809q0-22 15.5-37.5T212 756q22 0 37.5 15.5T265 809v165zm313 0H422V741q0-32 23-54.5t55-22.5q32 0 55 22.5t23 54.5v233zm263 0h-13V828q0-3-2.5-5.5T819 820q-4 0-6.5 2.5T810 828v146h-75V809q0-22 15.5-37.5T788 756q22 0 37.5 15.5T841 809v165zm130 0H859V809q0-29-21-49.5T788 739q-29 0-49.5 20.5T718 809v165H595V741q0-39-28-66.5T500 647q-39 0-67 27.5T405 741v233H283V809q0-29-21-49.5T212 739q-29 0-49.5 20.5T142 809v165H29q-5 0-8.5-3.5T17 962V723h21v215q0 4 2.5 6.5t6 2.5q3.5 0 6-2.5T55 938V723h32q4 0 6.5-2.5T96 715q0-3-2.5-6t-6.5-3H17v-97h966v41H807q-4 0-6.5 2.5T798 658q0 3 2.5 6t6.5 3h176v54h-62q-3 0-5.5 2.5t-2.5 6q0 3.5 2.5 6t5.5 2.5h24v74q0 3 2.5 5.5t6 2.5q3.5 0 6-2.5t2.5-5.5v-74h21v224q0 5-3.5 8.5T971 974zM509 307q0-4-2.5-6t-6.5-2q-57 0-108 25t-85 70q-2 3-1.5 6.5t3.5 5.5q3 2 6 2t5-4q33-42 80-65t100-23q4 0 6.5-2.5t2.5-6.5zm-9 371q-8 0-8 8 0 4 2 6.5t6 2.5q19 0 33 13.5t14 32.5q0 4 2 6.5t6 2.5q4 0 6.5-2.5t2.5-6.5q0-26-19-44.5T500 678zm288 88q-18 0-31 12.5T744 809q0 4 2.5 6.5t6.5 2.5q4 0 6-2.5t2-6.5q0-11 8-18.5t19-7.5q4 0 6.5-2.5t2.5-6.5q0-4-2.5-6t-6.5-2zm-576-2q-4 0-6 2.5t-2 6q0 3.5 2 6t6 2.5q11 0 19.5 8.5T240 809q0 4 2.5 6.5t6 2.5q3.5 0 6-2.5t2.5-6.5q0-19-13-32t-32-13z"/></svg>