<svg viewBox="0 0 1244 1083.753" xmlns="http://www.w3.org/2000/svg"><path d="M463 142v120q-94 12-180 74h-32q-15 0-31.5 7T193 361l-71 75q-3 3-2.5 6.5t3 6q2.5 2.5 5.5 2.5h752q4 0 6-2.5t2-6q0-3.5-3-6.5l-71-75q-10-11-26.5-18t-30.5-7h-32q-87-62-180-74V69q0-4-2.5-6.5T536 60H9q-4 0-6.5 2.5T0 69q0 4 2.5 6T9 77h518v183h-47V133q0-4-2.5-6.5T471 124H9q-4 0-6.5 2.5T0 133q0 4 2.5 6.5T9 142h454zm339 231l7 7H537q-4 0-6.5 2.5T528 389q0 4 2.5 6.5t6.5 2.5h288l34 35H148l58-60q8-8 21-13.5t24-5.5h506q10 0 23.5 5.5T802 373zm-109-37H314q94-59 190.5-59T693 336zM503 481q-4 0-6.5 2.5T494 490v12q0 4 2.5 6.5t6.5 2.5q4 0 6.5-2.5t2.5-6.5v-12q0-4-2.5-6.5T503 481zm0 179q-4 0-6.5 2t-2.5 6v24q0 4 2.5 6.5t6.5 2.5q4 0 6.5-2.5t2.5-6.5v-24q0-4-2.5-6t-6.5-2zm0 189q-4 0-6.5 2.5T494 858v24q0 3 2.5 5.5t6.5 2.5q4 0 6.5-2.5t2.5-5.5v-24q0-4-2.5-6.5T503 849zm0-63q-4 0-6.5 2.5T494 795v23q0 4 2.5 6.5t6.5 2.5q4 0 6.5-2.5t2.5-6.5v-23q0-4-2.5-6.5T503 786zm0-190q-4 0-6.5 2.5T494 605v24q0 4 2.5 6.5t6.5 2.5q4 0 6.5-2.5t2.5-6.5v-24q0-4-2.5-6.5T503 596zm0 127q-4 0-6.5 2.5T494 731v24q0 4 2.5 6.5t6.5 2.5q4 0 6.5-2.5t2.5-6.5v-24q0-3-2.5-5.5T503 723zm0-190q-4 0-6.5 2.5T494 542v24q0 3 2.5 5.5t6.5 2.5q4 0 6.5-2.5t2.5-5.5v-24q0-4-2.5-6.5T503 533zm0 379q-4 0-6.5 2.5T494 921v12q0 4 2.5 6.5t6.5 2.5q4 0 6.5-2.5t2.5-6.5v-12q0-4-2.5-6.5T503 912zm212-429q-3 1-4 5t1 7l7 10q1 4 7 4 3 0 5.5-1t3.5-5q1-4-1-7l-7-10q-1-4-5-4.5t-7 1.5zm142 214q-2-3-5.5-4t-6.5 1q-3 2-4 5.5t1 6.5l12 21q4 4 8 4l4-1q4-2 4.5-5.5T869 718l-12-21zm101 166q-1-3-4.5-4t-7 1q-3.5 2-4 5.5t1.5 6.5l12 21q3 4 8 4 3 0 4-1 3-2 4-5.5t-1-6.5l-13-21zM823 641q-2-3-5.5-3.5T811 639q-3 2-4 5t1 7l13 20q1 4 7 4 3 0 5.5-1.5t3-5q.5-3.5-1.5-6.5l-12-21zm68 111q-2-3-5.5-4t-7 1q-3.5 2-4 5.5t1.5 6.5l12 21q3 4 8 4 3 0 4-1 3-2 4-5.5t-1-6.5l-12-21zm33 56q-1-4-4.5-4.5t-7 1q-3.5 1.5-4 5.5t1.5 7l12 20q3 5 8 5 2 0 4.5-2t3.5-5.5q1-3.5-1-6.5l-13-20zM755 531q-2-3-5.5-4t-6.5 1q-3 2-4 5.5t1 6.5l13 21q2 4 7 4 1 0 4-1l1-1q3-1 4-4.5t-1-7.5l-13-20zm34 55q-2-3-5.5-4t-6.5 1q-3 2-4 5.5t1 6.5l13 21q1 4 7 4 3 0 5.5-1.5t3-5q.5-3.5-1.5-6.5l-12-21zm210 343l-7-11q-1-3-5-3.5t-7 1q-3 1.5-4 5t1 7.5l7 10q3 4 6.5 4t6-1.5q2.5-1.5 3.5-5t-1-6.5zM617 499l-4-12q-1-3-4-4.5t-7-.5q-4 1-5.5 4t.5 7l3 12q3 5 9 5h3q3-1 4.5-4t.5-7zm128 380l-8-23q-2-4-5-5.5t-6.5-.5q-3.5 1-5 4.5t-.5 6.5l8 24q3 6 9 6 2 0 2-1 4-1 5.5-4t.5-7zm-21-63l-8-24q-2-3-5-4.5t-6.5-.5q-3.5 1-5 4t-.5 7l8 23q2 6 8 6h3q4-1 5.5-4.5t.5-6.5zm-86-254l-8-23q-1-4-4-5.5t-6.5 0q-3.5 1.5-5 4.5t-.5 6l8 24q2 6 8 6 2 0 4-1t3.5-4q1.5-3 .5-7zm43 127l-8-24q-2-3-5-4.5t-6.5-.5q-3.5 1-5 4t-.5 7l8 24q4 6 9 6l2-1q4-1 5.5-4t.5-7zm21 64l-8-24q-1-4-4-5.5t-6.5 0q-3.5 1.5-5 4.5t-.5 6l8 24q2 6 8 6h3q3-2 4.5-5t.5-6zm-42-127l-8-24q-1-4-4.5-5.5t-6.5-.5q-8 3-6 12l8 23q2 6 8 6h3q4-1 5.5-4.5t.5-6.5zm98 293q-1-4-4-5.5t-6.5 0q-3.5 1.5-5 4.5t-.5 7l4 11q2 6 8 6h3q3-2 4.5-5t.5-6l-4-12zM280 486l-6 10q-2 3-1.5 6.5t3 5q2.5 1.5 5.5 1.5 6 0 7-4l7-10q2-3 1-7t-4-5.5q-3-1.5-6.5-1T280 486zM163 694q-3-2-6.5-1t-5.5 4l-13 21q-2 3-1 6.5t4 5.5l4 1q4 0 8-4l13-21q2-3 1-7t-4-5zm-34 55q-3-2-7-1t-5 4l-13 21q-2 3-1 6.5t4 5.5q1 1 4 1 5 0 8-4l13-21q2-3 1-6.5t-4-5.5zm68-110q-4-2-7-1.5t-5 3.5l-13 21q-2 3-1 6.5t3 5q2 1.5 5 1.5 5 0 8-4l12-20q2-4 1.5-7t-3.5-5zM61 860q-3-2-7-1t-5 4l-13 21q-2 3-1 6.5t4 5.5q1 1 5 1t7-4l13-21q2-3 1-6.5t-4-5.5zm34-55q-3-2-7-1.5t-5 4.5l-13 20q-2 3-1 7t3.5 5.5Q75 842 77 842q5 0 8-5l13-20q2-3 1-7t-4-5zm135-222q-3-2-6.5-1t-5.5 4l-12 21q-2 3-1 6.5t4 5.5q1 1 4 1 5 0 8-4l12-21q2-3 1.5-6.5T230 583zm25-22l12-21q2-3 1.5-7t-4-5.5q-3.5-1.5-7-.5t-5.5 4l-12 20q-2 4-1.5 7.5t3.5 5q3 1.5 6 1.5t7-4zM27 916q-3-2-6.5-1.5T15 918l-7 11q-2 3-1 6.5t3.5 5Q13 942 16 942q6 0 7-4l7-10q2-4 1-7.5t-4-4.5zm378-434q-3-1-6 .5t-5 4.5l-4 12q-1 4 .5 7t5.5 4h2q7 0 9-5l4-12q1-4-.5-7t-5.5-4zm-17 51q-4-1-7 .5t-4 5.5l-8 23q-1 4 .5 7t3.5 4q2 1 4 1 7 0 8-6l8-24q2-3 .5-6.5T388 533zm-21 63q-4-1-7 .5t-4 5.5l-8 24q-2 3-.5 6.5t5.5 4.5h3q7 0 8-6l8-23q1-4-.5-7t-4.5-5zm-22 64q-3-1-6 .5t-5 4.5l-8 24q-1 4 .5 7t5.5 4l3 1q2 0 4.5-2t3.5-4l8-24q1-4-.5-7t-5.5-4zm-21 63q-4-1-7 .5t-4 5.5l-8 24q-1 3 .5 6t4.5 5h3q7 0 8-6l8-24q2-3 .5-6.5T324 723zm-43 127q-3-1-6 .5t-5 5.5l-8 23q-1 4 .5 7t5.5 4q1 1 3 1 7 0 8-6l8-24q1-3-.5-6.5T281 850zm22-63q-4-1-7 .5t-4 4.5l-8 24q-1 3 .5 6t4.5 5h3q7 0 8-6l8-23q1-4-.5-7t-4.5-4zm-43 127q-8-3-11 5l-4 12q-1 3 .5 6.5t5.5 4.5h2q6 0 9-6l4-11q1-4-.5-7t-5.5-4zm122-516h90q4 0 6-2.5t2-6.5q0-4-2-6.5t-6-2.5h-90q-4 0-6.5 2.5T373 389q0 4 2.5 6.5t6.5 2.5z"/></svg>