<svg viewBox="0 0 1244 1083.753" xmlns="http://www.w3.org/2000/svg"><path d="M270 359q4 0 6.5-2.5t2.5-6.5q0-34 35-74 28-31 76-64 36-24 78-46 30-16 36-18 3-2 4-5t0-6.5q-1-3.5-4.5-5t-6.5.5q-22 9-66 34-68 39-111 79-59 56-59 105 0 4 2.5 6.5t6.5 2.5zm600-19h-15q-6-104-176-230-39-29-84-56-33-21-65-38-25-14-26-14-4-1-8 0-1 0-26 14-32 17-65 38-45 27-83 56-171 126-177 230h-15q-4 0-6.5 2.5T121 349v643q0 4 2.5 6.5t6.5 2.5q4 0 6.5-2.5t2.5-6.5v-31h51v31q0 4 2.5 6.5t6.5 2.5q4 0 6-2.5t2-6.5V359h6q4 0 6.5-2.5t2.5-6.5q0-53 65-116 48-46 126-94 46-28 87-48 41 20 87 48 78 48 126 94 65 63 65 116 0 4 2.5 6.5t6.5 2.5h6v633q0 4 2.5 6.5t6 2.5q3.5 0 6-2.5t2.5-6.5v-31h52v31q0 4 2 6.5t6 2.5q4 0 6.5-2.5t2.5-6.5V349q0-4-2.5-6.5T870 340zm-60 72h52v495h-52V412zM190 907h-51V412h51v495zm-51 36v-19h51v19h-51zM504 75q-4-1-8 0-31 14-78 42-82 48-135 97-73 68-78 127h-6q-4 0-6.5 2.5T190 350v45h-51v-38h14q4 0 6.5-2.5t2.5-5.5q0-95 155-214 82-63 183-116 101 53 183 116 155 119 155 214 0 3 2.5 5.5t6.5 2.5h15v38h-52v-45q0-4-2.5-6.5T801 341h-6q-5-59-78-127-53-49-135-97-47-28-78-42zm306 868v-19h52v19h-52zm-398-14h-58q-4 0-6.5 2.5T345 938q0 4 2.5 6.5t6.5 2.5h58q4 0 6.5-2.5t2.5-6.5q0-4-2.5-6.5T412 929zm230-225q4-12 16-44l11-30q2-5-1.5-9t-8.5-2l-49 11-3-6q-3-7-10-5l-136 32q-2 0-6 4-1 4 0 8l21 44-23 5q0-33-1-54-4-46-16-66 16-3 26-10 33-21 41-57 5-22-1-44.5T480 442l-5-42q-1-8-6.5-13t-12.5-5l-111 13q-8 1-13 7.5t-4 14.5l6 47q-6 11-7 19-9 36 11 69 1 3 6 8l3 4q-24 17-41 42-28 40-35 95-4 34-5 69-1 40 4 63v3q4 19 9 29 8 16 24 24-16 7-25 16-16 15-16 38v23q0 4 2.5 6.5t5.5 2.5l250-1q41 0 65-18.5t25.5-52Q612 870 601 849q-15-28-56-39-2 0-6-1l-2-1q-18-4-27-7-14-6-24-16l71-16q13-3 20-14t4-24l-2-9 56-13q5-1 7-5zM347 413l109-13h1q1 0 1 2l5 36-113 18-1-7 36-5q8-2 8-10-1-4-3.5-6t-6.5-1l-36 5-2-17q0-2 2-2zm-3 74q2-8 4-13l121-19q12 14 16.5 31.5t.5 34.5q-7 30-33 46t-54.5 9q-28.5-7-45.5-33.5t-9-55.5zm189 338q2 0 4 1l4 1q32 8 44 28 10 17 8 47-4 55-73 55l-241 1v-11h48q3 0 5.5-2.5t2.5-6.5q0-4-2.5-6.5T327 929h-46q3-6 9-12 17-16 56-19h10q78-4 99-1 2 1 6.5 1t6.5-2.5q2-2.5 2-6t-2-6q-2-2.5-5-2.5t-5-1h-1q-27-4-101 1h-11q-22 0-35-7-11-6-16-18-4-8-7-24v-2q-4-21-4-60 1-35 5-67 7-55 35-92 17-22 37-34 15 11 34 15 11 3 21 3 15 7 20 72l-10-42q-2-11-11-18t-20-7q-4 0-7 1l-15 3q-12 3-20 14-7 13-4 24l31 135q3 11 11.5 18t19.5 7q5 0 7-1l50-11q12 16 32 24 11 6 33 11h1zm20-73l-139 32q-2 1-4 1-4 0-8-3t-6-8l-31-135q-1-6 2-11 2-2 2-3l15 70q2 7 8 7h2q4-1 6-4t1-7l-15-72 8-2q5 0 9 3.5t5 8.5l23 97q0 3 4 5 2 3 6 1l102-23h3q5 0 9 3t5 8l4 15q1 6-2 10.5t-9 6.5zm20-46q-10-15-27-15l-7 1-46 11-17-38 118-27 3 6 24 51-48 11zm59-28l-15-32 30-7-15 39zm132-298q-3 0-5.5 2t-2.5 6v269q0 4 2.5 6.5t6 2.5q3.5 0 6-2.5t2.5-6.5V388q0-4-2.5-6t-6.5-2zm0 320q-3 0-5.5 2.5T756 709v72q0 4 2.5 6.5t6 2.5q3.5 0 6-2.5t2.5-6.5v-72q0-4-2.5-6.5T764 700z"/></svg>