<svg viewBox="0 0 1244 1083.753" xmlns="http://www.w3.org/2000/svg"><path d="M122 316h23q4 0 6.5-2t2.5-6q0-4-2.5-6.5T145 299h-23q-4 0-6.5 2.5T113 308q0 4 2.5 6t6.5 2zm195-17h-23q-4 0-6.5 2.5T285 308q0 4 2.5 6t6.5 2h23q3 0 5.5-2t2.5-6q0-4-2.5-6.5T317 299zm-49 158q11 0 18.5-8t7.5-18.5q0-10.5-7.5-18t-18-7.5q-10.5 0-18.5 7.5t-8 18q0 10.5 8 18.5t18 8zm0-35q4 0 6 2.5t2 6q0 3.5-2 6t-6 2.5q-4 0-6-2.5t-2-6q0-3.5 2-6t6-2.5zm-97-17q-11 0-18.5 7.5T145 431q0 11 7.5 18.5T171 457q11 0 18.5-8t7.5-18.5q0-10.5-7.5-18T171 405zm0 34q-4 0-6.5-2.5t-2.5-6q0-3.5 2.5-6t6-2.5q3.5 0 6 2.5t2.5 6q0 3.5-2.5 6T171 439zm801 243V441q0-31-16-44-9-7-26-8h-60q-7-10-15-17-25-24-67-33-21-4-45-4H358l7-39v-2q28-4 52-33 12-15 21-34 2-5-.5-9t-7.5-4h-90q15-39 0-71-17-35-68-49l-2-1q-7-2-9.5 5t2.5 10q22 18 25 42 3 28-21 64h-95q-8-11-14-25-9-21-7-39 3-24 25-42 5-4 2-10-1-3-3.5-4.5T169 93l-2 1q-51 14-69 49-15 32 1 71H9q-4 0-8 4-2 2 0 9 9 19 21 34 24 29 52 33v2l24 133q5 29 27.5 50.5T177 506l66 394q2 8 8 8l92 1q4 0 6.5-2.5t2.5-6.5V752q128 27 283-14 72-20 123-45 3 38 20 114 14 60 18 73 2 6 8 6h77q4 0 6.5-2.5t2.5-6.5V461q0-33-10-54h48q12 0 18 5 8 7 8 29v241q-12 3-20.5 13.5T925 719q0 9 4 25 5 20 13 32 9 16 21 16t21-16q7-12 12-32 4-16 4-25 0-13-8-23.5T972 682zM742 352h7l10 16h-52q-4 0-6.5 2.5T698 377q0 4 2.5 6.5t6.5 2.5h55q4 0 7-3l20 35H647q-4 0-6.5 2.5t-2.5 6q0 3.5 2.5 6t6.5 2.5h146q1 0 4-1l1-1 4 8q32 57-22 105-31 28-79 44-41 13-86 15-42 1-70-8-18-6-30-17-10-9-20-27h48q4 0 6.5-2.5t2.5-6q0-3.5-2.5-6T543 536h-58q-24-44-50-71-24-25-23-54 0-21 12-41 9-13 14-17v-1h304zm-416 61q-20-35-62-70-30-27-18-71 4-20 16-40h34q26 0 41 17t10 44l-21 120zm40-136q-1-21-16-39l-6-6h72q-24 39-50 45zm-78-63q21-34 17-66-2-14-7-25 18 11 27 28 13 27-4 63h-33zm-171 0q-15-37-3-63 8-16 27-28-7 14-7 25-4 32 17 66h-34zm-94 18h72q-3 2-7 6-13 16-15 39-26-5-50-45zm68 61q-2-12 1-23.5t10-19.5q14-18 40-18h35q14 25 18 48 6 41-21 63-42 35-61 70L91 293zm27 145v-1q21-42 68-81 28-24 27-63 0-31-17-61h46q-16 31-16 61-1 39 27 63 45 37 67 81v1q-8 23-28.5 37.5T247 490h-56q-23 0-43.5-14.5T118 438zm693 431q0-2-1-6-35-143-36-183 0-4-4-8-4-2-9 0-27 14-66 28-77 29-154 40-106 15-196-7-4-1-7.5 1.5T334 741v93h-22q-4 0-6.5 2.5T303 843q0 4 2.5 6.5t6.5 2.5h22v40l-75-2-27-163h19q4 0 6.5-2.5t2.5-6q0-3.5-2.5-6T251 710h-22l-13-79h151q4 0 6.5-2.5t2.5-6.5q0-4-2.5-6.5T367 613H213l-5-27h52q4 0 6.5-2.5t2.5-6.5q0-4-2.5-6.5T260 568h-55l-3-19h24q4 0 6-2.5t2-6q0-3.5-2-6t-6-2.5h-27l-4-24h52q33 0 60.5-23.5T341 429l14-77h61q-19 25-21 52-4 39 28 73 16 17 29 36 7 12 19 33l1 1q15 28 26 41 16 18 41 26 29 8 65 8 33 0 58-5 39-7 72.5-22t56.5-36q32-29 38.5-61T817 432q-12-22-35-60l-11-18q19 2 36 8 22 8 36 22 30 28 30 77v363h-50q-4 0-6.5 2.5t-2.5 6q0 3.5 2.5 6t6.5 2.5h50v28h-62zm164-117q-5 16-12 23-6-3-13-22t-7-34q0-8 6-14t14-6q8 0 14 6t6 14q0 12-8 33z"/></svg>