<svg viewBox="0 0 1244 1083.753" xmlns="http://www.w3.org/2000/svg"><path d="M276 225q4 0 6-2.5t2-6.5q0-20 14-33.5t33-13.5q4 0 6.5-2.5t2.5-6q0-3.5-2.5-6T331 152q-26 0-45 19t-19 45q0 4 2.5 6.5t6.5 2.5zm503 390q0-9-5.5-16.5T759 588v-32q0-4-2.5-6.5t-6-2.5q-3.5 0-6 2.5T742 556v32q-11 5-17 15l-125-92q4-7 4-14 0-10-5.5-17.5T584 470v-33q0-3-2.5-5.5t-6-2.5q-3.5 0-6 2.5T567 437v33q-4 1-12 7l-127-93V216q0-39-28-69-25-25-60-28V81q8-2 14-9.5t6-17q0-9.5-5.5-17T340 27V10q0-4-2.5-6.5T331 1q-4 0-6 2.5t-2 6.5v17q-9 3-14.5 10.5T303 54q0 9 5.5 17T323 81v38q-38 4-63.5 31.5T234 216v320q-13 10-13 25v431q0 4 2.5 6.5t6.5 2.5h508q13 0 22.5-9t9.5-22V799q0-15-11-23V642q9-2 14.5-9.5T779 615zm-28-11q5 0 8 3t3 8q0 5-3 8.5t-8 3.5q-5 0-8.5-3.5T739 615q0-5 3.5-8t8.5-3zM576 486q5 0 8 3t3 7.5q0 4.5-3 8t-7.5 3.5q-4.5 0-8-3.5t-3.5-8q0-4.5 3.5-7.5t7.5-3zm-28 7q-1 1-1 4 0 9 6 16.5t14 10.5v125H441v-88q0-15-13-25V405l120 88zM331 43q5 0 8 3t3 7.5q0 4.5-3 8t-7.5 3.5q-4.5 0-8-3.5t-3.5-8q0-4.5 3.5-7.5t7.5-3zm-80 173q0-33 23.5-56.5t57-23.5q33.5 0 56.5 23 11 11 17 26t6 31v314h-21V267q0-9-6.5-15.5T367 245h-72q-9 0-15.5 6.5T273 267v263h-22V216zm121 314h-82V267q0-5 5-5h72q5 0 5 5v263zm366 454h-70V850q0-3-2.5-5.5t-6-2.5q-3.5 0-6 2.5T651 850v134H238v-35h267q4 0 6.5-2.5t2.5-6.5q0-4-2.5-6.5T505 931H238v-42h66q4 0 6.5-2.5t2.5-6q0-3.5-2.5-6T304 872h-66V594h24v181q0 8 8 8 4 0 6.5-2t2.5-6V594h31v52q0 3 2.5 5.5t6 2.5q3.5 0 6-2.5t2.5-5.5v-52h43q3 0 5.5-2.5t2.5-6q0-3.5-2.5-6T370 577H238v-16q0-6 4.5-10t10.5-4h157q6 0 10 4t4 10v96q0 4 2.5 6.5t6.5 2.5h141q6 0 10 4t4 10v32h-91q-3 0-5.5 2.5T489 721q0 4 2.5 6t5.5 2h91v47q0 4 2.5 6.5t6.5 2.5h141q6 0 10.5 4t4.5 10v20h-88q-4 0-6.5 2.5t-2.5 6q0 3.5 2.5 6t6.5 2.5h88v28h-47q-4 0-6.5 2.5T697 873q0 4 2.5 6.5t6.5 2.5h47v88q0 6-4.5 10t-10.5 4zm0-216H606v-88q0-10-6-18t-16-11V524l4-2 135 100q5 15 19 20v126h-4zM310 291q-3 0-5.5 2.5T302 300v106q0 4 2.5 6.5t6 2.5q3.5 0 6-2.5t2.5-6.5V300q0-4-2.5-6.5T310 291z"/></svg>