<svg viewBox="0 0 1244 1083.753" xmlns="http://www.w3.org/2000/svg"><path d="M653 432h1q7 0 9-8 4-36 15-65 8-22 21-38 9-12 18-19 7-5 9-5 4-1 5.5-4.5t.5-6.5q-3-8-12-6-18 8-34 29-32 41-41 113 0 8 8 10zm338 525h-88l-26-423 31-11q15-5 21.5-19.5t.5-27.5l-6-17q-4-15-21-22-1-14-11-23.5t-23-9.5q-13-80-45-116 28-6 48.5-25.5T902 217q9-26 4-53l23-46q4-8 1-17t-11-13L801 29q-6-2-11-2t-10.5 3.5Q774 34 771 39l-25 51q-12 7-20 15-30 28-33.5 69.5T714 249q-29 12-54 47-40 56-46 152-5 77-18 370l-7 139H475l-23-370 27-10q13-5 19-17 5-14 1-26l-6-15q-4-13-18-20-1-10-10-20-7-7-20-9-11-68-39-100 24-6 42-23t26-40q8-23 3-47l20-40q4-8 1-16t-10-12l-104-52q-4-2-9-2-13 0-18 11l-23 45q-7 5-17 13-27 25-30 61.5t19 65.5q-16 7-32 23-24 24-38 61-10-31-26-48 24-6 42-23t26-40q8-23 3-47l20-40q4-8 1-16t-10-12l-104-52q-6-2-9-2-13 0-18 11l-23 45q-12 8-17 13-27 25-30 61.5t19 65.5q-27 13-48 43-35 50-40 133-4 71-14 268L0 966q0 4 2.5 6.5T9 975h982q4 0 6.5-2.5t2.5-6.5q0-4-2.5-6.5T991 957zm-77-475q2 9-1 15t-11 9l-109 40q-2 1-7 1t-10-3.5q-5-3.5-7-9.5l-65-168q-2-8 1-14l3-4 35 85q1 3 4 4.5t5 .5h3q4-1 5.5-4.5t-.5-7.5l-36-86 9-4q2-1 7.5-1t10 3.5q4.5 3.5 6.5 8.5 0 1 1 1l49 124q2 3 5 4.5t6 .5l65-24q2-1 7.5-1t10.5 3.5q5 3.5 6 9.5l7 17zm-34-55q2 2 4 8-4 0-7 1l-3 2q0-4-2-13v-3q5 1 8 5zM791 45h2l118 59q2 1 2.5 2.5t-.5 3.5l-21 41-127-59 5-10 40 20 4 1q6 0 8-4.5t1-7.5q-1-3-5-5l-40-20 9-19q1-2 4-2zm-52 73q7-7 14-11l135 62q4 22-3.5 43T861 249q-27 25-64 24t-63-28.5Q708 217 709.5 180t29.5-62zM632 449q6-97 50-152 20-24 45-35 31 29 73 29h1q28 20 43 78 10 36 13 75l-37 13-46-116q-4-11-13.5-17.5T740 317q-5 0-13 2l-17 6q-16 7-21 19-7 15-1 28v1l65 168q4 11 13.5 17.5T787 565q5 0 13-2l59-22 24 377H775q-4 0-6.5 2.5T766 927q0 4 2.5 6.5t6.5 2.5h109l1 21H700l2-120q0-3-2.5-6t-6.5-3q-4 0-6.5 2.5T684 837l-1 120h-29l7-222q0-4-2.5-6.5T652 726q-4 0-6.5 2t-2.5 6l-7 223h-29l6-122q14-306 19-386zm-150 91q2 7-.5 12.5T472 560l-95 35q-2 1-5 1-5 0-9-3t-6-7v-1l-57-147q-2-8 1-12 0-2 1-3l29 73q1 2 3.5 4t5.5 1h3q3-2 4-5t0-7l-29-74 9-3 3-1q4 0 8 3t6 8h1l43 109q1 4 4.5 5.5t6.5-.5l45-16 2-1 13-4 3-1q4 0 8 3t6 8l6 15zm-30-48q3 3 4 5-3 0-5 2h-2q0-6-1-10 2 1 4 3zm-77-336h1l104 52q2 2 1 4l-17 35-111-51 4-7 35 17q1 1 5 1t7-5q2-4 .5-7.5T399 190l-34-17 8-16q0-1 2-1zm-45 64q5-6 12-9l118 54q3 19-3.5 37.5T436 334q-23 22-55.5 20.5T326 330q-22-23-21-55.5t25-54.5zm-85 229q13-48 41-78 17-17 32-23 30 25 65 25 24 17 38 67 8 31 11 65l-31 12-40-101q-4-10-12-16t-19-6q-8 0-11 2l-16 5q-13 5-18.5 18t-1.5 25l57 148q4 10 13 16t19 6q3 0 11-2l51-19 21 330h-94q-4 0-6.5 2.5T352 932q0 4 2.5 6.5t6.5 2.5h95l1 16H279l-23-370 26-10q14-5 19-17 7-13 2-26l-6-15q-5-14-19-20-2-12-10-20t-19-9v-3q-2-11-4-18zm-141-23q1-2 3-4l27 72q2 6 8 6h3q4-1 5.5-4.5t-.5-7.5l-27-74 11-3q4 0 8 3t6 8l44 109q1 4 4.5 5.5t6.5-.5l45-16 2-1 13-4 3-1q4 0 8 3t6 8l6 15q2 7-1 13t-9 7l-95 35q-2 1-5 1-5 0-9-3t-6-7v-1l-57-147q-2-5 0-12zm148 64q2 2 3.5 2.5t3.5 4.5l-6 2-1-9zm-73-334h1l104 52q2 2 1 4l-18 35-110-51 4-7 35 17q1 1 3 1 6 0 8-4.5t1-7.5q-1-3-5-5l-34-17 8-16q0-1 2-1zm-45 64q5-6 12-9l118 54q3 19-3.5 37.5T240 334q-24 22-56 20.5T130 330q-22-23-21-55.5t25-54.5zM40 511q5-86 43-133 10-12 24-21 8-6 15-9 13 12 30.5 18.5T187 373q24 17 38 67 8 31 11 65l-31 12-40-101q-4-10-12-16t-19-6q-8 0-12 2l-15 5q-13 5-19 17t-1 26l57 148q4 10 12.5 16t19.5 6q3 0 11-2l51-19 21 330h-94q-4 0-6.5 2.5T156 932q0 4 2.5 6.5t6.5 2.5h95l1 16H100l2-104q0-4-2.5-6.5T93 844q-4 0-6.5 2.5T84 853l-2 104H59l7-194q0-4-2.5-7t-6.5-3q-4 0-6.5 2.5T48 762l-7 195H18l7-147q11-237 15-299zm17-14h1q4 0 6.5-2.5T67 489q5-41 19-70 10-20 24-33 9-8 12.5-8.5t5-4q1.5-3.5 0-7t-4.5-5q-3-1.5-7-.5-17 7-31 26-29 36-36 100 0 8 8 10z"/></svg>