<svg viewBox="0 0 1244 1083.753" xmlns="http://www.w3.org/2000/svg"><path d="M695 474q-2 0-4 2t-2 4q0 2 2 4t4 2q2 0 4-2t2-4q0-6-6-6zm-21 61q-6 0-6 6 0 2 2 4t4 2q2 0 4.5-2t2.5-4q0-6-7-6zm21 19q-2 0-4 2t-2 4q0 2 2 4t4 2q2 0 4-2t2-4q0-6-6-6zm-40-40q-2 0-4 2t-2 4q0 2 2 4t4 2q6 0 6-6t-6-6zm-21 73q3 0 5-2t2-4q0-2-2-4t-5-2q-6 0-6 6t6 6zm21 19q6 0 6-6t-6-6q-6 0-6 6 0 2 2 4t4 2zm-21 21q3 0 5-2t2-4q0-6-6.5-6t-6.5 6q0 2 2 4t4 2zm-19-61q6 0 6-6t-6-6q-2 0-4 2t-2 4q0 2 2 4t4 2zm0 40q6 0 6-6t-6-6q-2 0-4 2t-2 4q0 2 2 4t4 2zm-21 61q3 0 5-2t2-4q0-2-2-4t-5-2q-6 0-6 6t6 6zm-40-40q3 0 5-2t2-4q0-6-6.5-6t-6.5 6q0 2 2 4t4 2zm21 19q6 0 6-6t-6-6q-2 0-4 2t-2 4q0 2 2 4t4 2zm-21 21q3 0 5-2t2-4q0-2-2-4t-5-2q-6 0-6 6 0 2 2 4t4 2zm21 19q6 0 6-6t-6-6q-2 0-4 2t-2 4q0 2 2 4t4 2zm-40-40q6 0 6-6t-6-6q-6 0-6 6 0 2 2 4t4 2zm13 95q0 2 2 4t4.5 2q2.5 0 4.5-2t2-4q0-2-2-4t-5-2q-6 0-6 6zm-34-46q-6 0-6 6 0 2 2 4t4 2q2 0 4.5-2t2.5-4q0-2-2-4t-5-2zm0 40q-6 0-6 6t6 6q2 0 4.5-2t2.5-4q0-2-2-4t-5-2zm0 40q-6 0-6 6 0 2 2 4t4 2q2 0 4.5-2t2.5-4q0-2-2-4t-5-2zm-19-101q-2 0-4 2t-2 4q0 2 2 4t4 2q6 0 6-6t-6-6zm-21 21q-6 0-6 6 0 2 2 4t4 2q2 0 4.5-2t2.5-4q0-2-2-4t-5-2zm21 19q-2 0-4 2t-2 4q0 2 2 4t4 2q6 0 6-6t-6-6zm-20 21q-4-8-8-11-1-3-6-5 0-2-2-3.5t-4-1.5q-2 0-3 1-8-2-16.5 0t-14.5 9q-10 10-10 23 0 5 1 8-3 1-3 4t2 5q2 2 4 2h2l1 1 3 3q3 4 9 7-2 2-2 4t2 4q2 2 4 2t4.5-2q2.5-2 2.5-4v-1h3q14 0 23.5-9.5T477 747v-1q4-2 4-5 0-6-6-6zm-43 24q-5-5-5-12 0-4 1-6 0 2 2 4t4.5 2q2.5 0 4.5-2t2-4q0-2-2-4t-5-2h-2q5-5 12-5t12 5q5 5 5 12 0 4-2 8-1-1-3.5-1t-4.5 2q-2 2-2 4t1 3q-10 3-18-4zm63-5q-2 0-4 2t-2 4q0 2 2 4t4 2q6 0 6-6t-6-6zm-21 21q-6 0-6 6 0 2 2 4t4 2q2 0 4.5-2t2.5-4q0-2-2-4t-5-2zm21 19q-2 0-4 2t-2 4q0 2 2 4t4 2q6 0 6-6t-6-6zm-21 21q-6 0-6 6t6 6q2 0 4.5-2t2.5-4q0-6-7-6zm-19-21q-2 0-4 2t-2 4q0 2 2 4t4 2q2 0 4-2t2-4q0-6-6-6zm-21 21q-6 0-6 6t6 6q2 0 4.5-2t2.5-4q0-6-7-6zm21 19q-2 0-4 2t-2 4q0 2 2 4t4 2q2 0 4-2t2-4q0-6-6-6zm-21 21q-6 0-6 6t6 6q2 0 4.5-2t2.5-4q0-6-7-6zm-40-80q-6 0-6 6 0 2 2 4t4.5 2q2.5 0 4.5-2t2-4q0-2-2-4t-5-2zm21 19q-2 0-4 2t-2 4q0 2 2 4t4 2q6 0 6-6t-6-6zm-21 21q-6 0-6 6t6 6q3 0 5-2t2-4q0-6-7-6zm21 19q-2 0-4 2t-2 4q0 2 2 4t4 2q6 0 6-6t-6-6zm-21 21q-6 0-6 6t6 6q3 0 5-2t2-4q0-6-7-6zm21 19q-2 0-4 2t-2 4q0 2 2 4t4 2q6 0 6-6t-6-6zm-21 21q-6 0-6 6t6 6q3 0 5-2t2-4q0-2-2-4t-5-2zm-19-101q-2 0-4 2t-2 4q0 2 2 4t4 2q6 0 6-6t-6-6zm-21 21q-6 0-6 6t6 6q2 0 4.5-2t2.5-4q0-6-7-6zm21 19q-2 0-4 2t-2 4q0 2 2 4t4 2q6 0 6-6t-6-6zm-21 21q-6 0-6 6t6 6q2 0 4.5-2t2.5-4q0-6-7-6zm21 19q-2 0-4 2t-2 4q0 2 2 4t4 2q6 0 6-6t-6-6zm-21 21q-6 0-6 6t6 6q2 0 4.5-2t2.5-4q0-2-2-4t-5-2zm21 19q-2 0-4 2t-2 4q0 2 2 4t4 2q6 0 6-6t-6-6zm-21 21q-6 0-6 6 0 2 2 4t4 2q2 0 4.5-2t2.5-4q0-6-7-6zm-19-101q-2 0-4 2t-2 4q0 2 2 4t4 2q2 0 4-2t2-4q0-6-6-6zm-21 21q-6 0-6 6t6 6q2 0 4.5-2t2.5-4q0-6-7-6zm21 19q-2 0-4 2t-2 4q0 2 2 4t4 2q6 0 6-6t-6-6zm-21 21q-6 0-6 6t6 6q2 0 4.5-2t2.5-4q0-2-2-4t-5-2zm21 19q-2 0-4 2t-2 4q0 2 2 4t4 2q6 0 6-6t-6-6zm-21 21q-6 0-6 6 0 2 2 4t4 2q2 0 4.5-2t2.5-4q0-6-7-6zm21 19q-2 0-4 2t-2 4q0 2 2 4t4 2q6 0 6-6t-6-6zm-40-80q-2 0-4 2t-2 4q0 2 2 4t4 2q6 0 6-6t-6-6zm-21 21q-6 0-6 6t6 6q2 0 4.5-2t2.5-4q0-2-2-4t-5-2zm21 19q-2 0-4 2t-2 4q0 2 2 4t4 2q6 0 6-6t-6-6zm0 40q-2 0-4 2t-2 4q0 2 2 4t4 2q6 0 6-6t-6-6zm-40-40q-2 0-4 2t-2 4q0 2 2 4t4 2q6 0 6-6t-6-6zm659-539q-6 0-6 6 0 2 2 4t4 2q2 0 4.5-2t2.5-4q0-6-7-6zm0 40q-6 0-6 6 0 2 2 4t4 2q2 0 4.5-2t2.5-4q0-6-7-6zm-19-21q-2 0-4 2t-2 4q0 2 2 4t4 2q6 0 6-6t-6-6zm-21 21q-6 0-6 6 0 2 2 4t4 2q2 0 4.5-2t2.5-4q0-6-7-6zm21 19q-2 0-4 2t-2 4q0 2 2 4t4 2q6 0 6-6t-6-6zm-21 21q-6 0-6 6t6 6q2 0 4.5-2t2.5-4q0-6-7-6zm-19-21q-2 0-4 2t-2 4q0 2 2 4t4 2q6 0 6-6t-6-6zm-20 21q5-10 5-18 0-13-10-23t-22.5-10q-12.5 0-24.5 10-9 10-9 23.5t10 23q10 9.5 23 9.5t21-8q2 5 5.5 5t5.5-2q2-2 2-4t-2-4q-2-2-4-2zm-16-5q-4 4-12 4t-12.5-4.5q-4.5-4.5-4.5-12t5-12.5q5-5 12-5t12 6q5 6 5 11.5t-5 12.5zm36 24q-2 0-4 2t-2 4q0 2 2 4t4 2q6 0 6-6t-6-6zm-21 21q-6 0-6 6t6 6q2 0 4.5-2t2.5-4q0-2-2-4t-5-2zm-19-21q-2 0-4 2t-2 4q0 2 2 4t4 2q6 0 6-6t-6-6zm-21 21q-6 0-6 6t6 6q3 0 5-2t2-4q0-6-7-6zm21 19q-2 0-4 2t-2 4q0 2 2 4t4 2q6 0 6-6t-6-6zm-40 0q-2 0-4 2t-2 4q0 2 2 4t4 2q6 0 6-6t-6-6zm-61-19q-6 0-6 6t6 6q3 0 5-2t2-4q0-2-2-4t-5-2zm21 19q-2 0-4 2t-2 4q0 2 2 4t4 2q6 0 6-6t-6-6zm19-19q-6 0-6 6t6 6q3 0 5-2t2-4q0-6-7-6zm-19-21q-2 0-4 2t-2 4q0 2 2 4t4 2q6 0 6-6t-6-6zm-21-7q3 0 5-2t2-4q0-6-6.5-6t-6.5 6q0 2 2 4t4 2zm277-321L855 10q-9-9-23-9t-23 9l-77 78-13-13q-22-22-52-30t-59.5 0Q578 53 556 75l-77 78q-34 34-34 81 0 17 4 30L285 428q-19-11-40.5-8.5T207 438L19 626Q0 645 0 671t19 45l266 266q19 19 45 19t45-19l188-188q16-16 18.5-37.5T573 716l164-164q13 4 30 4 22 0 43.5-8.5T848 522l78-77q22-22 30-52t0-59.5q-8-29.5-30-51.5l-13-13 78-77q9-10 9-23t-9-23zM558 776q-1-1-4-1-6 0-6 6 0 2 2 4l-11 10q-1-1-3.5-1t-4.5 2q-2 2-2 4t2 4l-13 12q-1-1-4-1-6 0-6 6 0 2 2 4l-11 10q-1-1-3.5-1t-4.5 2q-2 2-2 4t2 4l-13 12q-1-1-4-1-6 0-6 6 0 2 2 4l-11 10-4-1q-2 0-4 2t-2 4l1 4-12 12q-1-1-4-1-6 0-6 6 0 2 2 4l-11 10-4-1q-2 0-4 2t-2 4l1 4-12 12q-1-1-4-1-6 0-6 6 0 2 2 4l-11 10-4-1q-2 0-4 2t-2 4l1 4-6 7-6 5q-1-1-4-1-6 0-6 6-8 4-18 4-7 0-10-1l1-3q0-6-7-6-4 0-6 5-6-3-12-9l-25-25q1 1 3.5 1t4.5-2q2-2 2-4t-2-4q-2-2-5-2-6 0-6 6l1 3L30 705q-14-14-14-34t14-34l188-188q16-14 35-14t33 14l266 266q12 12 13.5 29t-7.5 32zm5-73l-2-2q0-6-7-6l-13-14v-1q0-6-6-6h-1l-13-13q0-6-7-6L298 438l43-43 265 265-43 43zm55-54l-3-3q6 0 6-6t-6-6q-2 0-4 2t-2 4l-13-13q5-2 5-7t-7-5q-4 0-6 4l-13-13q6 0 6-6t-6-6q-6 0-6 6L352 383l48-48 266 266-48 48zm59-60l-2-2q2 0 4-2t2-4q0-6-7-6-2 0-4 1.5t-2 3.5l-14-14h1q6 0 6-6t-6-6q-6 0-6 6v1l-14-14q2 0 4-2t2-4q0-6-7-6-2 0-4 1.5t-2 3.5L412 324l43-43q7 18 24 35l41 41 165 165q10 10 23 18v1q0 2 2 4t4 2q2 0 4-2l2 1-43 43zm261-194q-1-1-3-1t-4 2q-2 2-2 5t5 5q-8 16-20 28l-77 77q-18 18-40 24h-3q-3 0-5 3-9 2-28 2-2-5-6-5t-6 3q-31-5-52-27L545 360h384q0 2 2 4t4 2q2 0 4-2t2-4h2q1 16-5 35zm-24-102q23 22 27 51H529l-39-40q-29-27-29-69t29-71l77-77q29-29 70.5-29T708 87l206 206zm-12-35L743 99l16-16 159 159-16 16zm77-77l-50 49L771 72l49-50q5-5 12-5t12 5l135 135q5 5 5 12t-5 12zM223 579q-10-10-23.5-10t-23 9.5Q167 588 167 602t9.5 23.5Q186 635 200 635t23.5-9.5q9.5-9.5 9.5-23T223 579zm-11 35q-5 5-12 5t-12-4.5q-5-4.5-5-12.5t5-12.5q5-4.5 11-4.5t12 5q6 5 6 12t-5 12zm70 152q-10-10-23.5-10T235 766q-10 10-10 23t9.5 23q9.5 10 23.5 10t23.5-9.5Q291 803 291 789t-9-23zm-12 35q-4 5-11.5 5t-12.5-5q-5-5-5-12t6-12q6-5 12-5t11 4.5q5 4.5 5 12.5t-5 12z"/></svg>