<svg viewBox="0 0 1244 1083.753" xmlns="http://www.w3.org/2000/svg"><path d="M984 970H569l311-311q14-14 14-33.5T880 593L665 378q-14-14-33-16t-35 7L325 7q-4-5-10.5-6T303 4q-5 4-6 10.5t3 11.5l275 366q-7 14-7 25t5 27l3 7q8 25 0 48.5T548 538q-20 15-45 15-7 0-15-1l-46-11q-26-6-48 4L27 177q-4-5-10.5-5T5 177q-5 5-5 11.5T5 200l364 364q-7 7-11.5 17.5T330 649l-25 64q-4 9-13 9l-107 15q-52 7-87 46.5T63 876v78q0 19 13.5 33t32.5 14h875q7 0 11.5-4.5t4.5-11.5q0-7-4.5-11t-11.5-4zM189 768l108-15q12-2 22.5-9.5T334 724l8-20h96q6 0 10.5-4.5T453 688q0-7-4.5-11t-10.5-4h-84l13-31h71q6 0 10.5-4.5T453 626q0-7-4.5-11.5T438 610h-59l6-14q6-15 20-22t29-3l25 6q20 5 26 6 9 2 18 2 36 0 64-21t39.5-54.5Q618 476 606 441l-2-6q-4-12-4-17 0-11 7.5-18t17.5-7.5q10-.5 18 7.5l179 179-328 328H94v-31q0-41 27-72t68-36zm-80 202q-6 0-10.5-4.5T94 954v-15h406q6 0 11-5l333-333 14 14q5 4 5 10.5t-5 11.5L539 956q-14 14-34 14H109zm625-110q-6 0-10.5 4.5T719 876q0 7 4.5 11.5T734 892h141q7 0 11.5-4.5T891 876q0-7-4.5-11.5T875 860H734zm188 16q0 7 4.5 11.5T938 892h31q6 0 10.5-4.5T984 876q0-7-4.5-11.5T969 860h-31q-7 0-11.5 4.5T922 876zm-94-94q0 7 4.5 11.5T844 798h78q7 0 11.5-4.5T938 782q0-7-4.5-11t-11.5-4h-78q-7 0-11.5 4.5T828 782z"/></svg>