<svg viewBox="0 0 1244 1083.753" xmlns="http://www.w3.org/2000/svg"><path d="M552 914H243q-25 0-44-17.5T178 853l-33-502q0-5 3.5-9t8.5-4h481q5 0 8.5 4t3.5 9l-16 247q0 5-4 8.5t-9 3.5q-5 0-8.5-4.5T609 596l15-233H171l32 488q2 16 13 27t27 11h309q14 0 25-8.5t14-22.5q2-5 6-8t9-2q5 1 8 5.5t2 9.5v1q-6 22-24 36t-40 14zm83-551H161q-23 1-39.5-15T105 309q0-23 15.5-39.5T159 252h476q23 0 39 16t17 39q1 23-15.5 39.5T637 363h-2zm-474-86q-13 0-22 8.5t-9 21.5q0 13 8.5 22t21.5 9h475q12 0 21-8.5t9.5-21q.5-12.5-8-21.5T636 277H161zm226 246q-5 0-9-3.5t-4-7.5q0-4 1-6L528 97q1-4 4-6.5t7-2.5h158q5 0 8.5 4t3.5 9q0 5-3.5 8.5T697 113H548L398 515q-1 4-4 6t-7 2zm388 391q-30 0-59-16-27 16-58 16-33 0-64-44-24-36-41-92-15-49-15-80.5t16-59.5q16-28 43.5-44t60-16q32.5 0 58.5 16 29-16 59-16 32 0 59.5 16t43.5 44q16 28 16.5 59.5T880 778q-17 56-41 92-30 44-64 44zm-58-43q4 0 6 2 26 16 52 16 22 0 46-36 20-32 34.5-78t14.5-77q0-40-28-67.5T775 603q-27 0-51 16-7 3-14 0-33-22-71-14t-60 40q-15 24-15 54t14 76q14 46 35 78 23 36 45 36 26 0 52-16 4-2 7-2zm-1-250q-5 0-8.5-4t-3.5-9q0-31 18-56.5t47-36.5q4-2 9 0t7 7q2 5-.5 10t-7.5 6q-22 8-35 27.5T729 608q0 5-4 9t-9 4h1-1z"/></svg>