<svg viewBox="0 0 1244 1083.753" xmlns="http://www.w3.org/2000/svg"><path d="M861 684q-2 0-4 2t-2 4q0 2 2 4.5t4 2.5q2 0 4-2t2-4.5q0-2.5-2-4.5t-4-2zm20 19q-2 0-4 2t-2 4q0 6 6 6t6-6q0-6-6-6zm-20 20q-2 0-4 2t-2 5q0 6 6 6 2 0 4-2t2-4.5q0-2.5-2-4.5t-4-2zm0 40q-6 0-6 6t6 6q2 0 4-2t2-4q0-6-6-6zm-39-79q-2 0-4 2t-2 4q0 2 2 4.5t4 2.5q2 0 4-2t2-4.5q0-2.5-2-4.5t-4-2zm20 19q-2 0-4 2t-2 4q0 6 6 6t6-6q0-6-6-6zm-20 20q-2 0-4 2t-2 5q0 6 6 6 2 0 4-2t2-4.5q0-2.5-2-4.5t-4-2zm20 19q-2 0-4 2t-2 4q0 6 6 6t6-6q0-6-6-6zm-20 21q-6 0-6 6t6 6q2 0 4-2t2-4q0-6-6-6zm20 18q-2 0-4 2t-2 4q0 6 6 6t6-6q0-6-6-6zm-20 21q-6 0-6 6t6 6q2 0 4-2t2-4q0-6-6-6zm0 39q-6 0-6 6t6 6q2 0 4-2t2-4q0-6-6-6zm-39-157q-2 0-4 2t-2 4q0 2 2 4.5t4 2.5q2 0 4-2t2-4.5q0-2.5-2-4.5t-4-2zm20 19q-2 0-4 2t-2 4q0 6 6 6t6-6q0-6-6-6zm-20 20q-2 0-4 2t-2 5q0 6 6 6 2 0 4-2t2-4.5q0-2.5-2-4.5t-4-2zm20 19q-2 0-4 2t-2 4q0 6 6 6t6-6q0-6-6-6zm-20 21q-6 0-6 6t6 6q2 0 4-2t2-4q0-6-6-6zm20 18q-2 0-4 2t-2 4q0 6 6 6t6-6q0-6-6-6zm-20 21q-6 0-6 6t6 6q2 0 4-2t2-4q0-6-6-6zm20 18q-2 0-4 2t-2 4.5q0 2.5 2 4.5t4 2q2 0 4-2t2-5q0-6-6-6zm-20 21q-6 0-6 6t6 6q2 0 4-2t2-4q0-6-6-6zm20 19q-6 0-6 6 0 2 2 4t4 2q2 0 4-2t2-4q0-6-6-6zm-20 20q-2 0-4 2t-2 4q0 2 2 4t4 2q2 0 4-2t2-4q0-2-2-4t-4-2zm20 19q-6 0-6 6 0 2 2 4t4 2q2 0 4-2t2-4q0-6-6-6zm-20 20q-2 0-4 2t-2 4q0 2 2 4t4 2q2 0 4-2t2-4q0-2-2-4t-4-2zm-19-216q-2 0-4 2t-2 4q0 6 6 6t6-6q0-6-6-6zm-20 20q-2 0-4 2t-2 5q0 6 6 6 2 0 4-2t2-4.5q0-2.5-2-4.5t-4-2zm20 19q-2 0-4 2t-2 4q0 6 6 6t6-6q0-6-6-6zm-20 21q-6 0-6 6t6 6q2 0 4-2t2-4q0-6-6-6zm20 18q-2 0-4 2t-2 4q0 6 6 6t6-6q0-6-6-6zm-20 21q-6 0-6 6t6 6q2 0 4-2t2-4q0-6-6-6zm20 18q-2 0-4 2t-2 4.5q0 2.5 2 4.5t4 2q2 0 4-2t2-5q0-6-6-6zm-20 21q-6 0-6 6t6 6q2 0 4-2t2-4q0-6-6-6zm20 19q-6 0-6 6 0 2 2 4t4 2q2 0 4-2t2-4q0-6-6-6zm-20 20q-2 0-4 2t-2 4q0 2 2 4t4 2q2 0 4-2t2-4q0-2-2-4t-4-2zm20 19q-6 0-6 6 0 2 2 4t4 2q2 0 4-2t2-4q0-6-6-6zm-20 20q-2 0-4 2t-2 4q0 2 2 4t4 2q2 0 4-2t2-4q0-2-2-4t-4-2zm20 19q-6 0-6 6 0 2 2 4t4 2q2 0 4-2t2-4q0-6-6-6zm-20 20q-2 0-4 2t-2 4q0 2 2 4t4 2q2 0 4-2t2-4q0-2-2-4t-4-2zm-19-177q-2 0-4 2t-2 4q0 6 6 6t6-6q0-6-6-6zm0 39q-2 0-4 2t-2 4.5q0 2.5 2 4.5t4 2q2 0 4-2t2-5q0-6-6-6zm-20 21q-6 0-6 6t6 6q2 0 4-2t2-4q0-6-6-6zm20 19q-6 0-6 6 0 2 2 4t4 2q2 0 4-2t2-4q0-6-6-6zm-20 20q-2 0-4 2t-2 4q0 2 2 4t4 2q2 0 4-2t2-4q0-2-2-4t-4-2zm20 19q-6 0-6 6 0 2 2 4t4 2q2 0 4-2t2-4q0-6-6-6zm-20 20q-2 0-4 2t-2 4q0 2 2 4t4 2q2 0 4-2t2-4q0-2-2-4t-4-2zm20 19q-6 0-6 6 0 2 2 4t4 2q2 0 4-2t2-4q0-6-6-6zm-20 20q-2 0-4 2t-2 4q0 2 2 4t4 2q2 0 4-2t2-4q0-2-2-4t-4-2zm-19-98q-6 0-6 6 0 2 2 4t4 2q2 0 4-2t2-4q0-6-6-6zm-20 20q-6 0-6 6t6 6q6 0 6-6 0-2-2-4t-4-2zm20 19q-6 0-6 6 0 2 2 4t4 2q2 0 4-2t2-4q0-6-6-6zm-20 20q-6 0-6 6t6 6q6 0 6-6 0-2-2-4t-4-2zm20 19q-6 0-6 6 0 2 2 4t4 2q2 0 4-2t2-4q0-6-6-6zm-20 20q-6 0-6 6t6 6q6 0 6-6 0-2-2-4t-4-2zm-39-78q-6 0-6 6t6 6q6 0 6-6 0-2-2-4t-4-2zm20 19q-6 0-6 6 0 2 2 4t4 2q2 0 4-2t2-4q0-6-6-6zm-20 20q-6 0-6 6t6 6q6 0 6-6 0-2-2-4t-4-2zm20 19q-6 0-6 6 0 2 2 4t4 2q2 0 4-2t2-4q0-6-6-6zm-20 20q-6 0-6 6t6 6q6 0 6-6 0-2-2-4t-4-2zm-39-78q-6 0-6 6t6 6q6 0 6-6 0-2-2-4t-4-2zm20 19q-6 0-6 6 0 2 2 4t4 2q2 0 4-2t2-4q0-6-6-6zm-20 20q-6 0-6 6t6 6q6 0 6-6 0-2-2-4t-4-2zm20 19q-6 0-6 6 0 2 2 4t4 2q2 0 4-2t2-4q0-6-6-6zm-20 20q-6 0-6 6t6 6q6 0 6-6 0-2-2-4t-4-2zm-39-78q-6 0-6 6t6 6q6 0 6-6 0-2-2-4t-4-2zm20 19q-6 0-6 6 0 2 2 4t4 2q2 0 4-2t2-4q0-6-6-6zm-20 20q-6 0-6 6t6 6q6 0 6-6 0-2-2-4t-4-2zm20 19q-6 0-6 6 0 2 2 4t4 2q2 0 4-2t2-4q0-6-6-6zm-20 20q-6 0-6 6t6 6q6 0 6-6 0-2-2-4t-4-2zm-39-78q-6 0-6 6t6 6q6 0 6-6 0-2-2-4t-4-2zm20 19q-6 0-6 6 0 2 2 4t4 2q2 0 4-2t2-4q0-6-6-6zm-20 20q-6 0-6 6t6 6q6 0 6-6 0-2-2-4t-4-2zm20 19q-6 0-6 6 0 2 2 4t4 2q2 0 4-2t2-4q0-6-6-6zm-20 20q-6 0-6 6t6 6q6 0 6-6 0-2-2-4t-4-2zm-39-78q-3 0-5 2t-2 4q0 2 2 4t5 2q6 0 6-6 0-2-2-4t-4-2zm20 19q-6 0-6 6t6 6q6 0 6-6t-6-6zm-20 20q-3 0-5 2t-2 4q0 2 2 4t5 2q6 0 6-6 0-2-2-4t-4-2zm20 19q-6 0-6 6t6 6q6 0 6-6t-6-6zm-20 20q-3 0-5 2t-2 4q0 2 2 4t5 2q6 0 6-6 0-2-2-4t-4-2zm-40-78q-2 0-4 2t-2 4q0 2 2 4t4 2q2 0 4.5-2t2.5-4q0-2-2-4t-5-2zm21 19q-6 0-6 6t6 6q6 0 6-6t-6-6zm-21 20q-2 0-4 2t-2 4q0 2 2 4t4 2q2 0 4.5-2t2.5-4q0-2-2-4t-5-2zm21 19q-6 0-6 6t6 6q6 0 6-6t-6-6zm-21 20q-2 0-4 2t-2 4q0 2 2 4t4 2q2 0 4.5-2t2.5-4q0-2-2-4t-5-2zm-39-78q-2 0-4 2t-2 4q0 2 2 4t4 2q2 0 4-2t2-4q0-6-6-6zm21 19q-6 0-6 6t6 6q6 0 6-6t-6-6zm-21 20q-2 0-4 2t-2 4q0 2 2 4t4 2q2 0 4-2t2-4q0-6-6-6zm21 19q-6 0-6 6t6 6q6 0 6-6t-6-6zm-21 20q-2 0-4 2t-2 4q0 2 2 4t4 2q2 0 4-2t2-4q0-6-6-6zm-39-78q-2 0-4 2t-2 4q0 2 2 4t4 2q2 0 4-2t2-4q0-6-6-6zm21 19q-6 0-6 6t6 6q6 0 6-6t-6-6zm-21 20q-2 0-4 2t-2 4q0 2 2 4t4 2q2 0 4-2t2-4q0-6-6-6zm21 19q-6 0-6 6t6 6q6 0 6-6t-6-6zm-21 20q-2 0-4 2t-2 4q0 2 2 4t4 2q2 0 4-2t2-4q0-6-6-6zm-39-78q-2 0-4 2t-2 4q0 2 2 4t4 2q2 0 4-2t2-4q0-6-6-6zm21 19q-7 0-7 6 0 2 2 4t5 2q6 0 6-6t-6-6zm-21 20q-2 0-4 2t-2 4q0 2 2 4t4 2q2 0 4-2t2-4q0-6-6-6zm21 19q-7 0-7 6 0 2 2 4t5 2q6 0 6-6t-6-6zm-21 20q-2 0-4 2t-2 4q0 2 2 4t4 2q2 0 4-2t2-4q0-6-6-6zm-39-78q-2 0-4 2t-2 4q0 2 2 4t4 2q2 0 4-2t2-4q0-6-6-6zm20 19q-6 0-6 6 0 2 2 4t4 2q2 0 4.5-2t2.5-4q0-6-7-6zm-20 20q-2 0-4 2t-2 4q0 2 2 4t4 2q2 0 4-2t2-4q0-6-6-6zm20 19q-6 0-6 6 0 2 2 4t4 2q2 0 4.5-2t2.5-4q0-6-7-6zm-20 20q-2 0-4 2t-2 4q0 2 2 4t4 2q2 0 4-2t2-4q0-6-6-6zm-39-78q-2 0-4 2t-2 4q0 2 2 4t4 2q2 0 4-2t2-4q0-2-2-4t-4-2zm20 19q-6 0-6 6 0 2 2 4t4 2q2 0 4-2t2-4q0-6-6-6zm-20 20q-2 0-4 2t-2 4q0 2 2 4t4 2q2 0 4-2t2-4q0-2-2-4t-4-2zm20 19q-6 0-6 6 0 2 2 4t4 2q2 0 4-2t2-4q0-6-6-6zm-20 20q-2 0-4 2t-2 4q0 2 2 4t4 2q2 0 4-2t2-4q0-2-2-4t-4-2zm-39-78q-2 0-4 2t-2 4q0 2 2 4t4 2q2 0 4-2t2-4q0-2-2-4t-4-2zm20 19q-6 0-6 6 0 2 2 4t4 2q2 0 4-2t2-4q0-6-6-6zm-20 20q-2 0-4 2t-2 4q0 2 2 4t4 2q2 0 4-2t2-4q0-2-2-4t-4-2zm20 19q-6 0-6 6 0 2 2 4t4 2q2 0 4-2t2-4q0-6-6-6zm488-136q-6 0-6 6t6 6q2 0 4-2t2-4q0-2-2-4t-4-2zm20-60q-2 0-4 2t-2 4q0 6 6 6t6-6q0-6-6-6zm191-200H809q-19-46-58-92-29-34-66-64-54-43-111-71-52-25-80.5-25T412 315q-58 28-111 71-37 30-66 64-39 46-57 92H71q-26 0-45 19T7 606q0 24 16 42t39 21l114 281q10 23 31 37t46 14h484q26 0 46.5-14t30.5-38l111-280q23-4 38.5-21.5T979 606q0-26-18.5-45T916 542zM675 399q85 69 117 143H674q-11-46-33-91-16-34-37-63-27-40-58-68 66 28 129 79zm-174-91q16 7 39 29 27 25 51 60 19 27 35 59 21 43 31 86H501V308zm-190 91q64-51 129-79-27 25-58 68-51 72-69 154H195q18-42 55-84 27-31 61-59zm174-91v234H329q18-75 66-145 25-35 51-60 23-22 39-29zm417 377l-1-1h-1q-2 0-4 2t-2 4q0 4 3 6l-50 127q-1-3-4-3t-5 2q-2 2-2 4.5t2 4.5q2 2 3.5 2t1.5-1l-19 48h-2q-2 0-4 2t-2 4.5q0 2.5 4 4.5l-19 47q-4 2-4 6 0 1 1 2-5 10-10 15-1-3-4-3t-5 2q-2 2-2 4.5t3 4.5q-3 3-8 6l-4 3q-1-1-4.5-1t-5.5 5q-9 3-21 3h-6v-2q0-6-6-6t-6 6q0 1 1 2h-28v-2q0-6-6-6t-6 6q0 1 1 2h-28v-2q0-6-6-6t-6 6v2h-27v-2q0-6-6-6t-6 6v2h-28q1-1 1-2 0-6-6-6t-6 6v2h-28q1-1 1-2 0-6-6-6t-6 6v2h-28q1-1 1-2 0-6-6-6t-6 6v2h-28q1-1 1-2 0-6-6-6t-6 6v2h-28q1-1 1-2 0-6-6-6t-6 6v2h-28q1-1 1-2 0-6-6-6t-6 6v2h-28l1-2q0-6-6-6t-6 6v2h-28l1-2q0-6-6-6-3 0-5 1.5t-2 4.5l1 2h-28l1-2q0-6-6.5-6t-6.5 6l1 2q-20-1-36-12t-24-29l-13-33q6 0 6-6t-6-6q-2 0-4 2L79 670h679q0 6 6 6t6-6h27q0 6 6 6t6-6h27q0 6 6 6t6-6h27q0 6 6 6t6-6h21l-6 15zm14-31H71q-20 0-34-14t-14-34q0-20 14-34t34-14h845q19 0 33 14t14 34q0 20-14 34t-33 14zM522 153l393 250q10 5 18 5t11-1q16-5 22-19 30-61 27-127t-35.5-123.5Q925 80 868 43.5T744.5 2Q678-3 617 22.5T514 100q-10 11-7.5 27t15.5 26zm4-43q40-49 97.5-73.5t120-19Q806 23 859.5 57t84 88Q974 199 977 261.5T952 381q-3 7-12 10t-17-2L531 140q-7-4-9-13.5t4-16.5zm-262 38q7 10 23 19 13 7 23 10 16 7 32 7 9 0 13-3 7-5 10-21 2-11 1-23 0-36-13-53.5T318 62q-22-4-41 9.5t-22.5 35Q251 128 264 148zm6-38q3-16 16-26 10-7 23-7 19 0 32 16 6 9 8 26 2 15 1 30t-4 19q-4 2-19-2t-28-10q-16-8-22-17-9-13-7-29zm-77 195q1 1 3 1 21 0 48-17 31-19 32-32.5T250 220l-1-1q-28-22-49.5-23T160 210q-18 15-18 37 0 26 13 40 16 18 38 18zm-36-57q2-16 14-26.5t25-10.5h3q11 1 26 10 12 8 23 18.5t12 15.5q-2 4-14 13t-25 15q-16 7-27 7-16-2-27-14-10-10-10-28zm604-41q13 0 21.5-9t8.5-21.5q0-12.5-8.5-21.5t-21.5-9q-13 0-21.5 9t-8.5 21.5q0 12.5 8.5 21.5t21.5 9zm0-45q6 0 10.5 4t4.5 10q0 6-4.5 10.5T761 191q-6 0-10-4.5t-4-10.5q0-6 4-10t10-4zm99 29q13 0 22-8.5t9-21.5q0-13-9-21.5t-22-8.5q-13 0-21.5 8.5T830 161q0 13 9 21.5t21 8.5zm0-45q6 0 10.5 4.5T875 161q0 6-4.5 10t-10.5 4q-6 0-10-4t-4-10q0-6 4-10.5t10-4.5zm20 118q0 12 9 21t21 9q12 0 21.5-9t9.5-21.5q0-12.5-9-21.5t-22-9q-13 0-21.5 9t-8.5 22zm30-15q6 0 10.5 4.5T925 264q0 6-4.5 10t-10.5 4q-6 0-10-4t-4-10q0-6 4-10.5t10-4.5z"/></svg>