<svg viewBox="0 0 1244 1083.753" xmlns="http://www.w3.org/2000/svg"><path d="M846 44h-80q-42 0-77.5 20.5t-56 56Q612 156 612 198v89h-29q-29 0-49.5 20.5T513 357q0 24 15 43t38 25v241q0 37 26.5 64t63.5 27q37 0 64-27t27-64V425q23-6 38-25t15-43q0-29-20.5-49.5T730 287h-17v-89q0-22 15.5-37.5T766 145h80q22 0 37.5 15.5T899 198v582q0 31-22.5 54T822 857H178q-31 0-53.5-22.5T102 780V198q0-22 15-37.5t37-15.5h80q22 0 37.5 15.5T287 198v89h-17q-29 0-49.5 20.5T200 357q0 24 15 43t38 25v241q0 37 27 64t64 27q37 0 63.5-27t26.5-64V425q23-6 38-25t15-43q0-29-20.5-49.5T417 287h-29v-89q0-42-20.5-77.5t-56-56Q276 44 234 44h-80q-42 0-77.5 20.5t-56 56Q0 156 0 198v582q0 48 24 89t65 65q41 24 89 24h644q48 0 89-24t65-65q24-41 24-89V198q0-42-20.5-77.5t-56-56Q888 44 846 44zM344 723q-24 0-40.5-16.5T287 666v-83h113v83q0 24-16.5 40.5T344 723zm56-174H287v-52h113v52zm0-86H287v-36h113v36zm17-143q15 0 25.5 11t10.5 26q0 15-10.5 25.5T417 393H270q-15 0-25.5-10.5T234 357q0-15 10.5-26t25.5-11h147zm-63-33h-33v-59h33v59zm-27-166q26 32 27 72l-33 1q-1-27-20-51l26-22zM224 78h10q35 0 63 17l-18 29q-21-13-45-13h-10V78zm-70 0h36v33h-36q-10 0-26 4l-11-32q20-5 37-5zm-71 23l20 27q-25 18-32 46l-32-9q10-38 44-64zM34 203h34v67H34v-67zm0 101h34v68H34v-68zm0 102h34v67H34v-67zm0 101h34v68H34v-68zm0 102h34v67H34v-67zm0 101h34v68H34v-68zm41 171q-27-28-37-66l33-8q8 29 28 51l-24 23zm103 43q-38 0-73-19l17-29q28 15 56 15v33zm102 0h-68v-33h68v33zm101 0h-67v-33h67v33zm102 0h-68v-33h68v33zm34 0v-33h67v33h-67zm169 0h-68v-33h68v33zm101 0h-67v-33h67v33zm35 0h-1v-33h1q28 0 55-15l17 29q-33 19-72 19zM674 120l26 22q-20 23-20 52l-34-2q2-41 28-72zm-28 107h33v60h-33v-60zm10 496q-23 0-39.5-16.5T600 666v-83h113v83q0 24-16.5 40.5T656 723zm57-174H600v-52h113v52zm0-86H600v-36h113v36zm17-143q15 0 25.5 11t10.5 26q0 15-10.5 25.5T730 393H583q-15 0-25.5-10.5T547 357q0-15 10.5-26t25.5-11h147zm36-209q-24 0-45 13l-17-29q28-17 62-17h11v33h-11zm107 5q-15-5-27-5h-35V78h35q21 0 37 6l-10 32zm25 13l20-27q16 11 27.5 27.5T962 165l-33 9q-8-28-31-45zm26 753l-24-24q22-22 29-50l33 8q-11 39-38 66zm42-104h-34v-67h34v67zm0-101h-34v-68h34v68zm0-102h-34v-67h34v67zm0-101h-34v-68h34v68zm0-102h-34v-67h34v67zm0-101h-34v-68h34v68z"/></svg>