<svg viewBox="0 0 1244 1083.753" xmlns="http://www.w3.org/2000/svg"><path d="M263 565q36-25 92-49 39-17 106-40 67 23 108 41 55 23 91.5 47.5T719 622q-18 1-30 14t-12 32v36q0 15 8.5 27t22.5 17v162q0 37 27 64t64.5 27q37.5 0 64.5-27t27-64V748q14-5 22.5-17t8.5-27v-36q0-20-13.5-33.5T876 621h-36q-9-27-24-51-23-37-63-71-5-4-10.5-3.5T733 501q-4 5-3.5 10.5t5.5 9.5q33 29 56 64 11 18 18 36h-56q-23-44-77-81-32-22-79-43-35-16-91-36l73-27q70 29 110 54 5 4 11 2.5t9-6.5q3-5 1.5-11t-6.5-10q-43-26-87-44 38-17 69-36 56-35 83.5-79t27.5-99q0-60-24-102-25-44-72-66-38-19-95-27.5T461 1q-88 0-144.5 8.5T222 37q-48 22-73 66-24 42-24 102 0 107 111 178 35 21 70 36-61 26-105 55-62 44-94 96-15 24-24 51H46q-19 0-32.5 14T0 668v36q0 15 9 27.5T32 748v63q0 6 4 10.5t10 4.5q6 0 10.5-4.5T61 811v-61h124v160q0 25-18 43.5T123.5 972q-25.5 0-44-18.5T61 910v-40q0-6-4.5-10.5T46 855q-6 0-10 4.5T32 870v40q0 37 27 64t64.5 27q37.5 0 64-27t26.5-64V748q14-4 23-16.5t9-27.5v-36q0-19-12.5-32T203 622q21-32 60-57zm599 345q0 26-18.5 44t-44 18q-25.5 0-44-18.5T737 910V750h125v160zm31-242v36q0 7-5 12t-12 5H723q-7 0-12-5t-5-12v-36q0-8 5-12.5t12-4.5h153q8 0 12.5 4.5T893 668zm-676 0v36q0 7-5 12t-12 5H46q-7 0-12-5t-5-12v-36q0-7 5-12t12-5h154q7 0 12 5t5 12zm-48-47h-55q8-18 18-36 27-46 86-86 45-31 107-57 38-15 115-41 70-24 104-37 57-23 99-49 38-23 56-50t18-60q0-38-12-61t-40-36.5q-28-13.5-77-20T461 81q-78 0-127 6.5t-78 21Q227 123 215 150q-10 20-10 55 0 40 26 71 24 28 74 54 40 20 112 46l-18 6q-37 13-55 21-54-21-92-45-97-60-97-153 0-53 19.5-87.5T235 63q35-17 88.5-25t138-8q84.5 0 138 8T688 63q41 20 60.5 55t19.5 87q0 92-97 153-39 24-91 45-32 13-97 35l-27 9q-71 25-111 42-60 25-99 51-54 37-77 81zm65-416q0-29 8-45t28-26q51-24 191.5-24T653 134q18 9 26 23 9 17 9 48 0 34-27 61-25 24-78 48-41 19-122 47-85-30-129-50-51-25-74.5-49.5T234 205zm0 0z"/></svg>