<svg viewBox="0 0 1244 1083.753" xmlns="http://www.w3.org/2000/svg"><path d="M985 541q6 0 10.5-4t4.5-10V98q0-5-3.5-9t-8.5-5L503 1h-5L12 84q-5 1-8.5 5T0 98v429q0 6 4.5 10t10.5 4q6 0 10-4t4-10V379l456-70v460L29 728V595q0-6-4-10t-10-4q-6 0-10.5 4T0 595v309q0 5 3.5 9t8.5 5l486 83h5l485-83q5-1 8.5-5t3.5-9V595q0-6-4.5-10t-10.5-4q-6 0-10 4t-4 10v133l-171 16V595q0-6-4.5-10t-10.5-4q-6 0-10.5 4t-4.5 10v151l-187 17V384l187 25v118q0 6 4.5 10t10.5 4q6 0 10.5-4t4.5-10V396q0-5-4-9.5t-9-4.5l-217-30q-8 0-12.5 4.5T553 367v399l-38 3V309l456 70v148q0 6 4 10t10 4zm-14-302l-456-70v-57l456 70v57zm-486-70L29 239v-57l456-70v57zM29 269l456-71v22L29 291v-22zm486-71l456 71v22l-456-71v-22zm456-46L515 82V33l456 78v41zM485 33v49L29 152v-41l456-78zM29 350v-30l456-70v29L29 350zm776 482v-59l97-9v55l-97 13zm38 25v56l-97 17v-60l97-13zm-68-82v61l-97 13v-65l97-9zm-59 99v61l-103 17v-65l103-13zm-132 83l-69 12v-68l69-10v66zM225 836v-61l97 9v65l-97-13zm-30-4l-97-13v-55l97 9v59zm60 38v60l-97-17v-56l97 13zm29 4l103 13v65l-103-17v-61zm67-21v-67l134 12v73l-134-18zM69 761v54l-40-5v-52l40 3zm-40 78l99 14v55l-99-17v-52zm387 118v-66l69 10v68l-69-12zm456-49v-55l99-14v52l-99 17zm99-98l-40 5v-54l40-3v52zm-402-16l80-8v67l-134 18v-73l54-4zm-54-515v-29l456 70v30l-456-71z"/></svg>