<svg viewBox="0 0 1244 1083.753" xmlns="http://www.w3.org/2000/svg"><path d="M109 1001h782q32 0 55-23t23-55V79q0-32-23-55T891 1H109Q77 1 54 24T31 79v844q0 32 23 55t55 23zm625-125v-63h125v63H734zm-671 0v-63h31v63H63zm62-63h109v63H125v-63zm266 0v63H266v-63h125zm156 0v63H422v-63h125zm156 0v63H578v-63h125zm-390 94v63H188v-63h125zm31 0h125v63H344v-63zm156 0h125v63H500v-63zm156 0h125v63H656v-63zm235-94h47v63h-47v-63zm47-31H63V345h46q7 0 11.5-4.5T125 329v-62q0-7-4.5-11.5T109 251H63v-63h875v594zM63 282h31v31H63v-31zm0 641v-16h93v63h-47q-19 0-32.5-13.5T63 923zm828 47h-78v-63h125v16q0 19-13.5 33T891 970zM109 32h782q20 0 33.5 13.5T938 79v16h-63q-7 0-11.5 4.5T859 110q0 6 4.5 11t11.5 5h63v31H63v-31h671q7 0 11.5-4.5T750 110q0-7-4.5-11T734 95H63V79q0-20 13.5-33.5T109 32zm688 94h16q6 0 10.5-4.5T828 110q0-7-4.5-11T813 95h-16q-7 0-11.5 4.5T781 110q0 6 4.5 11t11.5 5zM172 751q7 0 11.5-4.5T188 735V282h250v453q0 7 4.5 11.5T453 751q6 0 11-4.5t5-11.5V267q0-7-4.5-11.5T453 251H172q-7 0-11.5 4.5T156 267v468q0 7 4.5 11.5T172 751zm344-406h93q7 0 11.5-4.5T625 329v-62q0-7-4.5-11.5T609 251h-93q-7 0-11.5 4.5T500 267v62q0 7 4.5 11.5T516 345zm15-63h63v31h-63v-31zm266 63h94q6 0 10.5-4.5T906 329v-62q0-7-4.5-11.5T891 251h-94q-7 0-11.5 4.5T781 267v62q0 7 4.5 11.5T797 345zm16-63h62v31h-62v-31zm-110 63q20 0 33.5-14t13.5-33.5q0-19.5-13.5-33t-33-13.5q-19.5 0-33.5 13.5t-14 33q0 19.5 14 33.5t33 14zm0-63q7 0 11.5 4.5T719 298q0 7-4.5 11t-11.5 4q-7 0-11-4.5t-4-10.5q0-6 4.5-11t10.5-5z"/></svg>