<svg viewBox="0 0 1244 1083.753" xmlns="http://www.w3.org/2000/svg"><path d="M942 476q-1-2-7-21Q820 123 799 79q-19-40-64-61-37-17-81-17H346q-44 0-81 17-45 21-64 61-21 44-136 376l-7 21q-2 7 1 13t9 9l124 47q2 1 5.5 1t7-1.5q3.5-1.5 6-4t3.5-5.5l66-180v629q0 7 5 12t12 5h183q7 0 11.5-4.5T497 985l3-59 3 59q1 7 5.5 11.5t11.5 4.5h183q7 0 12-5t5-12V355l66 180q4 8 9.5 10t12.5 0l124-47q6-3 9-9t1-13zM537 35l-28 39-9 13-37-52h74zM300 242q-6-1-11.5 2t-7.5 9l-93 254-92-36q25-75 69-198 54-151 67.5-180T282 48q29-13 64-13h75l58 81-3 4q-3 4-3 10v352H314V259q0-6-4-11t-10-6zm163 725H314v-30h151l-2 30zm223 0H537l-2-30h151v30zm0-64H533l-16-290q0-7-5-11.5t-12-4.5q-7 0-12 4.5t-5 11.5l-16 290H314V517h134q-5 25-8 57t-3 57h34q0-28 3.5-60t8.5-54h34q5 22 8.5 54t3.5 60h34q0-25-3-57t-8-57h134v386zm126-396l-93-254q-2-6-7.5-9t-11.5-2q-6 1-10 6t-4 11v223H507V136l73-101h74q35 0 65 13 35 16 48.5 45T835 273q44 123 69 198l-92 36z"/></svg>