<svg viewBox="0 0 1244 1083.753" xmlns="http://www.w3.org/2000/svg"><path d="M672 298h31v31q0 7 4.5 11.5T719 345q7 0 11-4.5t4-11.5v-31h32q20 0 33.5-14t13.5-33v-31h62q7 0 11.5-4.5T891 204q0-7-4.5-11.5T875 188h-62v-62q0-7-4.5-11.5T797 110q-7 0-11.5 4.5T781 126v62h-31q-19 0-33 13.5T703 235v32h-31q-7 0-11.5 4.5T656 282q0 6 4.5 11t11.5 5zm62-63q0-6 4.5-10.5T750 220h31v31q0 7-4.5 11.5T766 267h-32v-32zM355 752q-41 11-69 1t-37.5-38q-9.5-28 1.5-69 1-6-1.5-11.5T241 627q-5-2-11-.5t-9 6.5l-85 135q-13 21-10.5 45.5t20 42q17.5 17.5 42 20.5t45.5-10l135-86q5-3 6.5-9t-.5-11q-2-5-7.5-7.5T355 752zm-139 87q-11 8-25 6.5T167 834q-10-10-11.5-24t6.5-25l52-82q5 35 27 57t57 27l-82 52zm770 30l-93-94q-35-33-80-33h-50l-87-87q122-126 204-279T999 53q3-15-3.5-28T976 5.5Q963-1 948 2 778 39 625 121T346 325l-87-87v-50q0-46-33-79l-94-94Q119 1 99 1T65 15L14 66Q0 80 0 99.5T14 133l94 94q33 33 79 33h50l87 87Q202 473 120 626T1 949q-3 15 3.5 28T24 996.5q13 6.5 28 3.5 170-37 323-119t279-204l87 87v50q0 45 33 80l94 93q14 14 34 14t33-14l51-51q14-14 14-34t-14-33zM955 32q6-1 10.5 3.5T969 46l15 4-15-4q-15 64-26 99-12-30-34.5-52.5T856 58q35-11 99-26zM796 78q2 1 5 1 33 0 61 16t44 44q16 28 16 61 0 3 1 5-44 120-112.5 228T654 632l-44-43q58-62 77-131 14-52-.5-90.5t-53-53Q595 300 543 314q-69 19-131 77l-43-44q91-88 199-156.5T796 78zM360 508l133 133q-43 21-79.5 22.5t-57-19q-20.5-20.5-19-57T360 508zm161 116L377 480q18-26 35-45l154 154q-19 17-45 35zm-87-211q39-36 80.5-55.5T591 338q49 0 65 37 15 34-3.5 88T588 567l-26-26Q449 427 434 413zM187 228q-34 0-57-23l-94-94q-4-5-4-12t4-11l51-51q5-5 12-5t11 5l94 94q24 24 24 57v18l-61-60q-4-5-10.5-5t-11 4.5q-4.5 4.5-4.5 11t4 11.5l60 60h-18zM46 970q-7 1-11-3.5T32 956q11-56 25-99 12 30 34.5 52.5T144 944q-32 10-98 26zm158-46q-2-1-5-1-33 0-61-16t-44-44q-16-28-16-61 0-3-1-5 44-120 112.5-228.5T346 369l44 44q-58 62-77 131-13 46-3 81 10 33 36 51.5t63 18.5q45 0 96-26 44-22 83-58l44 44q-91 88-199.5 156.5T204 924zm760-10l-51 51q-4 4-11 4t-12-4l-94-94q-23-23-23-57v-18l60 60q5 4 11.5 4t11-4.5q4.5-4.5 4.5-11t-5-10.5l-60-61h18q33 0 57 24l94 94q5 4 5 11t-5 12z"/></svg>