<svg viewBox="0 0 1244 1083.753" xmlns="http://www.w3.org/2000/svg"><path d="M305 691v25q0 6 4.5 10t10.5 4q6 0 10.5-4t4.5-10v-25q0-6-4.5-10.5T320 676q-6 0-10.5 4.5T305 691zm0 0zm271 0v25q0 6 4.5 10t10.5 4q6 0 10-4t4-10v-25q0-6-4-10.5t-10-4.5q-6 0-10.5 4.5T576 691zm0 0zm-98 13q-10 10-23 10-6 0-12-3t-10-7q-4-4-10-4.5t-10.5 3.5q-4.5 4-5 10t3.5 11q17 19 44.5 19t44.5-19q4-5 3.5-11t-5.5-10q-5-4-10.5-3.5T478 704zm0 0zM267 1q-49 0-91 16-5 1-7.5 7t-1 11.5q1.5 5.5 7.5 8t11 .5q40-14 81-14h377q54 0 102.5 23t82.5 66q25 31 38.5 69.5T881 268q0 71-22 125-40-54-101-88h-1q2-22 2-37 0-31-16-57.5t-42-42Q675 153 644 153H267q-31 0-57 15.5t-42 42Q152 237 152 268q0 15 2 37-59 31-102 88-23-53-23-125 0-40 13.5-78.5T82 119q21-27 52-48 5-4 6.5-10t-2-11q-3.5-5-9.5-6t-11 2q-34 23-59 54-28 35-43.5 78.5T0 268.5Q0 315 8.5 354T36 429q23 45 71 104l59 77-62 177q-9 25-9 53 0 44 21.5 81t58.5 58.5q37 21.5 81 21.5h399q53 0 93-30 5-4 6-9.5t-2.5-10.5q-3.5-5-9.5-6t-11 2q-34 25-76 25H256q-36 0-66.5-17.5t-48-48Q124 876 124 840q0-21 8-43l55-158q21-62 66-107 40-40 92.5-62t110-22q57.5 0 109.5 22t92 62q45 45 67 107l55 158q7 20 7 43 0 38-19 69-3 5-1.5 11t6.5 9q5 3 11 1.5t9-6.5q24-38 24-84 0-28-9-53l-62-177 63-81q24-32 36-49 19-28 31-51 19-36 27.5-75t8.5-85.5q0-46.5-15.5-90T851 100q-38-47-92-73T644 1H267zm-86 580l-51-65q-44-56-64-93h1q38-56 94-89 8 24 24 50 13 19 42 56l35 46q-14 10-38 34-25 28-43 61zm105-112l-36-47q-33-42-45-62-15-25-20-50-4-16-4-42 0-35 25.5-60.5T267 182h377q35 0 60.5 25.5T730 268q0 18-4.5 42.5T706 360q-12 20-45 62l-36 47q-77-50-170-50-45 0-88.5 13T286 469zm495 47l-51 65v-1q-31-56-81-94l35-46q29-36 42-56 16-26 24-50 0 1 5 4t6 3q51 34 84 82-11 20-28 44-10 15-36 49zm0 0z"/></svg>