<svg viewBox="0 0 1244 1083.753" xmlns="http://www.w3.org/2000/svg"><path d="M900 124q-49-49-112-75T656 23q-69 0-131.5 26t-112 75.5Q363 174 337 236.5T311 368q0 78 33 146l-37 37q-15 14-15 35.5t15 35.5l4 4-59 59-48-48q-10-10-23-10t-22 10l-43 42q-7 7-7 17.5t7 17.5l16 16q2 2 0 2l-27 27q-2 2-2 0l-16-16q-9-7-17.5-7T52 743L9 786q-9 9-9 22.5T9 831l49 48-4 5q-13 13-13 31.5T54 948l18 18q12 13 32 13t32-13l258-257 4 4q15 15 36 15t36-15l35-35q70 35 151 35 69 0 132-26t112-75q66-66 90-156 23-88 0-175-24-91-90-157zM116 945q-5 5-12 5t-12-5l-17-18q-5-4-5-11.5t5-11.5l45-45 41 41-45 45zm43-126l41 42-18 18-41-41 18-19zm62 21l-41-41 12-12q4-5 4-11t-4-10q-4-4-10-4t-11 4l-92 93-49-49q-1-1-1-2v-1h1l39-40 13 13q9 9 22 9t22-9l27-27q9-9 9-22t-9-22l-13-12 39-40q2-2 4 0l48 49-16 16q-4 4-4 10t4 10.5q4 4.5 10.5 4.5t10.5-4l96-96 41 41-152 152zm228-147q-6 6-15 6t-15-6l-91-91q-7-7-7-15.5t7-15.5l30-30q23 40 54 71 29 29 66 52l-29 29zm430-102q-44 45-101.5 69t-121 24q-63.5 0-121-24T433 591.5q-45-44.5-68.5-102T341 368q0-64 23.5-121T433 145.5Q478 101 535.5 77t121-24q63.5 0 121 24T879 145q60 60 82 143 21 80 0 160-22 83-82 143zm40-271q-16-83-74-141-38-38-86.5-58t-102-20Q603 101 554 121t-87 58q-51 52-69 120.5t0 137.5q18 69 69 120 38 38 87 58t102.5 20q53.5 0 102-20t86.5-58q12-12 22-25 4-4 3.5-10.5T865 511q-5-4-11-3t-10 6q-6 8-20 22-8 9-26 23-18-27-47-39l-49-19v-13q15-8 26-20h11q20 0 38-9t31-25q15-19 18-42.5t-7-46.5l-22-51q-2-3-4-12-3-24-15-46t-31-39q-39-33-91-33-33 0-63 15-5 3-7 8.5t.5 11q2.5 5.5 8.5 7.5t11-1q24-12 50-12 41 0 72 27t36 67q2 10 6 19l22 51q7 15 5 30.5T785 416q-15 20-39 23 6-17 6-34v-94q0-11-7-18t-18-7l-57-2q-28 0-51-18l-4-4q-9-5-16-4-9 0-14 8-24 28-24 68v71q0 17 6 34-24-3-39-23-10-13-12-28.5t4-30.5l23-51q4-11 5-19 3-25 17-45 4-5 2.5-11t-6.5-9.5q-5-3.5-11-2t-9 6.5q-17 24-22 56-1 7-3 12l-22 51q-10 23-7 46.5t18 42.5q13 16 31 25t38 9h10q12 12 23 19v14l-49 19q-28 12-45 38-13-11-25-22-46-45-62-106.5t0-122.5q16-61 62-107 34-34 77-51.5t91-17.5q48 0 91 17.5t77 51.5q52 50 66 125 13 69-15 137-3 6-1 11.5t8 8q6 2.5 11.5 0t7.5-7.5q32-74 18-154zm-329 14q0-25 13-44 28 22 66 24l54 1v90q0 27-19.5 46.5T656 471q-28 0-47-19.5T590 405v-71zm66 166q12 0 17-1v12q0 7-5 12.5t-12.5 5.5q-7.5 0-13-5.5T637 511v-13q6 2 19 2zm-87 48l43-17q5 12 17 19.5t26 7.5q14 0 25.5-7.5T698 531l42 17q21 7 34 27-56 31-119 31t-118-32q12-18 32-26z"/></svg>