<svg viewBox="0 0 1244 1083.753" xmlns="http://www.w3.org/2000/svg"><path d="M953 850l-60-104q21-9 34-28t13-43q0-26-16.5-46.5T882 601v-56q0-42-20.5-77.5t-56-56.5Q770 390 728 390t-77.5 21Q615 432 594 467.5T573 545v65q0 8 6 14t14 6q8 0 13.5-6t5.5-14v-65q0-31 15.5-58t42.5-42.5q27-15.5 58-15.5t57.5 15.5q26.5 15.5 42 42T843 545v56q-25 7-41 27.5T786 675q0 24 13 43t34 28l-60 104q-6 10-.5 19.5T789 880h147q12-1 17.5-10.5T953 850zm-90-212q16 0 27 10.5t11 26.5q0 16-11 27t-27 11q-16 0-27-11t-11-27q0-16 11-26.5t27-10.5zm-40 203l40-69 40 69h-80zm-230-78q-8 0-14 5.5t-6 13.5v63q0 32-15.5 58.5T515 946q-27 16-59 16-39 0-70.5-24.5T344 876h53q11 0 17-9.5t0-19.5l-72-125 251-444q4-5 3-11.5t-6-11.5L334 6q-6-5-14-5t-14 5L50 255q-5 5-6 11.5t3 11.5l250 444-72 125q-5 10 .5 19.5T242 876h62q10 54 53.5 89.5T456 1001q42 0 78-21t57-57q21-36 21-78v-63q0-8-5.5-13.5T593 763zM339 648V288h204L339 648zm0-399V66l189 183H339zM300 66v183H112L300 66zm0 222v360L97 288h203zm20 473l44 76h-88l44-76zm256-53q4 7 12.5 8.5t15-3q6.5-4.5 8-12.5t-3-14.5q-4.5-6.5-12-8T582 681q-7 4-8.5 12t2.5 15z"/></svg>