<svg viewBox="0 0 1244 1083.753" xmlns="http://www.w3.org/2000/svg"><path d="M999 438q-6-27-29.5-42.5T919 385q-12 3-21 8l-69-69 20-19q6-6 6-14t-6-14q-6-6-14-6t-14 6l-19 20-78-78 20-20q5-5 5-13.5t-5.5-14Q738 166 730 166t-14 6l-19 19L568 63q-5-5-13.5-5t-14 5.5Q535 69 535 77t6 14l128 128-51 51-48-49q-19-19-44.5-26t-51 0q-25.5 7-44.5 26l-48 49-51-51L459 91q6-6 6-14t-5.5-13.5q-5.5-5.5-14-5.5T432 63L304 191l-20-19q-6-6-14-6t-13.5 5.5q-5.5 5.5-5.5 14t5 13.5l20 20-78 78-19-20q-6-6-14-6t-14 6q-6 6-6 14t6 14l20 19-69 69q-6-4-20-8-28-5-51.5 10.5T1.5 438Q-4 465 11 488.5t42.5 29q27.5 5.5 51-10T134 465q5-23-6-43l70-70 53 52-151 155q-29 29-29 70v296q0 8 6 14t14 6h70q37 0 68-22 20-14 45.5-14t45.5 14q24 17 53 20.5t56-6.5q8-3 11.5-10t.5-14.5q-3-7.5-10-11t-15-1.5q-19 7-38 4.5T342 891q-30-22-67.5-22T206 891q-19 15-45 15h-51v-83h51q37 0 68-22 20-14 45.5-14t45.5 14q31 22 68 22t68-22q20-14 45.5-14t45.5 14q31 22 68 22t68-22q20-14 45.5-14t45.5 14q31 22 68 22h48v83h-48q-25 0-46-15-30-22-67.5-22T660 891q-16 11-34.5 14t-37.5-4q-7-3-14.5.5t-10 11.5q-2.5 8 1 15t10.5 10q27 10 56 6t52-21q20-14 45.5-14t45.5 14q31 22 68 22h67q8 0 14-6t6-14V630q0-20-8-39t-22-33L749 404l53-52 70 70q-11 20-6 43 6 27 29.5 42.5t51 10q27.5-5.5 42.5-29t10-50.5zM96 457q-3 12-13 18.5t-21.5 4Q50 477 44 467t-4-21.5q2-11.5 12-18t21.5-4Q85 426 91.5 436t4.5 21zm130-133l78-78 51 52-77 78-52-52zm616 460q-25 0-46-15-30-21-67-21t-69 21q-20 15-45 15t-46-15q-30-21-67.5-21T433 769q-20 15-45 15t-46-15q-30-21-67.5-21T206 769q-19 15-45 15h-51v-73h51q38 0 68-21 20-14 45.5-14t45.5 14q31 22 68 22t68-22q20-14 45.5-14t45.5 14q31 22 68 22t68-22q20-14 45.5-14t45.5 14q30 21 68 21h48v73h-48zm29-198q19 19 19 44v42h-48q-24 0-46-14-30-22-67.5-22T660 658q-20 14-45 14t-46-14q-30-22-67.5-22T433 658q-20 14-45 14t-46-14q-30-22-67.5-22T206 658q-20 14-45 14h-51v-43q0-23 18-43l150-154 5 4q5 6 13.5 6t14-5.5q5.5-5.5 5.5-14t-6-13.5l-4-5 76-79 4 4q6 6 14 6t13.5-6q5.5-6 5.5-14t-5-14l-4-4 48-49q17-17 42.5-17t41.5 17l48 49-1 2q-6 5-6 13.5t5.5 14q5.5 5.5 14 5.5t14.5-6l1-1 76 79-1 2q-6 5-6 13.5t5.5 14q5.5 5.5 14 5.5t13.5-6l2-1 149 154zM722 376l-77-78 52-52 77 78-52 52zm216 103q-11 3-21-3.5t-12.5-18q-2.5-11.5 4-21.5t18-12.5q11.5-2.5 21.5 4t12.5 18q2.5 11.5-4 21.5T938 479zM521 881q-4-7-11.5-10t-14.5 0q-7 3-10.5 10.5t0 15q3.5 7.5 11 10.5t14.5 0q7-3 10.5-10.5t.5-15.5z"/></svg>