<svg viewBox="0 0 1244 1083.753" xmlns="http://www.w3.org/2000/svg"><path d="M998 792q-6-30-32-47-13-8-24-11V192q0-8-6-14t-14-6q-8 0-13.5 6t-5.5 14v544q-27 8-41 30-17 26-10.5 57t32 47.5Q909 887 940 881t48-32.5q17-26.5 10-56.5zm-43 35q-8 13-22.5 16t-27-5q-12.5-8-15.5-23t4.5-27.5Q902 775 917 772t27.5 5q12.5 8 15.5 23t-5 27zM726 328h-37l20-20q21-22 21-51.5t-21-51Q688 184 658 184t-51 21l-16 16v-27q0-30-15-55.5T536 98q-25-15-55-15H345q-30 0-55.5 15T249 138.5Q234 164 234 194v25l-14-14q-21-21-51-21t-51 21.5q-21 21.5-21 51t21 51.5l20 20h-38q-41 0-70.5 29T0 428v157q0 41 29.5 70.5T100 685h28l-10 9q-21 21-21 51.5t21 51q21 20.5 51.5 20.5t50.5-21l14-13v25q0 30 15 55.5t40.5 40.5q25.5 15 55.5 15h136q30 0 55-15t40-40.5q15-25.5 15-55.5v-27l16 15q21 21 51 21t51-20.5q21-20.5 21-51T709 694l-9-9h26q41 0 70.5-29.5T826 585V428q0-42-29.5-71T726 328zM591 474h196v66H591v-66zm196-46v7H591v-68h135q25 0 43 18t18 43zM635 233q10-10 23.5-10t23.5 10q10 10 10 23.5T682 280l-48 48h-43v-52l44-43zM39 472h195v66H39v-66zm107-192q-10-10-10-23.5t10-23.5q10-10 23.5-10t23.5 10l41 42v53h-41l-47-48zm-46 87h134v66H39v-5q0-26 18-43.5t43-17.5zM39 585v-8h195v69H100q-25 0-43-18t-18-43zm154 184q-10 10-23.5 10T146 769q-10-10-10-23.5t10-23.5l37-37h51v42l-41 42zm80 39V194q0-29 20-49.5t49-22.5v758q-29-2-49-22.5T273 808zm213 72V599q0-8-6-14t-14-6q-8 0-13.5 6t-5.5 14v281h-66V122h66v298q0 8 5.5 14t13.5 6q8 0 14-6t6-14V122q28 2 47 23t19 49v614q0 28-19 49t-47 23zm196-111q-7 11-22.5 10T635 769l-44-44v-40h53l38 37q9 10 9 23.5t-9 23.5zm44-123H591v-67h196v6q0 25-18 43t-43 18zM484 501q-3-7-10.5-10t-14.5 0q-7 3-10.5 10.5T448 516q3 7 10.5 10.5t15 .5q7.5-3 10.5-11t0-15z"/></svg>