<svg viewBox="0 0 1244 1083.753" xmlns="http://www.w3.org/2000/svg"><path d="M162 910H54q-10 0-17.5-7.5T29 885v-80q0-10 7.5-17t17.5-7h704q6 0 10.5-4.5T773 766q0-6-4.5-10t-10.5-4H73l75-660h93v280q-22 19-22 49v39q0 27 19 46l-26 90q-2 6 1 11.5t9 6.5q1 1 4 1 11 0 14-11l24-82q4 2 6 2v114q0 6 4.5 10.5T285 653q6 0 10.5-4.5T300 638V524q2 0 6-2l24 82q3 11 14 11 3 0 4-1 6-1 9-6.5t1-11.5l-26-90q19-19 19-46v-39q0-30-22-49V92h23q7 0 11-4t4-10q0-6-4-10.5T352 63H135q-5 0-9.5 4t-5.5 9L43 753q-19 4-31 18.5T0 805v80q0 22 16 38t38 16h108q6 0 10.5-4.5T177 924q0-6-4.5-10t-10.5-4zm160-489v39q0 15-10.5 25.5T286 496h-2q-15 0-25.5-10.5T248 460v-39q0-15 10.5-26t25.5-11h2q15 0 25.5 11t10.5 26zm-22-64q-10-2-14-2h-2q-4 0-14 2V92h30v265zm653 395L876 76q-1-5-5-9t-10-4H421q-6 0-10.5 4.5T406 78q0 6 4.5 10t10.5 4h427l76 660h-98q-6 0-10 4t-4 10q0 6 4 10.5t10 4.5h120q10 0 17.5 7t7.5 17v80q0 10-7 17.5t-18 7.5H231q-6 0-10.5 4t-4.5 10q0 6 4.5 10.5T231 939h715q23 0 38.5-16t15.5-38v-80q0-20-13.5-35.5T953 752z"/></svg>