<svg viewBox="0 0 1244 1083.753" xmlns="http://www.w3.org/2000/svg"><path d="M931 451q-32-56-78-101.5T751 272q-5-3-11-1.5t-9 6.5q-3 5-1 11t7 9q32 19 60 42l-14 13-30-28q-4-4-9.5-4t-10.5 4l-31 28-30-28q-4-4-9.5-4t-10.5 4l-31 28-30-28q-4-4-9.5-4t-10.5 4l-31 28-30-28q-4-4-9.5-4t-10.5 4l-30 28-31-28q-4-4-9.5-4t-10.5 4l-30 28-31-28q-4-4-9.5-4t-10.5 4l-30 28-31-28q-4-4-9.5-4t-9.5 4l-31 28-14-13q62-51 137-78 77-28 160-28 89 0 176 34 5 2 11 0t8-8q2-6-.5-11.5T687 240q-63-24-119-31v-49q0-6-4.5-10.5T553 145H447q-6 0-10.5 4.5T432 160v49q-81 11-154 47t-132 95Q76 421 38 512.5T0 704v138q0 6 4.5 10.5T15 857h734q6 0 10-4.5t4-10.5q0-6-4-10t-10-4H29v-70h117q6 0 10.5-4t4.5-10q0-6-4.5-10.5T146 729H29l2-59 24-22 31 28q4 4 9.5 4t9.5-4l31-28 31 28q4 4 9.5 4t9.5-4l31-28 31 28q4 4 9.5 4t9.5-4l31-28 30 28q5 4 10.5 4t9.5-4l31-28 30 28q5 4 10.5 4t9.5-4l31-28 30 28q5 4 10.5 4t9.5-4l30-28 31 28q5 4 10.5 4t9.5-4l30-28 31 28q5 4 10.5 4t9.5-4l30-28 31 28q5 3 10.5 3t8.5-3l31-28 31 28q5 3 10.5 3t8.5-3l31-28 31 28q4 4 9.5 4t9.5-4l31-28 24 22 2 59H215q-6 0-10.5 4.5T200 744q0 6 4.5 10t10.5 4h756v70H817q-6 0-10.5 4t-4.5 10q0 6 4.5 10.5T817 857h168q6 0 10.5-4.5t4.5-10.5V704q0-135-69-253zM42 597q6-31 22-69l22 20q4 4 9.5 4t9.5-4l31-28 31 28q4 4 9.5 4t9.5-4l31-28 31 28q4 4 9.5 4t9.5-4l31-28 30 28q5 4 10.5 4t9.5-4l31-28 30 28q5 4 10.5 4t9.5-4l31-28 30 28q5 4 10.5 4t9.5-4l30-28 31 28q5 4 10.5 4t9.5-4l30-28 31 28q5 4 10.5 4t9.5-4l30-28 31 28q4 4 9.5 4t9.5-4l31-28 31 28q5 3 10.5 3t8.5-3l31-28 31 28q3 3 9 3t10-3l22-20q16 38 22 69l-13 12-31-28q-4-4-9.5-4t-9.5 4l-31 28-31-28q-4-4-9.5-4t-9.5 4l-31 28-30-28q-4-4-9.5-4t-10.5 4l-31 28-30-28q-4-4-9.5-4t-10.5 4l-31 28-30-28q-4-4-9.5-4t-10.5 4l-30 28-31-28q-4-4-9.5-4t-10.5 4l-30 28-31-28q-4-4-9.5-4t-10.5 4l-30 28-31-28q-4-4-9.5-4t-10.5 4l-30 28-31-28q-4-4-9.5-4t-9.5 4l-31 28-31-28q-4-4-9.5-4t-9.5 4l-31 28-31-28q-4-4-9.5-4t-9.5 4l-31 28-13-12zm101-199l24 21q4 4 9.5 4t9.5-4l31-28 31 28q4 4 9.5 4t9.5-4l31-28 30 28q5 4 10.5 4t9.5-4l31-28 30 28q5 4 10.5 4t9.5-4l31-28 30 28q5 4 10.5 4t9.5-4l30-28 31 28q6 4 10 4t10-4l30-28 31 28q5 4 10.5 4t9.5-4l30-28 31 28q4 4 9.5 4t9.5-4l31-28 31 28q6 4 10.5 4t8.5-4l24-21q21 24 40 54l-2 1-31 28-31-28q-4-4-9.5-4t-9.5 4l-31 28-30-28q-4-4-9.5-4t-10.5 4l-31 28-30-28q-4-4-9.5-4t-10.5 4l-31 28-30-28q-4-4-9.5-4t-10.5 4l-31 28-30-28q-4-4-9.5-4t-10.5 4l-30 28-31-28q-4-4-9.5-4t-10.5 4l-30 28-31-28q-4-4-9.5-4t-10.5 4l-30 28-31-28q-4-4-9.5-4t-9.5 4l-31 28-31-28q-4-4-9.5-4t-9.5 4l-31 28-31-28q0-1-1-1l-1-1q16-23 40-53zm780 102l-19 17-18-17 19-16 18 16zm-81 0l-18 17-19-17 19-16 18 16zm-81 0l-18 17-19-17 19-16 18 16zm-81 0l-18 17-19-17 19-16 18 16zm-81 0l-18 17-19-17 19-16 18 16zm-80 0l-19 17-18-17 18-16 19 16zm-81 0l-19 17-18-17 18-16 19 16zm-81 0l-19 17-18-17 18-16 19 16zm-81 0l-19 17-18-17 18-16 19 16zm-81 0l-18 17-19-17 18-16 19 16zm-81 0l-18 17-19-17 19-16 18 16zm706-141q9 8 17 17l-13 12-19-16 15-13zm-77-4l18 17-18 16-19-16 19-17zm-81 0l18 17-18 16-19-16 19-17zm-81 0l18 17-18 16-19-16 19-17zm-81 0l19 17-19 16-18-16 18-17zm-81 0l19 17-19 16-18-16 18-17zm-81 0l19 17-19 16-18-16 18-17zm-81 0l19 17-19 16-18-16 18-17zm-62 17l-18 16-14-12q12-12 18-17l14 13zm266-198h78v32q-26-2-39-2t-39 2v-32zM96 645l-19-17 19-16 18 16-18 17zm81 0l-19-17 18-16 19 16-18 17zm80 0l-18-17 18-16 19 16-19 17zm81 0l-18-17 18-16 19 16-19 17zm81 0l-18-17 18-16 19 16-19 17zm81 0l-18-17 18-16 19 16-19 17zm81 0l-19-17 19-16 18 16-18 17zm81 0l-19-17 19-16 18 16-18 17zm81 0l-19-17 19-16 18 16-18 17zm81 0l-19-17 19-16 18 16-18 17zm80 0l-18-17 19-16 18 16-19 17z"/></svg>