<svg viewBox="0 0 1244 1083.753" xmlns="http://www.w3.org/2000/svg"><path d="M766 251q0-7-4.5-11.5T750 235h-63q-3-31-20-52-13-17-37-30-14-8-43-18-30-11-43-19-18-11-24-26 17-8 24-26t-1-36q-8-18-26.5-24.5t-36 1.5Q463 13 456 31.5t1 35.5q8 17 23 23-6 15-24 26-12 8-41.5 18.5T371 153q-24 13-38 30-17 21-20 52h-63q-7 0-11.5 4.5T234 251q0 25 14.5 45t37.5 28q-20 22-20 52v312q0 30 20 52-23 9-37.5 29T234 813q0 7 4.5 11.5T250 829h63q3 30 20 51 13 18 37 31 14 7 42 18l2 1q35 13 48 23 19 13 23 35 1 7 6 10.5t12 2.5q5-1 8-4.5t4-8.5q4-22 23-35 13-10 49-23h1q29-11 43-19 23-13 36-30 17-22 20-52h63q7 0 11.5-4.5T766 813q0-24-14.5-44T714 740q20-22 20-52V376q0-30-20-52 23-8 37.5-28t14.5-45zM500 32q7 0 11.5 4.5T516 48q0 7-4.5 11T500 63q-7 0-11.5-4.5T484 48q0-6 4.5-11t11.5-5zM297 376q0-18 13-33 31 16 56 36-41 40-69 88v-91zm0 174q11-44 35-82t58-68q65 64 94 150v60q0 7 4.5 11.5T500 626q7 0 11.5-4.5T516 610v-60q29-86 94-150 34 29 58 67.5t35 82.5v138q0 19-13.5 33T656 735H344q-19 0-33-14t-14-33V550zm187-78q-29-52-70-93 34-26 70-42v135zm32-135q36 16 70 42-41 41-70 94V337zm118 42q25-20 56-36 13 15 13 33v90q-28-48-69-87zm-24-21q-28-20-42-29h83q-20 13-41 29zm-220 0q-26-20-41-29h83q-14 9-42 29zm342 440h-60q-7 0-11.5 4.5T656 813q0 27-11 44-9 15-27 25-12 7-39 18l-3 1q-28 10-42 17-22 12-34 28-12-16-34-28-14-7-42-17l-3-1q-36-14-50-25-22-17-26-46h186q7 0 11.5-4.5T547 813q0-7-4.5-11t-11.5-4H268q5-14 17.5-22.5T313 767h375q14 0 26.5 8.5T732 798zm-44-500H313q-15 0-27.5-8.5T268 267h60q7 0 11.5-4.5T344 251q0-27 11-44 10-15 29-26 12-7 40-17t42-17q22-12 34-28 12 16 34 28 14 7 42 17 37 13 52 24 23 17 27 47H469q-7 0-11.5 4.5T453 251q0 7 4.5 11.5T469 267h263q-5 14-17.5 22.5T688 298zM500 704q7 0 11.5-4.5T516 688v-15q0-7-4.5-11.5T500 657q-7 0-11.5 4.5T484 673v15q0 7 4.5 11.5T500 704zm484-187H813q-7 0-11.5 4.5T797 532q0 6 4.5 11t11.5 5h171q7 0 11.5-4.5t4.5-11.5q0-7-4.5-11t-11.5-4zm-183-83q5 4 11.5 4t10.5-4l79-78q4-4 4-10.5t-4.5-11.5q-4.5-5-10.5-5t-11 5l-79 78q-4 4-4 10.5t4 11.5zm90 301q6 0 10.5-4.5T906 720q0-8-4-11l-79-79q-4-4-10.5-4t-11 4.5q-4.5 4.5-4.5 11t4 11.5l79 78q4 4 11 4zM16 548h172q6 0 10.5-4.5T203 532q0-7-4.5-11t-10.5-4H16q-7 0-11.5 4.5T0 532q0 6 4.5 11t11.5 5zm160-114q5 4 11.5 4t11-4.5q4.5-4.5 4.5-11t-5-10.5l-78-78q-4-5-10.5-5t-11 4.5q-4.5 4.5-4.5 11t4 11.5l78 78zm0 196l-78 79q-4 4-4 10.5t4.5 11q4.5 4.5 11 4.5t10.5-4l78-78q5-5 5-11.5t-4.5-11q-4.5-4.5-11-4.5t-11.5 4zm230-395h-15q-7 0-11.5 4.5T375 251q0 7 4.5 11.5T391 267h15q7 0 11.5-4.5T422 251q0-7-4.5-11.5T406 235zm203 563h-15q-7 0-11.5 4.5T578 813q0 6 4.5 11t11.5 5h15q7 0 11.5-4.5T625 813q0-7-4.5-11t-11.5-4z"/></svg>