<svg viewBox="0 0 1244 1083.753" xmlns="http://www.w3.org/2000/svg"><path d="M766 681q6 0 10.5-4.5T781 666V372h15q6 0 10.5-4.5T811 357v-79q0-6-4.5-10.5T796 263h-45v-45q0-38-27-65.5T659 125h-85V91h32q19 0 32-13t13-32q0-19-13-32T606 1H500q-31 0-52.5 21.5T426 75v50h-85q-38 0-65 27.5T249 218v45h-45q-6 0-10.5 4.5T189 278v79q0 6 4.5 10.5T204 372h15v294q0 6 4.5 10.5T234 681q6 0 10-4.5t4-10.5V525q15 15 22.5 31t7.5 38v299h-30V735q0-6-4-10.5t-10-4.5q-6 0-10.5 4.5T219 735v158h-15q-6 0-10.5 4t-4.5 10v79q0 6 4.5 10.5t10.5 4.5h592q6 0 10.5-4.5T811 986v-79q0-6-4.5-10t-10.5-4h-15V735q0-6-4.5-10.5T766 720q-6 0-10 4.5t-4 10.5v158h-30V594q0-22 7.5-38t22.5-31v141q0 6 4 10.5t10 4.5zM622 46q0 7-5 11.5T606 62h-33q-3-18-14-32h47q6 0 11 4.5t5 11.5zM456 75q0-19 12.5-32T500 30q15 0 26.5 9T543 62h-43q-6 0-10.5 4.5T485 77q0 6 4.5 10t10.5 4h45v34h-89V75zM219 293h408q6 0 10.5-4.5T642 278q0-6-4.5-10.5T627 263H278v-45q0-26 18.5-44.5T341 155h318q26 0 44.5 18.5T722 218v45h-27q-6 0-10 4.5t-4 10.5q0 6 4 10.5t10 4.5h86v49H219v-49zm562 679H219v-50h562v50zm-138-79H357V594q0-34 21-60 14-16 52-43l1-1q23-17 36-28 20-17 33-34 13 17 33 34 13 11 36 28l1 1q38 27 52 43 21 26 21 60v299zm50-299v299h-20V594q0-31-13-55-10-21-32-40-12-11-40-31l-1-1q-29-21-42-33-21-19-32-40-3-8-13-8t-13 8q-10 20-31 39-12 11-39 32l-3 2q-28 20-41 32-22 19-32 39-13 25-13 56v299h-20V594q0-36-18-64-14-22-42-44V372h504v114q-28 22-41 44-18 28-18 64z"/></svg>