<svg viewBox="0 0 1244 1083.753" xmlns="http://www.w3.org/2000/svg"><path d="M969 847V267q0-33-23-56t-55-23h-78v-78q0-20-13.5-33.5T766 63h-16V48q0-20-13.5-33.5T703 1H573q-34 0-55 23l-18 17-17-17Q460 1 427 1H297q-19 0-33 13.5T250 48v15h-16q-19 0-32.5 14T188 110v78h-79q-32 0-55 23t-23 56v580q-14 5-22.5 17.5T0 892v31q0 32 23 55t55 23h844q32 0 55-23t23-55v-31q0-15-8.5-27.5T969 847zM234 517h222q7 20 25.5 27t37 0q18.5-7 25.5-27h222q20 0 33.5-14t13.5-33V282h62v500H125V282h63v188q0 19 13.5 33t32.5 14zM540 46q14-14 33-14h130q7 0 11.5 4.5T719 48v328q0 7-4.5 11.5T703 392H573q-33 0-57 24V70l24-24zm-259 2q0-7 4.5-11.5T297 32h130q21 0 33 14l24 24v346q-24-24-57-24H297q-7 0-11.5-4.5T281 376V48zm-62 62q0-6 4.5-10.5T234 95h16v281q0 19 14 33t33 14h130q21 0 33 14l15 15q14 13 18.5 16t12.5 1q3-1 12-11l22-21q14-14 33-14h130q20 0 33.5-14t13.5-33V95h16q6 0 10.5 4.5T781 110v360q0 6-4.5 10.5T766 485H531q-6 0-10.5 4.5T516 501t-4.5 11.5Q507 517 500 517t-11.5-4.5Q484 508 484 501t-4.5-11.5Q475 485 469 485H234q-6 0-10.5-4.5T219 470V110zM63 267q0-19 13.5-33t32.5-14h79v31h-79q-6 0-10.5 4.5T94 267v531q0 6 4.5 10.5T109 813h782q6 0 10.5-4.5T906 798V267q0-7-4.5-11.5T891 251h-78v-31h78q20 0 33.5 13.5T938 267v578H609q-7 0-11 4l-26 27H428l-26-27q-4-4-11-4H63V267zm906 656q0 19-13.5 33T922 970H78q-19 0-33-14t-14-33v-31q0-7 4.5-11.5T47 876h337l27 27q4 4 11 4h156q7 0 11-4l27-27h337q7 0 11.5 4.5T969 892v31zM563 157q7 0 11-4l13-13q12-14 33-14h52q7 0 11.5-4.5T688 110q0-7-4.5-11T672 95h-52q-33 0-56 23l-12 13q-8 7-3.5 16.5T563 157zm0 94q6 0 11-5l13-13q13-13 33-13h52q7 0 11.5-4.5T688 204q0-7-4.5-11.5T672 188h-52q-31 0-56 23l-12 13q-7 7-3.5 17t14.5 10zm0 94q6 0 11-5l13-13q12-14 33-14h52q7 0 11.5-4.5T688 298q0-6-4.5-11t-11.5-5h-52q-33 0-56 23l-12 13q-7 7-3.5 17t14.5 10zM328 126h52q20 0 34 14l13 13q4 4 11 4 10 0 14-9.5t-3-16.5l-13-13q-23-23-56-23h-52q-6 0-10.5 4.5T313 110q0 6 4.5 11t10.5 5zm0 94h52q19 0 34 13l13 13q5 5 11 5 10 0 14-10t-3-17l-13-13q-25-23-56-23h-52q-6 0-10.5 4.5T313 204q0 7 4.5 11.5T328 220zm0 93h52q20 0 34 14l13 13q5 5 11 5 10 0 14-10t-3-17l-13-13q-23-23-56-23h-52q-6 0-10.5 4.5T313 298q0 7 4.5 11t10.5 4z"/></svg>