<svg viewBox="0 0 1244 1083.753" xmlns="http://www.w3.org/2000/svg"><path d="M903 528v-2q0-20-11-35.5T863 467v-28q0-81-36-155t-99-126.5Q665 105 586 86q-8-1-15 2.5t-9 11.5q-2 8 2.5 15.5T577 124q71 17 127 63.5T792 300q32 66 32 139v24h-59v-24q0-75-34.5-135.5t-95-95Q575 174 500 174t-135.5 34.5q-60.5 34.5-95 95T235 439v24h-58v-24q0-73 30.5-138T293 190q55-46 125-65 8-1 12-8t2-15q-2-8-9-12t-15-2q-79 20-140.5 72t-96 124.5Q137 357 137 439v28q-18 8-28.5 23.5T98 526v2h-1q-40 0-68.5 28.5T0 625q0 40 28.5 68.5T97 722h1v3q0 26 18.5 44.5T161 788h114q8 0 14-5.5t6-13.5V482q0-8-6-13.5t-14-5.5h-1v-24q0-67 28.5-118.5T382 241q51-28 118-28t118 28q51 28 79.5 79.5T726 439v24h-1q-8 0-13.5 5.5T706 482v287q0 8 5.5 13.5T725 788h114q26 0 45-18.5t19-44.5v-3q41 0 69-28.5t28-68.5q0-40-28.5-68.5T903 528zM97 683q-24 0-41-17t-17-41q0-24 17-41t41-17h1v116h-1zm158 66h-94q-10 0-17-7t-7-17V526q0-10 7-17t17-7h94v247zm609-24q0 10-7.5 17t-17.5 7h-94V502h94q10 0 17.5 7t7.5 17v199zm39-42V567q24 0 41 17t17 41q0 24-17 41t-41 17zM489 112q7 4 15 2t12.5-9q4.5-7 2.5-15t-10-11.5q-8-3.5-16-1T482 87q-3 7-1 14t8 11zm159 375q-9-6-18-3l-113 38q-16 5-25.5 18.5T482 571v208q-25-12-51-3l-53 18q-20 8-32.5 25T333 858q0 17 7.5 31t20.5 24q13 10 29 12t32-3l53-18q20-7 33-24.5t13-39.5V659l31-11q47-16 75.5-56t28.5-89q0-10-8-16zM462 867l-53 18q-14 5-25.5-3.5T372 858q0-9 5.5-16.5T391 831l53-18q14-5 26 4t12 23q0 9-5.5 16.5T462 867zm77-256l-18 7v-47q0-9 8-12l84-28q-7 28-26.5 49.5T539 611z"/></svg>