<svg viewBox="0 0 1244 1083.753" xmlns="http://www.w3.org/2000/svg"><path d="M83 281q6 0 10-4t4-10V30h512v131q0 12 9 21t21 9h132v73q0 6 4 10t10 4q6 0 10.5-4t4.5-10v-83q0-10-8-18L638 9q-8-8-19-8H95Q84 1 76 9t-8 19v239q0 6 4.5 10t10.5 4zm556-120V50l110 111H639zm146 516q-6 0-10 4t-4 11v282H97V329q0-6-4-10.5T83 314q-6 0-10.5 4.5T68 329v647q0 11 8 19t19 8h678q11 0 19-8t8-19V692q0-7-4.5-11t-10.5-4zM274 178q0-12-8.5-20t-20.5-8h-78q-12 0-20.5 8t-8.5 20v79q0 11 8.5 19.5T167 285h78q12 0 20.5-8.5T274 257v-79zm-29 78h-77v-77h77v77zm65-57h234q7 0 11-4t4-10q0-6-4-10.5t-11-4.5H310q-6 0-10 4t-4 11q0 7 4 10.5t10 3.5zm0 66h234q7 0 11-4.5t4-10.5q0-6-4-10t-11-4H310q-6 0-10 4t-4 10q0 6 4 10.5t10 4.5zm-36 90q0-12-8.5-20.5T245 326h-78q-12 0-20.5 8.5T138 355v78q0 12 8.5 20.5T167 462h78q12 0 20.5-8.5T274 433v-78zm-29 77h-77v-76h77v76zm379-86H310q-6 0-10 4.5t-4 10.5q0 6 4 10.5t10 4.5h314q6 0 10.5-4.5T639 361q0-6-4.5-10.5T624 346zm15 81q0-6-4.5-10.5T624 412H310q-6 0-10 4.5t-4 10.5q0 6 4 10t10 4h314q6 0 10.5-4t4.5-10zM274 531q0-11-8.5-19.5T245 503h-78q-12 0-20.5 8.5T138 531v79q0 11 8.5 19.5T167 638h78q12 0 20.5-8.5T274 610v-79zm-29 78h-77v-77h77v77zm65-57h280q6 0 10.5-4t4.5-10q0-6-4.5-10.5T590 523H310q-6 0-10 4.5t-4 10.5q0 6 4 10t10 4zm315 51q0-6-4.5-10t-10.5-4H310q-6 0-10 4t-4 10q0 6 4 10.5t10 4.5h300q6 0 10.5-4.5T625 603zm-380 76h-78q-12 0-20.5 8.5T138 708v78q0 12 8.5 20.5T167 815h78q12 0 20.5-8.5T274 786v-78q0-12-8.5-20.5T245 679zm0 107h-77v-77h77v77zm326-72q0-6-4-10t-10-4H310q-6 0-10 4t-4 10q0 6 4 10.5t10 4.5h247q6 0 10-4.5t4-10.5zm-261 51q-6 0-10 4.5t-4 10.5q0 6 4 10.5t10 4.5h202q6 0 10-4.5t4-10.5q0-6-4-10.5t-10-4.5H310zm602-519l-20-10q-15-7-30-1.5T839 254L549 843q-2 3-2 10l3 63q0 5 3 10t8.5 7q5.5 2 8.5 2 7 0 12-4l51-35q3-2 7-8l80-164q3-5 1-11t-7.5-8.5Q708 702 702 704t-8 7l-46 94-38-19 199-404 38 19-125 254q-3 5-1 11t7 8.5q5 2.5 11 .5t9-7l182-369q7-15 1.5-30T912 246zM578 898l-2-37 33 16-31 21zm57-67l-10 21-39-19 11-21 38 19zm187-475l10-21 38 18-10 21-38-18zm81-70l-20 41-38-19 20-41q2-4 6-5.5t8 .5l20 10q4 2 5 6t-1 8z"/></svg>