<svg viewBox="0 0 1244 1083.753" xmlns="http://www.w3.org/2000/svg"><path d="M182 1H80Q47 1 23.5 24.5T0 81v840q0 33 23.5 56.5T80 1001h546q33 0 56.5-23.5T706 921V81q0-33-23.5-56.5T626 1H240q-6 0-10 4.5T226 16q0 6 4 10t10 4h386q21 0 35.5 15T676 81v840q0 21-14.5 36T626 972H80q-21 0-36-15t-15-36V81q0-21 15-36t36-15h102q6 0 10-4t4-10q0-6-4-10.5T182 1zm0 0zm342 893q-7 0-11 4t-4 10q0 6 4 10.5t11 4.5h89q6 0 10.5-4.5T628 908V94q0-6-4.5-10.5T613 79H93q-6 0-10.5 4.5T78 94v814q0 6 4.5 10.5T93 923h372q6 0 10.5-4.5T480 908q0-6-4.5-10t-10.5-4H107V108h491v786h-74zm0 0zM238 260v-24q0-6-4.5-10t-10.5-4q-6 0-10.5 4t-4.5 10v24q0 6 4.5 10t10.5 4q6 0 10.5-4t4.5-10zm0 0zm260 0v-24q0-6-4.5-10t-10.5-4q-6 0-10.5 4t-4.5 10v24q0 6 4.5 10t10.5 4q6 0 10.5-4t4.5-10zm0 0zm-145 27q26 0 43-19 4-5 3.5-11t-5-10q-4.5-4-10.5-3.5t-10 5.5q-9 9-21 9t-21-9q-4-5-10-5.5t-11 3.5q-5 4-5 10.5t4 10.5q7 9 18.5 14t24.5 5zm0 0zM152 432v162q0 19 13.5 32.5T198 640q19 0 32-13.5t13-32.5V432q0-19-13-32.5T198 386q-19 0-32.5 13.5T152 432zm62 0v162q0 7-4.5 12t-11.5 5q-7 0-12-5t-5-12V432q0-7 5-12t12-5q7 0 11.5 5t4.5 12zm0 0zm255 232H237q-6 0-10.5 4.5T222 679q0 6 4.5 10.5T237 694h232q6 0 10.5-4.5T484 679q0-6-4.5-10.5T469 664zm0 0zm0 57H237q-6 0-10.5 4.5T222 736q0 6 4.5 10t10.5 4h232q6 0 10.5-4t4.5-10q0-6-4.5-10.5T469 721zm0 0zm0 57H237q-6 0-10.5 4t-4.5 10q0 6 4.5 10.5T237 807h232q6 0 10.5-4.5T484 792q0-6-4.5-10t-10.5-4zm0 0z"/></svg>