<svg viewBox="0 0 1244 1083.753" xmlns="http://www.w3.org/2000/svg"><path d="M369 366h68q17 0 28.5-12t11.5-28v-27q0-16-12-27.5T437 260h-68q-16 0-27.5 11.5T330 299v27q0 17 11.5 28.5T369 366zm-10-67q0-4 3-7t7-3h68q4 0 7 3t3 7v27q0 5-3 8t-7 3h-68q-4 0-7-3.5t-3-7.5v-27zm75 305q6 0 10.5-4t4.5-10v-69q0-16-11.5-27T410 483h-14q-16 0-27 11t-11 27v69q0 6 4 10.5t10 4.5q6 0 10.5-4.5T387 590v-69q0-4 2.5-6.5t6.5-2.5h14q4 0 6.5 2.5t2.5 6.5v69q0 6 4.5 10t10.5 4zM242 483q-16 0-27 11t-11 27v320q0 16 11 27t27 11h15q16 0 27-11t11-27V521q0-16-11-27t-27-11h-15zm24 38v320q0 4-2.5 6.5T257 850h-15q-3 0-5.5-2.5T234 841V521q0-4 2.5-6.5t5.5-2.5h15q4 0 6.5 2.5t2.5 6.5zm561 102h-99v-33q0-29-21-50t-50-21h-71q-29 0-50 21t-21 50v33h-99q-24 0-41 17.5T358 682v121q0 6 4 10.5t10 4.5q6 0 10.5-4.5T387 803V682q0-12 8.5-20.5T416 653h3v319h-3q-12 0-20.5-8.5T387 943v-79q0-6-4.5-10t-10.5-4q-6 0-10 4t-4 10v47H207q-26 0-44-18.5T145 848V447h517v32q0 6 4 10.5t10 4.5q6 0 10.5-4.5T691 479V268q0-38-27-65t-65-27h-65v-66h8q19 0 31.5-13T586 66V45q0-18-12.5-31T542 1H264q-18 0-31 13t-13 31v21q0 18 13 31t31 13h9v66h-66q-37 0-64.5 27T115 268v580q0 38 27 65t65 27h8v23q0 16 11 27t27 11h15q16 0 27-11t11-27v-23h52v3q0 24 17 41t41 17h411q24 0 41-17t17-41V682q0-24-17-41.5T827 623zM504 176h-27v-66h27v66zm-57-66v66h-88v-66h88zM249 66V45q0-6 4.5-10.5T264 30h278q6 0 10.5 4.5T557 45v21q0 6-4.5 10T542 80H264q-6 0-10.5-4T249 66zm53 44h28v66h-28v-66zm-95 96h392q26 0 44.5 18.5T662 268v150H145V268q0-26 18.5-44t43.5-18zm69 757q0 4-2 6.5t-6 2.5h-15q-4 0-6.5-2.5T244 963v-23h32v23zm373-340h-55v-24q0-1 1-1h52q2 0 2 1v24zm89 30v319H505V653h233zm-194-63q0-17 12.5-29.5T586 548h71q17 0 29 12.5t12 29.5v33h-20v-24q0-13-9-22t-22-9h-52q-13 0-22 9t-9 22v24h-20v-33zm-95 63h26v319h-26V653zm407 290q0 12-8.5 20.5T827 972h-4V771q0-7-4-11t-10-4q-6 0-10.5 4t-4.5 11v201h-27V653h27v63q0 6 4.5 10.5T809 731q6 0 10-4.5t4-10.5v-63h4q12 0 20.5 8.5T856 682v261z"/></svg>