<svg viewBox="0 0 1244 1083.753" xmlns="http://www.w3.org/2000/svg"><path d="M9 493h982q4 0 6.5-2.5t2.5-6.5q0-4-2.5-6t-6.5-2H765q-16-40-46-75-2-3-6-3t-6.5 2q-2.5 2-2.5 5.5t2 6.5q25 30 40 64h-32q-26-62-82-101-59-41-132-41t-132 41q-54 38-82 101h-43q24-52 65-91 3-2 3-6t-2-6.5q-2-2.5-6-2.5t-6 2q-47 44-73 104H9q-4 0-6.5 2.5T0 484q0 3 2.5 6t6.5 3zm358-17q23-33 58-52t75-19q40 0 75 19t58 52H367zm133-124q63 0 116 33.5t79 90.5h-41q-24-41-65.5-64.5T500 388q-47 0-88.5 23.5T346 476h-41q27-57 79.5-90.5T500 352zm491 179H9q-4 0-6.5 2.5T0 540q0 4 2.5 6.5T9 549h982q4 0 6.5-2.5t2.5-6.5q0-4-2.5-6.5T991 531zm-97 97H608q-4 0-6 2.5t-2 6q0 3.5 2 6t6 2.5h286q4 0 6.5-2.5t2.5-6q0-3.5-2.5-6T894 628zm-440 0H199q-4 0-6.5 2.5t-2.5 6q0 3.5 2.5 6t6.5 2.5h255q3 0 5.5-2.5t2.5-6q0-3.5-2.5-6T454 628zm-174 49H36q-4 0-6 2.5t-2 5.5q0 3 2 6t6 3h244q4 0 6-2.5t2-6.5q0-8-8-8zm351 15H485q-4 0-6.5 2.5T476 701q0 4 2.5 6t6.5 2h146q4 0 6.5-2t2.5-6q0-4-2.5-6.5T631 692zM400 328q1 0 2-1h1q48-17 97-17 4 0 6.5-2.5t2.5-6.5q0-4-2.5-6.5T500 292q-51 0-103 19-4 1-5.5 4t.5 7q2 6 8 6z"/></svg>