<svg viewBox="0 0 1244 1083.753" xmlns="http://www.w3.org/2000/svg"><path d="M600 477q6 0 10-4.5t4-10.5v-35q0-6-4-10.5t-10.5-4.5q-6.5 0-10.5 4.5t-4 10.5v35q0 6 4 10.5t11 4.5zm0 0zm-24 51h47q6 0 10.5-4.5T638 513q0-6-4.5-10.5T623 498h-47q-6 0-10.5 4.5T561 513q0 6 4.5 10.5T576 528zm0 0zm-333-51q6 0 10-4.5t4-10.5v-35q0-6-4-10.5t-10-4.5q-6 0-10.5 4.5T228 427v35q0 6 4.5 10.5T243 477zm0 0zm23 21h-47q-6 0-10.5 4.5T204 513q0 6 4.5 10.5T219 528h47q6 0 10.5-4.5T281 513q0-6-4.5-10.5T266 498zm0 0zm155 28q26 0 43-20 4-5 3.5-10.5T463 486q-4-4-10.5-4t-10.5 5q-7 9-20.5 9t-21.5-9q-4-5-10-5t-10.5 4q-4.5 4-5 9.5T378 506q17 20 43 20zm0 0zm334 14q36-1 61-27t25-61.5q0-35.5-23-61.5-17-103-79-183-74-95-188-135-30-12-61-32-24-15-42-30-12-9-27-9t-26 9q-51 41-104 62-56 20-103.5 54T104 207q-64 80-79 183-24 26-24 61.5T26.5 513Q52 539 88 540q21 79 75 139.5T292 770l-2 2q-8 6-12 8-53 44-77 103-21 49-21 105 0 6 4.5 10.5t10.5 4.5h452q6 0 10.5-4.5T662 988q0-54-20-105-25-59-78-103l-14-10q75-30 129-90.5T755 540zM488 789q-3 25-22 42t-44.5 17q-25.5 0-45-17T354 789q33 6 67 6h11q29-2 56-6zm295-422q-16-6-35-6h-.5q-.5 0-.5-1-9-21-18-33h42q8 20 12 40zm-22 143q2-8 3-15 7-60-5-103-1 0-1-1 14 2 26.5 9.5t20 21Q812 435 812 451q0 22-14.5 38.5T761 510zM122 230h118q6 0 10.5-4t4.5-10q0-6-4.5-10.5T240 201h-93q65-71 154-101h1v-1q58-23 111-66 4-3 8.5-3t7.5 3q53 43 111 66 0 1 1 1 89 30 155 101H299q-6 0-10.5 4t-4.5 10.5q0 6.5 4.5 10.5t10.5 4h421q24 34 40 67H83q18-38 39-67zM90 361q-16 0-31 6 4-20 12-40h43l-1 1q0 1-1 1-13 20-17 32h-5zm-9 149q-22-4-36.5-20.5t-14.5-39q0-22.5 16-40T84 391v1q-8 30-8 58v1q0 34 5 59zm29-3v-1q-14-80 14-138 10-21 26-41h542q22 25 33.5 57t11.5 66q0 26-5 56v1q-16 88-76.5 154.5T509 753q-43 13-88 13t-88-13q-86-25-146.5-91.5T110 507zm118 388q16-38 45-69v148h-63q2-43 18-79zm74-96q10-8 22-15 1 39 29.5 66t67.5 27q39 0 67.5-27t29.5-66q12 7 22 15v175H302V799zm313 96q16 37 17 79h-62V826q27 29 45 69zm0 0z"/></svg>