<svg viewBox="0 0 1244 1083.753" xmlns="http://www.w3.org/2000/svg"><path d="M950 794q23-16 36.5-40.5T1000 700q0-42-27-73.5T906 588V20q0-8-5.5-13.5T887 1H20Q12 1 6 6.5T0 20v868q0 8 6 13.5t14 5.5h349q8 0 14-5.5t6-13.5q0-8-6-14t-14-6H39V40h828v548q-31 6-55 26V105q0-8-5.5-13.5T793 86H112q-7 0-13 5.5T93 105q0 8 6 14t13 6h252v120q0 8 5.5 13.5T383 264h279q8 0 14-5.5t6-13.5q0-8-6-14t-14-6H403V125h370v379h-91V384q0-8-6-13.5t-14-5.5q-8 0-13.5 5.5T643 384v140q0 8 5.5 13.5T662 543h111v157q0 23 10 45t27 38H132V683h112q8 0 13.5-6t5.5-14q0-8-5.5-13.5T244 644H132V264h92v120q0 8 6 14t14 6q8 0 13.5-6t5.5-14V245q0-8-5.5-14t-13.5-6H112q-8 0-13.5 6T93 245v558q0 7 6 13t13 6h682q-14 20-19 46H541q-8 0-13.5 6t-5.5 14q0 8 5.5 13.5T541 907h234q7 40 38.5 67t73.5 27q30 0 56-15.5t41.5-41.5q15.5-26 15.5-55.5T986.5 834Q973 809 950 794zm11-94q0 31-21.5 52.5T887 774q-20 0-37-9.5T822.5 738Q812 721 812 700q0-31 22-53t53-22q31 1 52.5 22.5T961 700zm-74 262q-31 0-53-21.5T812 888q0-31 22-53t53-22q31 0 52.5 22t21.5 53q0 31-21.5 52.5T887 962zM383 504H244q-8 0-14 6t-6 14q0 8 6 13.5t14 5.5h120v120q0 8 5.5 14t13.5 6h279q8 0 14-6t6-14q0-8-6-13.5t-14-5.5H542V384q0-8-5.5-13.5T523 365H383q-7 0-13 5.5t-6 13.5q0 8 6 14t13 6h120v240H403V524q0-8-6-14t-14-6zm90 376q-2-6-7.5-9t-12-2.5q-6.5.5-11 4.5t-6.5 9q-2 9 2.5 16t13 8.5Q460 908 467 903q5-4 6.5-10.5T473 880z"/></svg>