<svg viewBox="0 0 1244 1083.753" xmlns="http://www.w3.org/2000/svg"><path d="M788 406q2 6 8.5 8.5t13 0q6.5-2.5 9-8.5t.5-12q-32-81-92-137t-137-77.5Q513 158 431 175q-7 2-10.5 7.5T418 195q1 7 7 10.5t13 1.5q64-13 129 2 72 17 127 63 62 52 94 134zM333 918q28 0 47.5-19.5T400 851V184q0-14-9.5-23.5T367 151q-37 0-59 26t-31.5 83.5Q267 318 267 418v433q0 28 19.5 47.5T333 918zm0-34q-14 0-23.5-9.5T300 851V551h67v300q0 14-10 23.5t-24 9.5zm34-700q0 318-1 328v6h-66V418q0-82 7-135 6-46 17-70 9-19 22-25 7-4 21-4zm589 652q-6-3-12.5-1t-10.5 8q-33 58-91 91.5T717 968q-67 0-125-33.5T500 843q-3-6-9.5-8t-12.5 1.5q-6 3.5-8 10t2 12.5q36 64 101 103-100 16-198-11.5T200 857V460q23-10 36.5-30.5T250 384V201q0-12-4.5-22t-13-17q-8.5-7-20-9.5T191 152q70-62 158.5-92.5T531 35q93 6 177 48t145 113q67 78 95.5 177T961 574q-38-65-104-102.5t-141.5-37q-75.5.5-141 38T471 576q-3 6-1 12.5t7.5 10q5.5 3.5 12 1.5t10.5-8q36-63 100.5-96.5t137-27.5q72.5 6 130.5 50.5T951 631q5 11 17 10t15-12q29-108 8-218-19-108-82-198-65-92-162-147T538 2Q429-6 326 32 221 71 142 152l-3-1h-11q-15 1-28 13-11-10-26-12.5T46 155q-13 6-21 18.5T17 201v170Q-9 467 4 566t63 184v101q0 20 11 37t30 24.5q19 7.5 38.5 3.5t34.5-18q2-2 6-8 92 74 207.5 99.5T624 985q63 22 128.5 13.5t120.5-45q55-36.5 89-94.5 4-6 2-12.5t-8-10.5zM50 201q0-7 5-12t12-5q7 0 11.5 5t4.5 12v133q0 7 5 12t12 5q7 0 11.5-5t4.5-12V201q1-7 5-11.5t11-5.5h3q6 1 10.5 5.5T150 201v133q0 7 4.5 12t11.5 5q7 0 12-5t5-12V201q0-10 9.5-15t17.5 2q0 1 1 1 5 7 5 12v183q0 21-15 35.5T166 434h-66q-20 0-35-14.5T50 384V201zM38 439q13 15 29 22v213Q21 561 38 439zm95 445q-14 0-23.5-9.5T100 851V468h67v383q0 14-10 23.5t-24 9.5zm447-243q-4-5-11.5-6t-12.5 3l-56 45v-32q0-7-5-12t-12-5q-7 0-11.5 5t-4.5 12v133q0 7 4.5 12t11.5 5q7 0 12-5t5-12v-32l56 45q8 6 16.5 3t10.5-14q2-9-6-15l-67-54 67-54q6-3 6-11 1-5-3-11zm70 27h17q7 0 11.5 4.5T683 684q0 7 5 12t12 5q7 0 11.5-5t4.5-12q0-20-14.5-35T666 634h-16q-21 0-35.5 15T600 684v67q0 20 14.5 35t35.5 15h16q21 0 35.5-15t14.5-35q0-7-4.5-12t-11.5-5q-7 0-12 5t-5 12q0 7-4.5 12t-11.5 5h-17q-7 0-12-5t-5-12v-67q0-7 5-11.5t12-4.5zm150-34q-10 0-16 11l-50 133q-3 9 3 17t16 6q10-2 13-11l8-22h52l8 22q3 7 9 9.5t13 .5q7-2 9.5-8.5t.5-13.5l-50-133q-5-11-16-11zm-13 100l13-36 14 36h-27zm196 34h-66V651q0-7-5-12t-12-5q-7 0-11.5 5t-4.5 12v133q0 7 4.5 12t11.5 5h84q7 0 11.5-5t4.5-12q0-7-4.5-11.5T983 768z"/></svg>