<svg viewBox="0 0 1244 1083.753" xmlns="http://www.w3.org/2000/svg"><path d="M142 152q-2 0-3-1h-11q-15 1-28 13-13-13-33.5-13t-35 14.5Q17 180 17 201v170Q-9 467 4 566t63 184v101q-1 22 12 39.5t33 24.5q20 7 41 0t34-24q93 75 209.5 99.5T629 984q7-2 10-7.5t1.5-12.5q-1.5-7-7.5-10.5t-13-1.5q-110 29-222 4t-199-99v-2q1-4 1-394 23-11 36.5-31.5T250 384V201q0-23-18-39-19-15-42-10 71-62 159-92.5T531 35q94 6 177.5 48T853 196q76 87 102 200t-4 225q-3 9 4 16t16 4q9-3 12-11 29-109 9-219-20-108-83-197-64-92-162-148T537 2Q428-6 326 32 221 71 142 152zM38 439q13 15 29 22v213Q21 561 38 439zm95 445q-14 0-23.5-9.5T100 851V468h67v383q0 14-10 23.5t-24 9.5zm78-696q0 1 1 1 5 7 5 12v183q0 21-15 35.5T167 434h-67q-20 0-35-14.5T50 384V201q0-7 5-12t12-5q7 0 11.5 5t4.5 12v133q0 7 5 12t12 5q7 0 11.5-5t4.5-12V201q1-7 5-11.5t11-5.5h3q6 1 10.5 6t4.5 11v133q0 7 4.5 12t12 5q7.5 0 12-5t4.5-12V201q0-10 10-15t18 2zm403 35q9 4 17-1.5t6-15.5q-2-10-10-13-86-36-179-21-10 2-13 10.5t3 16.5q5 6 15 6 81-13 161 18zM333 918q28 0 47.5-19.5T400 851V184q0-14-9.5-23.5T367 151q-37 0-59 26t-31.5 83.5Q267 318 267 418v433q0 28 19.5 47.5T333 918zm0-34q-14 0-23.5-9.5T300 851V551h67v300q0 14-10 23.5t-24 9.5zm34-700v317l-1 17h-66V418q0-82 7-135 6-46 17-70 9-19 22-25 7-4 21-4zm497 324q-31-40-93-111-25-26-32-59-4-15 4.5-29t24.5-17l2-1q6-1 11.5-2t9.5-5q4-4 5-9t-1.5-10q-2.5-5-6.5-7-31-20-67.5-23T651 247q-48 23-71 68.5T566 419q1 6 4 17l2 9q-26-4-50.5 3T478 471q-7 6-6.5 15t9.5 13q18 8 27 13 11 10 13.5 24.5T517 564q-15 25-33 51-22 29-30 65t-1 72q9 55 44.5 97t88.5 61q19 8 37 8 11 0 15.5-11t-3.5-17q-5-6-16-16-10-8-13-12-23-29-23-66t22-66q10-12 32-35l21-23q18-18 28-41t11-48q27 29 30 65 3 24-1 41t-16 30q-3 4-13 12-5 7-5 14t7 12q24 15 50 7 31-9 51-35l3 7q21 65-31 124-14 15-29 29-4 4-5 9.5t2 10.5q3 5 8 7.5t10 .5q59-15 102-56.5t61.5-98Q940 706 928 646q-15-75-64-138zm-45 345q18-29 22-62.5t-6-64.5q-8-25-30-38-6-3-12.5-1t-10.5 9q-13 26-38 35 25-40 17-86-4-40-30-74-18-23-49-46-4-3-9.5-3t-10 3.5q-4.5 3.5-6 9t.5 10.5q11 27 5 56t-28 49l-23 25q-22 22-32 34-26 34-29 76.5t19 79.5q-33-19-55-50.5T486 746q-5-30 1.5-59t24.5-53q24-36 35-54 14-26 7.5-54T524 483q33-12 69-1 9 3 16-5t4-16q-9-27-14-47-7-46 10.5-82.5T665 278q33-17 70-7-17 13-24.5 33t-3.5 41q9 41 39 74l18 21q52 60 74 88 44 56 59 125 11 57-10.5 111T819 853z"/></svg>