<svg viewBox="0 0 1244 1083.753" xmlns="http://www.w3.org/2000/svg"><path d="M973 657q-7 0-7 6t6.5 6q6.5 0 6.5-6 0-2-2-4t-4-2zm0 39q-7 0-7 6t6.5 6q6.5 0 6.5-6 0-2-2-4t-4-2zm0 39q-7 0-7 6t6.5 6q6.5 0 6.5-6 0-2-2-4t-4-2zm-19-60q-6 0-6 6.5t6 6.5q6 0 6-6 0-3-2-5t-4-2zm-21 21q-6 0-6 6t6 6q2 0 4.5-2t2.5-4q0-2-2-4t-5-2zm21 19q-6 0-6 6t6 6q6 0 6-6t-6-6zm-21 20q-6 0-6 6t6 6q2 0 4.5-2t2.5-4q0-2-2-4t-5-2zm21 19q-6 0-6 6t6 6q6 0 6-6t-6-6zm-21 20q-2 0-4 2t-2 4q0 2 2 4t4 2q2 0 4.5-2t2.5-4q0-2-2-4t-5-2zm21 19q-6 0-6 6t6 6q6 0 6-6t-6-6zm-21 20q-2 0-4 2t-2 4q0 2 2 4t4 2q2 0 4.5-2t2.5-4q0-2-2-4t-5-2zm-18-98q-6 0-6 6t6 6q6 0 6-6t-6-6zm-21 20q-6 0-6 6t6 6q2 0 4-2t2-4q0-6-6-6zm21 19q-6 0-6 6t6 6q6 0 6-6t-6-6zm-21 20q-2 0-4 2t-2 4q0 2 2 4t4 2q2 0 4-2t2-4q0-6-6-6zm21 19q-6 0-6 6t6 6q6 0 6-6t-6-6zm-21 20q-2 0-4 2t-2 4q0 2 2 4t4 2q2 0 4-2t2-4q0-6-6-6zm21 19q-6 0-6 6t6 6q6 0 6-6t-6-6zm-39-117q-6 0-6 6t6 6q6 0 6-6t-6-6zm-21 20q-6 0-6 6t6 6q2 0 4-2t2-4q0-6-6-6zm21 19q-6 0-6 6t6 6q6 0 6-6t-6-6zm-21 20q-2 0-4 2t-2 4q0 2 2 4t4 2q2 0 4-2t2-4q0-6-6-6zm21 19q-6 0-6 6t6 6q6 0 6-6t-6-6zm-21 20q-2 0-4 2t-2 4q0 2 2 4t4 2q2 0 4-2t2-4q0-6-6-6zm21 19q-6 0-6 6t6 6q6 0 6-6t-6-6zm-21 20q-2 0-4 2t-2 4q0 2 2 4t4 2q2 0 4-2t2-4q0-6-6-6zm-39-117q-6 0-6 6t6 6q2 0 4-2t2-4q0-6-6-6zm21 19q-6 0-6 6t6 6q6 0 6-6t-6-6zm-21 20q-2 0-4 2t-2 4q0 2 2 4t4 2q2 0 4-2t2-4q0-6-6-6zm21 19q-6 0-6 6t6 6q6 0 6-6t-6-6zm-21 20q-2 0-4 2t-2 4q0 2 2 4t4 2q2 0 4-2t2-4q0-6-6-6zm21 19q-6 0-6 6t6 6q6 0 6-6t-6-6zm-21 20q-2 0-4 2t-2 4q0 2 2 4t4 2q2 0 4-2t2-4q0-6-6-6zm-39-117q-6 0-6 6t6 6q2 0 4-2t2-4q0-6-6-6zm21 19q-7 0-7 6 0 2 2 4t5 2q6 0 6-6t-6-6zm-21 20q-2 0-4 2t-2 4q0 2 2 4t4 2q2 0 4-2t2-4q0-6-6-6zm21 19q-7 0-7 6 0 2 2 4t5 2q6 0 6-6t-6-6zm-21 20q-2 0-4 2t-2 4q0 2 2 4t4 2q2 0 4-2t2-4q0-6-6-6zm21 19q-7 0-7 6 0 2 2 4t5 2q6 0 6-6t-6-6zm-21 20q-2 0-4 2t-2 4q0 2 2 4t4 2q2 0 4-2t2-4q0-6-6-6zm-39-117q-6 0-6 6t6 6q2 0 4-2t2-4q0-6-6-6zm20 19q-6 0-6 6 0 2 2 4t4 2q2 0 4.5-2t2.5-4q0-6-7-6zm-20 20q-2 0-4 2t-2 4q0 2 2 4t4 2q2 0 4-2t2-4q0-6-6-6zm20 19q-6 0-6 6 0 2 2 4t4 2q2 0 4.5-2t2.5-4q0-6-7-6zm-20 20q-2 0-4 2t-2 4q0 2 2 4t4 2q2 0 4-2t2-4q0-6-6-6zm20 19q-6 0-6 6 0 2 2 4t4 2q2 0 4.5-2t2.5-4q0-6-7-6zm-20 20q-2 0-4 2t-2 4q0 2 2 4t4 2q2 0 4-2t2-4q0-6-6-6zm-39-117q-6 0-6 6t6 6q2 0 4-2t2-4q0-2-2-4t-4-2zm20 19q-6 0-6 6 0 2 2 4t4 2q2 0 4-2t2-4q0-6-6-6zm-20 20q-2 0-4 2t-2 4q0 2 2 4t4 2q2 0 4-2t2-4q0-2-2-4t-4-2zm0 39q-2 0-4 2t-2 4q0 2 2 4t4 2q2 0 4-2t2-4q0-2-2-4t-4-2zm0 39q-2 0-4 2t-2 4q0 2 2 4t4 2q2 0 4-2t2-4q0-2-2-4t-4-2zm-39-117q-6 0-6 6t6 6q2 0 4-2t2-4q0-2-2-4t-4-2zm20 19q-6 0-6 6 0 2 2 4t4 2q2 0 4-2t2-4q0-6-6-6zm-20 20q-2 0-4 2t-2 4q0 2 2 4t4 2q2 0 4-2t2-4q0-2-2-4t-4-2zm20 19q-6 0-6 6 0 2 2 4t4 2q2 0 4-2t2-4q0-6-6-6zm-20 20q-2 0-4 2t-2 4q0 2 2 4t4 2q2 0 4-2t2-4q0-2-2-4t-4-2zm20 19q-6 0-6 6 0 2 2 4t4 2q2 0 4-2t2-4q0-6-6-6zm-20 20q-2 0-4 2t-2 4q0 2 2 4t4 2q2 0 4-2t2-4q0-2-2-4t-4-2zm-39-117q-6 0-6 6t6 6q2 0 4-2t2-4q0-2-2-4t-4-2zm20 19q-6 0-6 6 0 2 2 4t4 2q2 0 4-2t2-4q0-6-6-6zm0 39q-6 0-6 6 0 2 2 4t4 2q2 0 4-2t2-4q0-6-6-6zm0 39q-6 0-6 6 0 2 2 4t4 2q2 0 4-2t2-4q0-6-6-6zm-59-97q-6 0-6 6t6 6q2 0 4-2t2-4q0-2-2-4t-4-2zm20 19q-6 0-6 6 0 2 2 4t4 2q2 0 4-2t2-4q0-6-6-6zm-20 20q-2 0-4 2t-2 4q0 2 2 4t4 2q2 0 4-2t2-4q0-2-2-4t-4-2zm20 19q-6 0-6 6 0 2 2 4t4 2q2 0 4-2t2-4q0-6-6-6zm-20 20q-2 0-4 2t-2 4q0 2 2 4t4 2q2 0 4-2t2-4q0-2-2-4t-4-2zm20 19q-6 0-6 6 0 2 2 4t4 2q2 0 4-2t2-4q0-6-6-6zm-20 20q-2 0-4 2t-2 4q0 2 2 4t4 2q2 0 4-2t2-4q0-2-2-4t-4-2zm-39-117q-6 0-6 6t6 6q2 0 4-2t2-4q0-2-2-4t-4-2zm20 19q-6 0-6 6 0 2 2 4t4 2q2 0 4-2t2-4q0-6-6-6zm-20 20q-2 0-4 2t-2 4q0 2 2 4t4 2q2 0 4-2t2-4q0-2-2-4t-4-2zm20 19q-6 0-6 6 0 2 2 4t4 2q2 0 4-2t2-4q0-6-6-6zm-20 20q-2 0-4 2t-2 4q0 2 2 4t4 2q2 0 4-2t2-4q0-2-2-4t-4-2zm20 19q-6 0-6 6 0 2 2 4t4 2q2 0 4-2t2-4q0-6-6-6zm-20 20q-2 0-4 2t-2 4q0 2 2 4t4 2q2 0 4-2t2-4q0-2-2-4t-4-2zm-39-117q-6 0-6 6t6 6q6 0 6-6 0-2-2-4t-4-2zm20 19q-6 0-6 6 0 2 2 4t4 2q2 0 4-2t2-4q0-6-6-6zm-20 20q-6 0-6 6t6 6q6 0 6-6 0-2-2-4t-4-2zm0 39q-6 0-6 6t6 6q6 0 6-6 0-2-2-4t-4-2zm0 39q-6 0-6 6t6 6q6 0 6-6 0-2-2-4t-4-2zm-39-117q-6 0-6 6t6 6q6 0 6-6 0-2-2-4t-4-2zm20 19q-6 0-6 6 0 2 2 4t4 2q2 0 4-2t2-4q0-6-6-6zm-20 20q-6 0-6 6t6 6q6 0 6-6 0-2-2-4t-4-2zm20 19q-6 0-6 6 0 2 2 4t4 2q2 0 4-2t2-4q0-6-6-6zm-20 20q-6 0-6 6t6 6q6 0 6-6 0-2-2-4t-4-2zm20 19q-6 0-6 6 0 2 2 4t4 2q2 0 4-2t2-4q0-6-6-6zm-20 20q-6 0-6 6t6 6q6 0 6-6 0-2-2-4t-4-2zm-39-117q-6 0-6 6t6 6q6 0 6-6 0-2-2-4t-4-2zm20 19q-6 0-6 6 0 2 2 4t4 2q2 0 4-2t2-4q0-6-6-6zm-20 20q-6 0-6 6t6 6q6 0 6-6 0-2-2-4t-4-2zm20 19q-6 0-6 6 0 2 2 4t4 2q2 0 4-2t2-4q0-6-6-6zm-20 20q-6 0-6 6t6 6q6 0 6-6 0-2-2-4t-4-2zm20 19q-6 0-6 6 0 2 2 4t4 2q2 0 4-2t2-4q0-6-6-6zm-20 20q-6 0-6 6t6 6q6 0 6-6 0-2-2-4t-4-2zm-39-117q-6 0-6 6t6 6q6 0 6-6 0-2-2-4t-4-2zm20 19q-6 0-6 6 0 2 2 4t4 2q2 0 4-2t2-4q0-6-6-6zm0 78q-6 0-6 6 0 2 2 4t4 2q2 0 4-2t2-4q0-6-6-6zm-20 20q-6 0-6 6t6 6q6 0 6-6 0-2-2-4t-4-2zm-80-597q40 0 72-8 42-9 42-28t-42-28q-31-7-71.5-7t-71.5 7q-42 9-42 28t42 28q32 8 71 8zm0-56q30 0 54 4 20 3 33 9 10 4 10 7t-11.5 8q-11.5 5-31.5 8-24 4-54 4t-54-4q-20-3-31.5-8t-11.5-8q0-3 10-7 13-6 33-9 24-4 54-4zm522 110H614v-90q0-23-24-42.5T521 143q-87-29-214-29T93 143q-45 14-69 33.5T0 219v170q0 22 24 42t69 34q87 29 214 29l522 1q51 0 91 29t56 75q-16 47-56.5 75.5T829 703H285q-10 0-17.5 7t-7.5 18v136q0 10 7 17t18 7h544q46 0 85.5-23t62.5-62.5q23-39.5 23-85.5V481q0-47-23-86.5T914.5 332Q875 309 829 309zM307 129q84 0 153 14 64 12 101.5 33t37.5 43q0 22-37 43t-102 33q-69 14-153 14t-153-14q-64-12-101-33t-37-43q0-22 37-43t101-33q70-14 153-14zm292 125v55H470q33-7 51-13 56-19 78-42zm385 463q0 31-10 57h-1q-3 0-5 2t-2 4.5q0 2.5 3 4.5-24 47-69 70-1-3-6-3-2 0-4 2t-2 4l1 3q-24 10-49 11-1-1-3.5-1t-4.5 2h-30q-2-2-4.5-2t-4.5 2h-30q-2-2-4.5-2t-4.5 2h-27v-91q0-3-2.5-5.5T719 774q-3 0-5.5 2.5T711 782v91h-26q-2-2-4.5-2t-4.5 2h-30q-2-2-4.5-2t-4.5 2h-10v-93q0-2-2-4t-4-2h-2q-7 2-7 8v91h-5l-1-1q-3-1-4.5-1t-3.5 2h-31q-2-2-4-2t-4 2h-31v-30l1-1q1-3 1-5t-2-4v-30q2-2 2-4.5t-2-4.5v-12q0-3-2.5-5.5T520 774q-3 0-5.5 2.5T512 782v91h-23q-2-2-4-2t-4 2h-31q-2-2-4-2t-4 2h-31q-2-2-4-2t-4 2h-31q-2-2-3-2v-18q0-5 3-10t8-7q20-9 25-32 0 1 2 1t4-2q2-2 2-4t-2-4q-2-2-4-2h-2q-1-12-7.5-22T380 756q-5-2-8-7t-3-10v-13q2 0 3.5-1.5t1.5-3.5v-2h27v2q0 2 2 4t4 2q2 0 4-2t2-4v-2h27v2q0 2 2 4t4 2q2 0 4-2t2-4v-2h27v2q0 2 2 4t4 2q2 0 4-2t2-4v-2h27v2q0 2 2 4t4 2q2 0 4-2t2-4v-2h27v2q0 2 2 4t4 2q2 0 4-2t2-4v-2h27v2q0 2 2 4t4 2q2 0 4-2t2-4v-2h27v2q0 2 2 4t4 2q2 0 4-2t2-4v-2h27v2q0 2 2 4t4 2q2 0 4-2t2-4v-2h28q-1 0-1 2t2 4q2 2 4 2t4-2q2-2 2-4v-2h28q-1 0-1 2t2 4q2 2 4 2t4-2q2-2 2-4v-2h28q-1 1-1 2.5t2 3.5q2 2 4 2t4.5-2q2.5-2 2.5-4l-1-2h28l-1 2q0 2 2 4t5 2q6 0 6-6l-1-2q26-3 50-12 0 1 3 1t5-4q55-27 82-80 2 9 2 26v67zm0-138q-21-45-62.5-72.5T829 479h-38v-91q0-3-2.5-5t-5.5-2q-3 0-5.5 2t-2.5 5v91h-84v-91q0-7-8-7t-8 7v91h-83v-91q0-3-2.5-5t-5.5-2q-3 0-5.5 2t-2.5 5v91h-84v-91q0-3-2.5-5t-5.5-2q-3 0-5.5 2t-2.5 5v91h-84v-91q0-3-2-5t-5-2q-3 0-5.5 2t-2.5 5v91h-70q-83 0-153-14-64-12-101-33t-37-43V254q22 24 77 42 87 29 214 29h522q42 0 77.5 21t56.5 57q21 36 21 78v98z"/></svg>