<svg viewBox="0 0 1244 1083.753" xmlns="http://www.w3.org/2000/svg"><path d="M500 714H100q-5 0-8.5-3.5T88 702V500q0-58 28.5-106.5t77-77.5Q242 287 300 287t106.5 29q48.5 29 77.5 77.5T513 500v202q0 5-4 8.5t-9 3.5zm-387-25h375V500q0-51-25.5-94T394 337.5Q351 312 300 312t-94 25q-43 25-68 68.5T113 500v189zm787 25H500q-5 0-8.5-3.5T488 702v-94q0-5 3.5-8.5t8.5-3.5h400q5 0 9 3.5t4 8.5v94q0 5-4 8.5t-9 3.5zm-387-25h375v-68H513v68zm387 25q-5 0-8.5-3.5T888 702V573q0-5 3.5-8.5t8.5-3.5q5 0 9 3.5t4 8.5v129q0 5-4 8.5t-9 3.5zm-600-80q-36 0-66.5-18T185 567.5Q167 537 167 501t18-66.5q18-30.5 48.5-48.5t66.5-18q36 0 66.5 18t48.5 48.5q18 30.5 18 66.5t-18 66.5Q397 598 366.5 616T300 634zm0-241q-30 0-54.5 14.5t-39 39Q192 471 192 501t14.5 54.5q14.5 24.5 39 39T300 609q30 0 54.5-14.5t39-39Q408 531 408 501t-14.5-54.5q-14.5-24.5-39-39T300 393zm277 321q-5 0-8.5-3.5T565 702v-25q0-5 3.5-8.5t8.5-3.5q5 0 9 3.5t4 8.5v25q0 5-4 8.5t-9 3.5zm82 0q-5 0-8.5-3.5T647 702v-25q0-5 3.5-8.5t8.5-3.5q5 0 9 3.5t4 8.5v25q0 5-4 8.5t-9 3.5zm82 0q-5 0-8.5-3.5T729 702v-25q0-5 3.5-8.5t8.5-3.5q5 0 9 3.5t4 8.5v25q0 5-4 8.5t-9 3.5zm82 0q-5 0-9-3.5t-4-8.5v-25q0-5 4-8.5t9-3.5q5 0 8.5 3.5t3.5 8.5v25q0 5-3.5 8.5T823 714z"/></svg>