<svg viewBox="0 0 1244 1083.753" xmlns="http://www.w3.org/2000/svg"><path d="M626 453q-26-32-60-53.5T493 369q-23-5-41 9-19 16-19 41v43q-79 13-143 41.5T187 570q-14-22-31-39-31-31-73-48-13-5-26.5-3t-24 10.5q-10.5 8.5-15 21T15 538q4 20 4 46 2 41-13 77-6 10-6 23t6 24q15 35 13 76 1 19-4 46-2 14 2.5 26.5T32 877q14 12 33 12 10 0 18-4 40-15 73-48 17-17 31-39 39 39 103 67.5T433 907v43q0 24 19 40 14 11 31 11 6 0 10-1 58-14 102-53 16-15 31-31 106-8 191.5-40.5t134-82.5q48.5-50 48.5-109t-48.5-109q-48.5-50-134-82.5T626 453zm-159-34q0-9 6-14t13-4q53 12 92 50h-11q-50 0-100 6v-38zM132 814q-26 27-62 41-4 2-8.5 1t-7.5-4q-7-6-6-15 5-28 5-53 1-46-17-91-4-9-1-17 20-44 18-92 0-24-5-52-2-10 6-15 3-3 7.5-4t8.5 1q36 14 62 40 18 18 32 43-7 8-14 22-23-12-46-18-7-2-13 1.5T83.5 613q-1.5 7 2 13t10.5 8q18 4 42 16-9 34 0 69-19 9-42 16-6 1-10 6t-3 11.5q1 6.5 5.5 10.5t11.5 4h4q21-5 46-17 8 14 14 21-16 28-32 43zm35-130q0-53 55-100 54-45 145-72 93-28 200-28 103 0 204 29-41 81-38 171-3 90 38 172-102 29-204 28-107 0-200-28-91-26-145-72-55-46-55-100zm406 238q-39 35-87 45-7 1-13-3.5t-6-13.5v-38q50 6 100 6l11-1-2 2-3 3zm230-78q-17-25-26.5-68t-9.5-92q0-49 9.5-91.5T803 524q76 28 120 70.5t44 89.5q0 47-44.5 90T803 844zm92-238q-4-5-11-5t-12 5l-22 21-21-21q-5-5-12-5t-12 4.5q-5 4.5-5 11.5t5 12l21 22-21 21q-6 8-4 17t11 11q9 2 17-4l21-21 22 21q5 4 12 4t11.5-4.5Q900 691 900 684t-5-12l-21-21 21-22q5-5 5-11.5t-5-11.5zm-245 45q7 0 12-5t5-12q0-7-5-11.5t-12-4.5q-14 0-23.5-10t-9.5-24q0-14 9.5-23.5T650 551q7 0 12-5t5-12q0-7-5-11.5t-12-4.5q-28 0-47.5 19.5t-19.5 47q0 27.5 19.5 47T650 651zm-100 67q-14 0-23.5-10t-9.5-24q0-14 9.5-23.5T550 651q7 0 12-5t5-12q0-7-5-11.5t-12-4.5q-28 0-47.5 19T483 684q0 28 19.5 47.5T550 751q7 0 12-5t5-12q0-7-5-11.5t-12-4.5zm-200-67q7 0 12-5t5-12q0-7-5-11.5t-12-4.5q-28 0-47.5 19.5t-19.5 47q0 27.5 19.5 47T350 751q7 0 12-5t5-12q0-7-5-11.5t-12-4.5q-14 0-23.5-10t-9.5-24q0-14 10-23.5t23-9.5zm300 200q7 0 12-5t5-12q0-7-5-11.5t-12-4.5q-14 0-23.5-10t-9.5-24q0-14 9.5-23.5T650 751q7 0 12-5t5-12q0-7-5-11.5t-12-4.5q-28 0-47.5 19.5t-19.5 47q0 27.5 19.5 47T650 851zM450 551q7 0 12-5t5-12q0-7-5-11.5t-12-4.5q-28 0-47.5 19.5t-19.5 47q0 27.5 19.5 47T450 651q7 0 12-5t5-12q0-7-5-11.5t-12-4.5q-14 0-23.5-10t-9.5-24q0-14 9.5-23.5T450 551zm0 200q7 0 12-5t5-12q0-7-5-11.5t-12-4.5q-28 0-47.5 19.5t-19.5 47q0 27.5 19.5 47T450 851q7 0 12-5t5-12q0-7-5-11.5t-12-4.5q-14 0-23.5-10t-9.5-24q0-14 9.5-23.5T450 751zM925 68q-18 0-34.5 8T864 99q-7 9-17.5 14t-22.5 5h-91q-159-3-310-61l-33-13q-52-23-108-33-78-14-123-8-66 8-107 55-25 30-38.5 67T0 201q0 39 13.5 76T52 345q27 29 63.5 43.5T191 401q49-2 91-10 56-11 108-33l33-13q148-57 310-60h91q12-1 22.5 4t17.5 14q10 15 26.5 23.5T925 335q22-1 40-12.5t28-31.5q7-14 7-31 0-26-16-47-4-5-4-12t4-11q16-22 16-47 0-16-6.5-30T976 88q-16-14-36-19-5-1-15-1zM412 314q-20 7-34 13-47 20-101 31-72 12-110 8-56-6-90-44-21-26-32.5-57T33 201q0-33 11.5-64T77 80q34-39 90-45 39-4 110 9 53 11 101 31l34 13q148 57 311 63 13 24 10 50 3 26-10 50h-1q-157 4-310 63zm513-13q-10 0-19-5t-15-13q-12-16-29.5-24.5T824 251h-65q8-21 8-49.5t-7-50.5h65q19 1 37-8t29-24q7-11 19.5-15.5T936 102q13 3 21 12.5t10 22.5v6q0 14-9 26-11 14-11 32.5t11 32.5q9 10 9 26 0 4-1 6-2 15-13.5 25T925 301zM147 73q-27 8-45 29-35 43-35 99 0 7 4.5 11.5T83 218h1q7 0 11.5-4.5T100 202q0-45 27-78 13-15 29-19 5-1 8-4.5t4-7.5q3-9-5-16-3-3-7.5-4t-8.5 0zm70-5q7 0 11.5 4.5T233 84q0 7-4.5 12t-11.5 5q-7 0-12-5t-5-12q0-7 5-11.5t12-4.5z"/></svg>