<svg viewBox="0 0 1244 1083.753" xmlns="http://www.w3.org/2000/svg"><path d="M523 821q-4 4-4 10t4 10.5q4 4.5 10.5 4.5t10.5-4q40-39 61.5-89.5T627 646q0-74-37-137-36-61-98.5-97.5t-136-36.5q-73.5 0-136 36.5T121 509q-37 63-37 137t37 137q36 62 98.5 98.5T355 918q76 0 142-40 5-3 6.5-9t-1.5-11q-3-5-9-6.5t-11 1.5q-59 36-125.5 36T234 856.5Q178 824 145.5 768T113 646.5q0-65.5 32.5-121.5t88.5-88.5Q290 404 355 404t121 32.5q56 32.5 89 88.5t33 121q0 50-19.5 95T523 821zm0 0zM198 626v26q0 6 4.5 10.5T213 667q6 0 10.5-4.5T228 652v-26q0-6-4.5-10t-10.5-4q-6 0-10.5 4t-4.5 10zm0 0zm285 0v26q0 6 4.5 10.5T498 667q6 0 10-4.5t4-10.5v-26q0-6-4-10t-10-4q-6 0-10.5 4t-4.5 10zm0 0zm-103 15q-10 10-24.5 10T331 641q-4-5-10-5.5t-10.5 4q-4.5 4.5-5 10.5t3.5 10q9 10 21 15.5t25 5.5q28 0 47-21 4-4 3.5-10t-5-10.5q-4.5-4.5-10.5-4t-10 5.5zm0 0zM671 76L572 4q-4-3-9-3H148q-6 0-9 3L40 76Q9 98 2 136t14 70l110 169q-31 28-51 54-4 5-3 11t5.5 10q4.5 4 10.5 3t10-6q27-34 56-57h1q48-39 109-56.5T388 322h1v1q81 8 148 53.5T642 491q39 72 39 155 0 89-45 165-43 73-116 116-76 45-164.5 45T191 927q-73-43-117-116-44-77-44-165 0-82 38-152 3-5 1-11t-7-9q-5-3-11-1t-9 7Q1 557 1 646q0 96 48 179 47 80 128 128 82 48 178 48t179-48q80-48 127-128 49-83 49-179 0-79-34-151-33-69-91-119l110-170q21-32 14-70t-38-60zM536 30l-86 132H260L175 30h361zM40 190q-14-23-9.5-48.5T57 100l87-63 168 257-22 3q-79 15-141 60L40 190zm305 102l-66-101h152l-65 101h-21zm326-102L561 357q-58-42-134-58-17-4-28-5L567 37l87 63q22 16 26.5 41.5T671 190zm0 0z"/></svg>