<svg viewBox="0 0 1244 1083.753" xmlns="http://www.w3.org/2000/svg"><path d="M872 209V56q0-16-11.5-27T833 18h-25q-13 0-23.5 8T771 46l-177 68q-6 2-8 8t0 11q3 10 13 10l3-1 167-64v604L388 534q-2-1-5-1h-44V226h44q3 0 5-1l158-61q6-2 8.5-7.5t.5-11q-2-5.5-8-8t-11-.5l-156 60h-66v-31q0-17-12.5-29T272 125h-62q-17 0-29.5 12T168 166v32q-46 3-84.5 28.5t-61 66Q0 333 0 380q0 57 32 103t83 66v62q0 14 8.5 25t20.5 16v285q0 15 10.5 25.5T180 973h59q15 0 25.5-10.5T275 937v-50h6q28 0 53-16 9-6 12-17t-1-21l-40-99 29-27q5-5 5-11v-43q15-3 25-14.5t10-27.5v-49h6l391 152q3 12 13.5 19.5T808 741h25q16 0 27.5-11t11.5-27V550q32-3 59-21.5t42.5-47.5q15.5-29 15.5-62v-79q0-50-34-87.5T872 209zM310 533h-35V226h35v307zM210 154h62q5 0 9 3.5t4 8.5v31h-88v-31q0-5 4-8.5t9-3.5zM29 380q0-42 20.5-77.5t56-56Q141 226 183 226h63v307h-63q-42 0-77.5-20.5t-56-56Q29 421 29 380zm222 363q-5 5-5 11v27q0 6 4 10.5t10.5 4.5q6.5 0 10.5-4.5t4-10.5v-20l6-6 37 89q0 2-1 3-20 12-42 11v-14q0-6-4-10.5t-10-4.5q-6 0-10.5 4.5T246 844v93q0 2-2 4t-5 2h-59q-2 0-4-2t-2-4V654h136v36l-59 53zm94-132q0 6-4.5 10t-9.5 4H159q-6 0-10-4t-4-10v-53q16 4 38 4h162v49zm614-192q0 39-25 67.5T872 520v-62q0-6-4.5-10.5T857 443q-6 0-10.5 4.5T842 458v245q0 4-2.5 6.5T833 712h-25q-4 0-7-2.5t-3-6.5V56q0-4 3-6.5t7-2.5h25q4 0 6.5 2.5T842 56v340q0 6 4.5 10t10.5 4q6 0 10.5-4t4.5-10V239q37 5 62 34t25 67v79z"/></svg>