<svg viewBox="0 0 1244 1083.753" xmlns="http://www.w3.org/2000/svg"><path d="M940 403q41-47 54-107t-3.5-119.5Q974 117 929 72T824.5 10.5Q765-6 705 7T598 61l-9-9q-4-5-10.5-5t-11 4.5q-4.5 4.5-4.5 11t4 11.5l9 9q-46 53-56 119-24-4-42 9t-23 34q-5 21 6 41L145 655q-13 15-14 34t10 35l-72 92q-13 17-11.5 38.5T74 891l7 7-76 76q-5 5-5 11.5t5 11q5 4.5 11.5 4.5t10.5-4l76-77 7 7q15 15 36.5 16.5T185 932l92-72q16 11 35 10t34-14l369-316q20 12 41.5 6.5t34-24Q803 504 799 481q66-10 119-56l2 2q6 6 9.5 8.5t8.5 2.5q10 0 14-9.5t-3-16.5l-9-9zM758 32q57 0 105.5 28.5t77 77Q969 186 969 243q0 38-13 73.5T918 381L620 83q29-25 64.5-38T758 32zM166 907q-7 6-17 5.5t-17-7.5l-36-36q-7-7-7.5-17t5.5-17l69-88 34 35-18 18q-4 4-4 10.5t4.5 11q4.5 4.5 11 4.5t10.5-4l18-18 35 34-88 69zm160-75q-8 7-18 6.5t-17-7.5l-49-49 18-18q5-5 5-11.5t-4.5-11.5q-4.5-5-11-5t-11.5 5l-19 18-12-12 12 12-49-49q-7-7-7.5-17t6.5-18l313-365 209 209-365 313zm436-323q-7 7-18 7t-19-7L492 276q-7-8-7-18.5t7.5-18Q500 232 511 232t18 8l233 232q7 7 7 18t-7 19zm23-57l-5-5Q551 217 549 216q7-60 49-111l298 298q-49 41-111 49zm-218 38q0-24-16.5-40t-40-16.5Q487 433 470 450l1-.5q1-.5-59 59.5-17 17-16.5 40t16.5 40q16 17 40.5 17t39.5-17l59-58q16-18 16-41zm-115 84q-11 0-18-7.5t-7.5-17.5q-.5-10 7.5-18l18-18 36 36-18 18q-6 7-18 7zm77-65l-18 18-37-37 18-18q7-7 18.5-7t18.5 7.5q7 7.5 7.5 18T529 509z"/></svg>