<svg viewBox="0 0 1244 1083.753" xmlns="http://www.w3.org/2000/svg"><path d="M196 141q62-53 139.5-82t161-29q83.5 0 164 29.5T807 144q-52-13-99-13-100 0-185 51-82 49-128 132-47 87-44 187 2 64 26 124.5T443 735q5 6 11.5 6t10.5-4q4-4 4-10t-4-10q-38-46-60-101.5T381 501q-3-92 40-172 43-77 118-122 78-47 170-47 79 0 152 35 4 3 9.5 2t8.5-6q7-10-1-18-74-82-174.5-127T495 1q-88 0-170.5 30.5T177 119q-5 4-5 10t4.5 10.5q4.5 4.5 10 5t9.5-3.5zm686 665q-67 35-149 35-59 0-116-20t-103-57q-5-4-11-3.5t-10 5q-4 4.5-3 10.5t6 10q51 41 112.5 63T734 871q46 0 98-13-63 55-141 84.5T529 972q-128 0-240-65-109-62-175-169-69-110-73-237-3-87 25-168t84-146q4-4 3.5-10t-5-10.5q-4.5-4.5-10.5-4t-10 5.5q-59 68-89 154.5T12 501q4 101 45 192t114.5 162q73.5 71 166 108.5T530 1001q108 0 205-45t166-127q3-4 3-9t-3-9q-8-10-19-5zm97-316q7-7 9-16t-1.5-18.5q-3.5-9.5-11-15.5t-17.5-8l-102-15q-3 0-3-3l-5-9q-3-5-9-7t-11 .5q-5 2.5-7 8.5t1 11l5 9q4 8 11 13t15 6l101 15q2 0 4 2l1 1q0 4-1 5l-71 71q-6 6-8.5 14.5T878 571l21 100q1 3-1 5h-1q-2 2-5 0l-101-52q-7-4-14 0l-97 52q-4 2-6 0l-1-1q-1-2-1-4l15-110q2-8-4-13l-83-79q-2-1-2-5l1-1q1-2 3-2l100-15q18-2 26-19l41-91q3-3 5-3t5 3l11 21q2 5 8 7t11.5-.5q5.5-2.5 7-8T815 344l-11-21q-4-9-12.5-14t-18.5-5q-10 0-18 5t-12 14l-42 91q-1 3-4 3l-100 15q-10 1-17 7.5t-10 16q-3 9.5-.5 18.5t10.5 16l77 73-14 103q-1 10 3 19t12.5 15q8.5 6 20.5 6 8 0 15-4l91-48 94 48q9 5 18.5 4.5T915 700q16-12 13-34l-21-100q0-3 1-5l71-71z"/></svg>