<svg viewBox="0 0 1244 1083.753" xmlns="http://www.w3.org/2000/svg"><path d="M563 298q-7 0-11.5 4.5T547 313q0 7 4.5 11.5t11 4.5q6.5 0 11-4.5t4.5-11q0-6.5-4.5-11T563 298zm-125 0q-7 0-11.5 4.5T422 313q0 7 4.5 11.5t11 4.5q6.5 0 11-4.5t4.5-11q0-6.5-4.5-11T438 298zm93 125h-62q-7 0-11.5 4.5T453 438q0 6 4.5 11t11.5 5h62q7 0 11.5-4.5T547 438q0-7-4.5-11t-11.5-4zm16-281h16q6 0 10.5-4.5T578 126q0-7-4.5-11.5T563 110h-16q-7 0-11.5 4.5T531 126q0 7 4.5 11.5T547 142zm-375 859h656q7 0 11.5-4.5T844 985V782q0-54-29-99.5T737 613l45-64q15-22 18.5-47.5T796 451l-88-252q7-3 12-8 14-14 14-34t-13-33q-13-13-33-13h-1q-6-47-41-78.5T564 1H438q-47 0-82.5 31.5T315 111h-2q-19 0-33 13.5T266 157q0 14 7 25.5t19 16.5l-88 252q-8 25-4.5 50.5T218 549l45 64q-49 24-78 69.5T156 782v203q0 7 4.5 11.5t11.5 4.5zm130-855q4-4 11-4h171q7 0 11.5-4.5T500 126q0-7-4.5-11.5T484 110H346q5-34 31-56t61-22h126q34 0 60 22t31 56h-30q-7 0-11.5 4.5T609 126q0 7 4.5 11.5T625 142h63q6 0 10.5 4.5t4.5 11q0 6.5-4.5 11T688 173H313q-7 0-11.5-4.5t-4.5-11q0-6.5 5-11.5zm319 270q-7-25-27.5-40T547 360h-94q-26 1-46.5 16T379 416q-20-34-20-71V204h69l24 29q16 20 42 22.5t46-14.5q5-3 8-8l24-29h69v141q0 37-20 71zm-168 94q47 14 94 0v100q0 19-13.5 33t-33 14q-19.5 0-33.5-14t-14-33V510zm103-36q-26 11-55.5 11T444 474q-16-7-38-25v-11q0-19 13.5-32.5T453 392h94q20 0 33.5 13.5T594 438v11q-18 16-38 25zm-88-270h64l-8 9q-9 10-22 11t-23-8l-11-12zM188 782q0-42 21-78t56.5-57q35.5-21 78.5-21h31q7 0 11.5-4.5T391 610q0-7-4.5-11t-11.5-4h-31q-29 0-51 7l-50-71q-11-15-13.5-33.5T234 461l90-257h4v141q0 48 25.5 89.5T422 497v113q0 32 23 55t55 23q32 0 55-23t23-55V497q43-22 68.5-63t25.5-89V204h4l90 257q6 18 3.5 36.5T757 531l-50 71q-22-7-51-7h-31q-7 0-11.5 4.5T609 610q0 6 4.5 11t11.5 5h31q43 0 79 21t57 57q21 36 21 78v188h-94V803l29-43q3-6 1.5-12t-6.5-10q-5-4-11.5-2.5T722 742l-32 47q-2 6-2 9v172H516V813q0-6-4.5-10.5T500 798q-7 0-11 4.5t-4 10.5v157H313V798q0-5-3-9l-31-47q-4-5-10-6.5t-11.5 2.5q-5.5 4-7 10.5T253 760l29 43v167h-94V782zm312-15q7 0 11.5-4.5T516 751v-16q0-6-4.5-10.5T500 720q-7 0-11.5 4.5T484 735v16q0 7 4.5 11.5T500 767z"/></svg>