<svg viewBox="0 0 1244 1083.753" xmlns="http://www.w3.org/2000/svg"><path d="M188 688q-7 0-11.5 4.5T172 704v31q0 7 4.5 11.5T188 751q7 0 11-4.5t4-11.5v-31q0-7-4.5-11.5T188 688zm0 188q-7 0-11.5 4.5T172 892v31q0 7 4.5 11.5T188 939q7 0 11-4.5t4-11.5v-31q0-7-4.5-11.5T188 876zm0-94q-7 0-11.5 4.5T172 798v31q0 7 4.5 11.5T188 845q7 0 11-4.5t4-11.5v-31q0-7-4.5-11.5T188 782zm625-94q-7 0-11.5 4.5T797 704v31q0 7 4.5 11.5T813 751q7 0 11-4.5t4-11.5v-31q0-7-4.5-11.5T813 688zm0 188q-7 0-11.5 4.5T797 892v31q0 7 4.5 11.5T813 939q7 0 11-4.5t4-11.5v-31q0-7-4.5-11.5T813 876zm0-94q-7 0-11.5 4.5T797 798v31q0 7 4.5 11.5T813 845q7 0 11-4.5t4-11.5v-31q0-7-4.5-11.5T813 782zm182-527q10-23-1-45-7-14-27-33-15-16-20-24-9-14-9-27V79q0-7-4.5-11.5T922 63q-7 0-11.5 4.5T906 79v47q0 13-9 27-6 9-21 24-19 19-26 33-11 22-2 45-4 4-4 12v62q0 7 4.5 11.5T859 345v125q0 6 4.5 10.5T875 485q7 0 11-4.5t4-10.5V345h63v281h-16q-6 0-10.5 4.5T922 642q0 7 4.5 11t10.5 4h32v313h-79V645q14-24 13-44-1-17-11-32-6-9-22-25l-2-2q-31-23-40-60-2-6-7-9.5t-10.5-2.5q-5.5 1-9 4t-4.5 8q-9 37-40 60-17 16-23 26-12 15-12 32-1 20 13 45v325h-94v-37q0-39 15-75.5t43-64.5q5-5 4.5-11.5t-5-11Q694 766 688 766t-11 5q-32 32-49.5 74.5T610 933v37h-31v-37q0-45-17.5-87.5T512 771q-4-5-10.5-5t-11.5 5q-33 32-50.5 74.5T423 933v37h-32v-37q0-45-17.5-87.5T324 771q-5-5-11.5-4.5t-10.5 5q-4 4.5-4 10.5t4 11q28 27 43 63.5t15 76.5v37h-94V645q14-24 13-44-1-17-11-32-6-9-22-25l-2-2q-29-20-40-59v-45q0-6-4.5-10.5T188 423q-7 0-11 4.5t-4 10.5v45q-11 38-40 59l-1 1q-17 16-23 25-11 16-12 32-1 21 13 45v325H31V657h32q6 0 10.5-4.5T78 642q0-6-4.5-11T63 626H47V345h62v125q0 6 4.5 10.5T125 485q7 0 11.5-4.5T141 470V345q6 0 10.5-4.5T156 329v-62q0-8-4-12 9-23-2-45-7-14-26-33-15-15-21-24-9-14-9-27V79q0-7-4.5-11.5T78 63q-7 0-11 4.5T63 79v47q0 13-9 26-5 8-19 23l-2 2q-20 19-27 33-11 22-1 45-5 5-5 12v62q0 7 4.5 11.5T16 345v281q-7 0-11.5 4.5T0 642v343q0 7 4.5 11.5T16 1001h968q7 0 11.5-4.5t4.5-11.5V642q0-7-4.5-11.5T984 626V345q7 0 11.5-4.5t4.5-11.5v-62q0-7-5-12zm-870 27v31H31v-31h94zm-70-83q16-18 23-27 5 8 17 21l6 6q18 18 22 27 4 11-4 25H38q-9-14-5-25 4-9 22-27zm724 366q20-18 34-38 13 20 33 38t24 27q6 14-4 34H759q-10-20-4-34 4-9 24-27zm-13 92h93v313h-93V657zM453 933q0-35 12-68t35-60q23 27 35 60t12 68v37h-94v-37zM154 565q20-18 34-38 13 20 33 38t24 27q6 14-4 34H134q-10-20-4-34 4-9 24-27zm-13 92h93v313h-93V657zm734-344v-31h94v31h-94zm24-114q16-18 23-27 5 8 17 21l6 6q18 18 22 27 4 11-4 25h-82q-9-14-4.5-24t22.5-28zm-618-89q7 0 11.5-4.5T297 95q0-26 18-44.5T359 32q26 0 44.5 18.5T422 95q0 6 4.5 10.5T438 110q7 0 11-4.5t4-10.5q0-13 9-22.5t22-9.5q13 0 22.5 9.5T516 95q0 6 4.5 10.5T531 110q6 0 11-4.5t5-10.5q0-26-18-44.5T485 32q-26 0-44 18-19-34-56-45t-71 8q-22 12-35 34t-13 48q0 6 4.5 10.5T281 110zm328 141q7 0 11.5-4.5T625 235q0-20 14-33.5t33.5-13.5q19.5 0 33 13.5T719 235q0 7 4.5 11.5T734 251q6 0 11-4.5t5-11.5q0-7 4.5-11t11.5-4q7 0 11 4.5t4 10.5q0 6 4.5 11t11.5 5q7 0 11.5-4.5T813 235q0-19-14-33t-33-14q-14 0-27 8-16-28-47-36.5t-59 7.5q-18 11-28.5 29T594 235q0 7 4.5 11.5T609 251zm-406 62q7 0 11.5-4.5T219 298q0-6 4.5-11t10.5-5q6 0 11 4.5t5 11.5q0 7 4.5 11t11.5 4q7 0 11-4.5t4-10.5q0-20 14-33.5t33.5-13.5q19.5 0 33 13.5T375 298q0 6 4.5 10.5T391 313q7 0 11-4.5t4-10.5q0-32-22.5-55T329 220q-21 0-39 10.5T261 259q-17-11-36-7t-29 20q-8 9-8 26 0 6 4.5 10.5T203 313zm375 454v31q0 6 4.5 10.5T594 813q7 0 11-4.5t4-10.5v-31q0-7-4.5-11.5T594 751q-6 0-11 4.5t-5 11.5zm-187 0v31q0 6 4.5 10.5T406 813q6 0 11-4.5t5-10.5v-31q0-7-4.5-11.5T406 751q-7 0-11 4.5t-4 11.5zm142-478q-8 9-20 9t-20.5-8q-8.5-8-8.5-20t8-20q0-1 1-1 5-5 4.5-11.5t-5-11Q488 222 482 222t-11 5q-17 18-17 43t19 43q5 5 11 8v34q-22 32-56 64l-1 1q-32 32-44 49-20 29-20 57 1 34 28 73v105h-63v-62q0-7-4.5-11.5T313 626q-6 0-11 4.5t-5 11.5v78q0 6 4.5 10.5T313 735h375q6 0 10.5-4.5T703 720v-78q0-7-4.5-11.5T688 626q-6 0-11 4.5t-5 11.5v62h-63V599q27-39 28-73 0-28-20-57-12-17-44-49l-1-1q-34-32-56-64v-26q24-2 39-18 5-5 5-11.5t-4.5-10.5q-4.5-4-11-4t-11.5 4zM422 673h156v31H422v-31zm156-31H422v-32h156v32zm-28-201q29 29 40 43 15 21 15 42 0 23-20 53H415q-20-29-20-52 0-21 15-42 10-14 39-43l1-1q22-21 50-54 21 27 50 54z"/></svg>