<svg viewBox="0 0 1244 1083.753" xmlns="http://www.w3.org/2000/svg"><path d="M500 1q-90 0-166 45-75 44-119 119-45 76-45 166 0 174 160 438 35 57 76 116 29 42 59 80 21 28 24 31 5 5 12 5t10-5q6-6 37-47 44-58 84-120 56-85 97-164 3-5 1-11t-7.5-9q-5.5-3-11-1t-8.5 7q-49 93-118 195-42 62-85 117-26-32-59-80-46-64-86-130-77-125-116.5-232.5T199 331q0-82 41-152 40-68 108-108 70-41 152-41t152 41q68 40 108 108 41 70 41 152 0 108-68 259-3 6-1 11.5t7.5 8q5.5 2.5 11.5.5t8-8q71-156 71-271 0-90-45-166-44-75-119-119Q590 1 500 1zM329 380v62q0 6 4 10t10 4h314q6 0 10-4t4-10v-62q0-44-21-82t-56.5-61.5Q558 213 515 209v-4q8-3 15-10 9-9 12-24 1-6-3-10.5t-10-5.5q-6-1-10.5 2.5T513 167l-1 2q-1 4-3 5-4 4-9 4t-9-3.5q-4-3.5-4-8.5t4-9q4-4 7-4 6-1 10-5.5t3-10.5q-1-6-6-10t-11-3q-14 2-23 12-13 12-13 29.5t13 29.5q5 6 14 10v4q-43 4-78.5 27.5T350 298q-21 38-21 82zm313 47H358v-33h284v33zm-1-62H359q3-35 23-64t51-46q31-17 67-17t67 17q31 17 51 46t23 64zM314 172q-5-4-11-3t-10 6q-52 69-52 156 0 70 35 130t94.5 95Q430 591 500 591t129.5-35q59.5-35 94.5-95t35-130q0-70-35-129.5T629.5 107Q570 72 500 72q-84 0-154 51-5 4-6 9.5t3 10.5q4 5 9.5 6t10.5-3q62-45 137-45 62 0 115 31t84 84q31 53 31 115t-31 115q-31 53-84 84t-115 31q-62 0-115-31t-84-84q-31-53-31-115 0-77 47-139 4-4 3-10t-6-10z"/></svg>