<svg viewBox="0 0 1244 1083.753" xmlns="http://www.w3.org/2000/svg"><path d="M109 410q6 0 10-4.5t4-10.5v-39q0-6-4-10.5t-10-4.5q-6 0-10.5 4.5T94 356v39q0 6 4.5 10.5T109 410zm-15 87q0 6 4.5 10.5T109 512q6 0 10-4.5t4-10.5v-39q0-6-4-10.5t-10-4.5q-6 0-10.5 4.5T94 458v39zm632 192q-6-3-12 0-17 8-31 22-27 27-27 64v88q0 6 4 10.5t10 4.5h100q6 0 10-4.5t4-10.5v-88q0-37-27-64-14-14-31-22zm29 159h-70v-73q0-34 35-56 35 22 35 56v73zM286 689q-6-3-12 0-17 8-31 22-27 27-27 64v88q0 6 4 10.5t11 4.5h99q6 0 10-4.5t4-10.5v-88q0-37-27-64-14-14-31-22zm29 159h-70v-73q0-34 35-56 35 22 35 56v73zm576-438q7 0 11-4.5t4-10.5v-39q0-6-4-10.5t-10.5-4.5q-6.5 0-10.5 4.5t-4 10.5v39q0 6 4 10.5t10 4.5zm-14 87q0 6 4 10.5t10 4.5q6 0 10.5-4.5T906 497v-39q0-6-4-10.5t-10.5-4.5q-6.5 0-10.5 4.5t-4 10.5v39zm-20 98q0 6 4.5 10.5T872 610h39q6 0 10.5-4.5T926 595q0-6-4.5-10.5T911 580h-39q-6 0-10.5 4.5T857 595zm-783 0q0 6 4.5 10.5T89 610h39q6 0 10.5-4.5T143 595q0-6-4.5-10.5T128 580H89q-6 0-10.5 4.5T74 595zm172-21h508q7 0 11-4t4-10q0-6-4-10.5t-11-4.5H246q-6 0-10.5 4.5T231 560q0 6 4.5 10t10.5 4zm739-350h-6v-19q0-32-21.5-56.5T904 119V94q0-6-4-10.5T890 79q-6 0-10.5 4.5T875 94v26q-30 6-50.5 30T804 205v19h-6q-7 0-11 4.5t-4 10.5v58q0 7 4 11t11 4h6v157h-35v-44q0-6-4-10.5t-11-4.5h-14v-44q0-62-30-116t-81.5-87Q577 130 515 127v-17q14-3 23-14 13-11 16-30 1-6-3-11t-10-6q-6-1-10.5 3T525 62q-1 6-7 14-9 7-17.5 7T484 75.5q-8-7.5-8-17.5t7-17q5-5 14-7 6-1 9.5-6t2.5-11q-1-6-5.5-9.5T493 5q-17 3-31 15-16 16-16 38t16 38q11 11 23 14v17q-62 3-113.5 36T290 250q-30 54-30 116v44h-14q-6 0-10.5 4.5T231 425v44h-35V312h7q6 0 10-4t4-11v-58q0-6-4-10.5t-10-4.5h-7v-19q0-31-20.5-55T125 120V94q0-6-4-10.5T111 79q-6 0-10.5 4.5T96 94v25q-32 5-53 29.5T22 205v19h-7q-6 0-10.5 4.5T0 239v58q0 7 4.5 11t10.5 4h7v427q0 6 4 10t10 4q6 0 10.5-4t4.5-10V312h115v656H51V807q0-6-4.5-10T36 793q-6 0-10 4t-4 10v175q0 7 4 11t10 4h928q6 0 10.5-4t4.5-11V807q0-6-4.5-10t-10.5-4q-6 0-10.5 4t-4.5 10v161H834V312h115v427q0 6 4.5 10t10.5 4q6 0 10.5-4t4.5-10V312h6q6 0 10.5-4t4.5-11v-58q0-6-4.5-10.5T985 224zM51 205q0-23 17-40t41-17q24 0 40.5 17t16.5 40v19H51v-19zm-22 78v-30h159v30H29zm471-128q55 0 101.5 26t75.5 71q29 45 33 99H290q4-54 33-99t75.5-71Q445 155 500 155zM290 381h420v29H290v-29zm-94 117h270q6 0 10-4.5t4-10.5q0-6-4-10t-10-4H260v-30h480v30H534q-6 0-10 4t-4 10q0 6 4 10.5t10 4.5h270v470H620V795q0-76-57-130-23-22-54-38l-3-1q-6-2-12 0l-3 1q-31 16-54 38-28 27-42.5 60T380 795v173H196V498zm395 470H409V795q0-62 48-108 18-17 43-31 31 16 53 42 38 42 38 97v173zm243-763q0-23 17-40t40-17q23 0 40.5 17t17.5 40v19H834v-19zm-22 78v-30h159v30H812z"/></svg>