<svg viewBox="0 0 1244 1083.753" xmlns="http://www.w3.org/2000/svg"><path d="M416 420q-7 0-11.5 4.5T400 436q0 7 4.5 11.5T416 452q7 0 12-4.5t5-11.5q0-7-5-11.5t-12-4.5zm45-35q0-6-4-10t-10-4h-69q-6 0-10 4t-4 10q0 6 4 10.5t10 4.5h69q6 0 10-4t4-11zm123 35q-7 0-12 4.5t-5 11.5q0 7 5 11.5t12 4.5q7 0 11.5-4.5T600 436q0-7-4.5-11.5T584 420zm-31-20h69q6 0 10-4t4-11q0-7-4-10.5t-10-3.5h-69q-6 0-10 4t-4 10q0 6 4 10.5t10 4.5zM450 543q-2 6 1 11.5t9 6.5l6 2q13 4 31.5 4t33.5-4l6-2q5-2 8-7t2-11q-1-6-6.5-9t-11.5-1l-6 1q-24 8-50 0l-5-1q-6-2-11.5 1t-6.5 9zm449 395l-8-43q-7-42-32-76t-62-54l9-13q23-31 20.5-70T798 615q-21-24-21-54v-91q24-19 24-50 0-15-6.5-28.5T777 369V247q0-44-15.5-85.5T717 86q-4-5-10-5t-10.5 4q-4.5 4-5 9.5T695 105q26 30 39.5 66.5T748 247v43h-92q-23 0-43-11.5T582 248q-4-7-11-11.5t-15-4.5q-8 0-15 4.5T530 248q-11 19-30.5 30.5T457 290H249v-43q0-59 29-108.5t79-79Q407 30 466 30h65q67 0 121 37 5 4 11 2.5t9.5-6.5q3.5-5 2.5-10.5t-6-9.5Q605 1 531 1h-65q-67 0-123.5 33t-90 89.5Q219 180 219 247v125q-20 20-20 47.5t20 47.5v94q0 31-21.5 54.5T171 671q-5 32 8 62 5 8 14 8 4 0 6-1 5-2 7-8t0-11q-10-22-6-45.5t20-40.5q29-32 29-74v-77q10 2 17 2h13q3 43 25.5 80.5T365 627l13 8q3 2 11 6v42q0 4-2.5 8t-6.5 6l-154 58q-30 11-54.5 32T131 835q-16 27-22 60l-8 43q-5 24 11.5 43.5T154 1001h692q25 0 42-19 16-20 11-44zM777 635q19 20 20.5 49T782 735l-13 18-149-56q-4-2-6.5-6t-2.5-8v-42q8-4 11-6l13-8q38-23 60.5-60.5T721 486h14q5 0 13-2v77q0 43 29 74zm-5-215q0 15-11 26t-26 11h-13v-23h10q6 0 10.5-4t4.5-10q0-6-4.5-10.5T732 405h-10v-22h13q15 0 26 10.5t11 26.5zm-37-67h-13v-34h26v36q-8-2-13-2zm-486-34h29v34h-12q-7 0-17 2v-36zm-20 101q0-16 10.5-26.5T266 383h12v22h-10q-6 0-10.5 4t-4.5 10.5q0 6.5 4.5 10.5t10.5 4h10v23h-12q-16 0-26.5-11T229 420zm78 51V319h150q30 0 56.5-15.5T556 262h1q15 26 41.5 41.5T656 319h37v152q0 40-19.5 75T619 602l-12 8q-49 30-106.5 30T393 610l-12-8q-35-21-54.5-56T307 471zm83 253q13-5 20.5-16t7.5-25v-28q40 14 82 14t82-14v28q0 14 7.5 25.5T610 725l59 22-105 71q-29 20-64 20t-64-20l-105-71 59-23zm-93 35l123 84q23 14 40 19l-30 19q-12 8-26.5 6.5T379 876L277 767l20-8zm568 204q-7 9-19 9H745l-11-49q-2-6-7-9t-10.5-2q-5.5 1-9 6t-2.5 11l10 43H285l10-43q1-6-2-11t-9-6q-6-1-11 2t-7 9l-11 49H154q-11 0-18.5-8.5T130 943l8-43q5-26 18-50 28-48 80-68l11-4 111 118q9 10 22.5 15.5T408 917q23 0 39-11l53-36 54 36q15 11 38 11 14 0 27.5-5.5T642 896l28-29q4-5 3.5-11t-4.5-10.5q-4-4.5-10-4.5t-10 5l-28 30q-10 10-24.5 11.5T570 881l-30-19q17-5 40-19l123-84 20 8-36 39q-4 4-4 10t5 10.5q5 4.5 10 4.5t10-5l45-48 11 4q38 15 64.5 46.5T862 900l8 43q3 10-5 20z"/></svg>