<svg viewBox="0 0 1244 1083.753" xmlns="http://www.w3.org/2000/svg"><path d="M863 388l-88-100q-7-9-18.5-9t-19.5 9l-88 100q-10 13-4 27 8 15 24 15h27v99q0 6 4.5 10.5T711 544q6 0 10.5-4.5T726 529V426q0-10-7.5-17.5T700 401h-23l79-91 79 91h-23q-11 0-18.5 7.5T786 426v103q0 6 4.5 10.5T801 544q6 0 10.5-4.5T816 529v-99h28q15 0 23-15 6-14-4-27zM743 629q0-26-18-44t-44-18h-17q-6 0-10.5 4t-4.5 10q0 6 4.5 10.5T664 596h17q14 0 23.5 9.5t9.5 23q0 13.5-9.5 23.5T681 662q-6 0-10.5 4.5T666 677q0 6 4.5 10.5T681 692q14 0 23.5 9.5t9.5 23q0 13.5-9.5 23.5T681 758q-6 0-10.5 4.5T666 773q0 6 4.5 10t10.5 4q14 0 23.5 10t9.5 23.5q0 13.5-9.5 23.5T681 854q-6 0-10.5 4t-4.5 10.5q0 6.5 4.5 10.5t10.5 4q14 0 23.5 9.5T714 916q0 14-10 24t-23 10H453q-62 0-115-34l-2-1q-4-3-8-3h-42v-54q0-6-4.5-10.5T271 843q-6 0-10 4.5t-4 10.5v48q0 16-11.5 27.5T218 945h-94q-6 0-10.5 4t-4.5 10.5q0 6.5 4.5 10.5t10.5 4h94q18 0 33.5-8.5T276 942h47q60 37 130 37h228q26 0 44-18.5t18-44.5q0-14-6-26t-16-21q22-20 22-48.5T721 773q22-20 22-48 0-14-6-27t-16-21q22-20 22-48zM157 249h107v65q0 7 4.5 11t10.5 4q6 0 10.5-4t4.5-11v-80q0-6-4.5-10t-10.5-4H168L373 33q4-3 8-3t7 3l205 187H482q-6 0-10 4t-4 10v86q0 6 4 10t10 4q6 0 10.5-4t4.5-10v-71h108q8 0 14-4.5t9-11.5q6-15-7-27L408 11Q396 0 380.5 0T354 11L140 206q-6 5-7.5 12.5t1 14.5q2.5 7 9 11.5T157 249zm122 113q-6 0-10.5 4.5T264 377v101q0 6 4.5 10t10.5 4q6 0 10.5-4t4.5-10V377q0-6-4.5-10.5T279 362zM124 583h94q16 0 27.5 11.5T257 622v173q0 7 4 11t10 4q6 0 10.5-4t4.5-11V616h38q6 0 10-4l122-105q26-23 35-55l14-49q3-11 14.5-11t15.5 9l1 4q15 36 15 75 0 24-6 50l-10 38q-3 10 4 19t18 9h45q6 0 10-4.5t4-10.5q0-6-4-10t-10-4h-37l8-30q7-27 7-57 0-48-17-86l-1-4q-5-13-16.5-20.5t-26-7.5q-14.5 0-26 9.5T477 395l-14 49q-6 24-26 41L319 587h-43q-9-15-24.5-24t-33.5-9h-94q-6 0-10.5 4t-4.5 10q0 6 4.5 10.5T124 583z"/></svg>