<svg viewBox="0 0 1244 1083.753" xmlns="http://www.w3.org/2000/svg"><path d="M697 605q2-5 0-11t-7-8.5q-5-2.5-11-.5t-8 7q-11 23-27 43l-43 53q-3 3-3 9v271q0 6 4.5 10.5T613 983q6 0 10.5-4.5T628 968V702l39-49q21-28 30-48zm-89-117q0-6-4.5-10t-10.5-4h-39q-13 0-22.5-9.5T522 441q0-14 9.5-23t22.5-9h94q19 0 32.5 13.5T694 455v36q0 26-5 46-1 6 2.5 10.5t9.5 6.5h3q5 0 9-3t5-8q5-23 5-52v-36q0-22-11.5-40.5T680 387v-50q0-24-17-40.5T623.5 280q-22.5 0-38.5 14-8-12-20.5-19t-27-7q-14.5 0-27.5 7.5T489 295q-16-13-37-13-13 0-25 6t-20 16q-18-16-41-16t-40 17q-17 17-17 40v35q0 24 17 40.5t40 16.5q23 0 40-15 18 23 46 23 25 0 42-19-2 10-2 15 0 20 12 36.5t31 22.5q-20 17-31.5 42T492 594v10q0 6 4.5 10.5T507 619q6 0 10.5-4.5T522 604v-10q0-26 12-47.5t34-34.5l14-9h11q6 0 10.5-4.5T608 488zm15-179q11 0 19.5 8.5T651 337v42h-56v-42q0-11 8-19.5t20-8.5zm-256 99q-12 0-20-8t-8-20v-35q0-11 8-19.5t20-8.5q12 0 20 8.5t8 19.5v35q0 12-8.5 20t-19.5 8zm85 7q-11 0-19.5-8t-8.5-20v-48q0-11 8.5-19.5T452 311q11 0 19.5 8.5T480 339v48q0 12-8 20t-20 8zm57-16v-74q0-11 8.5-19.5T538 297q12 0 20 8.5t8 19.5v54h-12q-25 0-45 20zM367 638q-24-32-24-71V463q0-6-4-10t-10-4q-6 0-10.5 4t-4.5 10v104q0 50 29 88l9 12v130q0 6 4.5 10.5T367 812q6 0 10-4.5t4-10.5V662q0-3-2-9l-12-15zm0 207q-6 0-10.5 4.5T352 860v108q0 6 4.5 10.5T367 983q6 0 10-4.5t4-10.5V860q0-6-4-10.5t-10-4.5zM259 289q-27 29-47 67.5T184 437q-1 6 2.5 11t9.5 6h3q5 0 9-3.5t5-8.5q6-35 24-72 19-34 43-60 5-5 5-11t-4.5-10q-4.5-4-10.5-4t-11 4zm232-145l22-27 99 104q5 5 10 5t10.5-4.5Q638 217 638 211t-5-10L522 85q-5-5-11.5-4T500 86l-31 39q-4 5-3.5 11t5.5 10q5 4 10.5 3.5t9.5-5.5zm312 64l-50-52q-4-5-10-5t-10.5 4.5Q728 160 728 166t4 11l50 52q61 63 86.5 145T881 543q-1 6 2.5 10.5t9.5 5.5q1 1 2 1 5 0 9-4t6-9q14-93-14-182t-93-157zM97 543q-2-6-6.5-9.5T80 531q-6 1-9.5 5.5T68 547q10 67 41 125.5T189 777q4 4 10.5 4t10.5-4.5q4-4.5 4-10.5t-5-10q-92-86-112-213zM533 11Q523 1 508.5 1T484 13l-71 88-3-4q-6-11-19-13.5T368 91l-74 77q-4 5-3.5 11t5 10q4.5 4 10.5 3.5t10-4.5l70-74 11 21q5 7 12.5 8t12.5-6l85-106q1-1 2.5-1t1.5 1l228 238q52 53 73.5 122.5T823 534q-11 73-53 132.5T663 761q-5 2-7 8t1 11q5 8 13 8 3 0 7-2 71-38 116.5-103T852 538q13-80-11-155.5T761 249L533 11zM314 761q-64-35-106-94.5T155 534q-11-73 10.5-142.5T238 269l34-36q5-5 5-10.5t-4.5-10Q268 208 262 208t-11 5l-34 36q-56 58-80 133.5T126 538q13 80 58.5 145T300 786l2 1q4 1 5 1 10 0 13-8 3-5 1.5-11t-7.5-8z"/></svg>