<svg viewBox="0 0 1244 1083.753" xmlns="http://www.w3.org/2000/svg"><path d="M840 255h-47q-6 0-10.5 4.5T778 270q0 6 4.5 10t10.5 4h47q35 0 65.5 17.5t48 48Q971 380 971 415v185q0 35-17.5 65.5t-48 48Q875 731 840 731h-95v-74h80q29 0 50-21t21-51V430q0-29-21-50t-50-21h-80V71q0-26-19-45T680 7H368q-6 0-10.5 4.5T353 22q0 6 4.5 10t10.5 4h312q15 0 25 10.5T715 71v790q0 29-14 53t-38 38q-24 14-53 14H135q-29 0-53-14t-38.5-38.5Q29 889 29 861V441q0-6-4-10.5T15 426q-6 0-10.5 4.5T0 441v420q0 36 18 67t49 49q31 18 68 18h475q36 0 67-18t49.5-49q18.5-31 18.5-67V760h95q43 0 80-21.5t58.5-58Q1000 644 1000 600V415q0-43-21.5-80T920 276.5Q883 255 840 255zm-15 133q17 0 29.5 12.5T867 430v155q0 18-12.5 30.5T825 628h-80V388h80zm-810 0q6 0 10-4.5t4-10.5V71q0-14 10.5-24.5T65 36h227q6 0 10-4t4-10q0-6-4-10.5T292 7H65Q38 7 19 26T0 71v302q0 6 4.5 10.5T15 388zm448-225q-18-3-35 2t-31 16l-21 16q-3 3-7 0l-21-16q-14-11-31.5-16t-34.5-2q-38 6-58 37-19 26-15 58.5t29 53.5l104 92q12 12 30 12t31-12l104-92q24-21 28-53.5T521 200q-20-31-58-37zm25 128l-104 91q-5 4-11.5 4t-11.5-4l-104-91q-16-14-18.5-35.5T248 216q15-21 38-24l9-1q19 0 35 13l21 16q10 7 21.5 7t21.5-7l21-16q18-15 43-12t39 24q12 18 9.5 39.5T488 291zM386 498q-2-5-7-8t-10-3q-11 0-16 11l-53 139q-2 6 .5 11.5t8 7.5q5.5 2 11-1t7.5-8l7-18q4-7 9-7h52q6 0 9 7l7 18q1 4 5 7t9 3q2 0 6.5-2t6.5-7.5q2-5.5 0-10.5l-52-139zm-36 90l16-41q1-3 3.5-3t3.5 3l15 41q1 1 0 3t-3 2h-31q-2 0-3.5-1.5t-.5-3.5zm-209 50v3q0 5 4.5 9.5T156 655q28 0 39-1 30 0 49.5-23.5T264 571q0-36-19-59t-51-23h-39q-6 0-10 4t-4 10v135zm53-120q21 0 32 17 9 15 9 36.5T225 608q-11 17-30 17h-15q-4 0-7-2.5t-3-6.5v-88q0-5 3-7.5t7-2.5h14zm280 120v4q2 6 5 8 5 5 10 5 29 0 40-1 30 0 49-23.5t19-59.5q0-36-19-59t-50-23h-39q-7 0-11 5t-4 9v135zm53-120q21 0 32 17 9 15 9 36.5t-9 36.5q-11 17-31 17h-15q-4 0-6.5-2.5T504 616q0-66-1-88 0-4 3-7t7-3h14z"/></svg>