<svg viewBox="0 0 1244 1083.753" xmlns="http://www.w3.org/2000/svg"><path d="M840 145h-95V71q0-26-19-45T680 7h-82q-6 0-10.5 4.5T583 22q0 6 4.5 10t10.5 4h82q15 0 25 10.5T715 71v524q0 63-26.5 120T613 812q-8 7-11.5 17t-1.5 20q2 10 9.5 18t17.5 10l68 18q9 2 14.5 9.5T715 922v27q0 7-4.5 12t-11.5 5H46q-7 0-12-5t-5-12v-27q0-10 6-17.5t15-9.5l67-18q10-2 17.5-9.5t9.5-18q2-10.5-1-20.5t-11-17q-49-41-76-97.5T29 595V376q0-6-4-10.5T15 361q-6 0-10.5 4.5T0 376v219q0 70 29.5 132.5T113 835q3 3 3 8l-1 1q-2 4-5 5l-67 18q-19 5-31 20.5T0 922v27q0 19 13.5 32.5T46 995h653q19 0 32.5-13.5T745 949v-27q0-19-12-34.5T702 867l-67-18q-6-1-6-6v-1q0-4 3-7 43-36 71-84.5T740 647h100q43 0 80-21.5t58.5-58.5q21.5-37 21.5-81V306q0-44-21.5-81T920 166.5Q883 145 840 145zm131 341q0 36-17.5 66t-48 47.5Q875 617 840 617h-96l1-22V278h80q17 0 29.5 12.5T867 320v152q0 17-12.5 29.5T825 514h-40q-6 0-10.5 4t-4.5 10q0 6 4.5 10.5T785 543h40q29 0 50-21t21-50V320q0-29-21-50t-50-21h-80v-74h95q35 0 65.5 17.5t48 47.5q17.5 30 17.5 66v180zM15 323q6 0 10-4t4-11V71q0-14 10.5-24.5T65 36h465q6 0 10.5-4t4.5-10q0-6-4.5-10.5T530 7H65Q38 7 19 26T0 71v237q0 7 4.5 11t10.5 4zm506-124q-10-15-25-24.5t-33-12q-18-2.5-35.5 2T397 180l-21 17q-3 2-7 0l-21-17q-14-11-31.5-15.5t-35-2q-17.5 2.5-32.5 12T224 199q-19 27-15 59t29 54l104 92q13 11 30 11t31-11l104-92q24-22 28-54t-14-59zm-33 91l-104 92q-5 4-11.5 4t-11.5-4l-104-92q-16-14-18.5-35.5T248 216q15-21 38-24 3-1 9-1 20 0 35 12l21 17q10 7 21.5 7t21.5-7l21-17q19-16 44-11 24 3 38 24 12 17 9.5 38.5T488 290zM231 488q-6-1-11 2.5t-7 9.5l-18 66q-1 2-4 2t-4-2l-19-66q-2-6-7-9.5t-11-3q-6 .5-10 4.5t-6 10l-21 118q-2 6 1.5 11t9.5 6q6 1 11-2t7-9l9-53q1-3 4-3t4 3l16 54q1 5 6 8.5t10 3.5q12 0 17-12l15-54q1-3 4-3t4 3l10 53q1 6 6 9.5t11 2q6-1.5 9.5-6.5t2.5-11l-23-118q-2-6-6-10t-10-4zm299 12q-2-6-7-9.5t-11-3q-6 .5-10 4.5t-6 10l-21 118q-1 5 2 10.5t9 7q6 1.5 11-2t7-9.5l9-53q1-3 4-3t4 3l16 54q1 5 6 8.5t10 3.5q6 0 10.5-3.5t6.5-8.5l15-54q2-3 4.5-3t3.5 3l10 53q2 6 6.5 9t10.5 2q6-1 9.5-6t2.5-11l-23-118q-1-6-5.5-10t-10.5-4.5q-6-.5-10.5 3T576 500h-1l-18 66q-1 2-4 2t-4-2l-19-66zm-233 63q0 31 22 53.5t53 22.5q31 0 53.5-22.5T448 563q0-31-22-53t-53.5-22q-31.5 0-53.5 22t-22 53zm121 0q0 19-13 32.5T372.5 609q-19.5 0-33-13.5T326 563q0-19 13.5-32.5T372 517q19 0 32.5 13.5T418 563z"/></svg>