<svg viewBox="0 0 1244 1083.753" xmlns="http://www.w3.org/2000/svg"><path d="M748 631q-1-6-5.5-10.5t-10.5-4q-6 .5-10 5t-4 10.5l7 103q-39 12-84 20-70 13-141 13t-141-13q-45-8-84-20l7-103q0-6-4-10.5t-10-5q-6-.5-10.5 4T252 631l-11 189q-1 4 1.5 8t7.5 6q2 1 18 6l-7 106q-2 9 8 14 5 4 29 12 35 11 78 19 59 10 124 10t124-10q43-8 78-19 24-8 29-12 9-5 9-14l-8-106q17-5 18-6 5-2 7.5-6t1.5-8l-11-189zM500 798q117 0 227-33l2 45q-34 12-82 21-73 14-147 14t-147-14q-48-9-82-21l2-45q110 33 227 33zm210 140q-94 34-210 34t-210-34l7-89q95 26 203 26t203-26l7 89zM270 578q6 0 10.5-4t5.5-10l8-132q3-55 33-104l41-66q35-56 38-123h30v45q0 26 19 44.5t45 18.5h1q26 0 44.5-18.5T564 184v-45h30q3 67 38 123l41 66q30 49 33 104l8 132q1 6 5 10t10 4h1q6-1 10-5.5t3-10.5l-8-132q-3-64-37-118l-41-65q-34-54-34-118v-3q0-33-16-62t-44-46Q535 1 502 1h-4q-33 0-61 17t-44 46q-16 29-16 62v3q0 64-34 118l-41 65q-34 54-37 118l-8 132q-1 6 3 10.5t10 5.5zm265-394q0 14-10 24t-24 10h-1q-14 0-24.5-10T465 184v-60q0-14 10.5-24.5T500 89h1q14 0 24 10.5t10 24.5v60zM498 30h4q34 1 59.5 23.5T592 109h-30q-5-21-22-35t-39-14h-1q-23 0-40 14t-22 35h-30q5-33 30.5-55.5T498 30zm147 545q-6 1-10 5.5t-4 10.5l6 88q1 6 5 10t10 4h1q6 0 10-4.5t4-10.5l-6-89q-1-6-5.5-10t-10.5-4zm-290 0q-6 0-10.5 4t-5.5 10l-5 89q-1 6 3 10.5t10 4.5h1q6 0 10-4t5-10l6-88q0-6-4-10.5t-10-5.5z"/></svg>