<svg viewBox="0 0 1244 1083.753" xmlns="http://www.w3.org/2000/svg"><path d="M101 283q-48 56-76 128-49 127-2 247 46 115 228 151 110 22 246 12 20 1 29 14 7 10 18 44v1q9 33 18 54 14 33 36 61 3 6 11 6h194q6 0 10.5-4.5T818 986V482q0-6-4.5-10t-10.5-4q-47 0-80 4-58 7-101 25-31 13-50 29-24-22-58-37-49-21-109-21-45 0-79 13-23 9-47 27 4-26 5-39 7-65-1-125-1-13 6-23t19-15q41-12 57-96l24-119q4-18-7-33.5t-29-19Q335 35 320 44q-10-15-28-18-3-1-9-1-14 0-24 7-12-15-28-18-3-1-9-1-14 0-24 7-10-15-28.5-18.5t-34 7Q120 19 116 38l-18 94q-7 32-6 63 2 42 20 67 3 5 0 8l-11 13zm186 256q2-1 5-4 23-18 42-26 29-12 71-12 47 0 86 15 29 10 51 27 14 11 18.5 16.5T572 561q7 0 11-6l7-6q9-8 23-15 38-21 100-31v2q8 67 4 124v1q-3 55-18 97-9 28-24 54-3 5-2 10.5t5.5 9.5q4.5 4 11 2.5T700 797q26-43 38-102 17-87 4-195 10-1 32-2l15-1v475H617q-26-36-41-86h3q48-13 80-41 5-4 5-10t-4-10.5q-4-4.5-9.5-5T640 823q-28 22-63 33-6 2-9 2-10-32-22-46-18-19-49-20h-2q-49 4-99 3-78-2-142-15Q89 747 50 648q-40-103-2-214l34 7q6 2 11-1.5t6-9.5q1-6-2-11t-9-7l-29-6q22-49 59-97l136 30v9q6 47 2 102l-110-25q-6-1-11.5 2t-6.5 9q-1 6 2 11t9 7l115 25-5 37q-2 10 4 18t16 10q10 2 18-5zm12-261q-26 8-39 33l-122-28q5-8 5-18.5t-7-19.5q-15-21-15-64h1q15 7 29 4 8-1 16-6 10 15 33 19h1q3 11 10 19-8 12-11 24-2 6 1 11.5t8.5 7Q215 261 221 258t7-9q3-10 9-17l75 14q4 1 12 1-11 27-25 31zm22-60h-4l-75-15q-6-2-9.5-7t-2.5-12q1-7 6.5-11t12.5-2l75 14q7 1 10.5 7t2 12q-1.5 6-6 10t-9.5 4zm23-152q8 0 13 6t3 14l-15 77q-8-5-16-6l-16-3 15-75q1-5 5.5-9t10.5-4zm-61-12q8 0 13 6t3 14l-15 74-30-6h-2l15-75q1-5 5.5-9t10.5-4zm-61-12q8 0 13 6t3 14l-17 86q-12 8-17 20h-1q-6 0-10-4t-6-10v-5l19-94q1-5 5.5-9t10.5-4zm-77 1q1-5 5.5-9t11.5-4q7 0 12 6t3 14l-18 93q-2 7-7.5 10.5t-12 2q-6.5-1.5-10-6.5t-2.5-12l18-94zm0 0z"/></svg>