<svg viewBox="0 0 1244 1083.753" xmlns="http://www.w3.org/2000/svg"><path d="M413 456q-5 0-9-3.5t-4-9q0-5.5 5-10.5 31-22 50.5-65t19.5-88q0-45-22.5-83.5t-61-61Q353 113 308 113t-83.5 22.5q-38.5 22.5-61 61T141 281q0 43 18.5 85t47.5 64q4 3 5 8.5t-3 9.5q-4 4-8.5 4.5T192 450q-33-25-54.5-73T116 281q0-52 26-96.5t70-70.5q44-26 96-26t96 26q44 26 70 70t26 97q0 50-22.5 98.5T420 454q-4 2-7 2zm41 201q-3 0-4-1l-2-1q-4-1-6-1-18-8-39-6-9 0-13.5 1t-9-1.5Q376 645 375 640t2-9.5q3-4.5 8-5.5 10-2 16-2 27-2 49 7 2 0 7.5 2t7.5 6.5q2 4.5.5 9t-4.5 7q-3 2.5-7 2.5zM255 914q-56 0-94-90-29-68-45-179-11-80-11-134 0-72 40-128 2-4 7.5-5t9.5 2q4 3 5 8t-2 10q-35 50-35 113 0 70 14 155 17 95 43 153 30 70 68 70 96 0 196-30 98-29 184.5-82T779 656l-66-65q-76 73-127.5 82.5T450 656q-5-1-7.5-6t-.5-10l1-2q26-60 21-126-3-53-27-96-3-4-1.5-9.5t6.5-7.5q5-2 10-.5t7 5.5q27 53 30 106 5 66-18 126 53 18 110 13 24-4 56-26 23-16 47-38 19-18 19-20 4-4 9.5-4t8.5 3l84 82q3 3 3.5 7.5T806 662q-59 73-149 130.5T463 882q-106 32-208 32zm456-327h-1q-4 0-8-4t-4-8q2-25 8-41 13-37 10-78-1-15 8.5-25.5t23-11.5q13.5-1 23.5 6.5t13 20.5q9 41 8 78 0 5-4 8.5t-9 3.5q-5 0-8.5-3.5T767 524q0-41-8-73-1-4-4.5-6t-7.5 0q-2 0-4 2-4 4-2 7 3 48-11 89-5 13-7 32 0 5-3.5 8.5T711 587zm85 80q-5 0-8.5-3.5T784 655q0-8 5-11l7-4q4-3 11-9l5-4q22-24 43-54 17-26 14.5-57.5T847 461l-1-1q-14-15-33-12-15 3-33 16-4 3-9 2.5t-8-4.5q-3-4-2.5-9.5t4.5-8.5q29-21 55-21.5t45 20.5q0 1 1 2 26 29 29 68.5T876 586q-17 27-46 58-9 9-20 17l-7 4q-2 2-7 2z"/></svg>