<svg viewBox="0 0 1244 1083.753" xmlns="http://www.w3.org/2000/svg"><path d="M708 868q-42 0-85-19-25-11-48-27-120 45-225 26-80-14-145-64-41-30-66-65-20 3-34-8-8-7-13-17.5T87 672q2-142 74-341 25-71 81-122t130-71q6-2 10-2 16-3 31.5.5T441 150q44 32 61 83 2 13-19 39-15 19-41 42-20 17-29 24-12 10-29 3-12-5-25-18-11 8-22 12 20 96 7 189 60-38 118-27 42 9 78 42 25-29 57.5-49t70.5-28q44-10 88.5.5T836 502q43 35 62.5 86T910 693q-8 54-42 98-29 36-71 56t-89 21zm-132-72q4 0 8 2 29 20 50 28 44 20 91.5 15t87-32.5Q852 781 872 737q16-38 16-75 0-41-18-78t-49.5-62.5Q789 496 750.5 487t-77.5-1q-37 8-68.5 28.5T550 565q-3 5-9 5t-10-4q-36-38-79-45-56-9-118 39-4 4-9 3.5t-8-5.5q-3-5-3-10 23-110-5-221-2-7 2.5-11.5T323 311q17 0 27-15 6-4 11-4t8 5q8 9 17 16t12 6q24-19 50-46 28-28 29-37-16-41-49-65-19-14-40-11l-10 2q-67 18-118.5 65T185 339q-70 195-72 333 0 10 8 20 11 5 20 1 9-2 14 6 9 15 28 34 34 35 77 59 60 32 129 37 87 6 183-32 1-1 4-1zM314 574q-5 0-9-4t-4-9.5q0-5.5 5-9.5t13-10q4-4 9.5-3t8.5 5q3 4 2 9.5t-5 8.5l-12 9q-4 4-8 4zm262 46q-3 0-6.5-2t-4.5-5q-15-28-34-47-3-4-3-8.5t3.5-8.5q3.5-4 8.5-4t9 4h1q25 26 38 53 2 4 .5 9t-6 7q-4.5 2-6.5 2z"/></svg>