<svg viewBox="0 0 1244 1083.753" xmlns="http://www.w3.org/2000/svg"><path d="M369 367q4-1 5.5-4.5t0-7q-1.5-3.5-5-5t-7.5.5q-27 13-51 42-48 57-60 147 0 3 2 6t6 3h1q3 0 5.5-2t3.5-5q11-86 57-139 14-16 30-28l13-8zm318 366q-10-7-25-13-31-14-46-24-26-17-42-38l165-139q15-14 17-32 0-16-6-28 11-14 12-28 3-20-10-36l-17-20q-12-15-32-17t-36 11L525 491q0-22-3-47-7-67-31-94 29-7 51-20 26-16 43-39.5t24-52.5q9-37-1.5-74.5T570 99l-8-74q-1-10-9-17t-19-7h-3L346 23q-11 2-18 11t-6 20l9 82q-8 16-11 32-10 38 .5 75t37.5 64q-31 20-53 46-65 72-80 187-8 57-9 116-1 69 7 108v3q7 36 17 53 16 30 50 42-37 11-56 30-25 24-25 61v39q0 3 2 7 4 2 5 2h1l426-1q66 0 104-26 44-30 44-90 0-41-9-66t-32-45q-20-17-63-40zm51-248q0 13-11 21L541 664q-10 7-20 7-15 0-24-11L345 479q-8-10-7-23 0-6 6-16l82 102q4 4 6.5 4t5.5-2q3-2 3.5-6t-1.5-7l-83-103 12-9q8-8 21-8t22 11l110 131q2 3 6 3 2 0 6-2l137-115q7-7 20.5-7t22.5 11l17 20q8 10 7 22zm-60-102q9-8 23-8 11 1 21 11l17 20q8 9 6 23-1 8-6 16l-11-14q-15-17-37-17-18 0-31 11L530 535l-5-5 1-16 152-131zM348 41l185-23h1q4 0 7 2.5t3 6.5l9 68-205 32-3-24 68-9q3 0 5.5-3t1.5-6.5q-1-3.5-3.5-6T410 77l-67 9-4-34q-1-5 2-8t7-3zm-11 131q3-14 9-27l213-33q23 24 32 56.5t1 65.5q-6 26-21.5 47T533 315q-45 29-99 16-35-8-60-32.5t-35-58q-10-33.5-2-68.5zm7 680q-39 2-62-11-19-11-30-34-6-14-12-43v-3q-8-39-6-105 1-59 8-114 8-61 32-111 18-38 43-66 16-18 33-31 13-10 22-14 25 21 58 28 15 4 35 4h1q23 9 34 64 8 41 8 93l-83-98q-14-17-36-17-18 0-31 11l-21 17q-15 15-17 33.5t12 34.5l152 181q14 17 37 17 17 0 31-11l9-8q18 23 46 41 17 12 48 26l24 12q18 9 39 23h-27q-4 0-6.5 2.5T682 780q0 4 2.5 6.5t6.5 2.5h50q7 6 17 18h-79q-3 0-5.5 2.5T671 816q0 4 2.5 6t5.5 2h87q8 21 8 60 0 57-47 82-33 17-84 17l-417 1v-31h87q4 0 6.5-2.5t2.5-6.5q0-4-2.5-6.5T313 935h-85q4-17 18-31 18-17 51-26 24-7 49-8 140-8 188-1l10 1q4 0 6.5-2.5t2.5-6.5q0-4-2.5-6.5T544 852q-4 0-8-1-44-7-192 1zm116 83H359q-3 0-5.5 2.5T351 944q0 4 2.5 6.5t5.5 2.5h101q4 0 6.5-2.5t2.5-6.5q0-4-2.5-6.5T460 935z"/></svg>