<svg viewBox="0 0 1244 1083.753" xmlns="http://www.w3.org/2000/svg"><path d="M970 315l-18-6q-16-5-32.5 3T898 337l-28 93V147q0-17-12.5-30T827 104h-18q-14 0-27 9-3-15-15-25.5T739 77h-18q-18 0-31 13t-13 31v10q-13-9-26-9h-18q-18 0-31 13t-13 31v53q-13-9-26-9h-6q-18 0-30.5 13T514 254v307q-1 5 1 27 3 28 12 48 12 27 33 35v245q0 4 2.5 6.5t5.5 2.5q3 0 6-2.5t3-6.5v-24h56q4 0 6-2.5t2-6.5q0-4-2-6.5t-6-2.5h-56V664q0-3-2-5.5t-5-2.5q-22-5-33-41-7-26-6-54v-18h91q4 0 6.5-2.5t2.5-6.5q0-4-2.5-6.5T622 525h-91V254q0-11 7.5-18.5T557 228h6q11 0 18.5 7.5T589 254v108q0 4 2.5 6.5t6.5 2.5q4 0 6.5-2.5t2.5-6.5V166q0-11 7.5-18.5T633 140h18q11 0 18.5 7.5T677 166v181q0 4 2.5 6.5t6.5 2.5q4 0 6.5-2.5t2.5-6.5V121q0-11 7.5-18.5T721 95h18q11 0 18.5 7.5T765 121v224q0 4 2.5 6.5t6.5 2.5q4 0 6.5-2.5t2.5-6.5V147q0-11 7.5-18.5T809 121h18q11 0 18.5 7.5T853 147v344q0 3 2 5.5t5.5 3q3.5.5 6-1.5t3.5-5l44-150q3-10 12-15t21-2l18 6q10 3 15 13t1 20l-24 80-36 118q-9 29-22 48-23 34-57 38-3 0-5.5 2.5T834 657v46H709q-4 0-6.5 2.5T700 712q0 4 2.5 6.5t6.5 2.5h125v28h-20q-4 0-6.5 2.5T805 758q0 4 2.5 6.5t6.5 2.5h20v149q0 4 2.5 6.5t6.5 2.5q4 0 6.5-2.5t2.5-6.5V665q59-12 86-97 11-33 36-117l24-81q5-17-3-33.5T970 315zM835 615q0 3 2.5 5.5t5.5 2.5h1q37-5 53-55 1-3-.5-6.5t-5-4.5q-3.5-1-7 .5T880 563q-12 40-38 42-4 1-6 3.5t-1 6.5zM487 254q0-18-13-31t-31-13h-6q-13 0-26 9v-53q0-18-13-31t-31-13h-18q-13 0-26 9v-10q0-18-13-31t-31-13h-18q-16 0-28 10.5T218 113q-13-9-26-9h-19q-18 0-30.5 13T130 147v283l-28-93q-5-17-21-25t-33-3l-18 6q-17 5-25 21t-3 33l11 36q38 128 50 163 10 32 23 52 25 37 62 45v251q0 4 2.5 6.5t6.5 2.5q4 0 6.5-2.5t2.5-6.5V800h101q3 0 5.5-2.5t2.5-6.5q0-4-2.5-6.5T267 782H166v-31h25q3 0 5.5-2.5t2.5-6q0-3.5-2.5-6T191 734h-25v-77q0-3-2.5-5.5T158 649q-33-4-55-36-13-17-23-48l-1-2q-12-38-36-117.5T19 364q-4-10 1-19.5T35 332l18-6q12-3 21 2t12 15l44 150q1 3 3.5 5t6 1.5q3.5-.5 5.5-3t2-5.5v-77h72q4 0 6.5-2.5t2.5-6.5q0-4-2.5-6.5T219 396h-72V147q0-11 8-18.5t18-7.5h19q10 0 17.5 7.5T218 147v198q0 4 2 6.5t6 2.5q4 0 6.5-2.5t2.5-6.5V121q0-11 7.5-18.5T261 95h18q11 0 18.5 7.5T305 121v226q0 4 2.5 6.5t6.5 2.5q4 0 6.5-2.5t2.5-6.5V166q0-11 7.5-18.5T349 140h18q11 0 18.5 7.5T393 166v196q0 4 2.5 6.5t6.5 2.5q4 0 6.5-2.5t2.5-6.5V254q0-11 7.5-18.5T437 228h6q11 0 18.5 7.5T469 254v308q1 27-6 53-11 36-33 41-3 0-5 2.5t-2 5.5v35h-51q-4 0-6.5 2.5T363 708q0 4 2.5 6.5t6.5 2.5h51v199q0 4 2.5 6.5t6.5 2.5q4 0 6-2.5t2-6.5V671q30-11 41-59 6-24 6-51V254zM114 563q-1-4-4-5.5t-6.5 0q-3.5 1.5-5 4.5t-.5 6q18 57 58 61h1q3 0 5.5-2.5t3.5-5.5q0-8-8-10-28-3-43-47l-1-1zm45-409v158q0 3 2.5 5.5t6 2.5q3.5 0 6-2.5t2.5-5.5V154q0-4-2.5-6.5t-6-2.5q-3.5 0-6 2.5T159 154zm669 7q-4 0-6.5 2.5T819 169v112q0 4 2.5 6.5t6.5 2.5q4 0 6.5-2.5t2.5-6.5V169q0-3-2.5-5.5T828 161z"/></svg>