<svg viewBox="0 0 1244 1083.753" xmlns="http://www.w3.org/2000/svg"><path d="M452 71q4 0 6-2 23-25 59-25 3 0 5.5-2t2.5-6q0-4-2.5-6.5T517 27q-41 0-71 30-3 2-3 6t2 6q2 2 7 2zm39 296q-1-4-3.5-6t-5.5-2q-32 3-58 2-3 0-5.5 2.5T416 370q0 8 8 8 3 1 10 1 25 0 49-3 4 0 6-3t2-6zm-92-7q-53-3-112-17-3-1-6 .5t-4 5q-1 3.5 1 6.5t5 4q52 14 115 18 7 0 9-8 0-3-2.5-5.5T399 360zm469 624H600l-22-438 72-27q5-2 5-8v-36l64-54q10-8 12.5-21.5T728 374q10-10 10-23 2-17-9-29l-13-15q-11-13-27-14.5t-28 9.5h-1l-78 71-49-107q49-7 81.5-44.5T647 134q0-36-18-66.5T580.5 19Q550 1 514 1q-26 0-50.5 10T420 40l-1 1q-51 50-92 110-80 116-87 222l-22 611h-86q-3 0-5.5 2.5t-2.5 6q0 3.5 2.5 6t5.5 2.5h736q3 0 5.5-2.5t2.5-6q0-3.5-2.5-6T868 984zM555 536q-7 2-13.5 0t-11.5-7l-99-117h3q44 0 79-7l34 43 6 3q2 0 6-2l79-67v124l-83 30zm81-175l-58 50v-12l62-56-4 18zm-75 64l-6 5-23-28 29-9v32zm147-17l-53 45v-86l11-8q7-7 16-6t15 9l13 15q6 7 5.5 16.5T708 408zm-20-98q9 0 15 8l13 15q6 8 5 17 0 5-3 10l-8-9q-11-13-26.5-14.5T658 344l4-21 10-8q7-7 16-5zm-161-60q-21-63 8-113h95q-1 43-30.5 75.5T527 250zm103-130h-83q5-5 7-8 21-23 57-41 14 20 19 49zM513 262q7 17 30 66l21 46q-57 21-130 21-83 0-177-27 9-101 86-211 40-57 88-104l1-1q34-34 82-34 26 0 48.5 10.5T601 57q-34 16-59 43-27 29-37 64-13 47 8 98zM256 385q15 5 25 7v87q0 3 2.5 5.5t6.5 2.5q4 0 6-2.5t2-5.5v-83q56 13 111 16l108 128q12 14 31 14 4 0 12-2h1l22 432h-25l-9-265q0-3-2.5-5.5T540 711q-4 0-6 2.5t-2 6.5l9 264H323l6-155q0-3-2.5-5.5t-6-3q-3.5-.5-6 2T312 829l-6 155h-27l8-260q0-4-2.5-6.5t-6-2.5q-3.5 0-6 2t-2.5 6l-8 261h-27l21-599z"/></svg>