<svg viewBox="0 0 1244 1083.753" xmlns="http://www.w3.org/2000/svg"><path d="M756 578l-43-342q12-5 20-16t8-25q0-18-13-31t-31-13h-4q-20-66-72-107-26-21-57.5-32T500 1q-32 0-63.5 11T379 44q-50 40-72 107h-4q-18 0-31 13t-13 31q0 14 8 25t20 16l-43 342q-54 17-88 62.5T122 743v73q0 6 4.5 10.5T137 831q6 0 10.5-4.5T152 816v-73q0-49 30.5-88t78.5-51l27-7q7 34 25.5 64t44.5 53q30 25 66.5 38.5T500 766q39 0 75.5-13.5T642 714q26-23 44.5-53t25.5-64l27 7q49 12 79 50.5t30 88.5v73q0 6 4.5 10.5T863 831q6 0 10.5-4.5T878 816v-73q0-57-34-102.5T756 578zm-124-30v-21q0-6-4.5-10.5T617 512q-6 0-10.5 4.5T602 527v13l-14-3v-65q34-20 55-53v89q0 6 4.5 10.5T658 523q6 0 10.5-4.5T673 508V239h10l43 332-94-23zm-357 23l42-332h11v269q0 6 4 10.5t10 4.5q6 0 10.5-4.5T357 508v-89q21 33 55 53v65l-14 3v-13q0-6-4.5-10.5T383 512q-6 0-10.5 4.5T368 527v21l-93 23zm368-332v84q0 39-19 72t-52 52.5Q539 467 500 467t-72-19.5Q395 428 376 395t-19-72v-84h286zM431 563q5-2 8-6t3-9v-62q30 10 58 10t58-10v62q0 5 3.5 9t8.5 6l56 13q-10 44-45 73t-81 29q-46 0-81-29t-45-73l57-13zm69-533q54 0 98 33.5t64 87.5H338q20-54 64-87.5T500 30zM289 195q0-6 4-10.5t10-4.5h394q6 0 10 4.5t4 10.5q0 7-4 11t-10 4H303q-6 0-10-4t-4-11zm211 542q-67 0-118-41t-66-106l29-7q12 54 55.5 89t99.5 35q56 0 99.5-35t55.5-89l29 7q-15 65-66 106t-118 41zm363 134q-6 0-10.5 4t-4.5 10v87H742v-65q0-6-4.5-10t-10.5-4q-6 0-10.5 4t-4.5 10v65H288v-65q0-6-4.5-10t-10.5-4q-6 0-10 4t-4 10v65H152v-87q0-6-4.5-10t-10.5-4q-6 0-10.5 4t-4.5 10v101q0 6 4.5 10.5t10.5 4.5h726q6 0 10.5-4.5T878 986V885q0-6-4.5-10t-10.5-4z"/></svg>