<svg viewBox="0 0 1244 1083.753" xmlns="http://www.w3.org/2000/svg"><path d="M763 104L613 64V16q0-6-4-10.5T599 1H401q-6 0-10 4.5T387 16v48l-149 40q-37 10-60.5 40.5T154 213v180q0 6 4 10.5t10.5 4.5q6.5 0 10.5-4.5t4-10.5V213q0-28 17.5-51t44.5-30l155-42 85 42v94q0 7 4.5 11t10.5 4q6 0 10.5-4t4.5-11v-94l85-42 155 42q27 7 44.5 30t17.5 51v180q0 6 4 10.5t10.5 4.5q6.5 0 10.5-4.5t4-10.5V213q0-38-23-68.5T763 104zM416 30h69v70l-69-34V30zm168 36l-69 34V30h69v36zm248 381q-7 0-11 4t-4 10v126h-74V270q0-6-4-10.5t-10-4.5q-6 0-10.5 4.5T714 270v702H286V270q0-6-4-10.5t-10-4.5q-6 0-10.5 4.5T257 270v317h-74V461q0-6-4-10t-10-4q-6 0-10.5 4t-4.5 10v210q0 6 4.5 10t10.5 4h88v301q0 6 4 10.5t11 4.5h457q6 0 10-4.5t4-10.5V685h89q6 0 10-4t4-10V461q0-6-4-10t-10-4zM183 656v-39h74v39h-74zm560 0v-39h74v39h-74zm-81 75q6 0 10.5-4.5T677 716q0-6-4.5-10.5T662 701h-79q-6 0-10 4.5t-4 10.5q0 6 4 10.5t10 4.5h79zm-246 0q7 0 11-4.5t4-10.5q0-6-4-10.5t-11-4.5h-78q-7 0-11 4.5t-4 10.5q0 6 4 10.5t11 4.5h78z"/></svg>