<svg viewBox="0 0 1244 1083.753" xmlns="http://www.w3.org/2000/svg"><path d="M330 171h4q5 0 8-5 21-46 64-73.5T500 65q4 0 6.5-2.5T509 56q0-4-2.5-6.5T500 47q-56 0-103.5 30.5T326 159q-2 3-1 6.5t5 5.5zm600 468q-33-25-101.5-37T633 588q-4 0-8 4l-2 3v-70l1-1q8-6 12-11 57-58 79-169 11-56 11-109 0-61-30.5-113T613 39.5Q561 9 500 9T387.5 39.5q-51.5 30.5-82 82T275 234q-2 20 0 55 4 59 18 109 21 69 60 111l24 21v65l-2-3q-4-4-8-4-127 2-195.5 14T70 639q-33 25-48 51-22 39-22 99v195q0 4 2.5 6.5T9 993q4 0 6.5-2.5T18 984v-73h129q4 0 6.5-2.5t2.5-6.5q0-4-2.5-6.5T147 893H18v-31h51q4 0 6.5-2.5T78 853q0-4-2.5-6.5T69 844H18v-55q0-26 5-49h30q4 0 6.5-2.5T62 731q0-4-2.5-6.5T53 722H28q7-23 23-41 11-13 30-28 30-23 96-34t186-13q19 27 43 46 41 35 85 38v119q0 4 2.5 6.5t6.5 2.5q4 0 6.5-2.5t2.5-6.5V690q44-3 86-38 26-21 42-46 120 2 186 13t96 34q28 21 41 43 19 30 22 77h-66q-3 0-5.5 2.5T908 782q0 4 2.5 6.5t5.5 2.5h66v27H836q-4 0-6.5 2.5T827 827q0 4 2.5 6.5t6.5 2.5h146v28h-40q-4 0-6.5 2.5t-2.5 6q0 3.5 2.5 6t6.5 2.5h40v103q0 4 2.5 6.5t6.5 2.5q4 0 6.5-2.5t2.5-6.5V789q0-60-22-99-15-26-48-51zM500 27q53 0 98.5 25t74.5 68q29 43 34 95-29-35-77-57-57-25-130-25t-129 25q-49 21-77 56 5-52 34-94.5T402 52q45-25 98-25zM367 496q-38-39-57-107-14-48-17-106h50q4 0 6.5-2.5t2.5-6.5q0-4-2.5-6.5T343 265h-51v-16q19-40 68-66 58-32 140-32t140 32q49 26 68 66-3 54-12 95h-50q-4 0-6.5 2.5T637 353q0 4 2.5 6.5t6.5 2.5h46q-23 93-69 139-50 50-123 50-83 0-133-55zm133 176q-32 0-62-19-23-13-43-36v-75q48 27 106 27t104-31v79q-20 23-43 36-30 19-62 19z"/></svg>