<svg viewBox="0 0 1244 1083.753" xmlns="http://www.w3.org/2000/svg"><path d="M1000 698l-44-252q-1-6-6-9.5t-11-2.5q-6 1-9.5 6t-2.5 11l16 94q-44 22-127 42-72 17-154 26t-162 9q-167 0-315-35-80-19-128-43l16-93q1-6-2.5-11t-9.5-6q-6-1-10.5 2.5T44 446L26 549 0 698v2q0 25 46 49 37 18 107 36 75 19 164.5 28.5T500 823q93 0 183-9.5T847 785q70-18 107-36 46-24 46-49v-2zm-822-83q74 18 157.5 27.5T500 652q169 0 323-37 75-18 126-40l8 50q-40 17-97 32-80 21-174 32.5T500 701q-111 0-218-16-79-11-141-27.5T43 624l9-50q53 24 126 41zm657 143q-73 17-159.5 26.5T500 794q-89 0-175.5-9.5T165 758q-68-17-107-36-25-13-29-21l9-47q42 18 95 31 68 18 144 29 111 17 223 17 93 0 189-12t179-34q55-14 95-30l8 46q-4 8-29 21-39 19-107 36zM68 395h2q5 0 9.5-3.5T85 383l9-53q34 26 118 46 61 14 136.5 21.5T500 405q76 0 151.5-7.5T788 376q86-20 118-46l9 53q2 5 6 8.5t9 3.5h2q6-2 9.5-6.5T944 378l-15-88q-9-52-141-82-60-14-135-21.5T500 179q-78 0-153 7.5T212 208q-66 15-103 37-33 21-38 45l-15 88q-1 6 2.5 10.5T68 395zm151-159q58-13 132-20.5t149-7.5q75 0 149 7.5T782 236q62 15 94 32 24 14 24 24t-24 23q-32 18-93 32t-135 21.5q-74 7.5-148 7.5t-148-7.5Q278 361 219 347q-63-14-95-32-24-13-24-23t24-24q32-17 95-32zm-29 81q15 5 50 12l12 3q115 22 248 22t248-22l12-3q35-7 50-12 8-2 13.5-9t5.5-16q0-9-5.5-16T810 266q-31-9-62-14-115-22-248-22t-248 22q-31 5-62 14-8 3-13.5 10t-5.5 16q0 9 5.5 16t13.5 9zm67-36q113-22 243-22t243 22q21 3 49 11-28 8-49 11-113 22-243 22t-243-22q-21-3-49-11 28-8 49-11z"/></svg>