<svg viewBox="0 0 1244 1083.753" xmlns="http://www.w3.org/2000/svg"><path d="M268 427h1q7 0 9-8 4-39 16-68 9-24 22-41 9-12 20-20 7-5 9-5 4-1 5.5-4.5t0-7q-1.5-3.5-4.5-5t-7 .5q-19 8-36 30-33 42-42 118-1 4 1.5 6.5t5.5 3.5zm637 557H532l-28-448 34-13q15-5 21.5-19.5T561 475l-7-19q-6-16-22-22-2-15-11.5-24.5T497 399q-15-86-49-123 31-8 52-27.5t30-47.5q9-28 4-57l25-48q4-8 1-17t-11-13L424 3q-6-2-11-2t-10.5 3.5Q397 8 394 13l-27 55q-8 4-21 15-32 30-35 73.5t23 78.5q-31 14-56 48-44 60-50 163-5 82-15 294-9 184-11 244H96q-4 0-6.5 2.5t-2.5 6q0 3.5 2.5 6t6.5 2.5h809q3 0 5.5-2.5t2.5-6q0-3.5-2.5-6T905 984zM538 462l6 19q3 8-.5 15.5T532 507l-115 42q-2 1-7 1-7 0-12.5-3.5T390 537v-1l-68-177q-3-9 1-16 1-4 6-7l29 90q1 2 3.5 4t4.5 2q2 0 3-1 4-1 5.5-4t.5-7l-31-91 9-3q2-1 7-1 14 0 19 14l52 131q2 3 5 4.5t6 .5l69-25q4-2 7-2 7 0 12.5 4t7.5 10zm-30-40q5 4 6 9l-9 2-4 2q0-4-2-15v-3q5 1 9 5zM417 19l124 62q1 1 2 3t0 4l-22 44-136-62 6-12 44 21h4q6 0 7.5-4t.5-7q-1-3-5-5l-43-21 11-21q2-4 7-2zm-59 77q8-8 16-12l143 65q4 24-3.5 46.5T488 235q-28 27-68 26t-66.5-30q-26.5-29-25-68.5T358 96zM245 447q6-104 53-162 19-22 47-36l2-1q15 15 35 22.5t41 7.5h2q30 22 46 84 10 38 13 79l-40 15-48-123q-5-11-14.5-18t-21.5-7q-9 0-13 2l-18 6q-16 6-22.5 20.5T306 365l68 178q5 11 14.5 18t21.5 7q7 0 13-3l64-23 25 400H398q-4 0-6.5 2.5T389 951q0 4 2.5 6.5t6.5 2.5h115l2 24H318l1-128q0-3-2-5.5t-6-2.5q-4 0-6.5 2t-2.5 6l-2 128h-32l8-236q0-4-2.5-6.5T268 739h-1q-3 0-5.5 2.5T259 747l-8 237h-32l6-123q15-329 20-414z"/></svg>