<svg viewBox="0 0 1244 1083.753" xmlns="http://www.w3.org/2000/svg"><path d="M966 463q-2 0-4 1.5t-2 3.5q0 2 2 4t4 2q6 0 6-5.5t-6-5.5zm-20 210q-2 0-3.5 2t-1.5 4q0 2 1.5 4t3.5 2q6 0 6-6t-6-6zm0 115q-2 0-3.5 2t-1.5 4q0 2 1.5 4t3.5 2q2 0 4-2t2-4q0-6-6-6zm0 38q-2 0-3.5 2t-1.5 4q0 2 1.5 4t3.5 2q2 0 4-2t2-4q0-6-6-6zm0 38q-2 0-3.5 2t-1.5 4q0 2 1.5 4t3.5 2q6 0 6-6t-6-6zm-38-458q-2 0-4 2t-2 4q0 2 2 4t4 2q2 0 4-2t2-4q0-6-6-6zm0 38q-2 0-4 2t-2 4q0 2 2 4t4 2q2 0 4-2t2-4q0-6-6-6zm20 19q-2 0-4 1.5t-2 3.5q0 2 2 4t4 2q6 0 6-5.5t-6-5.5zm-20 19q-2 0-4 2t-2 4q0 2 2 4t4 2q6 0 6-6t-6-6zm0 39q-2 0-4 1.5t-2 3.5q0 2 2 4t4 2q6 0 6-5.5t-6-5.5zm0 38q-6 0-6 6t6 6q2 0 4-2t2-4q0-6-6-6zm0 38q-2 0-4 2t-2 4q0 2 2 4t4 2q2 0 4-2t2-4q0-6-6-6zm0 38q-2 0-4 2t-2 4q0 2 2 4t4 2q2 0 4-2t2-4q0-6-6-6zm0 38q-2 0-4 2t-2 4q0 2 2 4t4 2q6 0 6-6t-6-6zm0 39q-2 0-4 1.5t-2 3.5q0 2 2 4t4 2q6 0 6-5.5t-6-5.5zm0 76q-2 0-4 2t-2 4q0 2 2 4t4 2q2 0 4-2t2-4q0-6-6-6zm0 38q-2 0-4 2t-2 4q0 2 2 4t4 2q2 0 4-2t2-4q0-6-6-6zm0 38q-2 0-4 2t-2 4q0 2 2 4t4 2q6 0 6-6t-6-6zm-18-478q-2 0-4 2t-2 4q0 2 2 4t4 2q2 0 4-2t2-4q0-2-2-4t-4-2zm0 77q-2 0-4 1.5t-2 3.5q0 2 2 4t4 2q6 0 6-6 0-2-2-3.5t-4-1.5zm-20 363q-2 0-4 2t-2 4q0 2 2 4t4 2q2 0 4-2t2-4q0-2-2-4t-4-2zm0 38q-2 0-4 2t-2 4q0 2 2 4t4 2q6 0 6-6t-6-6zm-38-38q-2 0-4 2t-2 4q0 2 2 4t4 2q2 0 4-2t2-4q0-2-2-4t-4-2zm0 38q-2 0-4 2t-2 4q0 2 2 4t4 2q6 0 6-6t-6-6zm-38-38q-6 0-6 6t6 6q6 0 6-6 0-2-2-4t-4-2zm0 38q-6 0-6 6t6 6q6 0 6-6t-6-6zm-39-38q-2 0-3.5 2t-1.5 4q0 2 1.5 4t3.5 2q2 0 4-2t2-4q0-6-6-6zm0 38q-2 0-3.5 2t-1.5 4q0 2 1.5 4t3.5 2q6 0 6-6t-6-6zm-38-38q-2 0-4 2t-2 4q0 2 2 4t4 2q2 0 4-2t2-4q0-6-6-6zm20 18q-2 0-4 2t-2 4q0 2 2 4t4 2q6 0 6-6t-6-6zm-20 20q-2 0-4 2t-2 4q0 2 2 4t4 2q6 0 6-6t-6-6zm20 19q-6 0-6 6t6 6q2 0 4-2t2-4q0-2-2-4t-4-2zm-58-57q-2 0-4 2t-2 4q0 2 2 4t4 2q2 0 4-2t2-4q0-2-2-4t-4-2zm20 18q-2 0-4 2t-2 4q0 2 2 4t4 2q6 0 6-6t-6-6zm-20 20q-2 0-4 2t-2 4q0 2 2 4t4 2q6 0 6-6t-6-6zm20 19q-6 0-6 6t6 6q2 0 4-2t2-4q0-2-2-4t-4-2zm-58-57q-2 0-4 2t-2 4q0 2 2 4t4 2q2 0 4-2t2-4q0-2-2-4t-4-2zm20 18q-6 0-6 6t6 6q6 0 6-6t-6-6zm-20 20q-2 0-4 2t-2 4q0 2 2 4t4 2q6 0 6-6t-6-6zm20 19q-6 0-6 6t6 6q6 0 6-6 0-2-2-4t-4-2zm-58-57q-6 0-6 6t6 6q6 0 6-6 0-2-2-4t-4-2zm0 38q-6 0-6 6t6 6q6 0 6-6t-6-6zm-38-38q-6 0-6 6t5.5 6q5.5 0 5.5-6 0-2-1.5-4t-3.5-2zm19 18q-2 0-4 2t-2 4q0 2 2 4t4 2q6 0 6-6t-6-6zm-19 20q-6 0-6 6t5.5 6q5.5 0 5.5-6 0-2-1.5-4t-3.5-2zm19 19q-6 0-6 6t6 6q2 0 4-2t2-4q0-6-6-6zm-58-57q-2 0-4 2t-2 4q0 2 2 4t4 2q2 0 4-2t2-4q0-6-6-6zm20 18q-2 0-4 2t-2 4q0 2 2 4t4 2q6 0 6-6t-6-6zm-20 20q-2 0-4 2t-2 4q0 2 2 4t4 2q6 0 6-6t-6-6zm20 19q-6 0-6 6t6 6q2 0 4-2t2-4q0-6-6-6zm-58-57q-2 0-4 2t-2 4q0 2 2 4t4 2q2 0 4-2t2-4q0-2-2-4t-4-2zm20 18q-2 0-4 2t-2 4q0 2 2 4t4 2q6 0 6-6t-6-6zm-20 20q-2 0-4 2t-2 4q0 2 2 4t4 2q6 0 6-6t-6-6zm20 19q-6 0-6 6t6 6q2 0 4-2t2-4q0-2-2-4t-4-2zm-58-57q-2 0-4 2t-2 4q0 2 2 4t4 2q2 0 4-2t2-4q0-2-2-4t-4-2zm0 38q-2 0-4 2t-2 4q0 2 2 4t4 2q6 0 6-6t-6-6zm-38-38q-6 0-6 6t6 6q6 0 6-6 0-2-2-4t-4-2zm0 38q-6 0-6 6t6 6q6 0 6-6 0-2-2-4t-4-2zm-38-38q-6 0-6 6t6 6q6 0 6-6 0-2-2-4t-4-2zm0 38q-6 0-6 6t6 6q6 0 6-6 0-2-2-4t-4-2zm-39-38q-2 0-4 2t-2 4q0 2 2 4t4 2q2 0 4-2t2-4q0-6-6-6zm0 38q-2 0-4 2t-2 4q0 2 2 4t4 2q6 0 6-6t-6-6zm-38-38q-2 0-4 2t-2 4q0 2 2 4t4 2q2 0 4-2t2-4q0-2-2-4t-4-2zm20 18q-2 0-4 2t-2 4q0 2 2 4t4 2q6 0 6-6t-6-6zm-20 20q-2 0-4 2t-2 4q0 2 2 4t4 2q6 0 6-6t-6-6zm20 19q-6 0-6 6t6 6q2 0 4-2t2-4q0-2-2-4t-4-2zm-58-57q-2 0-4 2t-2 4q0 2 2 4t4 2q2 0 4-2t2-4q0-2-2-4t-4-2zm20 18q-2 0-4 2t-2 4q0 2 2 4t4 2q6 0 6-6t-6-6zm-20 20q-2 0-4 2t-2 4q0 2 2 4t4 2q6 0 6-6t-6-6zm20 19q-6 0-6 6t6 6q2 0 4-2t2-4q0-2-2-4t-4-2zm-58-57q-2 0-4 2t-2 4q0 2 2 4t4 2q2 0 4-2t2-4q0-2-2-4t-4-2zm20 18q-6 0-6 6t6 6q6 0 6-6t-6-6zm-20 20q-2 0-4 2t-2 4q0 2 2 4t4 2q6 0 6-6t-6-6zm20 19q-6 0-6 6t6 6q6 0 6-6 0-2-2-4t-4-2zM68 838q2 0 4-2t2-4q0-2-2-4t-4-2q-2 0-4 2t-2 4q0 2 2 4t4 2zm20 18q6 0 6-6t-6-6q-2 0-4 2t-2 4q0 2 2 4t4 2zm-20 20q6 0 6-6t-6-6q-2 0-4 2t-2 4q0 2 2 4t4 2zm20 19q2 0 4-2t2-4q0-2-2-4t-4-2q-6 0-6 6t6 6zm-58-57q2 0 4-2t2-4q0-2-2-4t-4-2q-2 0-4 2t-2 4q0 2 2 4t4 2zm20 18q6 0 6-6t-6-6q-2 0-4 2t-2 4q0 6 6 6zm-20 20q6 0 6-6t-6-6q-2 0-4 2t-2 4q0 2 2 4t4 2zm20 19q2 0 4-2t2-4q0-2-2-4t-4-2q-6 0-6 6t6 6zm646-286q-3-1-5.5 1t-3.5 5l-12 53q-1 3 1 6t4 3.5q2 .5 3 .5 6 0 8-7l11-53q1-3-1-5.5t-5-3.5zm303-226L869 117q-6-13-18-20.5T825 89q-14 0-26 7.5T781 117l-65 131-22-46q-12-25-38-25t-39 25L453 538l-33-58q-5-8-14-8t-14 8l-59 101q-6 12 0 24 6 9 17 11l-35 62q-4 7-4 14.5t4 13.5q4 6 10.5 10t13.5 4h25l-15 31h-60q0-8-5-16l-54-94q19 0 27-16.5t0-30.5l-84-146q-7-10-18-10t-18 10L53 594q-4 7-4 15.5t4 15.5q8 16 27 16l-54 94q-5 8-5 16H8q-3 0-5.5 2T0 759v149q0 9 6.5 15.5T22 930h956q9 0 15.5-6.5t6.5-15.5V386q0-2-1-3zm-15 23q-2 0-3.5 2t-1.5 4q0 2 1.5 4t3.5 2v26q-2 0-3.5 2t-1.5 4q0 2 1.5 4t3.5 2v26q-5 2-5 5t1.5 5q1.5 2 3.5 2v27q-5 0-5 5 0 2 1.5 4t3.5 2v27q-5 0-5 5t5 7v26q-2 0-3.5 2t-1.5 4q0 2 1.5 4t3.5 2v26q-2 0-3.5 2t-1.5 4q0 2 1.5 4t3.5 2v26q-2 0-3.5 2t-1.5 4q0 2 1.5 4t3.5 2v27q-5 0-5 5.5t5 5.5v28H488l205-419 36 36q5 4 9 6l-35 164q-1 3 1 5.5t5 3.5h2q7 0 8-6l35-167q7-2 11-6l51-51q3-3 7.5-3t7.5 3l96 96q7 7 18 7t18-7l21-22v15zM795 124q4-9 12-14t18-5q21 0 30 19l123 251-26 27q-3 3-7 3t-7-3l-96-96q-7-8-18-8t-19 8l-51 51q-3 3-7 3t-7-3l-40-40 95-193zm-164 85q4-8 10.5-12.5T655 192q7 0 14 4.5t11 12.5l28 57-37 75q-9 2-14 7l-51 52q-3 2-7.5 2t-6.5-2l-36-36 75-155zm-83 170l32 32q8 7 19 7t18-7l39-40-155 318-1-2q-1-6-3-9l-36-62q12-2 17-11 8-12 0-24l-15-27 85-175zM347 597q-3-3 0-8l58-101h2l58 101q2 3 0 7v2q-4 3-7 3H354q-3 0-7-3v-1zm-8 108q-3 0-6-2t-5-4q-3-7 0-13l40-69h76l40 69q3 6 0 13-6 6-11 6H339zm149 11l-17 35h-31v-31h33q8 0 15-4zm-117 25v10h-4l4-10zM80 625q-9 0-13.5-7.5T67 602l84-146q4-4 8 0l85 146q4 7-.5 15t-13.5 8H80zM16 908V767h7l3 6q4 8 13 13t19 5h50v36q0-1-2-1t-4 2q-2 2-2 4t2 4q2 2 4 2t2-1v28l-2-1q-2 0-4 2t-2 4q0 2 2 4t4 2h2v27h-2q-2 0-4 1.5t-2 3.5q0 2 1.5 4t3.5 2H69q2 0 3.5-2t1.5-4q0-2-2-3.5t-4-1.5q-2 0-4 1.5t-2 3.5q0 2 1.5 4t3.5 2H31q2 0 3.5-2t1.5-4q0-2-2-3.5t-4-1.5q-2 0-4 1.5t-2 3.5q0 2 1.5 4t3.5 2h-7q-2 0-4-2t-2-4zm91 6h1-1zM58 776q-13 0-19-11t0-22l59-102h114l59 102q6 11 0 22t-19 11H58zm890 138q2 0 3-2t1-4q0-5-5.5-5t-5.5 5q0 2 1.5 4t2.5 2h-36q2 0 3.5-2t1.5-4q0-5-6-5t-6 5q0 2 1.5 4t3.5 2h-36q2 0 3.5-2t1.5-4q0-2-2-3.5t-4-1.5q-2 0-4 1.5t-2 3.5q0 2 1.5 4t3.5 2h-36q2 0 3.5-2t1.5-4q0-2-2-3.5t-4-1.5q-2 0-4 1.5t-2 3.5q0 2 1.5 4t3.5 2h-36q2 0 3.5-2t1.5-4q0-2-2-3.5t-4-1.5q-2 0-4 1.5t-2 3.5q0 2 1.5 4t3.5 2h-36q2 0 3-2t1-4q0-5-5.5-5t-5.5 5q0 2 1.5 4t2.5 2h-36q2 0 3.5-2t1.5-4q0-5-6-5t-6 5q0 2 1.5 4t3.5 2h-36q2 0 3.5-2t1.5-4q0-2-2-3.5t-4-1.5q-2 0-4 1.5t-2 3.5q0 2 1.5 4t3.5 2h-36q2 0 3.5-2t1.5-4q0-2-2-3.5t-4-1.5q-2 0-4 1.5t-2 3.5q0 2 1.5 4t3.5 2h-36q2 0 3.5-2t1.5-4q0-2-2-3.5t-4-1.5q-2 0-4 1.5t-2 3.5q0 2 1.5 4t3.5 2h-36q2 0 3-2t1-4q0-5-5-5-2 0-4 1.5t-2 3.5q0 2 1.5 4t2.5 2h-36q2 0 3.5-2t1.5-4q0-5-6-5t-6 5q0 2 1.5 4t3.5 2h-36q2 0 3.5-2t1.5-4q0-2-2-3.5t-4-1.5q-2 0-4 1.5t-2 3.5q0 2 1.5 4t3.5 2h-36q2 0 3.5-2t1.5-4q0-2-2-3.5t-4-1.5q-2 0-4 1.5t-2 3.5q0 2 1.5 4t3.5 2h-36q2 0 3.5-2t1.5-4q0-2-2-3.5t-4-1.5q-2 0-4 1.5t-2 3.5q0 2 1.5 4t3.5 2h-36q2 0 3.5-2t1.5-4q0-2-2-3.5t-4-1.5q-2 0-4 1.5t-2 3.5q0 2 1.5 4t2.5 2h-35q2 0 3-2t1-4q0-5-6-5t-6 5q0 2 1.5 4t3.5 2h-36q2 0 3.5-2t1.5-4q0-2-2-3.5t-4-1.5q-2 0-4 1.5t-2 3.5q0 2 1.5 4t3.5 2h-36q2 0 3.5-2t1.5-4q0-2-2-3.5t-4-1.5q-2 0-4 1.5t-2 3.5q0 2 1.5 4t3.5 2h-36q2 0 3.5-2t1.5-4q0-2-2-3.5t-4-1.5q-2 0-4 1.5t-2 3.5q0 2 1.5 4t3.5 2h-18v-19q6 0 6-6t-6-6v-27q6 0 6-6t-6-6v1-54h50q10 0 18.5-5t13.5-13q1-1 2-4l1-2h84v41q0 4 2.5 6t5.5 2h54q7 0 7-8v-41h544v21q-2 0-3.5 2t-1.5 4q0 2 1.5 4t3.5 2v26q-2 0-3.5 2t-1.5 4q0 2 1.5 4t3.5 2v26q-5 2-5 5t1.5 5q1.5 2 3.5 2v27q-5 0-5 4t2 6q-1 1-3 1h-30zM253 268q41 0 69.5-29t28.5-69.5q0-40.5-28.5-69t-69-28.5Q213 72 184 100.5t-29 69q0 40.5 29 69.5t69 29zm0-180q34 0 58 24t24 58q0 34-24 58t-58 24q-34 0-58-24t-24-58q0-34 24-58t58-24z"/></svg>