<svg viewBox="0 0 1244 1083.753" xmlns="http://www.w3.org/2000/svg"><path d="M953 407h-62V282q0-20-13.5-33.5T844 235h-63V48q0-20-13.5-33.5T734 1H47Q28 1 14 14.5T0 48v844q0 30 14.5 55T54 986.5q25 14.5 55 14.5h766q34 0 62.5-17t45.5-45.5q17-28.5 17-62.5V454q0-20-13.5-33.5T953 407zM109 970q-32 0-55-23t-23-55V48q0-7 4.5-11.5T47 32h687q7 0 11.5 4.5T750 48v828q0 27 11 52t31 42H109zm860-94q0 39-27.5 66.5T875 970q-39 0-66.5-27.5T781 876V267h63q6 0 10.5 4.5T859 282v469q0 7 4.5 11.5T875 767q7 0 11.5-4.5T891 751V438h62q7 0 11.5 4.5T969 454v422zM141 235v-78l65 88q7 9 17.5 5t10.5-15V110q0-6-4.5-10.5T219 95q-6 0-11 4.5t-5 10.5v78l-65-87q-7-9-18-5.5T109 110v125q0 7 4.5 11.5T125 251q7 0 11.5-4.5T141 235zm140 16h63q6 0 10.5-4.5T359 235q0-7-4.5-11t-10.5-4h-47v-32h31q7 0 11.5-4.5T344 173q0-6-4.5-11t-11.5-5h-31v-31h47q6 0 10.5-4.5T359 110q0-7-4.5-11T344 95h-63q-6 0-10.5 4.5T266 110v125q0 7 4.5 11.5T281 251zm136-5l36-35 36 35q7 7 17 3.5t10-14.5V110q0-6-4.5-10.5T500 95q-7 0-11.5 4.5T484 110v88l-20-21q-4-5-10.5-5t-11.5 5l-20 21v-88q0-6-4.5-10.5T406 95q-7 0-11 4.5t-4 10.5v125q0 10 9.5 14.5T417 246zm177-120h62q7 0 11.5-4.5T672 110q0-7-4.5-11T656 95h-62q-19 0-33 13.5t-14 33q0 19.5 13.5 33T594 188h31q7 0 11.5 4.5T641 204q0 7-4.5 11.5T625 220h-62q-7 0-11.5 4.5T547 235q0 6 4.5 11t11.5 5h62q20 0 33.5-14t13.5-33.5q0-19.5-13.5-33T625 157h-31q-7 0-11.5-4.5T578 142q0-6 4.5-11t11.5-5zm62 156H141q-7 0-11.5 4.5T125 298q0 7 4.5 11t11.5 4h515q7 0 11.5-4.5T672 298q0-6-4.5-11t-11.5-5zm0 63H141q-7 0-11.5 4.5T125 360q0 6 4.5 11t11.5 5h515q7 0 11.5-4.5T672 360q0-7-4.5-11t-11.5-4zM156 704h219q7 0 11.5-4.5T391 688V438q0-6-4.5-10.5T375 423H156q-6 0-10.5 4.5T141 438v250q0 7 4.5 11.5T156 704zm78-156q0-13 9.5-22t22.5-9q13 0 22 9t9 22q0 13-9 22t-22 9q-13 0-22.5-9t-9.5-22zm32 62q30 0 54 17.5t34 45.5H177q10-28 34.5-45.5T266 610zm93-156v168q-18-22-46-33 17-20 15-44.5t-19-42Q292 485 266 485t-43.5 17.5q-17.5 17.5-19 42T218 589q-26 10-46 33V454h187zm297-31H438q-7 0-11.5 4.5T422 438q0 6 4.5 11t11.5 5h218q7 0 11.5-4.5T672 438q0-7-4.5-11t-11.5-4zm0 62H438q-7 0-11.5 4.5T422 501q0 7 4.5 11.5T438 517h218q7 0 11.5-4.5T672 501q0-7-4.5-11.5T656 485zm0 63H438q-7 0-11.5 4.5T422 563q0 6 4.5 11t11.5 5h218q7 0 11.5-4.5T672 563q0-7-4.5-11t-11.5-4zm0 62H438q-7 0-11.5 4.5T422 626q0 7 4.5 11.5T438 642h218q7 0 11.5-4.5T672 626q0-7-4.5-11.5T656 610zm0 63H438q-7 0-11.5 4.5T422 688q0 6 4.5 11t11.5 5h218q7 0 11.5-4.5T672 688q0-7-4.5-11t-11.5-4zm0 62H156q-6 0-10.5 4.5T141 751q0 7 4.5 11.5T156 767h500q7 0 11.5-4.5T672 751q0-7-4.5-11.5T656 735zm0 63H156q-6 0-10.5 4.5T141 813q0 6 4.5 11t10.5 5h500q7 0 11.5-4.5T672 813q0-7-4.5-11t-11.5-4zm0 62H156q-6 0-10.5 4.5T141 876q0 7 4.5 11.5T156 892h500q7 0 11.5-4.5T672 876q0-7-4.5-11.5T656 860z"/></svg>