<svg viewBox="0 0 1244 1083.753" xmlns="http://www.w3.org/2000/svg"><path d="M208 558q-6 0-10.5 4.5T193 573v100q0 67-36 121L38 978q-3 5-2 11t6 10l2 1q4 1 6 1 9 0 12-7l120-184q19-30 29.5-65t10.5-71V573q0-6-4-10.5t-10-4.5zM500 30q75 0 140 38 63 37 100 100 38 65 38 140v46q0 6 4 10t10 4q6 0 10.5-4t4.5-10v-46q0-83-42-155-41-69-110-110Q583 1 500 1T345 43q-69 41-110 110-42 72-42 155v197q0 6 4.5 10t10.5 4q6 0 10-4t4-10V308q0-75 38-140 37-63 100-100 65-38 140-38zm462 948L843 794q-36-54-36-121V422q0-6-4.5-10t-10.5-4q-6 0-10 4t-4 10v251q0 75 40 137l120 184q3 7 12 7 2 0 6-1l2-1q5-4 6.5-10t-2.5-11zM500 80q-62 0-114.5 30.5t-83 83Q272 246 272 308v678q0 6 4.5 10.5t10.5 4.5q6 0 10-4.5t4-10.5V497l88-14q20-3 36-12l29-14q22-11 46-11t46 11l29 14q16 9 36 12l88 14v190q0 6 4 10.5t10 4.5q6 0 10.5-4.5T728 687V308q0-62-30.5-114.5t-83-83Q562 80 500 80zm0 29q50 0 93.5 23.5t71.5 64q28 40.5 33 89.5-44-13-79-21-62-12-119-12-92 0-197 33 5-49 32.5-89.5t71-64Q450 109 500 109zm116 345q-14-3-28-9l-29-15q-28-14-58.5-14T442 430l-30 15q-14 6-28 9l-83 14V318q31-12 74-21 64-14 125-14 98 0 199 35v150l-83-14zm97 287q-6 0-10 4t-4 10v231q0 6 4 10.5t10 4.5q6 0 10.5-4.5T728 986V755q0-6-4.5-10t-10.5-4zm-367 82q-5-3-11-.5t-8 7.5q-2 5 0 11t7 8h1q12 8 22 23 18 29 18 75v39q0 6 4 10.5t10.5 4.5q6.5 0 10.5-4.5t4-10.5v-39q0-44-14-75-11-24-28-38-10-9-16-11zm315 15q-3-7-10-8.5t-13 3.5q-17 15-27 38-15 32-15 76v39q0 6 4 10.5t10 4.5q6 0 10.5-4t4.5-11v-39q0-63 32-92 4-3 5-8t-1-9zm-57-100q-3-7-10.5-8.5T581 733q-17 15-27 38-15 32-15 75v140q0 6 4 10.5t10 4.5q6 0 10.5-4t4.5-11V846q0-37 12-62 8-19 20-29 8-6 4-17zm-208 1q-2 4-1 8.5t5 7.5q12 10 21 29 11 25 11 62v140q0 6 4 10.5t10.5 4.5q6.5 0 10.5-4t4-11V846q0-44-15-76-10-23-27-37-5-5-12-3.5t-10 8.5q-1 0-1 1zm279-131q-4-4-10.5-3.5T654 610q-39 48-97 65-6 2-9 7.5t-1.5 10.5q1.5 5 5.5 8t8 3q4 0 5-1 67-20 112-74 4-5 3.5-11t-5.5-10zm-240 95q1 1 5 1t8-3q4-3 5.5-8t-1.5-10.5q-3-5.5-9-7.5-58-17-97-65-4-5-10.5-5.5t-11 3.5q-4.5 4-5 10t3.5 11q45 54 112 74z"/></svg>