<svg viewBox="0 0 1244 1083.753" xmlns="http://www.w3.org/2000/svg"><path d="M945 339q2 0 4-2t2-4q0-2-2-4t-4-2q-2 0-4 2t-2 4q0 2 2 4t4 2zm0 39q2 0 4-2t2-4q0-2-2-4t-4-2q-2 0-4 2t-2 4q0 2 2 4t4 2zm20 19q6 0 6-6t-6-6q-6 0-6 6 0 2 2 4t4 2zm-20 20q2 0 4-2t2-4q0-2-2-4t-4-2q-2 0-4 2t-2 4q0 2 2 4t4 2zm20 19q6 0 6-6t-6-6q-6 0-6 6 0 2 2 4t4 2zm-20 20q2 0 4-2t2-4q0-2-2-4t-4-2q-2 0-4 2t-2 4q0 2 2 4t4 2zm20 19q6 0 6-6t-6-6q-6 0-6 6 0 2 2 4t4 2zm-20 20q2 0 4-2t2-4q0-2-2-4t-4-2q-2 0-4 2t-2 4q0 2 2 4t4 2zm20 19q6 0 6-6t-6-6q-6 0-6 6 0 2 2 4t4 2zm-20 20q6 0 6-6t-6-6q-2 0-4 2t-2 4q0 6 6 6zm20 19q6 0 6-6t-6-6q-6 0-6 6 0 2 2 4t4 2zm-20 20q6 0 6-6t-6-6q-2 0-4 2t-2 4q0 6 6 6zm20 19q6 0 6-6t-6-6q-6 0-6 6 0 2 2 4t4 2zm-20 20q6 0 6-6t-6-6q-2 0-4 2t-2 4q0 6 6 6zm0 39q6 0 6-6t-6-6q-2 0-4 2t-2 4q0 6 6 6zm-39-390q2 0 4-2t2-4q0-2-2-4t-4-2q-6 0-6 6t6 6zm0 39q2 0 4-2t2-4q0-2-2-4t-4-2q-6 0-6 6t6 6zm20 19q6 0 6-6t-6-6q-6 0-6 6 0 2 2 4t4 2zm-20 20q2 0 4-2t2-4q0-2-2-4t-4-2q-2 0-4 2t-2 4q0 2 2 4t4 2zm20 19q6 0 6-6t-6-6q-6 0-6 6 0 2 2 4t4 2zm-20 20q2 0 4-2t2-4q0-2-2-4t-4-2q-2 0-4 2t-2 4q0 2 2 4t4 2zm20 19q6 0 6-6t-6-6q-6 0-6 6 0 2 2 4t4 2zm0 39q6 0 6-6t-6-6q-6 0-6 6 0 2 2 4t4 2zm0 39q6 0 6-6t-6-6q-6 0-6 6 0 2 2 4t4 2zm0 39q6 0 6-6t-6-6q-6 0-6 6 0 2 2 4t4 2zm0 39q6 0 6-6t-6-6q-6 0-6 6 0 2 2 4t4 2zm0 39q6 0 6-6t-6-6q-6 0-6 6 0 2 2 4t4 2zm0 39q6 0 6-6t-6-6q-6 0-6 6 0 2 2 4t4 2zm-20 8q-2 0-4 2t-2 4q0 6 6 6t6-6q0-2-2-4t-4-2zm20 31q6 0 6-6t-6-6q-6 0-6 6t6 6zm-20 8q-2 0-4 2t-2 4q0 6 6 6t6-6q0-2-2-4t-4-2zm20 31q6 0 6-6t-6-6q-6 0-6 6t6 6zm-20 8q-2 0-4 2t-2 4.5q0 2.5 2 4.5t4 2q2 0 4-2t2-4.5q0-2.5-2-4.5t-4-2zm-39-495q2 0 4-2t2-4q0-2-2-4t-4-2q-6 0-6 6t6 6zm20 19q6 0 6-6.5t-6-6.5q-6 0-6 6 0 3 2 5t4 2zm-20 20q2 0 4-2t2-4q0-2-2-4t-4-2q-6 0-6 6t6 6zm20 19q6 0 6-6 0-3-1.5-5t-4.5-2q-6 0-6 7 0 2 2 4t4 2zm0 39q6 0 6-6t-6-6q-6 0-6 6 0 2 2 4t4 2zm0 378q-2 0-4 2t-2 4q0 6 6 6t6-6q0-6-6-6zm-20 20q-2 0-4 2t-2 4.5q0 2.5 2 4.5t4 2q2 0 4-2t2-4.5q0-2.5-2-4.5t-4-2zm20 19q-2 0-4 2t-2 4q0 6 6 6t6-6q0-6-6-6zm-20 20q-2 0-4 2t-2 4.5q0 2.5 2 4.5t4 2q2 0 4-2t2-4.5q0-2.5-2-4.5t-4-2zm0 40q-6 0-6 6 0 2 2 4t4 2q2 0 4-2t2-4q0-6-6-6zm-39-613q2 0 4-2t2-4q0-2-2-4t-4-2q-6 0-6 6t6 6zm20 18q6 0 6-6t-6-6q-2 0-4 2t-2 4q0 6 6 6zm-20 21q2 0 4-2t2-4q0-2-2-4t-4-2q-6 0-6 6t6 6zm20 19q2 0 4-2t2-5q0-6-6-6-2 0-4 2t-2 4.5q0 2.5 2 4.5t4 2zm0 495h-1q22-31 37-67 1 1 3 1 6 0 6-5t-4-7q7-19 16-46h1q6 0 6-5t-4-7q11-50 11-99 0-41-8-86 1-1 1-5t-3-4q-9-31-16-52v-2q0-5-3-6-6-16-22-46 5-2 5-7t-6-5q-1 0-4 1l-1 1q-3-7-8-14v-2q0-6-5-6-4-6-11-15.5T818 242q-13-1-20 7L248 799q-8 8-7 20.5t10 18.5q31 23 64 39-1 1-1 3t2 4q2 2 5 2t4-3q25 11 49 18 2 4 5 4l3-1q17 5 51 11-2 2-2 4t2 4q2 2 4 2t4-2q2-2 2-4v-2q18 2 27 2 2 6 5 6t5-1.5q2-1.5 2-3.5h27q2 5 5 5t5-1.5q2-1.5 2-3.5l27-2v1q0 2 2 4t4 2q2 0 4-2t2-4v-3q53-7 109-31 1 1 3 1t3.5-1.5q1.5-1.5 1.5-3.5 35-16 67-39 2 5 5 5t5-2q2-2 2-5t-3-4l13-11q1 1 4 1 6 0 6-6 0-2-1-3 8-6 12-10 0 1 2 1t4-2q2-2 2-4v-2q0-2 2-2 3-4 10-11h2q6 0 6-6 0-2-1-2 4-4 10-12 2 2 4 2t4-2q2-2 2-4.5t-2-4.5q2-4 8-12l2-2q2 4 7 4t5-6q0-2-2-4t-4-2zM645 424l1 1q16 14 16 36v55l-91-18 74-74zm-87 87l104 21v196l-268-53 164-164zM352 718l29-29 280 55q-4 18-18 30t-33 12H403q-21 0-36-15t-15-37v-16zm365 123q0-6-6-6t-6 5.5q0 5.5 4 5.5l-4 2q-6 5-10 6h-3q-2 0-4 1.5t-2 3.5q-21 11-47 21 0-6-6-6-3 0-5 1.5t-2 4q0 2.5 2 4.5-17 6-48 13 0-4-5.5-4t-5.5 6l-29 4q2-2 2-4 0-6-6-6t-6 6q0 2 2 4h-3q-19 2-29 2h-3q2 0 4-2t2-4q0-6-6-6t-6 6q0 2 1.5 4t3.5 2q-12 0-34-2 2-2 2-4 0-6-6-6-3 0-5 1.5t-2 4.5l1 3-28-4q0-2-2-3.5t-4.5-1.5q-2.5 0-4.5 2-16-3-48-13v-2q0-6-6-6-3 0-5 3-35-13-68-34 1 0 1-2 0-6-6-6-3 0-5 2l-16-11q-4-4-4-8.5t3-7.5l77-77v1q0 28 19.5 48t47.5 20h207q28 0 48-20t20-48V461q0-28-22-47v-1l153-153q3-3 7.5-3t8.5 4q26 36 40 66-4 1-4 6 0 2 2 4t4 2q2 0 3-1 11 26 17 47-2 0-4 2t-2 4q0 2 2 4t4 2q2 0 3-1 11 40 13 88-3 1-3 5.5t4 5.5v6q0 15-1 22-3 1-3 4.5t2 5.5q-3 47-16 86-5 2-5 6 0 2 2 4-11 34-31 70-2-2-4-2t-4 2q-2 2-2 5t4 5q-49 81-129 132zm131-66q-2 0-4 2t-2 4q0 6 6 6t6-6q0-2-2-4t-4-2zm-20 21q-6 0-6 6 0 2 2 4t4 2q2 0 4-2t2-4q0-6-6-6zm20 18q-2 0-4 2t-2 4q0 6 6 6t6-6q0-2-2-4t-4-2zm-20 21q-6 0-6 6 0 2 2 4t4 2q2 0 4-2t2-4q0-6-6-6zm-39-691q2 0 4-2t2-4q0-2-2-4.5t-4-2.5q-2 0-4 2t-2 5q0 6 6 6zm20 18q6 0 6-6t-6-6q-2 0-4 2t-2 4q0 6 6 6zm-20 21q2 0 4-2t2-4q0-2-2-4t-4-2q-6 0-6 6t6 6zm20 18q6 0 6-6t-6-6q-2 0-4 2t-2 4q0 6 6 6zm0 613q-2 0-4 2t-2 4q0 6 6 6t6-6q0-2-2-4t-4-2zm-20 21q-6 0-6 6t6 6q6 0 6-6t-6-6zm20 19q-6 0-6 6 0 2 2 4t4 2q2 0 4-2t2-4q0-6-6-6zm-20 20q-6 0-6 6t6 6q6 0 6-6t-6-6zm-39-769q2 0 4-2t2-5q0-6-6-6-2 0-4 2t-2 4q0 7 6 7zm20 18q6 0 6-6t-6-6q-2 0-4 2t-2 4q0 6 6 6zm-20 21q2 0 4-2t2-4q0-2-2-4.5t-4-2.5q-2 0-4 2t-2 5q0 6 6 6zm20 18q6 0 6-6t-6-6q-2 0-4 2t-2 4q0 6 6 6zm0 692q-6 0-6 6 0 2 2 4t4 2q2 0 4-2t2-4q0-6-6-6zm-20 20q-6 0-6 6t6 6q6 0 6-6t-6-6zm-39-769q2 0 4-2t2-5q0-6-6-6-2 0-4 2t-2 4q0 7 6 7zm20 18q6 0 6-6t-6-6q-2 0-4 2t-2 4q0 6 6 6zm0 731q-6 0-6 6 0 2 2 4t4 2q2 0 4-2t2-4q0-6-6-6zm-20 20q-6 0-6 6t6 6q6 0 6-6t-6-6zm20 19q-6 0-6 6 0 2 2 4t4 2q2 0 4-2t2-4q0-6-6-6zm-20 20q-6 0-6 6t6 6q6 0 6-6 0-2-2-4t-4-2zM672 65q6 0 6-6t-6-6q-2 0-4 2t-2 4q0 6 6 6zm20 19q6 0 6-6t-6-6q-2 0-4 2t-2 4q0 6 6 6zm0 809q-6 0-6 6 0 2 2 4t4 2q2 0 4-2t2-4q0-6-6-6zm-20 20q-6 0-6 6t6 6q6 0 6-6 0-2-2-4t-4-2zm20 19q-6 0-6 6 0 2 2 4t4 2q2 0 4-2t2-4q0-6-6-6zm-39-39q-6 0-6 6t6 6q6 0 6-6t-6-6zm-20 20q-3 0-5 2t-2 4q0 2 2 4t5 2q6 0 6-6 0-2-2-4t-4-2zm20 19q-6 0-6 6t6 6q6 0 6-6t-6-6zm-20 20q-3 0-5 2t-2 4q0 2 2 4t5 2q6 0 6-6 0-2-2-4t-4-2zM614 45q6 0 6-6t-6-6q-2 0-4 2t-2 4q0 6 6 6zm-21 868q-2 0-4 2t-2 4q0 2 2 4t4 2q2 0 4.5-2t2.5-4q0-2-2-4t-5-2zm21 19q-6 0-6 6t6 6q6 0 6-6t-6-6zm-21 20q-2 0-4 2t-2 4q0 2 2 4t4 2q2 0 4.5-2t2.5-4q0-2-2-4t-5-2zm-18-20q-6 0-6 6t6 6q6 0 6-6t-6-6zm-21 20q-2 0-4 2t-2 4q0 2 2 4t4 2q2 0 4-2t2-4q0-6-6-6zm-18-20q-6 0-6 6t6 6q6 0 6-6t-6-6zm-21 20q-2 0-4 2t-2 4q0 2 2 4t4 2q2 0 4-2t2-4q0-6-6-6zm21 19q-6 0-6 6t6 6q6 0 6-6t-6-6zm-39-39q-6 0-6 6t6 6q6 0 6-6t-6-6zm-21 20q-2 0-4 2t-2 4q0 2 2 4t4 2q2 0 4-2t2-4q0-6-6-6zm21 19q-6 0-6 6t6 6q6 0 6-6t-6-6zm-39-39q-7 0-7 6 0 2 2 4t5 2q6 0 6-6t-6-6zm-21 20q-2 0-4 2t-2 4q0 2 2 4t4 2q2 0 4-2t2-4q0-6-6-6zm21 19q-7 0-7 6 0 2 2 4t5 2q6 0 6-6t-6-6zm-60-58q-2 0-4 2t-2 4q0 2 2 4t4 2q2 0 4-2t2-4q0-6-6-6zm20 19q-6 0-6 6 0 2 2 4t4 2q2 0 4.5-2t2.5-4q0-6-7-6zm-20 20q-2 0-4 2t-2 4q0 2 2 4t4 2q2 0 4-2t2-4q0-6-6-6zm-39-39q-2 0-4 2t-2 4q0 2 2 4t4 2q2 0 4-2t2-4q0-2-2-4t-4-2zm20 19q-6 0-6 6 0 2 2 4t4 2q2 0 4-2t2-4q0-6-6-6zm-20 20q-2 0-4 2t-2 4q0 2 2 4t4 2q2 0 4-2t2-4q0-2-2-4t-4-2zm-19-59q-6 0-6 6 0 2 2 4t4 2q2 0 4-2t2-4q0-6-6-6zm-20 20q-2 0-4 2t-2 4q0 2 2 4t4 2q2 0 4-2t2-4q0-2-2-4t-4-2zm20 19q-6 0-6 6 0 2 2 4t4 2q2 0 4-2t2-4q0-6-6-6zm-59-58q-6 0-6 6 0 2 2 4t4 2q2 0 4-2t2-4q0-6-6-6zm20 19q-6 0-6 6 0 2 2 4t4 2q2 0 4-2t2-4q0-6-6-6zm-20 20q-2 0-4 2t-2 4q0 2 2 4t4 2q2 0 4-2t2-4q0-2-2-4t-4-2zm-39-78q-6 0-6 6 0 2 2 4t4 2q2 0 4-2t2-4q0-6-6-6zm20 19q-6 0-6 6 0 2 2 4t4 2q2 0 4-2t2-4q0-6-6-6zm-20 20q-6 0-6 6 0 2 2 4t4 2q2 0 4-2t2-4q0-6-6-6zm20 19q-6 0-6 6 0 2 2 4t4 2q2 0 4-2t2-4q0-6-6-6zm-59-97q-6 0-6 6 0 2 2 4t4 2q2 0 4-2t2-4q0-6-6-6zm20 18q-2 0-4 2t-2 4q0 6 6 6t6-6q0-2-2-4t-4-2zm-20 21q-6 0-6 6 0 2 2 4t4 2q2 0 4-2t2-4q0-6-6-6zm20 19q-6 0-6 6 0 2 2 4t4 2q2 0 4-2t2-4q0-6-6-6zm-59-58q-6 0-6 6t6 6q6 0 6-6t-6-6zm20 18q-2 0-4 2t-2 4q0 6 6 6t6-6q0-2-2-4t-4-2zm0 40q-6 0-6 6 0 2 2 4t4 2q2 0 4-2t2-4q0-6-6-6zm-59-98q-6 0-6 6.5t6 6.5q6 0 6-6 0-3-2-5t-4-2zm20 19q-2 0-4 2t-2 4q0 6 6 6t6-6q0-2-2-4t-4-2zm0 39q-2 0-4 2t-2 4q0 6 6 6t6-6q0-2-2-4t-4-2zm-59-97q-6 0-6 6.5t6 6.5q6 0 6-7 0-2-2-4t-4-2zm20 19q-2 0-4 2t-2 4q0 6 6 6t6-6q0-2-2-4t-4-2zm-59-97q-6 0-6 6t6 6q6 0 6-6 0-2-2-4t-4-2zm20 19q-2 0-4 2t-2 4q0 6 6 6t6-6q0-2-2-4t-4-2zm0 39q-2 0-4 2t-2 4q0 6 6 6t6-6q0-2-2-4t-4-2zm19-19q-6 0-6 6.5t6 6.5q6 0 6-7 0-2-2-4t-4-2zm98 97q-2 0-4 2t-2 4q0 6 6 6t6-6q0-2-2-4t-4-2zm683-397q2 0 4-2t2-4q0-2-2-4t-4-2q-2 0-4 2t-2 4q0 2 2 4t4 2zm0 39q2 0 4-2t2-4q0-2-2-4t-4-2q-2 0-4 2t-2 4q0 2 2 4t4 2zm20 19q6 0 6-6t-6-6q-6 0-6 6 0 2 2 4t4 2zm-20 20q2 0 4-2t2-4q0-2-2-4t-4-2q-2 0-4 2t-2 4q0 2 2 4t4 2zm20 19q6 0 6-6t-6-6q-6 0-6 6 0 2 2 4t4 2zm-20 20q2 0 4-2t2-4q0-2-2-4t-4-2q-2 0-4 2t-2 4q0 2 2 4t4 2zm20 19q6 0 6-6t-6-6q-6 0-6 6 0 2 2 4t4 2zm-20 20q6 0 6-6t-6-6q-2 0-4 2t-2 4q0 6 6 6zm20 19q6 0 6-6t-6-6q-6 0-6 6 0 2 2 4t4 2zm-20 20q6 0 6-6t-6-6q-2 0-4 2t-2 4q0 6 6 6zm20 19q6 0 6-6t-6-6q-6 0-6 6 0 2 2 4t4 2zm-20 20q6 0 6-6t-6-6q-2 0-4 2t-2 4q0 6 6 6zm0 39q6 0 6-6t-6-6q-2 0-4 2t-2 4q0 6 6 6zm-19-332q2 0 4-2t2-4q0-2-2-4t-4-2q-6 0-6 6 0 2 2 4t4 2zm0 273q2 0 4-2t2-4q0-2-2-4t-4-2q-2 0-4 2t-2 4q0 2 2 4t4 2zm0 39q2 0 4-2t2-4q0-2-2-4t-4-2q-2 0-4 2t-2 4q0 2 2 4t4 2zm-20 8q-2 0-4 2t-2 4q0 6 6 6t6-6q0-2-2-4t-4-2zm20 31q6 0 6-6t-6-6q-2 0-4 2t-2 4q0 6 6 6zm-20 8q-2 0-4 2t-2 4q0 6 6 6t6-6q0-2-2-4t-4-2zm0 39q-2 0-4 2t-2 4.5q0 2.5 2 4.5t4 2q2 0 4-2t2-4.5q0-2.5-2-4.5t-4-2zm-19-59q-2 0-4 2t-2 4q0 6 6 6t6-6q0-2-2-4t-4-2zm-20 20q-6 0-6 6t6 6q6 0 6-6 0-2-2-4t-4-2zm20 19q-2 0-4 2t-2 4q0 6 6 6t6-6q0-2-2-4t-4-2zm-20 20q-6 0-6 6.5t6 6.5q6 0 6-7 0-2-2-4t-4-2zm20 19q-2 0-4 2t-2 4q0 6 6 6t6-6q0-2-2-4t-4-2zm-20 20q-6 0-6 6.5t6 6.5q6 0 6-6 0-3-2-5t-4-2zm-19-59q-2 0-4 2t-2 4q0 6 6 6t6-6q0-2-2-4t-4-2zm0 39q-2 0-4 2t-2 4q0 6 6 6t6-6q0-2-2-4t-4-2zm-20 20q-6 0-6 6.5t6 6.5q6 0 6-6 0-3-2-5t-4-2zm20 19q-2 0-4 2t-2 4q0 6 6 6t6-6q0-2-2-4t-4-2zm-20 21q-6 0-6 6t6 6q6 0 6-6t-6-6zm-19-21q-2 0-4 2t-2 4q0 6 6 6t6-6q0-2-2-4t-4-2zm-20 21q-6 0-6 6t6 6q6 0 6-6t-6-6zm20 18q-2 0-4 2t-2 4q0 6 6 6t6-6q0-2-2-4t-4-2zm-39-39q-2 0-4 2t-2 4q0 6 6 6t6-6q0-2-2-4t-4-2zm-20 21q-6 0-6 6t6 6q6 0 6-6t-6-6zm20 18q-2 0-4 2t-2 4q0 6 6 6t6-6q0-2-2-4t-4-2zm-20 21q-6 0-6 6t6 6q6 0 6-6t-6-6zm-19-21q-6 0-6 6t6 6q6 0 6-6 0-2-2-4t-4-2zm-20 21q-7 0-7 6 0 2 2 4t5 2q6 0 6-6t-6-6zm20 19q-6 0-6 6t6 6q6 0 6-6t-6-6zm-60-19q-6 0-6 6 0 2 2 4t4 2q2 0 4.5-2t2.5-4q0-6-7-6zm21 19q-6 0-6 6t6 6q6 0 6-6t-6-6zm-21 20q-6 0-6 6 0 2 2 4t4 2q2 0 4.5-2t2.5-4q0-6-7-6zm-18-20q-6 0-6 6t6 6q6 0 6-6t-6-6zm-21 20q-6 0-6 6 0 2 2 4t4 2q2 0 4-2t2-4q0-6-6-6zm-18-20q-6 0-6 6t6 6q6 0 6-6t-6-6zm-21 20q-6 0-6 6 0 2 2 4t4 2q2 0 4-2t2-4q0-6-6-6zm-39 0q-6 0-6 6 0 2 2 4t4 2q2 0 4-2t2-4q0-6-6-6zm-39 0q-6 0-6 6 0 2 2 4t4 2q2 0 4-2t2-4q0-6-6-6zm-39 0q-6 0-6 6 0 2 2 4t4 2q2 0 4-2t2-4q0-6-6-6zm-58-20q-6 0-6 6 0 2 2 4t4 2q2 0 4-2t2-4q0-6-6-6zm39 0q-6 0-6 6 0 2 2 4t4 2q2 0 4-2t2-4q0-6-6-6zm39 0q-6 0-6 6 0 2 2 4t4 2q2 0 4.5-2t2.5-4q0-6-7-6zm40 0q-7 0-7 6 0 2 2 4t5 2q6 0 6-6t-6-6zm39 0q-6 0-6 6t6 6q6 0 6-6t-6-6zm117-40q-6 0-6 6t6 6q6 0 6-6 0-2-2-4t-4-2zm97-58q-6 0-6 6.5t6 6.5q6 0 6-6 0-3-2-5t-4-2zm20-20q-2 0-4 2t-2 4q0 2 2 4t4 2q6 0 6-6t-6-6zm19-19q-6 0-6 6.5t6 6.5q6 0 6-7 0-2-2-4t-4-2zm78-117q-2 0-4 2t-2 4q0 6 6 6t6-6q0-2-2-4t-4-2zm20-47q2 0 4-2t2-4q0-2-2-4t-4-2q-2 0-4 2t-2 4q0 2 2 4t4 2zm6-406Q783 76 691.5 38.5T500 1Q400 1 308.5 38.5T146 147Q75 218 37.5 309.5T0 501q0 100 37.5 191.5T146 855q71 71 162.5 108.5T500 1001q100 0 191.5-37.5T854 855q71-71 108.5-162.5T1000 501q0-100-37.5-191.5T854 147zm-78 752q0-6-6-6t-6 6q0 3 4 5-5 4-15 10-1-1-3-1-6 0-6 6-30 18-69 34-1-1-4-1t-5 4q-45 16-86 23l1-2q0-6-6-6t-6 6q0 2 1 3-29 5-70 5-38 0-76-6l1-2q0-6-6.5-6t-6.5 6q-58-11-109-34 4 0 4-5.5t-6-5.5q-6 0-6 6 0 1 1 2-30-14-68-38 1-1 1-3 0-6-6-6-3 0-5 2l-12-10q3-2 3-5 0-6-5-6t-7 4q-17-13-37-33 2 2 4 2t4-2q2-2 2-4t-2-4q-2-2-4-2-6 0-6 6 0 3 1 4-20-20-33-37 5-3 5-6 0-6-5.5-6t-6.5 4l-10-14q3-2 3-4.5t-2-4.5q-2-2-4-2t-4 2q-46-67-69-149 1 0 1-3.5t-3-4.5q-4-12-7-29 1 1 3.5 1t4.5-2q2-2 2-4t-2-4q-2-2-4.5-2t-4.5 3q-7-38-7-82 0-131 66-244 64-110 174-174 113-66 244-66 17 0 49 2l-1 1q0 6 6 6t6-6q38 5 87 19 0 6 6 6 2 0 4-2 28 9 70 30l-1 1q-1 3-1 4 0 6 6 6 2 0 4-1.5t2-3.5q59 33 107 81.5T924 268q-4 2-4 5t2 5q2 2 4 2t4-2q18 34 30 71-1 1-1 3t3 5q15 46 19 88-3 1-3 5t4 6q2 18 2 27-2 0-4 2t-2 4q0 2 2 4t4 2v27q-2 0-4 2t-2 4q0 2 1.5 4t3.5 2q-3 42-14 87-2-2-4-2t-4 2q-2 2-2 4t2 4q2 2 4 2h2q-4 13-13 39l-4 11q-1-3-4-3t-5 2q-2 2-2 4 0 6 6 6h1q-16 37-36 68-2-2-4-2t-4 2q-2 2-2 5.5t4 4.5l-12 17q1-1 1-4 0-6-6-6t-6 6q0 6 6 6 3 0 5-2-50 68-116 114zM182 761h2q10 0 18-8l550-550q8-7 7-20t-10-19q-54-40-117.5-61T500 82q-84 0-160.5 31.5t-136 91q-59.5 59.5-91 136T81 501q0 68 21 131.5T163 750q6 9 19 11zm170-180V470l92 19-92 92zm106-106l-106-21q3-17 15-29l67-59q18-17 18-41v-44q2 1 6 1h98q3 0 5-1v45q0 17 12 34L458 475zm42-378q65 0 126 20.5T740 176q4 4 4 8.5t-3 7.5L584 349q-7-12-7-23v-51q18-11 18-33v-43q0-16-11.5-28T556 159h-98q-16 0-27.5 11.5T419 199v43q0 21 17 33v50q0 18-12 29l-67 60q-21 19-21 47v136L191 742q-3 3-7.5 3t-8.5-4q-38-53-58.5-114T96 501q0-110 55-204 54-91 145-145 94-55 204-55z"/></svg>