<svg viewBox="0 0 1244 1083.753" xmlns="http://www.w3.org/2000/svg"><path d="M854 147Q783 76 691.5 38.5T500 1Q400 1 308.5 38.5T146 147Q75 218 37.5 309.5T0 501q0 100 37.5 191.5T146 855q71 71 162.5 108.5T500 1001q100 0 191.5-37.5T854 855q71-71 108.5-162.5T1000 501q0-100-37.5-191.5T854 147zM500 972q-127 0-237-65-107-62-169-169-65-110-65-237t65-237q62-107 169-169 110-65 237-65t237 64q107 63 169 169 65 110 65 238t-64 238q-63 106-169 169-110 64-238 64zm375-663q-3-5-9-7t-11 1h-1l-97 62q-5 3-6 9t2.5 12q3.5 6 11.5 6 4 0 8-2l83-53q36 76 36 164 0 81-31.5 154.5t-89 128.5Q714 839 639 867V675q0-6-4.5-10.5T624 660q-6 0-10 4.5t-4 10.5v37h-33q-9 0-16 6.5t-7 16.5v12q0 10-7 17t-17 7h-60q-10 0-17-7t-7-17v-12q0-10-6.5-16.5T423 712h-33v-76l159-102q5 7 5 15v12q0 10 7 16.5t16 6.5h33v21q0 6 4 10.5t10 4.5q6 0 10.5-4.5T639 605V476l76-49q5-3 6.5-9t-2-11q-3.5-5-9.5-6.5t-11 1.5L173 740q-5 4-6 10t2 11l1 1q38 47 87 82.5T363 899q5 18 19 29.5t33 11.5h170q19 0 33-11.5t19-29.5q61-21 112-58.5t89-89.5q41-55 62-118t21-132q0-103-46-192zM610 554h-26v-5q0-16-10-31l36-23v59zM203 756l158-101v212q-93-35-158-111zm407 131q-1 10-8 17t-17 7H415q-10 0-17-7t-8-17V742h26v5q0 22 16 38t38 16h60q22 0 38-16t16-38v-5h26v145zm217-625v-1h1q5-4 5.5-10.5T830 240q-48-61-114-101T574 86V61q0-6-4.5-10.5T559 46H441q-6 0-10.5 4.5T426 61v25q-71 13-133.5 48.5T183 225q-50 57-77 128.5T79 501q0 100 46 192 5 8 13 8 3 0 7-2h1l681-437zm-30-16L616 362q-8-12-18-20-13-12-21.5-29t-8.5-35l-7-143q5-1 9-5t4-10v-4q65 13 122.5 46T797 246zM456 76h89v30h-89V76zM108 501q0-92 42-175 41-81 113.5-137T426 116v4q0 6 4 10t9 5l-2 31q0 6 4 10.5t10 5q6 .5 10.5-3.5t5.5-10l1-33h63l7 145q1 23 12 45t29 39q5 4 13 14L390 507v-76q0-19 8-36.5t22-30.5l1-1q36-33 39-82l2-44q1-6-3-10.5t-10-5q-6-.5-10.5 4T433 236l-2 44q-3 37-30 61l-1 1q-19 17-29 40t-10 49v95L144 665q-36-77-36-164z"/></svg>