<svg viewBox="0 0 1244 1083.753" xmlns="http://www.w3.org/2000/svg"><path d="M453 377h-15v-47q0-13-9.5-22t-22.5-9H234v-90l32 8v35q0 7 4.5 11.5T281 268q6 0 11-4.5t5-11.5v-47q0-5-3.5-9t-8.5-6l-62-16q-7-2-12.5 1.5T204 186q-1 1-1 3v110H78q-13 0-22 9t-9 22v47H31q-13 0-22 9t-9 22v94q0 13 9 22t22 9h16l15 422q1 19 14 32t32 13h268q19 0 32.5-12.5T423 956l14-423h16q13 0 22-9t9-22v-94q0-13-9-22t-22-9zM78 330h328v47H78v-47zm314 625q-1 6-5.5 10t-10.5 4H108q-6 0-10.5-4T93 955l-4-94h306l-3 94zm11-328h-44q-6 0-10.5 4.5T344 643q0 7 4.5 11t10.5 4h43l-6 172H88l-5-172h136q6 0 10.5-4.5T234 643q0-6-4.5-11t-10.5-5H82l-3-94h327l-3 94zm19-125H31v-31h78q7 0 11.5-4.5T125 455q0-7-4.5-11.5T109 439H31v-31h422v31H250q-7 0-11.5 4.5T234 455q0 7 4.5 11.5T250 471h203v31h-31zm-234-63h-16q-7 0-11.5 4.5T156 455q0 7 4.5 11.5T172 471h16q6 0 10.5-4.5T203 455q0-7-4.5-11.5T188 439zm93 219h16q7 0 11.5-4.5T313 643q0-6-4.5-11t-11.5-5h-16q-6 0-10.5 4.5T266 643q0 7 4.5 11t10.5 4zm391-453q0 34 17 62.5t45.5 45.5q28.5 17 62.5 17t62.5-17q28.5-17 45.5-45.5t17-62.5q0-34-17-62.5T859.5 97Q831 80 797 80t-62.5 17Q706 114 689 142.5T672 205zm125-94q39 0 66.5 27.5T891 205q0 39-27.5 66.5T797 299q-39 0-66.5-27.5T703 205q0-39 27.5-66.5T797 111zm16-78V18q0-7-4.5-11.5T797 2q-7 0-11.5 4.5T781 18v15q0 7 4.5 11.5T797 49q7 0 11.5-4.5T813 33zm-32 344v16q0 6 4.5 10.5T797 408q7 0 11.5-4.5T813 393v-16q0-7-4.5-11.5T797 361q-7 0-11.5 4.5T781 377zm-128-28q5 4 11.5 4t10.5-4l12-12q4-4 4-10.5t-4.5-11Q682 311 676 311t-11 4l-12 12q-4 4-4 10.5t4 11.5zM940 61q-4-5-10.5-5T918 61l-11 12q-4 4-4 10.5t4.5 11q4.5 4.5 11 4.5t10.5-4l11-11q5-5 5-11.5T940 61zm-265 0q-4-4-10.5-4t-11 4.5q-4.5 4.5-4.5 11t4 11.5l12 11q5 4 11 4t11-4.5q5-4.5 5-11T687 73l-12-12zm255 255q-5-5-11.5-5t-11 4.5q-4.5 4.5-4.5 11t4 11.5l12 11q5 4 11.5 4t11-4.5q4.5-4.5 4.5-11t-5-10.5l-11-11zM641 205q0-7-4.5-11.5T625 189h-16q-6 0-10.5 4.5T594 205q0 7 4.5 11.5T609 221h16q7 0 11.5-4.5T641 205zm343-16h-15q-7 0-11.5 4.5T953 205q0 7 4.5 11.5T969 221h15q7 0 11.5-4.5t4.5-11.5q0-7-4.5-11.5T984 189zM797 564q-47 0-86.5 23T648 649.5Q625 689 625 736t23 86.5q23 39.5 62.5 62.5t86.5 23q47 0 86.5-23t62.5-62.5q23-39.5 23-86.5t-23-86.5Q923 610 883.5 587T797 564zm0 313q-38 0-70.5-19T675 806.5Q656 774 656 736t19-70.5q19-32.5 51.5-51T797 596q38 0 70.5 19t51.5 51q19 32 19 70t-19 70.5Q900 839 867.5 858T797 877zm77-218q-4-5-10.5-5t-11.5 5l-55 55-55-55q-5-5-11-5t-10.5 4.5q-4.5 4.5-4.5 11t4 11.5l55 55-55 56q-4 4-4 10.5t4.5 11q4.5 4.5 11 4.5t10.5-4l55-56 55 56q5 4 11.5 4t11-4.5q4.5-4.5 4.5-11t-5-10.5l-55-56 55-55q5-5 5-11.5t-5-10.5z"/></svg>