<svg viewBox="0 0 1244 1083.753" xmlns="http://www.w3.org/2000/svg"><path d="M719 707v-19q0-33-17-62t-45.5-46Q628 563 594 563H438q-34 0-62.5 17T330 626q-17 29-17 62v19q-14 5-23 17t-9 27v47q0 15 9 27t23 17v18q0 33 23 56t55 23h250q32 0 55-23t23-56v-18q14-5 22.5-17t8.5-27v-47q0-15-8.5-27T719 707zm0 91q0 6-4.5 10.5T703 813q-7 0-11 4.5t-4 11.5v31q0 19-13.5 33T641 907H391q-19 0-33-14t-14-33v-15h219q6 0 10.5-4.5T578 829q0-7-4.5-11.5T563 813H328q-6 0-10.5-4.5T313 798v-47q0-7 4.5-11.5T328 735q6 0 11-4.5t5-10.5v-32q0-38 27.5-65.5T438 595h156q39 0 66.5 27.5T688 688v16H469q-7 0-11.5 4.5T453 720q0 7 4.5 11t11.5 4h234q7 0 11.5 4.5T719 751v47zM344 259q0-47-23-86.5T258.5 110Q219 87 172 87t-86.5 23Q46 133 23 172.5T0 259q0 47 23 86.5T85.5 408q39.5 23 86.5 23t86.5-23.5Q298 384 321 345t23-86zM172 399q-38 0-70.5-19T50 329q-19-32-19-70t19-70.5Q69 156 101.5 137t70.5-19q38 0 70.5 19t51.5 51.5q19 32.5 19 70.5t-19 70q-19 32-51.5 51T172 399zm77-218q-4-5-10.5-5t-11.5 5l-55 56-55-56q-4-5-10.5-5T95 180.5q-5 4.5-5.5 11T94 203h1l55 56-55 55q-4 4-4 10.5t4.5 11q4.5 4.5 11 4.5t10.5-4l55-55 55 55q5 4 11.5 4t11-4.5q4.5-4.5 4.5-11t-5-10.5l-55-55 55-56q5-5 5-11.5t-5-10.5zm548-39q-34 0-62.5 17T689 204.5Q672 233 672 267t17 62.5q17 28.5 45.5 45.5t62.5 17q34 0 62.5-17t45.5-45.5q17-28.5 17-62.5t-17-62.5Q888 176 859.5 159T797 142zm0 218q-39 0-66.5-27.5T703 267q0-38 27.5-66t66.5-28q39 0 66.5 27.5t27.5 66q0 38.5-27.5 66T797 360zM781 79v16q0 6 4.5 10.5T797 110q7 0 11.5-4.5T813 95V79q0-7-4.5-11.5T797 63q-7 0-11.5 4.5T781 79zm16 344q-7 0-11.5 4.5T781 438v16q0 7 4.5 11.5T797 470q7 0 11.5-4.5T813 454v-16q0-6-4.5-10.5T797 423zm121-300l-11 11q-4 4-4 10.5t4.5 11q4.5 4.5 11 4.5t10.5-4l11-11q5-4 5-10.5t-4.5-11.5q-4.5-5-11-5t-11.5 5zM653 410q5 4 11.5 4t10.5-4l12-11q5-5 5-11.5t-5-11q-5-4.5-11.5-4.5t-10.5 5l-12 11q-4 4-4 10.5t4 11.5zm277-33q-5-5-11.5-5t-11 4.5q-4.5 4.5-4.5 11t4 11.5l12 11q5 4 11.5 4t11-4.5q4.5-4.5 4.5-11t-5-10.5l-11-11zM686 156q5-5 5-11.5t-5-10.5l-11-11q-4-5-10.5-5t-11 4.5q-4.5 4.5-4.5 11t4 11.5l11 11q5 4 11.5 4t10.5-4zm-77 95q-6 0-10.5 4.5T594 267q0 7 4.5 11t10.5 4h16q7 0 11.5-4.5T641 267q0-6-4.5-11t-11.5-5h-16zm375 0h-15q-7 0-11.5 4.5T953 267q0 7 4.5 11t11.5 4h15q7 0 11.5-4.5t4.5-10.5q0-6-4.5-11t-11.5-5zM406 704h-15q-7 0-11.5 4.5T375 720q0 7 4.5 11t11.5 4h15q7 0 11.5-4.5T422 720q0-6-4.5-11t-11.5-5zm235 109h-16q-7 0-11.5 4.5T609 829q0 7 4.5 11.5T625 845h16q6 0 10.5-4.5T656 829q0-7-4.5-11.5T641 813z"/></svg>