<svg viewBox="0 0 1244 1083.753" xmlns="http://www.w3.org/2000/svg"><path d="M172 438q27 0 47-10 6-3 8-9.5t-1-12.5L98 278q-4-5-10.5-5T76 278q-2 2-3 4-10 20-10 47 0 30 14.5 55t39.5 39.5q25 14.5 55 14.5zM95 318l88 88q-3 1-11 1-32 0-55-23t-23-55q0-8 1-11zm150 63q5 4 11.5 4t11.5-5q2-2 2-4 11-19 11-48t-14.5-54Q252 249 227 234.5T172 220q-27 0-48 10-5 4-7 10t1 12l2 4 125 125zm-73-130q32 0 55 23t23 55q0 8-1 11l-88-88q3-1 11-1zm0 250q47 0 86.5-23t62.5-62.5q23-39.5 23-86.5t-23-86.5Q298 203 258.5 180T172 157q-47 0-86.5 23T23 242.5Q0 282 0 329t23 86.5Q46 455 85.5 478t86.5 23zm0-313q38 0 70.5 19t51.5 51.5q19 32.5 19 70.5t-19 70.5Q275 432 242.5 451T172 470q-38 0-70.5-19T50 399.5Q31 367 31 329t19-70q19-32 51.5-51.5T172 188zm797 47h-16v-47q0-13-9-22t-22-9H781V48q0-7-4.5-11.5T766 32q-3 0-4 1l-63 15q-11 3-11 15v47q0 7 4.5 11.5T703 126q6 0 11-4.5t5-11.5V76l31-8v89H547q-13 0-22 9t-9 22v47h-16q-13 0-22 9.5t-9 22.5v93q0 13 9 22.5t22 9.5h16l14 533q1 19 14.5 32t32.5 13h315q19 0 32.5-13t14.5-32l14-533h16q13 0 22-9.5t9-22.5v-93q0-13-9-22.5t-22-9.5zm-422-47h375v47H547v-47zm360 736q0 7-4.5 11t-10.5 4H577q-6 0-10.5-4.5T562 924l-4-157h353l-4 157zm11-392H734q-6 0-10.5 4.5T719 548q0 7 4.5 11t10.5 4h184l-1 11-5 161H557l-6-161v-11h43q6 0 10.5-4.5T609 548q0-6-4.5-11t-10.5-5h-44l-3-140h375l-4 140zm20-172H500v-31h250q7 0 11.5-4.5T766 313q0-7-4.5-11t-11.5-4H500v-31h469v31h-78q-7 0-11.5 4.5T875 313q0 6 4.5 11t11.5 5h78v31h-31zM31 873v19q0 32 23 55t55 23h250q33 0 56-23t23-55v-19q14-5 22.5-17t8.5-27v-47q0-15-8.5-27T438 738v-18q0-34-17-62.5T375 612q-29-17-62-17H156q-34 0-62.5 17T48 657.5Q31 686 31 720v18q-14 5-22.5 17T0 782v47q0 15 8.5 27T31 873zm0-91q0-6 4.5-10.5T47 767t11.5-4.5Q63 758 63 751v-31q0-39 27.5-66.5T156 626h157q38 0 65.5 27.5T406 720v15H188q-7 0-11.5 4.5T172 751q0 7 4.5 11.5T188 767h234q7 0 11.5 4.5T438 782v47q0 7-4.5 11.5T422 845t-11.5 4.5Q406 854 406 860v32q0 19-13.5 33T359 939H109q-19 0-32.5-13.5T63 892v-16h218q7 0 11.5-4.5T297 860q0-7-4.5-11t-11.5-4H47q-7 0-11.5-4.5T31 829v-47zm797-484h-15q-7 0-11.5 4.5T797 313q0 6 4.5 11t11.5 5h15q7 0 11.5-4.5T844 313q0-7-4.5-11t-11.5-4zM656 563h16q7 0 11.5-4.5T688 548q0-6-4.5-11t-11.5-5h-16q-6 0-10.5 4.5T641 548q0 7 4.5 11t10.5 4zM109 767h16q7 0 11.5-4.5T141 751q0-7-4.5-11.5T125 735h-16q-6 0-10.5 4.5T94 751q0 7 4.5 11.5T109 767zm235 109h15q7 0 11.5-4.5T375 860q0-7-4.5-11t-11.5-4h-15q-7 0-11.5 4.5T328 860q0 6 4.5 11t11.5 5z"/></svg>