<svg viewBox="0 0 1244 1083.753" xmlns="http://www.w3.org/2000/svg"><path d="M169 295q6 0 10-4.5t4-10.5v-39q0-7-4-11t-10-4q-6 0-10.5 4t-4.5 11v39q0 6 4 10.5t11 4.5zm150 0q6 0 10-4.5t4-10.5v-39q0-7-4-11t-10-4q-6 0-10.5 4t-4.5 11v39q0 6 4 10.5t11 4.5zm-75 0q6 0 10-4.5t4-10.5v-39q0-7-4-11t-10-4q-6 0-10.5 4t-4.5 11v39q0 6 4 10.5t11 4.5zm150 0q6 0 10-4.5t4-10.5v-39q0-7-4-11t-10-4q-6 0-10.5 4t-4.5 11v39q0 6 4 10.5t11 4.5zm513 618h-26q22-25 22-59 0-36-25.5-62T816 766h-66q-23-1-46-4-34-5-64-14-38-11-70-29-24-14-35-22-5-4-11-2.5t-9.5 6.5q-3.5 5-2.5 10.5t6 9.5q12 8 38 24 47 25 100 38-4 0-5 1-74 17-130.5 50T430 913H235q-40 0-68.5-28.5T138 815v-72q0-30 16-53 19-29 19-69V454h216q-1 15-.5 36.5T391 523q13 88 72 151 5 5 11 5t10-4q4-4 4.5-10t-3.5-11q-53-56-65-136-2-12-2-64h80q6 0 10.5-4t4.5-10V16q0-6-4.5-10.5T498 1q-6 0-10.5 4.5T483 16v318H79v-91q0-6-4.5-10T64 229q-6 0-10.5 4T49 243v197q0 6 4.5 10t10.5 4h80v167q0 30-15 53-20 31-20 69v72q0 29 12 54.5t33 43.5H97q-18 0-31 12.5T53 957q0 18 13 31t31 13h627q6 0 10-4.5t4-10.5q0-6-4-10t-10-4H97q-6 0-10-4.5T83 957q0-7 4-11t10-4h810q6 0 10 4t4 11q0 6-4 10.5t-10 4.5H792q-6 0-10.5 4t-4.5 10q0 6 4.5 10.5t10.5 4.5h115q18 0 31-13t13-31q0-19-13-31.5T907 913zM79 364h404v61H79v-61zm389 549q37-40 93-67 44-21 96-34 67-16 130-16h29q24 0 41 17t17 41q0 24-17 41.5T816 913H468zM260 521q0-6-4-10.5t-10-4.5q-6 0-10.5 4.5T231 521q0 11-4 21-2 7-8 19-12 24-12 43 0 23 14 46 7 11 14 19 4 4 10.5 4t11-4.5Q261 664 261 658t-5-10l-5-6q-6-8-9-16-5-11-5-22.5t9-29.5q14-28 14-53zM64 189q6 0 10.5-4t4.5-10V16q0-6-4.5-10.5T64 1q-6 0-10.5 4.5T49 16v159q0 6 4.5 10t10.5 4z"/></svg>