<svg viewBox="0 0 1244 1083.753" xmlns="http://www.w3.org/2000/svg"><path d="M834 249q-2-6-4-9-60-76-146.5-118T500 80q-114 0-212 58-96 55-151 151-58 98-58 212 0 102 46 192 3 6 9.5 7.5T146 699l276-177q5-4 6.5-10t-1.5-11q-3-5-9.5-6t-11.5 2l-44 28V413l245-45-143 92q-5 3-6.5 9t2.5 12q4 6 12 6 4 0 8-3l347-222q7-5 7-13zm-37-3l-28 18v-48q19 19 28 30zM500 109q74 0 141 26l-305 46q-35 5-57.5 31.5T256 274v319l-112 72q-36-77-36-164 0-106 54-198 52-88 140-140 92-54 198-54zM345 387q-5 1-8.5 5t-3.5 9v143l-48 31V274q0-24 15.5-42t39.5-22l326-49q28-4 52 15 10 9 16 22t6 27v57l-68 44-327 61zm509-240Q783 76 691.5 38.5T500 1q-90 0-174.5 31.5T173 123q-5 4-5.5 10.5T171 144q4 4 10 4.5t11-3.5q64-55 143.5-85T500 30q128 0 238 64 106 63 169 169 64 110 64 238t-64 238q-63 106-169 169-110 64-238 64-91 0-174-33 20-20 30-42 68 25 144 25 114 0 212-58 96-55 151-151 58-98 58-212 0-102-46-192-3-6-9.5-7.5T854 303L173 740q-5 4-6 10.5t3 11.5q14 18 24 28-25 13-40 31-60-66-92.5-148.5T29 501q0-85 30-164.5T144 193q4-5 4-11t-5-10q-5-4-11-3.5t-10 4.5q-59 68-90.5 153T0 501q0 97 35.5 185.5T138 846q-17 34-5 68 7 19 21.5 33.5t35 21Q210 975 231 975q26 0 47-8 9-2 20-9 95 43 202 43 100 0 191.5-37.5T854 855q71-71 108.5-162.5T1000 501q0-100-37.5-191.5T854 147zM500 893q-69 0-138-25V654l301-194v158q-22 2-43 9-30 10-51.5 31.5T539 707q-8 27 1 52 14 39 57 54 18 7 40 7t48-8q37-14 60.5-42.5T769 708V573q0-6-4-10.5t-10-4.5q-6 0-10.5 4.5T740 573v134q0 24-18 45.5T675 784q-36 13-67.5 2T567 748.5q-9-26.5 9-54t53-40.5q24-8 47-6 7 1 12-3t5-11V442l47-31v94q0 6 4.5 10t10.5 4q6 0 10-4t4-10V392l87-55q36 76 36 164 0 106-54 198-52 88-140 140-92 54-198 54zM256 774q-19 0-32 4-14-14-21-22l53-34v52zm12 166q-35 12-68 1-31-11-39.5-37t7.5-53q10-15 24.5-26t31.5-16q23-8 45-6 5 1 12-3 4-4 4-11v-86l48-30v189q0 8-1 12-8 35-43 55v1q-7 5-21 10z"/></svg>