<svg viewBox="0 0 1244 1083.753" xmlns="http://www.w3.org/2000/svg"><path d="M872 167q4-3 7-6 7-7 5-14.5T872 135l-39-7q-68-61-154.5-94T500 1q-92 0-178 33t-155 94q-26 4-39 7-10 4-11.5 12t4.5 14l7 6q-62 69-95 155T0 501q0 100 37.5 191.5T146 855q71 71 162.5 108.5T500 1001q91 0 176-32t153-92q5-4 5.5-10t-4-10.5q-4.5-4.5-10.5-5t-10 3.5q-65 56-145 86.5T500 972q-127 0-237-65-107-62-169-169-65-110-65-237 0-87 30.5-167T148 189l3 4q18 22 28 36-49 57-74.5 127T79 501q0 102 46 192 5 8 13 8 5 0 7-2l491-315q5-3 6.5-9t-2.5-11q-4-5-9.5-6.5T620 359l-102 66h-73q-33 0-61 16.5T339.5 486Q323 514 323 547v4l-133 85q-3-12-3-24 0-41 30-77 15-20 24-38 2-5 0-11t-7-8.5q-5-2.5-11-.5t-9 8q-8 17-20 31-36 45-36 96 0 20 6 41l-20 12q-36-77-36-164 0-67 22.5-130T195 255q30 51 42 99-7 28-7 61v3q0 10 3 15t12 5q9 0 12-8 2-3 2-12v-3q0-30 7-57v-1q10-38 31-71.5t52-58.5q54-41 115-50 66-9 126 15 31 11 61 35 38 31 61 73l-33 22q-5 3-6.5 9t2.5 12q4 6 12 6 4 0 8-3l133-85q5-4 5.5-10.5T830 240l-9-11 31-40q58 65 88.5 145T971 501q0 84-29.5 163.5T857 808q-4 4-4 10.5t5 10q5 3.5 11 3.5t10-5q58-67 89.5-151.5T1000 501q0-93-33-179t-95-155zM445 454h27l-119 77q6-33 32-55t60-22zm378-276q-105-2-161 21-20-14-30-20 34-14 66-20 56-12 122-3 8 8 12 11-6 8-9 11zM500 30q76 0 148 24t133 69q-43-2-84 6-92-49-197-49t-197 49q-44-7-84-6 61-45 133-69t148-24zM338 199q-56-23-161-21-12-14-17-19 118-20 208 20-10 6-30 20zm-51 50l-20-13q-4-3-10-2t-9.5 6q-3.5 5-2.5 11t6 10l19 12q-12 22-17 33-22-56-54-99 69 1 113 14-13 13-25 28zm116-86q-20-11-55-23 74-31 152-31t152 31q-30 10-55 23-46-18-96.5-18T403 163zm327 110l19-12q5-4 6-10t-2.5-11q-3.5-5-9.5-6t-10 2l-20 13q-12-15-25-28 44-12 113-14-4 5-10 15-16 24-26 44l-28 19-7-12zM170 762q60 76 146.5 118T500 922q114 0 212-58 96-55 151-151 58-98 58-212 0-102-46-192-3-5-9-7t-11 0v1L619 454 175 740l-3 1q-5 4-5.5 10t3.5 11zm722-261q0 106-54 198-52 88-140 140-92 54-198 54-86 0-163.5-36T203 756l24-15q49 40 121 62t152 22q93 0 173-29 78-28 124-77t46-107q0-50-37-96-36-44-36-99v-2q0-15-1-23l87-55q36 76 36 164zM372 647q32 24 73 24h110q33 0 61-16.5t44.5-44.5q16.5-28 16.5-61v-2q0-44-28-78l92-59v7q0 31 11 61.5t31 56.5q30 36 30 77 0 36-23 69t-66 58q-53 34-129 48 13-13 20-28 2-6 0-11.5t-7.5-8Q602 737 596 739t-8 8q-10 24-38 37-23 12-49.5 12T450 784q-27-13-38-37-2-6-8-8t-11.5.5q-5.5 2.5-7.5 8t0 11.5q7 15 20 28-90-17-152-63l119-77zm214-99q0 9-6 15t-15 6q-9 0-15-6t-6-15q0-9 6.5-15t14.5-6q8 0 14.5 6.5T586 548zm-21 50q21 0 35.5-14.5T615 548q0-13-6-24t-17-18l32-21q24 25 24 62v2q0 39-27 66t-66 27H445q-25 0-46-12l117-75q2 19 16 31t33 12zm-65-386q-35 0-68.5 12T370 259q-5 4-5 10t4 10.5q4 4.5 10 5t10-3.5q23-19 52-29.5t59-10.5q30 0 59 10.5t52 29.5q4 4 9 4 8 0 12-5t3.5-11q-.5-6-5.5-10-28-23-61.5-35T500 212z"/></svg>