<svg viewBox="0 0 1244 1083.753" xmlns="http://www.w3.org/2000/svg"><path d="M454 443q6-3 8-9t-2-12q0-2-2-4L333 293q-5-5-12-4.5t-11 5.5q-2 2-2 3-11 24-11 48 0 30 14.5 55t39.5 39.5q25 14.5 53.5 14.5t49.5-11zm-126-98q0-8 1-12l89 89q-4 1-12 1-32 0-55-23t-23-55zm152 51q5 4 11.5 4t10.5-4l3-4q11-24 10-47 0-30-14.5-55T461 250q-25-15-55-15-25 0-47 11-6 3-8 9.5t1 12.5l128 128zm-74-129q32 0 55 23t23 55v11l-89-89h11zm172 78q0-47-23-86.5T492.5 196Q453 173 406 173t-86.5 23Q280 219 257 258.5T234 345q0 47 23 86.5t62.5 62.5q39.5 23 86.5 23t86.5-23q39.5-23 62.5-62.5t23-86.5zm-312 0q0-38 19-70.5t51-51.5q32-19 70-19t70.5 19q32.5 19 51.5 51.5t19 70.5q0 38-19 70.5t-51.5 51Q444 485 406 485t-70-19q-32-19-51-51t-19-70zm640 453v-78q0-7-4.5-11.5T891 704q-6 0-11 4.5t-5 11.5v78q0 6 4.5 10.5T891 813q7 0 11-4.5t4-10.5zm-62-219h-94q-13 0-22-9t-9-22q0-13 9-22t22-9q7 0 11.5-4.5T766 501q0-7-4.5-11.5T750 485q-26 0-44 18.5T688 548q0 26 18 44t44 18h94q13 0 22 9.5t9 22.5v15q0 7 4.5 11.5T891 673q7 0 11-4.5t4-11.5v-15q0-26-18-44.5T844 579zm140 125q-6 0-10.5 4.5T969 720v78q0 6 4.5 10.5T984 813q6 0 11-4.5t5-10.5v-78q0-7-4.5-11.5T984 704zm-46-250q26 0 44-18.5t18-44q0-25.5-18.5-44T938 329h-47q-7 0-11.5 4.5T875 345q0 7 4.5 11t11.5 4h47q13 0 22 9.5t9 22.5q0 13-9 22t-22 9q-26 0-44.5 18T875 485q0 26 18.5 44.5T938 548q13 0 22 9t9 22v78q0 7 4.5 11.5T984 673q6 0 11-4.5t5-11.5v-78q0-26-18-44t-44-18q-13 0-22.5-9.5T906 485q0-13 9.5-22t22.5-9zm-110 63q7 0 11.5-4.5T844 501q0-7-4.5-11.5T828 485h-15q-7 0-11.5 4.5T797 501q0 7 4.5 11.5T813 517h15zm0-188h-15q-7 0-11.5 4.5T797 345q0 7 4.5 11t11.5 4h15q7 0 11.5-4.5T844 345q0-6-4.5-11t-11.5-5zM47 829h719q20 0 33.5-14t13.5-33v-62q0-20-13.5-33.5T766 673H359q-6 0-10.5 4.5T344 688q0 6 4.5 11t10.5 5h360v94H234V688q0-6-4.5-10.5T219 673H47q-19 0-33 13.5T0 720v62q0 19 14 33t33 14zm703-125h16q6 0 10.5 4.5T781 720v62q0 7-4.5 11.5T766 798h-16v-94zM31 720q0-7 4.5-11.5T47 704h156v94H47q-7 0-11.5-4.5T31 782v-62zm250-47q-6 0-10.5 4.5T266 688q0 6 4.5 11t10.5 5h16q7 0 11.5-4.5T313 688q0-7-4.5-11t-11.5-4h-16z"/></svg>