<svg viewBox="0 0 1244 1083.753" xmlns="http://www.w3.org/2000/svg"><path d="M945 339q2 0 4-2t2-4q0-2-2-4t-4-2q-2 0-4 2t-2 4q0 2 2 4t4 2zm0 39q2 0 4-2t2-4q0-2-2-4t-4-2q-2 0-4 2t-2 4q0 2 2 4t4 2zm20 19q6 0 6-6t-6-6q-6 0-6 6 0 2 2 4t4 2zm-20 20q2 0 4-2t2-4q0-2-2-4t-4-2q-2 0-4 2t-2 4q0 2 2 4t4 2zm20 19q6 0 6-6t-6-6q-6 0-6 6 0 2 2 4t4 2zm-20 20q2 0 4-2t2-4q0-2-2-4t-4-2q-2 0-4 2t-2 4q0 2 2 4t4 2zm20 19q6 0 6-6t-6-6q-6 0-6 6 0 2 2 4t4 2zm-20 20q2 0 4-2t2-4q0-2-2-4t-4-2q-2 0-4 2t-2 4q0 2 2 4t4 2zm20 19q6 0 6-6t-6-6q-6 0-6 6 0 2 2 4t4 2zm-20 20q6 0 6-6t-6-6q-2 0-4 2t-2 4q0 2 2 4t4 2zm20 19q6 0 6-6t-6-6q-6 0-6 6 0 2 2 4t4 2zm-20 20q6 0 6-6t-6-6q-2 0-4 2t-2 4q0 2 2 4t4 2zm20 19q6 0 6-6t-6-6q-6 0-6 6 0 2 2 4t4 2zm-20 20q6 0 6-6t-6-6q-2 0-4 2t-2 4q0 2 2 4t4 2zm0 39q6 0 6-6t-6-6q-2 0-4 2t-2 4q0 2 2 4t4 2zm-39-390q2 0 4-2t2-4q0-2-2-4t-4-2q-6 0-6 6 0 2 2 4t4 2zm0 39q2 0 4-2t2-4q0-2-2-4t-4-2q-6 0-6 6 0 2 2 4t4 2zm20 19q6 0 6-6t-6-6q-6 0-6 6 0 2 2 4t4 2zm-20 20q2 0 4-2t2-4q0-2-2-4t-4-2q-2 0-4 2t-2 4q0 2 2 4t4 2zm20 19q6 0 6-6t-6-6q-6 0-6 6 0 2 2 4t4 2zm-20 20q2 0 4-2t2-4q0-2-2-4t-4-2q-2 0-4 2t-2 4q0 2 2 4t4 2zm20 19q6 0 6-6t-6-6q-6 0-6 6 0 2 2 4t4 2zm0 39q6 0 6-6t-6-6q-6 0-6 6 0 2 2 4t4 2zm0 39q6 0 6-6t-6-6q-6 0-6 6 0 2 2 4t4 2zm0 39q6 0 6-6t-6-6q-6 0-6 6 0 2 2 4t4 2zm0 39q6 0 6-6t-6-6q-6 0-6 6 0 2 2 4t4 2zm0 39q6 0 6-6t-6-6q-6 0-6 6 0 2 2 4t4 2zm0 39q6 0 6-6t-6-6q-6 0-6 6 0 2 2 4t4 2zm-20 8q-2 0-4 2t-2 4q0 2 2 4t4 2q6 0 6-6t-6-6zm20 31q6 0 6-6t-6-6q-6 0-6 6t6 6zm-20 8q-2 0-4 2t-2 4q0 2 2 4t4 2q6 0 6-6t-6-6zm20 31q6 0 6-6t-6-6q-6 0-6 6t6 6zm-20 8q-2 0-4 2t-2 4q0 2 2 4.5t4 2.5q2 0 4-2t2-5q0-6-6-6zm-39-495q2 0 4-2t2-4q0-2-2-4t-4-2q-6 0-6 6 0 2 2 4t4 2zm20 19q6 0 6-6.5t-6-6.5q-6 0-6 6 0 3 2 5t4 2zm-20 20q2 0 4-2t2-4q0-2-2-4t-4-2q-6 0-6 6 0 2 2 4t4 2zm20 19q6 0 6-6 0-3-1.5-5t-4.5-2q-6 0-6 7 0 2 2 4t4 2zm0 39q6 0 6-6t-6-6q-6 0-6 6 0 2 2 4t4 2zm0 378q-2 0-4 2t-2 4q0 6 6 6t6-6q0-6-6-6zm-20 20q-2 0-4 2t-2 4q0 2 2 4.5t4 2.5q2 0 4-2t2-5q0-6-6-6zm20 19q-2 0-4 2t-2 4q0 6 6 6t6-6q0-6-6-6zm-20 20q-2 0-4 2t-2 5q0 6 6 6 2 0 4-2t2-4q0-2-2-4.5t-4-2.5zm0 40q-6 0-6 6t6 6q2 0 4-2t2-4q0-2-2-4t-4-2zm-39-613q2 0 4-2t2-4q0-2-2-4t-4-2q-6 0-6 6 0 2 2 4t4 2zm20 18q6 0 6-6t-6-6q-2 0-4 2t-2 4q0 6 6 6zm-20 21q2 0 4-2t2-4q0-2-2-4t-4-2q-6 0-6 6 0 2 2 4t4 2zm20 19q2 0 4-2t2-5q0-6-6-6-2 0-4 2t-2 4.5q0 2.5 2 4.5t4 2zm0 495h-1q22-31 37-67 1 1 3 1 6 0 6-5t-4-7q7-19 16-46h1q6 0 6-5t-4-7q11-50 11-99 0-41-8-86 1-1 1-5t-3-4q-9-31-16-52v-2q0-5-3-6-6-16-22-46 5-2 5-7t-6-5q-1 0-4 1l-1 1q-3-7-8-14v-2q0-6-6-6-3-6-10-15.5T818 242q-13-1-20 7L439 608 248 799q-8 8-7 20.5t10 18.5q31 23 64 39-1 1-1 3t2 4q2 2 5 2t4-3q25 11 49 18 2 4 5 4l3-1q17 5 51 11-2 2-2 4t2 4q2 2 4 2t4-2q2-2 2-4v-2q18 2 27 2 2 6 5 6t5-1.5q2-1.5 2-3.5h27q2 5 5 5t5-1.5q2-1.5 2-3.5l27-2v1q0 2 2 4t4 2q2 0 4-2t2-4v-3q53-7 109-31 1 1 3 1t3.5-1.5q1.5-1.5 1.5-3.5 35-16 67-39 2 5 5 5t5-2q2-2 2-5t-3-4l13-11q1 1 4 1 6 0 6-6 0-2-1-3 8-6 12-10 0 1 2 1t4-2q2-2 2-4v-2q0-2 2-2 3-4 10-11h2q6 0 6-6 0-2-1-2 4-4 10-12 2 2 4 2t4-2q2-2 2-4.5t-2-4.5q2-4 8-12l2-2q2 4 7 4t5-6q0-2-2-4t-4-2zM547 522h98v83H464l83-83zm239 264q-30 30-69 56v-1q0-6-6-6t-6 6q0 2 1.5 3.5t2.5 1.5q-4 3-14 9-1-1-3-1-6 0-6 6-24 13-47 20 0-6-6-6-3 0-5 1.5t-2 4q0 2.5 2 4.5-17 6-48 13 0-4-5.5-4t-5.5 6q-11 2-29 4 2-2 2-4 0-6-6-6t-6 6q0 2 2 4h-3q-19 2-29 2h-3q2 0 4-2t2-4q0-6-6-6t-6 6q0 2 1.5 4t3.5 2q-12 0-34-2 2-2 2-4 0-6-6-6-3 0-5 1.5t-2 4.5l1 3-28-4q0-2-2-3.5t-4.5-1.5q-2.5 0-4.5 2-16-3-48-13v-2q0-6-6-6-3 0-5 3-35-13-68-34 1 0 1-2 0-6-6-6-3 0-5 2l-16-11q-4-4-4-8.5t3-7.5l189-189h330q12 0 20.5-8.5T807 593v-58q0-12-8.5-20t-20.5-8H562l247-247q3-3 7-3h1q4 0 8 4 26 36 40 66-4 1-4 6 0 2 2 4t4 2q2 0 3-1 11 26 17 47-2 0-4 2t-2 4q0 2 2 4t4 2q2 0 3-1 11 40 13 88-3 1-3 5.5t4 5.5l-1 28q-3 1-3 4.5t2 5.5q-3 46-16 86-5 2-5 6 0 2 2 4-13 40-31 70-2-2-4-2t-4 2q-2 2-2 5t4 5q-26 43-60 77zM661 605v-83h117q5 0 9 4t4 9v58q0 5-4 8.5t-9 3.5H661zm187 170q-2 0-4 2t-2 4q0 6 6 6t6-6q0-2-2-4t-4-2zm-20 21q-6 0-6 6t6 6q2 0 4-2t2-4q0-2-2-4t-4-2zm20 18q-2 0-4 2t-2 4q0 6 6 6t6-6q0-2-2-4t-4-2zm-20 21q-6 0-6 6t6 6q2 0 4-2t2-4q0-2-2-4t-4-2zm-39-691q2 0 4-2t2-4q0-2-2-4.5t-4-2.5q-2 0-4 2t-2 5q0 6 6 6zm20 18q6 0 6-6t-6-6q-2 0-4 2t-2 4q0 6 6 6zm-20 21q2 0 4-2t2-4q0-2-2-4t-4-2q-6 0-6 6t6 6zm20 18q6 0 6-6t-6-6q-2 0-4 2t-2 4q0 6 6 6zm0 613q-2 0-4 2t-2 4q0 6 6 6t6-6q0-2-2-4t-4-2zm-20 21q-6 0-6 6t6 6q6 0 6-6 0-2-2-4t-4-2zm20 19q-6 0-6 6 0 2 2 4t4 2q2 0 4-2t2-4q0-6-6-6zm-20 20q-6 0-6 6t6 6q6 0 6-6 0-2-2-4t-4-2zm-39-769q2 0 4-2t2-5q0-6-6-6-2 0-4 2t-2 4q0 7 6 7zm20 18q6 0 6-6t-6-6q-2 0-4 2t-2 4q0 6 6 6zm-20 21q2 0 4-2t2-4q0-2-2-4.5t-4-2.5q-2 0-4 2t-2 5q0 6 6 6zm20 18q6 0 6-6t-6-6q-2 0-4 2t-2 4q0 6 6 6zm0 692q-6 0-6 6 0 2 2 4t4 2q2 0 4-2t2-4q0-6-6-6zm-20 20q-6 0-6 6t6 6q6 0 6-6 0-2-2-4t-4-2zm-39-769q2 0 4-2t2-5q0-6-6-6-2 0-4 2t-2 4q0 7 6 7zm20 18q6 0 6-6t-6-6q-2 0-4 2t-2 4q0 6 6 6zm0 731q-6 0-6 6 0 2 2 4t4 2q2 0 4-2t2-4q0-6-6-6zm-20 20q-6 0-6 6t6 6q6 0 6-6 0-2-2-4t-4-2zm20 19q-6 0-6 6 0 2 2 4t4 2q2 0 4-2t2-4q0-6-6-6zm-20 20q-6 0-6 6t6 6q6 0 6-6 0-2-2-4t-4-2zM672 65q6 0 6-6t-6-6q-2 0-4 2t-2 4q0 6 6 6zm20 19q6 0 6-6t-6-6q-2 0-4 2t-2 4q0 6 6 6zm0 809q-6 0-6 6 0 2 2 4t4 2q2 0 4-2t2-4q0-6-6-6zm-20 20q-6 0-6 6t6 6q6 0 6-6 0-2-2-4t-4-2zm20 19q-6 0-6 6 0 2 2 4t4 2q2 0 4-2t2-4q0-6-6-6zm-39-39q-6 0-6 6t6 6q6 0 6-6t-6-6zm-20 20q-3 0-5 2t-2 4q0 2 2 4t5 2q6 0 6-6 0-2-2-4t-4-2zm20 19q-6 0-6 6t6 6q6 0 6-6t-6-6zm-20 20q-3 0-5 2t-2 4q0 2 2 4t5 2q6 0 6-6 0-2-2-4t-4-2zM614 45q6 0 6-6t-6-6q-2 0-4 2t-2 4q0 6 6 6zm-21 868q-2 0-4 2t-2 4q0 2 2 4t4 2q2 0 4.5-2t2.5-4q0-2-2-4t-5-2zm21 19q-6 0-6 6t6 6q6 0 6-6t-6-6zm-21 20q-2 0-4 2t-2 4q0 2 2 4t4 2q2 0 4.5-2t2.5-4q0-2-2-4t-5-2zm-18-20q-6 0-6 6t6 6q6 0 6-6t-6-6zm-21 20q-2 0-4 2t-2 4q0 2 2 4t4 2q2 0 4-2t2-4q0-6-6-6zm-18-20q-6 0-6 6t6 6q6 0 6-6t-6-6zm-21 20q-2 0-4 2t-2 4q0 2 2 4t4 2q2 0 4-2t2-4q0-6-6-6zm21 19q-6 0-6 6t6 6q6 0 6-6t-6-6zm-39-39q-6 0-6 6t6 6q6 0 6-6t-6-6zm-21 20q-2 0-4 2t-2 4q0 2 2 4t4 2q2 0 4-2t2-4q0-6-6-6zm21 19q-6 0-6 6t6 6q6 0 6-6t-6-6zm-39-39q-7 0-7 6 0 2 2 4t5 2q6 0 6-6t-6-6zm-21 20q-2 0-4 2t-2 4q0 2 2 4t4 2q2 0 4-2t2-4q0-6-6-6zm21 19q-7 0-7 6 0 2 2 4t5 2q6 0 6-6t-6-6zm-60-58q-2 0-4 2t-2 4q0 2 2 4t4 2q2 0 4-2t2-4q0-6-6-6zm20 19q-6 0-6 6 0 2 2 4t4 2q2 0 4.5-2t2.5-4q0-6-7-6zm-20 20q-2 0-4 2t-2 4q0 2 2 4t4 2q2 0 4-2t2-4q0-6-6-6zm-39-39q-2 0-4 2t-2 4q0 2 2 4t4 2q2 0 4-2t2-4q0-2-2-4t-4-2zm20 19q-6 0-6 6 0 2 2 4t4 2q2 0 4-2t2-4q0-6-6-6zm-20 20q-2 0-4 2t-2 4q0 2 2 4t4 2q2 0 4-2t2-4q0-2-2-4t-4-2zm-19-59q-6 0-6 6 0 2 2 4t4 2q2 0 4-2t2-4q0-6-6-6zm-20 20q-2 0-4 2t-2 4q0 2 2 4t4 2q2 0 4-2t2-4q0-2-2-4t-4-2zm20 19q-6 0-6 6 0 2 2 4t4 2q2 0 4-2t2-4q0-6-6-6zm-59-58q-6 0-6 6t6 6q2 0 4-2t2-4q0-2-2-4t-4-2zm20 19q-6 0-6 6 0 2 2 4t4 2q2 0 4-2t2-4q0-6-6-6zm-20 20q-2 0-4 2t-2 4q0 2 2 4t4 2q2 0 4-2t2-4q0-2-2-4t-4-2zm-39-78q-6 0-6 6t6 6q2 0 4-2t2-4q0-2-2-4t-4-2zm20 19q-6 0-6 6 0 2 2 4t4 2q2 0 4-2t2-4q0-6-6-6zm-20 20q-6 0-6 6t6 6q2 0 4-2t2-4q0-2-2-4t-4-2zm20 19q-6 0-6 6 0 2 2 4t4 2q2 0 4-2t2-4q0-6-6-6zm-59-97q-6 0-6 6t6 6q2 0 4-2t2-4q0-2-2-4t-4-2zm20 18q-2 0-4 2t-2 4q0 6 6 6t6-6q0-2-2-4t-4-2zm-20 21q-6 0-6 6t6 6q2 0 4-2t2-4q0-2-2-4t-4-2zm20 19q-6 0-6 6 0 2 2 4t4 2q2 0 4-2t2-4q0-6-6-6zm-59-58q-6 0-6 6t6 6q6 0 6-6 0-2-2-4t-4-2zm20 18q-2 0-4 2t-2 4q0 6 6 6t6-6q0-2-2-4t-4-2zm0 40q-6 0-6 6 0 2 2 4t4 2q2 0 4-2t2-4q0-6-6-6zm-59-98q-6 0-6 6.5t6 6.5q6 0 6-6 0-2-2-4.5t-4-2.5zm20 19q-2 0-4 2t-2 4q0 6 6 6t6-6q0-2-2-4t-4-2zm0 39q-2 0-4 2t-2 4q0 6 6 6t6-6q0-2-2-4t-4-2zm-59-97q-6 0-6 6 0 3 1.5 5t4.5 2q6 0 6-6.5t-6-6.5zm20 19q-2 0-4 2t-2 4q0 6 6 6t6-6q0-2-2-4t-4-2zm-59-97q-6 0-6 6t6 6q6 0 6-6t-6-6zm20 19q-2 0-4 2t-2 4q0 6 6 6t6-6q0-2-2-4t-4-2zm0 39q-2 0-4 2t-2 4q0 6 6 6t6-6q0-2-2-4t-4-2zm19-19q-6 0-6 6 0 3 1.5 5t4.5 2q6 0 6-6.5t-6-6.5zm98 109q6 0 6-6t-6-6q-2 0-4 2t-2 4q0 6 6 6zm625-546q2 0 4-2t2-5q0-6-6-6-2 0-4 2t-2 4.5q0 2.5 2 4.5t4 2zm58 137q2 0 4-2t2-4q0-2-2-4t-4-2q-2 0-4 2t-2 4q0 2 2 4t4 2zm0 39q2 0 4-2t2-4q0-2-2-4t-4-2q-2 0-4 2t-2 4q0 2 2 4t4 2zm20 19q6 0 6-6t-6-6q-6 0-6 6 0 2 2 4t4 2zm-20 20q2 0 4-2t2-4q0-2-2-4t-4-2q-2 0-4 2t-2 4q0 2 2 4t4 2zm20 19q6 0 6-6t-6-6q-6 0-6 6 0 2 2 4t4 2zm-20 20q2 0 4-2t2-4q0-2-2-4t-4-2q-2 0-4 2t-2 4q0 2 2 4t4 2zm20 19q6 0 6-6t-6-6q-6 0-6 6 0 2 2 4t4 2zm-20 20q6 0 6-6t-6-6q-2 0-4 2t-2 4q0 2 2 4t4 2zm20 19q6 0 6-6t-6-6q-6 0-6 6 0 2 2 4t4 2zm-20 20q6 0 6-6t-6-6q-2 0-4 2t-2 4q0 2 2 4t4 2zm20 19q6 0 6-6t-6-6q-6 0-6 6 0 2 2 4t4 2zm-20 20q6 0 6-6t-6-6q-2 0-4 2t-2 4q0 2 2 4t4 2zm0 39q6 0 6-6t-6-6q-2 0-4 2t-2 4q0 2 2 4t4 2zm-19-332q2 0 4-2t2-4q0-2-2-4t-4-2q-6 0-6 6 0 2 2 4t4 2zm0 273q2 0 4-2t2-4q0-2-2-4t-4-2q-2 0-4 2t-2 4q0 2 2 4t4 2zm0 39q2 0 4-2t2-4q0-2-2-4t-4-2q-2 0-4 2t-2 4q0 2 2 4t4 2zm-20 8q-2 0-4 2t-2 4q0 2 2 4t4 2q6 0 6-6t-6-6zm20 31q6 0 6-6t-6-6q-2 0-4 2t-2 4q0 6 6 6zm-20 8q-2 0-4 2t-2 4q0 2 2 4t4 2q6 0 6-6t-6-6zm0 39q-2 0-4 2t-2 4q0 2 2 4.5t4 2.5q2 0 4-2t2-5q0-6-6-6zm-19-59q-2 0-4 2t-2 4q0 6 6 6t6-6q0-2-2-4t-4-2zm-20 20q-6 0-6 6t6 6q6 0 6-6t-6-6zm20 19q-2 0-4 2t-2 4q0 6 6 6t6-6q0-2-2-4t-4-2zm-20 20q-6 0-6 6 0 3 1.5 5t4.5 2q6 0 6-6.5t-6-6.5zm20 19q-2 0-4 2t-2 4q0 6 6 6t6-6q0-2-2-4t-4-2zm-20 20q-6 0-6 6.5t6 6.5q6 0 6-6 0-2-2-4.5t-4-2.5zm-19-59q-2 0-4 2t-2 4q0 6 6 6t6-6q0-2-2-4t-4-2zm0 39q-2 0-4 2t-2 4q0 6 6 6t6-6q0-2-2-4t-4-2zm-20 20q-6 0-6 6.5t6 6.5q6 0 6-6 0-2-2-4.5t-4-2.5zm20 19q-2 0-4 2t-2 4q0 6 6 6t6-6q0-2-2-4t-4-2zm-20 21q-6 0-6 6t6 6q6 0 6-6 0-2-2-4t-4-2zm-19-21q-2 0-4 2t-2 4q0 6 6 6t6-6q0-2-2-4t-4-2zm-20 21q-6 0-6 6t6 6q6 0 6-6 0-2-2-4t-4-2zm20 18q-2 0-4 2t-2 4q0 6 6 6t6-6q0-2-2-4t-4-2zm-39-39q-2 0-4 2t-2 4q0 6 6 6t6-6q0-2-2-4t-4-2zm-20 21q-6 0-6 6t6 6q6 0 6-6 0-2-2-4t-4-2zm20 18q-2 0-4 2t-2 4q0 6 6 6t6-6q0-2-2-4t-4-2zm-20 21q-6 0-6 6t6 6q6 0 6-6 0-2-2-4t-4-2zm-19-21q-6 0-6 6t6 6q6 0 6-6 0-2-2-4t-4-2zm-20 21q-7 0-7 6t6.5 6q6.5 0 6.5-6 0-2-2-4t-4-2zm20 19q-6 0-6 6t6 6q6 0 6-6t-6-6zm-60-19q-6 0-6 6t6 6q2 0 4.5-2t2.5-4q0-2-2-4t-5-2zm21 19q-6 0-6 6t6 6q6 0 6-6t-6-6zm-21 20q-6 0-6 6t6 6q2 0 4.5-2t2.5-4q0-2-2-4t-5-2zm-18-20q-6 0-6 6t6 6q6 0 6-6t-6-6zm-21 20q-6 0-6 6t6 6q2 0 4-2t2-4q0-6-6-6zm-18-20q-6 0-6 6t6 6q6 0 6-6t-6-6zm-21 20q-6 0-6 6t6 6q2 0 4-2t2-4q0-6-6-6zm-39 0q-6 0-6 6t6 6q2 0 4-2t2-4q0-6-6-6zm-39 0q-6 0-6 6t6 6q2 0 4-2t2-4q0-6-6-6zm-39 0q-6 0-6 6t6 6q2 0 4-2t2-4q0-6-6-6zm-58-20q-6 0-6 6 0 2 2 4t4 2q2 0 4-2t2-4q0-6-6-6zm39 0q-6 0-6 6 0 2 2 4t4 2q2 0 4-2t2-4q0-6-6-6zm39 0q-6 0-6 6 0 2 2 4t4 2q2 0 4.5-2t2.5-4q0-6-7-6zm40 0q-7 0-7 6 0 2 2 4t5 2q6 0 6-6t-6-6zm39 0q-6 0-6 6t6 6q6 0 6-6t-6-6zm117-40q-6 0-6 6t6 6q6 0 6-6 0-2-2-4t-4-2zm97-58q-6 0-6 6.5t6 6.5q6 0 6-6 0-2-2-4.5t-4-2.5zm20-20q-2 0-4 2t-2 4q0 6 6 6t6-6q0-2-2-4t-4-2zm19-19q-6 0-6 6 0 3 1.5 5t4.5 2q6 0 6-6.5t-6-6.5zm78-117q-2 0-4 2t-2 4q0 2 2 4t4 2q6 0 6-6t-6-6zm20-47q2 0 4-2t2-4q0-2-2-4t-4-2q-2 0-4 2t-2 4q0 2 2 4t4 2zm-567-90q0 3 2.5 5t5.5 2q3 0 5.5-2t2.5-5q0-8 6-14l1-2q8-11 8-23t-9-23q-6-6-6-14 0-5 1-7t4-6l1-1q9-11 9-23.5t-9-23.5q-6-8-6-15t6-13q9-11 9-24 0-3-2.5-5.5T304 266q-3 0-5.5 2.5T296 274q0 8-6 14-9 11-9 23.5t9 23.5q6 7 6 14.5t-6 13.5l-1 2q-8 11-8 23t9 23q6 6 6 14 0 5-1 7t-4 6l-1 1q-9 11-9 24zm-80 17q0 3 2.5 5.5t5.5 2.5q3 0 5.5-2.5t2.5-5.5q0-8 6-14l1-2q8-11 8-23t-9-23q-6-6-6-14 0-5 1-7t4-6l1-1q9-11 9-23.5t-9-23.5l-1-1q-3-4-4-6t-1-7q0-8 6-14 9-11 9-24 0-3-2.5-5.5T224 283q-3 0-5.5 2.5T216 291q0 8-6 14-9 11-9 23t8 23l1 2q6 6 6 13t-6 15q-9 11-9 23.5t9 23.5q6 6 6 14t-6 14q-9 11-9 24zm653-333Q783 76 691.5 38.5T500 1Q400 1 308.5 38.5T146 147Q75 218 37.5 309.5T0 501q0 100 37.5 191.5T146 855q71 71 162.5 108.5T500 1001q100 0 191.5-37.5T854 855q71-71 108.5-162.5T1000 501q0-100-37.5-191.5T854 147zm-78 752q0-6-6-6t-6 6q0 3 4 5-5 4-15 10-1-1-3-1-6 0-6 6-30 18-69 34-1-1-4-1t-5 4q-45 16-86 23l1-2q0-6-6-6t-6 6q0 2 1 3-29 5-70 5-38 0-76-6l1-2q0-6-6.5-6t-6.5 6q-58-11-109-34 4 0 4-5.5t-6-5.5q-6 0-6 6 0 1 1 2-30-14-68-38 1-1 1-3 0-6-6-6-3 0-5 2l-12-10q3-2 3-5 0-6-5-6t-7 4q-17-13-37-33 2 2 4 2t4-2q2-2 2-4t-2-4q-2-2-4-2-6 0-6 6 0 3 1 4-20-20-33-37 5-3 5-6 0-6-5.5-6t-6.5 4l-10-14q3-2 3-4.5t-2-4.5q-2-2-4-2t-4 2q-46-67-69-149 1 0 1-3.5t-3-4.5q-4-12-7-29 1 1 3.5 1t4.5-2q2-2 2-4t-2-4q-2-2-4.5-2t-4.5 3q-7-38-7-82 0-131 66-244 64-110 174-174 113-66 244-66 17 0 49 2l-1 1q0 6 6 6t6-6q38 5 87 19 0 6 6 6 2 0 4-2 28 9 70 30l-1 1q-1 3-1 4 0 6 6 6 2 0 4-1.5t2-3.5q59 33 107 81.5T924 268q-4 2-4 5t2 5q2 2 4 2t4-2q18 34 30 71-1 1-1 3t3 5q15 46 19 88-3 1-3 5t4 6q2 18 2 27-2 0-4 2t-2 4q0 2 2 4t4 2v27q-2 0-4 2t-2 4q0 2 1.5 4t3.5 2q0 14-3 28l-1 1q-1 3-1 4l1 4q-2 15-9 45l-1 5q-2-2-4-2t-4 2q-2 2-2 4t2 4q2 2 4 2h2q-6 22-17 50-1-3-4-3t-5 2q-2 2-2 4t2 4q2 2 4 2h1q-16 37-36 68-2-2-4-2t-4 2q-2 2-2 5.5t4 4.5l-12 17q1-1 1-4 0-6-6-6t-6 6q0 6 6 6 3 0 5-2-50 68-116 114zM182 761h2q10 0 18-8l550-550q8-7 7-20t-10-19q-54-40-117.5-61T500 82q-84 0-160.5 31.5t-136 91q-59.5 59.5-91 136T81 501q0 68 21 131.5T163 750q6 9 19 11zm145-156h-42v-83h125l-83 83zM500 97q65 0 126 20.5T740 176q4 4 4 8.5t-3 7.5L426 507H262q-12 0-20 8t-8 20v58q0 11 8 19.5t20 8.5h50L191 742q-3 3-7.5 3t-8.5-4q-38-53-58.5-114T96 501q0-110 55-204 54-91 145-145 94-55 204-55z"/></svg>