<svg viewBox="0 0 1244 1083.753" xmlns="http://www.w3.org/2000/svg"><path d="M951 294q2 0 4-2t2-4q0-2-2-4t-4-2q-2 0-4 2t-2 4q0 6 6 6zm-39-39q2 0 4-2t2-4q0-2-2-4t-4-2q-2 0-4 2t-2 4q0 6 6 6zm20 19q2 0 4-2t2-4q0-2-2-4t-4-2q-6 0-6 6 0 2 2 4t4 2zm-20 20q2 0 4-2t2-4q0-2-2-4t-4-2q-2 0-4 2t-2 4q0 6 6 6zm20 19q2 0 4-2t2-4q0-2-2-4t-4-2q-6 0-6 6 0 2 2 4t4 2zm0 300q-2 0-4 2t-2 4q0 6 6 6t6-6q0-2-2-4t-4-2zm-20 21q-6 0-6 6t6 6q6 0 6-6t-6-6zm-19-399q2 0 4-2t2-4q0-2-2-4t-4-2q-6 0-6 6 0 2 2 4t4 2zm0 39q2 0 4-2t2-4q0-2-2-4t-4-2q-6 0-6 6 0 2 2 4t4 2zm0 378q-2 0-4 2t-2 4q0 6 6 6t6-6q0-2-2-4t-4-2zm-20 21q-6 0-6 6t6 6q6 0 6-6t-6-6zm-19-21q-2 0-4 2t-2 4q0 6 6 6t6-6q0-2-2-4t-4-2zm-20 21q-6 0-6 6t6 6q6 0 6-6t-6-6zm20 18q-2 0-4 2t-2 4q0 6 6 6t6-6q0-2-2-4t-4-2zm-20 21q-6 0-6 6t6 6q6 0 6-6t-6-6zm-19-21q-2 0-4 2t-2 4q0 6 6 6t6-6q0-2-2-4t-4-2zm-20 21q-6 0-6 6t6 6q6 0 6-6t-6-6zm20 18q-2 0-4 2t-2 4.5q0 2.5 2 4.5t4 2q2 0 4-2t2-4.5q0-2.5-2-4.5t-4-2zm-20 21q-6 0-6 6t6 6q6 0 6-6t-6-6zm-39-39q-7 0-7 6 0 2 2 4t5 2q6 0 6-6t-6-6zm20 18q-6 0-6 6.5t6 6.5q6 0 6-7 0-2-2-4t-4-2zm-20 21q-7 0-7 6 0 2 2 4t5 2q6 0 6-6t-6-6zm20 19q-6 0-6 6t6 6q6 0 6-6t-6-6zm-20 20q-7 0-7 6 0 2 2 4t5 2q6 0 6-6t-6-6zm-19-60q-6 0-6 6.5t6 6.5q6 0 6-7 0-2-2-4t-4-2zm-21 21q-6 0-6 6 0 2 2 4t4 2q2 0 4.5-2t2.5-4q0-6-7-6zm21 19q-6 0-6 6t6 6q6 0 6-6t-6-6zm-21 20q-6 0-6 6 0 2 2 4t4 2q2 0 4.5-2t2.5-4q0-6-7-6zm21 19q-6 0-6 6t6 6q6 0 6-6t-6-6zm-39-79q-6 0-6 6.5t6 6.5q6 0 6-7 0-2-2-4t-4-2zm-21 21q-6 0-6 6 0 2 2 4t4 2q2 0 4-2t2-4q0-6-6-6zm21 19q-6 0-6 6t6 6q6 0 6-6t-6-6zm-21 20q-6 0-6 6 0 2 2 4t4 2q2 0 4-2t2-4q0-6-6-6zm21 19q-6 0-6 6t6 6q6 0 6-6t-6-6zm-21 20q-2 0-4 2t-2 4q0 2 2 4t4 2q2 0 4-2t2-4q0-6-6-6zm-39-78q-6 0-6 6 0 2 2 4t4 2q2 0 4-2t2-4q0-6-6-6zm21 19q-6 0-6 6t6 6q6 0 6-6t-6-6zm-21 20q-6 0-6 6 0 2 2 4t4 2q2 0 4-2t2-4q0-6-6-6zm21 19q-6 0-6 6t6 6q6 0 6-6t-6-6zm-21 20q-2 0-4 2t-2 4q0 2 2 4t4 2q2 0 4-2t2-4q0-6-6-6zm21 19q-6 0-6 6t6 6q6 0 6-6t-6-6zm-39-78q-7 0-7 6 0 2 2 4t5 2q6 0 6-6t-6-6zm-21 20q-6 0-6 6 0 2 2 4t4 2q2 0 4-2t2-4q0-6-6-6zm21 19q-7 0-7 6 0 2 2 4t5 2q6 0 6-6t-6-6zm-21 20q-2 0-4 2t-2 4q0 2 2 4t4 2q2 0 4-2t2-4q0-6-6-6zm21 19q-7 0-7 6 0 2 2 4t5 2q6 0 6-6t-6-6zm-21 20q-2 0-4 2t-2 4q0 2 2 4t4 2q2 0 4-2t2-4q0-6-6-6zm-19-98q-6 0-6 6 0 2 2 4t4 2q2 0 4.5-2t2.5-4q0-6-7-6zm-20 20q-6 0-6 6 0 2 2 4t4 2q2 0 4-2t2-4q0-6-6-6zm20 19q-6 0-6 6 0 2 2 4t4 2q2 0 4.5-2t2.5-4q0-6-7-6zm-20 20q-2 0-4 2t-2 4q0 2 2 4t4 2q2 0 4-2t2-4q0-6-6-6zm20 19q-6 0-6 6 0 2 2 4t4 2q2 0 4.5-2t2.5-4q0-6-7-6zm-20 20q-2 0-4 2t-2 4q0 2 2 4t4 2q2 0 4-2t2-4q0-6-6-6zm-39-78q-6 0-6 6 0 2 2 4t4 2q2 0 4-2t2-4q0-6-6-6zm20 19q-6 0-6 6 0 2 2 4t4 2q2 0 4-2t2-4q0-6-6-6zm-20 20q-2 0-4 2t-2 4q0 2 2 4t4 2q2 0 4-2t2-4q0-2-2-4t-4-2zm20 19q-6 0-6 6 0 2 2 4t4 2q2 0 4-2t2-4q0-6-6-6zm-20 20q-2 0-4 2t-2 4q0 2 2 4t4 2q2 0 4-2t2-4q0-2-2-4t-4-2zm-19-59q-6 0-6 6 0 2 2 4t4 2q2 0 4-2t2-4q0-6-6-6zm-20 20q-2 0-4 2t-2 4q0 2 2 4t4 2q2 0 4-2t2-4q0-2-2-4t-4-2zm20 19q-6 0-6 6 0 2 2 4t4 2q2 0 4-2t2-4q0-6-6-6zm-20 20q-2 0-4 2t-2 4q0 2 2 4t4 2q2 0 4-2t2-4q0-2-2-4t-4-2zm-19-59q-6 0-6 6 0 2 2 4t4 2q2 0 4-2t2-4q0-6-6-6zm-20 20q-2 0-4 2t-2 4q0 2 2 4t4 2q2 0 4-2t2-4q0-2-2-4t-4-2zm20 19q-6 0-6 6 0 2 2 4t4 2q2 0 4-2t2-4q0-6-6-6zm-20 20q-2 0-4 2t-2 4q0 2 2 4t4 2q2 0 4-2t2-4q0-2-2-4t-4-2zm-19-59q-6 0-6 6 0 2 2 4t4 2q2 0 4-2t2-4q0-6-6-6zm-20 20q-2 0-4 2t-2 4q0 2 2 4t4 2q2 0 4-2t2-4q0-2-2-4t-4-2zm20 19q-6 0-6 6 0 2 2 4t4 2q2 0 4-2t2-4q0-6-6-6zm-20 20q-2 0-4 2t-2 4q0 2 2 4t4 2q2 0 4-2t2-4q0-2-2-4t-4-2zm-19-59q-6 0-6 6 0 2 2 4t4 2q2 0 4-2t2-4q0-6-6-6zm-20 20q-2 0-4 2t-2 4q0 2 2 4t4 2q2 0 4-2t2-4q0-2-2-4t-4-2zm20 19q-6 0-6 6 0 2 2 4t4 2q2 0 4-2t2-4q0-6-6-6zm-39-39q-6 0-6 6 0 2 2 4t4 2q2 0 4-2t2-4q0-6-6-6zm-20 20q-6 0-6 6t6 6q6 0 6-6 0-2-2-4t-4-2zm20 19q-6 0-6 6 0 2 2 4t4 2q2 0 4-2t2-4q0-6-6-6zm-59-58q-6 0-6 6t6 6q6 0 6-6t-6-6zm20 19q-6 0-6 6 0 2 2 4t4 2q2 0 4-2t2-4q0-6-6-6zm-20 20q-6 0-6 6t6 6q6 0 6-6 0-2-2-4t-4-2zm-39-39q-6 0-6 6t6 6q6 0 6-6t-6-6zm20 19q-6 0-6 6 0 2 2 4t4 2q2 0 4-2t2-4q0-6-6-6zm-39-39q-6 0-6 6 0 2 2 4t4 2q2 0 4-2t2-4q0-6-6-6zm370-19q-6 0-6 6 0 2 2 4t4 2q2 0 4-2t2-4q0-6-6-6zm-117 39q-6 0-6 6 0 2 2 4t4 2q2 0 4-2t2-4q0-6-6-6zm-156 12q2 0 4-2t2-4q0-2-2-4t-4-2q-6 0-6 6t6 6zm-175-72q-6 0-6 6.5t6 6.5q6 0 6-6 0-3-2-5t-4-2zm849-333q0-72-38-137.5T853 144q-71-50-162.5-76.5T500 41q-99 0-190 26.5T147.5 144Q76 194 38 259.5T0 397q0 16 1 24-1 10-1 31 0 93 45 180 41 80 117 146 48 40 95 67v2q0 31 32.5 57.5t88 41.5Q433 961 500 961t122.5-15q55.5-15 88-41.5T743 847v-3q46-25 95-66 76-66 117-146 45-87 45-180 0-21-1-31 1-8 1-24zm-984 0q0-92 66-172 64-77 174-122 113-46 244-46 109 0 206 32 95 31 163 87.5T966 304q-1 1-1 4t4 5q3 7 7 21l-19-9q-2-4-5.5-4t-4.5 1q-14-5-47-10l-3-1q2-2 2-4 0-6-6-6t-6 6q0 2 1 3-38-5-56-5-7-26-29-46-26-22-51-33-28-26-49-38-45-25-113.5-34T463 157q-47 9-83 34-21 15-42 40l-5 6q-7 6-8 7-4 0-16-4-32-10-57-9-44 1-88 26-37 21-58 56-13 20-25 57l-1 3q-9 32-17 34-19 5-45 24-2-10-2-34zm796 23q-8 12-5 25t15 21q8 6 18 6 8 0 15.5-4t12.5-11l38-59q24 24 22 61-1 19-10.5 34.5T892 520q-53 34-90 48t-51 5q-14-9-16-49t8-101q4-19 15-34t26.5-23q15.5-8 32.5-9.5t33 4.5l-38 59zm53-52q20 12 29 20l-39 60q-4 6-11 7.5t-13-2q-6-3.5-7.5-10.5t1.5-14l40-61zm-162-71q-7 9-5 25 1 12 15 21 8 6 18 6 5 0 7-1 13-3 21-14l38-59q12 12 17.5 28t4.5 33q0 3-1 4-22 2-41.5 12.5t-32 28.5Q732 399 728 421l-2 9q-65 33-83 20-14-9-16-49t8-101q3-19 14-34t27.5-24q16.5-9 36.5-9 13 0 28 5l-38 59zm53-52q20 12 29 20l-39 60q-5 7-11.5 8t-12.5-2.5q-6-3.5-7.5-10.5t1.5-14l40-61zM500 945q-58 0-108.5-12.5t-82-33.5Q278 878 274 853q54 29 112.5 44T500 912q55 0 113.5-15T727 853q-4 25-36 46t-82.5 33.5Q558 945 500 945zm474-409q-1-1-3-1t-4 2q-2 2-2 4 0 6 6 6-4 17-16 49-2-2-4-2-6 0-6 7 0 4 5 6-13 30-37 66h-1q-6 0-6 6v2l-9 12q-2-2-4-2t-4 2q-2 2-2 4 0 4 3 6-5 5-11 13-2-4-7-4t-5 5q0 5 5 7l-12 12q0-2-2-4t-4-2q-2 0-4 2t-2 4.5q0 2.5 2 4.5t4 2q-5 4-14 13-2-5-7-5t-5 5q0 5 4 7l-12 10q-1-3-5-3-6 0-6 6 0 2 2 4l-13 11q-1-1-3-1-6 0-6 6v1q-32 23-68 42 2-2 2-4t-2-4q-2-2-5-2-6 0-6 6 0 2 2 4t4 2h1l-16 8q-1-1-3-1t-4 1.5q-2 1.5-2 3.5-32 14-48 19-2-4-5-4t-5 2q-2 2-2 3.5t1 2.5q-26 8-49 12-1-1-4-1t-5 3l-28 4v-1q0-6-6-6t-6 6l1 2q-10 1-29 1 1-1 1-3 0-6-6-6t-6 6q0 2 2 4l-29-2v-2q0-6-6-6t-6 6v1l-27-3q-1-4-6-4-2 0-4 2-15-3-44-11l-6-2q1 0 1-2t-2-4q-2-2-5-2t-5 5q-22-7-46-18v-1q0-6-6-6-3 0-5 2-33-14-67-37-2-4-6-4h-1q-4-2-12-8l-2-2 1-3q0-6-6-6-3 0-5 2l-14-10q6-2 6-7t-6-5q-6 0-6 6l-12-9-5-5q1 1 3 1t4-2q2-2 2-4t-2-4q-2-2-4-2-6 0-6 6v3q-19-18-37-37l4 1q2 0 4-2t2-4q0-2-2-4t-4.5-2q-2.5 0-4.5 1.5t-2 4.5l1 2q-44-50-71-106-29-59-36-122 35 91 130 157 71 50 161.5 77T500 753q77 0 153-17v1q0 6 6 6t6-6l-1-4q27-7 47-13 2 4 5 4t5-2q2-2 2-4l-1-2q24-8 48-19 0 6 6 6t6-6q0-4-3-5 36-17 74-43l2-2q8-6 12-8v1q0 6 6 6t6-6q0-2-2-4t-4-2l15-12q2 3 5 3 6 0 6-6 0-4-3-5l11-10q2 3 4.5 3t4.5-2q2-2 2-5t-3-4q4-5 12-13 2 3 5 3 6 0 6-5t-4-7q3-3 9-12l2-3v2q0 7 6 7t6-6.5q0-6.5-6-6.5-2 0-4 2 21-30 35-65-4 30-8 44zm10-129q-2 2-2 6 1 2 1 8-9 87-76 160-66 72-172 113-109 43-235 43-119 0-223-38-102-38-169.5-103.5T22 449q7-7 18-14 14-9 27-13 10-3 17-14 4-7 10-27l2-5q11-35 23-53 19-33 53-52 40-23 79-24 22-1 53 8l5 1q15 5 19.5 3.5t8.5-5q4-3.5 11-11.5l2-3q22-23 40-36 33-23 76-32 55-11 120.5-2.5T695 202q9 4 23 15-29 0-49 11t-33 29q-13 18-17 41-23 141 15 165 9 6 23 6 24 0 67-20-15 116 19 137 9 6 23 6 43 0 134-59 19-12 30.5-31t13-41.5q1.5-22.5-6.5-43T912 382q-24-21-51-33-15-7-27-8l1-4v-16q41 2 74 8 49 9 67 24 2 2 5 2 3 19 3 42v10zM631 558q8-6 12.5-15.5T648 523q0-18-13-31t-32-13q-19 0-31.5 13T559 523q0 18 12 30.5t29 14.5q-17 14-17 33.5t13 32.5q13 13 32 13t31.5-13q12.5-13 12.5-31t-12-30.5Q648 560 631 558zm-123 16q-12 0-22 5.5T470 595q1-2 1-8 0-19-13-32t-32-13q-19 0-31.5 13T382 586q0 18 11.5 31t28.5 14q-4 8-4 19 0 19 13 32t31 13q15 0 27-9t16-23h3q19 0 32-13t13-32q0-19-13-31.5T508 574zm-209-25q-19 0-32 13t-13 32q0 19 13 31.5t32 12.5q19 0 31.5-13t12.5-31q0-18-13-31.5T299 549zm-34-181q6-11 6.5-20.5t-4.5-17q-5-7.5-14-10.5t-21-2q-20 1-46 18t-37 38q-11 21-1 35l4 5q-28 1-47.5 12.5t-19.5 28q0 16.5 21 28.5t51 12q30 0 50.5-12t20.5-29q0-11-9.5-20T193 420q18-5 37-17 23-15 35-35zm-53 86q0 9-16.5 17t-39 8q-22.5 0-39-8T101 454q0-9 16.5-16.5T157 430q23 0 39 7.5t16 16.5zm-30-48q-16 1-21-6.5t4.5-23q9.5-15.5 28.5-28t39-14.5q2-1 6-1 12 0 16 6.5t-4 20.5q-9 17-30 30-18 13-39 16zm134-22q-30 0-50.5 12T245 425q0 17 20.5 28.5T316 465q30 0 51-11.5t21-28.5q0-17-21-29t-51-12zm0 65q-23 0-39-7.5T261 425q0-9 16-17t39-8q23 0 39.5 8t16.5 17q0 9-16.5 16.5T316 449zm71-67q20 4 29 4 12 0 21-3 25-6 29-23t-13-33q-17-16-47-24-26-6-49-1-25 6-29.5 23.5t13 33.5q17.5 16 46.5 23zm-44-52q1-9 17-12 5-2 17.5-2t25.5 3q22 5 36 16.5t12 20.5q-1 4-6 7.5t-12 4.5q-16 4-42-1-22-6-36-17t-12-20zm59 165q-2 8 5 10 1 1 3 1 6 0 7-6l3-7q5-9 12-16 8-9 19-14 21-10 54 4 3 1 6 0t4.5-4q1.5-3 .5-6t-4-4q-38-18-68-4-26 11-41 44l-1 2zm196-250q2-3 1-6.5t-4-4.5q0-1-10-5-11-5-24-7-17-2-31 4-19 7-33 25-14-8-27-9-19-2-40 7-12 6-17 11-3 2-3 5.5t2 5.5q2 2 5.5 2.5t5.5-1.5l6-4q8-5 17-8 12-3 23-2 23 3 43 27 2 3 5.5 3t5.5-2q2-2 2.5-5t-1.5-6q-5-8-14-15 19-24 48-22 15 1 29 9 2 1 5.5.5t5.5-2.5z"/></svg>