<svg viewBox="0 0 1244 1083.753" xmlns="http://www.w3.org/2000/svg"><path d="M743 784q0-36-18.5-68.5T671 657q-38-27-87-41v-29h17q13 0 22.5-9t9.5-22.5q0-13.5-9-22.5t-23-9h-3q35-46 35-104 0-52-27-92v-1q-26-38-26-84V10q0-4-2.5-6.5T571 1H428q-3 0-5.5 2.5T420 10v233q0 48-27 86-26 41-26 91 0 58 35 104h-3q-13 0-22.5 9t-9.5 22.5q0 13.5 9.5 22.5t22.5 9h17v29q-70 20-114.5 65.5T257 784q0 53 38 96.5T395 945v47q0 4 2.5 6.5t5.5 2.5h194q3 0 5.5-2.5t2.5-6.5v-47q62-21 100-64.5t38-96.5zm-466 24q-3-12-3-24 0-6 2-18v-2h448q2 14 2 20 0 12-3 24H277zm443-61h-27q-17-49-71-79.5T500 637q-4 0-6.5 2.5t-2.5 6q0 3.5 2.5 6t6.5 2.5q61 0 109.5 26t65.5 67H280q10-26 27-46h66q3 0 5.5-2.5t2.5-6q0-3.5-2.5-6T373 684h-50q32-29 78-45t99-16q46 0 87.5 12.5T661 671q43 31 59 76zM384 420q0-44 23-81 30-42 30-96V18h17v225q0 3 2.5 5.5t6.5 2.5q4 0 6-2.5t2-5.5V18h92v20h-30q-4 0-6.5 2.5t-2.5 6q0 3.5 2.5 6T533 55h30v15h-56q-3 0-5.5 2.5T499 79q0 4 2.5 6.5T507 88h56v155q0 50 28 94h1q24 36 24 83 0 18-4 33h-72q-4 0-6.5 2.5T531 462q0 4 2.5 6t6.5 2h68q-10 29-32 54H470q-19-22-29.5-48.5T430 420q0-44 23-81 2-3 1.5-7t-3.5-5.5q-3-1.5-6.5-1T439 329q-26 41-26 91 0 58 35 104h-24q-19-22-29.5-48.5T384 420zm0 136q0-6 4.5-10.5T399 541h202q9 0 12 7h-60q-8 0-8 8 0 4 2 6.5t6 2.5h60q-5 5-12 5H399q-6 0-10.5-4t-4.5-10zm49 31h134v25q-38-7-66.5-7t-67.5 7v-25zM282 825h38q18 44 68 71.5T500 924q4 0 6.5-2.5t2.5-6q0-3.5-2.5-6T500 907q-54 0-99-23t-63-59h380q-8 22-22 39h-86q-4 0-6.5 2.5T601 873q0 4 2.5 6.5t6.5 2.5h70q-31 30-78.5 47T500 946q-78 0-138.5-34T282 825zm306 159H412v-33q41 12 88.5 12t87.5-12v33zM336 778h-40q-4 0-6.5 2.5t-2.5 6q0 3.5 2.5 6t6.5 2.5h40q4 0 6.5-2.5t2.5-6q0-3.5-2.5-6T336 778zm372 0h-40q-4 0-6.5 2.5t-2.5 6q0 3.5 2.5 6t6.5 2.5h40q4 0 6.5-2.5t2.5-6q0-3.5-2.5-6T708 778zm-93 0h-40q-4 0-6.5 2.5t-2.5 6q0 3.5 2.5 6t6.5 2.5h40q4 0 6.5-2.5t2.5-6q0-3.5-2.5-6T615 778zm-93 0h-40q-4 0-6.5 2.5t-2.5 6q0 3.5 2.5 6t6.5 2.5h40q4 0 6.5-2.5t2.5-6q0-3.5-2.5-6T522 778zm-93 0h-40q-4 0-6.5 2.5t-2.5 6q0 3.5 2.5 6t6.5 2.5h40q4 0 6.5-2.5t2.5-6q0-3.5-2.5-6T429 778z"/></svg>