<svg viewBox="0 0 1244 1083.753" xmlns="http://www.w3.org/2000/svg"><path d="M926 146q6 0 6-6t-6-6q-6 0-6 6t6 6zm0 40q6 0 6-6.5t-6-6.5q-6 0-6 6 0 3 2 5t4 2zm0 39q6 0 6-6.5t-6-6.5q-6 0-6 7 0 2 2 4t4 2zm0 39q6 0 6-6t-6-6q-6 0-6 6 0 2 2 4t4 2zm0 39q6 0 6-6t-6-6q-6 0-6 6 0 2 2 4t4 2zm0 39q6 0 6-6t-6-6q-6 0-6 6 0 2 2 4t4 2zm0 39q6 0 6-6t-6-6q-6 0-6 6 0 2 2 4t4 2zm0 39q6 0 6-6t-6-6q-6 0-6 6 0 2 2 4t4 2zm0 39q6 0 6-6t-6-6q-6 0-6 6 0 2 2 4t4 2zm0 39q6 0 6-6t-6-6q-6 0-6 6 0 2 2 4t4 2zm0 39q6 0 6-6t-6-6q-6 0-6 6 0 2 2 4t4 2zm0 39q6 0 6-6t-6-6q-6 0-6 6 0 2 2 4t4 2zm0 39q6 0 6-6t-6-6q-6 0-6 6t6 6zm0 39q6 0 6-6t-6-6q-6 0-6 6t6 6zm0 39q6 0 6-6t-6-6q-6 0-6 6t6 6zm0 39q6 0 6-6t-6-6q-6 0-6 6t6 6zm0 39q6 0 6-6t-6-6q-6 0-6 6t6 6zm-20 21q2 0 4-2t2-4q0-6-6-6t-6 6q0 2 2 4t4 2zm20 19q6 0 6-6.5t-6-6.5q-6 0-6 6 0 3 2 5t4 2zm-20 20q2 0 4-2t2-4q0-6-6-6t-6 6q0 2 2 4t4 2zm-19-33q-2 0-4 2t-2 4.5q0 2.5 2 4.5t4 2q2 0 4-2t2-5q0-6-6-6zm-20 21q-6 0-6 6 0 2 2 4t4 2q2 0 4-2t2-4q0-6-6-6zm-19-21q-2 0-4 2t-2 4.5q0 2.5 2 4.5t4 2q2 0 4-2t2-4.5q0-2.5-2-4.5t-4-2zm-20 21q-6 0-6 6 0 2 2 4t4 2q2 0 4-2t2-4q0-6-6-6zm-19-21q-2 0-4 2t-2 4.5q0 2.5 2 4.5t4 2q2 0 4-2t2-4.5q0-2.5-2-4.5t-4-2zm-20 21q-6 0-6 6t6 6q6 0 6-6t-6-6zm-39 0q-6 0-6 6t6 6q6 0 6-6t-6-6zm-39 0q-6 0-6 6t6 6q6 0 6-6t-6-6zm-58 18q-6 0-6 6.5t6 6.5q6 0 6-6 0-3-2-5t-4-2zm-274 13q6 0 6-6.5t-6-6.5q-6 0-6 7 0 2 2 4t4 2zm-59-19q2 0 4-2t2-4q0-6-6-6t-6 6q0 2 2 4t4 2zm-39 0q2 0 4-2t2-4q0-6-6-6t-6 6q0 2 2 4t4 2zm-39 0q2 0 4-2t2-4q0-6-6-6t-6 6q0 2 2 4t4 2zm-39 0q2 0 4-2t2-4q0-6-6-6t-6 6q0 2 2 4t4 2zm-19-20q2 0 4-2t2-4.5q0-2.5-2-4.5t-4-2q-2 0-4 2t-2 4q0 2 2 4.5t4 2.5zm-20 20q2 0 4-2t2-4q0-6-6-6t-6 6q0 6 6 6zm-19-20q2 0 4-2t2-4.5q0-2.5-2-4.5t-4-2q-2 0-4 2t-2 4q0 2 2 4.5t4 2.5zm-20 20q2 0 4-2t2-4q0-6-6-6t-6 6q0 6 6 6zm-39-39q2 0 4-2t2-4q0-6-6-6t-6 6q0 6 6 6zm20 19q2 0 4-2t2-4.5q0-2.5-2-4.5t-4-2q-2 0-4 2t-2 4q0 2 2 4.5t4 2.5zm-20 20q2 0 4-2t2-4q0-6-6-6t-6 6q0 6 6 6zM67 186q2 0 4-2t2-4.5q0-2.5-2-4.5t-4-2q-2 0-4 2t-2 4q0 2 2 4.5t4 2.5zm0 39q2 0 4-2t2-4.5q0-2.5-2-4.5t-4-2q-2 0-4 2t-2 5q0 6 6 6zm0 39q2 0 4-2t2-4q0-6-6-6t-6 6q0 6 6 6zm0 39q2 0 4-2t2-4q0-6-6-6t-6 6q0 6 6 6zm0 39q2 0 4-2t2-4q0-6-6-6t-6 6q0 6 6 6zm0 39q2 0 4-2t2-4q0-6-6-6t-6 6q0 6 6 6zm0 39q2 0 4-2t2-4q0-6-6-6t-6 6q0 6 6 6zm0 39q2 0 4-2t2-4q0-2-2-4t-4-2q-2 0-4 2t-2 4q0 2 2 4t4 2zm0 39q2 0 4-2t2-4q0-2-2-4t-4-2q-2 0-4 2t-2 4q0 2 2 4t4 2zm0 39q2 0 4-2t2-4q0-2-2-4t-4-2q-2 0-4 2t-2 4q0 2 2 4t4 2zm0 39q2 0 4-2t2-4q0-2-2-4t-4-2q-2 0-4 2t-2 4q0 2 2 4t4 2zm0 39q6 0 6-6 0-2-2-4t-4-2q-2 0-4 2t-2 4q0 2 2 4t4 2zm0 39q6 0 6-6 0-2-2-4t-4-2q-2 0-4 2t-2 4q0 2 2 4t4 2zm0 39q6 0 6-6 0-2-2-4t-4-2q-2 0-4 2t-2 4q0 2 2 4t4 2zm0 39q6 0 6-6 0-2-2-4t-4-2q-2 0-4 2t-2 4q0 2 2 4t4 2zm0 39q6 0 6-6 0-2-2-4t-4-2q-2 0-4 2t-2 4q0 2 2 4t4 2zm0 40q2 0 4-2t2-4.5q0-2.5-2-4.5t-4-2q-2 0-4 2t-2 4q0 2 2 4.5t4 2.5zm895-658q-5-18-20.5-30.5T907 109h-1q-7-13-18.5-21T862 79q-73-6-212 47-75 29-150 66-63-33-147-64-137-51-213-48-15 1-27 9t-19 21q-20 2-35 13.5T39 153q-17 8-28 25T0 215v623q0 29 20.5 49.5T70 908h345q2 7 8.5 11.5T438 924h124q8 0 14.5-4.5T585 908h345q29 0 49.5-20.5T1000 838V215q0-20-10.5-36.5T962 153zm-49 581V137q0-8-1-11 12 2 21 10t13 19h-1q-6 0-6 6 0 2 2 4t4 2l3-1v29q-1-1-3-1-6 0-6 6 0 2 2 4t4 2l3-1v29q-1-1-3-1-6 0-6 6 0 2 2 4t4 2q2 0 3-1v29q-1-1-3-1t-4 2q-2 2-2 4t2 4q2 2 4 2t3-1v29q-1-1-3-1t-4 2q-2 2-2 4t2 4q2 2 4 2t3-1v29q-1-1-3-1t-4 2q-2 2-2 4t2 4q2 2 4 2t3-1v29q-1-1-3-1t-4 2q-2 2-2 4t2 4q2 2 4 2t3-1v29q-1-1-3-1t-4 2q-2 2-2 4t2 4q2 2 4 2t3-1v29q-1-1-3-1t-4 2q-2 2-2 4 0 6 6 6 2 0 3-1v29l-3-1q-2 0-4 2t-2 4q0 6 6 6 2 0 3-1v29l-3-1q-2 0-4 2t-2 4q0 6 6 6 2 0 3-1v29l-3-1q-2 0-4 2t-2 4q0 6 6 6 2 0 3-1v29l-3-1q-2 0-4 2t-2 4q0 6 6 6h3v28l-3-1q-2 0-4 2t-2 4.5q0 2.5 2 4.5t4 2l3-1v28l-3-1q-2 0-4 2t-2 4.5q0 2.5 2 4.5t4 2l3-1v28h-3q-6 0-6 6 0 2 2 4t4 2l3-1v29q-1-1-3-1-6 0-6 6 0 2 2 4t4 2l3-1v3q0 17-13 32-15 13-34 13h-10q-2-2-4-2l-3 1h-33l-3-1-3 1q-10 1-32 1-2-2-4-2t-5 3l-28 1q-2-4-6-4t-6 5l-27 2q0-3-2-5t-4-2q-2 0-4 2t-2 5v1l-29 3q2-2 2-4.5t-2-4.5q-2-2-4-2t-4 2q-2 2-2 4.5t3 5.5l-8 1q-55 5-83 10-2-2-5-2t-5 3q-10 2-28 4v-1q0-3-1-4 27-10 49-17v1q0 6 6 6t6-6q0-3-2-5 32-10 48-14 0 6 6 6 2 0 4-2t2-4l-1-3q26-8 51-12l3 1q2 0 5-3l28-6v2q0 3 2 5t4 2q2 0 4-2t2-4.5q0-2.5-1-3.5 42-8 81-9 6 0 9-1 0 1 2 1t4-2q19-6 30.5-21t11.5-35zM548 864l1 1v2l-15 3 14-6zm-40-658q74-37 148-65 135-52 204-46 16 1 26.5 13t10.5 29v597q0 17-12 29t-30 13q-73 3-159.5 24.5T516 860l-8 2V206zm-405-68q0-17 11-29t27-13h9q74 0 203 49 74 28 139 61v655q-3 0-7-2-82-37-171-58.5T145 776q-18-1-30-13t-12-29V138zm-41 5q2 3 5 3 6 0 6-6 0-4-3-5 9-5 18-8-1 4-1 11v17h-1q-6 0-6 6t6 6h1v27h-1q-6 0-6 6t6 6h1v27h-1q-6 0-6 6t6 6h1v27h-1q-6 0-6 6t6 6h1v27h-1q-6 0-6 6t6 6h1v27h-1q-6 0-6 6t6 6h1v27h-1q-6 0-6 6t6 6h1v27h-1q-6 0-6 6t6 6h1v27h-1q-6 0-6 6t6 6h1v27h-1q-6 0-6 6t6 6h1v27h-1q-6 0-6 6t6 6h1v27h-1q-6 0-6 6t6 6h1v27h-1q-6 0-6 6.5t6 6.5l1-1v28l-1-1q-6 0-6 6.5t6 6.5h1v-1 28h-1q-6 0-6 6t6 6h1v27h-1q-6 0-6 6t6 6q1 0 3-2 8 24 30 35 0 6 6 6 2 0 4-2 10 2 16 2 42 2 76 7-4 2-4 5t2 5q2 2 4 2t4-2q2-2 2-4.5t-2-4.5q9 1 25 4l4 1q0 2 2 4t5 2q3 0 5-4 43 8 86 21 2 3 4.5 3t3.5-1q23 7 52 17 2 3 4 3h2q25 9 47 19l-24-5q0-6-5-6t-7 4q-26-4-79-12l-9-1q3-2 3-5 0-6-6-6t-6 6q0 2 3 4l-30-3v-1q0-6-6-6t-6 6l-27-2q-1-4-5-4t-6 3q-11 0-29-2-2-1-5-1t-4 1l-32-1h-81q-3 0-4 1h-2q-21 0-34.5-14T52 794V171q0-15 10-28zm922 695q0 22-16 38t-38 16H578q-3 0-5.5 2t-2.5 5.5q0 3.5-2 6t-6 2.5H438q-4 0-6-2.5t-2-6q0-3.5-2.5-5.5t-5.5-2H70q-22 0-38-16t-16-38V215q0-25 20-42v621q0 26 18 43.5t46 17.5q187-8 382 33 12 2 20 2 5 0 17-2 228-37 381-33 28 0 46-17.5t18-43.5V174q9 7 14.5 17.5T984 215v623zM173 233l245 72h3q6 0 7-6 1-3-.5-6t-4.5-4l-246-72q-6-2-10 6-1 3 1 6t5 4zm0-62l245 72h3q5 0 6.5-4.5t0-7Q426 229 423 228l-246-72q-7-2-10 6-1 3 1 5.5t5 3.5zm-1 124l246 72h2q6 0 8-5 2-8-6-10l-245-72q-3-1-6 .5t-4 4.5q-2 8 5 10zm0 62l246 72h2q7 0 8.5-6.5T422 413l-245-71q-3-1-6 .5t-4 4.5q-1 3 .5 6t4.5 4zm0 62l246 72h2q7 0 8.5-6.5T422 475l-245-71q-3-1-6 .5t-4 4.5q-1 3 .5 6t4.5 4zm137 93l-132-38q-3-1-5.5.5t-4 4.5q-1.5 3 .5 6t5 4l132 38q0 1 2 1 6 0 7-6 1-3-.5-6t-4.5-4zm268-30h2l246-72q3-1 4.5-4t.5-6q-1-3-4-4.5t-6-.5l-245 71q-8 3-6 9.5t8 6.5zm244-25l-246 72q-3 1-4.5 3.5t0 7q1.5 4.5 6.5 4.5h3l245-72q3-1 4.5-3.5t.5-6q-1-3.5-3.5-5t-5.5-.5zm0 62l-246 72q-3 1-4.5 3.5t-.5 5.5q2 6 7 6h3l245-72q3-1 4.5-3.5t.5-6q-1-3.5-3.5-5t-5.5-.5zm0 58l-246 71q-3 2-4.5 4.5t-.5 5.5q2 6 7 6h3l245-72q3-1 4.5-4t.5-6q-1-3-3.5-4.5t-5.5-.5zm0 58l-246 71q-3 2-4.5 4.5t-.5 5.5q2 6 7 6h3l245-72q3-1 4.5-4t.5-6q-1-3-3.5-4.5t-5.5-.5zM618 323h3l131-39q3-1 5-4t1-6q-3-7-10-5l-132 38q-3 1-4.5 4t-.5 6q2 6 7 6z"/></svg>