<svg viewBox="0 0 1244.5 1083.753" xmlns="http://www.w3.org/2000/svg"><path d="M953.5 1h-346q-20 0-34 14l-189 189h-243q-8 0-11 5l-119 118Q-.5 339 0 354.5T11.5 381q11 11 27 11h87v78q0 10 8 13l367 368v98q0 22 15.5 37t37.5 15h191q20 0 34.5-12.5t18-31q3.5-18.5-6.5-35.5l-254-432 449-406q15-14 15.5-34t-13-34.5Q974.5 1 953.5 1zm-594 620V282h360l-119 107q-74 67-95 87t-74 73l-72 72zm-31 14l-165-165 165-165v330zm25-399l-197 196V236h197zm-315 125q-4 0-6-4t1-7l92-92v103h-87zm321 304l141-140v282l-141-142zm385 305h-191q-9 0-15.5-6t-6.5-15V543l232 395q6 11 0 21.5t-19 10.5zm220-909l-211 190h-371l15-16 198-198q7-5 12-5h346q11 0 15 10.5t-4 18.5z"/></svg>