<svg viewBox="0 0 1244 1083.753" xmlns="http://www.w3.org/2000/svg"><path d="M995 883L823 687l121-321q3-9-3-17.5t-16-8.5H493q-6 0-11 3.5t-7 8.5L370 596V254q0-9-7-14L199 91q-5-5-13-5t-13 5L7 240q-7 5-7 13.5T5.5 268q5.5 6 14.5 6h129L1 684q-3 9 2 18l135 205q6 8 16 8h267q8 0 13.5-5.5T440 896q0-8-5.5-14t-13.5-6H291l208-481 279 301-68 180H593q-8 0-14 6t-6 14q0 8 6 13.5t14 5.5h387q13 0 18-11.5t-3-20.5zM186 132l113 103H71l115-103zm4 142h140v398H47l143-398zM56 711h264l-71 165h-84L56 711zm841-332L793 655 538 379h359zM752 876l55-147 130 147H752zm-225 12q-5-11-18-11t-18 11q-3 8 .5 15.5T503 914q8 3 15-1t9.5-11q2.5-7-.5-14z"/></svg>