<svg viewBox="0 0 1244 1083.753" xmlns="http://www.w3.org/2000/svg"><path d="M963 112q-15-16-36-17.5T889 107H547V46q0-19-13.5-32T501 1h-46q-19 0-32.5 13T409 46v61H67q-19 0-33 13.5T20 154v546q0 19 14 33t33 14h142l-1 8v33q0 20 14 34t34 14h9l-48 139q-2 8 1.5 15t11 9.5q7.5 2.5 15-1T254 988l52-152h58l-48 139q-3 7 .5 14.5T328 1000q2 1 7 1t10.5-3.5q5.5-3.5 7.5-9.5l52-152h6v146q0 8 6 13.5t14 5.5q8 0 13.5-5.5T450 982V836h56v146q0 7 6 13t13.5 6q7.5 0 13.5-6t6-13V836h6l52 152q3 7 10 10.5t15 1q8-2.5 11.5-10t.5-14.5l-48-139h58l52 152q2 6 7 9.5t10.5 3.5q5.5 0 7.5-1 7-3 10.5-10t1.5-15l-48-139h9q20 0 34-14t14-34v-33l-1-8h142q20 0 33.5-14t13.5-33V224l31-37q14-17 13-38.5T963 112zM448 46q0-2 2-4t5-2h46q3 0 5 2t2 4v61h-60V46zm449 654q0 3-2.5 5.5T889 708H565q-8 0-14 5.5t-6 13.5q0 8 6 14t14 6h135q4 0 6.5 2t2.5 6v33q0 4-2.5 6.5T700 797H256q-4 0-6-2.5t-2-6.5v-33q0-8 8-8h136q8 0 14-6t6-14q0-8-6-13.5t-14-5.5H67q-3 0-5.5-2.5T59 700V154q0-3 2.5-5t5.5-2h775q-89 74-179 165l-72 72-15 10-2-2-3-3-60-57q-13-14-1-29 18-17 18-42.5t-17.5-43Q493 200 467.5 200T425 218L249 393q-17 18-17 43t17.5 42.5Q267 496 292 496t43-17l6-6q17-14 33 0 14 16 0 33l-30 30q-20 19-20 48.5t20 49.5q20 20 49 20t49-20l93-93q24 17 53 16.5t54.5-15.5q25.5-15 39.5-40l10-19 71-71q59-56 134-142v430zM401 445q-18-18-44-18t-44 18l-6 6q-6 6-15 6t-15-6q-12-15 0-30l175-176q16-12 31 0 12 15 0 30-17 18-17 43.5t18 41.5l56 53q-12 6-37 11l-21 6q-14 5-19 19-2 7 0 15t7 13l37 37-92 92q-22 18-43 0-18-21 0-43l29-29q18-18 18-44.5T401 445zm152 60l-41-41q48-12 90-40l50 50-4 9q-9 15-26.5 25.5t-36.5 10q-19-.5-32-13.5zm123-62l-45-45 45-45 46 45-46 45zm261-281l-57 67q-56 67-131 142l-45-45q72-74 142-131l67-57q5-4 11.5-4t11 4.5q4.5 4.5 5 11.5t-3.5 12zM133 509q-18 19-17.5 45t18.5 45q18 19 44.5 19t45-18.5q18.5-18.5 18.5-45T223.5 509q-18.5-19-45-19T133 509zm63 63q-7 7-17 7t-18-7q-15-18 0-35 18-15 35 0 14 17 0 35zm302 148q-3-7-10.5-10.5t-15-.5q-7.5 3-10.5 10.5t0 15q3 7.5 10.5 10.5t14.5 0q7-3 10.5-10.5t.5-14.5z"/></svg>