<svg viewBox="0 0 1244 1083.753" xmlns="http://www.w3.org/2000/svg"><path d="M642 914H358q-22 0-38-15.5T302 860l-29-463q0-5 3.5-8.5t8.5-4q5-.5 9 3t4 7.5l29 464q1 13 10 21.5t21 8.5h284q13 0 22-9t10-21l28-463q0-5 4-8.5t9-3q5 .5 8.5 4.5t3.5 9l-28 463q-2 22-18.5 37.5T642 914zm71-504H287q-20 0-34-14.5T239 361q0-20 14-34t34-14h426q20 0 34 14t14 34q0 20-14 34.5T713 410zm-426-72q-10 0-16.5 6.5T264 361q0 10 6.5 17t16.5 7h426q10 0 16.5-7t6.5-17q0-10-6.5-16.5T713 338H287zm428 0H286q-5 0-9-4t-4-9v-9q0-62 30-114.5t81.5-83.5Q436 87 498 87t114 29.5q52 29.5 83.5 81.5T727 312v13q0 5-3.5 9t-8.5 4zm-417-25h404q-1-55-29-101t-74.5-72.5Q552 113 497.5 114T398 142q-45 27-72 72t-28 99zm35 162h-39q-5 0-9-3.5t-4-8.5q0-5 4-9t9-4h39q5 0 9 4t4 9q0 5-4 8.5t-9 3.5zm-12 60h-27q-5 0-9-3.5t-4-8.5q0-5 4-9t9-4h27q5 0 8.5 4t3.5 9q0 5-3.5 8.5T321 535zm16 60h-40q-5 0-8.5-3.5T285 583q0-5 3.5-9t8.5-4h40q5 0 8.5 4t3.5 9q0 5-3.5 8.5T337 595zm-9 60h-27q-5 0-9-3.5t-4-8.5q0-5 4-9t9-4h27q5 0 8.5 4t3.5 9q0 5-3.5 8.5T328 655zm16 60h-39q-5 0-9-3.5t-4-8.5q0-5 4-9t9-4h39q5 0 8.5 4t3.5 9q0 5-3.5 8.5T344 715zm-9 60h-27q-5 0-8.5-3.5T296 763q0-5 3.5-9t8.5-4h27q5 0 8.5 4t3.5 9q0 5-3.5 8.5T335 775zm16 61h-39q-5 0-9-4t-4-9q0-5 4-8.5t9-3.5h39q5 0 9 3.5t4 8.5q0 5-4 9t-9 4z"/></svg>