<svg viewBox="0 0 1244 1083.753" xmlns="http://www.w3.org/2000/svg"><path d="M562 335H428q-14 0-24 10t-10 24v25q0 14 10 24t24 10h134q14 0 24-10t10-24v-25q0-14-10-24t-24-10zm5 59q0 2-1.5 3.5T562 399H428q-5 0-5-5v-25q0-5 5-5h134q2 0 3.5 1.5t1.5 3.5v25zm385 218q-3-5-9-6t-11 3q-5 4-6 9.5t3 10.5q42 58 42 128 0 58-29 107.5T863.5 943Q814 972 756 972t-107.5-29Q599 914 570 864.5T541 757q0-58 29-107.5t78.5-78.5Q698 542 756 542q73 0 132 45 4 4 10 3.5t10-5.5q4-5 3.5-11t-5.5-10q-21-16-42-26v-36h64q19 0 34.5-10.5t22.5-28q7-17.5 3-35.5t-18-31L709 149q-4-5-10-5t-10.5 5q-4.5 5-4 11t4.5 10l261 248q8 8 9.5 17t-1.5 17.5q-3 8.5-11 14.5t-19 6h-73L532 171q-16-15-37.5-15T457 171L134 473H61q-21 0-29-20-3-8-2-17.5t9-17.5L414 63q22-22 51.5-29.5t59 0Q554 41 576 63l70 66q5 4 10.5 3.5t10-5q4.5-4.5 4.5-10t-5-9.5l-70-67q-28-27-65-36t-73.5 0Q421 14 393 41L19 397Q5 410 1.5 428T5 463.5q7 17.5 22 28T61 502h65v345q0 19 12.5 31.5T170 891h328q6 0 10-4t4-10q0-6-4-10.5t-10-4.5H327V660q0-46 22.5-84.5t61-61Q449 492 495 492q38 0 71 16t57 44q-51 34-81 88t-30 117q0 66 33 122t89 89q56 33 122 33t122-33q56-33 89-89t33-122q0-82-48-145zM477 192q8-7 18-7t17 7l97 91H381l96-91zM298 748H155v-87h143v87zM170 862q-7 0-11-4.5t-4-10.5v-69h143v84H170zm130-230H155v-87h180q-27 38-35 87zm195-169q-38 0-72.5 13.5T361 515H155v-21l70-66h131q6 0 10-4t4-10q0-6-4-10.5t-10-4.5H256l93-87h291l93 87H633q-6 0-10 4.5t-4 10.5q0 6 4 10t10 4h132l70 66v32q-36-13-79-13-56 0-107 24-28-34-68-54t-86-20zm209 420h104q11 0 21-5.5t15-15.5q11-21-1-41l-34-54q-9-14-23-21.5t-30-7.5q-16 0-30 7.5T703 767l-34 54q-12 20-1 41 5 10 15 15.5t21 5.5zm-10-46l34-55q9-15 28-15t28 15l34 55q3 5 0 11t-10 6H704q-7 0-10-6t0-11zm5-119q18 0 31-12.5t13-31.5q0-19-13-31.5T699 630q-18 0-31 13t-13 31q0 18 13 31t31 13zm0-58q6 0 10.5 4t4.5 10q0 6-4.5 10.5T699 689q-6 0-10.5-4.5T684 674q0-6 4.5-10t10.5-4zm-76 52q-19 0-31.5 12.5T579 755q0 18 12.5 31t31.5 13q19 0 31.5-12.5t12.5-31q0-18.5-13-31T623 712zm0 58q-6 0-10.5-4t-4.5-10.5q0-6.5 4.5-10.5t10.5-4q6 0 10 4t4 10q0 6-4 10.5t-10 4.5zm234-96q0-18-13-31t-31-13q-18 0-31 13t-13 31q0 18 13 31t31 13q18 0 31-12.5t13-31.5zm-59 0q0-6 4.5-10t10.5-4q6 0 10.5 4t4.5 10q0 6-4.5 10.5T813 689q-6 0-10.5-4.5T798 674zm91 125q18 0 31-12.5t13-31q0-18.5-13-31T889 712q-18 0-31 12.5T845 755q0 18 13 31t31 13zm0-58q6 0 10.5 4t4.5 10q0 6-4.5 10.5T889 770q-6 0-10-4t-4-11q0-7 4-10.5t10-3.5z"/></svg>