<svg viewBox="0 0 1244 1083.753" xmlns="http://www.w3.org/2000/svg"><path d="M911 136q-56-56-131-77-74-20-148.5-3T499 125q-58-52-133-69t-148 3q-75 21-131 77-58 58-78 136-19 76 1 152 21 79 79 137l377 377q14 13 33.5 13t32.5-13l377-377q58-58 79-137 20-76 1-152-20-78-78-136zm-24 403L510 916q-4 4-10.5 4t-11.5-4L111 539q-52-52-70-121.5T40.5 279q17.5-69 69-121t120-70Q298 70 367 88t121 70q5 4 11.5 4t10.5-4q51-51 120-69t137-1q70 18 121.5 70t69 121q17.5 69-.5 138.5T887 539zm-326 39q-6 0-10.5 4.5t-4.5 11-4.5 11Q537 609 530 609t-11-4.5q-4-4.5-4-11.5v-18q9-2 17-8 4-4 14-15l4-4q12-11 11.5-26.5t-11-26.5Q540 484 524 484h-50q-16 0-26.5 11t-11 26.5Q436 537 448 548l7 7q8 9 13 12 7 6 15 8v18q0 7-4.5 11.5T468 609q-6 0-11-4.5t-5-11q0-6.5-4.5-11T436 578q-7 0-11 4.5t-4 10.5q0 20 13 33t31.5 14q18.5 1 33.5-12 15 13 33.5 12t31.5-14q13-13 13-33 0-6-4.5-10.5T561 578zm-93-56q0-3 2-5t4-2h50q4 0 5.5 4t-1.5 7l-13 14q-7 7-16 7t-16-7l-13-13q-2-3-2-5zm-32-85q0 7 4.5 11.5T452 453q7 0 11.5-4.5T468 437q0-20-13.5-33.5t-33-13.5q-19.5 0-33.5 13.5T374 437q0 7 4.5 11.5T390 453q7 0 11-4.5t4-11q0-6.5 4.5-11T421 422q7 0 11 4.5t4 10.5zm172 16q7 0 11.5-4.5T624 437q0-20-13.5-33.5t-33-13.5q-19.5 0-33.5 13.5T530 437q0 7 4.5 11.5T546 453q7 0 11-4.5t4-11q0-6.5 4.5-11T577 422q7 0 11.5 4.5t4.5 11 4.5 11Q602 453 608 453zm150-30l-39 19-1-4q0-235-1-238-1-6-5-9.5t-10-3.5q-49 0-92.5 18T531 258l-23 23h-18l-23-23q-34-34-78.5-52.5T296 187q-7 0-11.5 4.5T280 203v225q0 11-1 13l-1 1-38-19q-5-3-11.5-1t-9.5 8q-3 6-.5 12t7.5 9l43 22q-15 68 17 127l-27 10q-6 2-8.5 8t-.5 11q2 5 6 8t9 3q2 0 17-5l21-8q45 59 122 81 74 21 148 0 77-22 122-81l17 6q18 7 22 7t8.5-3q4.5-3 6-8t-1-11q-2.5-6-8.5-8l-27-10q31-61 17-127l43-22q5-3 7-9t-.5-12q-2.5-6-9-8t-11.5 1zM613 314l73-74v142q-32-43-73-68zm-60-34q45-45 107-57l-76 76q-22-9-37-13l6-6zm-102 6q-14 4-37 13l-76-76q63 12 107 57l6 6zm-140-46l74 74q-40 24-74 68V240zm371 349l-68-26q-6-2-12 .5t-8 8.5q-2 6 .5 12t8.5 8l61 23q-40 47-104 64-61 16-122 0-64-17-104-64l61-23q6-2 8.5-8t.5-12q-2-6-8-8.5t-12-.5l-69 26q-26-48-17-102l85 42q5 3 11.5 1t9-7.5q2.5-5.5.5-12t-7-9.5l-90-45q19-54 62-92.5t97-48.5q58-11 112 15 1 1 5 3 38 19 66 52t42 71l-90 45q-5 3-7 9.5t.5 12q2.5 5.5 9 7.5t11.5-1l85-42q9 55-18 102z"/></svg>