<svg viewBox="0 0 1244 1083.753" xmlns="http://www.w3.org/2000/svg"><path d="M920 204H287q1-2 1-5v-33q0-18-13-31t-32-13h-96q-18 0-31 13t-13 31v38H80q-33 0-56.5 23.5T0 284v516q0 33 23.5 56.5T80 880h340q8 0 13.5-6t5.5-14q0-8-5.5-13.5T420 841H80q-16 0-28.5-12.5T39 800V645h122q30 65 90.5 104.5T386 789q74 0 134.5-39.5T611 645h350v155q0 17-12 29t-29 12H592q-8 0-14 5.5t-6 13.5q0 8 6 14t14 6h328q33 0 56.5-23.5T1000 800V284q0-33-23.5-56.5T920 204zm-778-5v-33q0-2 1.5-3.5t3.5-1.5h96q2 0 4 1.5t2 3.5v33q0 2-2 3.5t-4 1.5h-96q-5 0-5-5zm-62 44h840q17 0 29 12t12 29v172H618q-27-72-90-117t-142-45q-79 0-142.5 45T153 456H39V284q0-17 12-29t29-12zm67 363H39V495h104q-12 54 4 111zm239 144q-51 0-95.5-23.5t-74-64Q187 622 180 573q-7-45 5-90 20-66 75.5-108t126-42q70.5 0 125.5 42t74 108q14 44 6 90-7 49-36.5 89.5t-74 64Q437 750 386 750zm239-144q15-54 4-111h332v111H625zM386 386q-42 0-77.5 21T252 463.5Q231 499 231 541t21 78q21 36 56.5 57t77.5 21q42 0 77.5-21t56.5-57q21-36 21-78t-21-77.5Q499 428 463.5 407T386 386zm0 272q-31 0-58-16t-42.5-42.5Q270 573 270 541.5t15.5-58.5q15.5-27 42.5-42.5t58-15.5q31 0 58 15.5t42.5 42.5q15.5 27 15.5 58.5t-15.5 58Q471 626 444 642t-58 16zm513 87q0-26-18-44.5T837 682q-26 0-44.5 18.5T774 745q0 26 18.5 44t44.5 18q26 0 44-18.5t18-43.5zm-86 0q0-10 7-17t17-7q10 0 16.5 7t6.5 17q0 10-6.5 16.5T837 768q-10 0-17-6.5t-7-16.5zm-26-335h99q14 0 24.5-10t10.5-24v-54q0-14-10.5-24T886 288h-99q-14 0-24 10t-10 24v54q0 14 10 24t24 10zm5-83h90v44h-90v-44zM525 853q-3-8-10.5-10.5t-15 .5q-7.5 3-10.5 11-2 6-.5 12t6.5 10q5 4 11 4t12-3.5q6-3.5 8-10t-1-13.5z"/></svg>