<svg viewBox="0 0 1244 1083.753" xmlns="http://www.w3.org/2000/svg"><path d="M399 784H137q-13 0-22-9t-9-22v-49h16q17 0 29-12t12-29q0-17-12-29.5T122 621h-16v-45h16q17 0 29-12t12-29q0-17-12-29.5T122 493h-16v-45h16q17 0 29-12t12-29q0-17-12-29t-29-12h-16v-46h16q17 0 29-12t12-29q0-17-12-29t-29-12h-16v-45h16q17 0 29-12.5t12-29.5q0-17-12-29t-29-12h-16V61q0-13 9-22t22-9h495q26 0 44.5 19T695 94v398q0 6 4.5 10t10.5 4q6 0 10-4t4-10V94q0-38-27-65.5T632 1H137q-25 0-42.5 17.5T77 61v49H61q-17 0-29 12t-12 29q0 17 12 29.5T61 193h16v45H61q-17 0-29 12t-12 29q0 17 12 29t29 12h16v46H61q-17 0-29 12t-12 29q0 17 12 29t29 12h16v45H61q-17 0-29 12.5T20 535q0 17 12 29t29 12h16v45H61q-17 0-29 12.5T20 663q0 17 12 29t29 12h16v49q0 25 17.5 42.5T137 813h262q6 0 10.5-4.5T414 798q0-6-4.5-10t-10.5-4zM49 151q0-5 3.5-8.5T61 139h61q5 0 8.5 3.5t3.5 8.5q0 5-3.5 8.5T122 163H61q-5 0-8.5-3.5T49 151zm0 128q0-5 3.5-8.5T61 267h61q5 0 8.5 3.5t3.5 8.5q0 5-3.5 8.5T122 291H61q-5 0-8.5-3.5T49 279zm0 128q0-5 3.5-8.5T61 395h61q5 0 8.5 3.5t3.5 8.5q0 5-3.5 8.5T122 419H61q-5 0-8.5-3.5T49 407zm0 128q0-5 3.5-8.5T61 523h61q5 0 8.5 3.5t3.5 8.5q0 5-3.5 8.5T122 547H61q-5 0-8.5-3.5T49 535zm0 128q0-5 3.5-8.5T61 651h61q5 0 8.5 3.5t3.5 8.5q0 5-3.5 8.5T122 675H61q-5 0-8.5-3.5T49 663zm533-396q6 0 10.5-4.5T597 252v-31q0-16-11.5-27.5T558 182H243q-16 0-27.5 11.5T204 221v247q0 16 11.5 27t27.5 11h317q15 0 26-10.5t11-25.5V312q0-6-4.5-10t-10.5-4q-6 0-10.5 4t-4.5 10v81l-47-54q-14-16-36-16t-36 16l-47 55-48-55q-14-16-36-16t-36 16l-47 54V221q0-4 2.5-7t6.5-3h315q4 0 6.5 3t2.5 7v31q0 6 4.5 10.5T582 267zm-112 92q6-7 14-7t14 7l69 79v30q0 4-2.5 6.5T558 477H367l103-118zm-167 0q6-7 14-7t14 7l50 57-53 61h-85q-4 0-6.5-2.5T234 468v-30l69-79zm50-76q0 20 14 33.5t34 13.5q20 0 33.5-13.5T448 283q0-20-13.5-33.5T401 236q-20 0-34 14t-14 33zm66 0q0 7-5.5 12.5T401 301q-7 0-13-5.5t-6-12.5q0-7 5.5-12.5T401 265q8 0 13 5t5 13zm-94 265q-6 0-10 4.5t-4 10.5q0 6 4 10.5t10 4.5h151q6 0 10-4.5t4-10.5q0-6-4-10.5t-10-4.5H325zm641 178q6 0 10.5-4.5T981 711v-47q0-25-18-43t-44-18h-93l-16-43q-5-14-17-23t-28-9H654q-15 0-27.5 9T609 560l-15 43h-93q-26 0-44 18t-18 43v275q0 25 18.5 43.5T501 1001h418q26 0 44-18.5t18-43.5V768q0-6-4.5-10.5T966 753q-6 0-10.5 4.5T951 768v171q0 14-9.5 23.5T919 972H501q-13 0-23-10t-10-23V664q0-13 9.5-22.5T501 632h418q14 0 23 9t9 23v47q0 6 4.5 10.5T966 726zM637 570q2-5 6.5-8.5T654 558h111q6 0 11 3.5t7 8.5l11 33H625l12-33zm73 354q31 0 56.5-15t40.5-40.5q15-25.5 15-56.5t-15-56.5Q792 730 766.5 715T710 700q-31 0-56.5 15t-41 41Q597 782 597 812t15.5 56q15.5 26 41 41t56.5 15zm0-195q35 0 59 24t24 58.5q0 34.5-24 59T710.5 895q-34.5 0-59-24.5t-24.5-59q0-34.5 24.5-58.5t58.5-24zm0 142q24 0 41.5-17.5T769 812q0-24-17.5-41.5T710 753q-24 0-41.5 17T651 812q0 25 17 42t42 17zm0-89q12 0 20.5 9t8.5 21q0 12-8.5 20.5T710 841q-12 0-21-8.5t-9-20.5q0-12 8.5-21t21.5-9zM522 668q-6 0-10.5 4.5T507 683q0 6 4.5 10.5T522 698h14q7 0 11-4.5t4-10.5q0-6-4-10.5t-11-4.5h-14zm97 15q0-6-4.5-10.5T604 668h-14q-6 0-10.5 4.5T575 683q0 6 4.5 10.5T590 698h14q6 0 10.5-4.5T619 683z"/></svg>