<svg viewBox="0 0 1244 1083.753" xmlns="http://www.w3.org/2000/svg"><path d="M790 470q-37 0-62-25.5T703 384q0-95-48-177-47-80-126-127-82-48-177-48T175 80Q95 127 48 207 0 289 0 384v539q0 19 14 33t33 14h906q20 0 33.5-14t13.5-33V680q0-57-28-105.5T895.5 498Q847 470 790 470zM31 384q0-87 44-162 42-73 115-115 75-44 162-44t162 44q72 42 114 115 44 75 44 162 0 31 15.5 58t42.5 43q27 16 60 16 49 0 90 24t65 65q24 41 24 90v40H31V384zm688 461v-94h31v94h-31zm-281 0v-94h31v94h-31zm-188 0v-94h31v94h-31zM31 923V751h32v188H47q-7 0-11.5-4.5T31 923zm63-172h62v188H94V751zm94 0h31v109q0 7 4.5 11.5T234 876h16v63h-62V751zm93 125h16q7 0 11.5-4.5T313 860V751h31v188h-63v-63zm94-125h31v109q0 7 4.5 11.5T422 876h16v63h-63V751zm94 125h15q7 0 11.5-4.5T500 860V751h31v188h-62v-63zm94-125h62v188h-62V751zm93 0h32v109q0 7 4.5 11.5T703 876h16v63h-63V751zm94 125h16q6 0 10.5-4.5T781 860V751h32v188h-63v-63zm94-125h62v188h-62V751zm125 172q0 7-4.5 11.5T953 939h-15V751h31v172z"/></svg>