<svg viewBox="0 0 1244 1083.753" xmlns="http://www.w3.org/2000/svg"><path d="M961 532h-30q-9 0-13-9-20-52-58.5-92.5T770 368q-5-2-8-7t-3-10v-67q0-9-5-17t-14-12.5q-9-4.5-18-3.5t-17 6l-38 30q-6-33-23-61-3-5-9-6.5t-11 1.5q-5 3-6.5 9t1.5 11q20 34 20 71.5T618.5 383Q598 416 564 433H447q-34-17-54.5-50T372 313q0-37 18-68t48.5-49q30.5-18 66.5-18 39 0 71 20 5 4 11 2.5t9-6.5q3-5 1.5-11t-6.5-9q-39-25-86-25-44 0-81.5 22T364 230.5Q342 268 342 312q0 35 14 66.5t40 54.5h-37q-6 0-10.5 4t-4.5 10q0 6 4.5 10.5T359 462h293q6 0 10.5-4.5T667 447q0-6-4.5-10t-10.5-4h-37q24-22 38-50.5t15-60.5l54-41q2-2 4-1h1q2 2 2 4v67q0 14 8 26t21 17q45 20 80 56.5t53 82.5q4 13 15 20.5t25 7.5h30q4 0 7 3t3 7v99q0 4-3 7t-7 3h-30q-13 0-24 8t-16 20q-17 46-51 82.5T761 847q-14 6-23 18.5T727 893l-9 69q0 4-2.5 6.5T709 971h-31q-4 0-6.5-2.5T669 962l-6-43q-2-22-18.5-36T606 869H393q-22 0-38.5 14T335 919l-5 43q-1 4-3.5 6.5T321 971h-32q-3 0-5.5-2.5T280 962l-3-27q-4-32-21.5-59T210 832q-55-34-86.5-90T92 621q0-60 27.5-112.5T195 421q48-35 107-44 6-1 9.5-6t2.5-11q-1-6-6-9.5t-11-2.5q-48 8-91.5 31.5t-75 60Q99 476 81.5 520T63 611H45q-19 0-32 13T0 655v36q0 6 4.5 10.5T15 706q6 0 10-4.5t4-10.5v-36q0-6 4.5-10.5T45 640h18q5 64 36 118 35 62 96 99 22 14 36 35.5t17 46.5l3 27q2 14 13 24t25 10h32q14 0 25.5-10t12.5-24l5-43q2-11 10-18t19-7h213q11 0 19 7.5t9 17.5l6 43q2 14 12.5 24t25.5 10h31q15 0 25.5-10t12.5-24l9-70q2-15 17-22 49-22 87-63t58-92q3-9 13-9h30q16 0 27.5-12t11.5-28v-99q0-16-11.5-27.5T961 532zM505 261q8 0 13.5 5.5T524 279q0 7 4 11t10 4q6 0 10.5-4t4.5-11q0-16-9.5-28T520 234v-17q0-6-4-10.5t-10.5-4.5q-6.5 0-10.5 4.5t-4 10.5v17q-14 5-23.5 17t-9.5 28q0 20 13.5 34t33.5 14h2q7 0 12 5.5t5 12.5q0 7-5.5 12.5t-13 5.5q-7.5 0-13-5.5t-5.5-12q0-6.5-4-11t-10-4.5q-6 0-10.5 4.5T458 345q0 16 9.5 28t23.5 17v17q0 7 4 11t10 4q6 0 10.5-4t4.5-11v-17q14-5 23.5-17t9.5-28q0-20-14-33.5T505 298h-1q-7-1-12-6.5t-5-13q0-7.5 5.5-12.5t12.5-5zm70-135q6 0 10-4t4-10V17q0-6-4-10.5T575 2q-6 0-10.5 4.5T560 17v95q0 6 4.5 10t10.5 4zm-70-14q7 0 11-4.5t4-10.5V17q0-6-4-10.5T505.5 2Q499 2 495 6.5T491 17v80q0 6 4 10.5t10 4.5zm-69 14q6 0 10.5-4t4.5-10V17q0-6-4.5-10.5T436 2q-6 0-10.5 4.5T421 17v95q0 6 4.5 10t10.5 4zm355 431q7 0 11.5-5t4.5-12q0-7-4.5-11.5T791 524q-7 0-12 4.5t-5 11.5q0 7 5 12t12 5z"/></svg>