<svg viewBox="0 0 1244 1083.753" xmlns="http://www.w3.org/2000/svg"><path d="M202 130q6 0 10.5-4t4.5-10V90q0-6-4.5-10.5T202 75q-6 0-10 4.5T188 90v26q0 6 4 10t10 4zm0 0zm287 0q6 0 10.5-4t4.5-10V90q0-6-4.5-10.5T489 75q-6 0-10.5 4.5T474 90v26q0 6 4.5 10t10.5 4zm0 0zm-143 14q29 0 46-20 4-5 3.5-11t-5-10q-4.5-4-10.5-3.5t-10 4.5q-9 11-24.5 11T321 104q-4-4-9.5-4.5T301 103q-5 4-5.5 10t3.5 11q18 20 47 20zm0 0zM114 362v480q0 6 4.5 10.5T129 857h300q6 0 10.5-4.5T444 842q0-6-4.5-10.5T429 827H144V376h404v451h-60q-6 0-10.5 4.5T473 842q0 6 4.5 10.5T488 857h74q7 0 11-4.5t4-10.5V362q0-6-4-10.5t-11-4.5H129q-6 0-10.5 4.5T114 362zm0 0zm-43-89q-22 16-33 28-17 18-27 41-11 28-11 66v368q0 53 20 101t57.5 86q37.5 38 91.5 38h353q27 0 50.5-9.5T614 963q37-37 57-85.5T691 776V408q0-37-11-66-9-22-27-41-10-11-32-28-20-15-28-24-12-14-15-32 26-5 43-26t17-48V77q0-32-22-54T562 1H129Q98 1 75.5 23T53 77v66q0 27 17 48t43 26q-2 18-14 32-8 9-28 24zm12-130V77q0-20 13.5-33.5T129 30h433q20 0 33.5 13.5T609 77v66q0 19-14 32.5T562 189H261q-6 0-10 4.5t-4 10.5q0 6 4 10t10 4h288q3 27 20 48 10 12 33 31h1q20 15 29 25 14 15 21 33 9 22 9 53v368q0 47-17.5 90T593 942q-30 30-71 30H169q-41 0-71-30-33-33-51-76t-18-90V408q0-31 9-53 7-18 21-33 9-10 29-25 24-18 35-31 17-21 20-48h60q6 0 10-4t4-10q0-6-4-10.5t-10-4.5h-74q-19 0-32.5-13.5T83 143zm0 0zm392 330q-21-22-50-29t-58 .5q-29 7.5-50 28.5L217 573q-22 21-29.5 50t0 57.5q7.5 28.5 29 50t50.5 29q29 7.5 58 0t50-28.5l100-100q21-22 28.5-50.5t0-57.5q-7.5-29-28.5-50zM354 710q-24 24-58.5 24T237 710q-24-24-24-58t24-59l40-39 117 117-40 39zm100-100l-40 40-116-117 39-40q24-23 58.5-23t58.5 24q24 24 24 58t-24 58zm0 0z"/></svg>