<svg viewBox="0 0 1244 1083.753" xmlns="http://www.w3.org/2000/svg"><path d="M544 1001h323q28 0 47-19.5t19-47.5V251q0-28-19.5-47.5T867 184h-84q-1-21-15.5-37.5T733 125l-22-5q-13-3-20.5-13T683 84q0-33-22-57T606.5 1Q574-1 548 19.5T518 72q-1 5-1 15.5t-6.5 19.5q-6.5 9-17.5 12l-26 6q-20 5-34 21.5T417 184h-84q-27 0-46.5 19.5T267 251v50q0 7 4.5 11.5T283 317q7 0 12-4.5t5-11.5v-50q0-14 10-23.5t23-9.5h84v16q0 21 14.5 35.5T467 284h266q21 0 35.5-14.5T783 234v-16h84q14 0 23.5 9.5T900 251v683q0 14-9.5 24T867 968H544q-7 0-11.5 4.5T528 984q0 7 4.5 12t11.5 5zm206-767q0 7-4.5 12t-12.5 5H467q-7 0-12-5t-5-12v-44q0-11 7-20.5t18-11.5l26-7q22-5 36-23.5T550 86v-9q3-17 15-29t29-13q2-1 6-1 18 0 33 13 17 14 17 37.5t14.5 42.5q14.5 19 37.5 25l23 6q11 2 18 11.5t7 20.5v44zM600 134q7 0 12-4.5t5-11.5V84q0-7-5-11.5T600 68q-7 0-12 4.5T583 84v34q0 7 5 11.5t12 4.5zm67 50H533q-7 0-11.5 5t-4.5 12q0 7 4.5 12t11.5 5h134q7 0 11.5-5t4.5-12q0-7-4.5-12t-11.5-5zm-34 200H500q-7 0-12 5t-5 12q0 7 5 12t12 5h133q7 0 12-5t5-12q0-7-5-12t-12-5zm100 134h67q21 0 35.5-15t14.5-35v-67q0-21-14.5-35.5T800 351h-67q-20 0-35 14.5T683 401v67q0 20 15 35t35 15zm-16-117q0-7 4.5-12t11.5-5h67q7 0 11.5 5t4.5 12v67q0 7-4.5 11.5T800 484h-67q-7 0-11.5-4.5T717 468v-67zm-84 50h-83q-7 0-12 5t-5 12q0 7 5 11.5t12 4.5h83q7 0 12-4.5t5-12q0-7.5-4.5-12T633 451zm0 133h-86q-7 0-11.5 5t-4.5 12q0 7 4.5 12t11.5 5h86q7 0 12-5t5-12q0-7-5-12t-12-5zm50 84q0 20 15 35t35 15h67q21 0 35.5-15t14.5-35v-67q0-21-14.5-35.5T800 551h-67q-20 0-35 14.5T683 601v67zm34-67q0-7 4.5-12t11.5-5h67q7 0 11.5 5t4.5 12v67q0 7-4.5 11.5T800 684h-67q-7 0-11.5-4.5T717 668v-67zm-84 50h-83q-7 0-12 5t-5 12q0 7 5 11.5t12 4.5h83q7 0 12-4.5t5-11.5q0-7-5-12t-12-5zm0 133h-83q-7 0-12 5t-5 12q0 7 5 12t12 5h83q7 0 12-5t5-12q0-7-5-12t-12-5zm50 84q0 20 15 35t35 15h67q21 0 35.5-15t14.5-35v-67q0-21-14.5-35.5T800 751h-67q-20 0-35 14.5T683 801v67zm34-67q0-7 4.5-12t11.5-5h67q7 0 11.5 5t4.5 12v67q0 7-4.5 11.5T800 884h-67q-7 0-11.5-4.5T717 868v-67zm-84 50h-83q-7 0-12 5t-5 12q0 7 5 11.5t12 4.5h83q7 0 12-4.5t5-12q0-7.5-4.5-12T633 851zM122 560q-24 5-39.5 23.5T67 627v324q0 21 14.5 35.5T117 1001h333q21 0 35.5-14.5T500 951V627q0-25-15.5-43.5T445 560q-12-3-20-12.5t-8-22.5v-10q15-5 24-18t9-29v-67q0-20-14.5-35T400 351H167q-21 0-35.5 15T117 401v67q0 16 9 29t24 18v10q0 13-8 22.5T122 560zm345 324H250q-7 0-12-4.5t-5-11.5V701q0-7 5-11.5t12-4.5h217v199zm-29-292q13 3 21 12.5t8 22.5v24H250q-20 0-35 15t-15 35v167q0 20 15 35t35 15h217v33q0 7-5 12t-12 5H117q-7 0-12-5t-5-12V627q0-13 8-22.5t20-12.5q24-5 39.5-23.5T183 525v-7h200v7q0 25 15.5 43.5T438 592zM150 401q0-7 5-12t12-5h233q7 0 12 5t5 12v67q0 7-5 11.5t-12 4.5h-17v-33q0-7-4.5-12t-11.5-5q-7 0-12 5t-5 12v33h-50v-33q0-7-4.5-12t-11.5-5q-7 0-12 5t-5 12v33h-50v-33q0-7-5-12t-12-5q-7 0-11.5 5t-4.5 12v33h-17q-7 0-11.5-4.5T151 468v-67h-1z"/></svg>