<svg viewBox="0 0 1244 1083.753" xmlns="http://www.w3.org/2000/svg"><path d="M397 130q-3-6-9.5-8.5t-13.5.5l-136 62q-6 2-8.5 8.5t.5 13.5q5 9 15 9 5 0 7-1l136-62q7-3 9-9t0-13zm547 180q-22-77-78-135-37-37-86-59.5T673 85q-99-13-205 21-18-47-60.5-76T313 1q-45 0-83.5 22.5t-61 61Q146 123 146 168q0 42 19.5 78t53.5 59q-35 70-32 146 3 82 45 160 1 3 5 11 8 13 12 22 5 14 4 25L62 847q-20 17-21 45.5T60 941l41 41q19 19 46 19h1q28 0 47-21l177-192q18-1 48 16 5 3 10 5 83 46 170 46 62 0 119.5-24.5T825 758q55-56 90-131.5T958 468q8-87-14-158zM180 168q0-36 18-67t48.5-49Q277 34 313 34t67 18q31 18 49 49t18 67q0 36-18 67t-49 49q-31 18-67 18t-66.5-18Q216 266 198 235t-18-67zm41 256l142 143-80 74q-3-11-13-30l-3-6q-4-6-5-9h-1v-1q-46-87-40-171zm-51 533q-8 9-23 11-11 0-23-10l-41-41q-9-9-9-22.5T84 871l303-281 64 64-281 303zm276-177l-1-.5-5-2.5-4-2q-17-10-36-17l75-80 142 143q-86 5-171-41zm478-315q-8 76-40.5 147.5T801 734q-63 63-142 81L226 382q9-35 22-60 33 13 65 13 45 0 83.5-22.5t61-61Q480 213 480 168q0-10-2-30 97-32 190-20 107 14 174 81 48 47 69 116t13 150zM387 195q-3-7-9.5-9t-12.5 1l-75 33q-6 3-8.5 9.5t.5 12.5q4 10 15 10 5 0 7-1l75-34q6-3 8.5-9.5T387 195z"/></svg>