<svg viewBox="0 0 1244 1083.753" xmlns="http://www.w3.org/2000/svg"><path d="M890 111q-72-72-170-97-95-25-190 0-98 25-170 97L192 274q-29 28-42 65.5t-9 77.5v8q20 75 19.5 152.5T139 729L28 841Q7 861 2 889.5T8 944q11 26 34 41.5t52 15.5q37 0 66-27l112-112q74-21 151.5-21.5T576 860q4 1 7 0 59 8 110-24 45 40 104 40 42 0 78-21t57-57q21-36 21-78 0-30-10.5-56.5T913 616q61-73 80-167 18-91-8-179-27-92-95-159zM190 521q35 46 71 86l-80 80q17-83 9-166zm-52 430q-18 19-44 19t-44.5-18.5Q31 933 31 907.5T50 863l109-110q5-2 7-7l116-115q43 45 88 88L255 835q-5 2-7 6L138 951zm176-131l80-80q32 29 86 71-83-8-166 9zm206-18Q336 667 199 481q-31-43-27-95.5t42-89.5l168-163q71-69 163-91 87-21 173.5 3t149 87Q930 195 955 279q24 81 7.5 165T890 595q-42-32-93-32-47 0-85 25-35 23-54.5 61.5T641 730q3 46 30 83-35 20-76 17t-75-28zm277 43q-34 0-62.5-17T689 782.5Q672 754 672 720t17-62.5q17-28.5 45.5-45.5t62.5-17q34 0 62.5 17t45.5 45.5q17 28.5 17 62.5t-17 62.5Q888 811 859.5 828T797 845z"/></svg>