<svg viewBox="0 0 1244 1083.753" xmlns="http://www.w3.org/2000/svg"><path d="M734 501h-43q76-37 122-109t46-159q0-6-4.5-10.5T844 218h-30q14-47 14-92 0-7-4.5-11.5T813 110h-9q-52 0-84 6-56 11-105 44-13-47-40.5-87.5T509 4q-8-7-18 0-38 27-65.5 67.5T385 160q-75-50-164-50h-33q-7 0-11.5 4.5T172 126q0 47 15 92h-31q-6 0-10.5 4.5T141 233q0 87 46 159t122 109h-43q-19 0-33 13.5T219 548v281q0 19 14 33t33 14h15v78q0 19 14 33t33 14h344q20 0 33.5-14t13.5-33v-78h15q20 0 33.5-14t13.5-33V548q0-20-13.5-33.5T734 501zm-171-2h-20l154-127q5-4 6-10.5t-3.5-11.5q-4.5-5-11-5.5T678 348L520 477q9-64 46.5-116t94.5-82q57-30 122-30h45q-4 69-40.5 126t-96 90.5Q632 499 563 499zm233-357q-2 40-16 76-85 1-157 47-70 45-107 119 5-67 42-122.5t95-87.5q58-32 126-32h17zM500 36q33 27 55.5 64.5T588 181q-47 39-72 92V157q0-6-4.5-10.5T500 142q-7 0-11.5 4.5T484 157v116q-25-51-72-92 10-44 32.5-81.5T500 36zM221 142q45 0 87 14.5t77 42.5l2 2q6 5 21 18 33 34 52.5 76.5T484 384q-37-74-107-119-72-46-157-47-15-41-16-76h17zm-49 107h45q66 0 122.5 30t94 82Q471 413 480 477L322 348q-4-4-10.5-3.5t-11 5.5q-4.5 5-3.5 11.5t6 10.5l154 127h-19q-70 0-129.5-33.5t-96-90.5Q176 318 172 249zm562 596H484q-6 0-10.5 4.5T469 860q0 6 4.5 11t10.5 5h204v78q0 7-4.5 11.5T672 970H328q-6 0-10.5-4.5T313 954v-78h78q6 0 10.5-4.5T406 860q0-7-4.5-11t-10.5-4H266q-7 0-11.5-4.5T250 829V595h172q7 0 11.5-4.5T438 579q0-7-4.5-11.5T422 563H250v-15q0-7 4.5-11.5T266 532h468q7 0 11.5 4.5T750 548v15H484q-6 0-10.5 4.5T469 579q0 7 4.5 11.5T484 595h266v234q0 7-4.5 11.5T734 845z"/></svg>