<svg viewBox="0 0 1244 1083.753" xmlns="http://www.w3.org/2000/svg"><path d="M626 630q6 0 6-6t-6-6q-6 0-6 6 0 2 2 4t4 2zm0 39q6 0 6-6t-6-6q-6 0-6 6 0 2 2 4t4 2zm0 39q6 0 6-6t-6-6q-6 0-6 6 0 2 2 4t4 2zm0 39q6 0 6-6t-6-6q-6 0-6 6 0 2 2 4t4 2zm-19-138q7 0 7-6t-6.5-6q-6.5 0-6.5 6 0 2 2 4t4 2zm-20 21q6 0 6-6t-6-6q-6 0-6 6 0 2 2 4t4 2zm20 18q7 0 7-6t-6.5-6q-6.5 0-6.5 6 0 2 2 4t4 2zm-20 21q6 0 6-6t-6-6q-6 0-6 6 0 2 2 4t4 2zm20 19q3 0 5-2t2-4q0-2-2-4.5t-5-2.5q-6 0-6 6.5t6 6.5zm-20 20q6 0 6-6t-6-6q-6 0-6 6 0 2 2 4t4 2zm20 19q3 0 5-2t2-4q0-2-2-4t-5-2q-6 0-6 6t6 6zm-20 20q6 0 6-6t-6-6q-6 0-6 6 0 2 2 4t4 2zm20 58q3 0 5-2t2-4q0-2-2-4t-5-2q-6 0-6 6t6 6zm-20 8q-2 0-4 2t-2 4q0 2 2 4t4 2q2 0 4-2t2-4q0-6-6-6zm-19-20q-6 0-6 6 0 2 2 4t4 2q2 0 4-2t2-4q0-6-6-6zm-20 20q-2 0-4 2t-2 4q0 2 2 4t4 2q2 0 4-2t2-4q0-2-2-4t-4-2zm20 19q-6 0-6 6 0 2 2 4t4 2q2 0 4-2t2-4q0-6-6-6zm-137-19q-2 0-4 2t-2 4q0 2 2 4t4 2q2 0 4-2t2-4q0-2-2-4t-4-2zm20 19q-6 0-6 6 0 2 2 4t4 2q2 0 4-2t2-4q0-6-6-6zm326-593q6-41-16-63-15-15-38-17t-48.5 8.5Q649 178 628 199q-30 31-38 68t11 60q-61 91-86 201V332q36-6 60-52.5T599 167q0-46-12-84t-33-60Q533 1 507.5 1T461 23q-21 22-33 60t-12 84q0 66 24 112.5t60 52.5v238h-2q-8-41-26-89-16-42-37-80 18-23 15-61-3-50-37-98-15-23-36-41t-43-28q-22-10-42.5-10t-36 11q-15.5 11-23 30t-5.5 44q3 49 37 98 2 4 8 12-37 10-47.5 38.5T236 457q22 30 62 45 24 9 49 9 14 0 26-3 27-6 41-25 39 24 58 47 5 15 10 40h-94q-11 0-19.5 8.5T360 599v174q0 15 4 27-8 2-14 9t-6 16v150q0 11 8 18.5t19 7.5h16q11 0 18.5-7.5T413 975V858q20 9 41 9h19v108q0 10 8 18t18 8h17q11 0 18.5-8t7.5-18V867h21q22 0 40-9v117q0 11 8 18.5t19 7.5h16q11 0 18.5-7.5T672 975V825q0-9-5.5-16.5T653 799q4-16 4-26V599q0-12-8.5-20.5T628 570H525q7-74 39-118 9 18 30 28t47.5 10q26.5 0 47.5-8 43-14 66-45 12-15 15.5-31.5t-2-32.5q-5.5-16-21-27.5T711 330q14-9 27-21 31-33 39-70zM408 462q-30-16-64-31-20-8-32-12-4-1-6.5.5T302 424q-3 7 5 10l29 11q35 14 64 30-10 13-30 18-32 8-67-6t-53-39q-18-25-10-47t38-28l6-2q27 30 59 44 23 10 42 10 6 0 16-2 12 19 7 39zm5-61q-12 8-28.5 8t-35.5-9q-40-17-72-62t-35-91q-2-44 22-60 11-8 27-8t37 8q41 19 72.5 63.5T435 341q2 28-9 45-10-18-21-33-45-66-97-113l-1-1q-2-2-5.5-2t-5.5 2.5q-2 2.5-2 6t3 5.5l14 13q17 17 35 38 24 28 45 59 16 24 24 38l-2 2zm9 69q8-24-6-53l2-1q3-1 5-3 22 39 39 85-20-16-40-28zm10-303q0-40 10.5-74.5t27.5-55Q487 17 507 17t37.5 20.5q17.5 20.5 28 55T583 167q0 56-19.5 99T515 316V104q0-8-7.5-8t-7.5 8v212q-29-7-48.5-50T432 167zm-34 808q0 4-3 7t-8 3h-16q-5 0-8-3t-3-7V825q0-5 3.5-8t7.5-3h16q5 0 8 3t3 8v150zm128 0q0 4-3 7t-7 3h-17q-4 0-7-3t-3-7V825q0-5 3-8t7-3h17q4 0 7 3.5t3 7.5v150zm16-124v-26q0-11-7.5-18.5T516 799h-17q-8 0-14.5 4.5T475 815q-2-2-4.5-2t-4.5 2q-2 2-2 4t2 4q2 2 4 2t3-1v27h-19q-20 0-37-9 1-1 1-3.5t-1.5-4.5q-1.5-2-3.5-2v-7q0-11-7.5-18.5T387 799h-7q-2-6-4-18h205q2 5 5 5t5-1.5q2-1.5 2-3.5h27q2 5 5 5t5-1.5q2-1.5 2-3.5h8q0 9-3 18h-7q-11 0-19 7.5t-8 18.5v8q-2 2-2 5l1 2q-17 11-39 11h-21zm115-26v150q0 4-3 7t-8 3h-16q-5 0-8-3t-3-7V825q0-5 3.5-8t7.5-3h16q5 0 8 3t3 8zm-76-239q2 5 6 5t6-5h27q2 5 6 5t6-4q4 1 6.5 4.5t2.5 7.5v166h-31q4-2 4-5 0-6-6.5-6t-6.5 6q0 3 4 5H376V599q0-5 3.5-9t8.5-4h193zm173-207q8 23-12 49t-57.5 39q-37.5 13-69.5 4.5T575 439l3-3q5-6 9-8 16-13 36-20 16-6 34-7 13-1 25 0l10 2q3 1 6-.5t4-5q1-3.5-1-6t-5-3.5q-6-2-20-3-23-2-45 4-30 7-54 26l-3 3q3-20 22.5-38.5T645 351q24-8 43-8 24 0 42 9.5t24 26.5zm-152-24q4-9 11-17 4 4 9 5-14 7-20 12zm78-27q-22 2-33 5-14 0-25-8 40-55 90-94l3-3q3-2 3.5-5t-1.5-5.5q-2-2.5-5-3t-6 .5q-8 4-30 25-35 31-65 73-13-19-5-48t33-55q18-17 38-26.5t38-9.5q22 0 35 13 8 8 11 21t0 28q-6 34-35 61-20 21-46 31z"/></svg>