<svg viewBox="0 0 1244 1083.753" xmlns="http://www.w3.org/2000/svg"><path d="M910 785q-6-23-23.5-39T846 725.5q-23-4.5-46 4.5l-20 8V526h8q17 0 30-13t13-30v-71q0-18-13-30.5T788 369H570v-59h44q38 0 70-18.5t51-50.5q19-32 19-70 0-8-6-13.5t-14-5.5h-64q-29 0-55 11t-45 31v-54q0-38-19-70t-51-50.5Q468 1 431 1h-64q-8 0-14 5.5T347 20q0 38 19 70t51 51q32 19 70 19h44v209H313q-18 0-30.5 12.5T270 412v71q0 17 12.5 30t30.5 13h8v101q-56 5-112 54l-1 1q-19 17-30 25-20 13-39 18l-38 11q-6 2-10 7t-4 12v227q0 10 8 15 4 4 10 4t8-1l188-65q20-6 40 0l174 48q29 8 58.5 6.5T631 977l231-94q28-11 42-39.5t6-58.5zM670 191h43q-8 35-35.5 57.5T614 271h-42q7-35 34.5-57.5T670 191zm-183-70q-36 0-64-23t-35-58h43q36 0 63.5 23t34.5 58h-42zM309 483v-71q0-4 4-4h475q4 0 4 4v71q0 1-1 2.5t-3 1.5H638q-8 0-13.5 5.5T619 506q0 8 5.5 14t13.5 6h103v228l-142 56q12-22 10-47t-17-45.5Q577 697 553 689l-139-47q-29-11-54-14V526h106q8 0 14-6t6-14q0-8-6-13.5t-14-5.5H313q-1 0-2.5-1.5T309 483zm538 364l-231 94q-21 8-45 9.5t-46-5.5l-173-48q-31-9-62 0-1 0-1 1l-163 56V770l23-7q26-7 51-24 15-10 36-29 49-45 103-44 34 3 62 13l139 46q15 6 23.5 20t6.5 29.5q-2 15.5-13 26.5-9 9-21 12t-24-1l-100-29q-7-2-14.5 1.5T388 796q-2 8 2 15.5t11 9.5l100 29q60 18 116-5l198-78q18-7 35.5 1.5T873 794q5 17-2.5 32T847 847zM543 522q7 5 15 3t12.5-9q4.5-7 2.5-15-1-6-6.5-10t-11.5-4.5q-6-.5-11.5 3t-7.5 10q-2 6.5 0 12.5t7 10z"/></svg>