<svg viewBox="0 0 1244 1083.753" xmlns="http://www.w3.org/2000/svg"><path d="M981 851h-85q-38 0-75-17-25-12-64-41-26-19-56.5-25t-60 2q-29.5 8-52 29T553 850q-7 18-20.5 28T502 888q-17 0-31-10.5T450 848v-1h-1q-12-29-35-49.5T361 769q-30-8-61-2t-56 25q-41 29-65 41-37 18-75 18H20q-8 0-14 6t-6 14v111q0 8 6 13.5t14 5.5h397q8 0 13.5-6t5.5-13.5q0-7.5-6-13.5t-13-6H39v-72h65q45 0 88-20 32-14 75-47 19-14 40.5-18t43.5 2q44 13 62 55 12 30 35.5 47.5t53 17.5q29.5 0 53.5-16.5t35-45.5q8-22 24-36.5t37-20.5q21-6 42.5-2t40.5 18q42 32 75 47 43 19 87 19h65v72H590q-8 0-13.5 6t-5.5 14q0 8 5.5 13.5t13.5 5.5h391q8 0 13.5-6t5.5-13V871q0-8-5.5-14t-13.5-6zM246 481q-12 19-10 41t18 38q16 16 38.5 18.5T334 569q4 10 14 22 17 17 41.5 18t43.5-14q5 13 14 21 18 19 44.5 19t44.5-19l172-172q48-47 72-116l26-76q7-20 20-33L995 34q9-11 3-21-2-5-7-8.5T981 1H629q-8 0-14 6-21 20-46 24l-54 9q-95 17-161 83l-93 93q-6 6-6 14t6 14q26 26 66 31L224 377q-18 19-18 45t18 45q12 10 22 14zm6-76l161-161 30-30q23 8 52 11 37 3 68.5-7.5T618 183q6-6 6-14t-5.5-13.5q-5.5-5.5-14-5.5t-13.5 5q-34 36-92 31-19-2-38-8l-15-5q-5-2-11.5-1t-10.5 5l-39 39q-16 16-38.5 19.5T304 228l78-77q58-58 139-73l54-9q35-6 61-29h300L798 191q-20 21-29 49l-26 76q-21 60-63 101L509 589q-7 7-17 7t-17.5-7.5Q467 581 467 571t7-17l103-103q6-5 6-13.5t-6-13.5q-6-5-14-5.5t-13 5.5L447 527l-37 36q-7 7-17 7t-17-7.5q-7-7.5-7-17t7-16.5l138-138q5-6 5-14t-5.5-13.5Q508 358 500 358t-14 5L316 533q-7 7-17 7t-17-7.5q-7-7.5-7-17.5t7-17l168-168q6-5 6-13.5t-5.5-14q-5.5-5.5-14-5.5t-13.5 6L286 439q-7 7-17 7t-17-7q-7-7-7.5-16.5T252 405zm294 256l-64 21q-21 7-33 25.5T438 748q1 22 16.5 39t38.5 20q23 3 43-9t27-34l22-64q3-8 1-17t-8.5-15q-6.5-6-15-8t-16.5 1zm-20 90q-5 14-19 17t-23.5-7q-9.5-10-5.5-23.5t17-18.5l48-16-17 48zm-4 223q-5-12-18-11.5T486 975q-3 8 1 15t11.5 9.5q7.5 2.5 14.5-1t9.5-10.5q2.5-7-.5-14z"/></svg>