<svg viewBox="0 0 1244 1083.753" xmlns="http://www.w3.org/2000/svg"><path d="M1000 947V548q0-8-8-13-48-26-104-26t-104 26q-6 4-20 10v-89q0-6-4-10.5t-10-4.5q-6 0-10.5 4.5T735 456v98q-4 0-6 1-35 6-70 0V68q0-16 11-27t27-11q16 0 27 11t11 27v329q0 6 4.5 10.5T750 412q6 0 10-4.5t4-10.5V68q0-28-19.5-47.5T697 1q-28 0-47.5 19.5T630 68v23H370V68q0-28-19.5-47.5T303 1q-28 0-47.5 19.5T236 68v101q0 6 4 10.5t10.5 4.5q6.5 0 10.5-4.5t4-10.5V68q0-16 11-27t27-11q16 0 27 11t11 27v487q-35 7-76-1V228q0-6-4-10.5t-10.5-4.5q-6.5 0-10.5 4.5t-4 10.5v317q-14-6-20-10-48-26-104-26T8 535q-8 5-8 13v399q0 6 4.5 10.5T15 962h970q6 0 10.5-4.5t4.5-10.5zm-33-158q-44-17-92.5-14t-90 25.5Q743 823 694.5 823T604 801q-48-26-104-26t-104 26q-42 22-90.5 22T215 800.5Q173 778 123.5 775T29 791V690l2-1q40-19 85.5-18t85.5 23q48 26 104 26t104-26q42-23 90.5-23t89.5 23q48 26 104 26t104-26q40-22 86-23t87 19v101q-2-2-4-2zM370 214h260v76H370v-76zm0 105h260v64H370v-64zm260-198v63H370v-63h260zM370 412h260v135q-15-5-26-12-49-26-104-26t-104 26q-11 7-26 12V412zM29 557q38-19 84-19t89 23q48 26 104 26t104-26q42-23 90-23t90 23q48 26 104 26t104-26q40-22 86-23t87 19v101q-38-16-83-16-55 0-104 26-41 22-89.5 22T604 668q-48-26-104-26t-104 26q-41 22-90 22t-91-22.5Q173 645 123.5 642T29 658V557zm0 375V823q41-20 87-19t86 23q47 26 102 26t103-25q44-23 92-24t91 23q48 26 103.5 26T797 827h1q40-22 86-23t87 19v109H29zm0 0z"/></svg>