<svg viewBox="0 0 1244 1083.753" xmlns="http://www.w3.org/2000/svg"><path d="M875 110q7 0 11.5-4.5T891 95V48q0-20-13.5-33.5T844 1h-63q-6 0-10.5 4.5t-4.5 11-4.5 11Q757 32 750 32t-11.5-4.5q-4.5-4.5-4.5-11t-4.5-11Q725 1 719 1h-63q-6 0-10.5 4.5t-4.5 11-4.5 11Q632 32 625 32t-11.5-4.5q-4.5-4.5-4.5-11t-4.5-11Q600 1 594 1h-63q-6 0-10.5 4.5t-4.5 11-4.5 11Q507 32 500 32t-11.5-4.5q-4.5-4.5-4.5-11t-4.5-11Q475 1 469 1h-63q-6 0-10.5 4.5t-4.5 11-4.5 11Q382 32 375 32t-11.5-4.5q-4.5-4.5-4.5-11t-4.5-11Q350 1 344 1h-63q-6 0-10.5 4.5t-4.5 11-4.5 11Q257 32 250 32t-11.5-4.5q-4.5-4.5-4.5-11t-4.5-11Q225 1 219 1h-63q-19 0-33 13.5T109 48v47q0 6 4.5 10.5T125 110t11.5 4.5Q141 119 141 126t-4.5 11.5Q132 142 125 142t-11.5 4.5Q109 151 109 157v63q0 6 4.5 10.5T125 235t11.5 4.5Q141 244 141 251t-4.5 11.5Q132 267 125 267t-11.5 4.5Q109 276 109 282v63q0 6 4.5 10.5T125 360t11.5 4.5Q141 369 141 376t-4.5 11.5Q132 392 125 392t-11.5 4.5Q109 401 109 407v63q0 6 4.5 10.5T125 485t11.5 4.5Q141 494 141 501t-4.5 11.5Q132 517 125 517t-11.5 4.5Q109 526 109 532v63q0 6 4.5 10.5T125 610t11.5 4.5Q141 619 141 626t-4.5 11.5Q132 642 125 642t-11.5 4.5Q109 651 109 657v63q0 6 4.5 10.5T125 735t11.5 4.5Q141 744 141 751t-4.5 11.5Q132 767 125 767t-11.5 4.5Q109 776 109 782v63q0 6 4.5 10.5T125 860t11.5 4.5Q141 869 141 876t-4.5 11.5Q132 892 125 892t-11.5 4.5Q109 901 109 907v47q0 19 14 33t33 14h63q6 0 10.5-4.5t4.5-11 4.5-11Q243 970 250 970t11.5 4.5q4.5 4.5 4.5 11t4.5 11q4.5 4.5 10.5 4.5h63q6 0 10.5-4.5t4.5-11 4.5-11Q368 970 375 970t11.5 4.5q4.5 4.5 4.5 11t4.5 11q4.5 4.5 10.5 4.5h63q6 0 10.5-4.5t4.5-11 4.5-11Q493 970 500 970t11.5 4.5q4.5 4.5 4.5 11t4.5 11q4.5 4.5 10.5 4.5h63q6 0 10.5-4.5t4.5-11 4.5-11Q618 970 625 970t11.5 4.5q4.5 4.5 4.5 11t4.5 11q4.5 4.5 10.5 4.5h63q6 0 10.5-4.5t4.5-11 4.5-11Q743 970 750 970t11.5 4.5q4.5 4.5 4.5 11t4.5 11q4.5 4.5 10.5 4.5h63q20 0 33.5-14t13.5-33v-47q0-6-4.5-10.5T875 892t-11.5-4.5Q859 883 859 876t4.5-11.5Q868 860 875 860t11.5-4.5Q891 851 891 845v-63q0-6-4.5-10.5T875 767t-11.5-4.5Q859 758 859 751t4.5-11.5Q868 735 875 735t11.5-4.5Q891 726 891 720v-63q0-6-4.5-10.5T875 642t-11.5-4.5Q859 633 859 626t4.5-11.5Q868 610 875 610t11.5-4.5Q891 601 891 595v-63q0-6-4.5-10.5T875 517t-11.5-4.5Q859 508 859 501t4.5-11.5Q868 485 875 485t11.5-4.5Q891 476 891 470v-63q0-6-4.5-10.5T875 392t-11.5-4.5Q859 383 859 376t4.5-11.5Q868 360 875 360t11.5-4.5Q891 351 891 345v-63q0-6-4.5-10.5T875 267t-11.5-4.5Q859 258 859 251t4.5-11.5Q868 235 875 235t11.5-4.5Q891 226 891 220v-63q0-6-4.5-10.5T875 142t-11.5-4.5Q859 133 859 126t4.5-11.5Q868 110 875 110zm-16-28q-20 7-27 25.5t0 37q7 18.5 27 25.5v37q-20 7-27 25.5t0 37q7 18.5 27 25.5v37q-20 7-27 25.5t0 37q7 18.5 27 25.5v37q-20 7-27 25.5t0 37q7 18.5 27 25.5v37q-20 7-27 25.5t0 37q7 18.5 27 25.5v37q-20 7-27 25.5t0 37q7 18.5 27 25.5v37q-20 7-27.5 25.5t0 37Q839 913 859 920v34q0 7-4.5 11.5T844 970h-50q-7-20-25.5-27.5t-37 0Q713 950 706 970h-37q-7-20-25.5-27.5t-37 0Q588 950 581 970h-37q-7-20-25.5-27.5t-37 0Q463 950 456 970h-37q-7-20-25.5-27.5t-37 0Q338 950 331 970h-37q-7-20-25.5-27.5t-37 0Q213 950 206 970h-50q-6 0-10.5-4.5T141 954v-34q20-7 27.5-25.5t0-37Q161 839 141 832v-37q20-7 27-25.5t0-37q-7-18.5-27-25.5v-37q20-7 27-25.5t0-37q-7-18.5-27-25.5v-37q20-7 27-25.5t0-37q-7-18.5-27-25.5v-37q20-7 27-25.5t0-37q-7-18.5-27-25.5v-37q20-7 27-25.5t0-37q-7-18.5-27-25.5v-37q20-7 27-25.5t0-37Q161 89 141 82V48q0-7 4.5-11.5T156 32h50q7 20 25.5 27.5t37 0Q287 52 294 32h37q7 20 25.5 27.5t37 0Q412 52 419 32h37q7 20 25.5 27.5t37 0Q537 52 544 32h37q7 20 25.5 27.5t37 0Q662 52 669 32h37q7 20 25.5 27.5t37 0Q787 52 794 32h50q6 0 10.5 4.5T859 48v34zm-125 28H266q-19 0-33 13.5T219 157v688q0 19 14 33t33 14h468q20 0 33.5-14t13.5-33V157q0-20-13.5-33.5T734 110zm16 735q0 6-4.5 10.5T734 860H266q-7 0-11.5-4.5T250 845V157q0-6 4.5-10.5T266 142h468q7 0 11.5 4.5T750 157v688zM500 348q-32-25-73-22.5T356 357q-21 21-28 49.5t0 56.5q7 28 28 49l133 133q5 4 11.5 4t10.5-4l133-133q21-21 28-49.5t0-56.5q-7-28-28-49-29-29-70.5-31.5T500 348zm122 142L500 611 379 490q-24-24-23.5-55.5t23-54.5q22.5-23 55.5-23t55 22q5 5 11.5 5t10.5-5q23-23 55.5-23t55.5 23q23 23 23 55.5T622 490zm-28 277H406q-6 0-10.5 4.5T391 782q0 6 4.5 11t10.5 5h188q6 0 10.5-4.5T609 782q0-7-4.5-11t-10.5-4z"/></svg>