<svg viewBox="0 0 1244 1083.753" xmlns="http://www.w3.org/2000/svg"><path d="M981 369h-75l-43-90q-12-25-38-34.5t-52 1.5q-21 11-30 29-13-17-33-37-2-2-2-6t2-7l18-22h45q8 0 14-6t6-14q0-8-6-13.5t-14-5.5h-15q18-27 18-61V21q0-8-5.5-13.5T757 2H584q-8 0-13.5 5.5T565 21q0 8 5.5 14t13.5 6h153v62q0 24-15 44l-13 17H556q-8 0-13.5 5.5T537 183q0 8 5.5 14t13.5 6h122q-10 13-9 31t13 31q42 43 65 90h-44q-25 0-43.5 18T641 417q0 18 8 30l-6 4q-6 4-9 8-18 18-18 43t18 43l6 6 4 3q-8 14-8 31 0 21 13 37t33 21q-5 10-5 25 1 19 11.5 33t27.5 20q-12 16-24 30l-22 25H330l-22-25q-7-8-21-26 23-2 38.5-19t16.5-39q1-16-7-31 13-8 21-22t8-30q0-16-8-30 12-8 19.5-21.5T384 503q1-16-8-32t-25-24q8-12 8-30 0-26-18-44t-44-18h-43q25-49 64-90 13-13 13.5-31.5T321 201l-43-54q-10-14-12-24h131q8 0 14-5.5t6-13.5q0-8-6-14t-14-6H263V41h150q8 0 13.5-6t5.5-14q0-8-5.5-13.5T413 2H243q-8 0-13.5 5.5T224 21v63h-29q-8 0-14 6t-6 14q0 8 6 13.5t14 5.5h31q5 27 21 48l43 54q2 3 2 7t-2 6q-17 17-32 37-11-19-31-29-26-11-52-1.5T137 279l-43 90H20q-8 0-14 6t-6 14v229q0 8 6 13.5t14 5.5h80l69 60q31 26 71 28 21 32 38 51H172q-8 0-14 6t-6 14v98q0 8 6 14t14 6h240v67q0 8 6 13.5t14 5.5h129q8 0 14-5.5t6-13.5v-67h240q8 0 13.5-6t5.5-14v-98q0-8-5.5-14t-13.5-6h-99q17-19 38-51 40-2 71-28l69-60h81q8 0 13.5-5.5t5.5-13.5V389q0-8-5.5-14t-13.5-6zM542 961h-91v-47h91v47zm259-86H192v-60h609v60zM120 603q-7-5-13-5H39V408h68q12 0 18-11l48-102q5-11 16-14.5t21.5 1.5q10.5 5 14.5 15.5t0 20.5l-19 49q-4 10 2 18.5t16 8.5h73q10 0 16.5 6.5t6.5 16q0 9.5-6.5 16.5t-16.5 7h-41q-8 0-14 6t-6 14q0 8 6 13.5t14 5.5h66q10 0 16.5 7t6.5 16.5q0 9.5-7 15.5t-17 6h-69q-8 0-14 6t-6 14q0 8 6 13.5t14 5.5h52q9 0 15 6.5t6 15q0 8.5-6 14.5t-15 6h-31q-8 0-13.5 6t-5.5 14q0 8 5.5 13.5T273 644h10q8 0 14 6.5t6 15q0 8.5-6.5 14.5t-14.5 6h-39q-13 0-25.5-5T195 668l-75-65zm841-5h-68q-7 0-12 5l-76 65q-10 8-22.5 13t-25.5 5h-20q-8 0-14-6.5t-6.5-14.5q-.5-8 5.5-14.5t14.5-6.5q8.5 0 14.5-6t6-13.5q0-7.5-6-13.5t-14-6h-41q-8 0-14.5-6t-6.5-14.5q0-8.5 6-15t15-6.5h52q8 0 14-5.5t6-13.5q0-8-6-14t-14-6h-71q-9 0-15.5-6.5t-6.5-16q0-9.5 7-16t17-6.5h65q8 0 14-5.5t6-13.5q0-8-6-14t-14-6h-41q-10 0-16.5-6.5T680 418v-1q0-10 6.5-16.5T703 394h73q10 0 16-8.5t2-17.5l-19-50q-4-11 .5-21.5t14.5-15q10-4.5 21.5-1T828 295l48 102q2 5 7 8t10 3h68v190zM481 29q4 7 11.5 10t14.5 0q7-3 10.5-10.5t0-15Q514 6 506.5 3T492 3q-7 3-10.5 10.5T481 29z"/></svg>