<svg viewBox="0 0 1244 1083.753" xmlns="http://www.w3.org/2000/svg"><path d="M984 401q-12-14-29-17l2-2q18-18 18-43t-18-42q-11-11-27-16l2-2q17-17 17-42t-17.5-42.5Q914 177 889 177t-42 18l-2 2q-5-18-17-29-15-14-36-15.5t-38 9.5q-4-11-16-23-17-16-41.5-15.5T655 141l-44 44q-4 4-4 10t4.5 10.5q4.5 4.5 10 4.5t10.5-5l43-43q9-9 22-9.5t21 7.5q12 10 10 26L545 369v-10q0-13-5.5-25.5T524 313l59-59q5-5 5-11t-4.5-10.5Q579 228 573 228t-10 5l-67 67-10-1q-18 0-34 11-6-17-21.5-28T396 271q-25 0-42 17t-17 42l-1 97q0 59-34 112-12 18-27 33L160 687q-4 4-4 10t4 10l289 290q4 4 10.5 4t10.5-4l211-211q5-5 5-11t-4.5-10.5Q677 760 671 760t-11 5l-84 85-210-210 19-19q15-14 31-37 37-58 39-128l1-97q0-13 8.5-21.5T486 329q13 0 21.5 8.5T516 359v45q0 11 9 14 4 2 8.5 1t7.5-4l224-224q9-9 21.5-9.5t22 8.5q9.5 9 9.5 21.5t-9 21.5L635 407q-4 4-4 10t4 10.5q4 4.5 10.5 4.5t10.5-4l212-212q9-9 21.5-9t21.5 8q9 8 9 21.5t-9 22.5L699 471q-4 4-4 10t4 10.5q4 4.5 10.5 4.5t9.5-4l174-174q9-9 22-9t22 9q9 9 8.5 21.5T937 361L763 535q-4 4-4 10t5 10.5q5 4.5 9 4.5t10-4l136-136q9-9 21.5-9t21.5 9.5q9 9.5 8.5 22T961 464L709 716q-4 4-4 10t4.5 10.5Q714 741 720 741t10-4l252-252q17-17 17.5-42T984 401zM286 603l39 37-95 96-39-39 95-94zm269 267l-95 96-210-210 96-95 209 209zM392 568q-12 18-27 33l-19 19-40-38q14-18 20-27 39-59 39-128l1-97q0-13 9-21.5t21.5-8.5q12.5 0 21 8.5T426 330l-1 125q0 60-33 113zM163 296q4 4 10.5 4t10.5-4l36-37q5-5 5-11t-4.5-10q-4.5-4-10.5-4t-10 4l-27 27L48 140q-19-19-19-45.5T48 49q19-19 45.5-19T139 49l24 24q6 4 10.5 4t10.5-4l23-24q19-19 45.5-19T298 49q19 19 19 45.5T298 140l-50 50q-4 4-4 10t4.5 10.5Q253 215 259 215t10-4l50-50q27-29 27-66.5T319 28Q290 1 252.5 1T186 28l-13 14-13-14Q131 1 94 1 75 1 58 8T28 28Q0 56 0 94.5T28 161l135 135zm218-144l22 8q15 6 20 21l12 40q3 10 14 10 5 0 9-3t5-7l12-40q5-15 20-21l22-8q10-5 10-14 0-5-3-9t-7-5l-22-8q-15-6-20-21l-12-40q-2-5-6-8t-8-3q-10 0-14 11l-12 40q-5 15-20 21l-22 8q-4 1-7 5t-3 9q0 9 10 14zm68-43q7 18 25 29-18 11-25 29-7-18-25-29 18-11 25-29zM146 398l-22-8q-16-6-20-21l-12-40q-1-4-5-7t-9-3q-11 0-14 10l-12 40q-4 15-20 21l-22 8q-10 5-10 14 0 5 3 9t7 5l22 8q15 6 20 22l12 39q4 11 14 11 4 0 8-3t6-8l12-39q5-16 20-22l22-8q4-1 7-5t3-9q0-9-10-14zm-68 43q-7-18-25-29 18-11 25-29 7 18 25 29-18 11-25 29z"/></svg>