<svg viewBox="0 0 1244 1083.753" xmlns="http://www.w3.org/2000/svg"><path d="M978 610q0-29-20.5-50T908 539h-2q14-17 14-40 0-27-19-46t-46-19q-13 0-29 7 1-3 1-10 0-25-17.5-42.5T767 371q-19 0-35 11-1-23-17.5-39.5T675 326q-23 0-40 15-2-20-17-33t-34-13q-13 0-27 7 4-14 4-23 0-14-4.5-37.5T545 197q-10-31-19-44-18-56-5-69 8-10 38-6 17 2 60 13l3 1q70 19 165 38 77 16 82 17t8-4q28-33 15-131l-1-4q-1-4-3.5-6T881 1h-2q-68 8-149 10-28 1-76 1h-9q-84 2-111 6-40 7-58.5 27.5T461 106q3 24 12 50-8 12-18 41-7 21-11.5 44.5T439 279q0 11 3 23-12-7-26-7-19 0-34 13t-17 33q-17-15-40-15t-39.5 16.5Q269 359 268 382q-16-11-35-11-25 0-42.5 17.5T173 431q0 7 1 10-16-7-29-7-27 0-46 19t-19 46q0 21 14 40h-2q-29 0-49.5 21T22 610q0 25 16 44.5T78 679q-11 9-17.5 22.5T54 731q0 29 20 49.5t49 20.5q4 0 12-2h2q-8 16-8 33 0 31 22 53t53.5 22q31.5 0 53.5-22 3 32 27 54t57 22q20 0 38-9t29-25q7 32 32.5 53t58.5 21q33 0 58.5-21t32.5-53q11 16 29 25t39 9q32 0 56-22t27-54q22 22 53.5 22t53.5-22q22-22 22-53 0-17-8-33h2q8 2 12 2 29 0 49-20.5t20-49.5q0-16-6.5-29.5T922 679q24-5 40-24.5t16-44.5zM577 856q-13-19-33.5-30T500 815q-23 0-43.5 11T423 856q-7-27-29.5-45T342 793q-18 0-35 7.5T279 821q-4-27-25-45.5T205 757q-12 0-18 2 6-14 6-28 0-24-15.5-43.5T138 663q11-9 18-23t7-30q0-26-17-46 26 0 45-19t19-46q0-8-1-12 12 5 24 5 25 0 43-17.5t18-42.5q14 9 32 9 23 0 39.5-15.5T384 387q13 11 32 11 22 0 37-15t15-36v-2q13 10 29 10 19 0 35-14v6q0 21 15 36t37 15q19 0 33-11 1 23 17.5 38.5T674 441q19 0 32-9 1 25 18.5 42.5T767 492q12 0 24-5l-1 12q0 27 19 46t45 19q-17 20-17 46 0 16 7 30t18 23q-24 5-39.5 24.5T807 731q0 14 6 28-6-2-17-2-28 0-49.5 18.5T721 821q-11-13-27.5-20.5T659 793q-30 0-52.5 18T577 856zm326-357q0 19-14 33.5T855 547q-15 0-27.5-8.5T810 516h60q4 0 6-2.5t2-6.5q0-4-2-6.5t-6-2.5h-63q1-19 15-32.5t33.5-13.5q19.5 0 33.5 14t14 33zM767 388q14 0 25.5 8.5T808 419h-28q-8 0-8 8 0 4 2 6.5t6 2.5h30q-1 16-13.5 27.5t-30 11.5q-17.5 0-30-13T724 431.5q0-17.5 12.5-30.5t30.5-13zm-93-45q17 0 29 12t12 29q0 17-12 28.5T674.5 424q-16.5 0-28.5-12t-12-28.5q0-16.5 11.5-28.5t28.5-12zm-90-31q14 0 24 10.5t10 24.5q0 14-10 24t-24 10q-14 0-24.5-10T549 347q0-14 10.5-24.5T584 312zm-40-33q0 22-15 40.5T497 338q-17 0-28.5-18.5T457 279q0-5 2-23v-4h57q3 0 5.5-2t2.5-6q0-4-2.5-6.5T516 235h-53v-2q2-10 4-14h29q4 0 6.5-2.5t2.5-6.5q0-4-2.5-6t-6.5-2h-24q8-26 17-40 7-10 11.5-10t11.5 10q8 14 17 40 7 21 11 43t4 34zM488 58q16-18 54-24 25-3 107-4l82-2q65-1 138-8l6-1q2 12 2 22H740q-4 0-6.5 2t-2.5 6q0 4 2.5 6.5T740 58h138q2 8 0 16h-67q-4 0-6.5 2.5t-2.5 6q0 3.5 2.5 6T811 91h66l-1 13h-20q-4 0-6.5 2t-2.5 6q0 4 2.5 6.5t6.5 2.5h15l-4 7q-29-4-93-18-83-17-148-34-50-13-71-16-33-3-47 12-17 18-5 63h-3q-7 0-14 5-8-23-8-43-1-27 10-39zm-72 254q14 0 24.5 10.5T451 347q0 14-10.5 24T416 381q-14 0-24-10t-10-24q0-14 10-24.5t24-10.5zm-90 31q17 0 28.5 12t11.5 29v2h-27q-4 0-6.5 2.5T330 395q0 4 2.5 6.5t6.5 2.5h22q-5 9-14.5 14.5T326 424q-17 0-29-11.5T285 384q0-17 12-29t29-12zm-93 45q18 0 31 13t13 30.5q0 17.5-13 30.5t-30.5 13q-17.5 0-30.5-13t-13-31q0-4 1-6h30q4 0 6.5-2.5t2.5-6.5q0-4-2.5-6.5T221 407h-24q14-19 36-19zm-88 64q20 0 34 14t14 33q0 19-14 33.5T145.5 547q-19.5 0-33.5-14t-14-34q0-20 14-33.5t33-13.5zM39 610h45q4 0 6.5-2.5T93 601q0-4-2.5-6.5T84 592H42q5-16 19-26t31-10q23 0 38.5 15.5t15.5 38q0 22.5-16 38T92 663q-22 0-37.5-15.5T39 610zm32 121q0-21 15.5-36.5T123 679q21 0 37 15.5t16 37q0 21.5-15.5 37T123 784q-22 0-37-15.5T71 731zm134 159q-24 0-41-17t-17-41q0-24 17-41t41-17q24 0 41 17t17 41q0 24-17 41t-41 17zm137 54q-28 0-47.5-19.5T275 877q0-28 19.5-47.5T342 810q19 0 35 11h-55q-3 0-5.5 2t-2.5 6q0 4 2.5 6.5t5.5 2.5h74q4 6 5 9h-47q-3 0-5.5 2.5T346 856q0 4 2.5 6t5.5 2h53l1 2q1 8 1 11 0 28-19.5 47.5T342 944zm158 40q-31 0-53-22t-22-53.5q0-31.5 22-53.5t53-22q31 0 53.5 22t22.5 53v2h-28q-4 0-6.5 2.5T539 919q0 4 2.5 6.5t6.5 2.5h25q-1 7-6 15h-53q-8 0-8 8 0 4 2 6.5t6 2.5h41q-10 11-24.5 17.5T500 984zm159-40q-28 0-47.5-19.5T592 877q0-12 3-22h70q4 0 6.5-2.5t2.5-6.5q0-4-2.5-6.5T665 837h-60q9-12 23-19.5t31-7.5q27 0 47 19.5t20 47.5q0 11-5 23h-67q-4 0-6 2.5t-2 6.5q0 4 2 6.5t6 2.5h58q-9 12-23 19t-30 7zm137-54q-24 0-41-17t-17-41q0-24 17-41t41-17q24 0 41 17t17 41l-1 5h-63q-4 0-6.5 2.5T781 846q0 4 2.5 6.5t6.5 2.5h59q-7 15-21.5 25T796 890zm133-159q0 22-15.5 37.5t-37 15.5q-21.5 0-36.5-15.5t-15-37q0-21.5 15-37t36.5-15.5q21.5 0 37 15.5T929 731zm-21-68q-22 0-38-15.5t-16-38q0-22.5 16-38t38-15.5q22 0 37.5 16t15.5 38q0 22-15.5 37.5T908 663z"/></svg>