<svg viewBox="0 0 1244 1083.753" xmlns="http://www.w3.org/2000/svg"><path d="M578 423v263q0 54 35 99 28 34 28 78v60q0 7 4.5 11.5T656 939q6 0 11-4.5t5-11.5v-60q0-54-35-99-28-34-28-78V423q0-10 7-17t17-7q10 0 16.5 7t6.5 17v140q0 7 4.5 11.5T672 579q7 0 11.5-4.5T688 563V368q0-10 6.5-16.5T711 345q10 0 16.5 6.5T734 368v195q0 7 4.5 11.5T750 579q7 0 11.5-4.5T766 563V337q0-10 6.5-17t16.5-7q10 0 17 7t7 17v226q0 7 4.5 11.5T828 579q6 0 11-4.5t5-11.5V368q0-10 6.5-16.5T867 345q10 0 17 6.5t7 16.5v117q0 7 4.5 11.5T906 501q6 0 11-4.5t5-11.5V368q0-23-16-38.5T867 314q-15 0-26 7-7-22-26.5-32.5T773 285q-27 8-36 36-11-7-26-7-23 0-39 16t-16 38v6q-10-6-23-6-22 0-38.5 16T578 423zm395 105q-19-11-41-5.5T899 548l-36 63q-36 4-60 30.5T779 704q0 7 4.5 11.5T794 720q6 0 11-4.5t5-11.5q0-26 18.5-44t43.5-18q8 0 13-8l41-71q5-8 14-10t17 2q8 4 11 13.5t-2 17.5L865 772q-21 37-21 81v70q0 7 4.5 11.5T859 939q6 0 11-4.5t5-11.5v-71q0-35 17-64l102-187q10-20 4-41t-25-32zM211 282q-18 0-32.5 11T159 321q-20-11-41.5-5T85 342q-7 14-7 26v117q0 7 4.5 11.5T94 501q7 0 11-4.5t4-11.5V368q0-10 7-16.5t17-6.5q10 0 16.5 6.5T156 368v195q0 7 4.5 11.5T172 579q7 0 11.5-4.5T188 563V337q0-10 6.5-17t16.5-7q10 0 16.5 7t6.5 17v226q0 7 4.5 11.5T250 579q7 0 11.5-4.5T266 563V368q0-10 6.5-16.5T289 345q10 0 17 6.5t7 16.5v195q0 7 4.5 11.5T328 579q6 0 11-4.5t5-11.5V423q0-10 6.5-17t16.5-7q10 0 17 7t7 17v263q-2 47-29 79-34 43-34 98v60q0 7 4.5 11.5T344 939q7 0 11-4.5t4-11.5v-60q2-45 29-79 34-43 34-98V423q0-23-16-39t-39-16q-12 0-23 6v-6q0-23-16-39t-39-16q-12 0-26 7-5-17-19.5-27.5T211 282zM27 528Q9 539 3 560t3 41l102 187q17 31 17 65v70q0 7 4.5 11.5T141 939q7 0 11-4.5t4-11.5v-71q0-43-21-80L34 586q-4-9-1.5-18T43 554.5q8-4.5 17.5-2T74 563l41 71q1 3 5 5t8 2q26 1 44 19t18 44q0 6 5 11t11 5q6 0 11-5t5-11q0-36-24.5-62.5T138 611l-37-63q-11-20-33-25.5T27 528zm473-340q7 0 11.5-4.5T516 173V79q0-7-4.5-11.5T500 63q-7 0-11.5 4.5T484 79v94q0 6 4.5 10.5T500 188zm-16 63q0 7 4.5 11.5T500 267q7 0 11.5-4.5T516 251v-16q0-6-4.5-10.5T500 220q-7 0-11.5 4.5T484 235v16zm164-13l66-66q5-5 5-11.5t-4.5-11q-4.5-4.5-11-4.5t-11.5 5l-66 66q-5 5-5 11.5t4.5 11q4.5 4.5 11 4.5t11.5-5zm-66 22l-11 11q-4 4-4 10.5t4.5 11q4.5 4.5 11 4.5t10.5-4l11-11q5-5 4.5-11.5t-5-11Q599 255 593 255t-11 5zm-219-18q7 1 11.5-3.5t4.5-11q0-6.5-5-11.5l-66-66q-4-5-10.5-5t-11 4.5q-4.5 4.5-4.5 11t4 11.5l66 66q5 5 11 4zm55 18q-4-5-10.5-5t-11 4.5q-4.5 4.5-4.5 11t4 11.5l11 11q5 4 11.5 4t11.5-4.5q5-4.5 5-11t-5-10.5l-12-11z"/></svg>