<svg viewBox="0 0 1244 1083.753" xmlns="http://www.w3.org/2000/svg"><path d="M997 79V39q0-16-11-27T959 1H39Q23 1 12 12T1 39v40q0 12 6 21t17 14v590q-11 5-17 14t-6 21v16q0 16 11 27t27 11h142q6 0 10-4t4-10q0-6-4-10.5t-10-4.5H39q-4 0-6.5-2.5T30 755v-16q0-4 2.5-6.5T39 730h920q4 0 6.5 2.5t2.5 6.5v16q0 4-2.5 6.5T959 764H243q-6 0-10 4.5t-4 10.5q0 6 4 10t10 4h241v106h-18q-20 0-35 15t-15 35.5q0 20.5 15 35t35 14.5h66q20 0 35-14.5t15-35q0-20.5-15-35.5t-35-15h-18V793h445q16 0 27-11t11-27v-16q0-12-6-21t-17-14V114q11-5 17-14t6-21zM552 949q0 8-6 14.5t-14 6.5h-66q-8 0-14-6.5t-6-14.5q0-8 6-14.5t14-6.5h66q8 0 14 6.5t6 14.5zM30 39q0-4 2.5-6.5T39 30h920q4 0 6.5 2.5T968 39v40q0 4-2.5 6.5T959 88H826q-6 0-10.5 4t-4.5 10q0 6 4.5 10.5T826 117h119v584H53V117h711q6 0 10-4.5t4-10.5q0-6-4-10t-10-4H39q-4 0-6.5-2.5T30 79V39zm710 142q-27 28-72 73-2-1-5-5l-3-3q-32-32-73-49t-86-17h-2q-46 0-88 17.5t-74.5 50q-32.5 32.5-50 75T270 411q0 69 42 129l-79 78H114q-6 0-10 4.5t-4 10.5q0 6 4 10.5t10 4.5h125q6 0 11-5l80-80q32 35 75.5 55t91.5 20h2q38 0 74-12.5t66-35.5q11-8 11-22t-11-22l-40-30q-7-5-15.5-5.5T568 515q-35 21-75 20-33-2-61-19-5-3-11-1.5t-9 6.5q-3 5-1.5 11t6.5 9q34 21 75 23 48 3 91-24l37 28q-53 41-121 41h-2q-53 0-98.5-27T326 509.5Q299 464 299 411q0-41 15-78t43.5-65q28.5-28 65-43.5T499 209h2q53 0 98 27t72 72q27 45 28 98 0 40-13 75l-38-28q7-25 6-52.5t-12.5-54Q630 320 610 299.5t-46-32Q538 256 509 254q-34-2-65.5 10t-55 35.5q-23.5 23.5-35 55T344 419q1 36 23 73 4 5 10 6.5t11-2q5-3.5 6-9.5t-2-11q-18-29-19-59-2-27 8-52.5t29-44.5q19-19 44.5-29t52.5-8q48 3 82 37 34 36 36 83 1 21-5 42-2 8 .5 17t9.5 14l40 29q11 8 24 5 14-5 18-17 17-44 16-88-2-71-42-128l34-33q15-16 37-38h120q7 0 11-4.5t4-10.5q0-6-4-10.5t-11-4.5H751q-6 0-11 5zm137 80h-94q-6 0-10.5 4t-4.5 10q0 6 4.5 10.5T783 290h94q7 0 11-4.5t4-10.5q0-6-4-10t-11-4zm0 88h-94q-6 0-10.5 4.5T768 364q0 6 4.5 10.5T783 379h94q7 0 11-4.5t4-10.5q0-6-4-10.5t-11-4.5zm0 89h-94q-6 0-10.5 4.5T768 453q0 6 4.5 10.5T783 468h94q7 0 11-4.5t4-10.5q0-6-4-10.5t-11-4.5zm0 89h-94q-6 0-10.5 4.5T768 542q0 6 4.5 10t10.5 4h94q7 0 11-4t4-10q0-6-4-10.5t-11-4.5zm-763 36h109q6 0 10-4t4-10q0-6-4-10.5t-10-4.5H114q-6 0-10 4.5t-4 10.5q0 6 4 10t10 4zm0-86h109q6 0 10-4t4-11q0-7-4-10.5t-10-3.5H114q-6 0-10 4t-4 10q0 6 4 10.5t10 4.5zm0-86h109q6 0 10-4.5t4-10.5q0-6-4-10t-10-4H114q-6 0-10 4t-4 10q0 6 4 10.5t10 4.5zm0-86h109q6 0 10-4.5t4-10.5q0-6-4-10.5t-10-4.5H114q-6 0-10 4.5t-4 10.5q0 6 4 10.5t10 4.5z"/></svg>