<svg viewBox="0 0 1244 1083.753" xmlns="http://www.w3.org/2000/svg"><path d="M667 189q5 4 11 4t10-4l13-13q5-5 5-11t-4.5-10.5Q697 150 691 150t-11 5l-13 13q-4 4-4 10t4 11zm0 0zm155 149q6 0 11-5l13-13q5-4 5-10t-5-10q-5-4-11-4t-10 4l-13 13q-4 4-4 10t4.5 10.5q4.5 4.5 9.5 4.5zm0 0zm-55-56q7 0 12-4t4.5-10.5q-.5-6.5-5-11T768 253q-9 0-15-6.5t-5.5-13q.5-6.5-3.5-11t-10-5q-6-.5-10.5 3.5t-5.5 10q-1 21 15 37 14 14 34 14zm0 0zm-441 719q17 0 31-7.5t24-20.5q23-31 34-59 7-20 7-35l266-266q26-2 43-20l52-52q9-9 11-22t-3-25l182-181q27-28 27-66t-27-66L819 28Q792 1 753.5 1T688 28L506 209q-7-3-17-3-18 0-30 12l-51 51q-18 18-20 44L230 470q-4 4-4 10t4.5 10.5Q235 495 241 495t10-4l143-143q13 24 36 33 10 4 16 4-40 22-74 54-28 28-47 61t-27 67q-8 34-1.5 63t26.5 48q18 18 45 25 24 6 52 2 58-8 112-51 5-4 6-10t-3-11q-4-5-10-5.5t-11 3.5q-48 39-98 45-47 7-73-19-14-13-18-35.5t2.5-50.5q6.5-28 23.5-57t42-54q40-40 86-58 11 13 14 27 9 40 31 58 10 9 36 16 21 6 30 12 6 4 8 7-16 40-46 73-4 5-3.5 11t5.5 10q5 4 10.5 3.5t9.5-4.5q27-30 41-60l3 11q10 30 35 40L407 852 148 594l62-62q4-4 4-10t-4-10.5q-4-4.5-10-4.5t-11 5l-67 67q-40 0-94 40-17 12-24 31.5T1 690q4 20 19 34l257 257q20 20 49 20zM709 48q18-18 44.5-18T798 48l154 154q19 19 19 45t-19 45L772 472 529 228l90-90q90-89 90-90zM480 239q4-4 9-4t9 4l264 264q4 4 4 9t-4 9l-51 51q-11 10-25.5 11t-26.5-7.5q-12-8.5-14-22.5-5-29-25-50.5T571 477q-18-2-31.5-15.5T523 429q-4-26-23.5-46.5T454 357q-18-4-25-11-12-11-12-28t12-28l51-51zM29 672q2-18 16-29 27-20 50-29 15-6 26-6l272 271q-2 32-35 77-11 14-29.5 15.5T297 960L169 832Q41 704 41 703q-14-12-12-31zm0 0z"/></svg>