<svg viewBox="0 0 1244 1083.753" xmlns="http://www.w3.org/2000/svg"><path d="M67 1001h461q7 0 12-5t5-12q0-7-5-11.5t-12-4.5H67q-14 0-24-10t-10-24v-16h484q7 0 11.5-5t4.5-12q0-7-4.5-11.5T517 885H33V385h467q7 0 12-5t5-12q0-7-5-12t-12-5H33v-16q0-14 10-24t24-10q28 0 47-19.5t19-46.5v-34h367v34q0 21 12.5 38t32.5 24q3 2 8 1.5t8-3.5q8-6 6-17-4-9-13-12.5t-15-12q-6-8.5-6-18.5v-34q21 0 35.5-14.5T583 151V51q0-21-14.5-35.5T533 1H100Q80 1 65 15.5T50 51v100q0 20 15 35t35 15v33q0 14-9.5 24T67 268q-28 0-47.5 19T0 334v600q0 28 19.5 47.5T67 1001zm16-850V51q0-7 5-12t12-5h433q7 0 12 5t5 12v100q0 7-5 12t-12 5h-33v-50q0-8-4.5-12.5t-12-4.5q-7.5 0-12 5t-4.5 12v50h-34v-50q0-7-4.5-12t-11.5-5q-7 0-12 5t-5 12v50h-33v-50q0-7-5-12t-12-5q-7 0-11.5 5t-4.5 12v50h-34v-50q0-7-4.5-12t-11.5-5q-7 0-12 4.5t-5 12.5v50h-33v-50q0-7-5-12t-12-5q-7 0-12 5t-5 12v50h-33v-50q0-7-5-12t-12-5q-7 0-12 5t-5 12v50h-33q-7 0-12-5t-5-12zm234 267q-59 0-109 29t-79 78.5Q100 575 100 634t29 108.5q29 49.5 79 79T317 851q59 0 108.5-29t78.5-79q29-50 29-109t-29-108.5Q475 476 425.5 447T317 418zm0 400q-50 0-92.5-24.5t-67-67Q133 684 133 634t24.5-92q24.5-42 67-66.5T317 451q50 0 92 24.5t66.5 66.5q24.5 42 24.5 92t-24.5 92.5Q451 769 409 793.5T317 818zm100-200h-48l14-115q1-5-1.5-10t-7.5-7q-10-4-18 2L206 622q-5 4-6 9t1 9q5 11 16 11h48l-15 115q-1 4 1.5 9t7 7.5q4.5 2.5 10 2t9.5-4.5l150-133q9-9 4-19-1-5-5.5-7.5T417 618zM289 726l11-90q0-8-4.5-13t-12.5-5h-23l85-75-12 89q0 9 5 13 5 6 12 6h23l-84 75zM182 234q-6 0-10.5 4t-5.5 11q-5 24-18 43-5 8-1 17t13 10q11 0 15-7 15-21 21-44h154q7 0 12-5t5-12q0-7-5-12t-12-5H182zm235 0q-7 0-12 5t-5 12q0 7 5 12t12 5h33q7 0 12-5t5-12q0-7-5-12t-12-5h-33zm366 700h46q6 0 10.5-4t6.5-10l10-68q1-9-6.5-15.5t-17-2.5q-9.5 4-9.5 13l-8 54h-32q-7 0-11.5 5t-4.5 12q0 7 4.5 11.5T783 934zm167-616v-67q0-16-9-29t-24-18v-53q7 0 11.5-5t4.5-12q0-7-4.5-11.5T917 118H767q-7 0-12 4.5t-5 11.5q0 7 5 12t12 5v50H650q-20 0-35 14.5T600 251v67q-20 0-35 14.5T550 368v50q0 8 4.5 16t12.5 12v488q0 28 19.5 47.5T633 1001h210q25 0 44-16.5t22-40.5l72-497q9-4 14-12t5-17v-50q0-21-14.5-35.5T950 318zM800 151h83v50h-83v-50zM583 368q0-7 5-12t12-5h83q8 0 12.5-5t4.5-12q0-7-5-11.5t-12-4.5h-50v-67q0-7 5-12t12-5h250q7 0 12 5t5 12v67H767q-7 0-12 4.5t-5 11.5q0 7 5 12t12 5h183q7 0 12 4.5t5 11.5v50H583v-49zm294 571q-2 13-11.5 21t-21.5 8H633q-14 0-23.5-10t-9.5-24V451h348l-71 488zM650 518h100q7 0 12-5t5-12q0-7-5-12t-12-5H650q-7 0-12 5t-5 12q0 7 5 12t12 5zm0 83h33q8 0 12.5-5t4.5-12q0-7-4.5-11.5T683 568h-33q-7 0-12 4.5t-5 11.5q0 7 5 12t12 5zm0 83h100q7 0 12-4.5t5-11.5q0-7-5-12t-12-5H650q-7 0-12 5t-5 12q0 7 5 11.5t12 4.5zm0 84h33q7 0 12-5t5-12q0-7-5-12t-12-5h-33q-7 0-12 5t-5 12q0 7 5 12t12 5zm0 83h100q7 0 12-5t5-12q0-7-5-11.5t-12-4.5H650q-7 0-12 4.5t-5 11.5q0 7 5 12t12 5zm0 83h33q7 0 12-4.5t5-11.5q0-7-5-12t-12-5h-33q-7 0-12 5t-5 12q0 7 5 11.5t12 4.5z"/></svg>