<svg viewBox="0 0 1244 1083.753" xmlns="http://www.w3.org/2000/svg"><path d="M232 627q6 0 10-4t4-10v-26q0-6-4-10.5t-10-4.5q-6 0-10.5 4.5T217 587v26q0 6 4.5 10t10.5 4zm0 0zm288 0q6 0 10-4t4-10v-26q0-6-4-10.5t-10.5-4.5q-6.5 0-10.5 4.5t-4 10.5v26q0 6 4 10t11 4zm0 0zm-144 14q30 0 46-21 4-4 4-10t-4.5-10q-4.5-4-11-4t-10.5 5q-9 11-24.5 11T351 601q-4-5-10-5t-10.5 4q-4.5 4-5 9.5T329 620q18 21 47 21zm0 0zM4 862q5 29 20 55t38 44.5q23 18.5 51.5 29T172 1001h407q31 0 59.5-10.5t51-29.5q22.5-19 38-44.5T748 862q2-20 2-31V443q0-50-25-97-22-39-60-66l-56-39q21-16 21-42 0-17-10.5-30.5T592 150V69q0-28-19.5-48T525 1H227q-28 0-48 19.5T159 69v81q-16 4-26.5 18T122 199q0 25 20 42l-56 39q-39 30-59 66-26 46-26 98v387q0 16 3 31zm44-494h655q15 29 17 61H31q3-31 17-61zm673 91v295H30V459h691zm-50 480q-41 33-92 33H172q-25 0-48.5-8.5T81 939q-32-27-44-65h512q6 0 10.5-4.5T564 859q0-6-4.5-10.5T549 844H31q-2-15-1-46v-15h691v15q1 31-1 46H608q-6 0-10 4t-5 10q-1 6 3.5 11t11.5 5h107q-11 36-44 65zM174 177h102q6 0 10-4.5t4-10.5q0-6-4-10.5t-10-4.5h-88V69q0-16 11.5-27.5T227 30h298q16 0 27 11.5T563 69v78H334q-6 0-10 4.5t-4 10.5q0 6 4 10.5t10 4.5h244q9 0 15.5 6.5t6.5 16q0 9.5-6.5 16T578 222H174q-10 0-16.5-6.5t-6.5-16q0-9.5 6.5-16T174 177zm-71 127l75-53h395l76 53q18 14 36 35H67q16-21 36-35zm0 0z"/></svg>