<svg viewBox="0 0 1244 1083.753" xmlns="http://www.w3.org/2000/svg"><path d="M250 1001h500q28 0 47.5-19.5T817 934V334q0-28-19.5-47T750 268q-14 0-23.5-10t-9.5-24v-33q20 0 35-15t15-35V51q0-21-15-35.5T717 1H283q-20 0-35 14.5T233 51v100q0 20 15 35t35 15v33q0 14-9.5 24T250 268q-28 0-47.5 19.5T183 334v600q0 28 19.5 47.5T250 1001zm500-33H250q-14 0-23.5-10t-9.5-24v-16h566v16q0 14-9.5 24T750 968zM217 384h566v500H217V384zm50-233V51q0-7 4.5-12t11.5-5h434q7 0 11.5 5t4.5 12v100q0 7-4.5 12t-11.5 5h-34v-50q0-7-4.5-12t-11.5-5q-7 0-12 5t-5 12v50h-33v-50q0-7-5-12t-12-5q-7 0-12 5t-5 12v50h-33v-50q0-8-4.5-12.5t-12-4.5q-7.5 0-12 5t-4.5 12v50h-34v-50q0-7-4.5-12t-11.5-5q-7 0-12 5t-5 12v50h-33v-50q0-7-5-12t-12-5q-7 0-11.5 5t-4.5 12v50h-34v-50q0-7-4.5-12t-11.5-5q-7 0-12 5t-5 12v50h-33q-7 0-12-5t-5-12zm-17 150q28 0 47.5-19.5T317 234v-33h366v33q0 28 19.5 47.5T750 301q14 0 23.5 9.5T783 334v17H217v-17q0-14 10-23.5t23-9.5zm250 117q-59 0-109 29t-79 78.5Q283 575 283 634t29 108.5q29 49.5 79 79T500 851q59 0 109-29t79-79q29-50 29-109t-29-108.5Q659 476 609 447t-109-29zm0 400q-50 0-92-24.5t-66.5-67Q317 684 317 634t24.5-92q24.5-42 66.5-66.5t92-24.5q50 0 92 24.5t66.5 66.5q24.5 42 24.5 92t-24.5 92.5Q634 769 592 793.5T500 818zm100-200h-48l14-115q1-5-1.5-10t-6.5-7q-4-2-9.5-1.5T539 488L389 622q-8 8-4 18.5t15 10.5h48l-14 115q-1 5 1.5 9.5t6.5 7q4 2.5 9.5 2t9.5-4.5l150-133q8-8 4-18.5T600 618zM472 726l11-90q1-6-4-13-5-5-12-5h-23l84-75-11 89q-1 7 4 13t12 6h23l-84 75zM345 319q9 0 14-7 14-22 20-44h155q7 0 11.5-5t4.5-12q0-7-4.5-12t-11.5-5H366q-6 0-11 4t-6 11q-3 23-17 43-6 7-2 18 5 9 15 9zm255-51h33q7 0 12-5t5-12q0-7-5-12t-12-5h-33q-7 0-12 5t-5 12q0 7 5 12t12 5z"/></svg>