<svg viewBox="0 0 1244 1083.753" xmlns="http://www.w3.org/2000/svg"><path d="M500 743q-66 0-121.5-32.5t-88-88Q258 567 258 501t32.5-121.5q32.5-55.5 88-88T500 259q66 0 121.5 32.5t88 88Q742 435 742 501t-32.5 121.5q-32.5 55.5-88 88T500 743zm0-459q-59 0-109 29t-79 79q-29 50-29 109t29 109q29 50 79 79t109 29q59 0 109-29t79-79q29-50 29-109t-29-109q-29-50-79-79t-109-29zm0 459q-31 0-56-32t-40-87.5Q389 568 389 501t15-122.5q15-55.5 40-87.5t56-32q31 0 56 32t40 87.5Q611 434 611 501t-15 122.5Q581 679 556 711t-56 32zm0-459q-21 0-41 28t-32 76q-13 52-13 113t13 113q13 48 33 76t40 28q20 0 40-28t33-76q13-52 13-113t-13-113q-12-48-32-76t-41-28zm17 513h-34q-18 0-30.5-13T440 753v-28q0-5 3.5-8.5t8.5-3.5q5 0 9 3.5t4 8.5v28q0 8 5.5 13.5T483 772h34q7 0 12.5-5.5T535 753v-28q0-5 4-8.5t9-3.5q5 0 8.5 3.5t3.5 8.5v28q0 18-12.5 31T517 797zm-17 117q-5 0-8.5-4t-3.5-9V784q0-5 3.5-8.5t8.5-3.5q5 0 9 3.5t4 8.5v117q0 5-4 9t-9 4zm48-625q-5 0-9-3.5t-4-8.5v-28q0-8-5-13.5t-13-5.5h-34q-8 0-13 5.5t-5 13.5v28q0 5-4 8.5t-9 3.5q-5 0-8.5-3.5T440 277v-28q0-19 12.5-31.5T483 205h34q18 0 30.5 12.5T560 249v28q0 5-3.5 8.5T548 289zm-48-59q-5 0-8.5-3.5T488 218V101q0-5 3.5-9t8.5-4q5 0 9 4t4 9v117q0 5-4 8.5t-9 3.5z"/></svg>