<svg viewBox="0 0 1244 1083.753" xmlns="http://www.w3.org/2000/svg"><path d="M156 634v26q0 6 4.5 10t10.5 4q6 0 10-4t4-10v-26q0-6-4-10.5t-10-4.5q-6 0-10.5 4.5T156 634zm0 0zm317 26v-26q0-6-4.5-10.5T458 619q-6 0-10.5 4.5T443 634v26q0 6 4.5 10t10.5 4q6 0 10.5-4t4.5-10zm0 0zm-159 28q29 0 47-20 4-5 3.5-11t-5.5-10q-5-4-10.5-3.5T339 648q-9 11-24.5 11T290 648q-4-4-10-4.5t-10.5 3.5q-4.5 4-5 10t3.5 11q17 20 46 20zm0 0zm14-431q0 5-4 9t-10 4q-6 0-9.5-4t-3.5-9q0-5 4-9t9-4q5 0 9.5 4t4.5 9zm0 0zM203 986q0 6 4.5 10.5t10.5 4.5h313q41 0 69.5-29t28.5-69V254q0-28-15.5-52T574 166L539 12q-2-5-6-8t-8-3h-92q-7 0-12 5.5T418 19l31 137h-75V16q0-6-4-10.5T360 1h-91q-6 0-10.5 4.5T254 16v140h-75l16-69q15-68 16-68 1-7-3.5-12.5T196 1h-92q-5 0-9 3t-5 8L55 166q-25 12-40 36T0 254v649q0 40 29 69t69 29h61q6 0 10.5-4.5T174 986q0-6-4.5-10t-10.5-4H98q-28 0-48.5-20.5T29 903V426h415q7 0 11-4.5t4-10.5q0-6-4-10.5t-11-4.5H29V254q0-28 20.5-48T98 186h156v74q0 25 17.5 42.5T314 320q25 0 42.5-17.5T374 260v-74h157q28 0 48 20t20 48v142h-96q-6 0-10.5 4.5T488 411q0 6 4.5 10.5T503 426h96v477q0 29-20 49t-48 20H218q-6 0-10.5 4t-4.5 10zM98 156q-5 0-11 1l29-127h62l-29 126H98zM284 30h61v230q0 13-9 22t-21.5 9q-12.5 0-21.5-9t-9-22V30zm195 126L451 30h62l29 127-11-1h-52zm0 0z"/></svg>