<svg viewBox="0 0 1244 1083.753" xmlns="http://www.w3.org/2000/svg"><path d="M502 397q-6 0-10.5 4t-5.5 10l-3 40q-12-4-18-4h-7v-38q0-13-9-22t-22-9h-61q-34 0-66-11t-59-32l-7-5q-7-6-18-4t-17 9q-27 37-27 86v26h-7q-6 0-18 4l-12-88q-2-15 1-36 1-6-2-10.5t-9-6.5q-6-2-11 1.5t-6 9.5q-5 20-2 46l15 107q-5 9-5 23 0 20 14.5 34.5T165 546h7q3 34 20.5 63t44.5 46v37l-101 48q-54 26-86.5 77T17 929v49q0 6 4.5 10t10.5 4q6 0 10-4t4-10v-49q0-52 28-96t75-66l92-44q7 23 26 38t44 15q25 0 44.5-15t26.5-38l92 44h1q4 2 7 2 8 0 13-8 2-6 0-11.5t-7-8.5h-1v-1h-1l-101-48v-32q31-17 50.5-47.5T457 546h8q20 0 34.5-14.5T514 497q0-11-4-19l6-65q0-6-4-10.5t-10-5.5zM145 497q0-8 6-14t14-6h7v39h-7q-8 0-14-5.5t-6-13.5zm211 205q0 18-13 31t-32 13q-19 0-31.5-13T267 702v-32q24 8 48 8 22 0 41-6v30zm73-167q0 31-15.5 57T372 633.5Q346 649 315 649t-57-15.5Q232 618 216.5 592T201 535V421q0-34 19-64l3 2q31 23 68 35.5t75 12.5h61q2 0 2 2v126zm36-19h-7v-39h7q8 0 14 6t6 14q0 8-6 13.5t-14 5.5zM151 284q6 0 11-5 21-23 53-29l51-21q50-21 101.5-8t85.5 55q4 5 10 6t11-3q5-4 5.5-10.5T476 258q-19-23-44.5-40T378 194q-62-18-124 8l-46 19q-40 9-67 38-4 4-4 10t5 10.5q5 4.5 9 4.5zm371 496q-4 4-4 10t4 11q26 25 40 58.5t14 69.5v49q0 6 4.5 10t10.5 4q6 0 10-4t4-10v-49q0-42-16-81t-46-68q-4-5-10-5t-11 5zM142 901q-6 0-10.5 4t-4.5 10v63q0 6 4.5 10t10.5 4q6 0 10.5-4t4.5-10v-63q0-6-4.5-10t-10.5-4zm339 0q-6 0-10.5 4t-4.5 10v63q0 6 4.5 10t10.5 4q6 0 10-4t4-10v-63q0-6-4-10t-10-4zm286-593q-5 4-7 10t1 10q5 8 13 8 2 0 6-1l2-1q33-20 52-54t19-72q0-8-1-13.5t-5.5-9.5q-4.5-4-10.5-3t-10 5.5q-4 4.5-3 10.5v10q0 31-15 58t-41 42zM707 92q29 0 55 14 5 3 11 1t9-7q3-5 1-11t-7-9q-32-17-69-17-39 0-72.5 19.5t-53 53Q562 169 562 208t19.5 72.5q19.5 33.5 53 53.5t72.5 20h8q6-1 10-5t4-11q0-7-5-10.5t-11-2.5h-6q-32 0-58.5-15.5t-42-42.5Q591 240 591 208t15.5-58.5q15.5-26.5 42-42T707 92zm256-5l-39-22-5-45q-1-12-12.5-17T886 4l-66 44q-11 8-9 20l5 51-51 34q-23-25-57-25t-57.5 23.5Q627 175 627 208t23.5 57q23.5 24 57 24t57-23.5Q788 242 788 208q0-14-7-31l51-34 45 25q5 3 11 3t11-4l66-43q10-9 9.5-20T963 87zM758 208q0 22-15 37t-36 15q-21 0-36-15t-15-37q0-22 15-36.5t36-14.5q18 0 33 12l-41 27q-5 4-6 10t3 11.5q4 5.5 11 5.5 4 0 8-2l41-27q2 4 2 14zm82-138l51-34 3 31-50 34-4-31zm47 70l-27-15 51-34 27 15-51 34zm11 59q-6 0-10.5 4t-4.5 11q-3 70-53 120-25 24-56 37t-65 13q-34 0-65-12t-56-35q-4-4-11-4l-72 5 37-53q4-7 1-14-12-33-11-68 1-46 25-85t64-62q40-23 86-23h2q32 0 62 12 6 2 11.5-.5t7.5-8q2-5.5-.5-11.5t-7.5-7Q751 5 709 3h-2q-54 0-100.5 27t-75 72.5Q503 148 502 203q0 39 11 71l-38 57q-9 12-1 25 3 6 9 9.5t13 2.5l77-5q28 25 62 37.5t72 12.5h2q40 0 76.5-15t65.5-43.5q29-28.5 44.5-64.5t16.5-76q0-6-4-10t-10-5z"/></svg>