<svg viewBox="0 0 1244 1083.753" xmlns="http://www.w3.org/2000/svg"><path d="M979 411L876 223v-26q0-29-20.5-50T806 126h-75q15-23 12-50-2-30-24-51.5T667 1q-35-2-61.5 22.5T579 83q0 21 11 40v3h-73q-29 0-50 21t-21 50v88h-1q-21-14-47-12-31 2-53 24t-24 52q-2 35 22.5 61.5T403 437q24 0 42-11h1v74q0 29 21 49.5t50 20.5h102q3 31 12 59 12 33 30 74.5t33 67.5v1q12 17 10 37l-25 170q0 10 5.5 16t14.5 6h219q8 0 13.5-5.5T937 982V772l58-235q16-67-16-126zm-494 89v-74q0-15-9.5-25.5t-23.5-13q-14-2.5-27 4.5-10 6-22 6-19 0-31.5-13.5T360 352q1-16 12.5-27.5t27-12Q415 312 425 318q13 8 27 5.5t23.5-13Q485 300 485 285v-88q0-14 9.5-23t22.5-9h75q14 0 24-10t12.5-24.5Q631 116 624 104q-6-9-6-21 0-19 14-32t32-11q16 2 27.5 12.5t13 26.5q1.5 16-6.5 28t-6 25.5q2 13.5 12 23t24 9.5h78q13 0 22 9.5t9 22.5v252q0 19-12 31l-57 54V431q0-31-22-53t-52.5-22q-30.5 0-52.5 22t-22 53v100H517q-13 0-22.5-9t-9.5-22zm472 28l-58 237-1 5v192H721l21-148 1-1q3-32-15-61-14-25-31.5-65t-28-70.5Q658 586 658 550V431q0-14 10.5-25t24.5-11q14 0 25 11t11 25v112q0 10 5.5 19t15 13q9.5 4 20 2.5T788 568l64-60q12-11 18-26.5t6-32.5V305l68 125q13 22 16 47.5t-3 50.5zm-470 96q-11-11-25-11.5t-26 8q-12 8.5-16 22.5-1 10-11 20-13 13-32 12t-31-15q-10-12-10-28t9.5-27.5Q355 593 369 590t22-15q8-12 7.5-26T387 524l-62-62q-20-20-49.5-20T225 462l-53 53q-6-27-27.5-45.5t-51-18.5Q64 451 41 469q-18 15-25.5 37.5t-3 45.5Q17 575 34 592q15 15 36 21 1 0 1 1l1 1-51 52Q0 687 0 716.5T21 766l214 214q20 21 49.5 21t49.5-21l50-49q6-6 6-14t-6-14q-6-6-14-6t-14 6l-49 50q-10 9-22.5 9t-22.5-9L48 738q-9-9-9-21.5t9-22.5l54-53q10-10 10-24t-9-26q-9-12-22-16t-19-11q-13-13-12-32.5T66 500q12-10 27-10t27 10.5q12 10.5 15 24.5t14 22.5q11 8.5 25 8t24-10.5l55-55q9-9 22-9t22 9l62 62q-25 6-42 26-20 23-20 54t20 54q15 18 37 24.5t44.5 1.5q22.5-5 39-22t20.5-37l1-1q0-1 0 0l52 52q9 9 9 22t-9 22l-34 34q-6 6-6 14t6 13.5q6 5.5 14 5.5t14-5l34-34q20-21 20-50t-20-50l-52-52zm-38 224q-4-12-17.5-12T413 848q-2 6-.5 12t6.5 10.5q5 4.5 11 5t12-3.5q6-4 8-10.5t-1-13.5z"/></svg>