<svg viewBox="0 0 1244 1083.753" xmlns="http://www.w3.org/2000/svg"><path d="M590 454q-12 12-14 29-3 22 14 38.5t43 16.5q26 0 43-16.5t14-38.5q-1-17-14-29v-10h159q9 0 15.5-6t6.5-15V90q0-37-26-63T768 1H89Q52 1 26 27T0 90v679q0 37 26 63t63 26h330q10 0 17-7t7-17V681q0-13-9-21.5t-21-8.5h-16q-9 0-12 6-5 8-12.5 8.5T358 660q-10-10-10-23t10-23q7-7 14.5-6t12.5 9q3 6 12 6h16q12 0 21-8.5t9-21.5V444h147v10zM413 594h-9q-12-13-29-14-22-3-38 13-18 18-18 44t18 44q16 16 38 13 17-2 29-14h9l1 1v148H89q-25 0-42.5-17.5T29 769V444h148q12 0 21-9t9-21v-16q0-9-6-12-8-5-8.5-13t5.5-14q10-9 23-9t23 9q7 6 6 14t-9 13q-6 3-6 12v16q0 12 8.5 21t21.5 9h56q6 0 10.5-4t4.5-10q0-6-4.5-10.5T321 415h-56l-1-1v-9q13-13 14-29 3-22-14-38.5T221 321q-26 0-43 16.5T164 376q2 16 14 29v9l-1 1H29V90q0-25 17.5-42.5T89 30h325v157q0 10 7 17t17 7h22q9 0 12-6 5-8 13-9t14 6q9 10 9 23t-9 23q-6 6-14 5.5t-13-8.5q-3-6-12-6h-22q-10 0-17 7t-7 17v152h-30q-6 0-10.5 4t-4.5 10.5q0 6.5 4.5 10.5t10.5 4h30v149l-1 1zm30-179V268h10q11 12 29 14 22 3 38.5-14t16.5-43q0-26-16.5-43T482 168q-18 2-29 14h-10V30h325q25 0 42.5 17.5T828 90v325H671q-10 0-17 7t-7 17v22q0 9 6 12 8 5 9 12.5t-6 14.5q-10 9-23 9t-23-9q-6-7-4.5-15t7.5-11.5q6-3.5 6-12.5v-22q0-10-7-17t-17-7H443zm541 143H814q-10 0-17 7t-7 17v22q0 8 7 12.5t7 13q0 8.5-5 13.5-9 9-22.5 9t-23.5-9q-5-5-5-13.5t7-13.5q7-5 7-12v-22q0-10-7-17t-17-7H573q-7 0-11.5 4.5T557 573v49q0 6 4.5 10.5T572 637q6 0 10-4.5t4-10.5v-35h147v10q-12 11-14 29-3 22 14.5 38.5t43 16.5q25.5 0 43.5-17 16-16 14-38-3-19-15-29v-10h152v325q0 25-17.5 42.5T911 972H586V824q0-13-8.5-21.5T556 794h-16q-7 0-12 7t-12.5 7.5q-7.5.5-14.5-5.5-9-10-9-23.5t9-22.5q7-7 14.5-6t12 8q4.5 7 12.5 7h16q13 0 21.5-9t8.5-21v-52q0-6-4-10t-10-4q-6 0-10.5 4t-4.5 10v52l-1 1h-9q-11-12-29-14-22-3-38.5 14T463 779.5q0 25.5 16.5 43T518 837q18-2 29-14h10v153q0 10 7.5 17.5t17.5 7.5h329q37 0 63-26t26-63V573q0-6-4.5-10.5T984 558z"/></svg>