<svg viewBox="0 0 1244 1083.753" xmlns="http://www.w3.org/2000/svg"><path d="M854 147Q783 76 691.5 38.5T500 1Q400 1 308.5 38.5T146 147Q75 218 37.5 309.5T0 501q0 100 37.5 191.5T146 855q71 71 162.5 108.5T500 1001q100 0 191.5-37.5t162.5-108q71-70.5 108.5-162t37.5-192q0-100.5-37.5-192T854 147zM500 983q-131 0-243-66-109-64-173-173-66-112-66-243t66-243q64-109 173-173 112-66 243-66t243 66q109 64 173 173 66 112 66 243t-66 243q-64 109-173 173-112 66-243 66zm430-656q-3-7-12-5-7 3-5 12 33 79 33 167 0 4 2.5 6.5t6 2.5q3.5 0 6-2.5t2.5-6.5q0-90-33-174zM500 55q73 0 140.5 22.5T767 144q2 2 5 2t6-3.5q3-3.5 2.5-7T777 130q-60-45-130.5-68.5T500 38q-4 0-6.5 2.5t-2.5 6q0 3.5 2.5 6T500 55zM57 501q0-4-2.5-6.5T48 492q-4 0-6.5 2.5T39 501q0 99 39 186 3 6 8 6l4-1q3-2 4-5t0-7q-37-83-37-179zm443 444q-108 0-204.5-50T137 756q-2-3-5.5-3.5T125 754q-3 2-3.5 5.5t1.5 6.5q64 92 164 144t213 52q4 0 6.5-2.5t2.5-6.5q0-4-2.5-6t-6.5-2zm0-865q-114 0-212 58-96 55-151 151-58 98-58 212t58 212q55 96 151 151 98 58 212 58t212-58q96-55 151-151 58-98 58-212t-58-212q-55-96-151-151-98-58-212-58zm-9 18v58q-90 2-168 48-75 45-120 120-46 78-48 168H97q2-106 56-197 53-88 141-141 91-54 197-56zM100 555h58q4 0 6.5-2.5t2.5-6q0-3.5-2.5-6T158 538H98q-1-10-1-28h125q4 0 6.5-2.5t2.5-6.5q0-4-2.5-6.5T222 492h-50q2-86 46-159 43-71 115-114 73-44 158-46v50q0 4 2.5 6.5t6.5 2.5q4 0 6.5-2.5t2.5-6.5V98q21 0 32 2v61q0 4 2.5 6.5t6.5 2.5q4 0 6.5-2.5t2.5-6.5v-59q86 12 158.5 59t120 119Q885 352 899 438h-44q-4 0-6.5 2.5T846 447q0 4 2.5 6.5t6.5 2.5h46q2 24 2 36H778q-4 0-6.5 2.5T769 501q0 4 2.5 6.5t6.5 2.5h55q-2 87-47 161-43 73-115 116-75 45-162 47v-55q0-4-2.5-6.5T500 770q-4 0-6.5 2.5T491 779v125q-18 0-54-4v-66q0-4-2.5-6.5T429 825q-3 0-6 2.5t-3 6.5v62q-83-16-151.5-64.5T155.5 711Q111 639 100 555zm409 349v-52q92-2 170-50 77-45 122-122 48-78 50-170h52q-2 106-56 197-53 88-141 141-91 54-197 56zm64-329q29-47 104-180l69-124q4-5-1-10t-11-2l-123 71q-132 76-180 102l-1 1q-2 1-3 3L254 739q-3 6 2 11 4 2 6.5 2t3.5-1l124-69q134-75 180-104 3-2 3-3zm-1-142q3 3 6.5 3t6.5-3l114-114-135 237-115-114 237-135-114 114q-2 2-2 6t2 6zm-135 21l114 115-265 151 151-266z"/></svg>