<svg viewBox="0 0 1244 1083.753" xmlns="http://www.w3.org/2000/svg"><path d="M854 147Q783 76 691.5 38.5T500 1Q400 1 308.5 38.5T146 147Q75 218 37.5 309.5T0 501q0 100 37.5 191.5T146 855q71 71 162.5 108.5T500 1001q90 0 175-31.5T828 879q4-4 4.5-10t-3.5-11q-4-5-10.5-5t-10.5 4q-64 55-143.5 85T500 972q-127 0-237-65-107-62-169-169-65-110-65-237t65-237q62-107 169-169 110-65 237-65t237 64q107 63 169 169 65 110 65 238 0 85-29.5 164T856 809q-4 4-3.5 10t5 10q4.5 4 10.5 4t10-5q59-68 90.5-152.5T1000 501q0-100-37.5-191.5T854 147zM404 627l83 161q5 8 13 8 4 0 8-2t5-6l83-161 45-7q5-2 8.5-6t3.5-9V397q0-5-3.5-9t-8.5-6l-45-8-83-160q-3-8-12-8t-14 8l-83 160-45 8q-5 2-8.5 6t-3.5 9v208q0 5 3.5 9t8.5 6l45 7zm220-129l-109-5v-34l109 8v31zm-139-5l-108 5v-31l108-8v34zm-108 35l108-6v90l-108-19v-65zm123 221l-60-115 59 10q3 1 4 0l57-10-60 115zm15-137v-90l109 6v65l-109 19zm109-174l-109-8v-40l109 19v29zM500 253l60 115-57-10q-3-2-6 0l-57 10 60-115zm-15 137v40l-108 8v-29l108-19zM207 237q-5-4-11-3.5t-10 5.5q-46 55-70.5 122.5T91 501q0 82 31 156.5T211 790q58 58 132.5 89T500 910q82 0 156.5-31T789 790q58-58 89-132.5T909 501q0-82-31-156.5T788.5 212q-58.5-58-133-89T500 92q-72 0-139.5 24.5T238 187q-5 4-5.5 10t3.5 11q4 5 9.5 5.5T256 209q26-20 41-30l13 22q5 7 12 7 2 0 6-1l2-1q5-3 6.5-9t-1.5-11l-12-21q76-41 162-44v25q0 6 4.5 10t10.5 4q6 0 10.5-4t4.5-10v-25q88 3 162 44l-12 21q-3 5-1.5 11t6.5 9l2 1q4 1 6 1 9 0 12-7l13-22q33 21 66 53 32 33 53 66l-22 13q-5 3-6.5 9t1.5 11q5 7 13 7 3 0 7-2l21-12q41 74 44 162h-25q-6 0-10 4.5t-4 10.5q0 6 4 10.5t10 4.5h25q-3 86-44 162l-21-12q-5-3-11-1.5t-9 6.5q-3 5-1.5 11t6.5 9l22 13q-21 33-53 66-33 32-66 53l-13-22q-3-5-9-6.5t-11 1.5q-5 3-6.5 9t1.5 11l12 21q-74 41-162 44v-25q0-6-4.5-10.5T500 841q-6 0-10.5 4.5T485 856v25q-86-3-162-44l12-21q3-5 1.5-11t-6.5-9q-5-3-11-1.5t-9 6.5l-13 22q-33-21-66-53-32-33-53-66l22-13q5-3 6.5-9t-1.5-11q-3-5-9-6.5t-11 1.5l-21 12q-39-73-44-162h25q6 0 10.5-4.5T160 501q0-6-4.5-10.5T145 486h-25q5-91 44-162l21 12q4 2 7 2 8 0 13-7 3-5 1.5-11t-6.5-9l-22-13q15-23 30-41 4-4 4-10t-5-10z"/></svg>