<svg viewBox="0 0 1244 1083.753" xmlns="http://www.w3.org/2000/svg"><path d="M458 655q14 2 22 2 32 0 60-14t47-40q23-30 28-66.5T605 465l-37-84-1-4q-3-8-4.5-13t-6.5-8.5q-5-3.5-11-2t-9 6.5q-3 5-2 11 4 14 7 21l37 85q12 27 8 56t-22 52q-16 21-39 32t-49 10q16-32 16-67v-20h2q20 0 35-15t15-35q0-20-15-35t-35-15h-2v-35q0-13-9-22.5T461 372l-96-2q-51-2-91-34l-6-5q-9-6-19-6-13 2-18 10-36 46-38 105h-2q-20 0-34.5 15T142 490q0 20 14.5 35t34.5 15h2v20q0 35 16 67-26 1-49-10t-39-32q-18-23-21.5-52t8.5-56l36-85q5-9 9-30 6-44 31-79 3-5 2-11t-6-9.5q-5-3.5-11-2.5t-10 6q-28 43-35 92-1 10-6 23l-37 84q-15 35-10.5 71.5T98 603q19 26 47.5 40t60.5 14q7 0 21-2 17 21 44 37v35l-88 35q-13 6-22 12-5 3-7 9t2 12q4 6 12 6 2 0 6-1l2-1q6-4 18-10l80-32q7 21 25 35t41 14q23 0 41.5-14t25.5-35l80 32q36 15 57.5 47t21.5 72v78q0 6 4.5 10.5t10.5 4.5q6 0 10.5-4.5T596 986v-78q0-49-27-88.5T497 762l-87-35v-33q30-17 48-39zm36-185q8 0 14 6t6 14q0 8-6 14t-14 6h-2v-40h2zm-303 40q-8 0-14-6t-6-14q0-8 6-14t14-6h2v40h-2zm31 50V443q0-48 30-87l4 3q22 19 50.5 29t57.5 11l96 3q3 0 3 3v155q0 32-16 60t-44 44q-28 16-60 16t-60-16q-28-16-44.5-44T222 560zm158 177q0 16-11.5 28t-28 12q-16.5 0-28-11.5T301 737v-33q20 6 42 6 17 0 37-5v32zM214 243q5 0 9-3 53-42 120-42 32 0 65 11 6 2 11.5-.5t7.5-8q2-5.5-.5-11T418 182q-35-13-75-13-38 0-73.5 12.5T205 217q-5 4-5.5 10t3 11q3.5 5 11.5 5zm-83 574q-5-3-11-2t-9 6q-26 40-26 87v78q0 6 4.5 10.5t10.5 4.5q6 0 10-4.5t4-10.5v-78q0-36 21-70 4-5 2.5-11t-6.5-10zM845 1H542q-35 0-60 25t-25 60v221q0 17 14 26 7 4 16.5 4t13.5-2l23-11h207q6 0 10-4.5t4-10.5q0-6-4-10.5t-10-4.5H521q-2 0-6 2l-27 12h-1q-1 0-1-1V86q0-23 16.5-39.5T542 30h303q23 0 39.5 16.5T901 86v152q0 23-16.5 39.5T845 294h-52q-6 0-10.5 4.5T778 309q0 6 4.5 10.5T793 324h52q35 0 60-25.5t25-60.5V86q0-35-25-60T845 1zM711 180q19-5 31-18 19-21 17.5-46.5t-19-43q-17.5-17.5-42-18t-43 15Q637 85 633 109v9q0 6 4 10.5t10 4.5q6 0 10.5-4.5T662 118v-4q2-13 11.5-21.5T696 84h1q13 0 22.5 9.5T730 116q2 15-9 26t-25 11q-6 0-10 4t-4 10v32q0 6 4 10.5t10 4.5q6 0 10.5-4.5T711 199v-19zm-15 57q-6 0-10 4t-4 11v10q0 6 4 10t10 4q6 0 10.5-4t4.5-10v-10q0-7-4.5-11t-10.5-4z"/></svg>