<svg viewBox="0 0 1244 1083.753" xmlns="http://www.w3.org/2000/svg"><path d="M633 479q-21-17-47.5-14.5T541 486l-73 79-11-1V243q0-26-19-45t-45-19q-20 0-38 13-7-19-23-31t-37-12q-26 0-45 19t-19 45v5q-14-10-34-10-25 0-43.5 17T133 267q-14-10-34-10-26 0-45 18.5T35 320v213q0 6 4.5 10.5T50 548q6 0 10.5-4.5T65 533V320q0-14 10-24t24-10q14 0 24 10t10 24v178q0 6 4.5 10.5T148 513q6 0 10.5-4.5T163 498V271q0-14 10-24t24-10q14 0 24 10t10 24v229q0 6 4.5 10.5T246 515q6 0 10.5-4.5T261 500V213q0-14 10-24.5t24-10.5q14 0 24 10.5t10 24.5v285q0 6 4.5 10.5T344 513q6 0 10.5-4.5T359 498V243q0-14 10-24.5t24-10.5q14 0 24 10.5t10 24.5v321q-72 5-129 52l-29 25q-5 4-5.5 9.5T267 661q4 5 10 5.5t11-3.5l28-24q29-25 64.5-36.5T454 593l19 2q7 0 12-5l77-84q11-11 26-12t26.5 8q11.5 9 14 23.5T624 552L517 737q-46 77-122 116-8 5-8 13v111q0 6 4 10.5t10 4.5q6 0 10.5-4.5T416 977V875q80-44 126-124l108-184q13-22 8-47t-25-41zM65 749V596q0-6-4.5-10.5T50 581q-6 0-10.5 4.5T35 596v153q0 58 34 104 4 8 4 13v111q0 6 4 10.5t10 4.5q6 0 10.5-4.5T102 977V866q0-17-10-30-27-38-27-87zM873 1H569q-34 0-58.5 24T486 84v66q0 6 4 10.5t10 4.5q6 0 10.5-4.5T515 150V84q0-23 16-38.5T569 30h304q22 0 37.5 16T926 84v179q0 22-15.5 37.5T873 316H667q-5 0-8 3l-58 36v-24q0-6-4-10.5t-11-4.5h-17q-22 0-38-15.5T515 263v-50q0-6-4-10.5t-10.5-4.5q-6.5 0-10.5 4.5t-4 10.5v50q0 34 24.5 58.5T569 346h3v11q0 17 14 25 6 3 14.5 3t13.5-4l57-35h202q34 0 58.5-24.5T956 263V84q0-34-24.5-58.5T873 1zM735 189q22-5 37-21 22-22 20-53-1-28-21.5-47T722 48h-1q-27 0-47 17.5T650 109l-1 10q0 6 4.5 10.5T664 134q6 0 10.5-4.5T679 119v-6q2-15 14-25.5T721 77h1q16 1 28 12.5t13 27.5q0 19-12.5 31.5T721 161q-6 0-10.5 4.5T706 176v37q0 6 4.5 10t10.5 4q6 0 10-4t4-10v-24zm-14 61q-6 0-10.5 4t-4.5 10v12q0 6 4.5 10.5T721 291q6 0 10-4.5t4-10.5v-12q0-6-4-10t-10-4z"/></svg>