<svg viewBox="0 0 1244.0008 1083.753" xmlns="http://www.w3.org/2000/svg"><path d="M1000 437l-95-327q0-3-4-5t-7-1l-26 10-4-14q-2-4-4.5-5t-6.5-1q-49 18-85 26-43 9-138 20-56 7-91 30-26 17-39 40-13-23-39-40-35-23-91-30-95-11-138-20-36-8-84-26-5 0-7.5 1t-4.5 5l-4 14-26-10q-2-1-6 1h-1q-2 1-4 5L0 437q-1 3 1 6t5 4l292 94-123 99q-3 1-3 6v68q0 5 5.5 7.5t9.5-1.5l54-53q7-6 15.5-6t15.5 6l10 11q6 6 6 15t-6 15L175 813q-3 1-3 6v80q0 6 6 8 1 1 3 1t6-2l313-296 313 296q4 2 6.5 2t3.5-1q5-2 5-8v-80q0-5-3-6L719 708q-7-7-7-15.5t6-14.5l11-11q6-6 14.5-6t15.5 6l54 53q5 3 10 1t5-7v-68q0-5-3-6l-122-99 291-94q3-1 5-4t1-6zM805 230h80l5 16h-14q-4 0-6.5 2.5T867 255q0 4 2.5 6.5t6.5 2.5h19l26 88h-88q-4 0-6.5 2.5t-2.5 6q0 3.5 2.5 6t6.5 2.5h94l8 28q-47 18-112 32-92 20-193 25-81 5-117 49-2 1-4 5V332h131q4 0 6-2.5t2-6q0-3.5-2-6t-6-2.5H509v-32q1-9 8-21 12-19 35-33 31-19 80-25 90-10 141-21 43-9 90-27l16 56h-74q-4 0-6.5 2.5T796 221q0 4 2.5 6.5t6.5 2.5zM69 385h54q4 0 6.5-2.5t2.5-6.5q0-4-2.5-6.5T123 367H74l15-50h128q4 0 6.5-2.5t2.5-6.5q0-4-2.5-6.5T217 299H94l11-34h47q4 0 6.5-2.5t2.5-6.5q0-4-2.5-6.5T152 247h-42l28-92q49 18 92 28 50 11 138 21 69 8 102 42 18 18 21 37v101h-31q-4 0-6.5 2.5t-2.5 6q0 3.5 2.5 6t6.5 2.5h31v12h-70q-4 0-6.5 2.5t-2.5 6q0 3.5 2.5 6t6.5 2.5h70v78q-2-4-4-5-36-44-117-49-101-5-193-25-65-14-112-32l4-12zm563-227q92-11 135-20 39-8 83-24l7 25q-46 18-88 27-48 10-139 21-86 10-121 57v-8q1-9 8-21 12-19 35-33 31-19 80-24zm-482-44q44 16 83 24 43 9 135 20 69 8 102 41 18 18 21 37v7q-36-46-122-56t-135-21q-42-9-91-28l7-24zm-41 10l18 7-81 269q-1 3 .5 6t4.5 5q51 19 113 33 98 22 205 28 69 3 102 38 17 18 20 39v36L20 433l89-309zm81 699l104-102q12-12 12-28t-11-27l-11-11q-11-11-27-11.5T229 654l-39 39v-42l128-103 36 12-41 40q-2 3-2 6.5t2.5 6q2.5 2.5 5.5 2.5t7-2l47-47 48 15-88 89q-3 2-3 6t2.5 6.5q2.5 2.5 6 2.5t6.5-3l95-95 43 14-293 278v-56zm621-172v42l-40-39q-11-11-27.5-10.5T716 655l-10 11q-13 11-12 27.5t12 27.5l105 102v56L517 601l54-17 55 55q2 3 5.5 3t6.5-2.5q3-2.5 3-6.5t-3-6l-49-49 94-30 128 103zm-302-66v-36q3-21 21-39 32-35 101-38 107-6 206-28 60-14 112-33 3-2 4.5-5t.5-6l-81-269 18-7 89 309-471 152zM306 247h-69q-4 0-6.5 2.5T228 256q0 4 2.5 6.5t6.5 2.5h69q4 0 6.5-2.5t2.5-6.5q0-4-2.5-6.5T306 247z"/></svg>