<svg viewBox="0 0 1244 1083.753" xmlns="http://www.w3.org/2000/svg"><path d="M985 852h-24v-53q0-6-4.5-10t-10.5-4H822v-80q0-37-18.5-70.5T753 581l-128-78 115-85q5-3 6-9t-2.5-11q-3.5-5-9.5-6t-11 3l-125 91-70-43 441-270q5 15-1 31t-19 26L779 354q-5 4-6 10t2.5 11q3.5 5 10 6t10.5-3l171-125q26-19 31.5-50.5T987 144q-3-5-9-6.5t-11 1.5l-27 17-35-47q-4-5-10-6t-10 3l-8 5-34-51q-3-5-9-6t-11 2l-50 31q-21 13-47 20-17 4-46 7h-1q-29 4-43 8-25 6-43 17-64 40-93 96-29-56-93-96-18-11-43-17-14-4-43-8h-1q-29-3-46-7-25-7-47-20l-50-31q-5-3-11-2t-9 6l-34 51-8-5q-4-4-10-3t-9 6l-36 47-27-17q-5-3-11-1.5t-9 6.5q-17 27-11 58.5T34 253l168 123q4 4 10 3t10-6q4-5 3-11t-6-10L51 230q-13-10-19-26t-1-31l706 433q26 16 41 42.5t15 56.5v66L275 393q-5-4-11-3t-9.5 6q-3.5 5-2.5 11t6 10l117 86-128 78q-32 20-50.5 53.5T178 705v80H54q-6 0-10 4t-4 10v53H15q-6 0-10.5 4.5T0 867v67q0 6 4.5 10t10.5 4h970q6 0 10.5-4t4.5-10v-67q0-6-4.5-10.5T985 852zM608 164q15-9 34-14 12-3 38-6l4-1q30-3 50-8 29-8 54-23l38-24 26 38-333 211q15-28 43-54 43-40 106-66 5-2 7.5-8t.5-11.5q-2-5.5-8-8t-12 .5q-92 37-141 101v-16q4-18 20-42 27-40 73-69zM174 88l38 24q25 15 54 23 21 5 51 8l5 1q24 3 36 6 20 5 34 14 46 29 73 70 16 23 20 41v16q-49-64-141-101-6-3-11.5-1t-8 8q-2.5 6 0 12t7.5 8q63 25 106 65 27 26 43 55L148 126l26-38zm-63 50l381 241 2 1q4 1 6 1t6-1l2-1 381-241 26 33-415 255L85 171l26-33zm96 567q0-30 15-56.5t41-42.5l138-85 74 54-268 196v-66zM69 814h396q6 0 10.5-4t4.5-10.5q0-6.5-4.5-10.5t-10.5-4H238l262-191 262 191H535q-6 0-10.5 4t-4.5 10q0 6 4.5 10.5T535 814h396v38H69v-38zm902 105H29v-38h942v38z"/></svg>