<svg viewBox="0 0 1244 1083.753" xmlns="http://www.w3.org/2000/svg"><path d="M603 255h-30l-23-24q-4-5-10-5t-11 5l-23 24h-30q-6 0-10 4t-4 10v29l-24 24q-4 4-4 10t4 11l24 23v29q0 6 4 10.5t10 4.5h30l23 23q5 5 10.5 5t10.5-5l23-23h30q6 0 10-4.5t4-10.5v-29l24-23q4-6 4-10.5t-4-10.5l-24-24v-29q0-6-4-10t-10-4zm-11 95q-4 3-4 10v21h-21q-6 0-10 4l-17 17-18-17q-4-4-10-4h-21v-21q0-7-4-10l-18-18 18-17q4-4 4-10v-21h21q4 0 10-4l18-18 17 18q6 4 10 4h21v21q0 6 4 10l18 17-18 18zm120-58q0-31-13-55-10-21-32-40-12-11-40-31l-9-7q-26-19-37-30-19-18-28-37-5-8-13.5-8T526 92q-9 19-28 37-11 11-37 30l-9 7q-28 20-40 31-22 19-32 40-13 24-13 55v131q0 6 4.5 10.5T382 438q6 0 10-4.5t4-10.5V292q0-34 21-60 14-16 52-43l1-1q23-16 37-28 20-16 33-34 22 30 69 62l1 1q38 27 52 43 21 26 21 60v259H396v-60q0-6-4-10t-10-4q-6 0-10.5 4t-4.5 10v75q0 6 4.5 10.5T382 581h315q6 0 10.5-4.5T712 566V292zm151-139q6 0 10.5-4.5T878 138V16q0-6-4.5-10.5T863 1H216q-39 0-66.5 27.5T122 95v445q0 6 4.5 10t10.5 4q6 0 10.5-4t4.5-10V95q0-23 14-40.5T201 32v745q-30 6-49 25V608q0-6-4.5-10.5T137 593q-6 0-10.5 4.5T122 608v262q0 38 27 65t67 27h1v24q0 10 8 13 3 2 7 2t7-2l56-35 55 35q8 5 15.5.5T373 986v-24h490q6 0 10.5-4.5T878 947V207q0-7-4.5-11t-10.5-4q-6 0-10.5 4t-4.5 11v569H231V30h617v108q0 6 4.5 10.5T863 153zM343 960l-40-25q-4-3-8.5-3t-7.5 3l-41 25v-73h97v73zm30-73h316q7 0 11-4.5t4-10.5q0-6-4-10.5t-11-4.5H232q-6 0-10.5 4.5T217 872v60h-1q-27 0-45.5-18T152 869.5q0-26.5 19-45t45-18.5h559v126H373v-45zm432 45V806h43v126h-43zM697 617H382q-6 0-10.5 4t-4.5 10v59q0 6 4.5 10.5T382 705h315q6 0 10.5-4.5T712 690v-59q0-6-4.5-10t-10.5-4zm-14 59H396v-30h287v30z"/></svg>