<svg viewBox="0 0 1244 1083.753" xmlns="http://www.w3.org/2000/svg"><path d="M234 907q7 0 11.5-4.5T250 892q0-6-4.5-11t-11.5-5q-19 0-32.5-13.5t-13.5-33q0-19.5 13.5-33T234 782h563q20 0 33.5-14t13.5-33V48q0-20-13.5-33.5T797 1H234q-32 0-55 23t-23 55v750q0 32 23 55t55 23zm0-875h563q7 0 11.5 4.5T813 48v687q0 7-4.5 11.5T797 751H266V79q0-7-4.5-11.5T250 63q-7 0-11.5 4.5T234 79v672q-25 0-46 16V79q0-20 13.5-33.5T234 32zm610 828v-31q0-7-4.5-11.5T828 813h-78q-7 0-11.5 4.5T734 829q0 7 4.5 11.5T750 845h63v15q0 7-4.5 11.5T797 876H484q-6 0-10.5 4.5T469 892q0 7 4.5 11t10.5 4h313q20 0 33.5-14t13.5-33zM290 999q4 2 8.5 1.5t7.5-2.5l53-40 54 40q5 4 11.5 2.5T435 994q3-3 3-9V845h31q6 0 10.5-4.5T484 829q0-7-4.5-11.5T469 813H250q-7 0-11.5 4.5T234 829q0 7 4.5 11.5T250 845h31v140q0 4 2.5 8t6.5 6zm116-45l-37-28q-9-6-19 0l-37 28V845h93v109zm282-109q6 0 10.5-4.5T703 829q0-7-4.5-11.5T688 813h-32q-6 0-10.5 4.5T641 829q0 7 4.5 11.5T656 845h32zm-94 0q6 0 10.5-4.5T609 829q0-7-4.5-11.5T594 813h-16q-6 0-10.5 4.5T563 829q0 7 4.5 11.5T578 845h16zM359 452l-1 96q0 6 4.5 10.5T374 563h94l66 64q5 4 11 4t11-4l66-64h81q7 0 11.5-4.5T719 548v-84l57-55q5-5 5-11.5t-5-11.5l-57-55 1-96q-1-6-5-10.5t-11-4.5h-94l-66-64q-4-5-10-5t-11 5l-67 64h-81q-7 0-11.5 4.5T359 235v84l-57 55q-4 4-4 11t4 12l57 55zm26-115q5-4 5-11l1-75h72q6 0 10-4l60-58 60 58q6 4 11 4h85l-1 87q0 6 5 11l50 49-50 48q-5 5-5 11v75h-73q-6 0-10 4l-60 58-60-58q-6-4-11-4h-84v-87q0-7-5-11l-50-48 50-49z"/></svg>