<svg viewBox="0 0 1244 1083.753" xmlns="http://www.w3.org/2000/svg"><path d="M717 78q-51 7-101 34t-92.5 69.5Q481 224 454 274t-34.5 100q-7.5 50 3.5 92.5t40 71.5q23 23 55 35t69 12q20 0 39-3 51-8 101-35t92.5-69.5Q862 435 889 385t34-101q8-49-3.5-91T879 122q-29-29-71-40.5T717 78zm125 57l-21 21-46-46q39 5 67 25zM547 330l50-51 50 51-50 50-50-50zm25 74l-50 50-50-50 50-50 50 50zm49-149l50-50 51 50-51 50-50-50zm50 99l51 50-51 50-50-50 50-50zm25-24l50-51 50 51-50 50-50-50zm74-75l51-50 50 50-50 50-51-50zm-24-125l50 50-50 51-50-51 50-50zm-32-17l-43 43-21-22q32-15 64-21zm-96 38l29 29-50 51-37-37q28-25 58-43zm-82 68l36 36-50 50-29-29q19-31 43-57zm-60 89l22 22-43 42q6-33 21-64zm1 192q-20-26-25-67l46 46-21 21zm24 24l21-21 46 46q-41-5-67-25zm96 5l-50-50 50-50 50 50-50 50zm32 17l42-43 22 22q-31 15-64 21zm96-38l-29-29 50-50 36 36q-26 24-57 43zm82-67l-37-37 51-50 29 29q-18 30-43 58zm60-90l-22-21 43-43q-6 32-21 64zm-22-171l21-21q20 28 25 67l-46-46zm86-110q-41-42-99.5-59T705 5q-63 10-123.5 42T471 129.5q-50 50.5-82 111T347 364q-6 30-4 62-1 9 0 28v15q2 44-2 64-6 33-31 58l-40 40-9-1q-18 0-30 12L12 861Q0 874 0 891t12 29l69 69q12 12 29.5 12t29.5-12l219-219q7-8 10-18.5t1-20.5l39-40q25-25 59-31 20-4 64-2h15q19 1 28 0 32 2 62-4 63-10 123.5-42t111-82Q922 480 954 419.5T996 296q11-68-6-126.5T931 70zM115 964q-1 2-4.5 2t-5.5-2l-68-68q-2-2-2-5.5t2-4.5l81-81 78 79-81 80zm106-105l-79-79 21-21 79 79-21 21zm45-46l-78-78 21-22 79 79-22 21zm68-67l-22 22-79-79 22-22q2-2 5.5-2t5.5 2l68 68q2 2 2 5.5t-2 5.5zm628-456q-9 58-38.5 113T847 505q-47 47-102 76.5T632 620q-25 4-56 4-2-2-2 0-26 0-40-1h-5q-46-1-71 4-42 9-73 39l-35 36-51-51 36-35q30-31 39-73 5-25 4-71v-5q-1-14-1-40 2 0 0-2 0-31 4-56 9-58 38.5-113T496 154q47-47 102-76.5T711.5 39q58.5-9 109 5T907 94q36 36 50 86.5t5 109.5z"/></svg>