<svg viewBox="0 0 1244 1083.753" xmlns="http://www.w3.org/2000/svg"><path d="M959 42q-32-32-77-39t-85 13L419 205q-48 24-94 62l-11-12q-16-42-64-129-11-20-31-29t-42-5.5Q155 95 139 111l-59 59q-16 16-19.5 38t5.5 42q9 20 29 31 88 50 128 65l16 16q-21 29-34 58L15 798q-20 41-13 85.5T41 960q24 24 57 34t66 5q18-3 39-13l379-189q29-15 57-34l16 16q20 49 65 127 11 20 31 29t42 5.5q22-3.5 38-19.5l59-59q16-16 19.5-38t-5.5-42q-9-20-29-31-61-34-122-61l-7-3-12-11q38-46 62-94l58-115q3-8 .5-15.5t-9.5-11q-7-3.5-14.5-1T819 449l-58 116q-21 42-54 83l-38-37q24-29 43-66l10-20 42-86q11-23 10-48t-14-46q-39-65-104-104-21-12-46.5-13T563 238l-107 51q-40 21-66 43l-37-38q38-31 83-54L814 51q24-12 51.5-10T916 57L781 192q-5 6-5 14t5.5 13.5Q787 225 795 225t14-5L944 85q15 23 17 50t-11 52l-54 109q-4 7-1.5 14.5t10 11.5q7.5 4 15 1t11.5-10l54-109q20-41 13-85.5T959 42zM712 427q-53-87-138-138l-14-7 20-9q13-7 28-6.5t29 8.5q58 36 89 90 10 14 8 31 0 10-6 25l-9 20-7-14zM473 324q46-22 81-1 78 46 124 124 21 35-1 81-13 27-35 55L418 359q28-22 55-35zm234 380l-36 36-410-410 36-36 410 410zM339 462l200 200-53 29-176-176 29-53zm-48 89l159 159-49 27q-13 7-27.5 7t-28.5-6q-26-13-47-34.5T263 655q-13-29 2-55l26-49zM98 218q2-13 9-20l60-59q10-11 25.5-9t23.5 15q35 62 58 117l-45 44q-48-21-115-59-7-4-11.5-12T98 218zm466 544L186 951q-24 12-51.5 10T84 945l135-135q6-6 6-14t-6-13.5q-6-5.5-14-5.5t-14 5L56 917q-15-23-17-50t11-52l189-378q18-32 28-47l43 43-80 148q-11 21-11.5 45t9.5 46q17 32 42.5 58t56.5 42q22 11 46.5 10.5T419 771l149-80 43 43q-27 18-47 28zm308 52q-2 13-9 20l-60 60q-11 11-26.5 8.5T754 887q-38-67-59-115l45-45q56 25 116 58 7 4 11.5 12t4.5 17zm19-443q-5-7-12.5-8.5t-14.5 3q-7 4.5-8.5 12.5t3 14.5q4.5 6.5 12 8t14.5-3q7-4.5 8.5-12T891 371z"/></svg>