<svg viewBox="0 0 1244 1083.753" xmlns="http://www.w3.org/2000/svg"><path d="M499 452q38 0 71-19t52-52q19-33 19-71t-19-70.5Q603 207 570 188t-71-19q-38 0-70.5 19T377 239.5Q358 272 358 310t19 71q19 33 51.5 52t70.5 19zM377 291h90q4 0 6.5-2.5t2.5-6.5q0-4-2.5-6t-6.5-2h-86q6-19 16-33h27q4 0 6.5-2.5t2.5-6q0-3.5-2.5-6T424 224h-13q18-18 40.5-27.5T499 187q33 0 61.5 16.5t45.5 45q17 28.5 17 61.5 0 26-11 51h-76q-4 0-6.5 2.5T527 370q0 4 2.5 6.5t6.5 2.5h66q-10 14-18 21h-50q-4 0-6.5 2.5T525 409q0 4 2.5 6.5t6.5 2.5h26q-29 16-62 16t-61-16.5q-28-16.5-45-45T375 310q0-7 2-19zm-71 283q1-2 1-7l-89-250q-2-3-5-4.5t-7-.5q-26 10-47 29t-33 44.5q-12 25.5-13.5 53T121 493q15 42 51.5 68t81.5 26q23 0 47-8 3-2 5-5zm-52-5q-39 0-71-22.5T137 487q-4-14-6-27h45q4 0 6.5-2.5t2.5-6.5q0-4-2.5-6.5T176 442h-46q0-17 7-36h23q4 0 6.5-2.5t2.5-6.5q0-4-2.5-6.5T160 388h-16q20-39 60-56l83 233q-15 4-33 4zm-24 229q-22 13-43 16-12 2-19 2-43 0-75-27.5T53 719q-8-49 21-88 2-2 1.5-5.5T73 620q-5-5-11-1-34 22-50.5 58.5T2 754q8 49 45.5 80.5T134 866q8 0 22-2 26-5 48.5-18.5T242 810q2-2 2-5t-2-5.5q-2-2.5-5.5-3T230 798zm-77 48q-12 2-19 2-43 0-75-27.5T19 751q-4-22 1-44.5T38 665q-6 30-2 57 8 49 45.5 80.5T168 834q8 0 22-2 2-1 5-1-23 12-42 15zm546-267q24 8 47 8 45 0 82-26t52-68q13-36 5.5-73.5t-31.5-66Q830 325 794 312q-4-1-7 .5t-5 4.5l-88 250q-2 3 0 6.5t5 5.5zm97-247q29 13 48 38t24 55h-43q-4 0-6.5 2.5T816 434q0 4 2.5 6.5t6.5 2.5h45q0 23-7 44-14 37-45.5 59.5T746 569q-18 0-33-4l8-22h23q4 0 6.5-2.5t2.5-6.5q0-4-2.5-6.5T744 525h-17l69-193zm142 287q-6-4-11 1-2 2-2.5 5.5t1.5 5.5q29 39 21 88-8 42-40 69.5T832 816q-7 0-19-2-21-3-43-16-3-2-6-1.5t-5 2.5q-2 2-2.5 5.5t1.5 5.5q32 45 86 54 14 2 22 2 49 0 86.5-31.5T998 754q7-40-9.5-76.5T938 619zm43 132q-8 42-40 69.5T866 848q-7 0-19-2-19-3-42-15 3 0 5 1 14 2 22 2 49 0 86.5-31.5T964 722q4-27-2-57 13 19 18 41.5t1 44.5zm-216-51q0-4-2.5-6.5T756 691H467q-3 0-5.5 2.5T459 700q0 4 2.5 6.5t5.5 2.5h289q4 0 6.5-2.5t2.5-6.5zm-359 0q0-4-2.5-6.5T397 691H282q-3 0-5.5 2.5T274 700q0 4 2.5 6.5t5.5 2.5h115q4 0 6.5-2.5t2.5-6.5zm72-100q-4 0-6.5 2.5T469 609q0 4 2.5 6.5t6.5 2.5h66q4 0 6.5-2.5t2.5-6.5q0-4-2.5-6.5T544 600h-66zM60 162h150q4 0 6-2.5t2-6q0-3.5-2-6t-6-2.5H60q-4 0-6.5 2.5t-2.5 6q0 3.5 2.5 6T60 162zm197 0h36q4 0 6.5-2.5t2.5-6q0-3.5-2.5-6T293 145h-36q-3 0-5.5 2.5t-2.5 6q0 3.5 2.5 6t5.5 2.5zm485 48h104q4 0 6.5-2.5t2.5-6.5q0-4-2.5-6.5T846 192H742q-4 0-6.5 2.5T733 201q0 4 2.5 6.5t6.5 2.5zm147-9q0 4 2.5 6.5t6.5 2.5h27q4 0 6.5-2.5t2.5-6.5q0-4-2.5-6.5T925 192h-27q-4 0-6.5 2.5T889 201zm-99-47h95q4 0 6.5-2.5t2.5-6.5q0-4-2.5-6.5T885 136h-95q-4 0-6.5 2.5T781 145q0 4 2.5 6.5t6.5 2.5zM561 773h-77q-4 0-6.5 2t-2.5 6q0 4 2.5 6.5t6.5 2.5h77q4 0 6.5-2.5t2.5-6.5q0-4-2.5-6t-6.5-2zm-135 0h-40q-8 0-8 8 0 4 2 6.5t6 2.5h40q4 0 6.5-2.5t2.5-6.5q0-4-2.5-6t-6.5-2z"/></svg>