<svg viewBox="0 0 1244 1083.753" xmlns="http://www.w3.org/2000/svg"><path d="M501 311q4 0 6.5-2.5t2.5-6.5V148q0-4-2.5-6.5t-6-2.5q-3.5 0-6 2.5T493 148v154q0 4 2.5 6.5t5.5 2.5zm-119 17q1 2 3.5 3.5t4.5 1.5q2 0 3-1 4-1 5.5-4.5t-.5-6.5l-22-53q-1-4-4.5-5.5t-7 0q-3.5 1.5-5 5t.5 6.5l22 54zM183 452q-4-1-7 0t-5 4q-2 9 5 12l53 22h4q5 0 8-5 1-3-.5-6.5T236 474l-53-22zm637 0l-53 22q-4 1-5.5 4.5t.5 6.5q3 5 8 5h4l53-22q3-2 4-5t0-6.5q-1-3.5-4-4.5t-7 0zM609 332q2 1 4 1 5 0 8-5l22-54q2-3 .5-6.5t-5-5q-3.5-1.5-7 0T627 268l-22 53q-1 3 0 6t4 5zm167 263q0 4 2.5 6.5t6.5 2.5h143q4 0 6.5-2.5t2.5-6.5q0-4-2.5-6.5T928 586H785q-4 0-6.5 2.5T776 595zm-704 9h143q4 0 6.5-2.5t2.5-6.5q0-4-2.5-6.5T215 586H72q-4 0-6.5 2.5T63 595q0 4 2.5 6.5T72 604zm635-207q3 0 6-3l111-111q3-2 3-6t-2.5-6.5Q822 268 818 268t-6 3L701 382q-3 3-3 6.5t2.5 6q2.5 2.5 6.5 2.5zm-416 2q2 2 5.5 2t7.5-2q5-7-1-13L180 275q-2-2-6-2t-6 2.5q-2 2.5-2 6.5t3 6l122 111zM9 647h982q4 0 6.5-2.5t2.5-6.5q0-4-2.5-6.5T991 629H728q4-19 4-44 0-63-31-116.5t-84.5-85Q563 352 500 352t-116.5 31.5Q330 415 299 468.5T268 585q0 25 4 44H9q-4 0-6.5 2.5T0 638q0 4 2.5 6.5T9 647zm329-62q0-44 22-81t59-59q37-22 81-22t81 22q37 22 59 59t22 81q0 24-7 44h-16q5-23 5-44 0-4-2.5-6.5t-6-2.5q-3.5 0-6 2.5T627 585q0 23-6 44H345q-7-25-7-44zm-53 0q0-59 29-108t78-78q49-29 108-29t108 29q49 29 78 78t29 108q0 26-5 44h-37q6-21 6-44 0-49-24-90t-65-65q-41-24-90-24t-90 24q-41 24-65 65t-24 90q0 23 6 44h-37q-5-23-5-44zm706 100H9q-4 0-6.5 2.5T0 694q0 4 2.5 6t6.5 2h982q4 0 6.5-2t2.5-6q0-4-2.5-6.5T991 685zm-97 97H608q-8 0-8 8 0 4 2 6.5t6 2.5h286q4 0 6.5-2.5t2.5-6.5q0-4-2.5-6t-6.5-2zm-440 0H199q-4 0-6.5 2t-2.5 6q0 4 2.5 6.5t6.5 2.5h255q3 0 5.5-2.5t2.5-6.5q0-4-2.5-6t-5.5-2zm-174 48H36q-4 0-6 2.5t-2 6.5q0 4 2 6.5t6 2.5h244q4 0 6-2.5t2-6.5q0-4-2-6.5t-6-2.5zm351 16H485q-4 0-6.5 2.5T476 854q0 3 2.5 6t6.5 3h146q4 0 6.5-2.5t2.5-6.5q0-4-2.5-6t-6.5-2zM500 449q-37 0-68 18.5T382.5 517Q364 548 364 585q0 4 2.5 6t6.5 2q8 0 8-8 0-32 16-59.5t43.5-43.5q27.5-16 59.5-16 4 0 6.5-2.5t2.5-6q0-3.5-2.5-6T500 449z"/></svg>