<svg viewBox="0 0 1244 1083.753" xmlns="http://www.w3.org/2000/svg"><path d="M502 151q3 0 5.5-2.5t2.5-5.5V10q0-4-2.5-6.5t-6-2.5q-3.5 0-6 2.5T493 10v133q0 3 2.5 5.5t6.5 2.5zm0 700q-4 0-6.5 2.5T493 859v133q0 4 2.5 6.5t6 2.5q3.5 0 6-2.5t2.5-6.5V859q0-3-2.5-5.5T502 851zm482-356H851q-4 0-6.5 2t-2.5 6q0 4 2.5 6.5t6.5 2.5h133q4 0 6.5-2.5t2.5-6.5q0-4-2.5-6t-6.5-2zm-826 8q0-4-2.5-6t-6.5-2H16q-4 0-6.5 2T7 503q0 4 2.5 6.5T16 512h133q4 0 6.5-2.5t2.5-6.5zm597-246q4 0 6-2l94-94q2-3 2-6.5t-2.5-6q-2.5-2.5-6-2.5t-5.5 3l-95 94q-2 2-2 6t2 6q2 2 7 2zM242 749l-94 95q-3 2-3 5.5t2.5 6q2.5 2.5 5.5 2.5t7-2l94-94q5-7 0-13-2-2-6-2t-6 2zm511-4q-3-3-6.5-3t-6 2.5q-2.5 2.5-2.5 6t3 6.5l94 94q2 3 5.5 3t6-2.5q2.5-2.5 2.5-6.5t-2-6l-94-94zM244 260q3 3 7 3t6-2.5q2-2.5 2-6t-3-6.5l-94-94q-2-2-6-2t-6 2q-2 2-2 6t2 6l94 94zm258 51q-52 0-96 26t-70 70q-26 44-26 96t26 96q26 44 70 70t96 26q52 0 95.5-26t69.5-70q26-44 26-96t-26-96q-26-44-69.5-70T502 311zm0 366q-48 0-88-23.5T350.5 590Q327 550 327 503t23.5-87.5q23.5-40.5 63.5-64t87.5-23.5q47.5 0 87.5 23.5t63.5 64Q676 456 676 503t-23.5 87Q629 630 589 653.5T502 677zm0-48q-34 0-63.5-17T392 566q-17-29-17-63 0-4-2-6.5t-6-2.5q-4 0-6.5 2.5T358 503q0 39 19.5 72t52.5 52q33 19 72 19 3 0 5.5-2.5t2.5-5.5q0-3-2.5-6t-5.5-3zm0-375q-68 0-125.5 33.5t-91 91Q252 436 252 503t33.5 124.5q33.5 57.5 91 91t125 33.5q67.5 0 125-33.5t91-91Q751 570 751 503t-33.5-124.5q-33.5-57.5-91-91T502 254zm0 481q-63 0-116.5-31T301 619.5Q270 566 270 503t31-116.5q31-53.5 84.5-84.5T502 271q63 0 116.5 31t84.5 84.5Q734 440 734 503t-31 116.5Q672 673 618.5 704T502 735zm56 42q-27 6-56 6-64 0-120.5-27T285 680q-2-3-5.5-3t-6.5 2q-3 2-3 5.5t2 6.5q42 52 102.5 80.5T502 800q31 0 59-6 4-1 6-4t1-6.5q-1-3.5-3.5-5.5t-6.5-1zm205-395q-3 2-4 5t0 6q22 51 22 110 0 4 2.5 6.5t6.5 2.5q4 0 6-2.5t2-6.5q0-61-23-116-1-4-4.5-5.5t-7.5.5zM576 233q86 25 141 92 3 3 7 3 1 0 4-1l1-1q3-2 3-6t-2-6q-59-72-149-97-4-1-7 .5t-4 5q-1 3.5.5 6.5t5.5 4z"/></svg>