<svg viewBox="0 0 1244 1083.753" xmlns="http://www.w3.org/2000/svg"><path d="M97 322q-4 0-6.5 2.5T88 331v178q0 4 2.5 6.5t6 2.5q3.5 0 6-2.5t2.5-6.5V331q0-4-2.5-6.5T97 322zm903 201q0-4-2.5-6.5T991 514h-8q-2-41-30-72t-68-36q-7-61-54-79 1-15-2-30l30-30q12 9 29 9 20 0 34.5-14.5T937 226q0-21-13.5-34.5T889 176q0-19-14.5-33.5t-35-14.5q-20.5 0-35.5 15-13 13-14.5 31t8.5 32l-30 31q-40-8-99 12l-11 4q-13 5-20 8-43 0-86.5 16T482 319q-6-1-18-1-23 0-43 9l14-278q0-3-2-6t-7-3H33q-4 0-6.5 3.5T24 49l32 637q-17-4-34 4-23 14-21.5 47T28 815q4 8 17 25l3 5-6 5q-12 10-17.5 22.5T21 898q2 18 17 29 19 15 59 15 10 0 36-2 54-8 88-27 39-22 36-48h129q3 0 5.5-2.5t2.5-6.5l2-30q28 21 64 39v64q0 13 10 23t23 10h258q13 0 22.5-9.5T783 929v-64q64-31 113-82.5T972 665q28-68 28-142zM869 415q0 6 8 8 35 2 60.5 28.5T966 514H755q26-31 47-77 22-49 28-92 17 8 26.5 25t12.5 45zm-53-202q3-2 3-5.5t-3-6.5q-9-10-9-23t9.5-23q9.5-10 23-10t22.5 10q12 12 9 29 0 5 3.5 8.5t6.5 1.5q16-3 30 9 9 9 9 23t-9 23q-12 10-24 10t-22-10q-2-2-7-2-4 0-6 2l-29 29q-4-10-14-22-8-8-22-14l29-29zm-142 53q43-14 75-13.5t48 16.5q16 16 17 46 1 27-9 63h-86q-4 0-6.5 2t-2.5 6q0 4 2.5 6.5t6.5 2.5h81q-12 34-30.5 67T732 514H545l-2-1q-24-24-31.5-55.5t1.5-63q9-31.5 34-56.5 19-19 55-39.5t72-32.5zm-191 71q5 2 8-3 16-17 43.5-30.5T593 283q-37 23-59 43-40 40-43.5 93t30.5 95H279q2-36 28-62.5t61-28.5q6-2 8-8 3-34 28-57t60-23q5 0 16 2h3zM43 806q-22-38-25-64.5T30.5 706q15.5-9 36.5 3 24 14 49 54l3 6q6 11 8 17-31 20-51 45l-13 5-3-5q-13-17-17-25zm191 29q-29-16-79-16-11 0-34 2l-13 2q19-17 43-31 43-25 80-30 15-2 26 0t15 8q5 9-5 27t-33 38zm-21 63q-36 20-82 24-19 3-34 3-56 0-59-29-1-18 15-33 22-19 68-24 17-3 34-3 37 0 62 10 21 9 23 21 1 7-6.5 15.5T213 898zm164-51H249l-1-1q27-24 37.5-46.5t.5-38.5q-6-11-21-15.5t-37-1.5q-42 6-86 33-4-11-12-22-23-42-55-62h-2L51 243h169q4 0 6.5-2t2.5-6q0-4-2.5-6.5T220 226H50L42 58h375l-4 76H98q-4 0-6.5 2.5T89 143q0 4 2.5 6.5T98 152h314l-9 185q-36 25-44 69-39 5-67 36t-31 72h-9q-3 0-5.5 2.5T244 523q0 86 36 162 36 75 99 128l-2 34zm389 82q0 7-4.5 11t-10.5 4H493q-6 0-10-3.5t-5-8.5h78q3 0 5.5-2.5t2.5-6q0-3.5-2.5-6T556 915h-78v-42q68 28 144 28t144-28v56zm-144-45q-67 0-129-24-60-23-109-66h163q3 0 5.5-2.5t2.5-6q0-3.5-2.5-6T547 777H366q-53-53-80-122h76q4 0 6.5-2.5t2.5-6q0-3.5-2.5-6T362 638h-82q-6-18-8-27h320q4 0 6.5-2.5t2.5-6q0-3.5-2.5-6T592 594H268q-5-27-7-62h722q-2 35-7 62H820q-3 0-5.5 2.5t-2.5 6q0 3.5 2.5 6t5.5 2.5h152q-7 25-18 52H752q-4 0-6.5 2.5T743 672q0 4 2.5 6t6.5 2h194q-44 92-130 147-89 57-194 57zM361 465q0 4 2.5 6.5t6.5 2.5h47q4 0 6.5-2.5t2.5-6.5q0-4-2.5-6.5T417 456h-47q-4 0-6.5 2.5T361 465zm487 14h37q3 0 5.5-2.5t2.5-6.5q0-4-2.5-6.5T885 461h-37q-4 0-6 2.5t-2 6.5q0 4 2 6.5t6 2.5zm-412-78h13q4 0 6-2.5t2-6.5q0-8-8-8h-13q-4 0-6.5 2.5T427 392q0 3 2.5 6t6.5 3z"/></svg>