<svg viewBox="0 0 1244 1083.753" xmlns="http://www.w3.org/2000/svg"><path d="M702 278L435 544q-5 6 0 13 4 2 7 2t5-2l267-267q3-3 3-6.5t-2.5-6Q712 275 708 275t-6 3zm100 525q-61 61-138.5 93T500 928q-86 0-163.5-32T198 803q-2-2-6-2t-6.5 2q-2.5 2-2.5 6t3 6q63 63 144 96.5T500 945q89 0 170-33.5T814 815q3-2 3-6t-2.5-6q-2.5-2-6.5-2t-6 2zm14-515q-1-2-5-3l-1-1q-4 0-7 3L286 804q-3 3-3 7l1 1q1 4 3 5 48 32 102.5 48.5T500 882q75 0 145-28.5T770 770q63-63 91-147t17-171q-12-90-62-164zM629 622q-4 0-6 2.5t-2 6.5v213l-18 6V596q0-3-2.5-5.5t-6-2.5q-3.5 0-6 2.5T586 596v259l-13 3 12-329 53-53 12 356-12 6V631q0-4-2.5-6.5T629 622zM353 761l17-17v97l-17-7v-73zm-17 65l-12-6 1-31 11-11v48zm52-99l8-9 4 133-12-4V727zm30 129l-6-154 155-155-12 314q-67 10-137-5zm339-98q-40 40-90 66l-12-364 153-154q45 71 54 153.5T844 619q-27 80-87 139zm97-611Q783 76 691.5 38.5T500 1Q400 1 308.5 38.5T146 147Q75 218 37.5 309.5T0 501q0 100 37.5 191.5T146 855q71 71 162.5 108.5T500 1001q100 0 191.5-37.5T854 855q71-71 108.5-162.5T1000 501q0-100-37.5-191.5T854 147zm-13 695q-92 93-219 126-122 32-244 0-127-33-219.5-125.5T33 623Q1 501 33 379q33-127 126-219 68-69 156-105.5T500 18q97 0 185 36.5t156.5 105Q910 228 946.5 316T983 501q0 97-36.5 185T841 842zM713 194q-15-38-33-64-32-45-68-45-31 0-63 38-47-6-95-1v-8q0-4-2.5-6.5T445 105h-30q-4 0-6 2.5t-2 6.5v17q-7 1-19 5v-22q0-4-2.5-6.5T379 105h-36q-3 0-5.5 2.5T335 114v43q-11 5-19 10v-53q0-4-2.5-6.5T308 105h-30q-3 0-5.5 2.5T270 114v83q-21 15-40 34-64 64-92 148t-16 172q12 88 62 163 2 3 6 3h1q2 0 6-2l514-512q4-4 2-9zM362 390q7 0 21-2h2l3 112-55 54 6-166h2q14 2 21 2zm250-288q23 0 48 30 19 25 35 63L563 326q-10-10-16-24t-6-28q0-3-2.5-5.5T532 266q-4 0-6.5 2.5T523 274q0 17 7.5 34t20.5 30l-9 9q-14-15-22.5-34.5T511 274q0-21 8.5-51.5T542 165q17-30 35-46.5t35-16.5zm-74 37q-2 3-5 9l-6 9q-15 29-24 61t-9 55q0 23 9.5 46t26.5 40L405 483l-3-102q23-11 37.5-33.5T454 298V139q40-5 84 0zm-131 10v141h-19V154q12-4 19-5zm-72 27v114h-19V186l7-4 12-6zm-48-54h12v176q0 4 2.5 6.5t6.5 2.5h35q4 0 6.5-2.5t2.5-6.5V122h19v176q0 4 2.5 6.5t5.5 2.5h36q4 0 6.5-2.5t2.5-6.5V122h13v176q0 31-22 53t-53 22q-31 0-53-22t-22-53V122zm-45 121q2-2 7-6 14-13 21-18v79q0 27 14.5 49.5T322 381l-6 191-124 123q-44-71-53.5-153T156 381.5Q183 303 242 243zm120 125q4 0 6.5-2.5t2.5-5.5q0-3-2.5-6t-6.5-3q-17 0-31-10t-19-26q-1-4-4-5.5t-6.5 0q-3.5 1.5-5 4.5t-.5 6q7 22 25 35t41 13z"/></svg>