<svg viewBox="0 0 1244 1083.753" xmlns="http://www.w3.org/2000/svg"><path d="M993 446L865 318q-9-7-18-7 0-11-7-18L712 165q-9-7-18-7 0-11-7-18L559 13q-8-8-18-8t-18 8L396 140q-8 8-8 18v1q-11 0-18 7L242 294q-7 7-7 18h-1q-10 0-17 7L89 447q-8 8-8 18t8 18l128 128q7 7 17 7 0 10 8 18l1 1q-18-8-37-21-45-28-96-33-37-3-74 5-21 5-31 10-4 2-4.5 6.5T1 611l110 170q4 4 7 4 40 4 85 21-11 0-17-1-74-2-134 39-31 21-50 46-2 4-1.5 7.5T5 903l180 93 4 1q3 0 4-1 21-9 60-18 40-9 74-10 91-3 153-21 37-10 56-23h4q9 0 18-7l128-128q7-7 7-18v-1h1q11 0 17-7l128-128q8-8 8-18 9 0 18-7l128-128q8-8 8-18.5t-8-17.5zm-586 24q-2-2-2-5.5t2-5.5l128-128q4-2 6.5-2t4.5 2l79 78H524q-4 0-6 2.5t-2 6.5q0 8 8 8h118l32 33q3 1 3 5t-3 6l-28 28h-63q-4 0-6.5 2.5T574 507q0 4 2.5 6t6.5 2h46l-83 83q-2 2-5.5 2t-5.5-2L407 470zM274 643h47q3 0 5.5-2.5t2.5-6q0-3.5-2.5-6T321 626h-65l-2-2q-2-3-2-6.5t2-5.5l128-128q2-2 4.5-2t6.5 2l128 128q2 4 2 6t-2 6l-27 26h-55q-4 0-6.5 2.5T430 659q0 4 2.5 6.5t6.5 2.5h38l-84 83q-2 2-5.5 2t-5.5-2L274 643zm554-338q2 4 2 6t-2 6l-18 17H654q-4 0-6 2.5t-2 5.5q0 3 2 6t6 3h139l-93 94q-2 2-5.5 2t-6.5-2L561 317q-2-2-2-5.5t2-6.5l57-57h69q3 0 5.5-2.5t2.5-6.5q0-4-2.5-6t-5.5-2h-52l53-53q3-3 6-3t6 3l128 127zM408 153L536 25q2-3 5-3t6 3l66 66h-56q-4 0-6.5 2.5t-2.5 6q0 3.5 2.5 6t6.5 2.5h73l45 45q2 2 2 4.5t-2 6.5L547 292q-2 2-5.5 2t-5.5-2l-18-18h33q4 0 6.5-2.5t2.5-6q0-3.5-2.5-6T551 257h-50l-44-44h58q3 0 5.5-2t2.5-6q0-4-2.5-6.5T515 196h-75l-32-32q-3-3-3-6.5t3-4.5zM254 306l20-19h39q4 0 6.5-2.5t2.5-6.5q0-4-2.5-6t-6.5-2h-22l21-22h117q4 0 6.5-2.5t2.5-6q0-3.5-2.5-6T429 231H329l53-53q4-2 6-2t6 2l127 128q3 1 3 5t-3 6L394 445q-2 2-6 2t-6-2L254 317q-2-2-2-5.5t2-5.5zM101 471q-2-2-2-6t2-6l128-127q2-3 6-3t5 3l125 124h-62q-4 0-6.5 2.5t-2.5 6q0 3.5 2.5 6t6.5 2.5h62L240 598q-2 3-5.5 3t-5.5-3L101 471zM46 648q32-5 64 0 40 7 76 29 1 1 4 1 5 0 7.5-3.5t1.5-7q-1-3.5-4-5.5-73-45-159-30l-14-22q33-11 69-10 57 1 106 31 35 21 81 41l91 92q1 0 3 2-15 13-41 22-37 14-89 17-32-17-70-27-26-7-48-9L46 648zm281 303q-35 1-76 10-38 8-61 18L63 913q63-56 147-54 4 1 6.5-1.5t2.5-6.5q0-4-2-6.5t-6-2.5q-55-2-103 21-34 16-61 42l-24-13q23-26 54-43 50-28 108-26 86 3 145-17 38-12 58-31 0 7 7 14l124 125q-23 12-59 21-56 13-133 16zm347-175l-24 24h-59q-4 0-6.5 2.5T582 809q0 4 2.5 6t6.5 2h42l-87 87q-2 2-5.5 2t-5.5-2L421 791h50q4 0 6.5-2.5t2.5-6q0-3.5-2.5-6T471 774h-66l-1-3q0-3 3-6l128-128q2-2 4.5-2t6.5 2l94 94h-28q-4 0-6 2.5t-2 6.5q0 4 2 6.5t6 2.5h45l17 16q2 4 2 6.5t-2 4.5zm153-153l-15 15h-71q-4 0-6.5 2.5t-2.5 6q0 3.5 2.5 6t6.5 2.5h54l-96 96q-2 2-5.5 2t-5.5-2L560 623q-2-2-2-5.5t2-5.5l42-42h123q3 0 5.5-2.5t2.5-6q0-3.5-2.5-6T725 553H619l69-69q1-2 5.5-2t5.5 2l128 128q2 1 2 5.5t-2 5.5zm154-153L853 597q-2 2-6 2t-6-2L714 470q-3-3-3-6t3-6l127-127q3-3 6-3t6 3l100 100H830q-4 0-6 2.5t-2 6q0 3.5 2 6t6 2.5h140l11 10q2 2 2 6t-2 6zm-126 1h-67q-4 0-6.5 2.5T779 480q0 4 2.5 6.5t6.5 2.5h67q3 0 5.5-2.5t2.5-6.5q0-4-2.5-6.5T855 471z"/></svg>