<svg viewBox="0 0 1244 1083.753" xmlns="http://www.w3.org/2000/svg"><path d="M981 172h-69v-55q0-8-6-13.5T892 98h-68v-8q0-8-6-14t-14-6H702q-8 0-14 6t-6 14v8H564q-19 0-36 8t-29 23q-11-14-28.5-22.5T434 98H106q-8 0-14 5.5T86 117v55H20q-8 0-14 6t-6 14v663q0 8 6 14t14 6h662v37q0 12 11 17.5t20-1.5l39-29 41 29q9 7 20 1.5t11-17.5v-37h157q8 0 13.5-6t5.5-14V192q0-8-5.5-14t-13.5-6zm-108-35v618h-49V137h49zm-309 0h118v101h-79q-8 0-13.5 5.5T584 257q0 8 5.5 14t13.5 6h79v86h-79q-8 0-13.5 6t-5.5 14q0 8 5.5 13.5T603 402h79v86h-79q-8 0-13.5 6t-5.5 14q0 8 5.5 13.5T603 527h79v87h-79q-8 0-13.5 5.5T584 633q0 8 5.5 14t13.5 6h79v102H564q-25 0-45 12V183q0-19 13-32.5t32-13.5zM39 211h47v210q0 8 6 13.5t14 5.5q8 0 13.5-5.5T125 421V137h309q19 0 32.5 13.5T480 183v584q-21-12-46-12H125V593q0-8-5.5-13.5T106 574q-8 0-14 5.5T86 593v181q0 8 6 14t14 6h328q15 0 28 8t18 21v13H39V211zm643 625H519v-13q4-13 17-21t28-8h118v42zm81 23q-4-4-11-4t-12 4l-19 14V109h64v765l-22-15zm198-23H824v-42h68q8 0 14-6t6-14V211h49v625zM211 277h186q8 0 14-6t6-14q0-8-6-13.5t-14-5.5H211q-8 0-14 5.5t-6 13.5q0 8 6 14t14 6zm0 125h186q8 0 14-5.5t6-13.5q0-8-6-14t-14-6H211q-8 0-14 6t-6 14q0 8 6 13.5t14 5.5zm0 125h186q8 0 14-5.5t6-13.5q0-8-6-14t-14-6H211q-8 0-14 6t-6 14q0 8 6 13.5t14 5.5zm0 126h186q8 0 14-6t6-14q0-8-6-13.5t-14-5.5H211q-8 0-14 5.5t-6 13.5q0 8 6 14t14 6zM88 513q3 8 11 10.5t15.5-1q7.5-3.5 10-11.5t-2-15q-4.5-7-12-9T96 489q-7 4-9 10.5t1 13.5z"/></svg>