<svg viewBox="0 0 1244 1083.753" xmlns="http://www.w3.org/2000/svg"><path d="M448 493q12-5 12-18.5T448 457q-6-2-12-.5t-10 6q-4 4.5-4.5 11t3 12q3.5 5.5 10 7.5t13.5 0zm-47-316h-39q-8 0-14 6t-6 14q0 8 6 13.5t14 5.5h39q8 0 14-5.5t6-13.5q0-8-6-14t-14-6zm119 39q8 0 14-5.5t6-13.5q0-8-6-14t-14-6h-38q-8 0-13.5 6t-5.5 14q0 8 5.5 13.5T482 216h38zm206 362l-98-180V61q0-25-17.5-42.5T569 1H313q-25 0-42.5 17.5T253 61v230q0 8 6 13.5t14 5.5q8 0 14-5.5t6-13.5V61q0-9 6-15t14-6h256q8 0 14 6t6 15v558q-2 15-11 24l-53 51v-79q0-14-6-27.5T502 563q21-15 34-38t13-50q0-29-14.5-54T495 381.5Q470 367 441 367t-54 14.5Q362 396 347.5 421T333 475q0 32 17 58t45 39q-15 20-15 43v90h-87V463q0-8-6-14t-14-6q-8 0-14 6t-6 14v262q0 50 25 93t67.5 68.5Q388 912 438 912v70q0 7 6 13t13 6h210q8 0 14-5.5t6-13.5v-58l55-225q7-31 3-62t-19-59zM372 475q0-29 20.5-49t49-20q28.5 0 48.5 20t20 48.5q0 28.5-20 48.5t-49 20q-29 0-49-20t-20-48zm49 397q-49-7-84.5-42.5T294 745h88q4 30 18 65 9 24 28 63l-7-1zm283-182l-56 227v45H477v-53q0-25-11-49-5-10-16.5-35T436 793q-17-43-17-78V615q0-14 10-23.5t23.5-9.5q13.5 0 23.5 10t10 23v90q0 14 10 23.5t23.5 10.5q13.5 1 24.5-9l61-58q11-11 17-26t6-31V480l64 117q24 45 12 93zM421 272q-8 0-14 6t-6 14q0 8 6 13.5t14 5.5h40q8 0 13.5-5.5T480 292q0-8-5.5-14t-13.5-6h-40zM257 386q5 7 12.5 8.5T284 392q7-4 8.5-12.5t-3.5-15q-5-6.5-12.5-8T262 359q-7 4-8.5 12t3.5 15z"/></svg>