<svg viewBox="0 0 1244 1083.753" xmlns="http://www.w3.org/2000/svg"><path d="M792 834v-71q0-6-4.5-10.5T777 748q-6 0-10.5 4.5T762 763v71q0 6 4.5 10t10.5 4q6 0 10.5-4t4.5-10zm15-193q-26-14-39-37-6-11-19-10t-17 12q-9 23-35 34-12 7-12 19 0 6 3.5 11t9.5 7q24 10 34 35 1 5 6 8.5t11 4.5h1q13 0 18-11 12-23 39-37 11-5 11-17.5T807 641zm-56 45q-8-15-26-28 17-11 26-26 11 14 29 27-17 11-29 27zM242 542h2q5 0 10-3t7-8q13-22 36-34 11-6 11-18 0-5-3-10t-7-7q-25-13-37-36-7-10-19.5-9T225 428q-7 22-32 33-5 2-8.5 7t-3.5 11q0 6 3.5 11t9.5 7q22 9 31 32 2 6 7 9.5t10 3.5zm3-87q11 14 25 24-14 10-25 24-12-17-24-24 12-8 24-24zm379 375l-61-9-27-55q-1-3-5-7l-2-2V641l46 14q6 2 9 2 14 0 24-13l30-40 22 14q5 3 8 3 9 0 12.5-5.5T683 604q-1-6-6-10l-24-16q0-17-11-25l-30-26q-6-4-10-5v-38l8-6q5-4 5.5-10t-3.5-11q-4-5-10-5.5t-11 3.5q-33 28-76 28-33 0-61-16.5T409.5 422Q393 394 393 361v-98q0-29 21-49.5t50-20.5h92q6 0 10-3l18-15 17 15q17 14 26 34.5t9 42.5v94q0 25-11 50-2 5 0 11t7.5 8.5q5.5 2.5 11.5 0t8-7.5q6-13 12-39h3q24 0 40.5-17t16.5-40q0-20-13-36l12-87q4-30-7-57.5T681.5 100Q658 81 628 76h-3q-15-25-37.5-42.5T537 9l-4-2q-39-11-79-3.5T382 36q-4 3-5 9t2.5 11q3.5 5 9.5 6t11-3q26-20 59.5-26.5T525 36l4 1q49 14 74 59 17 33 13 69l-15-13q-7-7-16.5-7t-17.5 6l-16 13h-87q-41 0-70.5 29T364 263v8h-2q-10 0-15 2-16-42-12-87.5t27-83.5q3-5 1.5-11t-6.5-9.5q-5-3.5-11-1.5t-9 7q-27 45-31 98t15 103q-16 16-16 39t17 40q17 17 40 17h4q4 30 20.5 56.5T428 484v38q-6 1-11 5l-30 26q-12 9-10 25l-76 52q-30 20-46.5 52T238 751v83q0 6 4 10t10 4q6 0 10.5-4t4.5-10v-83q0-29 13.5-54.5T318 654l73-50 30 40q10 13 25 13 4 0 8-2l46-14v118q-4 4-5 7l-27 55-61 9q-7 1-11.5 5t-6.5 10q-5 14 5 24l44 43-10 60q-2 14 8.5 22.5T461 996l55-28 54 28q5 3 12 3t12-4q12-10 9-23l-10-60 44-43q9-9 5-23t-18-16zm43-475h-2v-55h2q11 0 19.5 8t8.5 19q0 11-8.5 19.5T667 355zm27-155l-10 73q-5-2-17-2h-2v-4q0-43-24-76 11-42-1-82 27 11 42.5 36t11.5 55zM335 327q0-11 8-19t19-8h2v55h-2q-11 0-19-8.5t-8-19.5zm288 248l-39 52-55-16v-30l64-31 30 25zm-108-63q30 0 58-12v27l-58 29-58-29v-27q27 12 58 12zm-69 115h-1l-39-52 30-25 64 31v30l-54 16zm124 266q-9 9-7 20l9 51-46-24q-3-2-10.5-2t-10.5 2l-46 24 9-51q2-13-7-20l-37-36 51-8q12-2 18-12l23-47 23 47q4 10 17 12l51 8-37 36zm221-3l-32-4-14-29q-2-5-7-8t-10-3q-12 0-18 11l-14 29-31 4q-13 3-16 14.5t5 18.5l23 23-6 31q-2 13 8 19 4 4 10 4t10-2l29-15 28 15q12 5 21-1.5t7-19.5l-5-31 23-23q9-9 5-19.5T791 890zm-37 38q-6 8-5 18l3 16-15-8q-6-2-10-2t-8 2l-15 8 2-16q2-9-5-18l-12-11 17-3q9-1 14-10l8-16 7 16q5 8 15 10l17 3-13 11zm-389-38l-32-4-14-29q-2-5-7-8t-10-3q-12 0-18 11l-14 29-31 4q-13 3-16 14.5t5 18.5l23 23-6 31q-2 13 8 19 4 4 11 4 3 0 9-2l29-15 28 15q12 5 20.5-2.5T358 977l-5-31 23-23q9-9 5-19.5T365 890zm-37 38q-6 8-5 18l3 16-15-8q-10-3-18 0l-15 8 2-16q2-9-5-18l-12-11 17-3q9-1 14-10l8-16 7 16q5 8 15 10l17 3-13 11zm36-105v-72q0-6-4.5-10.5T349 736q-6 0-10 4.5t-4 10.5v72q0 6 4 10t10 4q6 0 10.5-4t4.5-10zm301-72v72q0 6 4.5 10t10.5 4q6 0 10.5-4t4.5-10v-72q0-6-4.5-10.5T680 736q-6 0-10.5 4.5T665 751z"/></svg>