<svg viewBox="0 0 1244 1083.753" xmlns="http://www.w3.org/2000/svg"><path d="M298 28q4 8 11.5 11t15-.5q7.5-3.5 10.5-11t-.5-15Q331 5 323.5 2t-15 .5Q301 6 298 13.5t0 14.5zm3 861q-11-7-21.5 0t-9.5 20q2 6 6.5 10.5t11 5.5q6.5 1 12.5-2.5t8-10q2-6.5 0-13t-7-10.5zm413-3q-6 2-10.5 6.5t-5 11q-.5 6.5 3 12t9 8q5.5 2.5 12 1T733 918q4-5 4.5-11t-2.5-11q-7-12-21-10zm141-251q0-35-17-64.5T791.5 524Q762 507 727 507q-55 0-85-4-47-7-79-28-25-16-42-41.5T502 379V241q0-8-5.5-13.5T483 222h-6l11-200q1-9-5-15t-14-6h-67q-8 0-13.5 5.5T383 20q0 8 5.5 14t13.5 6h46l-10 182H206L186 40h44q8 0 14-6t6-14q0-8-6-13.5T230 1h-66q-9 0-14 6-6 8-5 16l44 417q5 39-13 79-25 57-25 115v43q0 33 12 63 4 12 21 38l6 9q27 37 30 54-26 28-26 64 0 40 28 68t68 28q40 0 67.5-28t27.5-68q0-36-24-63l3-6q8-11 22-11h234q13 0 21 11l5 6q-23 28-23 63 0 40 27.5 68t67.5 28q40 0 68-28t28-67q0-39-27-66 5-16 30-53l2-3q19-30 25-44 11-30 11-59 1 0 0-42v-4zm-39 0v42q0 14-10.5 24T781 712H225q-14 0-24.5-10.5T190 677v-43q0-50 21.5-99t16.5-99l-5-43 45-18q22-9 35-28.5t13-43.5l-1-42h45v118q0 51 26.5 98t75.5 81.5Q511 593 570 593q34 0 66.5-12t58.5-35h32q37 0 63 26t26 63zM497 467q43 58 134 74-35 16-74.5 12T484 526q-40-28-62.5-67T399 379V261h64v118q0 22 10 47 9 22 24 41zM277 303q0 12-6.5 21.5T253 338l-34 14-9-91h66l1 42zm13 659q-23 0-40-16.5T233 905q0-17 9.5-31t25.5-21q13-5 27.5-3.5t26 9.5q11.5 8 18 20t6.5 26q0 24-16.5 40.5T290 962zm330-176H386q-16 0-30.5 7.5T332 814l-3 4q-18-8-38-8.5t-38 7.5q-7-18-31-52-2-4-6-10l-4-6 2 1q8 1 11 1h556q4 0 12-2h2l-3 4q-5 8-8 12l-2 4q-22 32-28 48-18-7-38.5-6.5T677 819l-4-6q-9-13-23-20t-30-7zm98 176q-23 0-39.5-16.5T662 905q0-14 6.5-26t17.5-20q15-10 34-9.5t33 11.5q10 9 16 20.5t6 23.5q0 24-17 40.5T718 962z"/></svg>