<svg viewBox="0 0 1244 1083.753" xmlns="http://www.w3.org/2000/svg"><path d="M489 137q18 0 31-13t13-31.5Q533 74 520 61t-31.5-13Q470 48 457 61t-13 31.5q0 18.5 13 31.5t32 13zm0-60q6 0 10.5 4.5t4.5 11q0 6.5-4.5 11t-11 4.5q-6.5 0-11-4.5t-4.5-11q0-6.5 4.5-11T489 77zm0 0zM2 627q11 100 59 188l12 17q-16 27-13 59 1 22 14 42 1 0 1 .5v.5q8 14 33 34l9 8q24 22 57 24.5t60-14.5l77-48q28-17 39.5-47.5T353 828v-2q-10-33-18-48-12-25-34-39-26-16-58-14l-5-9q-28-51-33.5-110t12-116Q234 433 273 389q40-46 97-72t118.5-26q61.5 0 118.5 26t97 72q39 44 56.5 101T773 606q-5 59-34 110-2 3-4 9-33-2-59 14-21 13-34 38-8 15-17 48l-1 3q-9 32 2.5 62.5T666 938l77 48q36 23 76 10 29-9 66-42 25-23 30.5-58T904 832l12-17q51-92 58-200 7-107-29-207-37-102-111-176-49-49-109.5-82.5T596 100q-3-41-34-70T488.5 1Q446 1 415 30t-34 70q-86 20-160 68.5T94 291q-53 74-77 161T2 627zm54 105q-15-40-23-93l143-15q4 25 14 55L56 732zM29 577q0-29 5-64l141 25q-2 26-2 39v18L30 610l-1-33zm257 187q5 3 13 11l-111 70q-5 3-6.5 9t2 11q3.5 5 9.5 6.5t11-1.5l111-70 10 36q7 22-1.5 43.5T296 913l-77 49q-19 12-42 10t-40-17l-26-23q0-2-2-2l46-29q5-4 6.5-10t-2-10.5q-3.5-4.5-9.5-6t-11 1.5l-46 29q-8-22 0-46.5t28-34.5l93-59q16-10 35.5-10t36.5 9zm-87-24l-94 59-4 3q-9 6-9 7l-2-3q-2-4-3-5-14-28-20-42l134-52q5 12 12 24 0 1 1 1-12 6-15 8zm722-8l-134-53q10-30 14-55l143 15q-8 53-23 93zM804 595v-18q0-13-2-39l142-25q4 42 4 64t-1 33l-143-15zm37 360q-17 15-40 17t-42-10l-78-49q-19-12-27-33.5t-2-43.5l11-36 114 72q5 4 11 2.5t9.5-6.5q3.5-5 2-11t-6.5-10l-115-72q17-17 41.5-20t43.5 10l94 59q20 13 27.5 36t-.5 45l-42-27q-5-3-11-1.5t-9 6.5q-3 5-2 11t6 9l42 27-27 25zm49-154q-1 2-5 8 0-1-6-5.5t-6.5-4.5h-.5l-83-52q-25-16-25-15v-1h1l12-24 133 52q-6 14-20 42zm-93-292q-5-26-17-54l130-62q19 46 29 92l-142 24zm-30-81q-11-20-31-47l108-95q31 38 53 80l-130 62zm58-164l-109 95q-18-19-43-38l79-120q26 17 61 51l12 12zm-176 41q-3-1-8-4l-5-3V142q48 16 92 43l-79 120zM398 127q5-2 8.5-6t3.5-9v-3q0-33 23-56t55.5-23Q521 30 544 53t23 56v3q0 5 3.5 9t8.5 6l27 6v151q-54-22-117.5-22T371 284V133l27-6zm-56 171q-2 1-7 3l-7 4-78-120q43-27 92-43v156zm-178-46q35-34 61-51l79 120q-25 19-43 38l-108-95q3-4 11-12zm-31 34l109 95q-19 23-32 47L80 366q22-42 53-80zM68 393l130 62q-12 25-18 54L39 485q9-47 29-92zm0 0z"/></svg>