<svg viewBox="0 0 1244 1083.753" xmlns="http://www.w3.org/2000/svg"><path d="M1000 404q0-23-15.5-38.5T946 350H728q-1-7-5-19l55-55q16-16 16-38t-16-38q-16-16-38-16t-38 16l-65 64h-36q-38 0-66.5 24.5T500 350H54q-22 0-38 15.5T0 404v38q0 52 24 97.5t66 75q42 29.5 93 35.5l-5 5q-18 18-18 44t18 44l57 57q18 18 43.5 18t43.5-18l148-148h320q57 0 105.5-28t76.5-76.5q28-48.5 28-105.5v-38zM726 224q6-6 14-6t14 5q6 5 6 14t-6 15l-49 49q-11-15-31-25l52-52zm-78 77q22 8 33 24l-35 35-29-28 31-31zm-26 83l-28 29-29-29 29-28 28 28zm-21-86h3l-52 52h-18q6-23 24.5-37.5T601 298zM34 442v-38q0-8 6-14t14-6h464l-81 81H35q-1-8-1-23zm26 92q-7-11-17-35h291l-34 35H60zm27 33h179l-51 51h-5q-35 0-67-13.5T87 567zm378 7q2 17 1 25-2 12-11 21L298 776q-8 8-19.5 8t-19.5-8l-57-57q-8-8-8-20t8-20l156-156q9-9 21-11 8-1 25 1 13 2 21 1 12-2 19-9l97-97 29 28-98 98q-7 7-8 19-1 7 1 21zm325 44H495q7-19 3-48v-3h415q-23 24-55 37.5T790 618zm150-84H520l35-35h402q-10 24-17 35zm25-69H589l81-81h276q8 0 14 6t6 14v38q0 15-1 23zm-664-51H107q-7 0-12 5t-5 12q0 7 5 11.5t12 4.5h194q7 0 12-4.5t5-12q0-7.5-4.5-12T301 414z"/></svg>