<svg viewBox="0 0 1244 1083.753" xmlns="http://www.w3.org/2000/svg"><path d="M799 377V231q0-12-8.5-20.5T770 202H624L521 99q-10-8-21.5-8T480 99L376 202H230q-12 0-20.5 8.5T201 231v146L98 480q-8 10-8 21.5t8 19.5l103 104v146q0 12 8.5 20.5T230 800h146l104 103q8 8 19.5 8t21.5-8l103-103h146q12 0 20.5-8.5T799 771V625l103-104q8-8 8-20t-8-21L799 377zm91 132L784 615q-3 1-3 6v20h-39q-4 0-6.5 2.5T733 650q0 4 2.5 6.5t6.5 2.5h39v35H612q-4 0-6.5 2.5T603 703q0 4 2.5 6.5t6.5 2.5h169v59q0 4-3 7.5t-8 3.5H620q-3 0-6 3L508 891q-3 3-8 3t-8-3L386 785q-1-3-6-3H230q-4 0-7.5-3.5T219 771v-47h81q4 0 6.5-2.5t2.5-6.5q0-4-2.5-6.5T300 706h-81v-85q0-5-3-6L111 509q-4-3-4-8t4-8l16-16h114q4 0 6.5-2.5t2.5-6.5q0-4-2.5-6.5T241 459h-97l72-72q3-3 3-6v-37h226q4 0 6.5-2.5t2.5-6.5q0-4-2.5-6.5T445 326H219v-47h93q4 0 6.5-2.5t2.5-6.5q0-4-2.5-6.5T312 261h-93v-30q0-5 3.5-8t7.5-3h150q5 0 6-3l106-106q3-3 8-3t8 3l106 106q3 3 6 3h150q5 0 8 3t3 8v64h-54q-4 0-6.5 2.5T718 304q0 4 2.5 6.5t6.5 2.5h54v68q0 3 3 6l106 106q3 3 3 8t-3 8zm100-32L863 350V171q0-14-9.5-23.5T830 138H651L524 11Q514 1 500 1t-24 10L350 138H170q-13 0-23 9.5T137 171v179L10 477Q0 487 0 501t10 24l127 126v180q0 13 10 23t23 10h180l126 127q10 10 24 10t24-10l127-127h179q14 0 23.5-10t9.5-23V651l127-126q10-10 10-24t-10-24zm-12 35L848 642q-2 2-2 6v183q0 7-4.5 11.5T830 847H647q-4 0-6 2L511 979q-5 5-11 5t-11-5L359 849q-2-2-6-2H170q-7 0-11.5-4.5T154 831V648q0-4-2-6L22 512q-4-5-4-11.5t4-10.5l130-130q2-2 2-6V171q0-7 4.5-11.5T170 155h183q4 0 6-2L489 23q5-5 11-5t11 5l130 130q2 2 6 2h183q7 0 11.5 4.5T846 171v183q0 4 2 6l130 130q5 4 5 10.5t-5 11.5z"/></svg>