<svg viewBox="0 0 1244 1083.753" xmlns="http://www.w3.org/2000/svg"><path d="M996 491L852 347V164q0-6-4.5-10.5T837 149h-90q-6 0-10.5 4.5T732 164q0 6 4.5 10t10.5 4h76v175q0 6 4 10l138 138-138 138q-4 4-4 10v174H648q-5 0-10 5L500 966 362 828q-5-5-10-5H178V649q0-5-5-10L35 501l138-138q5-5 5-10V178h174q6 0 10-4L500 36l138 138q4 4 10 4h31q6 0 10-4t4-10q0-6-4-10.5t-10-4.5h-25L510 5q-4-4-10-4t-10 4L346 149H163q-6 0-10.5 4.5T148 164v183L4 491q-4 4-4 10t4 10l144 144v183q0 6 4.5 10.5T163 853h183l144 144q4 4 10.5 4t9.5-4l144-144h183q6 0 10.5-4.5T852 838V655l144-144q4-4 4-10t-4-10zM505 281q-59 0-110 29.5T314.5 391Q285 442 285 501t29.5 110q29.5 51 80.5 80.5T505 721q47 0 90.5-20t75.5-56q3-4 3-9t-3-9.5q-3-4.5-8.5-5.5t-9.5 2q-27 13-60 13-47 0-84-29t-48-75q-1-5-6-8t-11-2q-6 1-9.5 6t-1.5 11q13 56 58 91.5T593 666h8q-45 25-96.5 25t-95-25.5Q366 640 340 596.5T314 501q0-52 26-95.5t69.5-69.5q43.5-26 95.5-26 49 0 96 26h-8q-57 0-102 35.5T433 463q-1 6 2 10.5t9 6.5q6 2 11-1.5t6-9.5q11-46 48-75t84-29q30 0 60 14 5 2 10 1t8-5q3-4 3-9t-3-9q-32-36-75.5-56T505 281zm209 198q-5-13-19-16l-39-5-17-36q-6-13-20.5-13T597 422l-17 36-39 5q-14 3-19 16t6 24l28 27-6 39q-1 7 1.5 13t7.5 10q5 4 13 4 3 0 9-1l2-1 35-19 35 19q12 6 24-2 5-4 7.5-10t1.5-13l-6-39 28-27q10-12 6-24zm-57 33q-9 7-7 20l5 30-30-16q-3-2-7-2t-7 2l-30 16 5-34q2-9-4-13l-25-24 30-5q11-1 18-12l13-27 13 27q7 11 18 12l30 5-22 21zm101-284H622L510 117q-4-5-10-5t-10 5L378 228H242q-6 0-10.5 4.5T227 243v136L116 491q-4 4-4 10t4 10l111 112v136q0 6 4.5 10.5T242 774h24q6 0 10.5-4.5T281 759q0-6-4.5-10t-10.5-4h-10V616q0-6-4-10L147 501l105-105q4-4 4-11V257h129q6 0 10-4l105-105 105 105q4 4 11 4h128v128q0 7 4 11l105 105-105 105q-4 4-4 10v129H616q-7 0-11 4L500 854 395 749q-4-4-10-4l-50-2q-6 0-10.5 4t-4.5 10q0 6 4 10.5t10 4.5l44 2 112 111q4 4 10.5 4t9.5-4l112-111h136q6 0 10.5-4.5T773 759V623l111-112q5-4 5-10t-5-10L773 379V243q0-6-4.5-10.5T758 228z"/></svg>