<svg viewBox="0 0 1244 1083.753" xmlns="http://www.w3.org/2000/svg"><path d="M141 892h672q22 0 40-16h53q7 0 11.5-4.5T922 860q0-7-4.5-11t-11.5-4h-33q2-10 2-16V704h31q7 0 11.5-4.5T922 688q0-7-4.5-11t-11.5-4h-31V548h31q7 0 11.5-4.5T922 532q0-7-4.5-11t-11.5-4h-31V392h31q7 0 11.5-4.5T922 376q0-7-4.5-11.5T906 360h-31V220h31q7 0 11.5-4.5T922 204q0-7-4.5-11.5T906 188h-43q-13-15-35-15H276q-12-28-49.5-45.5T141 110q-39 0-71.5 11.5t-51 31Q0 172 0 196v610q0 24 18.5 43.5t51 31Q102 892 141 892zM31 806q0-13 14-26t39-21q26-8 57-8t57 8q24 8 38 21t14 26q0 13-14 25.5T197 852q-25 8-56 8t-57-8q-24-8-38.5-20.5T31 806zm813-586v609q0 13-9 22t-22 9H250q14-9 22-23.5t9-30.5V204h547q7 0 11.5 4.5T844 220zm-703-78q31 0 56 8t39 20.5q14 12.5 14 25.5v555q-50-34-109-31-59-3-110 31V196q0-13 14-25.5T84.5 150q25.5-8 56.5-8zm187 156h348q4 28 24.5 49.5T750 375v315q-29 5-49.5 26.5T676 767H328q-6 0-10.5 4.5T313 782q0 6 4.5 11t10.5 5h362q6 0 11-4.5t5-11.5q-1-26 17-44t43-18q6 0 10.5-4.5T781 704V360q0-6-4.5-10.5T766 345q-26-1-43.5-19.5T706 282q0-6-5-10.5t-11-4.5H328q-6 0-10.5 4.5T313 282q0 6 4.5 11t10.5 5zm625-94q0 7 4.5 11.5T969 220h15q7 0 11.5-4.5t4.5-11.5q0-7-4.5-11.5T984 188h-15q-7 0-11.5 4.5T953 204zm31 313h-15q-7 0-11.5 4.5T953 532q0 6 4.5 11t11.5 5h15q7 0 11.5-4.5t4.5-11.5q0-7-4.5-11t-11.5-4zm0-157h-15q-7 0-11.5 4.5T953 376q0 7 4.5 11.5T969 392h15q7 0 11.5-4.5t4.5-11.5q0-7-4.5-11.5T984 360zm0 313h-15q-7 0-11.5 4.5T953 688q0 6 4.5 11t11.5 5h15q7 0 11.5-4.5t4.5-11.5q0-7-4.5-11t-11.5-4zm0 172h-15q-7 0-11.5 4.5T953 860q0 6 4.5 11t11.5 5h15q7 0 11.5-4.5t4.5-11.5q0-7-4.5-11t-11.5-4zM203 642q7 0 11.5-4.5T219 626V298q0-7-4.5-11.5T203 282q-7 0-11 4.5t-4 11.5v328q0 7 4.5 11.5T203 642zm-62-94q6 0 10.5-4.5T156 532V267q0-7-4.5-11.5T141 251q-6 0-11 4.5t-5 11.5v265q0 7 4.5 11.5T141 548zm-63 62q7 0 11.5-4.5T94 595V376q0-7-4.5-11.5T78 360q-7 0-11 4.5T63 376v219q0 6 4.5 10.5T78 610zm559-215h-65l-45-46q-4-5-10.5-5t-11.5 5l-46 46h-65q-7 0-11.5 4.5T378 411v65l-45 45q-4 4-4 10.5t4 11.5l45 46v65q0 6 4.5 11t11.5 5h65l46 45q5 4 11.5 4t10.5-4l45-45h65q7 0 11.5-5t4.5-11v-65l45-46q5-5 5-11.5t-5-10.5l-45-45v-65q0-7-4.5-11.5T637 395zm28 137l-39 39q-4 4-4 12v55h-56q-6 0-11 5l-39 39-40-39q-5-5-11-5h-55v-55q0-7-5-12l-39-39 39-39q5-5 5-11v-56h55q7 0 11-4l40-40 39 40q4 4 11 4h56v56q0 7 4 11l39 39z"/></svg>