<svg viewBox="0 0 1244 1083.753" xmlns="http://www.w3.org/2000/svg"><path d="M990 815H348V662h5q26 0 41-20l140-176h41q94-7 120-45 37 40 91 45 4 1 14 1 32 0 62-14.5t50-40.5l68-18q11-3 16.5-13t2.5-20l-45-172q-2-8-9.5-13.5T928 170q-4 0-6 1l-76 20q-15-5-32-7-36-4-68.5 9.5T691 234q-21-18-48-30-41-19-84.5-19.5T394 185H281q-26 0-59 9-65 17-109 60-72 72-72 203v358H9q-4 0-6.5 2.5T0 824q0 4 2.5 6t6.5 2h981q3 0 5.5-2.5t2.5-5.5q0-3-2.5-6t-5.5-3zM380 631v1q-10 13-27 13-11 0-20-6l-23-17q-11-8-13-22t6-25l217-273q11-14 27-14 6 0 16 4L450 435q-2 3-1.5 6.5t3 5.5q2.5 2 6 2t6.5-4l113-143 13 10q11 8 13 22t-6 25L380 631zm-32-140v-25h20l-20 25zm530-291l17 62q2 6 9 6h2q4-1 5.5-4t.5-7l-17-61 31-9h2q7 0 9 7l45 172q1 4-.5 7t-5.5 4l-63 16-57-187 22-6zm-66 1q11 1 26 5l60 196q-20 25-49.5 37.5T788 449q-51-4-84.5-45T676 313q3-34 22.5-61t49.5-40.5q30-13.5 64-10.5zm-254 1q37 0 77 18 29 13 46 28-18 28-23 63-5 53 26 96-10 22-53 33-31 8-62 8h-21l63-79q12-17 9-37.5T600 298l-22-17q-15-10-31-10-25 0-41 21L382 448h-43q-3 0-5.5 2.5T331 457v55l-41 52h-1q-12 17-9 38t20 34l23 16q4 3 8 5v158h-16v-74q0-4-2-6.5t-6-2.5q-4 0-6.5 2.5T298 741v74H153v-74q0-4-2.5-6.5T144 732q-4 0-6 2.5t-2 6.5v74h-28V585q0-4-2.5-6.5T99 576q-4 0-6 2.5t-2 6.5v230H58V457q0-123 67-190 41-41 102-57 31-8 54-8h277zm-120 39h86q3 0 5.5-2.5t2.5-6.5q0-4-2.5-6t-5.5-2h-86q-3 0-5.5 2t-2.5 6q0 4 2.5 6.5t5.5 2.5zm-169 0h121q4 0 6.5-2.5t2.5-6.5q0-4-2.5-6t-6.5-2H269q-4 0-6.5 2t-2.5 6q0 4 2.5 6.5t6.5 2.5z"/></svg>