<svg viewBox="0 0 1244 1083.753" xmlns="http://www.w3.org/2000/svg"><path d="M458 111h170q27 0 46 19t19 45v99q0 26-19 45t-46 19h-94l63-57q4-4 4.5-9.5t-4-10.5q-4.5-5-10.5-5t-10 4L353 463q-5 4-5 10t4.5 10.5Q357 488 363 488t9-4l130-116h126q30 0 54.5-17.5T717 305q3 5 11 13 16 14 36 22t42 8h59q31 0 57-15.5t41-41q15-25.5 15-56.5t-15-57q-15-26-41-41.5T865 121H705q-13-18-33-28.5T628 82H458q-6 0-10.5 4T443 96q0 6 4.5 10.5T458 111zm491 124q0 30-19.5 53.5T880 317V152q30 5 49.5 28.5T949 235zm-99-84v168h-44q-33 0-57.5-22.5T722 242v-67q0-12-3-24h131zm135 740H281q3-8 3-16 0-13-8-25t-21-17l-82-30v-62h27q6 0 10-4t5-10l4-71 26-10q6-1 9-8l30-73 38-35q4-4 4.5-9.5t-4-10.5q-4.5-5-10.5-5t-10 4l-31 27-38-37 285-293q4-5 3.5-11t-4.5-10q-4-4-10-4t-10 5L348 338h-38V111h79q7 0 11-4t4-11q0-7-4-10.5T389 82H194q-47 0-86.5 23T45 167.5Q22 207 22 254v218q0 6 4 10.5t10 4.5q6 0 10.5-4.5T51 472V254q0-39 19-72t52-52q33-19 72-19h86v227h-60q-6 0-10 4t-5 10l-19 359H51V540q0-6-4.5-10T36 526q-6 0-10 4t-4 10v186q0 6 4 10.5t10 4.5h17v125q0 9 6 25H15q-6 0-10.5 4T0 905.5Q0 912 4.5 916t10.5 4h970q6 0 10.5-4t4.5-10q0-6-4.5-10.5T985 891zM254 560l-25 61-9 3 5-92 29 28zm66-192l-91 94 5-94h86zM107 891q-10 0-17-7.5T83 866V741h61v72q0 5 3 9t7 5l90 34q5 2 8 6t3 8q0 7-4.5 11.5T239 891H107z"/></svg>