<svg viewBox="0 0 1244 1083.753" xmlns="http://www.w3.org/2000/svg"><path d="M936 695l-40 5-9-77q-1-10-8-22 30-2 50.5-24t20.5-52q0-30-21-51.5T878 451q-30-1-52.5 18.5T800 519l-50-50q-16-17-40-17t-41 17l-44 43q-11 11-15 26t0 31q9 31 41 41 15 4 30-.5t26-15.5l2-3 20 20-262 263q-16 17-16 40.5t16.5 40q16.5 16.5 40 16.5t40.5-16l89-89 20 20-17 17q-17 17-16.5 40.5t17.5 40q17 16.5 40.5 16.5t40.5-16l57-58q17-17 17-41t-17-40l-60-61 63-63 6 49q3 24 22.5 38.5T852 820l97-11q24-3 38.5-21.5T999 745q-3-24-21.5-38T936 695zm-90-199q12-12 29-12t29.5 12.5Q917 509 917 526t-12.5 29.5Q892 568 875 568t-29.5-12Q833 544 833 526.5t13-30.5zm100 280l-98 11q-10 2-18-4.5t-9-16.5l-7-63q-2-15-18-22-8-2-15.5-.5T768 688l-85 84q-5 7-5 13t5 11l73 72q7 7 7 17t-7 17l-58 58q-7 7-17 7t-17-7q-7-7-7-17t7-17l21-22q8-8 8-19t-8-19l-29-29q-8-8-18-8-13 0-19 8l-94 94q-5 5-12.5 6.5T498 936q-15-7-15-22 0-10 7-17l268-267q8-8 8-19t-8-19l-29-29q-8-8-19-8t-19 8l-8 7q-7 7-16.5 7t-17-7q-7.5-7-7.5-17.5t7-16.5l44-43q7-8 17-8t17 8l120 119q5 5 7 15l10 88q2 9 8 14 8 6 15 5l53-6q10-2 17.5 4.5T967 749v3q0 9-6 16t-15 8zM533 185q-13-13-30-16.5t-33.5 3.5q-16.5 7-26.5 21.5T433 226v196l-12 12H292q-24 0-41.5 17.5T233 493q0 24 17.5 41t41.5 17h129q16 20 41 28.5t51 2.5q26-6 44-24.5t24.5-43.5q6.5-25-2.5-50t-29-42V226q0-24-17-41zm-66 41q0-11 7.5-18t18-7q10.5 0 17.5 7t7 18v178q-26-6-50 0V226zM292 518q-10 0-17.5-7.5t-7.5-18q0-10.5 7.5-17.5t17.5-7h112q-8 24 0 50H292zm200 33q-25 0-42-17t-17-41q0-24 17-41.5t42-17.5q25 0 41.5 17t16.5 42q0 25-17 41.5T492 551zm125 100q0-7-5-12t-12-5H400q-7 0-12 5t-5 12q0 7 5 12t12 5h200q7 0 12-5t5-12zm-84 83q0-7-4.5-11.5T517 718H333q-7 0-11.5 4.5T317 734q0 7 4.5 12t11.5 5h184q7 0 11.5-5t4.5-12zm-100 67h-83q-7 0-12 5t-5 12q0 7 5 11.5t12 4.5h83q7 0 12-4.5t5-11.5q0-7-5-12t-12-5zM265 916q-3 0-4-1l-21-2-141-23q-9-2-16.5-8.5t-10-15.5q-2.5-9 .5-18.5T83 832l30-26q-65-77-93.5-173T3 437q12-110 70-203 57-92 147-151 92-61 201-77t214 16q103 32 183 103 83 73 126 175 8 20 1.5 40.5T920 371q-10 7-23 8.5t-25-2.5q-25-8-36-33-44-101-134-162t-199-64.5Q394 114 300 170T157 323q-49 97-38.5 206T197 724l26-27q7-7 16.5-9t18.5 1q19 8 22 28l18 162q2 14-8 25-12 12-25 12zM491 34q-12 0-37 2h-3q-85 7-161.5 45t-134 100Q98 243 66 323T33.5 488q-.5 85 29 164.5T149 796q4 5 4 12t-6 12l-42 37 140 23 20 2-18-162-40 40q-5 5-12 5t-12-6q-56-64-81.5-145T86 449q10-91 57-168.5T265 153q75-50 166-64t177.5 12q86.5 26 154 86T866 331q5 11 16 15t21-3q8-5 11-13.5t-1-16.5q-36-84-100-147T665.5 68.5Q582 34 491 34z"/></svg>