<svg viewBox="0 0 1244 1083.753" xmlns="http://www.w3.org/2000/svg"><path d="M821 409l-84-84 7-7q15 4 33-3t34-23q24-24 36.5-55t13-65q.5-34-12.5-65.5T811 51q-32-33-76-44.5t-88 0Q603 18 570 51q-24 24-37 55t-13 65q0 34 13 65.5t37 55.5l77 76-93 93-148-148q-23-23-52.5-35T292 266q-32 0-61.5 12.5T179 313q-30 30-41 70t-1.5 80.5Q146 504 175 535q3 3 4 5l148 148-51 51q-4 5-4 11.5t4 11.5q4 5 11.5 5t11.5-5l52-51 116 116q19 19 19 47t-19 47q-14 12-14 32t14 34q14 14 33.5 14t33.5-14q30-30 41-71.5t0-83Q564 791 534 761L417 644l93-93 84 84h1q1 2 4 5l3 2q0 1 1 1l1 1q4 4 7 5v1q43 32 97 32 32 0 61-12t52-35q30-30 41-71.5t0-83Q851 439 821 409zM721 266q-3 16 0 28l-7 8-77-77q-22-23-22-54.5t22-53.5q22-22 53.5-22t54 22q22.5 22 22.5 53.5T744 225q-16 16-23 41zm-128 2q-19-19-29.5-44.5T553 171q0-27 10.5-52T593 74q27-26 62.5-35t70.5 0q35 9 62 35 19 19 29.5 44.5t10.5 53q0 27.5-10.5 52.5T788 268q-12 12-23 16-9 3-12 2-3-4 1-16t14-22q21-21 28-49t0-56q-7-28-28-49t-49-28q-28-7-56 0t-49 28q-21 21-28.5 49t0 56q7.5 28 28.5 49l76 77-20 20-77-77zm-82 516q24 25 32.5 57.5t0 65Q535 939 511 964q-4 4-10.5 4t-10.5-5q-4-5-4-9t4-10q29-29 29-69.5T491 804L203 516q-2-1-4-3-26-29-25-67.5t29-65.5l6-6q-18 29-14.5 63t27.5 59h1l288 288zM394 621L246 473q-19-20-19-47t18.5-46q18.5-19 47-19t46.5 19l148 148-93 93zm116-116L364 359q0-1-2-3-18-18-42-28t-49-10q-39 0-72 22l4-4q39-37 89-37 25 0 48.5 10t41.5 28l149 148-21 20zm244 107q-25 25-60 28t-64-17q-3-3-5-4l-3-3-3-3-85-85 20-20 84 84q25 25 59 28.5t63-14.5l-6 6zm0-43q-19 19-46 19t-47-19l-84-84 93-93 84 84q20 19 20 46t-20 47zm43 43q-2 2-3 4 21-32 21-72 0-54-38-92l-84-84 21-20 83 84q25 25 33.5 57.5t0 65.5q-8.5 33-33.5 57z"/></svg>