<svg viewBox="0 0 1244 1083.753" xmlns="http://www.w3.org/2000/svg"><path d="M650 570q-21 0-34 13L459 740h-75l43-39q14-13 15-34t-12.5-35.5Q416 617 397 615q-21-2-35 11l-8 6q-96 70-140 91-96 49-133 138-25 58-75 126-2 3-1.5 6.5T7 999q2 2 6 2t7-3q52-71 77-131 37-85 125-128 34-17 94-59 50-35 56-41h1q10-8 22.5-6.5t21 11q8.5 9.5 8.5 23t-9 21.5l-61 54q-4 5-1.5 10t7.5 5h101q5 0 6-2l160-160q10-8 22-8 15 2 22 10h1l-89 106q-3 2-2.5 6t3 6q2.5 2 6 2t6.5-3l84-100q2 12-8 28L483 874q-11 9-22 8H305q-11 0-24 3-24 6-42 22-30 29-32 85-1 4 1.5 6.5t6.5 2.5q4 0 6.5-2.5t2.5-5.5q1-49 27-73 14-13 34-18 10-2 20-2h156q20 0 34-14 0-1 1-1l190-232q1 0 1-1 12-18 11-36t-14-31q-6-7-15-11t-19-4zM226 763q-2-3-5.5-4t-6.5 0q-69 34-98 102-1 3 0 6t4 5l3 1q7 0 8-6 27-61 91-92 3-2 4.5-5.5t-.5-6.5zm210-202q0 29 21 50t50 21q29 0 50-21t21-50q0-29-21-50t-50-21q-29 0-50 21t-21 50zm123-12h-34q-4 0-6.5 2.5t-2.5 6q0 3.5 2.5 6t6.5 2.5h36q-2 20-17.5 34.5T507 615q-14 0-26-7t-19-19h16q8 0 8-8 0-4-2-6.5t-6-2.5h-23q-1-3-1-11 0-22 15.5-37.5T507 508q19 0 33.5 11.5T559 549zm-64-208q-25 0-43 18t-18 43q0 25 18 43t43.5 18q25.5 0 43-18t17.5-43.5q0-25.5-17.5-43T495 341zm0 105q-15 0-27-9h9q4 0 6.5-2.5t2.5-5.5q0-3-2.5-6t-6.5-3h-22q-4-7-4-18 0-4 2-12h49q3 0 5.5-2.5t2.5-6.5q0-4-2.5-6.5T502 372h-39q14-14 32-14t31 13q13 13 13 31.5t-13 31Q513 446 495 446zm-50 421q3 0 5.5-2.5t2.5-6.5q0-4-2.5-6.5T445 849h-97q-4 0-6.5 2.5T339 858q0 4 2.5 6.5t6.5 2.5h97zm-150 0q4 0 6.5-2.5t2.5-6.5q0-4-2.5-6.5T295 849h-59q-4 0-6.5 2.5T227 858q0 4 2.5 6.5t6.5 2.5h59zM992 3q-2-2-6-1.5T980 4q-49 68-76 131-37 84-126 128-42 21-137 89l-14 11q-9 8-22 7t-21.5-11q-8.5-10-8.5-23.5t9-21.5l61-55q4-4 2-9-1-2-3.5-4t-4.5-2H538q-4 0-6 3L372 406q-8 9-21.5 8.5T328 405l89-106q2-2 1.5-6t-2.5-6q-6-4-13 1l-84 100q-1-13 8-28l191-232q8-8 21-8h156q11 0 24-3 24-6 42-22 31-28 33-85 0-4-2.5-6.5T785 1q-4 0-6.5 2.5T776 9q0 48-27 73-14 13-34 18-10 2-20 2H539q-20 0-34 14v1L314 349h-1v1q-12 18-11 36t14 31q14 15 35 15 18 0 33-13l157-157h76l-44 39q-14 13-15 34t12.5 35.5Q584 385 604 387t34-11l8-6q96-70 140-92 95-47 133-137 29-64 75-126 2-3 1.5-7T992 3zM556 135q-4 0-6.5 2.5T547 144q0 4 2.5 6.5t6.5 2.5h97q3 0 5.5-2.5t2.5-6.5q0-4-2.5-6.5T653 135h-97zm149 0q-4 0-6.5 2.5T696 144q0 4 2.5 6.5t6.5 2.5h59q4 0 6.5-2.5t2.5-6.5q0-4-2.5-6.5T764 135h-59z"/></svg>