<svg viewBox="0 0 1244 1083.753" xmlns="http://www.w3.org/2000/svg"><path d="M982 651q-21-1-41 5t-37 19q-22 18-53 16 25-23 47-58 16-25 28-53 8-19 10-26 3-9-2.5-17t-15.5-8H798q19-82-9-165-25-75-84-145-53-63-125-112l9-56q1-7-2.5-13t-10-8q-6.5-2-13 0T553 37Q416 240 251 478l-35 51h-30q-23 0-37 17l-35 44q-12 15-12 33v57q-4-2-8-5-31-24-72-24h-3q-7 0-13 5.5T0 670v284q0 8 6 13.5t14 5.5h392q8 0 13.5-5.5T431 954q0-8-5.5-14t-13.5-6H39V692q17 3 31 14 32 24 72 24t71-24q21-16 48-16t47 16q32 24 72 24t71-24q21-16 48-16t48 16q31 24 71 24t71-24q21-16 48-16t48 16q31 24 71.5 24t71.5-24q15-12 33-15v243H583q-8 0-13.5 6t-5.5 14q0 8 5.5 13.5T583 973h398q8 0 13.5-5.5t5.5-13.5V670q0-8-5.5-13.5T982 651zM608 178q86 73 127 156 49 99 23 195H606q20-46 29-105 19-124-27-246zm-11 239q-10 60-33 112h-50l54-347q46 114 29 235zm-60-286l-63 398H264l59-86q125-181 214-312zm200 520q-41 0-71 24-21 16-48 16t-48-16q-31-24-71-24t-72 24q-20 16-47 16t-48-16q-31-24-71-24t-72 24q-22 16-48 16v-68q0-5 3-8l36-44q2-3 6-3h703q-13 29-30 54-23 34-50 53-34-24-72-24zm-48 189q7-5 8-13t-4-14.5q-5-6.5-13-7.5t-14 4q-21 16-48 16t-48-16q-31-24-71-24t-72 24q-20 16-47 16t-48-16q-6-5-14-4t-13 7.5q-5 6.5-4 14.5t7 13q32 24 72 24t71-24q21-16 48-16t48 16q31 24 71 24t71-24zm-179 97q-5-3-12-3t-11.5 4q-4.5 4-6 10.5t.5 12q2 5.5 7.5 9.5t11.5 3.5q6-.5 11-4t6.5-9.5q1.5-6-.5-12.5t-7-10.5z"/></svg>