<svg viewBox="0 0 1244 1083.753" xmlns="http://www.w3.org/2000/svg"><path d="M263 391q-6 0-10 4t-4 10v451q0 6 4 10.5t10 4.5h474q6 0 10-4.5t4-10.5V146q0-6-4-10.5t-10-4.5H263q-6 0-10 4.5t-4 10.5v191q0 6 4 10.5t10 4.5q6 0 10.5-4.5T278 337V160h444v681H278V405q0-6-4.5-10t-10.5-4zm415 125q6 0 10-4.5t4-10.5v-66q0-50-23-95.5T606 264l-97-71q-8-7-18 0l-97 71q-40 30-63 75.5T308 435v362q0 6 4 10.5t10 4.5h356q6 0 10-4.5t4-10.5V569q0-6-4-10t-10-4q-6 0-10.5 4t-4.5 10v213H337V435q0-44 20-83t55-64l88-65 88 65q35 25 55 64t20 83v66q0 6 4.5 10.5T678 516zM796 1q-6 0-10.5 4.5T781 16v56h-44V16q0-6-4.5-10.5T722 1q-6 0-10.5 4.5T707 16v56h-44V16q0-6-4.5-10.5T648 1q-6 0-10.5 4.5T633 16v56h-44V16q0-6-4.5-10.5T574 1q-6 0-10.5 4.5T559 16v56h-44V16q0-6-4.5-10.5T500 1q-6 0-10.5 4.5T485 16v56h-44V16q0-6-4.5-10.5T426 1q-6 0-10.5 4.5T411 16v56h-44V16q0-6-4.5-10.5T352 1q-6 0-10.5 4.5T337 16v56h-44V16q0-6-4.5-10.5T278 1q-6 0-10.5 4.5T263 16v56h-44V16q0-6-4.5-10.5T204 1q-6 0-10.5 4.5T189 16v970q0 6 4.5 10.5t10.5 4.5q6 0 10.5-4.5T219 986v-56h44v56q0 6 4.5 10.5t10.5 4.5q6 0 10.5-4.5T293 986v-56h44v56q0 6 4.5 10.5t10.5 4.5q6 0 10.5-4.5T367 986v-56h44v56q0 6 4.5 10.5t10.5 4.5q6 0 10.5-4.5T441 986v-56h44v56q0 6 4.5 10.5t10.5 4.5q6 0 10.5-4.5T515 986v-56h44v56q0 6 4.5 10.5t10.5 4.5q6 0 10.5-4.5T589 986v-56h44v56q0 6 4.5 10.5t10.5 4.5q6 0 10.5-4.5T663 986v-56h44v56q0 6 4.5 10.5t10.5 4.5q6 0 10.5-4.5T737 986v-56h44v56q0 6 4.5 10.5t10.5 4.5q6 0 10.5-4.5T811 986V410q0-6-4.5-10.5T796 395q-6 0-10.5 4.5T781 410v491H219V101h562v240q0 6 4.5 10.5T796 356q6 0 10.5-4.5T811 341V16q0-6-4.5-10.5T796 1z"/></svg>