<svg viewBox="0 0 1244 1083.753" xmlns="http://www.w3.org/2000/svg"><path d="M862 517q6 0 6-6t-6-6q-6 0-6 6 0 2 2 4t4 2zm21 19q2 0 4-2t2-4q0-6-6-6t-6 6q0 6 6 6zm-21 20q6 0 6-6t-6-6q-2 0-4 2t-2 4q0 2 2 4t4 2zm21 19q2 0 4-2t2-4q0-2-2-4t-4-2q-2 0-4 2t-2 4q0 6 6 6zm-21 20q6 0 6-6t-6-6q-2 0-4 2t-2 4q0 6 6 6zm-19-59q3 0 5-2t2-4q0-6-6.5-6t-6.5 6q0 2 2 4t4 2zm0 39q3 0 5-2t2-4q0-2-2-4t-5-2q-6 0-6 6 0 2 2 4t4 2zm-20 8q-2 0-4 2t-2 4q0 6 6 6t6-6q0-6-6-6zm20 31q3 0 5-2t2-4q0-2-2-4t-5-2q-6 0-6 6 0 2 2 4t4 2zm-20 103q6 0 6-6t-6-6q-6 0-6 6 0 2 2 4t4 2zm-39 0q2 0 4-2t2-4q0-2-2-4t-4-2q-2 0-4 2t-2 4q0 2 2 4t4 2zm20 19q6 0 6-6t-6-6q-6 0-6 6 0 2 2 4t4 2zm-20 20q6 0 6-6t-6-6q-2 0-4 2t-2 4q0 6 6 6zm-19-20q2 0 4-2t2-4q0-2-2-4t-4-2q-2 0-4 2t-2 4q0 2 2 4t4 2zm-20 20q6 0 6-6t-6-6q-6 0-6 6t6 6zm20 19q6 0 6-6 0-2-2-4t-4-2q-2 0-4 2t-2 4q0 6 6 6zm-20 21q2 0 4-2t2-4q0-2-2-4.5t-4-2.5q-6 0-6 6.5t6 6.5zm-19-21q6 0 6-6 0-2-2-4t-4-2q-2 0-4 2t-2 4q0 6 6 6zm-20 8q-6 0-6 6.5t6 6.5q6 0 6-6 0-2-2-4.5t-4-2.5zm20 31q6 0 6-6t-6-6q-2 0-4 2t-2 4q0 6 6 6zm-20 9q-6 0-6 6t6 6q6 0 6-6 0-2-2-4t-4-2zm-40-27q6 0 6-6 0-3-1.5-5t-4.5-2q-6 0-6 7 0 2 2 4t4 2zm21 6q-6 0-6 6t6 6q6 0 6-6 0-2-2-4t-4-2zm-21 33q6 0 6-6t-6-6q-6 0-6 6t6 6zm21 6q-6 0-6 6.5t6 6.5q6 0 6-6 0-3-2-5t-4-2zm-21 33q6 0 6-6t-6-6q-6 0-6 6 0 2 2 4t4 2zm-18-60q6 0 6-6t-6-6q-2 0-4.5 2t-2.5 4q0 6 7 6zm0 40q2 0 4-2t2-4q0-2-2-4.5t-4-2.5q-2 0-4.5 2t-2.5 5q0 6 7 6zm-40 0q6 0 6-6 0-3-1.5-5t-4.5-2q-6 0-6 7 0 2 2 4t4 2zm-20 20q2 0 4-2t2-4q0-2-2-4t-4-2q-2 0-4 2t-2 4q0 2 2 4t4 2zm20 19q6 0 6-6t-6-6q-6 0-6 6 0 2 2 4t4 2zm-20 20q6 0 6-6t-6-6q-2 0-4 2t-2 4q0 2 2 4t4 2zm-19-59q6 0 6-6 0-3-1.5-5t-4.5-2q-6 0-6 6.5t6 6.5zm-20 20q2 0 4-2t2-4q0-2-2-4t-4-2q-2 0-4 2t-2 4q0 6 6 6zm20 19q6 0 6-6t-6-6q-6 0-6 6 0 2 2 4t4 2zm-20 20q6 0 6-6t-6-6q-2 0-4 2t-2 4q0 6 6 6zm20 19q6 0 6-6t-6-6q-6 0-6 6 0 2 2 4t4 2zm-20 20q6 0 6-6 0-2-2-4t-4-2q-2 0-4 2t-2 4q0 6 6 6zm-19-59q2 0 4-2t2-4q0-6-6-6t-6 6q0 2 2 4t4 2zm-20 20q6 0 6-6t-6-6q-2 0-4 2t-2 4q0 6 6 6zm20 19q2 0 4-2t2-4q0-2-2-4t-4-2q-2 0-4 2t-2 4q0 2 2 4t4 2zm-20 20q6 0 6-6 0-2-2-4t-4-2q-2 0-4 2t-2 4q0 6 6 6zm-40-39q7 0 7-6t-6.5-6q-6.5 0-6.5 6 0 2 2 4t4 2zm21 19q2 0 4-2t2-4q0-2-2-4t-4-2q-2 0-4 2t-2 4q0 6 6 6zm-21 20q7 0 7-6 0-2-2-4t-5-2q-6 0-6 6t6 6zm-39-39q6 0 6-6t-6-6q-2 0-4 2t-2 4q0 2 2 4t4 2zm21 19q2 0 4-2t2-4q0-2-2-4t-4-2q-2 0-4.5 2t-2.5 4q0 2 2 4t5 2zm-21 20q6 0 6-6t-6-6q-2 0-4 2t-2 4q0 6 6 6zm-39-39q6 0 6-6t-6-6q-2 0-4 2t-2 4q0 2 2 4t4 2zm20 19q6 0 6-6t-6-6q-2 0-4 2t-2 4q0 2 2 4t4 2zm-20 20q6 0 6-6 0-2-2-4t-4-2q-2 0-4 2t-2 4q0 6 6 6zm-39-39q6 0 6-6t-6-6q-2 0-4 2t-2 4q0 2 2 4t4 2zm20 19q6 0 6-6t-6-6q-6 0-6 6 0 2 2 4t4 2zm-20 20q6 0 6-6 0-2-2-4t-4-2q-2 0-4 2t-2 4q0 6 6 6zm-19-20q2 0 4-2t2-4q0-2-2-4t-4-2q-2 0-4 2t-2 4q0 2 2 4t4 2zm489-376q6 0 6-6t-6-6q-6 0-6 6 0 2 2 4t4 2zm-19 58q6 0 6-6t-6-6q-6 0-6 6 0 2 2 4t4 2zm-59 103q2 0 4-2t2-4q0-2-2-4t-4-2q-6 0-6 6t6 6zm-19 19q2 0 4-2t2-4q0-2-2-4t-4-2q-2 0-4 2t-2 4q0 2 2 4t4 2zm-21 20q7 0 7-6t-6.5-6q-6.5 0-6.5 6t6 6zm-18 19q6 0 6-6t-6-6q-2 0-4 2t-2 4q0 6 6 6zM980 37q-16-11-36-8t-32 19L742 287q-27-3-52 8t-41 33l-35 49q0-10-3-17v-1q-9-35-24-55-26-35-80-45-64-12-113 19-18 13-28 27-17-14-41-18-35-7-78 10-22 9-39 24-21-9-46-9-34 0-63.5 17T52 375q-17 29-17 63 0 23 10 48H8q-3 0-5.5 2.5T0 494q0 72 21.5 139.5t62.5 125q41 57.5 96.5 99.5T302 924q6 1 9.5 6t3.5 12q2 14 12 23t23 9h212q14 0 24-9.5t11-22.5q2-15 14-18 65-24 120.5-66t97-100q41.5-58 63-125T913 494q0-3-2.5-5.5T905 486h-56q11-58-20-83 5-31-9-60l171-239q12-16 9-35.5T980 37zM252 312q46-18 80-7 18 5 29 17 1 1 3 2t3 0q4 0 7-4l7-10q10-11 23-19 18-12 40-17 28-6 60 0 48 8 71 40 14 18 21 50 2 6 4 22-18-18-41-28t-49-10q-43 0-78 27-27-39-69-40-59-1-93 39-17-29-46-46 15-11 28-16zm147 76q43 0 74 28.5t36 69.5H289q5-41 36-69.5t74-28.5zm-126 98H69q2-72 45-96 21-12 42-12 26 0 50 18 15 11 28 26l10 13q3 4 8 3.5t7-5.5q0-7 7-24 11-24 31-39 27-20 66-19 26 1 47 22l-11-1q-49 0-85 33t-41 81zm175-103q29-19 62-19 24 0 46 10.5t37 28.5q-21 10-40 35-15 21-26 48h-2q-4-35-24.5-62.5T448 383zm-286-55q32 0 58 16.5t40 43.5q-9 15-12 26-14-18-32-31-27-19-55-20.5T106 376q-46 27-51 91-4-12-4-29 0-30 15-55t40.5-40q25.5-15 55.5-15zm643 435h-1.5q-1.5 0-3.5 2t-2 4q0 2 1 2-4 5-12 13l-3-1q-2 0-4 2t-2 4.5q0 2.5 1 3.5-3 4-10 11-2-2-4-2t-4 2q-2 2-2 4t2 4q-8 8-13 12-1-1-3-1-6 0-6 6v3q-8 6-12 10l-1-1q-2 0-4 2t-2 4q-29 22-67 41 1 0 1-1 0-6-6-6-3 0-5 1.5t-2 4.5q0 3 4 5-26 12-40 17-10 4-16 12.5t-7 19.5q-1 7-6.5 12t-13.5 5H350q-8 0-13-5t-6-12q-2-18-16-28 5-2 5-5t-2-5q-2-2-4-2t-4 2q-2 2-2 4v2h-1q-77-28-138.5-82T68 702h777q-21 37-40 61zm92-261q-2 56-14 100-6 0-6 5t3 7q0 2-1 3H33q-17-63-17-115h881zm-64-16H544q33-74 81-76 39-1 63 19 12 10 18 24v1q1 4 6.5 5t7.5-3l1-2q24-39 53-48 22-5 39.5 5.5T835 443q4 18-2 43zM978 95L805 338q-1 1-1.5 3.5t.5 4.5q13 24 10 49-22-10-45-4-29 9-55 45-5-8-13-15-27-27-76-26h-5l42-58q14-20 36-29t46-5q5 2 8-3L925 57q8-11 21.5-13t24.5 6q11 8 13 21.5T978 95z"/></svg>