<svg viewBox="0 0 1244 1083.753" xmlns="http://www.w3.org/2000/svg"><path d="M141 416q6 4 12.5 2t10.5-8l44-77q9 3 17 0l44 77q4 6 10.5 7.5t12-2q5.5-3.5 7.5-10t-1-12.5l-40-69 161-49q17 17 31 24v518h-55q-41 0-76 21t-55 57l-32 56q-8 18 1 33 5 8 12.5 12.5t16.5 4.5h510q8 0 15.5-4.5t12-12q4.5-7.5 5-16.5t-3.5-17l-32-56q-20-36-55-57t-76-21h-55V299q26-15 43.5-39.5T648 205l109-34-33 59q-5 8 0 16t14.5 8q9.5 0 14.5-8l51-89 22-7 91 159q3 9 14 9 8 1 14-7.5t1-16.5l-92-161q11-13 12.5-29.5t-8-30.5q-9.5-14-25-19.5T802 53l-177 54q-5-8-19-22l16-38q3-8 2-16t-5-15q-9-15-28-15H442q-19 0-28 15-4 7-5 15t2 16l17 38q-21 18-32.5 43T383 181l-181 55q-12 4-21 13t-12 21q-3 12-.5 24.5T179 316l-44 78q-4 5-2 12t8 10zm599 495l32 57H262l31-57q16-28 43.5-44t58.5-16h243q32 0 59.5 16t42.5 44zm-257-93V313q34 9 67 0v505h-67zM812 85q7-2 12 .5t9 10.5q1 7-2 13t-9 8l-173 53q-2-19-8-33l171-52zM591 34l-74 175-75-175h149zm-149 84l44 104q4 9 12.5 14.5T517 242q10 0 18-5.5t12-14.5l45-104q12 13 18.5 30.5T617 184q0 34-20 60.5t-52 36q-32 9.5-63.5-2.5T432 238q-18-28-15-61.5t25-58.5zM202 277q3-6 10-9l175-53q3 16 12 31-169 52-175 53l-3 1q-6 3-13-2-5-3-7-9.5t1-11.5zM50 681v20q0 28 19.5 47.5T117 768h200q28 0 47-19.5t19-47.5v-20q15-5 24-18t10-29v-16q0-16-9.5-29T383 571v-3q0-32-15.5-59t-42-42.5Q299 451 267 451H167q-32 0-59 15.5T65.5 509Q50 536 50 568v3q-15 5-24 18t-9 29v16q0 16 9 29t24 18zm33 20v-17h77l50 50h-93q-14 0-24-9.5T83 701zm124-17h86l-43 43-43-43zm143 17q0 13-9.5 23T317 734h-27l50-50h10v17zM167 484h100q34 0 58.5 24.5T350 568H83q0-35 25-59.5t59-24.5zM50 618q0-8 5-12.5t12-4.5h300q7 0 11.5 5t4.5 12v16q0 7-4.5 12t-11.5 5H67q-7 0-12-5t-5-12v-16zm787-255q2-16 12-28.5t25-19.5q7-2 9.5-8t.5-13q-2-7-8-10t-13-1q-23 9-38 29-18-17-43-23-46-5-84 6-7 1-11.5 5.5T680 312q-2 7 .5 13.5T688 337l21 17q-26 12-40 38-16 31-18.5 65.5T658 526q16 55 51.5 90t75.5 35q18 0 32-7 5 2 11 4 30 7 59.5-6.5t53-44Q964 567 975 526q11-34 8.5-68.5T965 392q-9-17-24-28.5T907.5 348q-18.5-4-37 0T837 363zm-63-41q16 4 26 12 8 7 7 10.5t-11 6.5q-13 3-28-1-24-9-44-26 23-5 50-2zm162 86q12 26 14 54t-7 55q-9 32-26.5 56t-39 36q-21.5 12-41.5 7-6-1-11-5-8-5-17 0-5 4-11 5-20 5-41.5-7t-39-36.5Q699 548 690 517q-8-27-6.5-55.5t15-52.5q13.5-24 35-29t44.5 11q11 6 22 9v14q0 7 5 12t12 5q7 0 11.5-5t4.5-12v-14q14-3 22-9 24-16 45.5-11t35.5 28z"/></svg>