<svg viewBox="0 0 1244 1083.753" xmlns="http://www.w3.org/2000/svg"><path d="M58 855q5 41 28 74.5t59 52.5q36 19 77 19h483q41 0 77-19t59.5-52.5Q865 896 870 855l55-460q9-75-13.5-147T839 119.5Q789 63 720.5 32T576 1H352q-62 0-119.5 20.5T129 81q-5 4-5.5 9.5T127 101q4 5 10 5.5t10-3.5q44-35 96-54t109-19h224q69 0 132 28.5T817 139q46 52 66.5 118T896 391l-55 461q-7 51-45.5 85.5T705 972H222q-34 0-63.5-16T110 912.5Q91 885 87 852L32 391q-8-68 11.5-132T107 143q4-5 3.5-11t-5-10q-4.5-4-10.5-3.5T85 124q-48 56-69 124-22 70-13 147l55 460zm0 0zm722-155q-1 6 3 10.5t10 5.5q6 1 10.5-3t5.5-10l26-210q2-18-10.5-32T794 447H134q-18 0-30.5 14T93 493l43 353q4 33 28.5 55t57.5 22h483q34 0 58.5-22t28.5-55l10-85q1-6-2.5-10.5t-10-5.5q-6.5-1-11 3t-5.5 10l-10 84q-3 23-19.5 37.5T705 894H222q-22 0-38.5-15T165 842l-43-352q-1-5 3-9t9-4h660q5 0 8.5 4t3.5 9l-26 210zm0 0zm-488-51v28q0 6 4.5 10.5T307 692q6 0 10-4.5t4-10.5v-28q0-7-4-11t-10-4q-6 0-10.5 4t-4.5 11zm0 0zm314 0v28q0 6 4.5 10.5T621 692q6 0 10.5-4.5T636 677v-28q0-7-4.5-11t-10.5-4q-6 0-10.5 4t-4.5 11zm0 0zm-114 16q-11 13-28 13t-28-13q-4-4-10-4.5t-10.5 3.5q-4.5 4-5 10t3.5 11q9 10 22.5 16t27.5 6q30 0 50-22 4-4 3.5-10.5T512 664q-5-4-10.5-3.5T492 665zm0 0zm357-318q0-47-17-90v-1q-33-79-101-128-70-49-155-49H352q-56 0-107.5 22.5T154 164q-39 40-58 92v1q-16 42-18 90 0 21 15 36t36 15h670q21 0 36-15t14-36zm-407 22l15-129q2-6 7.5-6t6.5 6l15 129h-44zm372-7q-7 7-15 7H516l-16-132q-1-14-11.5-23.5T464 204q-14 0-24 9.5T428 237l-16 132H129q-9 0-15.5-6.5T108 348q0-30 10-67l59 24q6 2 11.5-.5t7.5-7.5q2-5 0-11t-8-8l-60-24q18-37 41-63 8-10 26-26l37 44q4 5 10 5.5t11-3.5q5-4 5-10.5t-4-10.5l-35-42q45-29 98-37l18 56q1 5 7 8t11.5 1.5q5.5-1.5 8.5-7.5t1-11l-16-50h102v54q0 6 4.5 10.5T464 177q6 0 10.5-4.5T479 162v-54h102l-16 50q-2 5 1 11t8.5 7.5Q580 178 586 175t7-8l18-56q51 7 98 37l-36 42q-4 4-3.5 10.5t5 10.5q4.5 4 11 3.5T696 209l36-44q17 14 27 26 25 27 40 63l-59 24q-6 2-8 8t0 11q2 5 7.5 7.5t11.5.5l59-24q10 37 10 67 0 9-6 14zm0 0z"/></svg>