<svg viewBox="0 0 1244 1083.753" xmlns="http://www.w3.org/2000/svg"><path d="M944 107q-2 0-4 2t-2 4q0 2 2 4t4 2q2 0 4-2t2-4q0-6-6-6zm0 39q-2 0-4 2t-2 4q0 2 2 4t4 2q2 0 4-2t2-4q0-6-6-6zm20 19q-6 0-6 6t6 6q2 0 4-2t2-4q0-6-6-6zm-20 20q-6 0-6 6t6 6q2 0 4-2t2-4q0-6-6-6zm20 18q-2 0-4 2t-2 4.5q0 2.5 2 4.5t4 2q2 0 4-2t2-4q0-7-6-7zm-20 21q-6 0-6 6t6 6q2 0 4-2t2-4q0-6-6-6zm20 18q-2 0-4 2t-2 4q0 2 2 4t4 2q6 0 6-6t-6-6zm-20 21q-6 0-6 6t6 6q2 0 4-2t2-4q0-6-6-6zm0 50q6 0 6-6t-6-6q-6 0-6 6 0 2 2 4t4 2zm20 19q6 0 6-6t-6-6q-6 0-6 6 0 2 2 4t4 2zm-20 20q6 0 6-6t-6-6q-6 0-6 6 0 2 2 4t4 2zm20 19q6 0 6-6t-6-6q-6 0-6 6 0 2 2 4t4 2zm-20 20q6 0 6-6t-6-6q-6 0-6 6t6 6zm20 19q6 0 6-6t-6-6q-6 0-6 6 0 2 2 4t4 2zm-20 20q6 0 6-6t-6-6q-6 0-6 6 0 2 2 4t4 2zm0 39q6 0 6-6t-6-6q-6 0-6 6 0 2 2 4t4 2zm0 39q6 0 6-6t-6-6q-6 0-6 6t6 6zm0 39q6 0 6-6t-6-6q-6 0-6 6t6 6zm0 39q6 0 6-6t-6-6q-6 0-6 6t6 6zm0 38q6 0 6-6t-6-6q-6 0-6 6 0 2 2 4t4 2zm0 39q6 0 6-6t-6-6q-6 0-6 6 0 2 2 4t4 2zm0 39q6 0 6-6t-6-6q-6 0-6 6 0 2 2 4t4 2zm0 39q6 0 6-6t-6-6q-6 0-6 6 0 2 2 4t4 2zm0 39q6 0 6-6t-6-6q-6 0-6 6 0 2 2 4t4 2zm0 39q6 0 6-6t-6-6q-6 0-6 6t6 6zm0 39q6 0 6-6t-6-6q-6 0-6 6t6 6zM905 68q-2 0-4 2t-2 4q0 2 2 4t4 2q6 0 6-6t-6-6zm21 19q-3 0-5 2t-2 4q0 2 2 4t5 2q6 0 6-6 0-2-2-4t-4-2zm-21 20q-2 0-4 2t-2 4q0 2 2 4t4 2q2 0 4-2t2-4q0-6-6-6zm21 19q-7 0-7 6t6.5 6q6.5 0 6.5-6 0-2-2-4t-4-2zm-21 20q-2 0-4 2t-2 4q0 2 2 4t4 2q2 0 4-2t2-4q0-6-6-6zm21 19q-7 0-7 6t6.5 6q6.5 0 6.5-6 0-2-2-4t-4-2zm-21 20q-6 0-6 6t6 6q2 0 4-2t2-4q0-6-6-6zm21 18q-3 0-5 2t-2 4.5q0 2.5 2 4.5t5 2q6 0 6-6 0-3-2-5t-4-2zm-21 21q-6 0-6 6t6 6q2 0 4-2t2-4q0-6-6-6zm21 18q-3 0-5 2t-2 4q0 2 2 4t5 2q6 0 6-6t-6-6zm-21 21q-6 0-6 6t6 6q2 0 4-2t2-4q0-6-6-6zm0 50q6 0 6-6t-6-6q-6 0-6 6 0 2 2 4t4 2zm21 19q2 0 4-2t2-4q0-2-2-4t-4-2q-2 0-4.5 2t-2.5 4q0 2 2 4t5 2zm-21 20q6 0 6-6t-6-6q-6 0-6 6 0 2 2 4t4 2zm21 19q2 0 4-2t2-4q0-2-2-4t-4-2q-2 0-4.5 2t-2.5 4q0 2 2 4t5 2zm-21 20q6 0 6-6t-6-6q-6 0-6 6t6 6zm21 19q2 0 4-2t2-4q0-2-2-4t-4-2q-2 0-4.5 2t-2.5 4q0 2 2 4t5 2zm-21 20q6 0 6-6t-6-6q-6 0-6 6 0 2 2 4t4 2zm21 19q2 0 4-2t2-4q0-2-2-4t-4.5-2q-2.5 0-4.5 1.5t-2 4q0 2.5 2 4.5t5 2zm-21 20q6 0 6-6t-6-6q-6 0-6 6 0 2 2 4t4 2zm21 19q2 0 4-2t2-4q0-2-2-4t-4.5-2q-2.5 0-4.5 1.5t-2 4.5q0 6 7 6zm-21 20q6 0 6-6t-6-6q-6 0-6 6t6 6zm21 19q2 0 4-2t2-5q0-6-6-6-2 0-4.5 2t-2.5 4.5q0 2.5 2 4.5t5 2zm-21 20q6 0 6-6t-6-6q-6 0-6 6t6 6zm21 18q6 0 6-6t-6-6q-2 0-4.5 2t-2.5 4q0 6 7 6zm-21 21q6 0 6-6t-6-6q-6 0-6 6t6 6zm21 18q6 0 6-6t-6-6q-2 0-4.5 2t-2.5 4q0 6 7 6zm-21 20q6 0 6-6t-6-6q-6 0-6 6 0 2 2 4t4 2zm21 19q2 0 4-2t2-4q0-2-2-4t-4-2q-2 0-4.5 2t-2.5 4q0 2 2 4t5 2zm-21 20q6 0 6-6t-6-6q-6 0-6 6 0 2 2 4t4 2zm21 19q2 0 4-2t2-4q0-2-2-4t-4-2q-2 0-4.5 2t-2.5 4q0 2 2 4t5 2zm-21 20q6 0 6-6t-6-6q-6 0-6 6 0 2 2 4t4 2zm21 19q2 0 4-2t2-4q0-2-2-4t-4-2q-2 0-4.5 2t-2.5 4q0 2 2 4t5 2zm-21 20q6 0 6-6t-6-6q-6 0-6 6 0 2 2 4t4 2zm21 19q2 0 4-2t2-4q0-2-2-4t-4.5-2q-2.5 0-4.5 1.5t-2 4q0 2.5 2 4.5t5 2zm-21 20q6 0 6-6t-6-6q-6 0-6 6 0 2 2 4t4 2zm21 19q2 0 4-2t2-4q0-2-2-4t-4.5-2q-2.5 0-4.5 1.5t-2 4.5q0 6 7 6zm-21 20q6 0 6-6t-6-6q-6 0-6 6t6 6zm21 19q2 0 4-2t2-5q0-6-6-6-2 0-4.5 2t-2.5 4.5q0 2.5 2 4.5t5 2zm-21 20q6 0 6-6t-6-6q-6 0-6 6t6 6zm21 18q6 0 6-6t-6-6q-2 0-4.5 2t-2.5 4q0 6 7 6zm-21 21q6 0 6-6t-6-6q-6 0-6 6t6 6zm0 39q6 0 6-6.5t-6-6.5q-6 0-6 6 0 3 2 5t4 2zM866 29q-2 0-4 2t-2 4q0 2 2 4t4.5 2q2.5 0 4.5-1.5t2-4.5q0-6-7-6zm21 19q-6 0-6 6t6 6q6 0 6-6 0-2-2-4t-4-2zm-21 20q-2 0-4 2t-2 4q0 2 2 4t4.5 2q2.5 0 4.5-1.5t2-4.5q0-6-7-6zm21 19q-6 0-6 6t6 6q6 0 6-6 0-2-2-4t-4-2zm-21 20q-2 0-4 2t-2 4q0 2 2 4t4 2q2 0 4.5-2t2.5-4q0-2-2-4t-5-2zm21 19q-6 0-6 6t6 6q6 0 6-6 0-2-2-4t-4-2zm-21 20q-2 0-4 2t-2 4q0 2 2 4t4 2q2 0 4.5-2t2.5-4q0-2-2-4t-5-2zm21 19q-6 0-6 6t6 6q6 0 6-6 0-2-2-4t-4-2zm-21 20q-6 0-6 6t6 6q2 0 4.5-2t2.5-4q0-2-2-4t-5-2zm21 18q-6 0-6 6.5t6 6.5q6 0 6-6 0-3-2-5t-4-2zm-21 21q-6 0-6 6t6 6q2 0 4.5-2t2.5-4q0-2-2-4t-5-2zm21 18q-6 0-6 6t6 6q6 0 6-6t-6-6zm-21 21q-6 0-6 6t6 6q2 0 4.5-2t2.5-4q0-6-7-6zm0 50q7 0 7-6t-6.5-6q-6.5 0-6.5 6 0 2 2 4t4 2zm21 19q2 0 4-2t2-4q0-2-2-4t-4-2q-2 0-4 2t-2 4q0 6 6 6zm-21 20q7 0 7-6 0-2-2-4t-5-2q-6 0-6 6 0 2 2 4t4 2zm21 19q2 0 4-2t2-4q0-2-2-4t-4-2q-2 0-4 2t-2 4q0 6 6 6zm-21 20q7 0 7-6t-6.5-6q-6.5 0-6.5 6t6 6zm21 19q2 0 4-2t2-4q0-2-2-4t-4-2q-2 0-4 2t-2 4q0 6 6 6zm-21 20q3 0 5-2t2-4q0-2-2-4t-5-2q-6 0-6 6 0 2 2 4t4 2zm21 19q2 0 4-2t2-4q0-2-2-4t-4-2q-6 0-6 6t6 6zm-21 20q3 0 5-2t2-4q0-2-2-4t-5-2q-6 0-6 6 0 2 2 4t4 2zm21 19q2 0 4-2t2-4q0-2-2-4t-4-2q-6 0-6 6t6 6zm-21 20q3 0 5-2t2-4q0-2-2-4t-5-2q-6 0-6 6t6 6zm21 19q2 0 4-2t2-5q0-6-6-6-2 0-4 2t-2 4.5q0 2.5 1.5 4.5t4.5 2zm-21 20q3 0 5-2t2-4q0-2-2-4t-5-2q-6 0-6 6t6 6zm21 18q6 0 6-6t-6-6q-2 0-4 2t-2 4q0 6 6 6zm-21 21q3 0 5-2t2-4q0-2-2-4t-5-2q-6 0-6 6t6 6zm21 18q6 0 6-6t-6-6q-2 0-4 2t-2 4q0 6 6 6zm-21 20q7 0 7-6t-6.5-6q-6.5 0-6.5 6 0 2 2 4t4 2zm21 19q2 0 4-2t2-4q0-2-2-4t-4-2q-2 0-4 2t-2 4q0 6 6 6zm-21 20q7 0 7-6t-6.5-6q-6.5 0-6.5 6 0 2 2 4t4 2zm21 19q2 0 4-2t2-4q0-2-2-4t-4-2q-2 0-4 2t-2 4q0 6 6 6zm-21 20q3 0 5-2t2-4q0-2-2-4t-5-2q-6 0-6 6 0 2 2 4t4 2zm21 19q2 0 4-2t2-4q0-2-2-4t-4-2q-2 0-4 2t-2 4q0 6 6 6zm-21 20q3 0 5-2t2-4q0-2-2-4t-5-2q-6 0-6 6 0 2 2 4t4 2zm21 19q2 0 4-2t2-4q0-2-2-4t-4-2q-6 0-6 6t6 6zm-21 20q3 0 5-2t2-4q0-2-2-4t-5-2q-6 0-6 6 0 2 2 4t4 2zm21 19q2 0 4-2t2-4q0-2-2-4t-4-2q-6 0-6 6t6 6zm-21 20q3 0 5-2t2-4q0-2-2-4t-5-2q-6 0-6 6t6 6zm21 19q2 0 4-2t2-5q0-6-6-6-2 0-4 2t-2 4.5q0 2.5 1.5 4.5t4.5 2zm-21 20q3 0 5-2t2-4q0-2-2-4t-5-2q-6 0-6 6t6 6zm21 18q6 0 6-6t-6-6q-2 0-4 2t-2 4q0 6 6 6zm-21 21q3 0 5-2t2-4q0-2-2-4t-5-2q-6 0-6 6t6 6zm21 18q6 0 6-6t-6-6q-2 0-4 2t-2 4q0 6 6 6zm-21 21q3 0 5-2t2-5q0-6-6.5-6t-6.5 6q0 3 2 5t4 2zM848 48q-6 0-6 6t6 6q6 0 6-6 0-2-2-4t-4-2zm0 39q-6 0-6 6t6 6q6 0 6-6 0-2-2-4t-4-2zm0 39q-6 0-6 6t6 6q6 0 6-6 0-2-2-4t-4-2zm0 39q-6 0-6 6t6 6q6 0 6-6 0-2-2-4t-4-2zm0 38q-6 0-6 6.5t6 6.5q6 0 6-6 0-3-2-5t-4-2zm0 39q-6 0-6 6t6 6q6 0 6-6t-6-6zm0 90q2 0 4-2t2-4q0-2-2-4t-4-2q-2 0-4 2t-2 4q0 6 6 6zm0 39q2 0 4-2t2-4q0-2-2-4t-4-2q-2 0-4 2t-2 4q0 6 6 6zm0 39q2 0 4-2t2-4q0-2-2-4t-4-2q-2 0-4 2t-2 4q0 6 6 6zm0 39q2 0 4-2t2-4q0-2-2-4t-4-2q-6 0-6 6t6 6zm0 39q2 0 4-2t2-4q0-2-2-4t-4-2q-6 0-6 6t6 6zm0 39q2 0 4-2t2-5q0-6-6-6-2 0-4 2t-2 4.5q0 2.5 1.5 4.5t4.5 2zm0 38q6 0 6-6t-6-6q-2 0-4 2t-2 4q0 6 6 6zm-20 21q2 0 4-2t2-4q0-2-2-4t-4-2q-6 0-6 6t6 6zm20 18q6 0 6-6t-6-6q-2 0-4 2t-2 4q0 6 6 6zm-20 20q6 0 6-6t-6-6q-2 0-4 2t-2 4q0 6 6 6zm20 19q2 0 4-2t2-4q0-2-2-4t-4-2q-2 0-4 2t-2 4q0 6 6 6zm-20 20q6 0 6-6t-6-6q-2 0-4 2t-2 4q0 6 6 6zm20 19q2 0 4-2t2-4q0-2-2-4t-4-2q-2 0-4 2t-2 4q0 6 6 6zm-20 20q2 0 4-2t2-4q0-2-2-4t-4-2q-2 0-4 2t-2 4q0 6 6 6zm20 19q2 0 4-2t2-4q0-2-2-4t-4-2q-2 0-4 2t-2 4q0 6 6 6zm6 33q0-2-1.5-4t-3.5-2q-4-25-23-42t-44-17q-28 0-48 19.5T714 756v60q0 28 20 47.5t48 19.5q22 0 39.5-13t24.5-33l2 1q2 0 4-2t2-4.5q0-2.5-2-4t-4-1.5q1-4 1-10v-18q2 0 3.5-1.5t1.5-3.5q0-2-1.5-4t-3.5-2v-27q5-2 5-6zm-21 62q0 21-15 36t-36.5 15q-21.5 0-36.5-15t-15-36v-60q0-21 15-36t37-15q22 0 36.5 15t14.5 36v60zm15 48q-6 0-6 6t6 6q6 0 6-6t-6-6zm-20 21q-6 0-6 6t6 6q6 0 6-6 0-2-2-4t-4-2zm20 18q-6 0-6 6t6 6q6 0 6-6t-6-6zm-20 20q-6 0-6 6 0 3 1.5 5t4.5 2q6 0 6-7 0-2-2-4t-4-2zm20 19q-6 0-6 6t6 6q6 0 6-6t-6-6zm-20 20q-6 0-6 6t6 6q6 0 6-6 0-2-2-4t-4-2zm-39-77q-6 0-6 6t6 6q6 0 6-6 0-2-2-4t-4-2zm20 18q-2 0-4 2t-2 4q0 2 2 4t4 2q6 0 6-6t-6-6zm-20 20q-6 0-6 6 0 3 1.5 5t4.5 2q6 0 6-7 0-2-2-4t-4-2zm20 19q-2 0-4 2t-2 4q0 2 2 4t4 2q6 0 6-6t-6-6zm-20 20q-6 0-6 6t6 6q6 0 6-6 0-2-2-4t-4-2zm-39-77q-6 0-6 6t6 6q2 0 4-2t2-4q0-2-2-4t-4-2zm20 18q-2 0-4 2t-2 4q0 2 2 4t4 2q6 0 6-6t-6-6zm-20 20q-2 0-4 2t-2 4q0 2 2 4.5t4 2.5q2 0 4-2t2-4.5q0-2.5-2-4.5t-4-2zm20 19q-2 0-4 2t-2 4q0 2 2 4t4 2q6 0 6-6t-6-6zm-20 20q-2 0-4 2t-2 4q0 2 2 4t4 2q6 0 6-6 0-2-2-4t-4-2zm-39-116q-6 0-6 6t6 6q2 0 4-2t2-4q0-6-6-6zm20 18q-2 0-4 2t-2 4q0 2 2 4t4 2q6 0 6-6t-6-6zm-20 21q-6 0-6 6t6 6q2 0 4-2t2-4q0-2-2-4t-4-2zm20 18q-2 0-4 2t-2 4q0 2 2 4t4 2q6 0 6-6t-6-6zm-20 20q-2 0-4 2t-2 4q0 2 2 4.5t4 2.5q2 0 4-2t2-4.5q0-2.5-2-4.5t-4-2zm20 19q-2 0-4 2t-2 4q0 2 2 4t4 2q6 0 6-6t-6-6zm-20 20q-2 0-4 2t-2 4q0 2 2 4t4 2q6 0 6-6 0-2-2-4t-4-2zm-39-116q-6 0-6 6t6 6q2 0 4-2t2-4q0-6-6-6zm20 18q-2 0-4 2t-2 4q0 2 2 4t4 2q6 0 6-6t-6-6zm-20 21q-6 0-6 6t6 6q2 0 4-2t2-4q0-2-2-4t-4-2zm20 18q-2 0-4 2t-2 4q0 2 2 4t4 2q6 0 6-6t-6-6zm-20 20q-2 0-4 2t-2 4q0 2 2 4.5t4 2.5q2 0 4-2t2-4.5q0-2.5-2-4.5t-4-2zm20 19q-2 0-4 2t-2 4q0 2 2 4t4 2q6 0 6-6t-6-6zm-20 20q-2 0-4 2t-2 4q0 2 2 4t4 2q6 0 6-6 0-2-2-4t-4-2zm-39-116q-6 0-6 6t6 6q2 0 4-2t2-4q0-6-6-6zm20 18q-2 0-4 2t-2 4q0 2 2 4t4 2q6 0 6-6t-6-6zm-20 21q-6 0-6 6t6 6q2 0 4-2t2-4q0-6-6-6zm20 18q-2 0-4 2t-2 4q0 2 2 4t4 2q6 0 6-6t-6-6zm-20 20q-2 0-4 2t-2 4q0 2 2 4.5t4 2.5q2 0 4-2t2-5q0-6-6-6zm20 19q-2 0-4 2t-2 4q0 2 2 4t4 2q6 0 6-6t-6-6zm-20 20q-2 0-4 2t-2 4q0 2 2 4t4 2q6 0 6-6t-6-6zm-39-116q-6 0-6 6t6 6q2 0 4-2t2-4q0-6-6-6zm21 18q-6 0-6 6t6 6q6 0 6-6 0-2-2-4t-4-2zm-21 21q-6 0-6 6t6 6q2 0 4-2t2-4q0-6-6-6zm21 18q-6 0-6 6t6 6q6 0 6-6 0-2-2-4t-4-2zm-21 20q-2 0-4 2t-2 4q0 2 2 4.5t4 2.5q2 0 4-2t2-5q0-6-6-6zm21 19q-6 0-6 6t6 6q6 0 6-6 0-2-2-4t-4-2zm-21 20q-2 0-4 2t-2 4q0 2 2 4t4 2q6 0 6-6t-6-6zm-39-116q-6 0-6 6t6 6q2 0 4.5-2t2.5-4q0-6-7-6zm21 18q-6 0-6 6t6 6q6 0 6-6t-6-6zm-21 21q-6 0-6 6t6 6q2 0 4.5-2t2.5-4q0-2-2-4t-5-2zm21 18q-6 0-6 6t6 6q6 0 6-6t-6-6zm-21 20q-2 0-4 2t-2 4q0 2 2 4.5t4 2.5q2 0 4.5-2t2.5-4.5q0-2.5-2-4.5t-5-2zm21 19q-6 0-6 6t6 6q6 0 6-6t-6-6zm-21 20q-2 0-4 2t-2 4q0 2 2 4t4.5 2q2.5 0 4.5-1.5t2-4q0-2.5-2-4.5t-5-2zm-38-116q-6 0-6 6t6 6q6 0 6-6t-6-6zm20 18q-6 0-6 6t6 6q6 0 6-6t-6-6zm-20 21q-6 0-6 6t6 6q6 0 6-6 0-2-2-4t-4-2zm20 18q-6 0-6 6t6 6q6 0 6-6t-6-6zm-20 20q-6 0-6 6 0 3 1.5 5t4.5 2q6 0 6-7 0-2-2-4t-4-2zm20 19q-6 0-6 6t6 6q6 0 6-6t-6-6zm-20 20q-6 0-6 6t6 6q6 0 6-6 0-2-2-4t-4-2zm-39-116q-6 0-6 6t6 6q6 0 6-6t-6-6zm20 18q-2 0-4 2t-2 4q0 2 2 4t4 2q6 0 6-6 0-2-2-4t-4-2zm-20 21q-6 0-6 6t6 6q6 0 6-6t-6-6zm20 18q-2 0-4 2t-2 4q0 2 2 4t4 2q6 0 6-6 0-2-2-4t-4-2zm-20 20q-6 0-6 6 0 3 1.5 5t4.5 2q6 0 6-7 0-2-2-4t-4-2zm20 19q-2 0-4 2t-2 4q0 2 2 4t4 2q6 0 6-6 0-2-2-4t-4-2zm-20 20q-6 0-6 6t6 6q6 0 6-6 0-2-2-4t-4-2zm-39-116q-6 0-6 6t6 6q2 0 4-2t2-4q0-6-6-6zm20 18q-2 0-4 2t-2 4q0 2 2 4t4 2q6 0 6-6t-6-6zm-20 21q-6 0-6 6t6 6q2 0 4-2t2-4q0-2-2-4t-4-2zm20 18q-2 0-4 2t-2 4q0 2 2 4t4 2q6 0 6-6t-6-6zm-20 20q-2 0-4 2t-2 4q0 2 2 4.5t4 2.5q2 0 4-2t2-4.5q0-2.5-2-4.5t-4-2zm20 19q-2 0-4 2t-2 4q0 2 2 4t4 2q6 0 6-6t-6-6zm-20 20q-2 0-4 2t-2 4q0 2 2 4t4 2q6 0 6-6 0-2-2-4t-4-2zm-39-116q-6 0-6 6t6 6q2 0 4-2t2-4q0-6-6-6zm20 18q-2 0-4 2t-2 4q0 2 2 4t4 2q6 0 6-6t-6-6zm-20 21q-6 0-6 6t6 6q2 0 4-2t2-4q0-2-2-4t-4-2zm20 18q-2 0-4 2t-2 4q0 2 2 4t4 2q6 0 6-6t-6-6zm-20 20q-2 0-4 2t-2 4q0 2 2 4.5t4 2.5q2 0 4-2t2-4.5q0-2.5-2-4.5t-4-2zm20 19q-2 0-4 2t-2 4q0 2 2 4t4 2q6 0 6-6t-6-6zm-20 20q-2 0-4 2t-2 4q0 2 2 4t4 2q6 0 6-6 0-2-2-4t-4-2zm-39-116q-6 0-6 6t6 6q2 0 4-2t2-4q0-6-6-6zm20 18q-2 0-4 2t-2 4q0 2 2 4t4 2q6 0 6-6t-6-6zm-20 21q-6 0-6 6t6 6q2 0 4-2t2-4q0-6-6-6zm20 18q-2 0-4 2t-2 4q0 2 2 4t4 2q6 0 6-6t-6-6zm-20 20q-2 0-4 2t-2 4q0 2 2 4.5t4 2.5q2 0 4-2t2-4.5q0-2.5-2-4.5t-4-2zm20 19q-2 0-4 2t-2 4q0 2 2 4t4 2q6 0 6-6t-6-6zm-20 20q-2 0-4 2t-2 4q0 2 2 4t4 2q6 0 6-6 0-2-2-4t-4-2zm-39-116q-6 0-6 6t6 6q2 0 4-2t2-4q0-6-6-6zm20 18q-2 0-4 2t-2 4q0 2 2 4t4 2q6 0 6-6t-6-6zm-20 21q-6 0-6 6t6 6q2 0 4-2t2-4q0-6-6-6zm20 18q-2 0-4 2t-2 4q0 2 2 4t4 2q6 0 6-6t-6-6zm-20 20q-2 0-4 2t-2 4q0 2 2 4.5t4 2.5q2 0 4-2t2-5q0-6-6-6zm20 19q-2 0-4 2t-2 4q0 2 2 4t4 2q6 0 6-6t-6-6zm-20 20q-2 0-4 2t-2 4q0 2 2 4t4 2q6 0 6-6t-6-6zm-39-116q-6 0-6 6t6 6q2 0 4-2t2-4q0-6-6-6zm21 18q-6 0-6 6t6 6q6 0 6-6t-6-6zm-21 21q-6 0-6 6t6 6q2 0 4-2t2-4q0-6-6-6zm21 18q-6 0-6 6t6 6q6 0 6-6t-6-6zm-21 20q-2 0-4 2t-2 4q0 2 2 4.5t4 2.5q2 0 4-2t2-5q0-6-6-6zm21 19q-6 0-6 6t6 6q6 0 6-6t-6-6zm-21 20q-2 0-4 2t-2 4q0 2 2 4t4 2q6 0 6-6t-6-6zm-18-98q21-19 21-48v-60q0-28-20-47.5T218 689q-28 0-47.5 19.5T151 756v60q0 28 19.5 47.5T218 883q22 0 41-13 0 6 6 6t6-5q0-5-6-7zm-47 3q-21 0-36-15t-15-36v-60q0-21 15-36t36-15q21 0 36.5 15t15.5 36v60q0 21-15 36t-37 15zm27 18q-7 0-7 6t6.5 6q6.5 0 6.5-6 0-2-2-4t-4-2zm20 18q-6 0-6 6t6 6q6 0 6-6t-6-6zm-20 20q-3 0-5 2t-2 4q0 2 2 4.5t5 2.5q6 0 6-7 0-2-2-4t-4-2zm20 19q-6 0-6 6t6 6q6 0 6-6t-6-6zm-20 20q-3 0-5 2t-2 4q0 2 2 4t5 2q6 0 6-6 0-2-2-4t-4-2zm-39-77q-6 0-6 6t6 6q6 0 6-6 0-2-2-4t-4-2zm20 18q-6 0-6 6t6 6q6 0 6-6t-6-6zm-20 20q-6 0-6 6 0 3 1.5 5t4.5 2q6 0 6-7 0-2-2-4t-4-2zm20 19q-6 0-6 6t6 6q6 0 6-6t-6-6zm-20 20q-6 0-6 6t6 6q6 0 6-6 0-2-2-4t-4-2zm-39-77q-6 0-6 6t6 6q6 0 6-6 0-2-2-4t-4-2zm20 18q-2 0-4 2t-2 4q0 2 2 4t4 2q6 0 6-6t-6-6zm-20 20q-6 0-6 6 0 3 1.5 5t4.5 2q6 0 6-7 0-2-2-4t-4-2zm20 19q-2 0-4 2t-2 4q0 2 2 4t4 2q6 0 6-6t-6-6zm-20 20q-6 0-6 6t6 6q6 0 6-6 0-2-2-4t-4-2zm-39-116q-6 0-6 6t6 6q2 0 4-2t2-4q0-6-6-6zm20 18q-2 0-4 2t-2 4q0 2 2 4t4 2q6 0 6-6t-6-6zm-20 21q-6 0-6 6t6 6q2 0 4-2t2-4q0-2-2-4t-4-2zm20 18q-2 0-4 2t-2 4q0 2 2 4t4 2q6 0 6-6t-6-6zm-20 20q-2 0-4 2t-2 4q0 2 2 4.5t4 2.5q2 0 4-2t2-4.5q0-2.5-2-4.5t-4-2zm20 19q-2 0-4 2t-2 4q0 2 2 4t4 2q6 0 6-6t-6-6zm-59-96q-6 0-6 6t6 6q2 0 4-2t2-4q0-6-6-6zm20 18q-2 0-4 2t-2 4q0 2 2 4t4 2q6 0 6-6t-6-6zm-20 21q-6 0-6 6t6 6q2 0 4-2t2-4q0-2-2-4t-4-2zm20 18q-2 0-4 2t-2 4q0 2 2 4t4 2q6 0 6-6t-6-6zm-39-39q-2 0-4 2t-2 4q0 2 2 4t4 2q6 0 6-6t-6-6zm758-473q6 0 6-6t-6-6q-2 0-4 2t-2 4q0 6 6 6zm0 39q2 0 4-2t2-4q0-2-2-4t-4-2q-2 0-4 2t-2 4q0 6 6 6zm0 39q2 0 4-2t2-4q0-2-2-4t-4-2q-2 0-4 2t-2 4q0 6 6 6zm0 39q2 0 4-2t2-4q0-2-2-4t-4-2q-6 0-6 6t6 6zm0 39q2 0 4-2t2-4q0-2-2-4t-4-2q-6 0-6 6t6 6zM941 57q-26-27-60.5-41.5T808 1H192q-38 0-72.5 14.5T59 57.5q-26 27.5-39.5 62T7 192l23 631q1 36 15.5 68.5t40 57.5q25.5 25 59 38.5T214 1001h575q37 0 70-13.5t59-39q26-25.5 40.5-58T974 822l19-631q1-38-12.5-72.5T941 57zm28 383q-1-3-5-3-6 0-6 6t6 6q4 0 5-3l-1 31q-1-1-4-1-6 0-6 6t6 6q2 0 4-2l-1 29-3-1q-2 0-4 2t-2 4q0 2 2 4.5t4 2.5l3-1-1 28q0-1-2-1t-4 2q-2 2-2 4t2 4q2 2 4 2h2l-1 27h-1q-2 0-4 2t-2 4q0 2 2 4t4 2h1l-1 27q-2 0-4 2t-2 4q0 2 1.5 4t3.5 2v27q-5 2-5 6t4 6l-1 28q-3 3-3 5.5t3 4.5l-3 101q-1 33-14 64-6 0-6 6l1 3q-3 7-8 14 0-2-1.5-3.5t-4-1.5q-2.5 0-4.5 2t-2 4q0 2 2 4t5 2q-13 19-34 36 1-1 1-3t-2-4q-2-2-4-2t-4 2q-2 2-2 4 0 6 6 6-7 5-16 10-2-2-4.5-2t-4.5 2q-2 2-2 3.5t1 2.5q-26 10-47 13-2-2-6-2t-5 4h-27q-2-4-6-4t-6 4h-27q-2-4-6-4t-6 4h-27q-2-4-6.5-4t-4.5 4h-28q-2-4-5.5-4t-5.5 4h-28q-2-4-5.5-4t-5.5 4h-28q0-1-1.5-2.5T576 981q-4 0-6 4h-28q0-1-1.5-2.5T537 981q-4 0-6 4h-27q-2-4-6-4t-6 4h-27q-2-4-6-4t-6 4h-27q-2-4-6-4t-6 4h-27q-2-4-6.5-4t-4.5 4h-28q-2-4-5.5-4t-5.5 4h-28q-2-4-5.5-4t-5.5 4h-28q0-1-1.5-2.5T265 981q-4 0-6 4h-27q-2-4-6-4t-6 4h-6q-56 0-100-33 1-1 1-4 0-6-6-6-3 0-5 3l-11-11q2-2 2-4.5t-2-4.5q-2-2-4-2t-4 2q-4-4-10-12 1-1 1-4 0-6-6-6h-1q-11-19-19-45 6 0 6-6t-6-6h-2l-3-24-18-524q22-2 160 0 32 0 51 21l86 86q28 26 63 26h219q34 0 61-25l93-87q22-20 50-20h164l-5 141zm8-249l-3 92H810q-34 0-61 24l-93 88q-22 20-50 20H387q-30 0-52-22l-85-85q-26-26-63-26-146-1-161 0l-3-90q-2-72 47-124 25-25 56.5-38T192 17h616q35 0 66 13t55 37.5Q953 92 966 126h-2q-6 0-6 6t6 6q4 0 5-3 8 24 8 56zm-252-45q-49-29-106.5-44.5T500 86q-61 0-118.5 15.5T275 146q-15 9-18 27-2 16 11 29l145 146q5 5 12.5 6.5T440 353q26-12 60-12 32 0 59 11 7 3 14 1.5t12-6.5l147-145q13-13 11-29-3-18-18-27zm-4 45L574 336q-3 3-9 1-28-12-65-12h-4l-41-130q-1-3-4-4.5t-6-.5q-3 1-4.5 4t-.5 6l39 126q-25 3-46 12-2 1-4.5 1t-4.5-2L279 191q-7-7-5.5-16.5T283 160q96-58 217-58t217 58q8 4 10 15 1 9-6 16z"/></svg>