<svg viewBox="0 0 1244 1083.753" xmlns="http://www.w3.org/2000/svg"><path d="M959 833q6 0 10-4.5t4-10.5V192q0-27-19-45.5T909 128H790v-9q0-6-4-10.5t-10.5-4.5q-6.5 0-10.5 4.5t-4 10.5v57q0 7-4.5 11.5T745 192q-7 0-11.5-4.5T729 176V46q0-7 4.5-11.5T745 30q7 0 11.5 4.5T761 46v10q0 6 4 10.5t10 4.5q6 0 10.5-4.5T790 56V46q0-19-13-32T745 1q-19 0-32.5 13T699 46v82h-31V46q0-19-13.5-32T622 1q-19 0-32 13t-13 32v82h-32V46q0-19-13-32T500 1q-19 0-32.5 13T454 46v82h-31V46q0-19-13.5-32T377 1q-19 0-32 13t-13 32v82h-32V46q0-19-13-32T255 1q-19 0-32.5 13T209 46v82H88q-26 0-45 18.5T24 192v742q0 26 19 45t45 19h821q26 0 45-19t19-45v-54q0-6-4-10t-10-4q-6 0-10.5 4t-4.5 10v54q0 14-10.5 24.5T909 969H743V774h201v44q0 6 4.5 10.5T959 833zm-573 40q-10 0-18-8t-8-18.5q0-10.5 8-18t18.5-7.5q10.5 0 18 7.5T412 847q0 11-7.5 18.5T386 873zm-33 39l14-13q9 3 19 3t19-3l14 13q17 15 17 39v18H336v-18q0-24 17-39zm86-22l-10-9q12-14 12-34 0-23-16-39.5T386 791q-23 0-39 16.5T331 847q0 20 12 34l-10 9q-13 12-20 28t-7 33v18h-22V774h200v195h-19v-18q0-37-26-61zM284 745v-72q0-6-4.5-10t-10.5-4q-6 0-10 4t-4 10v72H53V544h202v67q0 6 4 10.5t10 4.5q6 0 10.5-4.5T284 611v-67h200v201H284zm660-250l-83-80 83-81v161zM840 394l-85-81h169l-84 81zm-97-52l76 73-76 72V342zm-29 172h-25v-14q0-17-6.5-32.5T663 440l-10-9q12-15 12-35 0-23-16-39t-38.5-16q-22.5 0-39 16T555 396q0 20 12 35l-10 9q-13 12-20 28t-7 32v14h-17V313h201v201zm-154 0v-14q0-11 4.5-21.5T577 461l14-13q9 3 19 3t19-3l14 13q8 7 12.5 17.5T660 500v14H560zm50-92q-10 0-18-8t-8-18.5q0-10.5 8-18t18.5-7.5q10.5 0 18 7.5t7.5 18q0 10.5-7.5 18.5t-18.5 8zm-126 92H284V313h200v201zm-229 0H53V313h202v201zm258 30h201v201H513V544zm327-109l82 79H757l83-79zM606 46q0-7 4.5-11.5T622 30q7 0 11.5 4.5T638 46v130q0 7-4.5 11.5T622 192q-7 0-11.5-4.5T606 176V46zm-122 0q0-7 4.5-11.5T500 30q7 0 11.5 4.5T516 46v130q0 7-4.5 11.5T500 192q-7 0-11.5-4.5T484 176V46zm-123 0q0-7 4.5-11.5T377 30q7 0 11.5 4.5T393 46v130q0 7-4.5 11.5T377 192q-7 0-11.5-4.5T361 176V46zm-122 0q0-7 4.5-11.5T255 30q7 0 11.5 4.5T271 46v130q0 7-4.5 11.5T255 192q-7 0-11.5-4.5T239 176V46zM88 157h121v19q0 19 13.5 32t32.5 13q19 0 32-13t13-32v-19h32v19q0 19 13 32t32 13q19 0 32.5-13t13.5-32v-19h31v19q0 19 13.5 32t32.5 13q19 0 32-13t13-32v-19h32v19q0 19 13 32t32 13q19 0 32.5-13t13.5-32v-19h31v19q0 19 13.5 32t32.5 13q19 0 32-13t13-32v-19h119q14 0 24.5 10.5T944 192v92H53v-92q0-14 10.5-24.5T88 157zM53 934V774h202v195H88q-14 0-24.5-10.5T53 934zm661 35H513V774h201v195zm29-224V544h201v201H743zM151 490q33 0 56.5-23.5T231 410q0-21-12-40l14-14q5-5 5-11t-4.5-10.5Q229 330 223 330t-10 5l-13 13q-22-17-49-17-33 0-56 23t-23 56q0 33 23 56.5t56 23.5zm0-130q15 0 28 8l-30 30-2-2q-4-5-9.5-5t-10.5 5q-5 5-5 10.5t4 9.5l12 13q5 5 11 5t10-4l39-39q3 9 3 19 0 21-14.5 35.5T151 460q-21 0-35.5-14.5T101 410q0-21 14.5-35.5T151 360zm541 211q-4-4-10-4t-11 4l-12 13q-22-17-49-17-33 0-56.5 23.5t-23.5 56q0 32.5 23.5 56T610 726q33 0 56-23.5t23-56.5q0-21-11-40l14-14q5-5 5-11t-5-10zm-32 75q0 21-14.5 36T610 697q-21 0-35.5-15T560 646q0-21 14.5-35.5T610 596q16 0 28 9l-30 30-2-2q-4-5-10-5t-10.5 4q-4.5 4-4.5 10.5t4 10.5l12 13q4 4 10 4h1q6 0 10-4l39-38q3 7 3 18z"/></svg>