<svg viewBox="0 0 1244 1083.753" xmlns="http://www.w3.org/2000/svg"><path d="M946 284q-2 0-4 2t-2 5q0 6 6 6 2 0 4-2t2-4q0-2-2-4.5t-4-2.5zm-20 21q-6 0-6 6t6 6q6 0 6-6t-6-6zm20 19q-6 0-6 6t6 6q2 0 4-2t2-4q0-2-2-4t-4-2zm-20 20q-6 0-6 6t6 6q6 0 6-6t-6-6zm20 19q-6 0-6 6t6 6q2 0 4-2t2-4q0-2-2-4t-4-2zm-20 20q-6 0-6 6t6 6q6 0 6-6 0-2-2-4t-4-2zm20 19q-6 0-6 6t6 6q2 0 4-2t2-4q0-2-2-4t-4-2zm-20 20q-6 0-6 6t6 6q6 0 6-6 0-2-2-4t-4-2zm20 19q-6 0-6 6t6 6q2 0 4-2t2-4q0-2-2-4t-4-2zm-20 20q-6 0-6 6t6 6q6 0 6-6 0-2-2-4t-4-2zm20 19q-6 0-6 6t6 6q2 0 4-2t2-4q0-2-2-4t-4-2zm-20 20q-6 0-6 6t6 6q6 0 6-6 0-2-2-4t-4-2zm20 19q-2 0-4 2t-2 4q0 2 2 4t4 2q2 0 4-2t2-4q0-2-2-4t-4-2zm-20 20q-6 0-6 6t6 6q6 0 6-6 0-2-2-4t-4-2zm20 19q-2 0-4 2t-2 4q0 2 2 4t4 2q2 0 4-2t2-4q0-2-2-4t-4-2zm-20 20q-6 0-6 6t6 6q6 0 6-6 0-2-2-4t-4-2zm20 19q-2 0-4 2t-2 4q0 2 2 4t4 2q2 0 4-2t2-4q0-2-2-4t-4-2zm-20 20q-6 0-6 6t6 6q6 0 6-6 0-2-2-4t-4-2zm20 19q-2 0-4 2t-2 4q0 2 2 4t4 2q2 0 4-2t2-4q0-2-2-4t-4-2zm-20 20q-6 0-6 6t6 6q6 0 6-6 0-2-2-4t-4-2zm20 19q-2 0-4 2t-2 4q0 2 2 4t4 2q2 0 4-2t2-4q0-2-2-4t-4-2zm-39-391q-6 0-6 6.5t6 6.5q6 0 6-6 0-2-2-4.5t-4-2.5zm-20 21q-7 0-7 6t6.5 6q6.5 0 6.5-6t-6-6zm20 19q-6 0-6 6t6 6q6 0 6-6 0-2-2-4t-4-2zm-20 20q-7 0-7 6t6.5 6q6.5 0 6.5-6t-6-6zm20 19q-6 0-6 6t6 6q6 0 6-6 0-2-2-4t-4-2zm-20 20q-3 0-5 2t-2 4q0 2 2 4t5 2q6 0 6-6 0-2-2-4t-4-2zm20 19q-6 0-6 6t6 6q6 0 6-6 0-2-2-4t-4-2zm-20 20q-3 0-5 2t-2 4q0 2 2 4t5 2q6 0 6-6 0-2-2-4t-4-2zm20 19q-6 0-6 6t6 6q6 0 6-6 0-2-2-4t-4-2zm-20 20q-3 0-5 2t-2 4q0 2 2 4t5 2q6 0 6-6 0-2-2-4t-4-2zm20 19q-6 0-6 6t6 6q6 0 6-6 0-2-2-4t-4-2zm-20 20q-3 0-5 2t-2 4q0 2 2 4t5 2q6 0 6-6 0-2-2-4t-4-2zm20 19q-6 0-6 6t6 6q6 0 6-6 0-2-2-4t-4-2zm-20 20q-3 0-5 2t-2 4q0 2 2 4t5 2q6 0 6-6 0-2-2-4t-4-2zm20 19q-6 0-6 6t6 6q6 0 6-6 0-2-2-4t-4-2zm-20 20q-3 0-5 2t-2 4q0 2 2 4t5 2q6 0 6-6 0-2-2-4t-4-2zm20 19q-6 0-6 6t6 6q6 0 6-6 0-2-2-4t-4-2zm-20 20q-3 0-5 2t-2 4q0 2 2 4t5 2q6 0 6-6 0-2-2-4t-4-2zm20 19q-6 0-6 6t6 6q6 0 6-6 0-2-2-4t-4-2zm-20 20q-3 0-5 2t-2 4q0 2 2 4t5 2q6 0 6-6 0-2-2-4t-4-2zm20 19q-6 0-6 6t6 6q6 0 6-6 0-2-2-4t-4-2zm-39-39q-6 0-6 6t6 6q6 0 6-6 0-2-2-4t-4-2zm0 39q-6 0-6 6t6 6q6 0 6-6 0-2-2-4t-4-2zm-177-46q6 0 6-6t-6-6q-6 0-6 6t6 6zm0 39q6 0 6-6t-6-6q-6 0-6 6t6 6zm-39-39q6 0 6-6t-6-6q-6 0-6 6t6 6zm20 19q6 0 6-6t-6-6q-6 0-6 6 0 2 2 4t4 2zm-20 20q6 0 6-6t-6-6q-6 0-6 6t6 6zm20 19q6 0 6-6t-6-6q-6 0-6 6 0 2 2 4t4 2zm-59-58q6 0 6-6 0-2-2-4t-4-2q-2 0-4 2t-2 4q0 6 6 6zm20 19q6 0 6-6t-6-6q-6 0-6 6 0 2 2 4t4 2zm-20 20q6 0 6-6 0-2-2-4t-4-2q-2 0-4 2t-2 4q0 6 6 6zm20 19q6 0 6-6t-6-6q-6 0-6 6 0 2 2 4t4 2zm-39-39q6 0 6-6t-6-6q-6 0-6 6 0 2 2 4t4 2zm0 39q6 0 6-6t-6-6q-6 0-6 6 0 2 2 4t4 2zm-215-58q6 0 6-6 0-2-2-4t-4-2q-2 0-4 2t-2 4q0 6 6 6zm20 19q2 0 4-2t2-4q0-2-2-4t-4-2q-2 0-4 2t-2 4q0 2 2 4t4 2zm-20 20q6 0 6-6 0-2-2-4t-4-2q-2 0-4 2t-2 4q0 6 6 6zm20 19q2 0 4-2t2-4q0-2-2-4t-4-2q-2 0-4 2t-2 4q0 2 2 4t4 2zm-59-58q6 0 6-6 0-2-2-4t-4-2q-2 0-4 2t-2 4q0 6 6 6zm20 19q2 0 4-2t2-4q0-2-2-4t-4-2q-2 0-4 2t-2 4q0 2 2 4t4 2zm-20 20q6 0 6-6 0-2-2-4t-4-2q-2 0-4 2t-2 4q0 6 6 6zm20 19q2 0 4-2t2-4q0-2-2-4t-4-2q-2 0-4 2t-2 4q0 2 2 4t4 2zm-39-39q2 0 4-2t2-4q0-2-2-4t-4-2q-2 0-4 2t-2 4q0 2 2 4t4 2zm0 39q2 0 4-2t2-4q0-2-2-4t-4-2q-2 0-4 2t-2 4q0 2 2 4t4 2zm-216-58q6 0 6-6t-6-6q-6 0-6 6t6 6zm21 19q2 0 4-2t2-4q0-2-2-4t-4-2q-2 0-4.5 2t-2.5 4q0 2 2 4t5 2zm-21 20q6 0 6-6t-6-6q-6 0-6 6t6 6zm21 19q2 0 4-2t2-4q0-2-2-4t-4-2q-2 0-4.5 2t-2.5 4q0 2 2 4t5 2zm-60-58q6 0 6-6t-6-6q-6 0-6 6t6 6zm20 19q3 0 5-2t2-4q0-2-2-4t-5-2q-6 0-6 6 0 2 2 4t4 2zm-20 20q6 0 6-6t-6-6q-6 0-6 6t6 6zm20 19q3 0 5-2t2-4q0-2-2-4t-5-2q-6 0-6 6 0 2 2 4t4 2zm-39-51q-2 0-4 2t-2 4q0 2 2 4t4 2q2 0 4-2t2-4q0-6-6-6zm0 39q-2 0-4 2t-2 4q0 2 2 4t4 2q2 0 4-2t2-4q0-6-6-6zm220-57q-3 0-5 2.5t-2 4.5q0 2 2 4.5t5 2.5q3 0 5-2t2-5q0-3-2-5t-5-2zm0 45q-3 0-5 2t-2 5q0 3 2 5t5 2q3 0 5-2t2-5q0-3-2-5t-5-2zm-45-45q-3 0-5 2.5t-2 4.5q0 2 2 4.5t5 2.5q3 0 5-2t2-4.5q0-2.5-2-5t-5-2.5zm23 22q-2 0-4.5 2t-2.5 5q0 3 2.5 5t4.5 2q2 0 4.5-2t2.5-5q0-3-2-5t-5-2zm-23 23q-3 0-5 2t-2 5q0 3 2 5t5 2q3 0 5-2t2-5q0-3-2-5t-5-2zm23 21q-2 0-4.5 2.5T238 691q0 2 2.5 4.5t4.5 2.5q2 0 4.5-2t2.5-5q0-3-2-5t-5-2zm-67-66q-3 0-5 2.5t-2 4.5q0 2 2 4.5t5 2.5q3 0 5-2t2-5q0-3-2-5t-5-2zm23 22q-3 0-5 2t-2 5q0 3 2 5t5 2q3 0 5-2t2-5q0-3-2-5t-5-2zm-23 23q-3 0-5 2t-2 5q0 3 2 5t5 2q3 0 5-2t2-5q0-3-2-5t-5-2zm23 21q-3 0-5 2.5t-2 4.5q0 2 2 4.5t5 2.5q3 0 5-2t2-5q0-3-2-5t-5-2zm333-66q-3 0-5 2.5t-2 4.5q0 2 2 4.5t5 2.5q3 0 5-2t2-5q0-3-2-5t-5-2zm0 45q-3 0-5 2t-2 5q0 3 2 5t5 2q3 0 5-2t2-5q0-3-2-5t-5-2zm-44-45q-3 0-5 2.5t-2 4.5q0 2 2 4.5t5 2.5q6 0 6-7 0-3-2-5t-4-2zm23 22q-3 0-5 2t-2 5q0 3 2 5t5 2q3 0 5-2t2-5q0-3-2.5-5t-4.5-2zm-23 23q-3 0-5 2t-2 5q0 3 2 5t5 2q6 0 6-7 0-3-2-5t-4-2zm23 21q-3 0-5 2.5t-2 4.5q0 2 2 4.5t5 2.5q3 0 5-2t2-5q0-3-2.5-5t-4.5-2zm-45-44q-3 0-5 2t-2 5q0 3 2 5t5 2q3 0 5-2t2-5q0-3-2-5t-5-2zm0 44q-3 0-5 2.5t-2 4.5q0 2 2 4.5t5 2.5q3 0 5-2t2-5q0-3-2-5t-5-2zm333-52q3 0 5-2t2-5q0-3-2-5t-5-2q-3 0-5 2.5t-2 4.5q0 2 2.5 4.5t4.5 2.5zm23 22q3 0 5-2t2-5q0-3-2-5t-5-2q-6 0-6 7 0 3 2 5t4 2zm-23 23q3 0 5-2t2-5q0-3-2-5t-5-2q-3 0-5 2t-2 5q0 3 2.5 5t4.5 2zm23 21q3 0 5-2t2-5q0-3-2-5t-5-2q-3 0-4.5 2t-1.5 4.5q0 2.5 2 5t4 2.5zm-67-66q3 0 5-2t2-5q0-3-2-5t-5-2q-3 0-5 2.5t-2 4.5q0 2 2 4.5t5 2.5zm23 22q3 0 5-2t2-5q0-3-2-5t-5-2q-3 0-5 2t-2 5q0 3 2 5t5 2zm-23 23q3 0 5-2t2-5q0-3-2-5t-5-2q-3 0-5 2t-2 5q0 3 2 5t5 2zm23 21q3 0 5-2t2-5q0-3-2-5t-5-2q-3 0-5 2.5t-2 5q0 2.5 2 4.5t5 2zm-45-44q3 0 5-2t2-5q0-3-2-5t-5-2q-3 0-5 2t-2 5q0 3 2.5 5t4.5 2zm0 44q3 0 5-2t2-5q0-3-2-5t-5-2q-3 0-5 2.5t-2 4.5q0 2 2.5 4.5t4.5 2.5zm235-535h-39v-35q0-16-11-27t-26.5-11Q878 90 867 101t-11 27v35H734v-35q0-16-11-27t-26.5-11Q681 90 670 101t-11 27v35H538v-35q0-16-11-27t-27-11q-16 0-26.5 11T463 128v35H341v-35q0-16-11-27t-27-11q-16 0-26.5 11T266 128v35H144v-35q0-16-11-27t-26.5-11Q91 90 80 101t-11 27v35H30q-12 0-21 8.5T0 193v59q0 8 4 15t11 11v402q0 17 12 29.5T57 722h887q17 0 29-12.5t12-29.5V278q7-4 11-11t4-15v-59q0-13-9-21.5t-21-8.5zm-98-35q0-9 6-15.5t15-6.5q9 0 15.5 6.5T915 128v68q0 9-6.5 15.5T893 218q-9 0-15-6.5t-6-15.5v-68zm-197 0q0-9 6.5-15.5T697 106q9 0 15 6.5t6 15.5v68q0 9-6 15.5t-15 6.5q-9 0-15.5-6.5T675 196v-68zm-197 0q0-9 6.5-15.5T500 106q9 0 15.5 6.5T522 128v68q0 9-6.5 15.5T500 218q-9 0-15.5-6.5T478 196v-68zm-196 0q0-9 6-15.5t15-6.5q9 0 15.5 6.5T325 128v68q0 9-6.5 15.5T303 218q-9 0-15-6.5t-6-15.5v-68zm-197 0q0-9 6.5-15.5T107 106q9 0 15.5 6.5T129 128v68q0 9-6.5 15.5T107 218q-9 0-15.5-6.5T85 196v-68zM30 680v-13q3-2 3-5.5t-3-4.5v-29q3-2 3-5.5t-3-4.5V283h119v336q-2-2-4.5-2t-4.5 2q-2 2-2 4t2 4q2 2 5 2t4-2v31q-2-2-4.5-2t-4.5 2q-2 2-2 4t2 4q2 2 5 2t4-2v31q-2-2-4.5-2t-4.5 2q-2 2-2 4.5t3 4.5h-32q2-2 2-5 0-6-6-6t-6 6q0 3 3 5H70q2-2 2-5 0-6-6-6t-6 6q0 3 3 5h-6q-11 0-19-7.5T30 680zm118 26h.5q.5 0 .5-1v1h-1zm17 0V283h121v358q-3 1-3 5t3 7v33q-3 1-3 5t3 6v9H165zm259-85q-2-4-7-4t-5 6q0 6 5.5 6t6.5-4v35q-2-4-7-4t-5 6q0 6 5.5 6t6.5-4v36q-2-5-7-5t-5 6q0 3 2 5h-32q3-2 3-4.5t-2-4.5q-2-2-4-2t-4 2q-2 2-2 4.5t2 4.5h-32q3-2 3-4.5t-2-4.5q-2-2-4-2t-4 2q-2 2-2 4.5t2 4.5h-32q3-2 3-5.5t-5-5.5v-27q2 0 3.5-2t1.5-5q0-3-5-5v-27q2 0 3.5-2t1.5-5q0-3-5-5V283h122v338zm-3 85q2 0 3-3v3h-3zm18 0v-32q2 3 5.5 3t5.5-2q2-2 2-5t-2-5q-2-2-5.5-2t-5.5 3v-37q2 3 5.5 3t5.5-2q2-2 2-5t-2-5q-2-2-5.5-2t-5.5 4V283h122v358q-1-1-4-1t-5 2q-2 2-2 5t2 5q2 2 5 2l4-1v33q-2-2-4.5-2t-4.5 2.5q-2 2.5-2 4.5t2 4.5q2 2.5 5 2.5t4-1v9H439zm259 0h-3q2-2 2-5 0-6-6-6t-6 6q0 3 3 5h-32q2-2 2-5 0-6-6-6t-6 6q0 3 3 5h-33q3-2 3-4.5t-2-4.5q-2-2-4-2t-4 2q-2 2-2 4.5t3 4.5h-33q3-2 3-5.5t-3-4.5v-28q3-2 3-6t-3-5v-28q3-2 3-6t-3-5V283h121v423zm138 0H714v-29q5-2 5-7t-5-7v-31q5-2 5-7 0-2-1.5-4t-3.5-2V283h122v423zm93 0q3-2 3-4.5t-2-4.5q-2-2-4-2t-4 2q-2 2-2 4.5t2 4.5h-32q3-2 3-4.5t-2-4.5q-2-2-4-2t-4.5 2q-2.5 2-2.5 4t2 4l1 1h-32q3-2 3-5t-3-4v-30q3-2 3-5t-3-4v-30q3-2 3-5t-3-4V283h119v24q-2-2-5-2-6 0-6 6t6 6q4 0 5-3v32q-2-2-5-2-6 0-6 6t6 6q4 0 5-3v33q-1-3-5-3-6 0-6 6t6 6q4 0 5-3v33q-1-3-5-3-6 0-6 6t6 6q4 0 5-3v33q-1-3-5-3-6 0-6 6t6 6q4 0 5-3v33q-1-3-5-3-6 0-6 6t6 6q4 0 5-3v33q-1-3-5-3-6 0-6 6t6 6q3 0 5-2v32q-1-3-5-3-6 0-6 6t6 6q3 0 5-2v32q-1-3-5-3-6 0-6 6t6 6q3 0 5-2v32q-1-3-5-3-6 0-6 6t6 6q3 0 5-2v14q0 8-5 15-6 0-6 6v1q-7 4-15 4h-15zm55-454q0 6-4 10.5t-10 4.5H30q-6 0-10-4.5T16 252v-59q0-6 4-10t10-4h39v17q0 15 11 26t26.5 11q15.5 0 26.5-11t11-26v-17h122v17q0 15 11 26t26 11q15 0 26.5-11t11.5-26v-17h122v17q0 15 10.5 26t26.5 11q16 0 27-11t11-26v-17h121v17q0 15 11 26t26.5 11q15.5 0 26.5-11t11-26v-17h122v17q0 15 11 26t26.5 11q15.5 0 26.5-11t11-26v-17h39q6 0 10 4t4 10v59zM785 792H253q-17 0-30 10l-44 33q-9 6-9 17t9 17l44 33q13 10 30 10h532q19 0 32-13t13-32v-30q0-19-13-32t-32-13zM244 895q-5-1-12-6l-22-16v-42l22-16q7-5 12-6v86zm423 1H259v-28h408v28zm0-61H259v-27h408v27zm55 61h-39v-88h39v88zm92-29q0 12-8.5 20.5T785 896h-47v-88h47q12 0 20.5 8.5T814 837v30z"/></svg>