<svg viewBox="0 0 1244 1083.753" xmlns="http://www.w3.org/2000/svg"><path d="M798 914H202q-5 0-8.5-4t-3.5-9V101q0-5 3.5-9t8.5-4h447q5 0 9 4l149 149q4 6 4 9v651q-1 5-4.5 9t-8.5 4zm-583-25h571V255L644 113H215v776zm583-627H649q-5 0-9-3.5t-4-8.5V101q0-5 4-9t9-4q3 0 9 4l149 149q4 4 4 9t-3.5 8.5Q804 262 798 262zm-137-25h107L661 131v106zM551 787q-28 0-51-13-23 13-52 13t-55-38q-22-32-37-81-13-43-13-71.5t14-52.5q14-24 38.5-38.5T449 491q25 0 51 13 26-13 51-13 29 0 53.5 14.5T643 544q14 24 14 52.5T644 668q-15 49-37 81-26 38-56 38zm-51-40q3 0 7 2 19 13 44 13 19 0 39-31 17-28 29.5-68t12.5-66q0-34-23.5-57.5T551 516q-23 0-44 13-6 5-14 0-28-18-60.5-11.5T381 552q-13 19-13 45t12.5 66q12.5 40 29.5 68 20 31 39 31 25 0 44-13 4-2 7-2zm0-216q-5 0-8.5-3.5T488 519q0-28 16-51t42-32q4-2 8.5.5t6.5 7.5q2 5-.5 9.5T554 459q-19 8-30 24t-11 36q0 5-4 8.5t-9 3.5zM379 195H278q-5 0-8.5-4t-3.5-9q0-5 3.5-8.5t8.5-3.5h101q5 0 9 3.5t4 8.5q0 5-4 9t-9 4zm36 67H278q-5 0-9-3.5t-4-8.5q0-5 4-9t9-4h137q5 0 8.5 4t3.5 9q0 5-3.5 8.5T415 262z"/></svg>