<svg viewBox="0 0 1244 1083.753" xmlns="http://www.w3.org/2000/svg"><path d="M981 207h-67v-51q0-11-9-17-19-13-56-25-70-24-152-24-68 0-129 17-40 11-69 27-28-13-68-22-60-14-128-14-76 0-143 17-35 10-62 22l-2 1q-10 7-10 18v51H20q-8 0-14 6t-6 14v665q0 8 6 14t14 6h633q8 0 14-6t6-14q0-8-6-13.5t-14-5.5H520v-53q77-43 189.5-40T884 825q9 6 19.5.5T914 809V246h47v627H825q-8 0-13.5 5.5T806 892q0 8 5.5 14t13.5 6h156q8 0 13.5-6t5.5-14V227q0-8-5.5-14t-13.5-6zm-284-78q61 0 116 15 34 9 62 23v609q-31-14-70-23-51-11-108-11-99 0-177 34V167q18-9 39-16 64-22 138-22zm-572 39q26-11 63-19 54-12 115-12t115 12q35 7 63 19v611q-81-30-178-30-102 0-178 30V168zm-86 78h47v563q0 11 9.5 16.5t19.5.5q0-1 13-6 16-7 36-13 28-9 59-13 39-6 80-6 101 0 178 33v52H39V246zm588 178q25 0 43-16t22-39q50-5 111 10 9 2 16.5-4t7.5-15V241q0-6-3.5-11t-8.5-7q-44-18-112.5-18T590 223q-6 2-9.5 7t-3.5 11v73q-16 19-16 44 0 27 19 46.5t47 19.5zm0-39q-11 0-19-8t-8-19q0-11 8-19t19-8q11 0 19 8t8 19q0 11-8 19t-19 8zm-11-130q36-11 86-11t86 11v81q-39-8-71-8-14 0-30 2-10-20-29.5-30.5T616 293v-38zM418 527q-2-25-20-42t-42-19q-30-2-52 20-20-22-52-20-24 2-42 19t-20 42q-1 14 3.5 27.5T208 579l64 71q15 15 33 15t31-15l64-71q10-11 14.5-24.5T418 527zm-46 25h-1l-64 72q-1 1-3 1t-2-1l-65-72h-1q-8-10-7-21t8.5-18q7.5-7 18.5-8t20 7.5q9 8.5 9 20.5 0 8 5.5 13.5T304 552q8 0 14-5.5t6-13.5q0-12 8.5-20.5T352 505q11 1 18.5 8t8.5 17q1 12-7 22zM217 399q32-13 87-13t88 13q7 3 14.5 0t10.5-10.5q3-7.5 0-15T406 363q-39-16-101.5-16T202 363q-8 3-11 10.5t0 15q3 7.5 10.5 10.5t15.5 0zm0-125q32-13 87-13t88 13q7 3 14.5 0t10.5-10.5q3-7.5 0-15T406 238q-39-16-101.5-16T202 238q-8 3-11 10.5t0 15q3 7.5 10.5 10.5t15.5 0zm590 346q-44-17-102-17t-102 17q-7 3-10.5 10.5t-.5 15q3 7.5 10.5 11t15.5.5q38-15 88-15t87 15q2 1 7.5 1t10.5-3.5q5-3.5 7-8.5 3-8-.5-15.5T807 620zm0-125q-44-17-102-17t-102 17q-7 3-10.5 10.5t-.5 15q3 7.5 10.5 11t15.5.5q38-15 88-15t87 15l7 1q6 0 11-3.5t7-8.5q3-8-.5-15.5T807 495zm-49 390q-4-11-15-12t-18 7.5q-7 8.5-2.5 19.5t15 11.5q10.5.5 18-7.5t2.5-19z"/></svg>