<svg viewBox="0 0 1244 1083.753" xmlns="http://www.w3.org/2000/svg"><path d="M863 582h-23V447q0-37-27-66l-35-34q5-10 5-20 0-16-13-31l-15-14q-13-13-30-13t-32 13q-13 15-13 32t13 30l14 15q15 13 31 13 11 0 19-5l35 35q19 19 19 45v135h-56v-79q0-41-25.5-73.5T664 387l-101-25v-36q26-16 41-43t15-58V120q0-32-16-59.5T559.5 17Q532 1 500 1t-59.5 16Q413 33 397 60.5T381 120v105q0 31 15 58t41 43v36l-101 25q-40 10-65.5 42.5T245 503v79h-56V447q0-26 19-45l35-35q10 5 19 5 18 0 31-13l14-15q13-12 13-30.5T307 282q-13-13-31-13t-31 13l-15 14q-13 15-13 31 0 10 5 20l-34 34q-28 28-28 66v135h-23q-6 0-10.5 4.5T122 597v59q0 6 4.5 10t10.5 4h13v116q0 6 4.5 10.5T165 801q6 0 10-4.5t4-10.5V670h642v116q0 6 4 10.5t10 4.5q6 0 10.5-4.5T850 786V670h13q6 0 10.5-4t4.5-10v-59q0-6-4.5-10.5T863 582zM728 338l-14-14q-5-5-5-10.5t5-10.5q5-5 10.5-5t10.5 5l14 14q4 4 4 10.5t-4 10.5q-4 4-10.5 4t-10.5-4zm-477-21l14-14q5-5 10.5-5t10.5 5h1q4 6 4 10.5t-4 10.5l-15 14q-4 4-10.5 4t-10.5-4q-4-4-4-10.5t4-10.5zm143 86q10 36 39.5 58.5T500 484q37 0 66.5-22.5T606 403l29 7q-12 46-49.5 75T500 514q-48 0-85.5-29T365 410l29-7zm16-283q0-37 26.5-63.5T500 30q37 0 63.5 26.5T590 120v25H410v-25zm0 105v-51h180v51q0 37-26.5 63.5T500 315q-37 0-63.5-26.5T410 225zm90 119q16 0 34-5v35q0 5 3 9t8 5l33 8q-8 26-29.5 42.5T500 455q-27 0-48.5-16.5T422 396l33-8q5-1 8-5t3-9v-35q18 5 34 5zM152 611h314q6 0 10-4t4-10q0-6-4-10.5t-10-4.5H364v-38q0-6-4-10t-10-4q-6 0-10.5 4t-4.5 10v38h-61v-79q0-29 17.5-53t45.5-33q12 50 54 86 22 19 50.5 29.5T500 543q30 0 58.5-10.5T610 503q40-36 54-86 28 9 45 33t17 53v79h-61v-38q0-6-4.5-10t-10.5-4q-6 0-10 4t-4 10v38H534q-6 0-10 4.5t-4 10.5q0 6 4 10t10 4h314v30H152v-30zm515 301v-78q0-6-4.5-10t-10.5-4h-78l-64-64q-4-5-10-5t-10 5l-64 64h-78q-6 0-10.5 4t-4.5 10v78l-63 64q-4 4-4 10t4 10.5q4 4.5 10 4.5t10-4l68-68q5-5 5-11v-69h69q6 0 10-4l58-58 58 58q4 4 10 4h70v69q0 7 4 11l68 68q4 4 10.5 4t10.5-4.5q4-4.5 4-10.5t-4-10l-64-64zm-59 25v-44q0-6-4.5-10t-10.5-4h-43l-40-39q-4-5-10-5t-10 5l-40 39h-43q-6 0-10.5 4t-4.5 10v44l-39 39q-4 4-4 10t4.5 10.5q4.5 4.5 10.5 4.5t10-4l43-44q5-3 5-10v-35h35q6 0 10-4l33-33 33 33q4 4 11 4h34v35q0 7 5 10l43 44q4 4 10.5 4t11-4.5Q652 992 652 986t-5-10l-39-39zm227-97q-6 0-10 4.5t-4 10.5v131q0 6 4 10.5t10 4.5q6 0 10.5-4.5T850 986V855q0-6-4-10.5t-11-4.5zm-670 0q-6 0-10.5 4.5T150 855v131q0 6 4.5 10.5t10.5 4.5q6 0 10-4.5t4-10.5V855q0-6-4-10.5t-10-4.5z"/></svg>