<svg viewBox="0 0 1244 1083.753" xmlns="http://www.w3.org/2000/svg"><path d="M891 152q10-9 16.5-24t6.5-32q0-32-23-55t-55-23q-17 0-32 6.5T780 41l-59 65q-11-7-25-10V48q0-19-13.5-33T650 1H337q-19 0-33 13.5T290 48v48q-27 6-44.5 27.5T228 173v473L95 792q-9 10-8.5 23t9.5 22q9 9 22 9t22-9l88-80v72q0 28 17.5 49.5T290 906v48q0 19 14 33t33 14h313q19 0 32.5-14t13.5-33v-48q27-6 45-27.5t18-49.5V508l68-64q39-36 57-85 18-47 15-97t-27-94l19-16zm-88-89q14-14 33.5-14t33 13.5Q883 76 883 95.5T869 129l-14 12q-7-9-19-23l11-11q5-5 5-11.5t-4.5-11q-4.5-4.5-11-4.5T825 85l-44 44q-7 7-3.5 17t14.5 10q4 0 7.5-2t9.5-9l5-5 1 1q12 15 17 22L547 423h-73l261-286q1-1 0 0t9-10l59-64zm-75 391v31H259v-31h469zm-32-125h32v31h-66l34-31zm-68 63h100v31H594l34-31zm-369 31v-31h201l-28 31H259zm230-63H259v-31h258l-28 31zm57-62H259v-31h315l-28 31zm57-63H259v-31h372l-28 31zM260 610h-1v-31h30l-29 31zm-1-62v-31h469v31H259zm469 31v31H388l34-31h306zm-374 63h374v31H320l34-31zm-68 62h442v31H259v-7l27-24zm-27 63h469v31H259v-31zm62-719q0-7 4.5-11.5T337 32h313q6 0 10.5 4.5T665 48v47H321V48zm-15 78h375q10 0 18 4l-39 43H259q0-20 14-33.5t33-13.5zM119 814q-1 1-1.5.5t.5-1.5l213-234h45L119 814zm546 140q0 7-4.5 11.5T650 970H337q-7 0-11.5-4.5T321 954v-47h344v47zm16-78H306q-19 0-33-14t-14-33h469q0 19-13.5 33T681 876zm124-454l-46 43V272l89-82q28 57 17 121.5T805 422z"/></svg>