<svg viewBox="0 0 1244 1083.753" xmlns="http://www.w3.org/2000/svg"><path d="M664 387l-101-25v-36q26-16 41-43t15-58V120q0-32-16-59.5T559.5 17Q532 1 500 1t-59.5 16Q413 33 397 60.5T381 120v105q0 31 15 58t41 43v36l-101 25q-40 10-65.5 42.5T245 503v56q0 6 4 10t11 4q7 0 10.5-4t3.5-10v-56q0-29 17.5-53t45.5-33q12 50 54 86 22 19 50.5 29.5T500 543q30 0 58.5-10.5T610 503q40-36 54-86 28 9 45 33t17 53v56q0 7 4 11t11 4q7 0 10.5-4t3.5-11v-56q0-41-25.5-73.5T664 387zM410 120q0-37 26.5-63.5T500 30q37 0 63.5 26.5T590 120v25H410v-25zm0 105v-51h180v51q0 37-26.5 63.5T500 315q-37 0-63.5-26.5T410 225zm90 119q16 0 34-5v35q0 5 3 9t8 5l33 8q-8 26-29.5 42.5T500 455q-27 0-48.5-16.5T422 396l33-8q5-1 8-5t3-9v-35q18 5 34 5zm0 170q-48 0-85.5-29T365 410l29-7q10 36 39.5 58.5T500 484q37 0 66.5-22.5T606 403l29 7q-12 46-49.5 75T500 514zm241 99q-6 0-10.5 4.5T726 628v58q0 18-13 31t-32 13H577q8-13 8-30v-1q0-16-8-30h73q6 0 10.5-4t4.5-10V544q0-6-4.5-10t-10.5-4q-6 0-10 4t-4 10v96H364v-96q0-6-4-10t-10-4q-6 0-10.5 4t-4.5 10v111q0 6 4.5 10t10.5 4h116v61H319q-19 0-32-13t-13-31v-58q0-6-4-10.5t-10-4.5q-6 0-10.5 4.5T245 628v58q0 26 16.5 46.5T303 758l-19 227q0 6 4 10.5t10 5.5h1q6 0 10-4t5-9l18-228h336l19 228q0 5 4.5 9t9.5 4h1q6-1 10-5.5t4-10.5l-19-227q25-5 41.5-25.5T755 686v-58q0-6-4-10.5t-10-4.5zM495 730v-61h31q12 0 21 9t9 21v1q0 13-9 21.5t-21 8.5h-31zm141 119h-51q-6 0-10.5 4.5T570 864q0 6 4.5 10.5T585 879h51q6 0 10-4.5t4-10.5q0-6-4-10.5t-10-4.5zm-221 0h-51q-6 0-10 4.5t-4 10.5q0 6 4 10.5t10 4.5h51q6 0 10.5-4.5T430 864q0-6-4.5-10.5T415 849z"/></svg>