<svg viewBox="0 0 1244 1083.753" xmlns="http://www.w3.org/2000/svg"><path d="M976 637q-4-38-26-69t-55.5-49Q861 501 822 501q-36 0-94-16-64-17-121-45-68-34-110-76-23-24-46-34-16-38-33-57-27-30-65-30-26 0-46 10t-27 28q-16 35 21 85-7 3-14 3-16 0-36-6-13-4-38-14-33-13-51-18-31-8-60-8-61 0-81 76-6 24-8 59-1 20-1 62v87Q0 620 0 640v69q0 21 13.5 35.5T47 759h897q23 0 39.5-16.5T1000 703v-20q0-14-6.5-26T976 637zM721 516q63 17 101 17 43 0 76 26.5t43 67.5h-74q-82 0-333-17-2-25 3-43t16.5-26.5q11.5-8.5 27-9T613 539q21 10 43 9.5t41-10.5q16-9 24-22zM309 294q5-8 16.5-13t27.5-5q20 0 35 12 13 12 23 34-19 0-40 9-15 5-35 18-4 2-5 3-30-36-22-58zm-207 62q25 0 53 7 17 5 45.5 16.5T244 395q23 6 43 6 16 0 34-8 12-4 31-16 29-17 44-21 25-6 49 7-18 4-40 14-13 6-38 18l-13 7q-26 14-39 20-21 9-34 10-37 1-79-12-27-9-71-30l-9-4q-33-15-48-20 10-10 28-10zm-49 51q1-5 3-13 25 8 61 25 43 21 72 31 44 14 84 14h10q17-1 39-10 13-5 42-20l6-3q33-18 53-26 30-13 55-14 40 38 98 69 52 27 110 46-1 1-5 3-8 5-20 6-17 2-34-6-25-11-49.5-10T535 514q-38 29-34 94l-40-2q-160-10-220-13-37-54-99-90-48-28-97-38 2-37 8-58zm-9 90q39 10 76 30 47 26 79 64l-37-1H47q-2 0-3 1v-94zm470 229H47q-7 0-11-5t-4-12v-69q0-7 4-12t11-5h115q71 0 337 17l65 5q3 10 2.5 16t-1.5 7q-3 12-51 58zm303 0H560q27-28 34-44l1-1q6-14 2-34l39 2q141 8 191 10 0 33-10 67zm151-23q0 10-7 16.5t-17 6.5h-93q9-36 8-67h85q10 0 17 7t7 17v20zm-738-45H121q-7 0-11.5 5t-4.5 12q0 7 4.5 11.5T121 691h109q7 0 12-5t5-11q0-6-5-11.5t-12-5.5zm21-136h123q7 0 11.5-4.5T390 506q0-7-4.5-11.5T374 490H251q-7 0-11.5 4.5T235 506q0 7 4.5 11.5T251 522zm17 33q0 7 4.5 12t11.5 5h123q7 0 11.5-5t4.5-12q0-7-4.5-11.5T407 539H284q-7 0-11.5 4.5T268 555z"/></svg>