<svg viewBox="0 0 1244 1083.753" xmlns="http://www.w3.org/2000/svg"><path d="M146 797h2q5 0 9-3.5t5-9.5l38-446q1-10 8-16t16-6h552q9 0 16 6t8 16l8 93q1 6 5.5 10t10.5 3.5q6-.5 10-5t3-10.5l-8-94q-1-21-16.5-35T776 286h-76l6-28q4-17-1.5-34T686 195l-14-13q-7-7-10-16.5t-1-18.5l21-94q4-14-4-26.5T656 11l-40-9q-14-3-26.5 4.5T574 28l-22 95q-1 9-8 16.5T528 150l-19 6q-17 5-28.5 18T465 204l-19 82h-95L322 93q-1-6 3-11.5t10-7.5l126-19q6 0 12 3t6 11l8 49q1 6 5.5 9.5T503 130q6-1 9.5-5.5T515 114l-7-49q-3-19-18-30t-34-9L331 45q-19 3-30 18t-8 34l28 189h-97q-21 0-36.5 14T171 335l-38 446q-1 6 3 11t10 5zM609 30l40 9q2 1 4 3t1 4l-8 34-52-11 8-34q2-5 7-5zM493 211q2-10 9-17.5t16-10.5l18-5q17-5 29-18.5t16-30.5l7-31 52 11-7 32q-4 17 1.5 34t18.5 29l14 13q14 14 11 35l-8 34H476l17-75zm388 732l-38-444q-1-6-5.5-10t-10.5-3.5q-6 .5-10 5t-3 10.5l38 444q0 12-6.5 19.5T827 972H173q-12 0-18.5-7.5T148 945l9-96q0-6-4-10.5t-10-5q-6-.5-10.5 3.5t-5.5 10l-8 96q-2 24 13.5 41t40.5 17h654q25 0 40.5-17t13.5-41zM500 721q46 0 84.5-23t61.5-61.5q23-38.5 23-84.5v-87q17-5 27-18.5t10-31.5q0-21-15-36.5T655 363q-21 0-36.5 15.5T603 415q0 18 10 31.5t27 18.5v87q0 38-19 70t-51 50.5Q538 691 500 691t-70-18.5Q398 654 379 622t-19-70v-87q17-5 27-18.5t10-31.5q0-21-15-36.5T346 363q-21 0-36.5 15.5T294 415q0 18 10 31.5t27 18.5v87q0 46 23 84.5t61.5 61.5q38.5 23 84.5 23zm132-306q0-9 6.5-15.5T655 393q10 0 16 6.5t6 15.5q0 9-6.5 16t-15.5 7q-9 0-16-6.5t-7-16.5zm-309 0q0-9 6.5-15.5T346 393q10 0 16 6.5t6 15.5q0 9-6.5 16t-15.5 7q-9 0-16-6.5t-7-16.5z"/></svg>