<svg viewBox="0 0 1244 1083.753" xmlns="http://www.w3.org/2000/svg"><path d="M422 858q-3-7-10.5-10.5T397 847q-7 3-10.5 10.5t-.5 15q3 7.5 10.5 10.5t15 0q7.5-3 10.5-10.5t0-14.5zm391-362q-7-4-14.5-1.5T787 504L650 742q-4 7-1.5 15t9.5 12q6 2 9 2 13 0 17-10l136-238q5-7 2.5-15t-9.5-12zm-96 50q0-26-17-44.5T660 483q-23 0-40.5 18.5T602 546q0 26 17 45t41 19q24 0 40.5-19t16.5-45zm-75 0q0-10 5.5-17t12.5-7q7 0 12.5 7t5.5 17q0 10-5.5 17.5t-13 7.5q-7.5 0-12.5-7.5t-5-17.5zm165 113q-24 0-41 19t-17 45q0 26 17 45.5t41 19.5q24 0 41-19t17-46q0-27-17-45.5T807 659zm0 89q-8 0-13.5-7.5T788 723q0-10 5.5-17t13.5-7q8 0 13.5 7t5.5 17q0 10-6 17.5t-13 7.5zm178-115q0-65-31.5-121T868 421.5Q814 387 749 383V191q0-8-5.5-14t-13.5-6H583q-2-46-27-85t-65-62Q451 1 404 1t-87 23q-40 23-65 62t-27 85H78q-8 0-13.5 6T59 191v430q0 120-43 237l-1 7v117q0 8 6 13.5t14 5.5h738q8 0 14-5.5t6-13.5V878q55-13 98.5-48.5t68.5-87Q985 691 985 633zM564 280q8 0 13.5 6t5.5 13.5q0 7.5-5.5 13.5t-13.5 6q-8 0-14-5.5t-6-13.5q0-8 6-14t14-6zM404 40q36 0 67.5 17.5t51 47.5q19.5 30 21.5 66H264q2-36 21.5-66t51-47.5Q368 40 404 40zM245 280q8 0 13.5 6t5.5 13.5q0 7.5-5.5 13.5t-13.5 6q-8 0-14-6t-6-13.5q0-7.5 6-13.5t14-6zm509 682H54v-77h264q8 0 13.5-6t5.5-14q0-8-5.5-13.5T318 846H62q36-110 36-225V210h127v35q-18 6-28.5 21T186 300q0 24 17 41t42 17q25 0 41.5-17t16.5-41q0-19-10.5-34T264 245v-35h280v35q-18 6-28.5 21T505 300q0 24 17 41t42 17q25 0 41.5-17t16.5-41q0-19-10.5-34T583 245v-35h127v173q-63 6-115 41.5T513 515q-30 55-30 119t31 121q31 57 85 91H488q-8 0-13.5 5.5T469 865q0 8 5.5 14t13.5 6h266v77zm14-119q-16 3-34 3-58 0-106.5-29t-77-77.5Q522 691 522 633.5t29-106q29-48.5 77.5-77.5t106-29q57.5 0 106 28.5t77 77Q946 575 946 633q0 52-23.5 97t-64 75Q818 835 768 843z"/></svg>