<svg viewBox="0 0 1244 1083.753" xmlns="http://www.w3.org/2000/svg"><path d="M953 157H844q0-56-36-99-34-41-85-53-55-13-106 13Q567-7 513 5q-52 12-86 53-36 43-36 99H266q-19 0-33 13.5T219 204v360H47q-19 0-33 13.5T0 611v343q0 19 14 33t33 14h406q20 0 33.5-14t13.5-33V814h453q20 0 33.5-14t13.5-33V204q0-20-13.5-33.5T953 157zm-140 0H703q0-35-14.5-66T649 39q39-13 77.5-.5t62.5 45q24 32.5 24 73.5zM617 54q25 18 40 45t15 58H563q0-31 14.5-58.5T617 54zm-31-15q-25 22-40 52.5T531 157H422q0-41 24-73.5t62.5-45Q547 26 586 39zM31 954V611q0-7 4.5-11.5T47 595h344q6 0 10.5 4.5T406 611v343q0 7-4.5 11.5T391 970H47q-7 0-11.5-4.5T31 954zm395-415q-23-23-23-55.5t23-55q23-22.5 55-22.5t55 23q5 4 11.5 4t10.5-4q23-23 56-23t55 23q22 23 22.5 54.5T669 539L547 661l-47-47v-3q0-20-13.5-33.5T453 564h-3l-24-25zm43 415q0 7-4.5 11.5T453 970h-18l1-2q2-4 2-26V611q0-9-3-16h18q7 0 11.5 4.5T469 611v343zm31-296l36 36q5 4 11.5 4t10.5-4l133-133q21-21 28-49.5t0-56.5q-7-28-28-49-30-29-71-31.5T547 397q-32-25-73-22.5T403 406q-20 21-28 48.5t-.5 56.5q7.5 29 31.5 53H250V204q0-6 4.5-10.5T266 189h125v78h-16q-6 0-10.5 4.5T360 282q0 6 4.5 11t10.5 5h63q6 0 10.5-4.5T453 282q0-7-4.5-11t-10.5-4h-16v-78h250v78h-16q-6 0-10.5 4.5T641 282q0 6 4.5 11t10.5 5h63q7 0 11.5-4.5T735 282q0-7-4.5-11t-11.5-4h-16v-78h125q7 0 11.5 4.5T844 204v563q0 6-4.5 10.5T828 782H500V658zm469 109q0 6-4.5 10.5T953 782h-81l1-2q2-3 2-38V204q0-8-3-15h81q7 0 11.5 4.5T969 204v563zM281 626q-6 0-10.5 4.5T266 642v62q0 19-13.5 33t-33 14q-19.5 0-33.5-14t-14-33v-62q0-7-4.5-11.5T156 626q-7 0-11 4.5t-4 11.5v62q0 32 23 55t55 23q32 0 55-23t23-55v-62q0-7-4.5-11.5T281 626z"/></svg>