<svg viewBox="0 0 1244 1083.753" xmlns="http://www.w3.org/2000/svg"><path d="M979 32H21q-9 0-15 6T0 52v898q0 8 6 14t15 6h431q8 0 13.5-5.5T472 952l28-223 28 223q1 7 6.5 12.5T548 970h431q9 0 15-6t6-14V52q0-8-6-14t-15-6zM763 73h91v62h-91V73zm-484 0h443v62H586q-2-11-5-22l-1-3q-2-8-9.5-12.5T555 95q-8 2-12.5 10t-2.5 16l4 14h-88l4-14q2-8-2.5-16T445 95q-8-2-15.5 2.5T420 110l-1 3q-3 11-5 22H279V73zm-133 0h91v62h-91V73zM41 73h64v62H41V73zm918 449l-69-70q-7-6-15.5-6t-14.5 6q-6 6-6 14.5t6 15.5l99 98v76l-69-69q-7-6-15.5-6t-14.5 6q-6 6-6 14.5t6 14.5l99 98v215H566l-45-370q-2-8-8-13t-13.5-5q-7.5 0-13 5.5T480 559l-46 370H41V714l99-98q6-6 6-14.5t-6-14.5q-6-6-14.5-6t-14.5 6l-70 69v-76l99-98q6-7 6-15.5t-6-14.5q-6-6-14.5-6t-14.5 6l-70 70V176h367q-10 63-10 158 0 8 6 14.5t14 6.5q8 0 14.5-6.5T439 334q0-84 10-158h102q10 74 10 158 0 8 6 14.5t14.5 6.5q8.5 0 14.5-6.5t6-14.5q0-90-9-158h366v346zm0-387h-63V73h63v62z"/></svg>