<svg viewBox="0 0 1244 1083.753" xmlns="http://www.w3.org/2000/svg"><path d="M439 560q6 0 10.5-4.5T454 545q0-6-5-10l-18-18q-4-5-10-5t-10.5 4.5Q406 521 406 527t4 11l18 18q4 4 11 4zm0 0zm197-197q4 0 9.5-4.5T651 348q0-6-5-10l-18-18q-4-5-10-5t-10 4.5q-4 4.5-4 10.5t4 11l18 18q4 4 10 4zm0 0zm-123 92q-6 0-10.5 4t-5 10q-.5 6 3.5 10.5t10 5.5h4q11 0 22.5-5t19.5-13q20-20 18-47 0-6-4.5-10t-11-3.5q-6.5.5-10.5 5t-3 10.5q0 13-9 24-12 10-24 9zm0 0zm134 438q6 0 10.5-4.5T662 878q0-6-5-10l-55-55q-4-5-10-5t-10.5 4.5Q577 817 577 823t4 10l55 56q4 4 11 4zm0 0zm116-242q-4-4-10-4t-10.5 4q-4.5 4-4.5 10t4 11l56 56q4 4 10 4t10.5-4.5Q823 723 823 717t-5-10l-55-56zm0 0zm140-161q-4 4-4 10t4 11l56 56q4 4 10 4t10.5-4.5Q984 562 984 556t-5-10l-55-56q-4-4-10-4t-11 4zm0 0zM758 839q-4 4-4 10t4 10l56 56q4 4 10.5 4t10.5-4.5q4-4.5 4-10.5t-4-10l-56-55q-4-5-10-5t-11 5zm0 0zm161-162q-4 4-4 10t4 11l56 56q5 4 11 4t10-4.5q4-4.5 4-10.5t-4-10l-56-56q-4-4-10-4t-11 4zm0 0zM10 140l180 55 92 91q-14 25-11 54t24 50l8 7q-25 29-39.5 64T247 534q-1 6 3 10.5t10 5q6 .5 10.5-4T276 535q2-36 17-69t41-59l164-164q38-38 89.5-51t102.5 0q51 13 89 51l55 55-446 445-54-54q-42-42-54-100-2-6-7-9t-11-2q-6 1-9.5 6t-1.5 11q14 66 62 114l56 57q-7 14-4.5 29.5T378 822l31 31q14 14 34.5 14t34.5-14l311-311q4-5 4-11t-4-10q-4-4-10-4t-11 4L613 676Q458 832 457 832q-6 6-14 6t-14-6l-30-30q-6-6-6-14t6-14l466-466q5-5 13.5-5t13.5 5l31 31q5 5 5.5 13.5T923 366L809 480q-4 4-4 10t4.5 10.5Q814 505 820 505t10-4l114-114q14-14 14-34.5T944 318l-31-31q-11-11-27-13.5t-30 5.5l-56-57q-42-42-98-57.5T589 161q-57 12-101 51l-8-7q-25-25-60-25-23 0-43 11L274 88q-12-12-28-17L19 2Q12 0 6 4.5T0 16v110q0 5 3 9t7 5zm450 85l7 8-144 143-7-7q-16-16-17-37t13-38q1-2 72-73 15-12 36.5-12t39.5 16zM29 35l208 64q9 3 16 10l101 101-54 53-92-91q-1-2-6-4L29 115V35zm0 0z"/></svg>