<svg viewBox="0 0 1244 1083.753" xmlns="http://www.w3.org/2000/svg"><path d="M264 141q-2-8-10-8l-57 10q-3 1-5.5 3.5t-1.5 6q1 3.5 3.5 5.5t5.5 2l58-9q4-1 6-4t1-6zm140 77q-12 0-21 8.5t-9 20.5q0 12 9 21t21 9q12 0 20.5-9t8.5-21q0-12-8.5-20.5T404 218zm0 41q-5 0-8.5-3.5T392 247q0-5 3.5-8t8.5-3q5 0 8 3t3 8q0 5-3 8.5t-8 3.5zm-131-25q-12 0-21 8.5t-9 20.5q0 12 9 20.5t21 8.5q12 0 20.5-8.5T302 263q0-12-8.5-20.5T273 234zm0 41q-5 0-8.5-3.5T261 263q0-5 3.5-8t8.5-3q5 0 8 3t3 8q0 5-3 8.5t-8 3.5zm-131-23q-13 0-21.5 8.5T112 281q0 12 8.5 21t21.5 9q13 0 21-8.5t8-21.5q0-13-8.5-21t-20.5-8zm0 41q-5 0-8.5-3.5T130 281q0-5 3.5-8t8.5-3q5 0 8 3t3 8q0 5-3 8.5t-8 3.5zm362 652l454-77q7-2 7-8v-80l28-5q3 0 5-2.5t2-5.5V651q0-4-3.5-6.5T990 642l-25 3V361l26 2q5 0 7-2t2-6V239q0-3-2-5.5t-5-3.5l-28-4v-84q0-6-7-8L504 57v888zm0-888q-1 0-1.5-.5t-1.5.5L46 134q-7 2-7 8v83l-32 5q-3 1-5 3.5T0 239v116q0 4 2.5 6t6.5 2l30-3v285l-29-3q-3 0-6.5 2.5T0 651v116q0 3 2 5.5t5 2.5l32 5v80q0 6 7 8l455 77h3V57zm479 210l-54-8q-4 0-7 2t-3.5 5.5q-.5 3.5 1.5 6.5t6 3l57 9v60l-472-50V172l472 74v21zm-36-44l-436-69v-33l92 14 1 1q7 0 9-8 1-4-1.5-6.5T606 118l-95-15V76l436 74v73zM56 185l87-15q3-1 5.5-3.5t1.5-6.5q-1-4-3.5-6t-6.5-1l-84 14v-17l437-74v78L56 223v-38zM17 291l53-6q3-1 5.5-3.5t2-6.5q-.5-4-3.5-6t-6-2l-51 6v-27l476-74v123L17 345v-54zm39 67l392-41v88q0 4 2.5 6.5t6.5 2.5q4 0 6.5-2.5t2.5-6.5v-90l27-3v381l-44-4v-55q0-4-2-6.5t-6-2.5q-4 0-6.5 2.5T432 634v53L56 647V358zM17 736l51 7h2q6 0 8-7 1-4-1.5-6.5T71 726l-54-7v-59l476 51v123L17 759v-23zm39 116v-29l125 22q3 0 5.5-2t3.5-5q0-8-7-10L56 806v-23l437 68v75L56 852zm891 0l-436 74v-35l107-15q4-1 6-3.5t1.5-6.5q-.5-4-3.5-6t-7-2l-104 15v-22l408-64v21q0 4 2.5 6t6 2q3.5 0 6-2t2.5-6v-24l11-2v70zm36-175l-51 8q-3 0-5.5 3t-1.5 7q2 7 9 7l49-7v64l-472 75V711l472-51v17zm-36-30l-13 1v-38q0-4-2.5-6.5t-6-2.5q-3.5 0-6 2.5T917 610v40l-365 39v-61q0-4-2.5-6.5T543 619q-4 0-6.5 2.5T534 628v63l-23 2V312l436 47v288zM596 277q13 0 21.5-9t8.5-21q0-12-8.5-20.5t-21-8.5q-12.5 0-21 8.5T567 247q0 12 8.5 21t20.5 9zm0-41q5 0 8.5 3t3.5 8q0 5-3.5 8.5T596 259q-5 0-8-3.5t-3-8.5q0-5 3.5-8t7.5-3zm132 56q12 0 20.5-8.5T757 263q0-12-8.5-20.5t-21-8.5q-12.5 0-21 8.5T698 263q0 12 8.5 20.5T728 292zm0-40q5 0 8 3t3 8q0 5-3 8.5t-8 3.5q-5 0-8.5-3.5T716 263q0-5 3.5-8t8.5-3zm131 59q12 0 20.5-8.5T888 281q0-13-8.5-21t-20.5-8q-12 0-21 8.5t-9 20.5q0 12 9 21t21 9zm0-41q5 0 8 3t3 8q0 5-3 8.5t-8 3.5q-5 0-8.5-3.5T847 281q0-5 3.5-8t8.5-3zM596 787q13 0 21.5-8.5T626 758q0-12-8.5-20.5t-21-8.5q-12.5 0-21 8.5T567 758q0 12 8.5 20.5T596 787zm0-41q5 0 8.5 3.5t3.5 8.5q0 5-3.5 8.5T596 770q-5 0-8-3.5t-3-8.5q0-5 3.5-8.5t7.5-3.5zm132 25q12 0 20.5-8.5T757 742q0-12-8.5-20.5t-21-8.5q-12.5 0-21 8.5T698 742q0 12 8.5 20.5T728 771zm0-40q5 0 8 3t3 8q0 5-3 8.5t-8 3.5q-5 0-8.5-3.5T716 742q0-5 3.5-8t8.5-3zm131 22q12 0 20.5-8.5T888 724q0-12-8.5-20.5T859 695q-12 0-21 8.5t-9 20.5q0 12 9 20.5t21 8.5zm0-41q4 0 7.5 3.5t3.5 8.5q0 5-3 8.5t-8 3.5q-5 0-8.5-3.5T847 724q0-5 3.5-8.5t8.5-3.5zm-455 17q-12 0-21 8.5t-9 20.5q0 12 9 20.5t21 8.5q12 0 20.5-8.5T433 758q0-12-8.5-20.5T404 729zm0 41q-5 0-8.5-3.5T392 758q0-5 3.5-8.5t8-3.5q4.5 0 8 3.5t3.5 8.5q0 5-3 8.5t-8 3.5zm-131-57q-12 0-21 8.5t-9 20.5q0 12 9 20.5t21 8.5q12 0 20.5-8.5T302 742q0-12-8.5-20.5T273 713zm0 41q-5 0-8.5-3.5T261 742q0-5 3.5-8t8.5-3q5 0 8 3t3 8q0 5-3 8.5t-8 3.5zm-131-59q-13 0-21.5 8.5T112 724q0 12 8.5 20.5T142 753q13 0 21-8.5t8-20.5q0-12-8.5-20.5T142 695zm0 41q-5 0-8.5-3.5T130 724q0-5 3.5-8.5t8-3.5q4.5 0 8 3.5t3.5 8.5q0 5-3 8.5t-8 3.5zm238-242v-.5q0-.5-1-.5l35-40q8-10 8.5-22.5T415 409l-32-35q-7-9-19.5-9T342 376l-35 41q-2-2-2-3l-32-35q-7-9-19.5-9T232 381l-35 41-34-38q-9-9-19-9-13 0-22 11l-33 38q-8 10-8 22.5t8 21.5l31 35q1 0 1 1l-35 40q-8 10-8 22.5t8 20.5l31 36q8 8 21 8t20-10l36-41q0 2 2 2l31 36q8 8 21 8t20-10l33-38q2-2 2-3l3 2 31 36q8 8 19 8 13 0 22-10l33-38q8-10 8.5-22.5T412 529l-32-35zm-76 43q0-1-1-2l-33-37h-1l1-1q1 0 1-1l33-38q2-2 2-3 2 2 3 2l32 36-.5.5q-.5.5-.5 1.5l-36 42zm-110 5q0-1-1-2l-32-36q-1 0-1-1l1-2 36-41q0 1 2 3l32 35-.5.5q-.5.5-.5 1.5l-36 42zm128-117l33-38q4-4 8-4t7 3l32 35q3 4 3 10t-4 10l-33 39q-4 4-8 4t-7-3l-31-35q-4-4-4-10.5t4-10.5zm-110 5l33-38q4-4 9-4t6 3l32 35q3 4 3 10t-4 10l-33 39q-3 4-7.5 4t-7.5-3l-31-35q-4-4-4-10.5t4-10.5zm-110 26q-4-4-3.5-10.5T103 435l33-38q3-4 7.5-4t7.5 3l31 35q4 4 3.5 10t-4.5 11l-33 38q-3 4-7.5 4t-7.5-3l-31-35zm76 115l-33 39q-3 4-7.5 4t-7.5-3l-31-35q-4-4-3.5-10t4.5-11l33-38q3-4 7.5-4t7.5 3l31 35q4 4 3.5 9.5T178 571zm110-5l-33 39q-4 4-8 4t-7-3l-31-35q-4-4-3.5-10.5T210 550l32-38q4-4 9-4t6 3l32 35q3 4 3 10t-4 10zm110-5l-33 39q-4 4-8 4t-7-3l-31-35q-4-4-4-10.5t4-10.5l33-38q4-4 8-4t7 3l32 35q3 4 3 10t-4 10zm211-70l2 2-32 36q-8 9-8 21.5t8 22.5l33 38q9 10 22 10 11 0 19-8l32-36q0-1 1-1l1-1q0 1 2 3l33 38q9 10 22 10 11 0 19-8l31-36q1 0 3-2 0 1 2 3l33 38q7 10 20 10t21-8l31-36q8-8 8-20.5t-8-22.5l-34-39q0-1-.5-1.5t.5-.5l31-35q8-9 8-21.5t-8-22.5l-33-38q-9-11-22-11-10 0-19 9l-32 35q0 1-2 3l-35-41q-9-11-21-11t-20 9l-32 35q0 1-2 3 0-1-2-3l-33-38q-9-11-21-11t-20 9l-31 35q-8 9-8 21.5t8 22.5l33 38zm75-36q0 1 2 3l35 40h-1l-32 36q0 1-2 3 0-1-2-3l-34-39q0-1-1-1l35-39zm110 5q0 1 2 3l33 38q0 2 2 2h-1l-34 39-36-42q0-1-.5-1.5t.5-.5l34-38zM672 566l-32 35q-3 3-6 3t-9-4l-33-39q-4-4-4-10t3-10l32-35q3-3 7-3t8 4l33 38q4 4 4 10.5t-3 10.5zm109 5l-31 35q-3 3-6 3t-9-4l-33-39q-4-4-4-10t3-10l32-35q3-3 7-3t8 4l33 38q4 4 4 10.5t-4 10.5zm110-16q4 4 4 10.5t-4 10.5l-31 35q-3 3-7.5 3t-7.5-4l-33-39q-4-4-4-10t3-10l32-35q2-3 6.5-3t8.5 4l33 38zm-83-124l32-35q2-3 6.5-3t8.5 4l33 38q4 4 4 10.5t-4 10.5l-31 35q-3 3-7.5 3t-7.5-4l-33-38q-4-4-4-10.5t3-10.5zm-110-5l32-35q3-3 7-3t8 4l33 38q4 4 4 10.5t-3 10.5l-32 35q-3 3-7 3t-8-4l-33-39q-4-4-4-10t3-10zm-109-5l31-35q3-3 6-3 6 0 9 4l33 38q4 4 4 10.5t-3 10.5l-32 35q-3 3-7 3t-8-4l-33-39q-4-4-4-10t4-10z"/></svg>