<svg viewBox="0 0 1244 1083.753" xmlns="http://www.w3.org/2000/svg"><path d="M933 68q-32-32-73.5-49.5T772 1q-46 0-88 17.5T610 68l-85 85q-2 2-3 4-13 13-39 37-10-2-15-2-21 0-36 15t-15 36q0 4 1 6-51 37-91 56h-3q-57 0-145 18l-2 1q-70 14-100 26-43 17-65 56t-6 79q11 27 37 43.5t59 16.5q25 0 47-9t64-32q44-25 84-52l6-5q42-30 58-45 55-26 121-74l18 19q-46 40-79 60-48 14-113 47-62 31-99 58-1 1-2 1l-20 17q-22 22-31.5 50t-4 55q5.5 27 24.5 46 13 13 30 20t36 7q22 0 43-8.5t38-24.5q5-3 8-7l15-16q37-39 59-63 2-1 4-4l31-37q29-35 45-60 32-22 88-68l9 8q-44 52-69 88-31 20-74 57-47 39-108 100h-1q-22 22-31 50.5t-3.5 55.5q5.5 27 24.5 46 26 26 66 26 23 0 45.5-9.5T471 814q8-8 17-20 39-55 73-130 25-54 33-85 27-40 60-78l19 19q-48 63-74 120-19 21-54 71-26 39-49 80t-31 61q-11 29-8 58.5t18.5 52Q491 985 516 995q17 6 32 6 25 0 48-12.5t39-35.5q10-13 16-29 8-22 19-68 12-50 19-97 8-57 7-86 20-40 56-90 2 1 6 1 21 0 36-15t15-36q0-10-2-15 24-26 37-39 2-1 4-3l85-85q44-44 59-103t0-117.5Q977 112 933 68zM409 533l-1-22q-1-7-6-11.5t-12-4q-7 .5-11.5 5.5t-3.5 12l4 56-46 49v-46q0-7-5-11.5t-12-4.5q-7 0-11.5 4.5T300 572v80q-28 23-58 23-25 0-42-17-19-19-16-50t27-55l12-10 80-8q7-1 11-6t3.5-12q-.5-7-6-11.5T299 502l-13 1q53-29 99-48 55-23 81-23l7 1q0 8-9 25-16 29-55 75zm128-344l25 25q-17 17-26 25l-25-26 26-24zm162 212l-25-25q8-9 25-26l25 25q-8 9-25 26zm48-2l17 16-25 26-17-16q17-17 25-26zm-97-46l-1-2 25-25 1 1q-17 17-25 26zm-25-26l-25-25 26-25 25 25q-17 17-26 25zm-49-48l-16-17 26-25 16 17-26 25zM272 428q-56 37-98 59l23-56q2-7-.5-13t-9-8.5q-6.5-2.5-13 0T166 419l-35 88q-13 4-29 4-23 0-40.5-10.5T37 473q-5-12-3.5-25.5T42 422q9-17 19-24l63 17q1 1 4 1 6 0 10-3.5t6-9.5q2-6-1-12t-10-8l-28-7q35-11 75-19l61 23q1 1 5 1 11 0 16-10 2-7-.5-13t-9.5-9l-9-3q48-8 81.5-8t40.5 7q-1 8-19 26-25 25-74 57zm126-83q0-9-2-13-4-10-17-17 21-13 53-36l26 26q-27 20-60 40zm108 86q0-10-9-21l-3-2q-5-4-9-6l39-31 25 25q-28 24-43 35zm23 223q-13 29-31 61l1-13q1-7-3.5-12.5t-11.5-6q-7-.5-12 4t-6 11.5l-7 78-11 14q-29 27-62 27-26 0-43.5-17.5T327 754q2-29 22-52h80q7 0 11.5-5t4.5-12q0-7-4.5-12t-11.5-5h-46l49-46 57 5q7 0 11.5-4.5t5-11.5q.5-7-4-12t-11.5-6l-22-1q35-30 61.5-46.5T568 529q2 10-3 30-8 36-36 95zm70-138q-3-7-8-12-8-8-21-9 18-23 35-43l25 25-31 39zm56 242l-3-9q-2-7-8.5-9.5t-13-.5q-6.5 2-9 8.5T621 761l23 60q-9 43-19 75l-7-28q-2-7-8-10t-13-1q-7 2-10 7.5t-1 12.5l17 63q-11 13-25.5 20.5T548 968q-11 0-20-4-24-9-33.5-36.5T494 870l88-35q7-2 9.5-8.5t0-13q-2.5-6.5-8.5-9t-13 .5l-56 22q27-51 59-97 36-54 61-78 15-14 23-16 5 7 5 31 2 35-7 91zm31-136q-6-12-17-17-8-2-12-2h-1q21-35 41-60l25 26q-16 23-36 53zm85-77q-4 6-12 6t-13-6L456 255q-6-5-6-12t5.5-12.5q5.5-5.5 13-5.5t12.5 5l290 290q5 7 5 13.5t-5 11.5zm17-55l-26-25q8-9 25-26l25 25-24 26zm48-49L560 165l29-29 276 276-29 29zm74-73l-22 21-276-276 21-22q28-28 63.5-42.5t75-14.5q39.5 0 75 14.5T910 91q28 28 42.5 63.5t14.5 75q0 39.5-14.5 75T910 368z"/></svg>