<svg viewBox="0 0 1244 1083.753" xmlns="http://www.w3.org/2000/svg"><path d="M867 348q36-41 47.5-93T911 151.5Q896 100 858 62T768.5 9Q717-6 664.5 5.5T572 53l-5 5q-19-12-41-9.5T488 67q-19 19-19 45t19 45l6 6-21 96-267 303q-10 11-10.5 26.5T203 616l-18 19q-17 17-20 40.5t8 44.5l-54 53q-26 26-34.5 60t0 68.5q8.5 34.5 34.5 60t60.5 34.5q34.5 9 69 0t59.5-34l309-309q28-28 66.5-28t66 27.5Q777 680 777 719t-27 66L638 897q-5 5-5 13.5t5.5 14Q644 930 652 930t14-6l111-111q26-26 34.5-60t0-68q-8.5-34-34-60T718 590.5q-34-8.5-68.5 0T590 625L281 934q-28 28-67.5 28t-67-28Q119 906 119 867t28-66l53-54q21 12 44.5 8.5T285 735l19-18q13 8 25 8 16 0 30-11l86-76q6-5 6.5-13.5T447 610q-5-6-13.5-6.5T419 608l-86 76q-3 3-7 0l-90-89q-1-2-1-4.5t1-3.5l256-290 132 131-77 68q-6 5-6.5 13.5T545 524q5 6 13 6.5t14-5.5l89-78 96-21 4 4q18 18 45 18t45-18q15-15 18-36.5t-7-39.5l5-6zM235 717q-14 0-23-9.5t-9-22.5q0-13 9-23l18-18 46 46-18 18q-9 9-23 9zM598 82q33-29 75.5-38t84 3Q799 59 830 90t43 72.5q12 41.5 3 84T838 322l-2 2L596 84l2-2zm60 326L512 262l15-66 197 197-66 15zm165-6q-7 7-17 7t-17-7L516 129q-7-7-7-17.5t7-17.5q7-7 17.5-7t17.5 7l136 137 137 137q7 8 6.5 17.5T823 402zM513 555q-4-7-12-8.5t-15 3q-7 4.5-8.5 12.5t3 15q4.5 7 12.5 8.5t14.5-3.5q6.5-5 8-12.5T513 555zm21-106q6-6 6-14t-6-14l-33-33q-6-6-14-6t-14 6q-6 6-5.5 14t5.5 14l33 33q6 5 14 5t14-5z"/></svg>