<svg viewBox="0 0 1244 1083.753" xmlns="http://www.w3.org/2000/svg"><path d="M250 1q-60 0-110 29.5T60.5 110Q31 160 31 220v562q0 60 29.5 110t79.5 79.5q50 29.5 110 29.5t110-29.5q50-29.5 79.5-79.5T469 782V220q0-60-29.5-110T360 30.5Q310 1 250 1zm188 531H63v-62h375v62zM250 970q-51 0-94-25.5T88 876q-25-43-25-94V563h375v219q0 51-25.5 94T344 944.5Q301 970 250 970zm188-532H63V220q0-51 25-94t68-68.5Q199 32 250 32t94 25.5Q387 83 412.5 126t25.5 94v218zM750 1q-60 0-110 29.5T560.5 110Q531 160 531 220v562q0 60 29.5 110t79.5 79.5q50 29.5 110 29.5t110-29.5q50-29.5 79.5-79.5T969 782V220q0-60-29.5-110T860 30.5Q810 1 750 1zm188 781q0 51-25.5 94T844 944.5Q801 970 750 970t-94-25.5Q613 919 588 876t-25-94V220q0-51 25-94t68-68.5Q699 32 750 32t94 25.5Q887 83 912.5 126t25.5 94v562zM313 235H188q0-20-13.5-33.5t-33-13.5q-19.5 0-33.5 13.5T94 235v94q0 19 14 33t33.5 14q19.5 0 33-14t13.5-33h15v31q0 19 14 33t33.5 14q19.5 0 33-14t13.5-33v-31h16q0 19 13.5 33t32.5 14q19 0 33-14t14-33v-94q0-20-13.5-33.5t-33-13.5q-19.5 0-33 13.5T313 235zm-157 94q0 7-4.5 11.5T141 345q-6 0-11-4.5t-5-11.5v-94q0-6 4.5-10.5T141 220q7 0 11 4.5t4 10.5v94zm110 31q0 7-4.5 11.5T250 376q-7 0-11.5-4.5T234 360v-31h32v31zm-78-62v-31h125v31H188zm187-63v94q0 7-4.5 11.5T359 345q-7 0-11-4.5t-4-11.5v-94q0-6 4.5-10.5T359 220q6 0 11 4.5t5 10.5zm-16 391q-19 0-32.5 14T313 673h-16v-31q0-20-13.5-33.5t-33-13.5q-19.5 0-33.5 13.5T203 642v31h-15q0-20-13.5-33.5t-33-13.5q-19.5 0-33.5 13.5T94 673v94q0 19 14 32.5t33 13.5q19 0 33-13.5t14-32.5h125q0 19 13.5 32.5T359 813q19 0 33-13.5t14-32.5v-94q0-20-13.5-33.5T359 626zm-125 16q0-7 4.5-11.5T250 626q7 0 11.5 4.5T266 642v31h-32v-31zm-78 125q0 6-4.5 10.5T141 782q-6 0-11-4.5t-5-10.5v-94q0-7 4.5-11.5T141 657q7 0 11 4.5t4 11.5v94zm32-32v-31h125v31H188zm187 32q0 6-4.5 10.5T359 782q-7 0-11-4.5t-4-10.5v-94q0-7 4.5-11.5T359 657q6 0 11 4.5t5 11.5v94z"/></svg>