<svg viewBox="0 0 1244 1083.753" xmlns="http://www.w3.org/2000/svg"><path d="M203 682q-6 6-6 14.5t6 14.5q6 6 14.5 6t14.5-6q6-6 6-14.5t-6-14.5q-6-6-14.5-6t-14.5 6zm737-273q29-34 44.5-75t15.5-86q0-49-18.5-94.5T928 73q-35-35-80.5-53.5T753 1q-45 0-86 15.5T592 61l-2-1q-16-16-38-16t-38 16l-57 56q-16 16-16 38.5t16 38.5l1 1-265 265-1-1q-16-16-38.5-16T115 458l-56 57q-16 16-16 38t16 38l1 2q-29 34-44.5 75T0 754q0 49 18.5 94.5T72 929q35 35 80.5 53.5T247 1001q45 0 86-15.5t75-44.5l2 1q15 16 37.5 16t38.5-16l57-56q16-16 16-38.5T543 809l-1-1 265-265 1 1q17 15 39.5 15t37.5-15l56-57q16-16 16-38t-16-38l-1-2zM483 142l57-57q5-5 12.5-5t12.5 5l1 1-82 82-1-1q-5-4-5-12.5t5-12.5zM84 540l57-56q5-6 13-6t12 6l1 1-82 82-1-1q-5-7-5-13t5-13zm433 320l-56 57q-5 5-13 5t-13-5l-1-1 82-82 1 1q5 5 5 12.5t-5 12.5zm-121 43q-30 30-68.5 46T247 965q-42 0-80.5-16T98 903q-30-30-46-68.5T36 754q0-42 16-80.5T98 605L604 99q30-30 68.5-46t81-16Q796 37 834 53t68 46q30 30 46 68t16 80.5q0 42.5-16 81T902 397L396 903zm520-442l-57 57q-4 5-12.5 5t-12.5-5l-1-1 82-82 1 1q5 5 5 12.5t-5 12.5zM620 265q-6 6-6 14.5t6 14.5q6 6 14.5 6t14.5-6q6-6 6-14.5t-6-14.5q-6-6-14.5-6t-14.5 6zm90-61q-6-6-14.5-6t-14.5 6q-6 6-6 14.5t6 14.5q6 6 14.5 6t14.5-6q6-6 6-14.5t-6-14.5z"/></svg>