<svg viewBox="0 0 1244 1083.753" xmlns="http://www.w3.org/2000/svg"><path d="M296 803q-5-3-11-1t-10 7q-25 44-25 94v78q0 6 4 10t10 4q6 0 10.5-4t4.5-10v-78q0-42 22-80 3-4 1.5-10t-6.5-10zm353-63l-35-19q32-26 54-60l2 1q5 3 11 1.5t9-6.5l17-27q31-51 42.5-109.5T752 403q-2-6-6.5-10t-10.5-2.5q-6 1.5-9.5 6T723 407q8 54-2.5 107.5T682 614l-10 16-2-1q-5-3-11-1.5t-9 6.5q-26 45-65 71l-22-12v-17q42-18 67.5-57t25.5-86V386q0-8-4-15t-11.5-10.5Q633 357 625 358t-14 5l-22 18q-31 23-66 31l37-45q4-4 3.5-10t-5.5-10q-5-4-11-3.5t-10 5.5l-56 66h-53l40-48q4-4 3.5-10t-5.5-10q-5-4-11-3.5t-10 5.5l-54 66h-28q-9 0-15 6.5t-6 15.5v96q0 47 25 85.5t66 57.5v17l-22 12q-39-26-65-71-3-5-9-6.5t-11 1.5l-2 1-10-16q-47-76-44.5-166.5T324 283q30-43 75.5-67t98.5-24q53 0 98.5 24t75.5 67q22 31 35 65 2 5 7.5 7.5t11 .5q5.5-2 8-7.5t.5-11.5q-17-42-38-71-34-49-86-76t-112-27q-60 0-112 27t-86 76q-57 81-60 180t49 184l17 27q4 5 9.5 6.5T326 662l2-1q23 34 54 60l-35 19q-13 7-26 17-5 4-6 10t3.5 11q4.5 5 11.5 5 5 0 9-3 14-10 22-14l72-40q3 25 21.5 42t43.5 17q25 0 44-17t21-42l72 40q38 20 60 56.5t22 80.5v78q0 6 4.5 10t10.5 4q6 0 10-4t4-10v-78q0-52-26-95.5T649 740zM371 533v-88h117q32 0 62.5-10.5T607 404l20-16v145q0 34-17 63.5t-46.5 47Q534 661 499 661t-64.5-17.5Q405 626 388 596.5T371 533zm127 223q-15 0-25.5-10.5T462 720v-34q16 4 36 4t36-4v34q0 15-10.5 25.5T498 756zm234-486q6 0 9-4l57-50q35 30 79 30 33 0 61-16t44-44q16-28 16-60.5T981.5 65q-16.5-28-44-44T877 5q-33 0-60.5 16T773 64.5Q757 92 757 125q0 37 21 69l-56 50q-5 5-5 11t4.5 10.5Q726 270 732 270zM877 34q38 0 65 26.5t27 64.5q0 38-27 64.5T877 216q-38 0-64.5-26.5T786 125q0-38 27-64.5T877 34zm0 630q-44 0-79 30l-57-50q-4-4-10-4t-10 4.5q-4 4.5-4 10.5t5 11l56 50q-21 32-21 69 0 32 16 60t44 44q28 16 60.5 16t60-16q27.5-16 44-44t16.5-60.5q0-32.5-16.5-60t-44-44Q910 664 877 664zm0 212q-37 0-64-27t-27-64.5q0-37.5 27-64t64.5-26.5q37.5 0 64.5 26.5t27 64.5q0 38-27 64.5T877 876zm18-495q-27 0-47.5 17T822 440h-18q-6 0-10.5 4.5T789 455q0 6 4.5 10.5T804 470h18q5 25 25.5 42t47.5 17q30 0 51.5-21.5T968 455q0-31-21.5-52.5T895 381zm0 118q-19 0-32-12.5T850 455q0-19 13-32t32-13q19 0 31.5 13t12.5 32q0 19-13 31.5T895 499zM121 246q44 0 79-30l57 50q3 4 9 4t10.5-4.5Q281 261 281 255t-5-11l-56-50q21-32 21-69 0-24-9-46-2-6-8-8t-11.5 0q-5.5 2-7.5 8t0 11q7 19 7 35 0 37-26.5 64T121 216q-38 0-65-26.5T29 125q0-38 27-64.5T121 34q26 0 49 14 5 4 11 2.5t9-6.5q3-5 1.5-11t-6.5-9Q157 5 121 5 88 5 60.5 21t-44 44Q0 93 0 125.5T16 186q16 28 44 44t61 16zm155 420q5-5 5-11t-4-10.5q-4-4.5-10-4.5t-10 4l-57 50q-35-30-79-30-33 0-61 16t-44 44Q0 752 0 785t16 60.5Q32 873 60 889t61 16q33 0 60.5-16t43.5-43.5q16-27.5 16-60.5 0-37-21-69l56-50zM121 876q-38 0-65-26.5T29 785q0-38 27-64.5t65-26.5q38 0 64.5 26.5T212 785q0 38-26.5 64.5T121 876zm55-436q-5-25-25.5-42T103 381q-30 0-51.5 21.5T30 455q0 31 21.5 52.5T103 529q27 0 47.5-17t25.5-42h18q6 0 10.5-4.5T209 455q0-6-4.5-10.5T194 440h-18zm-73 59q-18 0-31-12.5T59 455q0-19 13-32t31-13q18 0 31.5 13t13.5 32q0 19-13 31.5T103 499z"/></svg>