<svg viewBox="0 0 1244 1083.753" xmlns="http://www.w3.org/2000/svg"><path d="M677 362q6 0 6-6t-6-6q-6 0-6 6 0 2 2 4t4 2zm0 39q6 0 6-6t-6-6q-6 0-6 6 0 2 2 4t4 2zm0 39q6 0 6-6t-6-6q-6 0-6 6 0 2 2 4t4 2zm0 39q6 0 6-6t-6-6q-6 0-6 6t6 6zm0 39q6 0 6-6t-6-6q-6 0-6 6t6 6zm0 39q6 0 6-6t-6-6q-6 0-6 6t6 6zm0 39q6 0 6-6t-6-6q-6 0-6 6t6 6zm-39-390q6 0 6-6t-6-6q-6 0-6 6 0 2 2 4t4 2zm0 39q6 0 6-6t-6-6q-6 0-6 6 0 2 2 4t4 2zm21 19q2 0 4-2t2-4q0-6-6-6t-6 6q0 6 6 6zm-21 20q6 0 6-6t-6-6q-6 0-6 6 0 2 2 4t4 2zm0 78q6 0 6-6t-6-6q-6 0-6 6 0 2 2 4t4 2zm21 19q2 0 4-2t2-4q0-6-6-6t-6 6q0 6 6 6zm-21 20q6 0 6-6t-6-6q-6 0-6 6 0 2 2 4t4 2zm21 19q2 0 4-2t2-4q0-6-6-6t-6 6q0 6 6 6zm-21 20q6 0 6-6t-6-6q-6 0-6 6 0 2 2 4t4 2zm21 19q2 0 4-2t2-4q0-2-2-4t-4-2q-2 0-4 2t-2 4q0 6 6 6zm-21 20q6 0 6-6t-6-6q-6 0-6 6t6 6zm21 19q2 0 4-2t2-4q0-2-2-4t-4-2q-2 0-4 2t-2 4q0 6 6 6zm-21 20q6 0 6-6t-6-6q-6 0-6 6t6 6zm21 19q2 0 4-2t2-4q0-2-2-4t-4-2q-2 0-4 2t-2 4q0 6 6 6zm-21 20q6 0 6-6t-6-6q-6 0-6 6t6 6zm21 19q2 0 4-2t2-4q0-2-2-4t-4-2q-2 0-4 2t-2 4q0 6 6 6zm-21 20q6 0 6-6t-6-6q-6 0-6 6t6 6zm21 19q6 0 6-6 0-2-2-4t-4-2q-2 0-4 2t-2 4q0 6 6 6zm-21 20q6 0 6-6t-6-6q-6 0-6 6t6 6zm-39-468q6 0 6-6t-6-6q-6 0-6 6 0 2 2 4t4 2zm21 19q2 0 4-2t2-4.5q0-2.5-2-4.5t-4-2q-2 0-4.5 2t-2.5 4.5q0 2.5 2 4.5t5 2zm0 39q2 0 4-2t2-4.5q0-2.5-2-4.5t-4-2q-2 0-4.5 2t-2.5 4.5q0 2.5 2 4.5t5 2zm0 39q2 0 4-2t2-4q0-6-6-6-3 0-5 1.5t-2 4q0 2.5 2 4.5t5 2zm0 39q2 0 4-2t2-4q0-6-6-6-3 0-5 1.5t-2 4q0 2.5 2 4.5t5 2zm0 78q2 0 4-2t2-4q0-6-6-6-3 0-5 1.5t-2 4q0 2.5 2 4.5t5 2zm0 39q2 0 4-2t2-4q0-6-6-6-3 0-5 1.5t-2 4q0 2.5 2 4.5t5 2zm0 39q2 0 4-2t2-4q0-2-2-4t-4-2q-2 0-4.5 2t-2.5 4q0 2 2 4t5 2zm0 39q2 0 4-2t2-4q0-2-2-4t-4-2q-2 0-4.5 2t-2.5 4q0 2 2 4t5 2zm0 39q2 0 4-2t2-4q0-2-2-4t-4-2q-2 0-4.5 2t-2.5 4q0 2 2 4t5 2zm-21 20q6 0 6-6t-6-6q-6 0-6 6t6 6zm21 19q2 0 4-2t2-4q0-2-2-4t-4-2q-2 0-4.5 2t-2.5 4q0 2 2 4t5 2zm-21 20q6 0 6-6t-6-6q-6 0-6 6t6 6zm21 19q6 0 6-6 0-2-2-4t-4-2q-2 0-4.5 2t-2.5 4q0 6 7 6zm-21 20q6 0 6-6t-6-6q-6 0-6 6t6 6zm21 19q6 0 6-6 0-2-2-4t-4-2q-2 0-4.5 2t-2.5 4q0 6 7 6zm-21 21q6 0 6-6.5t-6-6.5q-6 0-6 6 0 3 2 5t4 2zm0 39q6 0 6-6.5t-6-6.5q-6 0-6 7 0 2 2 4t4 2zm-19-111q-2 0-4 2t-2 4q0 6 6 6 3 0 5-1.5t2-4q0-2.5-2-4.5t-5-2zm-20 20q-2 0-4 2t-2 4q0 6 6 6t6-6q0-6-6-6zm20 19q-2 0-4 2t-2 4q0 6 6 6 3 0 5-1.5t2-4q0-2.5-2-4.5t-5-2zm-20 20q-2 0-4 2t-2 4.5q0 2.5 2 4.5t4 2q2 0 4-2t2-5q0-6-6-6zm20 19q-2 0-4 2t-2 4q0 6 6 6 3 0 5-1.5t2-4q0-2.5-2-4.5t-5-2zm-20 20q-2 0-4 2t-2 4.5q0 2.5 2 4.5t4 2q2 0 4-2t2-4.5q0-2.5-1.5-4.5t-4.5-2zm-19-59q-2 0-4 2t-2 4q0 6 6 6t6-6q0-6-6-6zm-20 20q-2 0-4 2t-2 4.5q0 2.5 2 4.5t4 2q2 0 4-2t2-5q0-6-6-6zm20 19q-2 0-4 2t-2 4q0 6 6 6t6-6q0-6-6-6zm-20 20q-2 0-4 2t-2 4.5q0 2.5 2 4.5t4 2q2 0 4-2t2-4q0-2-2-4.5t-4-2.5zm0 40q-6 0-6 6 0 2 2 4t4 2q2 0 4-2t2-4q0-2-2-4t-4-2zm20 30q6 0 6-6t-6-6q-6 0-6 6t6 6zm-20 9q-6 0-6 6 0 2 2 4t4 2q2 0 4-2t2-4q0-2-2-4t-4-2zm-19-99q-2 0-4 2t-2 4q0 6 6 6t6-6q0-6-6-6zm-20 20q-2 0-4 2t-2 4.5q0 2.5 2 4.5t4 2q2 0 4-2t2-4q0-2-2-4.5t-4-2.5zm20 19q-2 0-4 2t-2 4q0 6 6 6t6-6q0-6-6-6zm-20 21q-6 0-6 6 0 2 2 4t4 2q2 0 4-2t2-4q0-2-2-4t-4-2zm20 18q-2 0-4 2t-2 4q0 6 6 6t6-6q0-6-6-6zm-20 21q-6 0-6 6 0 2 2 4t4 2q2 0 4-2t2-4q0-2-2-4t-4-2zm20 18q-2 0-4 2t-2 4.5q0 2.5 2 4.5t4 2q2 0 4-2t2-5q0-6-6-6zm-20 21q-6 0-6 6 0 2 2 4t4 2q2 0 4-2t2-4q0-2-2-4t-4-2zm-39-78q-6 0-6 6 0 2 2 4t4 2q2 0 4-2t2-4q0-2-2-4t-4-2zm20 18q-2 0-4 2t-2 4q0 6 6 6t6-6q0-6-6-6zm-20 21q-6 0-6 6 0 2 2 4t4 2q2 0 4-2t2-4q0-2-2-4t-4-2zm20 18q-2 0-4 2t-2 4.5q0 2.5 2 4.5t4 2q2 0 4-2t2-5q0-6-6-6zm-20 21q-6 0-6 6 0 2 2 4t4 2q2 0 4-2t2-4q0-2-2-4t-4-2zm-39-66q2 0 5-3 28-7 48-22 2 4 7 4t5-6q0-4-4-5 13-15 13-29 0-26-35-44.5T357 629q-51 0-86 18.5t-35 45q0 26.5 35 45t86 18.5q17 0 43-4l4 1zm-152-61q0-18 30-32.5t75-14.5q45 0 75 14.5t30 32.5q0 12-13.5 23T411 733q-24 7-54 7t-54-7q-24-7-37.5-18T252 692zm172 67q-2 0-4 2t-2 4q0 6 6 6t6-6q0-6-6-6zm-20 21q-6 0-6 6 0 2 2 4t4 2q2 0 4-2t2-4q0-2-2-4t-4-2zm20 18q-2 0-4 2t-2 4.5q0 2.5 2 4.5t4 2q2 0 4-2t2-5q0-6-6-6zm-20 21q-6 0-6 6 0 2 2 4t4 2q2 0 4-2t2-4q0-2-2-4t-4-2zm20 18q-2 0-4 2t-2 4.5q0 2.5 2 4.5t4 2q2 0 4-2t2-4q0-7-6-7zm-39-78q-2 0-4 2t-2 4q0 6 6 6t6-6q0-2-2-4t-4-2zm-20 21q-6 0-6 6 0 2 2 4t4 2q2 0 4-2t2-4q0-2-2-4t-4-2zm20 18q-2 0-4 2t-2 4.5q0 2.5 2 4.5t4 2q2 0 4-2t2-4.5q0-2.5-2-4.5t-4-2zm-20 21q-6 0-6 6 0 2 2 4t4 2q2 0 4-2t2-4q0-2-2-4t-4-2zm20 18q-2 0-4 2t-2 4.5q0 2.5 2 4.5t4 2q2 0 4-2t2-4.5q0-2.5-2-4.5t-4-2zm-59-57q-6 0-6 6t6 6q6 0 6-6 0-2-2-4t-4-2zm20 18q-2 0-4 2t-2 4.5q0 2.5 2 4.5t4 2q2 0 4-2t2-4.5q0-2.5-2-4.5t-4-2zm-20 21q-6 0-6 6t6 6q6 0 6-6 0-2-2-4t-4-2zm20 18q-2 0-4 2t-2 4.5q0 2.5 2 4.5t4 2q2 0 4-2t2-4.5q0-2.5-2-4.5t-4-2zm-59-57q-6 0-6 6t6 6q6 0 6-6 0-2-2-4t-4-2zm20 18q-2 0-4 2t-2 4.5q0 2.5 2 4.5t4 2q2 0 4-2t2-4.5q0-2.5-2-4.5t-4-2zm-20 21q-6 0-6 6t6 6q6 0 6-6 0-2-2-4t-4-2zm20 18q-2 0-4 2t-2 4.5q0 2.5 2 4.5t4 2q2 0 4-2t2-4.5q0-2.5-2-4.5t-4-2zm-59-57q-6 0-6 6t6 6q6 0 6-6 0-2-2-4t-4-2zm20 18q-2 0-4 2t-2 4.5q0 2.5 2 4.5t4 2q2 0 4-2t2-4.5q0-2.5-2-4.5t-4-2zm-20 21q-6 0-6 6t6 6q6 0 6-6 0-2-2-4t-4-2zm-39-39q-6 0-6 6t6 6q6 0 6-6 0-2-2-4t-4-2zm20 18q-2 0-4 2t-2 4.5q0 2.5 2 4.5t4 2q2 0 4-2t2-4.5q0-2.5-2-4.5t-4-2zm-59-18q-6 0-6 6t6 6q6 0 6-6 0-2-2-4t-4-2zm20 18q-6 0-6 6.5t6 6.5q6 0 6-7 0-2-2-4t-4-2zm-39-39q-6 0-6 6t6 6q6 0 6-6 0-2-2-4t-4-2zm448-241q6 0 6-6t-6-6q-6 0-6 6t6 6zm-19 46q-2 0-4 2t-2 4q0 2 2 4t4 2q2 0 4.5-2t2.5-4q0-2-2-4t-5-2zM346 759q-2 0-4 2t-2 4q0 6 6 6t6-6q0-2-2-4t-4-2zm-156 0q-6 0-6 6t6 6q6 0 6-6 0-2-2-4t-4-2zm801 60v-1q0-23-14-41t-35-24v-34q0-14-9-25t-23-13q5-12 5-21 3-26-16-55-9-15-19-25-3-3-7-2.5t-6 4.5l-6 10q-8 12-18 20-14 11-30 14-11 1-22-1-6-2-19-7l-4-2q-17-7-27-9-18-4-39 0l-6 1q10-45 10-82V349l-1-27q0-3-3.5-5.5t-6.5-.5l-53 16 54-49q4-4 2-7-12-58-43-108.5T577.5 79q-46.5-38-103-58T358 1q-60 0-117 20T137.5 78.5Q91 116 60.5 167T17 276q0 4 3 7l53 49-52-16q-4-2-6.5 0t-4.5 6l-1 27v177q0 60 20.5 117T88 747q4 4 9 2l57-17-37 34q-3 1-3 5t2 6q49 47 111.5 72T358 874q55 0 107-16.5t95-48.5v125q0 28 19.5 47.5T627 1001h297q28 0 47.5-19.5T991 934V819zm-416 8h400v94H575v-94zm400-16H576q2-19 16.5-32t34.5-13h297q19 0 34 13t17 32zm-414-79l47 14v7l-3 1q-9 4-13 6l-31-28zm365-13v4H812q-3 0-5.5 2t-2.5 5.5q0 3.5 2.5 5.5t5.5 2h114v13H624v-26h113q3 0 5.5-2.5t2.5-6q0-3.5-2.5-5.5t-5.5-2H626q7-13 22-13h255q10 0 16.5 6.5T926 719zm-222-97q19-3 35 0 10 2 25 9t24 9q13 3 28 1 37-6 60-42 10 12 17 25 8 19 7 35-2 13-7 21H657q2-22 12-36 10-17 35-22zM358 859q-42 0-86-11 2-2 2-4.5t-2-4.5q-2-2-4-2t-4 2q-2 2-2 5v1q-27-8-48-19 1 0 1-1 0-6-6-6-3 0-5 2-34-17-71-49l50-46q6-4 2-12-1-3-4.5-4.5t-6.5-.5l-77 24q-35-45-53.5-98T25 526V333l68 21q8 2 11.5-5t-2.5-11l-69-63q17-74 64.5-133t116-92.5Q282 16 358 16q60 0 116 21.5T575 98l-1 3q0 6 6 6 3 0 4-1l4 4q5 4 7 7-2 2-2 4.5t2 4.5q2 2 4.5 2t4.5-2l10 12-1 2q0 6 7 6h1q23 31 40 67l-2-1q-6 0-6 6.5t6 6.5q2 0 3.5-1.5t1.5-3.5q10 24 18 53-2-1-4.5-1t-4.5 2q-2 2-2 4t2 4l-10 10q-1-1-4-1-6 0-6 6 0 2 1 3l-13 12q-1-1-3-1t-4 2q-2 2-2 4t1 2l-12 11h-1q-7 0-7 6l1 1-1 1q-5 5-2 12 2 3 5 4t6 0l68-21v193q0 45-12 89-15 8-22 21-8 10-12 30-2-4-5-4t-5 2q-2 2-2 4.5t2 4.5q2 2 3.5 2t4.5-1l1-1q-1 2-1 8-8 0-16 6-2-6-5.5-6t-5.5 2q-2 2-2 4t1.5 4q1.5 2 3.5 2-10 12-10 26v11l-23-7q-1-3-5-3l-2 1-37-12q-3-1-6.5.5T530 714q-3 7 2 12l22 20v1q0 2 2 4t4 2h1l13 12q0 4 5 6-3 2-7 8l-2 3q-2 2-4 3 0-2-2-3.5t-4-1.5q-6 0-6 6 0 2 1.5 3.5t2.5 1.5q-6 6-12 9-2-2-4.5-2t-4.5 2q-2 2-2 4l1 3q-31 21-68 33-1-3-4-3t-5 2q-2 2-2 5-48 15-99 15zm566 127H627q-21 0-35.5-14.5T575 936h400q-1 21-16 35.5T924 986zM285 396q0-26-23-44t-56-18q-33 0-56 18t-23 44q0 26 23 44t56 18q33 0 56-18t23-44zm-143 0q0-19 19-32.5t45-13.5q26 0 45 13.5t19 32.5q0 19-19 33t-45 14q-26 0-45-14t-19-33zm367 62q33 0 56.5-18t23.5-44q0-26-23.5-44T509 334q-33 0-56 18t-23 43.5q0 25.5 23.5 44T509 458zm0-108q27 0 45.5 13.5t18.5 33q0 19.5-18.5 33T509 443q-27 0-45-13.5t-18-33q0-19.5 18.5-33T509 350zM358 581q26 0 44.5-18.5T421 518q0-8-7.5-8t-7.5 8q0 19-14 33.5T358 566q-20 0-34.5-14.5T309 518q0-8-7-8-3 0-5.5 2t-2.5 6q0 26 18.5 44.5T358 581z"/></svg>