<svg viewBox="0 0 1244 1083.753" xmlns="http://www.w3.org/2000/svg"><path d="M495 57q-2 0-4 2t-2 4q0 2 2 4t4 2q2 0 4-2t2-4q0-2-2-4t-4-2zm20 19q-2 0-4 2t-2 4q0 2 2 4t4 2q2 0 4-2t2-4q0-6-6-6zm-20 20q-2 0-4 2t-2 4q0 2 2 4t4 2q2 0 4-2t2-4q0-2-2-4t-4-2zm20 19q-2 0-4 2t-2 4q0 2 2 4t4 2q2 0 4-2t2-4q0-6-6-6zm-20 20q-2 0-4 2t-2 4q0 2 2 4t4 2q6 0 6-6 0-2-2-4t-4-2zm20 19q-2 0-4 2t-2 4q0 2 2 4t4 2q2 0 4-2t2-4q0-6-6-6zm-20 20q-2 0-4 2t-2 4q0 2 2 4t4 2q6 0 6-6 0-2-2-4t-4-2zm20 19q-2 0-4 2t-2 4q0 2 2 4t4 2q2 0 4-2t2-4q0-6-6-6zM143 57q-3 0-5 2t-2 4q0 2 2 4t5 2q6 0 6-6 0-2-2-4t-4-2zm20 19q-6 0-6 6t6 6q6 0 6-6 0-2-2-4t-4-2zm-20 20q-3 0-5 2t-2 4q0 2 2 4t5 2q6 0 6-6 0-2-2-4t-4-2zm20 19q-6 0-6 6t6 6q6 0 6-6 0-2-2-4t-4-2zm-20 20q-3 0-5 2t-2 4q0 2 2 4t5 2q6 0 6-6 0-2-2-4t-4-2zm20 19q-6 0-6 6t6 6q6 0 6-6 0-2-2-4t-4-2zm-20 20q-3 0-5 2t-2 4q0 2 2 4t5 2q6 0 6-6 0-2-2-4t-4-2zm20 19q-6 0-6 6t6 6q6 0 6-6 0-2-2-4t-4-2zm662 531H583q-26 0-44.5-19T520 660V277h22q14 0 24.5-10t10.5-24q0-14-10.5-24T542 209h-3V56q0-23-16.5-39T483 1q-23 0-39 16t-16 39v153h-3q-14 0-24.5 10T390 243q0 14 10.5 24t24.5 10h20v383q0 38 18.5 70t50.5 50.5q32 18.5 69 18.5h242q26 0 44.5 18.5T888 862q0 26-18.5 45T825 926H230q-26 0-44.5-19T167 862V277h22q14 0 24-10t10-24q0-14-10-24t-24-10h-4V56q0-23-16-39T130.5 1q-22.5 0-39 16T75 56v153h-4q-14 0-24 10t-10 24q0 14 10 24t24 10h20v585q0 38 18.5 70t50.5 50.5q32 18.5 70 18.5h595q37 0 69-18.5t50.5-50.5q18.5-32 18.5-69.5T944.5 793Q926 761 894 742.5T825 724zM444 56q0-16 11.5-27.5T483 17q7 0 10 1-4 2-4 5t2 5q2 2 4 2t4-2q2-2 2-4.5t-1-2.5q11 4 18 16h-3q-6 0-6 6t5 6q5 0 7-4 2 6 2 11v153h-79V56zm-19 205q-8 0-13.5-5.5T406 243q0-7 5.5-12.5T425 225h117q8 0 13.5 5.5T561 243q0 7-5.5 12.5T542 261H425zM91 56q0-17 11.5-28T130 17q7 0 10 1-4 2-4 5t2 5q2 2 5 2 6 0 6-6l-1-3q10 6 16 16h-1q-6 0-6 6t6 6q4 0 5-3 1 3 1 10v153H91V56zM71 261q-7 0-12.5-5.5t-5.5-13q0-7.5 5.5-12.5t12.5-5h118q8 0 13 5t5 12.5q0 7.5-5 13t-13 5.5H71zm754 724H230q-33 0-61.5-16.5t-45-45Q107 895 107 862V277h44v585q0 33 23 56t56 23h595q32 0 55.5-23t23.5-56q0-33-23.5-56T825 783H583q-33 0-61-16.5t-44.5-45Q461 693 461 660V277h43v383q0 33 23.5 56t55.5 23h242q33 0 61 16.5t44.5 45Q947 829 947 862t-16.5 61.5Q914 952 886 968.5T825 985z"/></svg>