<svg viewBox="0 0 1244 1083.753" xmlns="http://www.w3.org/2000/svg"><path d="M763 534q-5 0-9-3.5t-4-8.5V297q5-58-18-112-14-28-38.5-46.5T638 116q-92-12-175 26l9 6q12 7 18 12 37 28 58 66 27 47 19 91-5 16-16 28t-27 17q-26 11-54 13-31 3-48-8-48-30-36-125 3-51 30-93-46-16-89-4-34 11-55.5 39T250 247v274q0 5-3.5 9t-8.5 4q-5 0-9-4t-4-9V247q0-43 26.5-78t67.5-48q59-15 117 9 30-22 87-34 61-13 118-5 37 5 67 27.5t47 56.5q25 58 20 122v225q0 5-3.5 8.5T763 534zM440 159q-23 25-29 86-10 79 24 101 10 6 33.5 4.5T513 340q26-12 29-27 6-37-17-76-19-33-51-57-13-11-34-21zM275 583h-75q-5 0-8.5-4t-3.5-9v-11q-1-21 13.5-35.5T237 508q21-1 35.5 13.5T287 557v13q0 5-3.5 9t-8.5 4zm-62-25h49q0-10-7.5-17t-18-6.5q-10.5.5-17 7T213 558zm54 356h-59q-18 0-30.5-13T165 870V570q0-5 3.5-8.5t8.5-3.5h121q5 0 8.5 3.5t3.5 8.5v300q0 18-12.5 31T267 914zm-77-331v287q0 8 5.5 13.5T208 889h59q7 0 12.5-5.5T285 870V583h-95zm602 331h-59q-18 0-30.5-13T690 870V570q0-5 3.5-8.5t8.5-3.5h121q5 0 8.5 3.5t3.5 8.5v300q0 18-12.5 31T792 914zm-77-331v287q0 8 5.5 13.5T733 889h59q7 0 12.5-5.5T810 870V583h-95zm85 0h-75q-5 0-8.5-4t-3.5-9v-11q-1-21 13.5-35.5t35-15q20.5-.5 35.5 14t15 34.5v13q0 5-3.5 9t-8.5 4zm-62-25h49q0-10-7.5-17t-17.5-6.5q-10 .5-16.5 7T738 558z"/></svg>