<svg viewBox="0 0 1244 1083.753" xmlns="http://www.w3.org/2000/svg"><path d="M896 580q6 0 6-6t-6-6q-6 0-6 6 0 2 2 4t4 2zm21 19q6 0 6-6 0-2-2-4t-4-2q-2 0-4 2t-2 4q0 6 6 6zm-21 21q6 0 6-6 0-3-1.5-5t-4.5-2q-6 0-6 6.5t6 6.5zm21 18q6 0 6-6 0-2-2-4t-4-2q-2 0-4 2t-2 4q0 6 6 6zm-21 21q6 0 6-6t-6-6q-6 0-6 6t6 6zm21 18q6 0 6-6 0-2-2-4t-4-2q-2 0-4 2t-2 4q0 6 6 6zm-21 21q6 0 6-6t-6-6q-6 0-6 6t6 6zm21 18q6 0 6-6 0-2-2-4t-4-2q-2 0-4 2t-2 4q0 6 6 6zm-21 21q6 0 6-6t-6-6q-6 0-6 6t6 6zm-18-138q6 0 6-6 0-2-2-4t-4-2q-2 0-4 2t-2 4q0 6 6 6zm-21 21q6 0 6-6 0-3-1.5-5t-4.5-2q-6 0-6 6.5t6 6.5zm21 18q6 0 6-6 0-2-2-4t-4-2q-2 0-4 2t-2 4q0 6 6 6zm-21 21q6 0 6-6t-6-6q-6 0-6 6t6 6zm-18 18q6 0 6-6 0-2-2-4t-4-2q-2 0-4.5 2t-2.5 4q0 6 7 6zm39 0q6 0 6-6 0-2-2-4t-4-2q-2 0-4 2t-2 4q0 6 6 6zm-21 21q6 0 6-6t-6-6q-6 0-6 6t6 6zm21 18q6 0 6-6 0-2-2-4t-4-2q-2 0-4 2t-2 4q0 6 6 6zm-21 21q6 0 6-6t-6-6q-6 0-6 6t6 6zm-39-39q6 0 6-6t-6-6q-6 0-6 6t6 6zm21 18q6 0 6-6 0-2-2-4t-4-2q-2 0-4.5 2t-2.5 4q0 6 7 6zm-21 21q6 0 6-6t-6-6q-6 0-6 6t6 6zm-39-39q6 0 6-6t-6-6q-6 0-6 6t6 6zm20 18q7 0 7-6 0-2-2-4t-5-2q-6 0-6 6t6 6zm-20 21q6 0 6-6t-6-6q-6 0-6 6t6 6zm-39-39q6 0 6-6t-6-6q-6 0-6 6t6 6zm20 18q6 0 6-6t-6-6q-6 0-6 6t6 6zm-20 21q6 0 6-6t-6-6q-6 0-6 6t6 6zm-39-39q2 0 4-2t2-4q0-2-2-4t-4-2q-6 0-6 6t6 6zm20 18q6 0 6-6t-6-6q-6 0-6 6t6 6zm-20 21q2 0 4-2t2-4q0-2-2-4t-4-2q-6 0-6 6t6 6zm-39-39q2 0 4-2t2-4q0-2-2-4t-4-2q-6 0-6 6t6 6zm20 18q6 0 6-6t-6-6q-6 0-6 6t6 6zm-20 21q2 0 4-2t2-4q0-2-2-4t-4-2q-6 0-6 6t6 6zm-39-39q2 0 4-2t2-4q0-2-2-4t-4-2q-6 0-6 6t6 6zm20 18q6 0 6-6t-6-6q-6 0-6 6t6 6zm-20 21q2 0 4-2t2-4q0-2-2-4t-4-2q-6 0-6 6t6 6zm-39-39q2 0 4-2t2-4q0-2-2-4t-4-2q-6 0-6 6t6 6zm20 18q6 0 6-6t-6-6q-6 0-6 6t6 6zm-20 21q2 0 4-2t2-4q0-2-2-4t-4-2q-6 0-6 6t6 6zm-39-39q2 0 4-2t2-4q0-2-2-4t-4-2q-6 0-6 6t6 6zm20 18q6 0 6-6 0-2-2-4t-4-2q-2 0-4 2t-2 4q0 6 6 6zm-20 21q2 0 4-2t2-4q0-2-2-4t-4-2q-6 0-6 6t6 6zm-39-39q2 0 4-2t2-4q0-2-2-4t-4-2q-6 0-6 6t6 6zm20 18q6 0 6-6 0-2-2-4t-4-2q-2 0-4 2t-2 4q0 6 6 6zm-20 21q2 0 4-2t2-4q0-2-2-4t-4-2q-6 0-6 6t6 6zm-39-39q2 0 4-2t2-4q0-2-2-4t-4-2q-6 0-6 6t6 6zm20 18q6 0 6-6 0-2-2-4t-4-2q-2 0-4 2t-2 4q0 6 6 6zm-20 21q2 0 4-2t2-4q0-2-2-4t-4-2q-6 0-6 6t6 6zm-39-39q2 0 4-2t2-4q0-2-2-4t-4-2q-6 0-6 6t6 6zm20 18q6 0 6-6 0-2-2-4t-4-2q-2 0-4 2t-2 4q0 6 6 6zm-20 21q2 0 4-2t2-4q0-2-2-4t-4-2q-6 0-6 6t6 6zm-39-39q2 0 4-2t2-4q0-2-2-4t-4-2q-6 0-6 6t6 6zm20 18q6 0 6-6 0-2-2-4t-4-2q-2 0-4 2t-2 4q0 6 6 6zm-20 21q2 0 4-2t2-4q0-2-2-4t-4-2q-6 0-6 6t6 6zm-39-39q2 0 4-2t2-4q0-2-2-4t-4.5-2q-2.5 0-4.5 1.5t-2 4.5q0 6 7 6zm20 18q6 0 6-6 0-2-2-4t-4-2q-2 0-4 2t-2 4q0 6 6 6zm-20 21q2 0 4-2t2-4q0-2-2-4t-4.5-2q-2.5 0-4.5 1.5t-2 4.5q0 6 7 6zm-40-39q3 0 5-2t2-4q0-2-2-4t-5-2q-6 0-6 6t6 6zm21 18q6 0 6-6 0-2-2-4t-4-2q-2 0-4 2t-2 4q0 6 6 6zm-21 21q3 0 5-2t2-4q0-2-2-4t-5-2q-6 0-6 6t6 6zm-18-21q6 0 6-6 0-2-2-4t-4-2q-2 0-4 2t-2 4q0 6 6 6zm-60-18q6 0 6-6t-6-6q-6 0-6 6t6 6zm0 39q6 0 6-6t-6-6q-6 0-6 6t6 6zm-39-39q6 0 6-6t-6-6q-6 0-6 6t6 6zm21 18q6 0 6-6 0-2-2-4t-4-2q-2 0-4.5 2t-2.5 4q0 6 7 6zm-21 21q6 0 6-6t-6-6q-6 0-6 6t6 6zm-39-39q6 0 6-6t-6-6q-6 0-6 6t6 6zm20 18q7 0 7-6 0-2-2-4t-5-2q-6 0-6 6t6 6zm-20 21q6 0 6-6t-6-6q-6 0-6 6t6 6zm-39-51q-6 0-6 6t6 6q2 0 4-2t2-4q0-6-6-6zm20 30q6 0 6-6t-6-6q-6 0-6 6t6 6zm-20 9q-6 0-6 6t6 6q2 0 4-2t2-4q0-6-6-6zm455-383l114 46q11 5 23 0t17-16q2-4 2-12V177q0-12-8.5-21t-21.5-9q-13 0-22 9t-9 21v138l-72-29q-12-5-23.5 0T553 302.5q-5 11.5 0 23.5t17 16zm382 412V616q0-25-16.5-44.5T894 547q50-44 78-104.5t28-129.5q0-84-43-157-41-70-111-111Q773 2 689 2T532 45q-70 41-111 111-43 73-43 157 0 68 28 129 27 59 76 103H268q-7-16-22-26t-34-10H106V371q0-22-15.5-37T53 319q-22 0-37.5 15T0 371v576q0 22 15.5 37.5T53 1000q22 0 37.5-15.5T106 947v-69h773v69q0 22 15.5 37.5T932 1000q22 0 37-15.5t15-37.5V793q0-15-9-26t-23-13zM90 947q0 15-11 26t-26 11q-15 0-26-11t-11-26V371q0-15 10.5-26T53 334q16 0 26.5 11T90 371v576zm363-634q0-64 32-118t86-85.5Q625 78 689 78t118 31.5q54 31.5 86 85.5t32 118q0 64-32 118t-86 86q-54 32-118 32t-118-31.5q-54-31.5-86-86T453 313zm48 248q40 31 88 47.5T689 625q87 0 163-47l1 1q3 1 4 1 6 0 6-6v-3l14-10h4q20 0 35.5 13t18.5 33q-6 2-6 7 0 2 2 4t4 2h1v27h-1q-6 0-6 6t6 6h1v27h-1q-6 0-6 6t6 6h1v27h-1q-6 0-6 6t6 6h1v16h-14l1-4q0-2-2-4t-4-2q-2 0-4 2t-2 4.5q0 2.5 1 3.5h-30q2-2 2-4t-2-4q-2-2-4-2t-4 2q-2 2-2 4.5t1 3.5h-30q2-2 2-4t-2-4q-2-2-4-2t-4.5 2q-2.5 2-2.5 4t2 4h-30q2-2 2-4t-2-4q-2-2-5-2-6 0-6 6 0 2 2 4h-30q1-1 1-4 0-6-6-6t-6 6q0 2 2 4h-30q1-1 1-4 0-6-6-6t-6 6q0 2 2 4h-30q1-1 1-4 0-6-6-6t-6 6l1 4h-29q1-1 1-4 0-6-6-6t-6 6l1 4h-29q1-1 1-4 0-6-6-6t-6 6l1 4h-29q1-1 1-3.5t-2-4.5q-2-2-4-2t-4 2q-2 2-2 4l1 4h-29q1-1 1-3.5t-2-4.5q-2-2-4-2t-4 2q-2 2-2 4.5t1 3.5h-29q1-1 1-3.5t-2-4.5q-2-2-4-2t-4 2q-2 2-2 4.5t1 3.5h-29q1-1 1-3.5t-2-4.5q-2-2-4-2t-4 2q-2 2-2 4.5t1 3.5h-29l1-4q0-2-2-4t-4-2q-2 0-4 2t-2 4.5q0 2.5 1 3.5h-29l1-4q0-2-2-4t-4-2q-2 0-4 2t-2 4.5q0 2.5 1 3.5h-29l1-4q0-2-2-4t-4-2q-2 0-4 2t-2 4.5q0 2.5 1 3.5h-29l1-4q0-2-2-4t-4-2q-2 0-4 2t-2 4.5q0 2.5 1 3.5h-14v-16q4-2 4-5t-1-5q-1-2-3-2v-27q4-2 4-6 0-2-1.5-4t-2.5-2V569q0-5-1-8h229zm-395-29v-8h106q19 0 32 13t13 32v137q-2-2-4-2-6 0-6 6t6 6q3 0 4-2v31q-2-2-4-2-6 0-6 6 0 3 1 4h-30q2-2 2-4t-2-4q-2-2-4-2t-4.5 2q-2.5 2-2.5 4t2 4h-30q2-2 2-4t-2-4q-2-2-5-2-6 0-6 6 0 2 2 4h-30q1-1 1-4 0-6-6-6t-6 6q0 2 2 4h-25V532zm862 415q0 16-10.5 26.5T932 984q-15 0-26-10.5T895 947v-77q0-3-2.5-5.5T887 862H106v-93h838q10 0 17 7t7 17v154z"/></svg>