<svg viewBox="0 0 1244 1083.753" xmlns="http://www.w3.org/2000/svg"><path d="M438 95h62q7 0 11.5-4.5T516 79q0-7-4.5-11.5T500 63h-62q-7 0-11.5 4.5T422 79q0 7 4.5 11.5T438 95zm515 468H828V142q0-38-19-70.5T758 20Q726 1 688 1H313q-38 0-70.5 19T191 71.5Q172 104 172 142v78H47q-19 0-33 13.5T0 267v125q0 19 14 32.5T47 438h125v422q0 38 19 70.5t51.5 51.5q32.5 19 70.5 19h375q38 0 70-19t51-51.5q19-32.5 19-70.5v-78h125q20 0 33.5-14t13.5-33V610q0-20-13.5-33.5T953 563zM203 142q0-30 14.5-55.5t40-40Q283 32 313 32h375q30 0 55 15t39.5 40q14.5 25 14.5 55v421h-31V142q0-33-23-56t-55-23h-32q-19 0-33 13.5T609 110q0 7-4.5 11.5T594 126H406q-6 0-10.5-4.5T391 110q0-20-13.5-33.5T344 63h-31q-33 0-56 23t-23 56v78h-31v-78zm375 421q-19 0-33 13.5T531 610v125q0 19 14 33t33 14h6l27 54q4 7 12 8.5t13-4.5l58-58h40v78q0 19-13.5 33T688 907H313q-19 0-33-14t-14-33V438h40l58 58q6 6 13.5 5t11.5-9l27-54h6q19 0 33-13.5t14-32.5V267q0-20-13.5-33.5T422 220H266v-78q0-20 14-33.5T313 95h31q6 0 10.5 4.5T359 110q0 19 14 33t33 14h188q20 0 33.5-14t13.5-33q0-6 4.5-10.5T656 95h32q19 0 32.5 14t13.5 33v421H578zM31 392V267q0-7 4.5-11.5T47 251h375q7 0 11.5 4.5T438 267v125q0 6-4.5 10.5T422 407h-16q-9 0-14 9l-21 43-47-47q-5-5-11-5H47q-7 0-11.5-4.5T31 392zm766 468q0 30-14.5 55T743 955q-25 15-55 15H313q-30 0-55.5-14.5t-40-40Q203 890 203 860V438h31v422q0 33 23 56t56 23h375q32 0 55-23t23-56v-78h31v78zm172-125q0 7-4.5 11.5T953 751H688q-8 0-11 5l-48 47-21-43q-4-9-14-9h-16q-6 0-10.5-4.5T563 735V610q0-6 4.5-10.5T578 595h375q7 0 11.5 4.5T969 610v125z"/></svg>