<svg viewBox="0 0 1244 1083.753" xmlns="http://www.w3.org/2000/svg"><path d="M634 734H324q-28 0-48-20t-20-48V336q0-29 20-48.5t48-19.5h310q29 0 48.5 19.5T702 336v330q0 28-19.5 48T634 734zM324 293q-18 0-30.5 12.5T281 336v330q0 18 12.5 30.5T324 709h310q18 0 30.5-12.5T677 666V336q0-18-12.5-30.5T634 293H324zm305 0H329q-5 0-9-4t-4-9q0-1 1-2l26-150q3-17 16.5-28.5T390 88h178q17 0 30.5 11.5T615 128l26 150q1 5-2 9t-8 5q-1 1-2 1zm-285-25h270l-24-136q-2-8-8-13.5t-14-5.5H390q-8 0-14.5 5.5T368 132l-24 136zm224 646H390q-17 0-30.5-11.5T343 874l-26-150q-1-5 2-9t8-6h302q5 0 8.5 4t3.5 9v2l-26 150q-3 17-16.5 28.5T568 914zM344 734l24 136q2 8 8 13.5t14 5.5h178q8 0 14.5-5.5T590 870l24-136H344zm104-134q-9 0-12-8l-43-113-17 32q-3 7-11 7h-42q-5 0-9-3.5t-4-8.5q0-5 4-9t9-4h34l26-51q5-7 12.5-6.5T406 444l42 107 49-141q3-8 12-8t12 9l35 105 14-18q3-5 10-5h55q5 0 8.5 3.5t3.5 8.5q0 5-3.5 9t-8.5 4h-49l-24 32q-3 4-8 5t-10-2q-2-2-4-6l-31-94-49 138q-3 7-12 9zm284-161h-42q-5 0-9-3.5t-4-8.5q0-5 4-9t9-4h42q5 0 8.5 4t3.5 9q0 5-3.5 8.5T732 439zm0 41q-5 0-9-3.5t-4-8.5v-67q0-5 4-8.5t9-3.5q5 0 8.5 3.5t3.5 8.5v67q0 5-3.5 8.5T732 480z"/></svg>