<svg viewBox="0 0 1244 1083.753" xmlns="http://www.w3.org/2000/svg"><path d="M688 1H313q-38 0-70.5 19T191 71.5Q172 104 172 142v718q0 38 19 70.5t51.5 51.5q32.5 19 70.5 19h375q38 0 70-19t51-51.5q19-32.5 19-70.5V142q0-38-19-70.5T758 20Q726 1 688 1zm109 859q0 30-14.5 55T743 955q-25 15-55 15H313q-30 0-55.5-14.5t-40-40Q203 890 203 860V142q0-30 14.5-55.5t40-40Q283 32 313 32h375q30 0 55 15t39.5 40q14.5 25 14.5 55v718zM688 63h-32q-19 0-33 13.5T609 110q0 7-4.5 11.5T594 126H406q-6 0-10.5-4.5T391 110q0-20-13.5-33.5T344 63h-31q-33 0-56 23t-23 56v718q0 33 23 56t56 23h375q32 0 55-23t23-56V142q0-33-23-56t-55-23zm46 797q0 19-13.5 33T688 907H313q-19 0-33-14t-14-33V142q0-20 14-33.5T313 95h31q6 0 10.5 4.5T359 110q0 19 14 33t33 14h188q20 0 33.5-14t13.5-33q0-6 4.5-10.5T656 95h32q19 0 32.5 14t13.5 33v718zM438 95h62q7 0 11.5-4.5T516 79q0-7-4.5-11.5T500 63h-62q-7 0-11.5 4.5T422 79q0 7 4.5 11.5T438 95zm62 750q-32 0-55-23t-23-55q0-7-4.5-11.5T406 751q-7 0-11 4.5t-4 11.5q0 30 14.5 55t39.5 39.5q25 14.5 55 14.5 7 0 11.5-4.5T516 860q0-7-4.5-11t-11.5-4zm0-250q-30 0-55 14.5T405.5 649Q391 674 391 704q0 7 4.5 11.5T406 720q6 0 11-4.5t5-11.5q0-32 23-55t55-23q32 0 55 23t23 55v63q0 6 4.5 10.5T594 782q7 0 11-4.5t4-10.5v-63q0-30-14.5-55T555 609.5Q530 595 500 595zm31 156q-6 0-10.5 4.5t-4.5 11-4.5 11Q507 782 500 782t-11.5 4.5Q484 791 484 798t4.5 11q4.5 4 11.5 4 19 0 33-13.5t14-32.5q0-7-4.5-11.5T531 751zm-31-94q-19 0-33 13.5T453 704v47q0 7 4.5 11.5T469 767q7 0 11-4.5t4-11.5v-47q0-7 4.5-11.5T500 688q7 0 11.5 4.5T516 704t4.5 11.5Q525 720 531 720t11-4.5q5-4.5 5-11.5 0-20-13.5-33.5T500 657z"/></svg>