<svg viewBox="0 0 1244 1083.753" xmlns="http://www.w3.org/2000/svg"><path d="M420 303H212q-6 0-10.5 4t-4.5 10q0 6 4.5 10.5T212 332h194v340h-46q-6 0-10.5 4t-4.5 10.5q0 6.5 4.5 10.5t10.5 4h60q6 0 10.5-4t4.5-11V317q0-6-4.5-10t-10.5-4zm0 0zM301 672H109V332h45q6 0 10.5-4.5T169 317q0-6-4.5-10t-10.5-4H94q-6 0-10 4t-4 10v369q0 7 4 11t10 4h207q7 0 11-4t4-10.5q0-6.5-4-10.5t-11-4zm0 0zm78-181q-5-23-24.5-37.5T309 439q-28 0-52 18-24-18-52-18-25 0-44.5 14.5T135 491q-9 35 18 73 27 42 94 77 5 3 11 3t10-3q66-35 94-77 26-37 17-73zM257 613q-55-30-79-63-20-28-14-52 3-13 14.5-21.5T205 468q23 0 42 19 5 4 10.5 4t9.5-4q19-19 42-19 16 0 27 8t15 22q7 29-23 62-26 28-71 53zm0 0zm41-208v-16q0-7-4-11t-10-4q-6 0-10.5 4t-4.5 11v16q0 6 4.5 10t10.5 4q6 0 10-4t4-10zm0 0zm25 14q6 0 10.5-4t4.5-10v-24q0-6-4.5-10.5T323 366q-6 0-10 4.5t-4 10.5v24q0 6 4 10t10 4zm0 0zm54-14v-32q0-6-4-10.5t-10-4.5q-6 0-10.5 4.5T348 373v32q0 6 4.5 10t10.5 4q6 0 10-4t4-10zm0 0zm153 90q20 0 33-13.5t13-32.5v-57q0-19-13.5-32.5T530 346h-17q-1-46-32-85l-30-74q-10-22-31-37-7-8-11-26-2-11-4-35v-1q-2-36-9-55-12-32-44-32H162q-13 0-23 6-14 8-21 26-5 13-8 45l-1 11q-2 24-4 35-4 18-11 26-22 15-30 37l-31 74Q1 301 1 353v298q0 52 32 92l31 74q9 22 30 37 7 8 11 26 2 11 4 35l1 11q3 32 8 45 7 18 21 26 10 6 23 6h190q32 0 44-32 7-19 9-55v-1q2-24 4-35 4-18 11-26 20-14 31-37l30-74q31-39 32-85h17q19 0 32.5-13.5T576 612v-58q0-19-13.5-32T530 509h-17v-14h17zm17-103v57q0 7-5 12t-12 5h-17v-91h17q7 0 12 5t5 12zM132 137q4-15 6-47 3-37 8-48.5T162 30h190q11 0 16 11.5t8 48.5q2 25 6 47H132zm-41 61q6-14 19-23t29-9h237q15 0 28.5 9t19.5 23l9 23q-16-8-31.5-12t-36.5-4H149q-37 0-68 16l10-23zm291 669q-4 22-6 47-3 37-8 48.5T352 974H162q-11 0-16-11.5t-8-48.5q-2-32-6-47h250zm42-61q-6 14-19.5 23t-28.5 9H139q-16 0-29.5-9T91 806l-10-23q14 7 30.5 11.5T149 799h216q37 0 68-16l-9 23zm60-155q0 31-16.5 58.5t-44 44Q396 770 365 770H149q-32 0-59-16t-43.5-43.5Q30 683 30 651V353q0-38 22-68.5t56-43.5q18-7 41-7h216q22 0 42 7 34 13 55.5 43.5T484 353v298zm46-113q7 0 12 4.5t5 11.5v58q0 7-5 11.5t-12 4.5h-17v-90h17zm0 0z"/></svg>