<svg viewBox="0 0 1244 1083.753" xmlns="http://www.w3.org/2000/svg"><path d="M301 923h234q6 0 10-4t4-10.5q0-6.5-4-10.5t-10-4H301q-6 0-11-4.5t-5-11.5V561q0-15 7-29.5t18-24.5h335q12 10 19 24t7 30v317q0 7-5 11.5t-12 4.5h-61q-6 0-10 4t-4 10.5q0 6.5 4 10.5t10 4h61q19 0 32.5-13t13.5-32V561q0-24-11-45.5T659 480q-3-3-8-3H305q-4 0-9 3-19 14-29.5 35.5T256 561v317q0 19 13.5 32t31.5 13zm0 0zm40-266v23q0 6 4.5 10t10.5 4q6 0 10-4t4-10v-23q0-6-4-10t-10-4q-6 0-10.5 4t-4.5 10zm0 0zm274 23v-23q0-6-4.5-10t-10.5-4q-6 0-10.5 4t-4.5 10v23q0 6 4.5 10t10.5 4q6 0 10.5-4t4.5-10zm0 0zm-118-12q-7 9-19.5 9t-18.5-9q-4-4-10-4.5t-11 3.5q-5 4-5 10.5t4 10.5q16 18 41 18t41-18q4-5 3.5-11t-5-10q-4.5-4-10.5-3.5t-10 4.5zm0 0zM171 895h6q5 33 26 61 18 22 43.5 34.5T301 1003h353q34 0 63-17t46-46q17-29 17-62V561q0-43-19.5-81.5T707 416l-16-12q16-8 25.5-24t9.5-35q0-28-20-47.5T658 278h-16l27-103 109-90q11-9 12-24t-8-26l-19-22q-9-11-23.5-12T714 9l-120 99q-12 10-15 22l-39 148H437q-6 0-10.5 4t-4.5 10.5q0 6.5 4.5 10.5t10.5 4h221q16 0 27 11t11 27q0 16-11 27t-27 11H297q-16 0-27-11t-11-27q0-16 11-27t27-11h81q6 0 10.5-4t4.5-10.5q0-6.5-4.5-10.5t-10.5-4h-81q-28 0-47.5 19.5T230 345q0 19 9.5 35t25.5 24l-16 12q-38 28-57 72h-21q-46 0-85 23t-62 62Q1 612 1 658v67q0 46 23 85t62 62q39 23 85 23zm399-617l37-140 2-2q2-5 4-6l120-99q1-1 3.5-1t4.5 2l19 22q3 4-1 8l-113 93q-3 3-5 8l-30 115h-41zM176 776h-5q-21 0-36-15t-15-36v-67q0-21 15-36t36-15h5v169zm90-336l36-27h351l37 27q28 21 44 53t16 68v317q0 39-28 67.5T654 974H301q-25 0-47-13.5T218.5 925Q205 903 205 878V583q0-35 4-53 5-27 20-50.5t37-39.5zM30 658q0-38 19-70.5t51.5-51.5q32.5-19 70.5-19h10q-3 13-5 39v22h-5q-33 0-56.5 23.5T91 658v67q0 33 23.5 56.5T171 805h5v60h-5q-38 0-70.5-19T49 795q-19-32-19-70v-67zm0 0z"/></svg>