<svg viewBox="0 0 1244 1083.753" xmlns="http://www.w3.org/2000/svg"><path d="M965 581q6 0 6-6.5t-6-6.5q-6 0-6 6 0 3 2 5t4 2zm-20 20q2 0 4-2t2-4q0-2-2-4t-4-2q-6 0-6 6t6 6zm20 19q6 0 6-6 0-3-1.5-5t-4.5-2q-6 0-6 7 0 2 2 4t4 2zm-20 20q2 0 4-2t2-4q0-2-2-4t-4-2q-6 0-6 6t6 6zm-19-20q6 0 6-6 0-3-1.5-5t-4.5-2q-6 0-6 7 0 2 2 4t4 2zm-20 20q2 0 4-2t2-4q0-2-2-4t-4-2q-6 0-6 6t6 6zm20 19q6 0 6-6t-6-6q-6 0-6 6 0 2 2 4t4 2zm-20 20q2 0 4-2t2-4q0-2-2-4t-4-2q-2 0-4 2t-2 4q0 2 2 4t4 2zm-39-39q2 0 4-2t2-4q0-2-2-4t-4-2q-6 0-6 6t6 6zm20 19q6 0 6-6t-6-6q-6 0-6 6 0 2 2 4t4 2zm-20 20q2 0 4-2t2-4q0-2-2-4t-4-2q-2 0-4 2t-2 4q0 2 2 4t4 2zm-19-20q2 0 4-2t2-4q0-2-2-4t-4-2q-6 0-6 6 0 2 2 4t4 2zm-20 20q2 0 4-2t2-4q0-2-2-4t-4-2q-2 0-4 2t-2 4q0 2 2 4t4 2zm20 19q2 0 4-2t2-4q0-2-2-4t-4-2q-6 0-6 6 0 2 2 4t4 2zm0 39q2 0 4-2t2-4q0-2-2-4t-4-2q-6 0-6 6 0 2 2 4t4 2zm-39-78q2 0 4-2t2-4q0-2-2-4t-4-2q-6 0-6 6 0 2 2 4t4 2zm-20 20q2 0 4-2t2-4q0-2-2-4t-4-2q-2 0-4 2t-2 4q0 6 6 6zm20 19q2 0 4-2t2-4q0-2-2-4t-4-2q-6 0-6 6 0 2 2 4t4 2zm-20 20q2 0 4-2t2-4q0-2-2-4t-4-2q-2 0-4 2t-2 4q0 6 6 6zm-19-59q2 0 4-2t2-4q0-2-2-4t-4-2q-6 0-6 6 0 2 2 4t4 2zm-20 20q2 0 4-2t2-4q0-2-2-4t-4-2q-2 0-4 2t-2 4q0 6 6 6zm20 19q2 0 4-2t2-4q0-2-2-4t-4-2q-6 0-6 6 0 2 2 4t4 2zm-20 20q2 0 4-2t2-4q0-2-2-4t-4-2q-2 0-4 2t-2 4q0 6 6 6zm0 27q-6 0-6 6t6 6q6 0 6-6 0-2-2-4t-4-2zm-19-86q2 0 4-2t2-4q0-2-2-4t-4-2q-6 0-6 6 0 2 2 4t4 2zm-20 20q2 0 4-2t2-4q0-2-2-4t-4-2q-2 0-4 2t-2 4q0 6 6 6zm20 19q2 0 4-2t2-4q0-2-2-4t-4-2q-6 0-6 6 0 2 2 4t4 2zm-20 20q2 0 4-2t2-4q0-2-2-4t-4-2q-2 0-4 2t-2 4q0 6 6 6zm0 27q-6 0-6 6t6 6q6 0 6-6 0-2-2-4t-4-2zm-39-66q2 0 4-2t2-4q0-2-2-4t-4-2q-2 0-4 2t-2 4q0 6 6 6zm20 19q2 0 4-2t2-4q0-2-2-4t-4-2q-6 0-6 6 0 2 2 4t4 2zm-20 20q2 0 4-2t2-4q0-2-2-4t-4-2q-2 0-4 2t-2 4q0 6 6 6zm0 27q-6 0-6 6t6 6q6 0 6-6 0-2-2-4t-4-2zm-39-66q2 0 4-2t2-4q0-2-2-4t-4-2q-2 0-4.5 2t-2.5 4q0 2 2 4t5 2zm20 19q2 0 4-2t2-4q0-2-2-4t-4-2q-6 0-6 6t6 6zm-20 20q2 0 4-2t2-4q0-2-2-4t-4-2q-2 0-4.5 2t-2.5 4q0 2 2 4t5 2zm0 27q-3 0-5 2t-2 4q0 2 2 4t5 2q6 0 6-6 0-2-2-4t-4-2zm-40-66q3 0 5-2t2-4q0-2-2-4t-5-2q-6 0-6 6 0 2 2 4t4 2zm21 19q2 0 4-2t2-4q0-2-2-4t-4-2q-6 0-6 6t6 6zm-60-19q6 0 6-6t-6-6q-6 0-6 6 0 2 2 4t4 2zm21 19q2 0 4-2t2-4q0-2-2-4t-4-2q-6 0-6 6t6 6zm0 27q-6 0-6 6t6 6q6 0 6-6 0-2-2-4t-4-2zm-60-46q6 0 6-6t-6-6q-6 0-6 6 0 2 2 4t4 2zm0 27q-2 0-4 2t-2 4q0 2 2 4t4 2q2 0 4-2t2-4q0-6-6-6zm21 19q-6 0-6 6t6 6q6 0 6-6 0-2-2-4t-4-2zm-60-19q-2 0-4 2t-2 4q0 2 2 4t4 2q2 0 4-2t2-4q0-6-6-6zm-18-20q-7 0-7 6 0 2 2 4t5 2q6 0 6-6 0-2-2-4t-4-2zm-60-19q-2 0-4 2t-2 4q0 2 2 4t4 2q2 0 4-2t2-4q0-6-6-6zm20 19q-6 0-6 6 0 2 2 4t4 2q2 0 4.5-2t2.5-4q0-2-2-4t-5-2zm-59-46q2 0 4-2t2-4q0-2-2-4t-4-2q-6 0-6 6t6 6zm0 27q-2 0-4 2t-2 4q0 2 2 4t4 2q2 0 4-2t2-4q0-2-2-4t-4-2zm20 19q-6 0-6 6 0 2 2 4t4 2q2 0 4-2t2-4q0-6-6-6zm-20 20q-2 0-4 2t-2 4q0 2 2 4t4 2q2 0 4-2t2-4q0-2-2-4t-4-2zm-39-66q2 0 4-2t2-4q0-2-2-4t-4-2q-6 0-6 6t6 6zm20 46q-6 0-6 6 0 2 2 4t4 2q2 0 4-2t2-4q0-6-6-6zm-20 20q-2 0-4 2t-2 4q0 2 2 4t4 2q2 0 4-2t2-4q0-2-2-4t-4-2zm-39-66q2 0 4-2t2-4q0-2-2-4t-4-2q-6 0-6 6t6 6zm20 46q-6 0-6 6 0 2 2 4t4 2q2 0 4-2t2-4q0-6-6-6zm-59-46q2 0 4-2t2-4q0-2-2-4t-4-2q-6 0-6 6t6 6zm20 46q-6 0-6 6 0 2 2 4t4 2q2 0 4-2t2-4q0-6-6-6zm-59-46q2 0 4-2t2-4q0-2-2-4t-4-2q-6 0-6 6t6 6zm0 27q-2 0-4 2t-2 4q0 2 2 4t4 2q2 0 4-2t2-4q0-2-2-4t-4-2zm20 19q-6 0-6 6 0 2 2 4t4 2q2 0 4-2t2-4q0-2-2-4t-4-2zm-59-19q-6 0-6 6t6 6q6 0 6-6 0-2-2-4t-4-2zm20 19q-6 0-6 6 0 2 2 4t4 2q2 0 4-2t2-4q0-2-2-4t-4-2zm-39-39q-6 0-6 6 0 2 2 4t4 2q2 0 4-2t2-4q0-2-2-4t-4-2zm-20 20q-6 0-6 6t6 6q6 0 6-6 0-2-2-4t-4-2zm-39-39q-6 0-6 6t6 6q6 0 6-6 0-2-2-4t-4-2zm20 19q-6 0-6 6 0 2 2 4t4 2q2 0 4-2t2-4q0-2-2-4t-4-2zm-39-40q-2 0-4 2t-2 4.5q0 2.5 2 4.5t4 2q2 0 4-2t2-4q0-2-2-4.5t-4-2.5zm78 13q2 0 4-2t2-4.5q0-2.5-2-4.5t-4-2q-2 0-4 2t-2 4.5q0 2.5 2 4.5t4 2zm156 0q6 0 6-6 0-3-1.5-5t-4.5-2q-6 0-6 7 0 2 2 4t4 2zm97 20q2 0 4-2t2-4q0-2-2-4t-4-2q-6 0-6 6t6 6zm598-67q-5-13-18-18 1-2 1-6 3-39-97-67-94-27-150-60h1q2-2 2.5-5.5t-1.5-6q-2-2.5-5-3t-6 1.5l-6 4q-15-9-43-31l2-1q2-2 2.5-5.5t-1-6q-1.5-2.5-5-3T666 368l-5 4-25-22-48-40-2-1q-3-6-10-16l-4-7q-21-30-38-43.5T502 232q-23 5-49.5 29T418 309q-5 13-1 26-46 19-77 18-19-1-31-10-7-7-18-24l-1-1q-15-24-28-34-23-17-62-18-25 0-43 20 0-55-9-62t-25.5 0q-16.5 7-21.5 18-4 8 8 47 8 26 19 53-11 38-9 80h-1q-23 0-49 35-16 21-51 85l-6 11q-15 27-11 46 3 13 21.5 37.5T62 675q16 11 37 19 35 13 81 22 32 6 89 13 17 2 52 8l21 3q9 1 20-1 7-2 20-6l5-2q22-9 33-7.5t84 24.5l23 7q51 15 58 16 53 10 109 10 48 0 94-8 101-20 158-81 41-44 51-79 6-23-1-40zM578 322l18 15 30 25 22 19-43 32q-2 2-2.5 5.5t1.5 6q2 2.5 5.5 2.5t5.5-1l46-34 8 6q22 18 35 26l-42 30q-2 2-2.5 5.5t1.5 6q2 2.5 5.5 2.5t5.5-1l46-34q49 29 114 50 0 2 2 4l1 1q3 8 0 13t-19 6q-27 3-80-8-82-16-170-90-48-39-86-85 33-13 54-15 26-2 44 13zm-145-8q7-20 30.5-41.5T506 247h2q9 0 23 13.5t28 35.5q-23-6-56 3-21 6-59 24-8 4-12 5-2-4 1-14zm-279 5q7-15 17-25 13-12 28-12h1q33 1 52 14 11 8 24 29.5t23 29.5q16 13 40.5 14t55.5-9q20-7 55-23l15-6q1 0 1 1l1 1q35 42 78 79 97 84 188 103 44 9 71 9 35 0 45-16 6-8 2-19l27 8q51 14 72 31 14 11 13 20 0 3-1 4-8 1-22 13-20 20-46 31-42 18-112 20h-1q-60-15-129-52-41-22-111-68-40-26-60-38-28-16-46-20-41-10-93 33-27 22-53 54l-1 1q-28 0-42-2-21-3-35-11-21-13-35-30-9-11-19-29-6-11-9-16-6-8-12-11-2-30 2.5-58.5T154 319zm-36 119q8 0 12.5 5t12.5 19q11 20 20 31 16 19 40 33 18 11 44 14 17 2 53 1 60 0 97 5 25 5 97 34 85 36 117 40 100 15 172 12v2q0 6 6 6t6-6q0-2-1-2l30-3q-2 2-2 4.5t2 4.5q2 2 4 2t4-2q2-2 2-5t-4-5q29-3 52-11 2 3 5 3 6 0 6-6v-1q20-7 36-18 9-6 21-17l4-4q8-6 10-6 13 0 18 11 2 4 2 10-6 0-6 5t6 7q-7 31-37 66h-2q-4 0-6 4-18 10-46 20 0-2-2-3.5t-4-1.5q-6 0-6 6l1 3-4 1q-28 10-44 14-2-4-5-4t-5 2q-2 2-2 4v1l-19 4q-107 19-204-4l1-1q0-2-2-4t-5.5-2q-3.5 0-4.5 4-31-9-47-16l1-2q0-6-5.5-6t-6.5 4l-40-17q-23-11-35-15l3 1q2 0 4-2t2-4q0-6-6-6-3 0-5 1.5t-2 4.5q0 3 4 5l-8-3q-16-4-23-5-1-3-6-3-2 0-4 1-28-3-68 2-1-3-5.5-3t-6.5 5l-27 3v-2q0-6-6-6t-6 6l1 3-6 1q-15 0-23-1 1-1 1-3 0-6-6-6t-6 6l1 2q-9-1-29-5-1-3-4-3t-4 1q-34-10-51-17-1-3-5-3h-2l-6-2q-41-18-70.5-42T41 533q25-46 41-67 21-28 36-28zm789 268h-1.5q-1.5 0-3.5 1.5t-2 3.5q-28 20-71 34h-1q-3 0-5 2-17 6-30 8 2-2 2-4t-2-4q-2-2-4-2t-4 2q-2 2-2 4 0 5 3 5-83 18-191 1 5-2 5-5t-2-5q-2-2-5-2-6 0-6 6 0 2 3 5h-3l-27-8q-1-3-6-3-2 0-2 1l-11-3q-21-7-32-10-4-2-5-2h-1q0-6-6-6-2 0-5 1l-1 1q-26-7-48-14v-1q0-6-6-6-2 0-3.5 1.5T432 710l-4-1-12-2q-3 0-11 1l-2 1q-1-3-4-3t-5 2q-2 2-2 4l-11 4q-13 5-19 7-11 2-18 1l-58-9q1-1 1-3t-2-4q-2-2-4-2t-4 2q-2 2-2 4v2q-2 0-4-1l-23-3q-2-4-5.5-4t-5.5 3l-13-2q-50-8-73-14v-1q0-6-5.5-6t-6.5 4q-12-3-34-11-5-1-13-5v-1q0-2-2-4t-4.5-2q-2.5 0-4.5 2-10-6-15-10h1q2 0 4-2t2-4q0-2-2-4t-4-2q-6 0-6 6v2q-5-4-16-15h2q2 0 4-2t2-4q0-2-2-4t-4-2q-6 0-6 6-3-2-7-8l-5-7q2 0 3.5-1.5t1.5-4q0-2.5-2-4.5t-4-2q-2 0-5 3-8-11-7.5-21.5T26 560l6-11q24 37 68 64v1q0 2 2 4t4 2l3-1 15 9q-2 0-3.5 2t-1.5 4q0 6 6 6t6-6l-1-3q24 12 48 21v1q0 2 2 4t4.5 2q2.5 0 4.5-4 21 7 49 13-2 2-2 4.5t2 4.5q2 2 4 2t4-2q2-2 2-4t-1-3h3q17 2 25 2v1q0 2 2 4t4 2q2 0 4-2t2-4h1q1 0 2-1 10 0 24-2v3q0 2 2 4t4 2q2 0 4-2t2-4.5q0-2.5-1-3.5 4 0 14-2h1q29-4 45-4 25-1 49 5-3 1-3 4t2 5q2 2 4 2t4-2q2-2 2-4v-2q15 4 41 17 1 0 5 1l2 1v2q0 6 6 6 3 0 4-3l14 6q22 9 34 13 2 4 5 4t3-1q30 9 51 14 0 2 2 4t4.5 2q2.5 0 4.5-4 41 9 88 9 45 0 96-9 2 4 5 4t5-2q2-2 2-4 54-12 100-31l-8 6z"/></svg>