<svg viewBox="0 0 1244 1083.753" xmlns="http://www.w3.org/2000/svg"><path d="M999 469q-5-79-33.5-152T888 185Q809 88 693 39.5T451 3Q317 16 208 95 102 172 46 291-11 414 3 550q11 112 69 209 57 95 149 157 94 64 206 80 116 17 226-19 105-33 186.5-108.5T963 691q44-106 36-222zM887 765l-24-3-195-20-26-70 58-221 80-20 184 136q-15 109-77 198zM584 962l78-189 204 21q-53 67-125.5 110T584 962zM135 794l203-21 78 189q-84-15-156.5-58T135 794zm-22-29q-62-89-77-198l182-134 82 19 59 220-26 70q-213 23-220 23zm274-108l-57-212 170-128 170 128-57 212H387zm581-126L803 410l70-193q50 66 75 146 25 82 20 168zM850 189q0 1-55 153l-22 59-82 21-175-132v-78L697 76q91 43 153 113zM664 62L500 185 336 62q78-29 163.5-29.5T664 62zM303 76q1 1 171 128l11 8v78L309 422l-81-18-78-215q64-72 153-113zM127 217l70 193L32 531q-5-86 20-168 25-80 75-146zm325 750q-2-2-89-217l23-62h228l24 62-89 217q-48 6-97 0z"/></svg>