<svg viewBox="0 0 1244 1083.753" xmlns="http://www.w3.org/2000/svg"><path d="M875 876h-31l12-283q2-47-16.5-90.5T786 428l-83-75V110q0-30-14.5-55T649 15.5Q624 1 594 1H219q-30 0-55 14.5T124 55q-15 25-15 55v625q0 30 14.5 55.5t40 40Q189 845 219 845h258l23 31h-31q-7 0-11.5 4.5T453 892v93q0 7 4.5 11.5t11.5 4.5h406q7 0 11.5-4.5T891 985v-93q0-7-4.5-11.5T875 876zM141 735V110q0-32 23-55t55-23h375q32 0 55 23t23 55v443l-35-5V110q0-20-13.5-33.5T590 63h-74q-19 0-33 13.5T469 110H344q0-20-13.5-33.5T297 63h-75q-19 0-32.5 14T176 110v625q0 19 13.5 33t32.5 14h368q20 0 33.5-14t13.5-33v-24l35 6v18q0 32-23 55t-55 23H219q-32 0-55-23t-23-55zm412-198q-21-3-37 11t-16 36q0 44 28.5 78.5T601 704l5 1v30q0 7-4.5 11.5T590 751H222q-6 0-10.5-4.5T207 735V110q0-6 4.5-10.5T222 95h75q7 0 11.5 4.5T313 110q0 14 9 23t22 9h125q13 0 22-9.5t9-22.5q0-6 4.5-10.5T516 95h74q7 0 11.5 4.5T606 110v434l-53-7zm-37 308h78q30 0 55-15t39.5-40q14.5-25 14.5-55 0-33-1-36-1-5-7-9-2-1-13-3l-76-14q-32-5-53.5-30.5T531 584q0-7 5.5-12t12.5-4l164 22q7 1 12-3t6-10q1-6-3-11.5t-11-6.5l-14-2V395l62 56q30 27 45.5 64t14.5 77l-12 284H539l-23-31zm343 125H484v-63h375v63zM313 688q-7 0-11.5 4.5T297 704q0 7 4.5 11.5T313 720h187q7 0 11.5-4.5T516 704q0-7-4.5-11.5T500 688H313zm-12-171q-15 0-25-10.5T266 482V313q0-19 14-32.5t33-13.5h187q19 0 33 13.5t14 32.5v94q0 19-13.5 33T500 454H353l-21 43q-5 9-13 14.5t-18 5.5zm12-219q-7 0-11.5 4.5T297 313v169q0 3 3 3t4-2l26-52q1-4 5-6t9-2h156q7 0 11.5-4.5T516 407v-94q0-6-4.5-10.5T500 298H313zm31 78q-7 0-11.5-4.5T328 360q0-7 4.5-11t11.5-4q7 0 11 4.5t4 10.5q0 6-4.5 11t-10.5 5zm15-16zm-15 0zm62 16q-6 0-10.5-4.5T391 360q0-7 4.5-11t10.5-4q6 0 11 4.5t5 10.5q0 6-4.5 11t-11.5 5zm16-16zm-16 0zm63 16q-7 0-11.5-4.5T453 360q0-7 4.5-11t11.5-4q7 0 11 4.5t4 10.5q0 6-4.5 11t-10.5 5zm15-16zm-15 0z"/></svg>