<svg viewBox="0 0 1244 1083.753" xmlns="http://www.w3.org/2000/svg"><path d="M246 271q6 0 10.5-4.5T261 256V45q0-6 4-10.5t10-4.5h450q6 0 10.5 4.5T740 45v211q0 6 4 10.5t10 4.5q6 0 10.5-4.5T769 256V45q0-18-13-31T725 1H275q-18 0-31 13t-13 31v211q0 6 4.5 10.5T246 271zm440 0q6 0 10.5-4.5T701 256V103q0-14-10.5-24T666 69H334q-14 0-24 10t-10 24v153q0 6 4 10.5t10 4.5q6 0 10.5-4.5T329 256V103q0-4 5-4h151v185q0 6 4.5 10.5T500 299q6 0 10.5-4.5T515 284V99h151q5 0 5 4v153q0 6 4.5 10.5T686 271zm296 296q-12-15-29-23t-36-8q-30 0-53 19.5T835 604l-3 14q-18-12-42-12H515V391q0-28 19.5-48t47.5-20h205q28 0 48 20t20 48v114q0 7 4 11t10 4q6 0 10.5-4t4.5-11V391q0-40-28.5-68.5T787 294H582q-25 0-47 12.5T500 340q-13-21-35-33.5T418 294H213q-40 0-68.5 28.5T116 391v44q0 6 4.5 10.5T131 450q6 0 10.5-4.5T146 435v-44q0-28 19.5-48t47.5-20h205q28 0 47.5 20t19.5 48v215H210q-24 0-42 12l-3-14q-4-22-19-40v-71q0-6-4.5-10.5T131 478q-6 0-10.5 4.5T116 493v50q-17-7-33-7-19 0-36 8t-28 23q-25 31-17 70l33 154q7 32 33 53.5t59 21.5h25l-23 71q-8 23 7 44 7 10 17.5 15t22.5 5q16 0 29-9.5t18-24.5l32-101h490l32 101q5 15 18 24.5t29 9.5q25 0 40-20t7-44l-22-71h24q33 0 59-21.5t33-53.5l33-154q8-38-16-70zm-156 84l-1 5q-2 12-11.5 19.5T792 683H515v-48h275q22 0 36 16zM195 958q-2 6-7 10t-12 4q-10 0-16-8.5t-3-17.5l25-80h42l-29 92zm648-12q3 9-3 17.5t-16 8.5q-7 0-12-4t-7-10l-29-92h42l25 80zm127-316l-33 155q-5 23-23.5 37.5T873 837H127q-23 0-41-15t-22-37L31 630q-3-11-.5-23t10-22q7.5-10 19-15t23.5-5q19 0 34 12.5t19 31.5l10 52q5 23 22.5 37.5T208 713h121q6 0 10.5-4.5T344 698q0-6-4.5-10.5T329 683H208q-12 0-21.5-7.5T175 656l-1-5q14-16 36-16h275v48h-97q-6 0-10.5 4.5T373 698q0 6 4.5 10.5T388 713h404q22 0 39.5-14.5T854 661l10-52q4-19 19-31.5t34-12.5q24 0 42 20 7 10 10 22t1 23zM615 415q-7 0-11.5 4.5T599 431q0 7 4.5 12t11.5 5q7 0 11.5-5t4.5-12q0-7-4.5-11.5T615 415zm-230 33q7 0 12-5t5-12q0-7-5-11.5t-12-4.5q-7 0-11.5 4.5T369 431q0 7 4.5 12t11.5 5z"/></svg>