<svg viewBox="0 0 1244 1083.753" xmlns="http://www.w3.org/2000/svg"><path d="M494 702q6 0 10-4t4-10v-20q0-6-4-10.5t-10-4.5q-6 0-10.5 4.5T479 668v20q0 6 4.5 10t10.5 4zm0 0zm217 0q6 0 10.5-4t4.5-10v-20q0-6-4.5-10.5T711 653q-6 0-10 4.5t-4 10.5v20q0 6 4 10t10 4zm0 0zm-109 11q24 0 38-17 4-4 4-10.5t-5-10.5q-5-4-11-3.5t-11 6q-5 5.5-15 5.5t-14.5-5.5q-4.5-5.5-10.5-6t-11 3.5q-5 4-5 10.5t4 10.5q14 17 37 17zm0 0zm37-632q-22 0-37 15t-15 37q0 22 15 37t37 15h39l7 44-91 92q-4 5-3.5 11t4.5 10q4 4 10 4t10-4l76-77 14 88-170 175-87-15 127-130q4-5 3.5-11t-4.5-10q-4-4-10-3.5t-10 4.5L413 507l-102-17q-15-3-30-3-8 0-11 1l-53-132h31q17 0 29.5-10t16.5-26q4-16-3-31-9-22-29.5-35.5T217 239q-30-1-46-5-10-2-21-8-24-13-48-13-41 0-70 29.5T3 313q0 18 13 30.5T47 356h57l21 52h-25q-10-19-31-19-2 0-3 1l-35 3q-14 2-23 13t-8 25l6 56q2 14 13 23t25 8l35-4q10-1 17.5-7t10.5-15h52l13 33q-7 5-20 18-25 27-37 61t-10 71q1 29 12 56t30 48l-89 91h-5q-20 0-34.5 14.5T4 919v24q0 13 10 23t23 10h182q13 0 22.5-9.5T251 943v-24q0-24-18-39l38-39h10q12 0 19-1-3 11 4 25 5 11 15.5 17.5T342 889q9 0 19-5l103-51q11-5 17-14l156-19q29 28 65 43t76 15q8 0 12-1l2 13h-10q-20 0-34.5 14.5T733 919v24q0 13 10 23t23 10h182q13 0 22.5-9.5T980 943v-24q0-20-14-34.5T932 870h-25l-8-52q31-23 54-60 3-5 1.5-11t-6.5-9.5q-5-3.5-11-1.5t-9 7q-15 25-35 42l-49-291q49 20 78.5 63.5T952 655q0 21-4 38-2 6 1.5 11t9.5 6.5q6 1.5 11-2t6-9.5q5-18 5-44 0-67-39.5-120.5T839 461l-17-101h43q5 8 13.5 13t18.5 5l36-5q15-3 24-15.5t7-27.5l-18-103q-2-15-14.5-24t-27.5-6l-31 5q-10 2-18 8.5T844 227h-44l-7-42h8q35 0 68.5-12.5T930 137l52-44q16-14 17.5-35.5t-12-38Q974 3 952 1t-38 12l-52 45q-26 23-61 23H639zM33 313q0-29 20-49.5t49-20.5q19 0 34 9l2 1q13 7 25 10 20 4 53 5 16 1 29 10t19 23q4 9-1 17.5t-15 8.5H47q-6 0-10-4.5t-4-9.5zm164 196l-61-153h49l55 136q-25 7-43 17zM76 485l-35 4q-2 0-4-1.5t-2-3.5l-6-56q0-2 1.5-4t3.5-2l35-3q2 0 4 1.5t2 3.5l6 55q0 2-1.5 4t-3.5 2zm71-22h-39l-2-26h31l10 26zm804 456v24q0 1-1 2.5t-2 1.5H766q-1 0-2.5-1.5T762 943v-24q0-8 6-14t14-6h150q8 0 13.5 6t5.5 14zM829 578l-58-10q-38-228-63-383h55l66 393zm-89-15l-97-17q35-43 85-58l12 75zm66 217l55-6 17 96h-57l-15-90zm-95-392q7 38 12 71-35 10-64 31t-49 51l-40-7 141-146zM222 943q0 4-3 4H37q-3 0-3-4v-24q0-8 5.5-14t13.5-6h150q8 0 13.5 6t5.5 14v24zm-20-73H99l68-70q33 26 69 35l-34 35zm79-58q-29 0-55.5-11T179 770.5Q159 751 147 726t-13-53q-2-30 8.5-58.5t31.5-51q21-22.5 49-34.5t58-12q17 0 25 2l528 89 23 137-369 43-3-8q-6-17-24-24t-35 1l-17 8-22-32q21-30 21-67 0-32-15.5-58.5T350 565q-27-16-59-16t-59 16q-27 16-42.5 42.5t-15.5 58q0 31.5 16 58.5t43 43q27 16 58 16 13 0 25-3l15 23-9 5h-3q-25 4-38 4zm88-106l-42-64q-9-13-24.5-17.5T273 627q-17 8-22.5 27.5T256 690l42 63-7 1q-36 0-61.5-26T204 666q0-36 25.5-61.5t62-25.5q36.5 0 62 25.5T379 666q0 20-10 40zm-89-32q-3-5-2-10.5t5.5-8.5q4.5-3 10.5-2t9 6l79 119-24 12-78-116zm171 133q-51 25-103 51-5 2-10.5.5T330 852q-2-5-.5-10.5t6.5-7.5l103-51q8-4 14 .5t6 12q0 7.5-8 11.5zm226-11l100-12 8 44q-59 3-108-32zm196-562q2-3 5-3l31-6q3 0 5.5 2t2.5 5l18 103q0 3-2 5.5t-4 3.5l-31 5q-3 1-5.5-1t-3.5-5l-17-104q0-4 1-5zm-28 22l13 75h-41l-12-75h40zm36-176l52-44q7-7 16.5-6t15.5 8q6 7 5.5 16.5T963 70l-52 45q-23 20-51.5 30.5T801 156H639q-10 0-16.5-7t-6.5-16.5q0-9.5 6.5-16T639 110h162q22 0 42.5-8T881 80zm0 0z"/></svg>