<svg viewBox="0 0 1244 1083.753" xmlns="http://www.w3.org/2000/svg"><path d="M277 395q-4 0-7-3L108 272q-17-12-20-32t9-37q12-17 32.5-20t36.5 9q1 0 1 1l162 119q4 4 4.5 9t-2.5 9l-44 60q-3 5-10 5zM137 208q-10 0-17 7t-7 17q0 14 10 20l151 113 30-40-152-113q-5-4-15-4zm726 611q-16 0-30-9L671 690q-4-3-4.5-8.5t2.5-9.5l44-60q3-4 8.5-4.5t9.5 2.5l161 120q17 12 20 32t-9 37q-15 20-40 20zM696 677l152 112q8 7 18 5.5t16.5-10Q889 776 887 766t-10-17L726 637l-30 40zM261 417q-5 0-9-4t-4-8.5q0-4.5 3-7.5l77-104q2-5 7.5-6t10 2q4.5 3 5.5 8t-2 9q-1 1-1 2l-77 104q-5 5-10 5zm401 297q-3 0-7-2.5t-5-7.5q-1-5 2-10l77-104q4-4 9-4.5t9 3q4 3.5 4.5 8T749 605l-77 104q-3 5-10 5zm39-52q-2 0-6-1l-2-1-401-298q-4-3-4.5-8t2.5-9q8-8 17-3l401 298q4 3 5 8t-2 9q-5 5-10 5z"/></svg>