<svg viewBox="0 0 1244 1083.753" xmlns="http://www.w3.org/2000/svg"><path d="M385 643q0-8-5.5-13.5T366 624q-8 0-13 5.5t-5 13.5q0 5 3 10t8 7v32q-5 2-8 7t-3 10q0 5 3 10t8 7v34q0 8 7 8 3 0 5.5-2t2.5-6v-34q11-5 11-17t-11-17v-32q5-2 8-7t3-10zM695 1H305q-33 0-61 16.5t-44.5 45Q183 91 183 124v754q0 33 16.5 61.5t44.5 45q28 16.5 61 16.5h390q33 0 61-16.5t44.5-45Q817 911 817 878V124q0-33-16.5-61.5t-44.5-45Q728 1 695 1zM574 929q0 11-7.5 18.5T548 955h-96q-11 0-18.5-7.5T426 929v-2q0-10 7.5-17.5T452 902h96q11 0 18.5 7.5T574 927v2zm177-135q0 25-17.5 43T690 855H310q-25 0-43-18t-18-43V132q0-25 18-43t43-18h380q25 0 43 18t18 43v662zM496 423q42 0 77-20.5t55.5-55.5q20.5-35 20.5-76.5T628.5 194Q608 159 573 138.5T496 118q-7 0-7 8 0 3 2 5t5 2q37 0 69 18.5t50.5 50Q634 233 634 270t-18.5 68.5Q597 370 565 388.5T496.5 407q-36.5 0-66.5-17t-49-47q-2-2-5.5-2.5t-6 .5q-2.5 1-3.5 4.5t1 6.5q21 33 55.5 52t73.5 19zm-87-98q12 11 34 11 9 0 20-2l4-1q18-4 20-4 17 0 29 .5t37-9.5q19-7 28-12 18-10 16-27 0-8-6-12-3-10-10-15-11-11-26-11l-9 1q-21-3-29-18l-17-28q-6-11-19-9-6 2-9.5 6t-3.5 10q-1 19-8 26-6 4-20-3h-1q-10-4-15-2-8 5-11 29l-1 24q-13 13-13 25t10 21zm74-119q0-1 1-1.5t1 .5h1v1l17 28q4 6 6 8-4 0-9-3-7-4-12-14-3-6-5-12v-7zm-54 51q0-11 3-15l3 1q10 4 15 5 11 1 17.5-3.5t8.5-8.5q8 13 16 17 10 5 20 5 4 0 12-2h2q2 0 2-1 9 4 18 4h9q9 0 15 6l3 3 1 1-10 2q-58 13-86 9l-9-2q-27-5-41-5l1-16zm-6 33q6-4 43 4l10 2q34 5 91-10l15-3v2q-2 5-9.5 10T547 307q-22 8-31 7l-29-1q-2 0-14 3l-10 2q-10 3-20 2-16 0-23-7-5-4-5-9.5t8-13.5zm27 223v3q2 9 8.5 15t15.5 6h1q10 0 16.5-6.5t7-17Q499 503 492 496t-18-7h-1l1-6h13q4 0 6-2.5t2-5.5q0-3-2-5.5t-6-2.5h-20q-6 0-8 6l-4 25q0 4 3 7-4 0-6 2.5t-2 5.5zm17-7l1-1q3-1 6.5-1t6 3.5q2.5 3.5 2.5 6.5t-2.5 5.5Q478 522 475 522h-1q-3 0-5.5-2.5T466 514v-1q0-3-3-6 2 0 4-1zm127 31q4 0 6-2.5t2-5.5v-8q7-2 7-8t-7-8v-27q0-8-8-10-5-3-12 4-2 3-10 16l-11 21q-3 5-1 8.5t7 3.5h20q-1 3-1 7t2.5 6.5q2.5 2.5 5.5 2.5zm-13-32q1-2 3-5l3-5v10h-6zm-52 32q10 0 17-7t7-17q0-10-8-16 3-5 3-12t-5.5-12.5q-5.5-5.5-13-5.5t-13.5 5.5q-6 5.5-6 12.5t3 12q-7 6-7 16t6.5 17q6.5 7 16.5 7zm0-54q1 0 2.5 1t1.5 2q0 1-1.5 2.5T528 490q-2 0-2-3.5t3-3.5zm0 23q3 0 5.5 2t2.5 5q0 3-2.5 5.5T529 521q-3 0-5.5-2t-2.5-6q0-7 8-7zm-101-24q2-2 2.5-5.5t-1-6q-1.5-2.5-5-3T419 469h-1q-19 17-22 41v3q0 10 7 17t17 7q10 0 16.5-7t6.5-16.5q0-9.5-6.5-16.5t-15.5-7q2-3 5-6l2-2zm-1 31q0 3-2 5.5t-5 2.5q-3 0-5.5-2.5T412 513q0-3 2-5.5t6-2.5q7 0 7 8zm234 78H344q-17 0-29 12t-12 29v130q0 17 12 29.5t29 12.5h317q17 0 29-12.5t12-29.5V632q0-17-12-29t-29-12zm26 171q0 11-7.5 18.5T661 788H344q-11 0-18.5-7.5T318 762V632q0-11 8-18.5t18-7.5h317q11 0 18.5 7.5T687 632v130zM441 635h-21q-4 0-6 2.5t-2 5.5q0 3 2 5.5t6 2.5h21q3 0 5.5-2.5t2.5-5.5q0-3-2.5-5.5T441 635zm0 66h-21q-4 0-6 2.5t-2 5.5q0 3 2 5.5t6 2.5h21q3 0 5.5-2.5t2.5-5.5q0-3-2.5-5.5T441 701zm184-66H494q-4 0-6 2.5t-2 5.5q0 3 2 5.5t6 2.5h131q4 0 6-2.5t2-5.5q0-3-2-5.5t-6-2.5zm0 66H494q-4 0-6 2.5t-2 5.5q0 3 2 5.5t6 2.5h131q4 0 6-2.5t2-5.5q0-3-2-5.5t-6-2.5z"/></svg>