<svg viewBox="0 0 1244 1083.753" xmlns="http://www.w3.org/2000/svg"><path d="M654 218H238q-8 0-13.5 5.5T219 237v121q0 8 5.5 13.5T238 377q8 0 14-5.5t6-13.5V257h377v206q-16-13-33-20v-3q2-11 2-16 0-31-15.5-58T546 323.5Q519 308 488 308t-58 15.5Q403 339 387.5 366T372 424q0 5 2 16v3q-32 13-52 42t-20 65q0 31 15.5 57.5t42.5 42q27 15.5 58 15.5h10v109q0 30-17 55l-17 25H258V531q0-8-6-14t-14-6q-8 0-13.5 6t-5.5 14v343q0 8 5.5 13.5T238 893h416q8 0 14-5.5t6-13.5V237q0-8-6-13.5t-14-5.5zM418 626q-32 0-54.5-22.5T341 550q0-27 17-48.5t43-26.5q10-2 13.5-9.5T416 449q-5-13-5-25 0-32 23-54.5t54.5-22.5q31.5 0 54 22.5T565 424q0 12-5 25-2 9 2 16 5 9 13 10 26 5 43 26.5t17 48.5q0 31-22.5 53.5T558 626h-8v-89q0-25-18-43t-43-18q-25 0-43 18t-18 43v11l-17-13q-7-5-15-4t-13 7.5q-5 6.5-4 14.5t8 13l41 32v28h-10zm23 228l3-3q23-35 23-77V537q0-9 6.5-15.5T489 515q9 0 15.5 6.5T511 537v239q0 38 22 74l3 4h-95zm141 0l-16-25q-16-23-16-53v-4l41-29q7-4 8.5-12.5t-3-15q-4.5-6.5-13-8T569 711l-19 13v-59h8q43 0 77-29v218h-53zm307-680q5-7 5-13V20q0-8-6-13.5T874 1H743q-6 0-13 5l-16 13q-10 9-22.5 9T669 19L653 6q-7-5-13-5H467q-8 0-13 5l-16 13q-10 9-23 9t-22-9L377 6q-7-5-13-5H235q-8 0-14 5.5T215 20v90h-89q-8 0-14 6t-6 14v141q0 6 5 13l13 15q9 10 9 22.5t-9 22.5l-13 16q-5 5-5 12v138q0 6 5 13l13 15q9 10 9 23t-9 23l-13 15q-5 5-5 13v137q0 6 5 13l13 15q9 10 9 23t-9 23l-13 15q-5 7-5 13v131q0 8 6 13.5t14 5.5h129q6 0 13-5l15-13q10-9 23-9t23 9l16 13q5 5 13 5h173q6 0 13-5l15-13q10-9 23-9t23 9l16 13q5 5 13 5h131q8 0 14-5.5t6-13.5v-90h89q8 0 14-6t6-14V743q0-8-5-13l-14-16q-8-10-8-23t8-23l14-16q5-7 5-13V504q0-8-5-13l-14-16q-8-10-8-23t8-23l14-16q5-7 5-13V264q0-7-5-12l-14-16q-8-10-8-23.5t8-23.5l14-15zM746 962H641l-10-9q-21-18-49-18t-48 18l-10 9H365l-10-9q-21-18-49-18t-48 18l-10 9H145V858l9-10q18-20 18-48t-18-48l-9-10V619l9-10q18-20 18-48t-18-49l-9-9V380l9-10q18-21 18-48.5T154 273l-9-10V149h103l4 3q22 23 50.5 25t52.5-19l10-9h159l10 9q20 18 48 18t49-18l10-9h105v114l-9 10q-18 20-18 48.5t18 48.5l9 11v121l-9 10q-19 22-17.5 50.5T740 613l6 7v121l-9 10q-18 21-18 49t18 49l9 10v103zm109-809l-9 11q-18 21-18 49t18 48l9 11v121l-9 10q-18 21-18 49t18 48l9 11v121l-9 10q-18 21-18 49t18 49l9 10v103h-70v-1q0-8-5-13l-5-6q-16-17-16-33t16-34l5-5q5-7 5-13V613q0-8-5-13l-10-11q-10-12-12-26t8-25l14-16q5-7 5-13V373q0-7-5-12l-14-16q-8-10-8-23t8-23l14-16q5-7 5-13V130q0-8-6-14t-14-6H634q-9 0-18 9l-11 9q-10 9-23 9t-22-9l-16-13q-7-5-13-5H358q-8 0-13 5l-16 14q-11 10-25 8t-26-13l-10-9q-7-5-13-5h-1V40h103l10 9q21 18 48.5 18T464 49l10-9h159l10 9q21 18 48.5 18T740 49l10-9h105v113zM228 461q5 4 11.5 4t11-4q4.5-4 6.5-10t0-12q-5-13-19-13-6 0-11 3.5t-7 9.5q-2 6 0 12.5t8 9.5z"/></svg>