<svg viewBox="0 0 1244 1083.753" xmlns="http://www.w3.org/2000/svg"><path d="M506 905q-110 0-204-55-91-54-145-146-55-94-55-203 0-4-2.5-6.5t-6-2.5q-3.5 0-6 2.5T85 501q0 114 58 212 55 96 151 151 98 58 212 58 3 0 5.5-2.5t2.5-6q0-3.5-2.5-6T506 905zm123-712l13 10h-78q-4 0-6.5 2t-2.5 6q0 4 2.5 6.5t6.5 2.5h102l34 24 3 3h-68q-4 0-6.5 2.5T626 256q0 4 2.5 6.5t6.5 2.5h73v4l-27 83q-5 12 1 18 3 5 10 5 5 0 13-5l71-52q5-3 12.5-3t13.5 3l70 52q8 5 13.5 5t10-5.5Q900 364 897 352l-1-3h62q4 0 6.5-2.5t2.5-6q0-3.5-2.5-6T958 332h-68l-20-63q-2-6 .5-13.5T878 244l21-15h88q4 0 6.5-2.5t2.5-6.5q0-4-2.5-6t-6.5-2h-64l25-19q13-9 10-19t-19-10h-87q-7 0-13.5-4.5T831 149l-27-83q-5-14-15.5-14T773 66l-26 83q-2 6-8.5 10.5T726 164h-88q-8 0-12.5 3t-5.5 7q-4 10 9 19zm97-11q12 0 22.5-8t14.5-19l26-79 25 79q4 11 15 19t23 8h82l-67 48q-10 7-14 20t0 24l26 79-67-49q-12-7-23.5-7t-23.5 7l-66 49 25-79q4-11 0-24t-14-20l-67-48h83zm234 671H853q0-1 1-1l1-1q70-70 107.5-160.5T1000 501q0-36-4-63-2-8-9-8-3 0-5.5 2t-2.5 5q-7 41-17 69H813q-4 0-6.5 2.5t-2.5 6q0 3.5 2.5 6t6.5 2.5h142q-27 65-77.5 115.5t-117 78.5Q694 745 622 745q-87 0-165-40-75-39-125.5-107.5T267 445h127q4 0 6.5-2.5t2.5-6q0-3.5-2.5-6T394 428H264q-1-9-2-27l-1-14h196q3 0 5.5-2.5t2.5-6q0-3.5-2.5-6T457 370H262q2-40 10-72h102q4 0 6.5-2.5t2.5-6.5q0-4-2.5-6t-6.5-2h-97q20-65 62.5-119T441 73q59-35 128-45 3-1 5.5-3.5T577 19q0-3-2.5-5.5T569 11q-28-4-63-4-99 0-189.5 37T156 151.5Q86 222 48.5 312T11 501q0 87 29 167.5T124 815H9q-4 0-6.5 2.5T0 824q0 4 2.5 6.5T9 833h130l17 18q14 14 22 20h-47q-4 0-6 2.5t-2 6.5q0 4 2 6.5t6 2.5h67l9 7q21 15 33 22H49q-4 0-6.5 2.5t-2.5 6q0 3.5 2.5 6T49 935h220q108 60 237 60 140 0 256-71h136q4 0 6-2.5t2-6.5q0-8-8-8H788q22-15 46-36h126q4 0 6.5-2.5t2.5-6.5q0-4-2.5-6.5T960 853zM29 501q0-129 65-241 64-107 171-171 112-65 241-65h3Q406 57 337 136q-45 52-69 116t-24 133q0 102 52 190 50 86 136 136 88 52 190 52 68 0 132-24t116-69q40-34 68.5-78t44.5-94v3q0 129-65 241-64 107-171 171-112 65-241 65t-241-65Q158 849 94 742 29 630 29 501z"/></svg>