<svg viewBox="0 0 1244 1083.753" xmlns="http://www.w3.org/2000/svg"><path d="M362 97q6 0 10-4t4-11V57q0-6-4-10t-10-4q-6 0-10.5 4T347 57v25q0 7 4.5 11t10.5 4zm0 0zm276 0q6 0 10.5-4t4.5-11V57q0-6-4.5-10T638 43q-6 0-10 4t-4 10v25q0 7 4 11t10 4zm0 0zm-138 13q28 0 45-20 4-4 4-10t-4.5-10q-4.5-4-11-4T523 71q-8 10-22 10t-24-10q-4-5-10.5-5T456 70q-4 4-4.5 9.5T455 90q8 10 20 15t25 5zm0 0zm490 391q13-18 9-40L907 83q-8-36-37-59T804 1H196q-37 0-66 23T93 83L1 461q-5 22 9 39.5T46 518h186q17 0 29-9.5t16-25.5l50-209h346l50 209q4 16 16.5 25.5T768 518h186q22 0 36-17zM121 89q7-26 27.5-42.5T196 30h608q27 0 48 16.5T879 89l8 34H276q-6 0-10 4.5t-4 10.5q0 6 4 10t10 4h618l22 93H84l22-93h114q6 0 10.5-4t4.5-10q0-6-4.5-10.5T220 123H113l8-34zm128 387q-1 6-6 9.5t-11 3.5H46q-8 0-13-6.5T30 468l17-72h221l-19 80zm26-109H54l23-93h220l-22 93zm692 115q-5 7-13 7H768q-6 0-10.5-3.5T752 476l-20-80h57q6 0 10.5-4t4.5-10q0-6-4.5-10.5T789 367h-64l-22-93h221l22 93h-99q-6 0-10 4.5t-4 10.5q0 6 4 10t10 4h106l17 72q1 4 0 8t-3 6zm0 0z"/></svg>