<svg viewBox="0 0 1244 1083.753" xmlns="http://www.w3.org/2000/svg"><path d="M830 340l35-40q11-9 10-23.5T863 253l-57-53q-10-9-24-8.5T758 202l-35 39q-73-46-152-59v-39h9q17 0 28.5-12t11.5-28V41q0-17-11.5-28.5T580 1H423q-16 0-28 11.5T383 41v62q0 16 12 28t28 12h7v39q-79 13-152 59l-35-39q-9-10-23-10.5t-25 8.5l-57 53q-11 9-11.5 23t9.5 24l35 40q-40 53-61 115-22 65-22 133.5T109 720q21 63 61 117 4 5 10 5.5t11-3q5-3.5 5.5-10T193 819q-37-50-56.5-108.5T117 589q0-104 52-194 51-87 138-138 89-52 193-52t193 52q87 51 138 138 53 90 53 194t-52 194q-51 87-138 138-90 52-194 52-75 0-144-28t-123-81q-4-4-10-3.5t-10 5q-4 4.5-4 10t4 9.5q57 57 131.5 87t155.5 30q112 0 208-56 94-55 149-149 56-96 56-208 0-69-22-134-21-62-61-115zM477 113V30h49v83h-49zm114-72v62q0 4-3.5 7t-7.5 3h-25V30h25q5 0 8 3t3 8zm-179 62V41q0-5 3.5-8t7.5-3h25v83h-25q-4 0-7.5-3t-3.5-7zM190 317l-33-36q-1-2-1-4t2-3l57-52q2-2 3.5-1.5t2.5 1.5l33 36q-36 27-64 59zm270-139v-35h81v35q-26-2-40.5-2t-40.5 2zm287 80l32-36q2-1 3.5-1.5t3.5 1.5l57 52 2 2v1q0 2-1 4l-33 36q-28-32-64-59zm-25 127q5 4 11 4t10-4q4-4 4.5-9.5T744 365q-47-51-110.5-79T500 258q-90 0-166 45-75 44-119 119-45 77-45 167t45 167q44 75 119 119 76 45 165.5 45T667 875q75-44 119-119 45-78 45-167 0-94-48-172-3-5-9-6.5t-11 1.5q-5 3-6.5 9t1.5 11q44 71 44 157 0 57-21 110-20 51-57 92L576 644q18-24 18-55 0-35-22.5-61.5T515 496V288q59 2 113 27.5t94 69.5zM407 589q0 39 27.5 66.5T500 683q30 0 56-18l147 147q-38 35-86.5 55.5T515 890v-15q0-6-4-10t-10.5-4q-6.5 0-10.5 4t-4 10v15q-53-2-101.5-22.5T298 812l10-10q5-5 5-11t-4.5-10.5Q304 776 298 776t-10 5l-11 10q-34-38-54.5-86T199 604h15q6 0 10.5-4.5T229 589q0-6-4.5-10.5T214 574h-15q3-53 23.5-101.5T277 386l11 11q4 4 10.5 4t10.5-4.5q4-4.5 4-10.5t-5-10l-10-10q38-35 86.5-55.5T486 288v208q-34 5-56.5 31.5T407 589zm158 0q0 26-19 45t-46 19q-27 0-45.5-19T436 589q0-26 19-45.5t45.5-19.5q26.5 0 45.5 19t19 46z"/></svg>