<svg viewBox="0 0 1244 1083.753" xmlns="http://www.w3.org/2000/svg"><path d="M866 68H699q-6 0-10.5 4.5T684 83q0 6 4.5 10.5T699 98h167q6 0 10.5 4t4.5 11v842q0 6-4.5 10.5T866 970H132q-6 0-10.5-4.5T117 955V828q0-6-4.5-10.5T102 813q-6 0-10 4.5T88 828v127q0 18 12.5 31t31.5 13h734q18 0 31-13t13-31V113q0-19-13-32t-31-13zM102 780q6 0 10.5-4t4.5-11V113q0-7 4.5-11t10.5-4h165q6 0 10.5-4.5T312 83q0-6-4.5-10.5T297 68H132q-19 0-31.5 13T88 113v652q0 7 4 11t10 4zm280-613h115q6 0 10.5-4t4.5-10.5q0-6.5-4.5-10.5t-10.5-4H382q-4 0-8-4t-4-8V85q0-5 3.5-8.5T382 73h1q6 0 10-4.5t4-10.5V38q0-3 2.5-5.5T406 30h184q4 0 6.5 2.5T599 38v20q0 6 4 10.5t10 4.5h1q5 0 8.5 3.5T626 85v41q0 4-3.5 8t-8.5 4h-55q-6 0-10 4t-4 10q0 6 4 10.5t10 4.5h55q17 0 29-12t12-29V85q0-13-7.5-23.5T628 46v-8q0-15-11-26T590 1H406q-16 0-27 11t-11 26v8q-12 5-19.5 15.5T341 85v41q0 17 12 29t29 12zm191-68q0-6-4-10.5T558 84H442q-6 0-10 4.5T428 99q0 6 4 10t10 4h116q7 0 11-4t4-10zM233 335q0 22 15.5 37.5T286 388q22 0 37-15.5t15-37.5q0-22-15-37.5T286 282q-22 0-37.5 15.5T233 335zm76 0q0 10-6.5 16.5T286 358q-10 0-17-6.5t-7-16.5q0-10 7-16.5t17-6.5q10 0 16.5 6.5T309 335zm382-53q-22 0-37 15.5T639 335q0 22 15 37.5t37 15.5q22 0 37.5-15.5T744 335q0-22-15.5-37.5T691 282zm0 76q-10 0-16.5-6.5T668 335q0-10 6.5-16.5T691 312q10 0 17 6.5t7 16.5q0 10-7 16.5t-17 6.5zm14 457q0 20 14.5 34.5T754 864q20 0 34-14.5t14-34.5q0-20-14-34.5T754 766q-20 0-34.5 14.5T705 815zm49-19q8 0 13.5 5.5t5.5 13q0 7.5-5.5 13.5t-13.5 6q-8 0-14-6t-6-13.5q0-7.5 6-13t14-5.5zm-48-334q-6-6-14.5-6t-14.5 6l-39 39q-4 4-4 10t4 10q4 4 10 4t10-4l19-18v99q0 29-14.5 54T623 695.5Q598 710 568 710h-85q-6 0-10.5 4.5T468 725q0 6 4.5 10.5T483 740h85q37 0 69-18.5t50.5-50.5q18.5-32 18.5-69v-99l18 18q5 5 10.5 5t10-4.5Q749 517 749 511t-4-10l-39-39zm-257 53q7 0 11-4.5t4-10.5q0-6-4-10l-61-60h26q6 0 10.5-4.5T440 415q0-6-4.5-10t-10.5-4h-55q-9 0-15 6t-6 14v56q0 6 4.5 10t10.5 4q6 0 10.5-4t4.5-10v-26l60 60q4 4 10 4zm37 104q4 4 10.5 4t10.5-4l20-20 20 20q4 4 10.5 4t10.5-4.5q4-4.5 3.5-10.5t-4.5-10l-19-20 19-20q4-4 4.5-10t-3.5-10.5q-4-4.5-10-4.5t-11 5l-20 20-20-20q-4-5-10-5t-10.5 4.5Q482 542 482 548t4 10l20 20-20 20q-4 4-4 10t4 11zM380 726q-4-4-10-4.5t-11 3.5l-20 20-20-20q-5-4-11-3.5t-10 4.5q-4 4-4 10t4 10l20 20-20 20q-4 4-4 10t5 10.5q5 4.5 10.5 4.5t9.5-4l20-20 20 20q4 4 9.5 4t11.5-4q4-5 4-11t-4-10l-20-20 20-20q4-4 4-10t-4-10z"/></svg>