<svg viewBox="0 0 1244 1083.753" xmlns="http://www.w3.org/2000/svg"><path d="M930 309h-10v-34q0-74-37-137T783 38Q720 1 646 1h-45q-22 0-39.5 13.5T539 49l-13 45q-1 6 2 11t8.5 7q5.5 2 11-1t6.5-9l13-46q3-11 12.5-18.5T601 30h45q43 0 82 14L520 309h-22l41-151q2-6-1-11.5t-9-6.5q-6-1-11 2t-7 9l-43 158H289v-68q0-41-28.5-69.5T191 143H70q-19 0-33 13.5t-14 33Q23 209 37 223t33 14h117q4 0 6 2.5t2 5.5v64h-72q-19 0-32.5 14T77 356v9q0 19 13.5 33t32.5 14h10v37q0 58 29 107t78 78q49 29 107 29h20l101 101-47 47q-15-6-32-6-40 0-69 28.5t-29 69q0 40.5 29 69.5t69 29q40 0 68.5-28.5T486 903q0-20-5-32l47-47 47 47q-5 17-5 32 0 40 28.5 69t68.5 29q40 0 69-29t29-69.5q0-40.5-28.5-69T667 805q-17 0-32 6l-47-47 101-101h17q58 0 107-29t78-78q29-49 29-107v-37h10q20 0 33.5-14t13.5-33v-9q0-20-13.5-33.5T930 309zM756 56q62 31 100 93L588 309h-31L756 56zM53 190q0-7 5-12t12-5h47v35H70q-7 0-12-5.5T53 190zm134 18h-40v-35h44q29 0 49 20t20 48v68h-36v-64q0-16-10.5-26.5T187 208zm221 455h37l62 62-18 18-81-80zm120 41l-41-41h82l-41 41zM389 972q-28 0-48.5-20.5T320 903q0-28 20-48t48.5-20q28.5 0 48.5 20t20 48q0 28-20 48.5T389 972zm347-69q0 28-20 48.5T667.5 972q-28.5 0-48.5-20t-20-48.5q0-28.5 20-48.5t48-20q28 0 48.5 20t20.5 48zm-128-78q-11 10-18 19l-41-41 18-18 41 40zm-142 19q-7-9-18-19l163-162h37L466 844zm482-479q0 7-5 12t-13 5H336q-6 0-10.5 4.5T321 397q0 6 4.5 10.5T336 412h555v37q0 50-25 92t-67.5 67Q756 633 706 633H347q-50 0-92.5-25t-67-67Q163 499 163 449v-37h111q6 0 10.5-4.5T289 397q0-6-4.5-10.5T274 382H123q-7 0-12-5t-5-12v-9q0-7 5-12t12-5h648q6 0 10.5-4.5T786 324q0-6-4.5-10.5T771 309H645l225-134q21 50 21 100v34h-64q-6 0-10.5 4.5T812 324q0 6 4.5 10.5T827 339h103q8 0 13 5t5 12v9zM667 948q19 0 32-13t13-32q0-19-13-32t-31.5-13q-18.5 0-31.5 13.5T623 903q0 18 13 31.5t31 13.5zm0-60q7 0 11.5 4.5T683 903q0 6-4.5 11t-11.5 5q-7 0-11-4.5t-4-11.5q0-7 4.5-11t10.5-4zm-278-30q-19 0-32 13.5T344 903q0 18 13 31.5t32 13.5q19 0 32-13t13-32q0-19-13.5-32T389 858zm0 61q-7 0-11.5-4.5T373 903q0-7 4.5-11t11.5-4q7 0 11 4.5t4 10.5q0 6-4.5 11t-10.5 5z"/></svg>