<svg viewBox="0 0 1244 1083.753" xmlns="http://www.w3.org/2000/svg"><path d="M167 529q2 1 5 1 11 0 14-9l98-277q1-1 1-3l13-80q3-21 14.5-38.5T343 94l88-51q27-16 57-12.5T541 55l70 63q10 9 15.5 22t4.5 26q-1 13-7 25.5T607 212l-70 53q-10 7-21.5 6.5T495 263l-31-30q-10-10-10.5-23.5T462 185l6-6q6-8 2.5-16.5T458 154l-89-1q-6 0-10 4t-4.5 10q-.5 6 4 10.5T369 182l60 1q-7 17-4 36t16 33q-27 11-55 3l-4-1q-6-1-11 2t-6.5 8.5q-1.5 5.5 1.5 11t8 7.5l4 1 21 3 4 110q4 132-20 266-1 6 2 10.5t9 6.5h3q5 0 9-3.5t5-8.5q5-23 11-69 53-26 111.5-32t114.5 7q6 1 11-2t6.5-9q1.5-6-1.5-11t-9-7q-57-14-116-8.5T426 565q9-85 6-169l-4-110q20-3 36-12l11 10q16 16 38.5 17t41.5-13l69-53q16-12 25.5-30t10.5-38.5q1-20.5-6.5-39T631 96l-70-63Q531 6 491 2t-75 16l-88 51q-24 14-39.5 37T269 157l-13 79-98 275q-2 6 .5 11.5t8.5 6.5zm689 425h-1q-44 0-78-26l3-1q5-3 6.5-9t-1.5-11q-3-5-9-7t-11 1q-93 54-199 54-113 0-212-61L168 777q-26-16-36.5-46t.5-59l32-90q2-6-.5-11.5t-8-7.5q-5.5-2-11.5.5t-8 8.5l-32 91q-14 39 0 78.5t49 60.5l186 117q51 32 109 48.5T566 984q95 0 183-41 22 20 49.5 30.5T855 984h1q6 0 10.5-4.5T871 969q0-6-4.5-10.5T856 954zm28-449q-2-5-8-7t-11 0q-64 28-102 91h-1q-23-15-45-23-5-2-11 0t-8 7.5q-2 5.5 0 11t7 8.5q31 12 65 36l32 23q3 3 8 3 8 0 12-5.5t3-11.5q-1-6-6-10l-32-23 1-1q32-53 89-79 6-3 8-8.5t-1-11.5zM324 791q-4-4-10-4t-10.5 5q-4.5 5-4 10.5t4.5 9.5q61 55 141 73h3q5 0 9-3t5-8.5q1-5.5-2-10.5t-9-7q-73-17-127-65zm178-148l-9 5q-5 3-7 8.5t1 11.5q5 7 13 7 5 0 7-2l9-4q29-16 61-18.5t63 8.5q6 2 11.5-.5t7.5-8.5q2-6-.5-11.5T650 632q-37-14-75.5-11T502 643zm154-310q7 13 21 13h26v83q0 6 4 10.5t10 4.5q6 0 10.5-4.5T732 429v-90q0-10-6.5-16.5T710 316h-18l64-73 64 73h-17q-10 0-16.5 6.5T780 339v90q0 6 4.5 10.5T795 444q6 0 10.5-4.5T810 429v-83h26q14 0 20-13 3-6 2-12.5t-5-11.5l-80-91q-6-8-17-8-9 0-17 8l-79 91q-4 4-5 11t1 13zm-74 94v76q0 6 4.5 10.5T597 518q6 0 10-4.5t4-10.5v-63h27q10 0 15-10t-3-18l-72-82q-4-6-12-6t-13 6l-72 82q-7 8-2 18t15 10h26v63q0 6 4.5 10.5T535 518q6 0 10.5-4.5T550 503v-76q0-7-5-11.5t-12-4.5h-11l44-51 44 51h-11q-7 0-12 4.5t-5 11.5z"/></svg>