<svg viewBox="0 0 1244 1083.753" xmlns="http://www.w3.org/2000/svg"><path d="M986 973h-20V409q0-6-4-10t-10-4q-6 0-10.5 4t-4.5 10v564H770V262h167v85q0 6 4.5 10t10.5 4q6 0 10-4t4-10v-86q0-11-8-19.5t-20-8.5H770q-12 0-20.5 8.5T741 261v59h-45l5-10q18-40 19.5-83t-14-84q-15.5-41-45-72.5t-69-49.5Q553 3 510 1t-84 14q-33 12-60.5 34T319 100q-19 29-28 62.5t-7 68.5q0 6 4.5 10t10.5 4q6 0 10.5-4.5T314 230q0-3-1-4-2-59 30-109 34-52 93-75 36-13 73.5-11.5t72 17.5Q616 64 641 91t38 63q27 75-5 144-16 34-43.5 59.5T568 397q-44 16-93 10-6-1-10.5 2.5T459 419q-1 6 2.5 10.5t9.5 6.5q20 2 31 2 20 0 43-5v40H397q-12 0-20 8t-8 20v88h-75l32-87q6-20-5-38-6-8-15-12.5t-19-4.5h-19l20-23h107q19 0 32-13t13-31.5q0-18.5-13-31.5t-32-13h-45l1-10q0-21-15-36t-37-15q-17 0-30.5 10.5T250 311h-6q-26 0-43 18l-53 56q-33 35-33 82v43L37 693q-5 11 2 21 2 4 9 8v251H15q-6 0-10.5 4T0 987q0 6 4.5 10.5T15 1002h971q6 0 10.5-4.5t4.5-10.5q0-6-4.5-10t-10.5-4zM565 502v84q0 6 4 10.5t10 4.5q6 0 10.5-4.5T594 586v-85q0-9-5.5-16.5T574 474v-49q3 0 4-1 61-22 100-75h63v624H594V649q0-6-4.5-10.5T579 634q-6 0-10 4.5t-4 10.5v324H425V617q0-11-8-19.5t-19-8.5v-87h167zM299 303q9 0 15.5 6.5T321 325q0 9-6.5 16t-15.5 7q-9 0-15.5-6.5T277 325q0-10 6.5-16t15.5-6zM144 519q0-1 1-3v-49q0-37 24-62l53-56q9-9 22-9h6q5 16 18.5 26.5T299 377q19 0 34-13h62q7 0 11 4.5t4 11.5q0 7-4 11t-11 4H287q-12 0-20 9l-31 35q-4 4-5 11t1 13q2 6 8 9.5t13 3.5h34q5 0 10 5 3 4 1 11l-35 97h-21l17-53q4-14-4-23.5t-21-9.5h-29q-8 0-14 3.5t-9 10.5L94 694H68l76-175zm-17 175l80-162h22l-18 57-1 6q-10 8-10 22v77h-73zm-49 30h166v80q0 6 4.5 10t10.5 4q6 0 10.5-4t4.5-10v-81q0-12-8.5-20.5T245 694h-16v-76h167v355H274V866q0-6-4.5-10t-10.5-4q-6 0-10.5 4t-4.5 10v107H78V724z"/></svg>