<svg viewBox="0 0 1244 1083.753" xmlns="http://www.w3.org/2000/svg"><path d="M981 861h-48v-74q0-8-5.5-13.5T914 768h-41l-33-127q-6-21-18-39l-16-24v-90q0-47-23.5-86T718 343l-58-27q-22-11-46-14L481 110q-4-7-12-8.5t-15 3.5l-110 72q-7 4-8.5 12.5T339 205l100 140-50 18q-15 6-34 3L22 321q-9-2-15.5 4T0 340v280q0 8 6 13.5t14 5.5h224q24-1 47 10l42 23q54 30 106 32h258q13 14 28 24l64 40H582q-9-1-15 5t-5.5 14.5q.5 8.5 6.5 14t14 5.5h312v54H101v-54h307q9 0 15-6.5t5.5-14.5q-.5-8-6.5-13.5t-14-4.5H81q-7 0-13 5.5T62 787v74H20q-8 0-14 6t-6 14q0 8 6 13.5t14 5.5h961q8 0 13.5-5.5t5.5-13.5q0-8-5.5-14t-13.5-6zM525 488q2 0 2-1l10-3 39 55h-42q-13 0-20.5-11t-4.5-23q3-12 16-17zm176-109q31 15 48.5 44t17.5 64v35L650 354l51 25zM460 148l271 391H624L383 199l77-51zM352 638l-42-23q-32-17-68-15H39V362l311 43q26 3 53-5l59-22 52 73q-24 8-35 28.5t-7.5 43.5q3.5 23 20 39t42.5 16h190q19 0 30.5 11.5T767 620v2q0 18-12.5 30.5T724 665H439q-41-2-87-27zm400 61q20-8 32-22 4-4 11-14.5t7-12.5l25 95-75-46zm-271 99q4 7 12 8.5t15-3q7-4.5 8.5-12.5t-3-14.5q-4.5-6.5-12.5-8t-14.5 3q-6.5 4.5-8 12T481 798z"/></svg>