<svg viewBox="0 0 1244 1083.753" xmlns="http://www.w3.org/2000/svg"><path d="M416 419q-7 0-11.5 5t-4.5 12q0 7 4.5 11.5T416 452q7 0 12-4.5t5-12q0-7.5-4.5-12T416 419zm49-34q0-6-4-10.5t-10-4.5h-69q-6 0-10 4.5t-4 10.5q0 6 4 10.5t10 4.5h69q6 0 10-4.5t4-10.5zm119 34q-7 0-12 4.5t-5 12q0 7.5 5 12t12 4.5q7 0 11.5-4.5T600 436q0-7-4.5-12t-11.5-5zm-35-19h69q6 0 10-4.5t4-10.5q0-6-4-10.5t-10-4.5h-69q-6 0-10 4.5t-4 10.5q0 6 4 10.5t10 4.5zm350 538l-8-43q-9-54-48-94-4-4-9.5-4.5t-10 3.5q-4.5 4-5 10t3.5 11q33 34 40 79l8 43q3 10-4.5 19.5T846 972H745l-11-49q-2-6-7-9t-10.5-2q-5.5 1-9 6t-2.5 11l10 43H515v-57l207-148 42 15 16 7q4 2 6 2 10 0 13-8 3-5 1-11t-7-9q-12-6-19-8l-163-62v-76q8-4 11-7l37-22q30-19 46.5-48.5T722 475v-12h13q27 0 46.5-19.5T801 397q0-27-19.5-46.5T735 331h-13V182l56-15v39l-13 14q-20 20-20 50v13q0 15 10.5 25t24.5 10h25q14 0 24.5-10t10.5-25v-13q0-30-20-50l-13-14v-46l4-1q14-4 22-14.5t8-23.5q0-13-8-23.5T812 83L526 5q-29-8-63 0L188 83q-13 4-21 14.5t-8 24q0 13.5 8.5 23.5t21.5 13l89 24v149h-13q-27 0-46.5 19T199 397q0 28 19.5 47t46.5 19h13v12q0 35 16.5 64.5T341 588l37 22q3 3 11 7v76l-163 62q-46 17-77 54.5T109 895l-8 43q-5 24 11.5 43.5T154 1001h692q25 0 42-19 16-20 11-44zm-88-655q0 2-2 4t-4 2h-25q-2 0-4-2t-2-4v-13q0-18 12-30l6-7 7 7q12 12 12 30v13zM449 765q51 17 102 0l-51 108-51-108zm88 98l67-141 85 32-152 109zm156-532h-11q-7 0-10-8l-4-14q-5-16-16-25l-7-7h48v54zm42 29q15 0 26 10.5t11 26.5q0 16-11 26.5T735 434h-13v-22h10q6 0 10.5-4.5T747 397q0-6-4.5-10.5T732 382h-10v-22h13zM189 121q0-8 7-10l275-77q23-8 47-1l286 78q7 2 7 10t-7 9l-97 26-171-34q-36-8-72 0l-40 8q-6 1-9.5 6t-2 11q1.5 6 6 9.5T429 159l40-8q31-6 62 0l162 32v65H307v-65l73-15q6-1 9.5-6t2-11q-1.5-6-6.5-9.5t-11-1.5l-81 16-97-26q-7-2-7-9zm338 198q-2 1-4 1t-4-3l-4-8q-9-19-24-32h48q4 11 1 22.5T527 319zm-220-42h48l-7 7q-11 9-16 25l-4 14q-3 8-10 8h-11v-54zm-42 157q-15 0-26-11t-11-26q0-15 11-26t26-11h13v22h-10q-6 0-10.5 4.5T253 397q0 6 4.5 10.5T268 412h10v22h-13zm91 129q-23-14-36-37.5T307 475V360h11q13 0 23.5-7.5T356 332l4-14q1-7 8-12l30-29h41q2 16-9 27-4 5-3.5 11t4.5 10q4 4 10.5 4t9.5-4q13-15 16-30l3 3q10 7 19 24l3 7q8 16 23 19 3 1 9 1 13 0 21-7 15-11 21.5-28.5T569 277h33l30 29q7 5 8 12l4 14q4 13 14.5 20.5T682 360h11v115q0 27-13 50.5T644 563l-37 22q-49 31-106.5 31T393 585l-37-22zm144 82q43 0 82-15v70l-13 28-19 7q-24 9-50 9t-50-9l-19-7-13-28v-70q39 15 82 15zm-104 77l67 141-152-109 85-32zM135 963q-7-8-5-20l8-43q8-40 34-71.5t64-46.5l42-15 207 148v57H285l10-43q1-6-2-11t-9-6q-6-1-11 2t-7 9l-11 49H154q-11 0-19-9zm316-424q-1 6 2 11t9 7l5 1q18 5 33 5t33-5l5-1q6-2 9-7t1.5-11q-1.5-6-7-9t-10.5-2l-6 2q-25 6-50 0l-6-2q-5-1-10.5 2t-7.5 9z"/></svg>