<svg viewBox="0 0 1244 1083.753" xmlns="http://www.w3.org/2000/svg"><path d="M9 666h982q4 0 6.5-2.5t2.5-6q0-3.5-2.5-6T991 649H765q-17-41-46-75-2-3-6-3t-6.5 2q-2.5 2-2.5 6t2 6q25 30 40 64h-32q-25-60-82-101-60-40-132-40t-132 40q-55 40-82 101h-43q24-52 65-91 3-2 3-5.5t-2-6.5q-2-3-6-3t-6 3q-46 42-73 103H9q-4 0-6.5 2.5t-2.5 6q0 3.5 2.5 6T9 666zm358-17q23-33 58-52t75-19q40 0 75 19t58 52H367zm133-124q63 0 116 33.5t79 90.5h-41q-24-41-65.5-64.5T500 561q-47 0-88.5 23.5T346 649h-41q27-57 79.5-90.5T500 525zm491 180H9q-4 0-6.5 2.5t-2.5 6q0 3.5 2.5 6T9 722h982q4 0 6.5-2.5t2.5-6q0-3.5-2.5-6T991 705zm-97 96H608q-4 0-6 2.5t-2 6.5q0 4 2 6.5t6 2.5h286q4 0 6.5-2.5t2.5-6.5q0-4-2.5-6.5T894 801zm-440 0H199q-4 0-6.5 2.5T190 810q0 4 2.5 6.5t6.5 2.5h255q3 0 5.5-2.5t2.5-6.5q0-4-2.5-6.5T454 801zm-174 49H36q-4 0-6 2.5t-2 6q0 3.5 2 6t6 2.5h244q4 0 6-2.5t2-6q0-3.5-2-6t-6-2.5zm351 15H485q-4 0-6.5 2.5T476 874q0 4 2.5 6.5t6.5 2.5h146q4 0 6.5-2.5t2.5-6.5q0-4-2.5-6.5T631 865zM400 501q2 0 3-1 48-17 97-17 4 0 6.5-2.5t2.5-6.5q0-4-2.5-6t-6.5-2q-53 0-103 18-4 1-5.5 4.5t.5 6.5q2 6 8 6zm99-85q4 0 6.5-2.5t2.5-6.5V248q0-4-2.5-6.5t-6-2.5q-3.5 0-6 2.5T491 248v159q0 4 2.5 6.5t5.5 2.5zm0-228q4 0 6.5-2.5t2.5-6.5v-51q0-4-2.5-6.5t-6-2.5q-3.5 0-6 2.5T491 128v51q0 4 2.5 6.5t5.5 2.5zM351 462q2 5 8 5h3q4-1 5.5-4.5t-.5-7.5l-67-156q-1-4-4.5-5.5t-7 .5q-3.5 2-4.5 5t0 6l67 157zm-115 89q2 3 5.5 3t6-2.5q2.5-2.5 2.5-6.5t-2-6L117 408q-6-7-13 0-2 2-2 5.5t2 6.5l132 131zM52 369q3 3 6 3t6-2q3-2 3-6t-2-6l-42-47q-2-3-5.5-3t-6.5 2q-3 2-3 6t2 6l42 47zm589 98h3q6 0 8-5l68-157q1-3-.5-6.5t-4.5-5q-3-1.5-6.5 0T704 299l-68 156q-2 9 5 12zm121 87q3 0 6-3l131-131q2-3 2-6.5t-2-6q-2-2.5-6-2.5t-6 3L755 539q-2 2-2 6t2.5 6.5q2.5 2.5 6.5 2.5zm183-182q3 0 6-3l42-47q2-2 2-6t-2.5-6q-2.5-2-6.5-2t-6 3l-42 47q-2 2-2 6t2.5 6q2.5 2 6.5 2z"/></svg>