<svg viewBox="0 0 1244 1083.753" xmlns="http://www.w3.org/2000/svg"><path d="M911 801h-7v-87q0-19-13.5-32.5T858 668h-16v-81q0-21-15-36t-36-15h-46v-99q0-19-13.5-32.5T699 391H341q-19 0-32 13.5T296 437v99h-46q-22 0-36.5 15T199 587v81h-14q-19 0-32.5 13.5T139 714v87h-8q-21 0-36.5 15.5T79 853v132q0 7 4.5 11t10.5 4h855q6 0 10-4t4-11V853q0-21-15-36.5T911 801zM228 587q0-9 6.5-15.5T250 565h343q6 0 10-4.5t4-10.5q0-6-4-10t-10-4H325v-99q0-7 5-11.5t11-4.5h358q7 0 11.5 4.5T715 437v99h-60q-6 0-10.5 4t-4.5 10q0 6 4.5 10.5T655 565h136q9 0 15.5 6.5T813 587v81H228v-81zm706 384H109V853q0-9 6.5-15.5T131 831h173q6 0 10.5-4.5T319 816q0-6-4.5-10.5T304 801H168v-87q0-7 5-12t12-5h673q7 0 12 5t5 12v87H367q-6 0-10.5 4.5T352 816q0 6 4.5 10.5T367 831h544q10 0 16.5 6.5T934 853v118zM411 236l-17 97q-3 18 11 27 6 5 13.5 5.5T433 362l88-46 88 46q6 3 13 3 10 0 16-5 14-9 11-27l-17-97 71-70q6-5 7.5-12.5T710 138q-5-16-22-18l-22-4q-6-1-11 3t-6 10q-1 6 3 10.5t10 5.5l18 3-69 67q-10 11-8 24l16 96-85-45q-12-8-25 0l-86 45 17-96q2-13-8-24l-69-67 95-14q14-2 21-15l42-86 43 86q7 13 21 15l15 2q6 1 10.5-2.5t5.5-9.5q1-6-2.5-11t-9.5-6l-14-2-44-89q-8-15-25-15-8 0-14.5 4T497 16l-44 89-98 15q-16 1-23 18-3 7-1 14.5t8 13.5l72 70zm110 11q6 0 10.5-4.5T536 232v-81q0-6-4.5-10.5T521 136h-17q-6 0-10.5 4.5T489 151q0 6 4.5 10t10.5 4h3v67q0 6 4 10.5t10 4.5zm252-136q6 0 10-4l25-25q4-5 4-11t-4-10q-4-4-10-4t-11 4l-24 25q-4 4-4 10t5 10.5q5 4.5 9 4.5zm14 220q5 5 10.5 5t10-4.5Q812 327 812 321t-4-10l-25-25q-4-4-10-4t-10 4q-4 4-4 10t4 11l24 24zm-29-135q0 7 4.5 11t10.5 4h44q6 0 10-4t4-11q0-7-4-10.5t-10-3.5h-44q-6 0-10.5 4t-4.5 10zm-499-89q6 4 10.5 4t10-4.5Q285 102 285 96t-5-10l-24-25q-4-4-10-4t-10.5 4q-4.5 4-4.5 10t4 11l24 25zm0 179l-24 25q-4 4-4 10t4.5 10.5q4.5 4.5 10 4.5t10.5-5l24-24q5-5 5-11t-4.5-10q-4.5-4-10.5-4t-11 4zm-33-75h44q6 0 10-4t4-11q0-7-4-10.5t-10-3.5h-44q-6 0-10.5 4t-4.5 10q0 6 4.5 10.5T226 211zm743 216l-66-75q-5-7-13.5-7t-13.5 7l-66 75q-4 4-4.5 9t1.5 10q2 5 7 8t10 3h21v60q0 7 4.5 11t10.5 4q6 0 10-4t4-11v-71q0-8-5-13t-13-5h-8l42-48 41 48h-8q-7 0-12.5 5t-5.5 13v71q0 7 4 11t10 4q6 0 10.5-4t4.5-11v-60h21q5 0 10-3t7-8q5-11-3-19zM95 596v-71q0-7-5.5-12.5T76 507h-8l42-48 41 48h-8q-7 0-12.5 5t-5.5 13v71q0 6 4 10.5t10 4.5q6 0 10.5-4.5T154 596v-60h21q5 0 10-3t7-8q2-5 1.5-10t-4.5-9l-66-76q-4-6-13-6t-14 6l-66 76q-3 4-4 9.5t1 10q2 4.5 7 7.5t10 3h21v60q0 6 4.5 10.5T80 611q6 0 10.5-4.5T95 596z"/></svg>