<svg viewBox="0 0 1244 1083.753" xmlns="http://www.w3.org/2000/svg"><path d="M825 796q-3-5-9-6.5t-11 1.5q-5 3-6.5 9t1.5 11l104 176q4 7 12 7 2 0 6-1l2-1q5-3 6.5-9t-1.5-11L825 796zm170-45L840 489q-10-17-26-26.5t-36-9.5q-20 0-36.5 9.5T715 489l-36 60-90-153q-14-23-37-36.5T501.5 346q-27.5 0-51 13.5T413 396l-92 157-38-64q-10-17-26.5-26.5T220 453q-20 0-36.5 9.5T157 489L2 751q-3 5-1.5 11t6.5 9q3 2 8 2 9 0 12-7l155-263q6-10 16-15.5t22-5.5q12 0 22 5.5t15 15.5l47 79L74 972q-3 5-1.5 11t6 8.5Q83 994 86 994q8 0 13-7l200-339 45-10q45-9 82 15 35 21 75 21t74-21q18-12 39-16t42 1l48 10 64 108q3 5 9 7t11-1.5q5-3.5 6.5-9T793 742l-97-164 44-75q6-10 16-15.5t21.5-5.5q11.5 0 21.5 5.5t16 15.5l155 263q4 7 13 7 5 0 7-2 5-3 7-9t-2-11zM663 609q-27-6-54-1t-50 20q-27 17-59 17t-58-17q-23-15-50-20t-54 1l-19 5 120-203q10-17 26.5-26.5T501 375q19 0 36 9.5t27 26.5l120 203-21-5zM361 153q5 4 10.5 4t10-4.5Q386 148 386 142t-5-10l-3-2 72-11q12-2 19-13l32-66 33 66q5 11 18 13l72 11-52 51q-9 7-7 22l12 71-64-34q-11-5-23 0l-65 34 13-71q1-6-1.5-12t-6.5-10l-4-5q-5-4-10.5-3.5T406 177q-4 4-4 10t4 10l2 3-13 78q-2 7 1 13.5t9 11q6 4.5 13 5t13-3.5l70-37 71 37q5 3 11 3 9 0 15-4.5t8.5-11Q609 285 608 278l-14-78 57-55q11-11 6-26.5T637 102l-78-11-35-72q-8-13-23-13t-22 13l-35 72-79 11q-7 1-12.5 5.5T345 119q-2 7 0 14t7 12l9 8zm340 24q0 6 4.5 10t10.5 4h32q6 0 10-4t4-10q0-6-4-10.5t-10-4.5h-32q-6 0-10.5 4.5T701 177zM683 69q4 0 8-2l27-18q5-4 6-10t-3-11q-4-5-9.5-6T701 24l-26 18q-5 4-6.5 10t3 11.5Q676 69 683 69zm-8 242l26 18 2 1q4 1 6 1 9 0 12.5-5.5T724 314q-1-6-6-9l-27-18q-4-4-10.5-3t-10 6q-3.5 5-2 11t6.5 10zM255 191h32q6 0 10-4t4-10q0-6-4-10.5t-10-4.5h-32q-6 0-10.5 4.5T240 177q0 6 4.5 10t10.5 4zm30-142l26 18q6 2 9 2 8 0 11.5-5.5T334 52q-1-6-6-10l-26-18q-5-3-11-2t-10 5.5q-4 4.5-2.5 11T285 49zm26 238l-26 18q-5 3-6 9t3 11.5q4 5.5 11 5.5 3 0 9-2l26-18q5-4 6-10t-2.5-11q-3.5-5-9.5-6t-11 3z"/></svg>