<svg viewBox="0 0 1244 1083.753" xmlns="http://www.w3.org/2000/svg"><path d="M131 559q0 22 16 40l84 83q5 5 10.5 5t10-4.5Q256 678 256 672t-4-10l-84-84q-8-8-8-19.5t8-19q8-7.5 19.5-7.5t18.5 8l91 90q5 4 11 4t10-4.5q4-4.5 4-10.5t-4-10l-91-90q-16-17-39.5-17t-40 16.5Q131 535 131 559zm289 302v-51q9-37-1.5-73.5T381 673l-19-19q-4-5-10-5t-10.5 4.5Q337 658 337 664t4 10l19 20q22 22 30.5 51.5T392 805q-1 1-1 3v44H195v-64q0-6-5-11l-82-78q-19-18-29-42.5T69 606V332q0-13 9-22t22-9q13 0 22 9t9 22v138q0 6 4 10t10 4q6 0 10.5-4t4.5-10V332q0-25-17.5-42.5T100 272q-25 0-43 17.5T39 332v274q0 32 13 61.5T88 720l77 74v66q-11 8-17.5 19.5T141 904v84q0 6 4.5 10.5t10.5 4.5q6 0 10.5-4.5T171 988v-84q0-9 6.5-15.5T193 882h199q9 0 16 6.5t7 15.5v84q0 6 4 10.5t10 4.5q6 0 10.5-4.5T444 988v-84q0-13-6.5-24.5T420 861zm482-589q-25 0-42.5 17.5T842 332v138q0 6 4 10t10 4q6 0 10.5-4t4.5-10V332q0-13 9-22t22-9q13 0 22 9t9 22v274q0 26-10 50.5T894 699l-82 78q-5 5-5 11v64H611v-44l-1-3q-7-30 1-59.5t30-51.5l154-154q8-8 19.5-8t19.5 8q8 8 8 19t-8 19l-84 84q-4 4-4 10t4.5 10q4.5 4 10.5 4t10-4l84-83q16-18 16-41t-16-39.5Q839 502 815.5 502T775 519L621 673q-27 27-37.5 63.5T581 810v51q-11 7-17 18.5t-6 24.5v84q0 6 4 10.5t10.5 4.5q6.5 0 10.5-4.5t4-10.5v-84q0-9 6.5-15.5T610 882h199q9 0 15.5 6.5T831 904v84q0 6 4.5 10.5t10.5 4.5q6 0 10.5-4.5T861 988v-84q0-13-6.5-24.5T836 860v-66l78-74q23-22 35.5-52t12.5-62V332q0-25-17.5-42.5T902 272zm-573 71h70q29 20 57 27v106h-54q-11 0-19 8t-8 19v56q0 10 7.5 17.5T400 584h200q11 0 18-7.5t7-17.5v-56q0-11-8-19t-19-8h-52V370q28-7 57-27h70q36 0 66.5-18t48.5-48.5q18-30.5 18-66.5V83q0-24-17-41.5T747 24h-71q-3-10-11.5-16.5T646 1H356q-11 0-19.5 6.5T326 24h-71q-25 0-42 17.5T196 83v127q0 36 18 66.5t48.5 48.5q30.5 18 66.5 18zm266 211H404v-49h191v49zm-78-78h-32V375q5 1 16 1t16-1v101zM777 83v127q0 28-14 52t-38 38q-24 14-52 14h-38q11-15 20-29h18q31 0 53-22t22-53V97q0-6-4.5-10T733 83h-56V53h70q12 0 21 9t9 21zM355 31v-.5q0-.5 1-.5h291v104q0 6 4.5 10.5T662 149q6 0 10.5-4.5T677 134v-22h41v98q0 19-13 32t-32 13h-5q9-31 9-55v-3q0-6-4.5-10.5T662 182q-6 0-10.5 4.5T647 197v3q0 40-19.5 73.5t-53 53.5Q541 347 501 347t-73.5-20q-33.5-20-53-53.5T355 200V31zM225 83q0-12 8.5-21t21.5-9h70v30h-56q-6 0-10.5 4T254 97v62q0 6 4.5 10.5T269 174q6 0 10-4.5t4-10.5v-47h42v88q0 29 9 55h-5q-16 0-28.5-10T284 219q-1-6-6-9.5t-11-2q-6 1.5-9 6.5t-2 11q5 26 25.5 43t47.5 17h18q12 20 20 29h-38q-28 0-52-14t-38-38q-14-24-14-52V83zm214 112l-7 44q-3 12 8 20 5 4 12 4 4 0 10-2l39-21 39 21q12 5 22-2t8-20l-7-44 31-31q9-8 5-21t-16-14l-44-6-19-40q-7-12-19-12t-19 12l-19 40-44 6q-12 1-16 14t5 21l31 31zm32-44q11-2 16-11l14-29 14 29q5 9 15 11l31 4-22 22q-8 8-6 19l5 31-27-15q-3-2-10-2t-10 2l-28 15 6-31q2-11-6-19l-23-22 31-4z"/></svg>