<svg viewBox="0 0 1244 1083.753" xmlns="http://www.w3.org/2000/svg"><path d="M466 73q2 5 7 5 3 0 4-1 4-1 5-5t-1-7l-15-30q-2-3-5.5-4t-6.5 1q-3 2-4 5t0 7l16 29zm-79 113q-3 22 3.5 45t23.5 40q17 17 39 24l-230 54q-2 1-4 3.5t-2 5.5l-39 8q-12 2-18.5 12.5T155 400l4 19q4 13 12.5 18t16.5 5q4 0 6-1l23-5v63q0 6 3.5 8t8.5 0l20-9q87-38 127-54l-8 83q0 4 2.5 6.5t4.5 2.5v1l-17 11Q109 709 56 721q-4 1-6 4.5t0 8q2 4.5 11 20.5 14 25 33 50 26 34 57 63 64 59 140 92 96 42 210 42t208-42q76-33 140-92 31-29 57-63 19-25 33-50 9-16 11-21 2-2 0-6.5t-6-5.5q-53-12-302-173l-17-11v-31h6q3-1 5.5-3.5t1.5-6.5l-12-107q32-4 73-4 31 0 61 3l24 3q4 1 7.5-1.5t3.5-7.5v-80l37-8q13-4 19-13.5t3-21.5l-4-18q-1-10-12-19-12-7-22-4l-22 6q-1-2-3-4t-7-2l-234 55q10-10 17-23 20-34 8-73-7-23-21-39L491 15q-4-6-11-10t-14-4q-4 0-6 1l-64 18q-9 2-14.5 10.5T377 48l10 138zm221 347H412l196-24v24zm211-298q7 0 9 2 5 3 5 7l4 19q1 4-2 9-2 3-7 5l-34 7v-42l25-7zm-42 137q-1 0-5-1-19-2-33-3V247l38-9v134zM520 140l-25-48q-2-3-5-4t-6.5.5q-3.5 1.5-4.5 5t1 6.5l23 45-99 28-10-127q0-2 2-5t5-4l63-18h2q7 0 9 4l58 113-13 4zm-113 85q-5-18-2-34l137-39q10 12 17 30 8 32-7 60-18 30-48 37-31 9-59.5-6.5T407 225zm76 75q14 0 26-4 5-1 14-5l3-1v2q0 10-7.5 17.5T502 317q-9 0-16-5t-9-12h6zM190 424q-4 1-8-1.5t-6-7.5l-3-18q-1-5 1.5-9t7.5-5l35-7v42l-27 6zm44-59l30-7v114q-14 7-30 13V365zm47 100V354l182-43q5 10 15.5 16.5T501 334q17 0 29.5-12t13.5-30l178-41v116h-23q-43 0-84 6-3 0-5.5 3t-1.5 6l6 57-65 11q-4 0-6 3t-1.5 6.5q.5 3.5 3 5.5t5.5 2h2l64-11 4 33-233 29 8-86q0-5-3.5-7.5T386 422q-2 0-3 1-42 16-102 42zm556 390q-59 54-130 86-95 42-206.5 42T294 941q-72-32-130-86.5T70 735q18-6 46-20 9 19 26 43 26 36 59 67 50 48 115 77 85 38 184 38 4 0 6.5-2.5t2.5-6.5q0-4-2.5-6.5T500 922q-95 0-176-36-61-27-111-73-32-30-57-65-16-23-25-41l27-15 1 1q19 32 37 55 3 3 7 3t6-2q2-2 2.5-5.5T210 737q-23-28-36-54l68-40h133q4 0 6-2.5t2-6.5q0-4-2-6.5t-6-2.5H270q32-20 57-36h137q3 0 5.5-2.5t2.5-6.5q0-4-2.5-6.5T464 571H354q24-15 32-21h228q33 23 92 60 89 56 149 89H685q-4 0-6.5 2.5T676 708q0 4 2.5 6.5t6.5 2.5h203q20 10 42 18-37 67-93 120zm-521-32q-42-22-75-52-2-3-6-2.5t-6 2.5q-5 7 1 13 31 30 78 55l4 1q5 0 8-5 2-3 .5-7t-4.5-5z"/></svg>