<svg viewBox="0 0 1244 1083.753" xmlns="http://www.w3.org/2000/svg"><path d="M500 1Q364 1 248 69 135 136 68 249 0 365 0 501t68 252q67 113 180 180 116 68 252 68t252-68q113-67 180-180 68-116 68-252 0-100-38-192T854 147Q784 77 692 39T500 1zm330 830q-74 74-172 109-95 35-198 26t-193.5-61q-90.5-52-149-137T40 583q-18-102 9-203t94-180q66-78 159-122 94-44 198-44 94 0 179 35.5t150.5 101Q895 236 931 322t35.5 178.5Q966 593 931 679T830 831zM247 311q5-8 1-17t-13-9.5q-9-.5-15 6.5-54 71-66 158-1 7 3 12.5t11 6.5q7 1 12-3t7-11q11-78 60-143zm577-72q-4-6-11.5-7t-13.5 5L638 398l-45 46-62 61-202 203-93 92q-5 5-4 13t6 12q81 66 184 86 100 19 198-11 101-30 175-104t104-175q30-98 11-198-20-103-86-184zm-41 411l-116 49V573l116-49v126zm-300 0l-85 36 85-86v50zm34 0v-83l30-31 86 36v127l-116-49zm133-107l-77-32 42-42 35-15 107 45-107 44zm121 229q-66 67-154 95-87 28-176 13-93-14-168-70l71-71q7 3 12 0l144-60 144 60q7 3 13 0l150-62q10-5 10-16V499q0-5-2.5-9.5T807 484l-140-59v-8l142-143q56 75 70 167 14 90-14 177.5T771 772zm-502-75l93-93 52-52 57-58 293-292q6-6 5-13.5t-7-11.5q-81-66-184-86-100-19-198 11-101 30-175 104T101 381q-30 98-11 198 20 103 86 184 5 6 12.5 7t12.5-6l68-67zm-52-173l116 49v12l-80 81-36-16V524zm300-177l93-38-93 93v-55zm-17-29l-107-44 107-45 107 45-107 44zm-17 29v88l-27 27-89-37V299l116 48zM350 454l81 34-38 37-43 18-107-44 107-45zM191 728q-55-75-70-167-14-90 14-176 28-89 94-155t155-94q86-28 176-14 92 15 167 70l-68 68q-1-1-3-1l-150-63q-6-3-12 0l-150 63q-11 3-11 15v151l-139 59q-11 3-11 15v162q0 10 11 16l34 14-37 37zm92-494q7 0 12 5t5 12q0 7-5 12t-12 5q-7 0-11.5-5t-4.5-12q0-7 4.5-12t11.5-5z"/></svg>