<svg viewBox="0 0 1244 1083.753" xmlns="http://www.w3.org/2000/svg"><path d="M242 625l68 10h2q6 0 11-5 2-3 2.5-7t-.5-7l-21-63q-25-72-40-115t7-87l2-2q14-28 39-47t56-26.5q31-7.5 62-1.5t57 24l81 58q5 4 11 3t9.5-6q3.5-5 2.5-11t-6-10l-81-58q-31-22-68-29t-74.5 1.5Q324 255 294 278t-47 57l-2 3q-14 26-16 54.5t8 55.5q11 32 38 110l15 44-44-6q-6-1-11 3t-6 10q-1 6 3 10.5t10 5.5zm743 106h-21q17-15 26.5-36.5t9.5-45.5q0-31-15-56.5T944.5 552Q919 537 888 537h-95q0-13-1-20-8-42-42-67l-109-78q-5-4-11-3t-9.5 6q-3.5 5-2.5 11t6 10l109 78q24 16 30 48 5 29-13 54l-37 52q-16 22-41.5 28t-49.5-5l-28-81 69-23q6-2 8.5-7.5t1-11.5q-1.5-6-7.5-8.5t-11-.5l-84 28q-6 2-8 8v1q-2 6-1 10l36 101-54 20-44-111q-7-19 1-38.5t27-27.5l103-43q5-2 7.5-7.5t.5-11.5q-2-6-8-8t-11 0l-103 43q-19 8-32 24.5T468 544l-14-10q-8-5-15.5-.5T431 546v134q0 23-18 38-8 8-19 11t-21 2l-227-32 13-86 14 2q6 1 11-2.5t6-9.5q1-6-2.5-10.5T178 586l-29-4-61-10q-23-4-42.5 9.5T22 618L1 716q-3 11 2 21-3 4-3 9.5t4.5 9.5q4.5 4 10.5 4h970q6 0 10.5-4t4.5-10q0-6-4.5-10.5T985 731zm-14-82q0 30-19.5 53T903 730V567q29 5 48.5 28.5T971 649zm-511 31V574l10 8q2 2 2 4l49 125v1l4 10q1 3 5 9h-88q18-23 18-51zm-298 51H76l22-31 17 2-1 7q0 6 3.5 11.5t9.5 5.5l35 5zm-132-9l20-98q2-10 10-16.5t19-6.5h5l46 8-10 64-27-4q-10 0-14 7l-36 52q-3 3-6 3t-5.5-2.5Q29 726 30 722zm554 9q-9 0-17.5-4.5T554 714l62-23 64 18q8 2 8 11 0 4-3 7.5t-8 3.5h-93zm132 0q1-4 1-11 0-13-7.5-23.5T690 681q15-6 29-17 5 40 35 67h-38zm32-75v-27l26-36q7-9 14-27h86v165h-44q-32 0-56-21.5T748 656z"/></svg>