<svg viewBox="0 0 1244 1083.753" xmlns="http://www.w3.org/2000/svg"><path d="M469 338q50 0 88.5 12.5T621 387q16 14 24 32 6 12 6.5 15.5t3 5.5q2.5 2 5.5 2h1q4-1 6-4t1.5-7q-.5-4-6.5-18-10-20-28-38-23-23-58-36-46-18-107-18-4 0-6.5 2.5t-2.5 6q0 3.5 2.5 6t6.5 2.5zM106 472q3 35 23 55l3 3 2 2H98q-22 0-37 13-19 19-19 54 0 40 21 60 15 15 35 15h279q42 0 68-11 19-8 26-19l238 39h8q16 0 29-10.5t16-26.5q18 3 36 3 26 0 50-6.5t40-19.5l68-1q12 0 19-8t7-18l-2-172q0-10-7.5-17.5T954 399l-76 1q-12-9-28-14-38-14-77-5t-66 37q-11-31-39-59-30-29-73-46-58-23-136-23H241q-17 0-37 5-39 9-64 33-34 34-34 90v54zm611 194h-5l-234-38q-10-1-19-12-7-10-5-22l37-181q1-10 9.5-17t19.5-7h5l25 4q12 1 19.5 11t5.5 23l-27 117q-2 3 1.5 6.5t5.5 3.5l171 28q12 2 19 12t5 22l-3 17-140-21q-3-1-6 1t-3.5 5.5q-.5 3.5 1.5 6.5t6 4l138 21q-4 7-11 11.5t-15 4.5zm-49-135q1 10 5 25l-53-8q31-7 48-17zm249-115v65q0 4 2.5 6.5t6 2.5q3.5 0 6-2.5t2.5-6.5v-65h20q4 0 6.5 2.5t2.5 6.5l2 171q0 4-3 6.5t-6 2.5h-62l-9-188 32-1zm-73-14q8 3 24 11l9 197q-20 14-52 19.5t-60-.5l2-10q3-20-8.5-35.5T728 565l-36-6q-7-20-7.5-43t6.5-42q11-31 35.5-51.5t56-26Q814 391 844 402zM98 549h178q4 0 6-2.5t2-6.5q0-8-8-8h-90q-28 0-45-17-14-14-18-44v-53q0-49 29-78 22-21 56-29 18-4 33-4h218q65 0 115 16.5t81 47.5q18 17 29 38 7 13 10 24-13 17-19 34t-8 43q-25 23-100 26l24-106q3-21-8-36t-30-18l-33-5q-17 0-30 11t-16 28l-21 102q-20-22-71-35-31-9-56-11-4-1-6.5 1t-3.5 6q0 8 8 10 42 5 78 18 43 16 46 36l-11 54q-3 19 8 35 2 3 7 7l3 3q-6 8-21 13-22 8-57 8H98q-13 0-24-10-9-9-12-24h133q4 0 6.5-2.5t2.5-6.5q0-4-2.5-6t-6.5-2H59v-7q0-7 2-19h40q4 0 6.5-2t2.5-6q0-4-2.5-6.5T101 563H68l5-5q7-6 17-8l8-1zm893 146H9q-4 0-6.5 2.5t-2.5 6q0 3.5 2.5 6T9 712h982q4 0 6.5-2.5t2.5-6q0-3.5-2.5-6T991 695z"/></svg>