<svg viewBox="0 0 1244 1083.753" xmlns="http://www.w3.org/2000/svg"><path d="M227 546q-6-2-11.5 1t-6.5 9l-21 80L5 865q-4 4-3.5 10t5 10q4.5 4 9.5 4 8 0 12-6l185-231 3-6 21-82q2-6-1-11.5t-9-6.5zm29-40q18-39 52-64l88-66q18-14 41-12l84 4q16 2 23.5 13.5T548 406q-2 9-9 14.5t-16 6.5l-74 8q-10 2-13 11l-28 105q-4 10-2 25l4 44q1 6 5 9.5t9 3.5h2q6-1 10-5.5t3-10.5l-4-44q-1-5 1-15l26-95 64-7q18-1 31.5-13t18.5-29q8-28-8-51-18-22-45-24l-84-5q-30-1-57 16v-1q32-78 104-122l63-40q2-1 4-3L680 25q4-5 3-11t-6-10q-5-4-10.5-3.5T657 6L532 164l-62 38q-80 49-115 136l-18 46-47 34q-39 30-61 75-2 5 0 11t7 8.5q5 2.5 11 .5t9-7zM995 49q-4-4-10-3.5T975 51l-82 101q-4 5-3.5 11t5.5 9.5q5 3.5 10.5 3.5t10.5-5l81-102q4-4 3.5-10T995 49zM875 199q-5-4-11-3.5t-10 5.5l-62 78q-5 7-7 18v67l-15-1q-23-1-40 15t-18 39v4q-2 20 11 36l-8 6q-17 17-17 38l-1 4q0 21 12 36-11 7-18 18.5t-7 24.5l-1 4q0 22 13 38-11 7-18 18.5t-8 25.5q-1 14 7 29-1 1-1 3l-9 74-40 55q-4 5-10.5 6.5t-11.5-2q-5-3.5-7-10t1-10.5l22-34 3-5q1-4 2-4 2-6 2-11l14-128q1-6-3-10.5t-10-5.5q-6-1-10.5 3t-5.5 10l-14 127v4l-58 89q-4 6-10.5 8t-14-1q-7.5-3-10.5-10.5t1-15.5l24-49 2-7q2-5 2-8l16-139q1-6-3-10.5t-10-5.5q-6-1-10.5 3t-5.5 10l-16 139q0 4-3 7l-56 76q-4 6-11 7.5t-13.5-2q-6.5-3.5-9-10.5t.5-14l31-67q7-16 5-33l-5-49q-1-6-5.5-10t-10.5-3q-6 1-10 5.5t-3 10.5l5 49q2 9-3 18l-30 67q-6 11-4 24l-22 8q-7 1-12 8l-99 123q-4 5-3 11t6 10q3 3 9 3t11-5l98-123 23-8q6 7 14 12 11 6 23 6 24 0 39-20l7-11q1 1 1 2 8 20 26 28 9 4 20.5 4t22-6q10.5-6 17.5-16l12-18q5 7 12 12 11 7 25 7 24 0 37-19l6-9q4 7 12 13 14 9 28 9 22 0 37-17l24-31q11-14 14-33l6-54q14-6 24-19t11-29q1-21-13-39 11-8 18-19.5t8-24.5v-4q2-21-11-35 11-8 18-19.5t8-24.5v-4q2-20-11-36 11-8 18-19.5t7-25.5l1-4q0-24-15-40-12-13-27-16l1-70 62-77q4-5 3.5-11t-5.5-10zm-70 289q7 7 7 18v4q-1 11-8.5 18t-18.5 7l-38-2q-9-2-15-9.5t-5-16.5v-4q0-10 8.5-17.5T752 478l36 2q11 0 17 8zm-8 105q-1 10-8.5 17.5T770 618l-33-2q-10 0-17.5-8.5T713 590v-4q0-10 7.5-17.5T739 562l37 1q9 2 15.5 9.5T797 589v4zm-62 202l-24 30q-4 6-11.5 7t-13-3.5Q681 824 680 817t3-12l8-12q5-8 6-15l6-54q12 4 20 4l25 1-5 48q-2 10-8 18zm48-119q-1 11-9 18t-18 6l-31-1q-11 0-18.5-8.5t-7-19.5q.5-11 8.5-18.5t19-6.5l31 1q12 2 19.5 9.5T783 676zm43-254v4q-1 11-9 18.5t-19 6.5l-32-1q-10-2-17.5-9t-7.5-19v-4q1-11 9-18.5t19-7.5l32 2q12 0 18 9 9 8 7 19z"/></svg>