<svg viewBox="0 0 1244 1083.753" xmlns="http://www.w3.org/2000/svg"><path d="M716 914H284q-24 0-41.5-17.5T225 855V335q0-30 21.5-51t51.5-21h405q29 0 50 21t22 51v520q-1 24-18 41.5T716 914zM298 288q-19 0-33 13.5T250 335v520q0 14 10 24t24 10h432q14 0 24-10t10-24V335q0-20-13.5-33.5T703 288H298zm464 123H238q-5 0-9-4t-4-9q0-5 4-8.5t9-3.5h524q5 0 8.5 3.5t4 8.5q.5 5-3.5 9t-9 4zm0 380H238q-5 0-9-4t-4-9q0-5 4-8.5t9-3.5h524q5 0 8.5 3.5t3.5 8.5q0 5-3.5 9t-8.5 4zm-95-503H333q-5 0-9-3.5t-4-8.5v-54q0-5 4-9t9-4h334q5 0 9 4t4 9v54q0 5-4 8.5t-9 3.5zm-322-25h310v-29H345v29zm341-29H315q-16 0-26.5-10.5T278 198v-73q0-15 10.5-26T315 88h371q15 0 25.5 11t10.5 26v73q0 15-10.5 25.5T686 234zM315 113q-5 0-8.5 3.5T303 125v73q0 5 3.5 8t8.5 3h371q5 0 8-3.5t3-7.5v-73q0-5-3.5-8.5T686 113H315zm46 121q-5 0-9-3.5t-4-8.5V101q0-5 4-9t9-4q5 0 8.5 4t3.5 9v121q0 5-3.5 8.5T361 234zm69 0q-5 0-8.5-3.5T418 222V101q0-5 3.5-9t8.5-4q5 0 9 4t4 9v121q0 5-4 8.5t-9 3.5zm70 0q-5 0-8.5-3.5T488 222V101q0-5 3.5-9t8.5-4q5 0 9 4t4 9v121q0 5-4 8.5t-9 3.5zm70 0q-5 0-9-3.5t-4-8.5V101q0-5 4-9t9-4q5 0 8.5 4t3.5 9v121q0 5-3.5 8.5T570 234zm70 0q-5 0-9-3.5t-4-8.5V101q0-5 4-9t9-4q5 0 8.5 4t3.5 9v121q0 5-3.5 8.5T640 234zM375 677h-21q-13 0-22.5-9.5T322 645V533q0-14 9.5-23t22.5-9h21q14 0 23 9t9 23v112q0 13-9.5 22.5T375 677zm-21-151q-3 0-5 2t-2 5v112q0 2 2 4.5t5 2.5h21q3 0 5-2.5t2-4.5V533q0-3-2-5t-5-2h-21zm292 151h-21q-13 0-22.5-9.5T593 645V533q0-14 9.5-23t22.5-9h21q14 0 23 9t9 23v112q0 13-9.5 22.5T646 677zm-21-151q-3 0-5 2t-2 5v112q0 2 2 4.5t5 2.5h21q3 0 5-2.5t2-4.5V533q0-3-2-5t-5-2h-21zm-20 75H395q-5 0-9-3.5t-4-8.5q0-5 4-9t9-4h210q5 0 9 4t4 9q0 5-4 8.5t-9 3.5zm81 0h-20q-5 0-9-3.5t-4-8.5q0-5 4-9t9-4h20q5 0 8.5 4t3.5 9q0 5-3.5 8.5T686 601zm-352 0h-20q-5 0-8.5-3.5T302 589q0-5 3.5-9t8.5-4h20q5 0 9 4t4 9q0 5-4 8.5t-9 3.5z"/></svg>