<svg viewBox="0 0 1244 1083.753" xmlns="http://www.w3.org/2000/svg"><path d="M744 564q152-161 215-314 42-100 41-179 0-29-20.5-49.5T930 1q-85-1-192 46-166 73-340 247-107 107-214 252Q84 681 6 819q-9 17-5 34.5T18.5 883Q32 895 51 895q23 0 39.5 16.5T107 951q0 18 12 31.5t29.5 17.5q17.5 4 33.5-5 166-93 325-217 148-115 237-214zm-548 18q40-28 96-45 47-14 112-22 39-4 120-10 95-6 141-12 75-10 127-31-37 45-69 79-51 30-132 43-49 8-155 15-102 7-152 15-82 12-138 39l21-30q19-27 29-41zM751 75q57-25 109-35 37-8 67-8 10 0 17 3L570 409q-4 4-4 10.5t4.5 11q4.5 4.5 11 4.5t10.5-4L966 57q3 7 3 14 1 77-41 173-34 78-90 159-37 26-90 42-45 13-107 20-38 4-117 9-99 7-147 13-80 12-136 35 114-148 231-255Q615 135 751 75zM166 967q-9 5-18.5-.5T138 951q0-37-25.5-62.5T51 863q-11 0-16.5-9.5T34 835q34-60 70-118 39-33 96-52 47-15 114-24 40-5 124-10 79-6 118-10 64-8 110-22-129 125-299 242-108 75-201 126zm74-228L140 839q-4 4-4 10.5t4.5 11q4.5 4.5 11 4.5t10.5-4l100-100q5-5 5-11.5t-4.5-11q-4.5-4.5-11-4.5t-11.5 5z"/></svg>