<svg viewBox="0 0 1244 1083.753" xmlns="http://www.w3.org/2000/svg"><path d="M444 565l-12-12q-4-5-10-5t-10.5 4.5Q407 557 407 563t4 10l13 13q4 4 10 4t10.5-4.5Q449 581 449 575t-5-10zm0 0zm122-121q4 4 10 4t10.5-4q4.5-4 4.5-10t-5-10l-13-13q-4-5-10-5t-10 4.5q-4 4.5-4 10.5t4 11l13 12zm0 0zm-80 92q10 1 19.5-3t16.5-11q16-16 14-36 0-7-4.5-11t-10.5-3.5q-6 .5-10.5 5t-4 12q.5 7.5-4.5 13t-13 5q-8-.5-12.5 3.5t-5 10.5q-.5 6.5 4 11T486 536zm0 0zM17 846q21 51 55.5 85.5T158 987q42 16 89.5 16t91.5-17.5q44-17.5 78-50.5 1-3 4-4 44-44 79-101.5T548 720q15-58 13-124l33-33q60 3 124-13 45-12 97-41.5t96-68.5q4-4 4.5-10t-3.5-11q-4-5-10.5-5t-10.5 4q-41 37-90 64.5T710.5 521Q669 532 623 534l76-75q41-12 89-43 43-28 75-59 1 0 1-1l1-1q22-22 33.5-50t11.5-58l56-56q13 48 3.5 97T930 377q-4 5-3 11t6 10q5 4 10.5 3t9.5-6q36-47 45.5-106.5t-8-116.5Q973 115 931 73q-34-34-79.5-53t-94-19Q709 1 663 20t-80 53q-41 41-75 96-40 62-54 117-16 64-13 124l-33 33q-60-3-124 13-46 12-98 41.5T91 566q-5 5-5.5 11t4 10.5Q94 592 100 592t10-4q42-37 90.5-65t90-38.5Q332 474 378 472l-75 75q-45 13-88 41-40 25-76 61-22 22-33.5 49.5T94 757l-56 56q-11-37-6-84 8-55 40-100 4-5 3-11t-6-9.5q-5-3.5-11-2.5t-9 6Q11 663 3 725t14 121zm31-2l50-50q11 40 41.5 70.5T210 906l-50 50q-38-17-66.5-45.5T48 844zm471-131q-12 48-44.5 102T400 910l-3 3q-31 29-69.5 45T247 974q-27 0-56-8l56-56q31 0 58.5-11.5T355 865l1-1q1 0 1-1 31-32 58-74 30-47 41-88l76-76q-2 46-13 88zm39-379l112 111-227 227-111-111 226-227zm286 0q-32 32-68 56-41 27-81 39L575 309q23-78 95-150 17-17 39.5-26.5T757 123q32 0 60 16t45 43.5q17 27.5 18 59.5 2 26-7.5 50T844 334zm112-174l-50 50q-10-41-40.5-71.5T794 98l50-50q38 17 66.5 45.5T956 160zM483 293q13-51 50-110 32-51 71-90 30-30 70-46.5T757 30q27 0 56 8l-56 56q-31 0-58.5 11.5T649 139l-1 1q-1 0-1 1-31 32-59 75-31 48-43 89l-75 76q2-46 13-88zM159 670q71-69 148-93l120 120q-11 37-39 79-24 38-51 66-23 24-55.5 33t-65.5 1q-33-8-56.5-31.5T128 789q-8-32 0-64t31-55zm0 0z"/></svg>