<svg viewBox="0 0 1244 1083.753" xmlns="http://www.w3.org/2000/svg"><path d="M985 972H17q-7 0-11.5 4.5T1 987q0 6 4.5 11t11.5 5h968q7 0 11.5-4.5t4.5-11.5q0-7-4.5-11t-11.5-4zM157 220q26 0 44.5-18.5T220 157q0-26-18.5-44T157 95q-26 0-44 18t-18 44q0 26 18.5 44.5T157 220zm0-94q13 0 22.5 9t9.5 22q0 13-9.5 22t-22.5 9q-13 0-22-9t-9-22q0-13 9-22t22-9zm0-63q7 0 11.5-4.5T173 48V17q0-7-4.5-11.5T157 1q-7 0-11 4.5T142 17v31q0 6 4.5 10.5T157 63zm78 32q7 0 11-4l22-22q5-5 5-11.5t-4.5-11q-4.5-4.5-11-4.5T246 47l-22 22q-7 7-3.5 16.5T235 95zm-11 128q-5 5-5 11.5t5 11.5l22 22q5 4 11.5 4t11-4.5q4.5-4.5 4.5-11t-5-10.5l-22-23q-4-5-10.5-5t-11.5 5zm-155 0l-22 23q-4 4-4 10.5t4.5 11q4.5 4.5 11 4.5t10.5-4l22-22q5-5 5-11.5T91.5 223q-4.5-5-11-5T69 223zm0-132q5 4 11.5 4t11-4.5Q96 86 96 79.5T91 69L69 47q-4-5-10.5-5t-11 4.5Q43 51 43 57.5T47 69l22 22zm-52 82h31q7 0 11.5-4.5T64 157q0-7-4.5-11T48 142H17q-7 0-11.5 4.5T1 157q0 6 4.5 11t11.5 5zm234-16q0 7 4.5 11.5T267 173h31q7 0 11.5-4.5T314 157q0-7-4.5-11t-11.5-4h-31q-7 0-11.5 4.5T251 157zM142 267v31q0 6 4.5 10.5T157 313q6 0 11-4.5t5-10.5v-31q0-7-4.5-11.5T157 251q-7 0-11 4.5t-4 11.5zm331 512q-21-21-50.5-21T373 779q-12 11-28.5 11T317 779q-21-21-50.5-21T217 779q-12 11-28.5 11T161 779l-4-3q-19-20-46.5-21T62 771L7 817q-5 5-5.5 11T5 839q4 5 10.5 5.5T27 841l55-46q11-10 26.5-9t26.5 12l3 3q21 21 50.5 21t50.5-21q11-11 27.5-11t28.5 11q20 21 49.5 21t50.5-21q11-11 27.5-11t28.5 11q21 21 50 21t50-21q12-11 28.5-11t27.5 11q21 21 50.5 21t49.5-21q12-11 28.5-11t27.5 11q21 19 49 21h3q28-2 49-21l3-3q11-11 26.5-12t26.5 9l55 46q5 4 11.5 3.5T997 839q4-5 3.5-11t-5.5-11l-55-46q-21-17-48.5-16T845 776l-3 3q-7 6-13 8V534h156q7 0 11.5-4.5t4.5-10.5q0-6-4.5-11t-11.5-5H829v-31h156q7 0 11.5-4.5t4.5-11.5q0-7-4.5-11.5T985 440h-94q-3-27-23-44.5T821 378h-39q-19 0-33 13.5T735 425v15h-94q-3-27-23-44.5T571 378h-39q-19 0-33 13.5T485 425v15H17q-7 0-11.5 4.5T1 456q0 7 4.5 11.5T17 472h468v31H17q-7 0-11.5 4.5T1 519q0 7 4.5 11t11.5 4h468v253q-8-4-12-8zm212 0q-11 11-27.5 11T629 779q-21-21-50-21v-70h156v70q-27 0-50 21zM579 595v-61h156v61H579zm156-92H579v-31h156v31zm-218-78q0-7 4.5-11.5T532 409h39q14 0 25 9t14 22h-46q-7 0-11.5 4.5T548 456v154q0 7 4.5 11.5T564 626h187q7 0 11.5-4.5T767 610V425q0-7 4.5-11.5T782 409h39q14 0 25 9t14 22h-46q-7 0-11.5 4.5T798 456v331q-7-3-15-10.5T767 765v-92q0-7-4.5-11.5T751 657H564q-7 0-11.5 4.5T548 673v92q-9 5-17 12.5t-14 9.5V425z"/></svg>