<svg viewBox="0 0 1244 1083.753" xmlns="http://www.w3.org/2000/svg"><path d="M843 262H677q-8-11-20.5-18t-26.5-7H370q-14 0-26.5 7T323 262H157q-43 0-79 21t-57 57.5Q0 377 0 419v95q0 56 35 99l-1 6q0 74 93 115 32 15 75 23t86 8q39 0 73.5-10.5T423 724q27-20 42-45h70q15 25 42 45t61.5 30.5Q673 765 712 765q43 0 86-8t75-23q93-41 93-115 0-4-1-6 35-43 35-99v-95q0-42-21-78.5T922 283q-36-21-79-21zm-248 9h35q9 0 15 6.5t6 15.5v42q0 9-6 15.5t-15 6.5h-35v-86zm-78 0h44v86h-44v-86zm-78 0h44v86h-44v-86zm-90 22q0-9 6-15.5t15-6.5h35v86h-35q-9 0-15-6.5t-6-15.5v-42zM48 569q-14-26-14-55v-95q0-33 16.5-61t45-44.5Q124 297 157 297h157v34H157q-37 0-62.5 26T69 419v95q0 13 3 25-15 13-24 30zm240 162q-49 0-97-12-54-13-85-37-37-27-37-63t37-63q31-23 85-36 48-12 97-12 43 0 79.5 15t58 40.5Q447 589 447 619t-21.5 56q-21.5 26-58 41T288 731zm234-86h-43v-2q2-16 2-24.5t-2-24.5h43q-3 12-3 24.5t3 26.5zm-57-85q-15-26-42-45.5t-61.5-30Q327 474 288 474q-43 0-86 8t-75 23l-24 12v-98q0-22 16-37.5t38-15.5h166q8 11 20.5 18t26.5 7h260q14 0 26.5-7t20.5-18h166q22 0 38 15.5t16 37.5v98l-24-12q-32-15-75-23t-86-8q-39 0-73.5 10.5t-61.5 30Q550 534 535 560h-70zm247 171q-43 0-79.5-15t-58-41Q553 649 553 619t21.5-55.5q21.5-25.5 58-40.5t79.5-15q49 0 97 12 54 13 85 36 37 27 37 63t-37 63q-31 23-85 37-48 12-97 12zm254-217q0 27-13 55-11-18-25-30 3-12 3-25v-95q0-36-25.5-62T843 331H686v-34h157q33 0 61.5 16.5t45 44.5q16.5 28 16.5 61v95zm-675 4q-36 0-66.5 13.5T176 568q-18 23-18 51t18 51.5q18 23.5 48.5 37T291 721q36 0 66.5-13.5t48.5-37q18-23.5 18-51.5t-18-51q-18-23-48.5-36.5T291 518zm0 169q-40 0-69-20t-29-47.5q0-27.5 29-47.5t69-20q40 0 69.5 20t29.5 47.5q0 27.5-29.5 47.5T291 687zm418-169q-36 0-66.5 13.5T594 568q-18 23-18 51t18 51.5q18 23.5 48.5 37T709 721q36 0 66.5-13.5t48.5-37q18-23.5 18-51.5t-18-51q-18-23-48.5-36.5T709 518zm0 169q-40 0-69.5-20T610 619.5q0-27.5 29.5-47.5t69.5-20q40 0 69 20t29 47.5q0 27.5-29 47.5t-69 20z"/></svg>