<svg viewBox="0 0 1244 1083.753" xmlns="http://www.w3.org/2000/svg"><path d="M946 212H769v-69q0-38-19-71t-52-52Q665 1 627 1t-71 19q-33 19-52 52t-19 71v69h-56v-69q0-38-19-71t-52-52Q325 1 287 1t-70.5 19Q184 39 165 72t-19 71v69H54q-22 0-38 15.5T0 265v682q0 22 16 38t38 16h892q23 0 38.5-16t15.5-38V265q0-22-16-37.5T946 212zm25 613l-38 26q-8 5-16 0l-23-15q-13-10-29.5-10T834 836l-17 11q-6 4-13.5 4t-13.5-4l-17-11q-14-10-30-10t-30 10l-17 11q-14 10-27 0l-18-11q-13-10-29-10t-30 10l-18 11q-6 4-13.5 4t-13.5-4l-17-11q-13-10-29.5-10T470 836l-17 11q-6 4-13.5 4t-13.5-4l-17-11q-14-10-30-10t-30 10l-17 11q-14 9-28 0l-17-11q-13-10-29-10t-30 10l-18 11q-6 4-13.5 4t-13.5-4l-17-11q-13-10-29.5-10T106 836l-17 11q-6 4-13.5 4T62 847l-33-22V711l17 10q14 10 30 10t29-10l17-11q14-9 28 0l17 11q15 10 29 10t31-10l17-11q6-5 13.5-5t13.5 5l17 11q5 4 11 2.5t10-6.5q4-5 2-10.5t-7-9.5l-17-11q-13-10-29-10t-30 10l-18 11q-6 4-13.5 4t-13.5-4l-17-11q-13-10-29.5-10T106 686l-17 11q-6 4-13.5 4T62 697l-33-22V561l17 10q14 10 30 10t29-10l17-11q14-9 28 0l17 11q14 10 30 10t30-10l17-11q6-5 13.5-5t13.5 5l17 11q14 10 30.5 10t29.5-10l17-11q6-5 13.5-5t13.5 5l18 11q14 10 30 10t29-10l18-11q13-10 27 0l17 11q14 10 30 10t30-10l17-11q6-5 13.5-5t13.5 5l17 11q14 10 30.5 10t29.5-10l17-11q6-5 13.5-5t13.5 5l18 11q14 10 30 10t29-10l18-11q13-10 27 0l22 15q11 7 24.5 7t24.5-7l22-14v114l-38 26q-8 5-16 0l-23-15q-13-10-29.5-10T834 686l-17 11q-2 2-8 3l-2 1q-6 1-10 5.5t-3 10.5q1 6 5.5 10t10.5 3q12-1 23-9l18-11q13-10 27 0l22 15q11 7 25 7t24-7l22-14v114zm-25-584q10 0 17.5 7t7.5 17v34H769v-58h177zM668 443H429v-42h239v42zm0-71H429v-43h239v43zm0-160h-82v-69q0-17 12-29.5t29-12.5q17 0 29 12.5t12 29.5v69zm0 29v58H429v-58h239zm-493-98q0-31 15-56.5t41-41Q257 30 287 30t56 15.5Q369 61 384.5 87t15.5 56v349q0 6 4 10.5t10 4.5q6 0 10.5-4.5T429 492v-20h239v20q0 6 4.5 10.5T683 507q6 0 10.5-4.5T698 492V143q0-29-21-50t-50-21q-29 0-49.5 21T557 143v69h-42v-69q0-31 15-56.5t41-41Q597 30 627 30t56 15.5q26 15.5 41 41t15 56.5v349q0 6 4.5 10.5T754 507q6 0 10.5-4.5T769 492V329h202v196l-38 26q-8 5-16 0l-23-15q-13-10-29.5-10T834 536l-17 11q-6 4-13.5 4t-13.5-4l-17-11q-14-10-30-10t-30 10l-17 11q-14 10-27 0l-18-11q-13-10-29-10t-30 10l-18 11q-6 4-13.5 4t-13.5-4l-17-11q-13-10-29.5-10T470 536l-17 11q-6 4-13.5 4t-13.5-4l-17-11q-14-10-30-10t-30 10l-17 11q-14 9-28 0l-17-11q-13-10-29-10t-30 10l-18 11q-6 4-13.5 4t-13.5-4l-17-11q-13-10-29.5-10T106 536l-17 11q-6 4-13.5 4T62 547l-33-22V329h299v163q0 6 4.5 10.5T343 507q6 0 10.5-4.5T358 492V143q0-29-21-50t-50-21q-29 0-49.5 21T217 143v69h-42v-69zm153 69h-82v-69q0-17 12-29.5t29-12.5q17 0 29 12.5t12 29.5v69zM54 241h274v58H29v-34q0-10 7.5-17t17.5-7zm892 731H54q-10 0-17.5-7.5T29 947v-86l17 11q14 9 30 9t29-9l17-12q14-8 28 0l17 12q14 9 30 9t30-9l17-12q6-4 13.5-4t13.5 4l17 12q14 9 30.5 9t29.5-9l17-12q6-4 13.5-4t13.5 4l18 12q14 9 30 9t29-9l18-12q13-8 27 0l17 12q14 9 30 9t30-9l17-12q6-4 13.5-4t13.5 4l17 12q14 9 30.5 9t29.5-9l17-12q6-4 13.5-4t13.5 4l18 12q14 9 30 9t29-9l18-12q13-8 27 0l22 15q13 8 25.5 8t23.5-8l22-14v86q0 10-7 17.5t-18 7.5zM414 601q-6 0-10 4t-4 10v90q0 9-6.5 15t-14.5 6h-1q-8 0-14-6t-6-15v-89q0-6-4.5-10.5T343 601q-6 0-10.5 4.5T328 616v89q0 21 15 35.5t35 14.5h1q21 0 35.5-14.5T429 705v-90q0-6-4.5-10t-10.5-4zm340 0q-6 0-10.5 4t-4.5 10v90q0 9-6 15t-14 6h-1q-8 0-14-6t-6-15v-90q0-6-4.5-10t-10.5-4q-6 0-10.5 4t-4.5 10v90q0 21 15 35.5t35 14.5h1q20 0 35-14.5t15-35.5v-90q0-6-4.5-10t-10.5-4zm-125 76q-20-3-37 9l-18 11q-6 4-13.5 4t-13.5-4l-17-11q-13-10-29.5-10T470 686l-17 11q-5 4-6.5 10t2.5 10.5q4 4.5 9.5 6T469 721l17-11q14-9 28 0l17 11q15 10 29 10t31-10l17-11q9-5 16-4t11.5-2.5q4.5-3.5 6-9.5t-2.5-11q-4-5-10-6z"/></svg>