<svg viewBox="0 0 1244 1083.753" xmlns="http://www.w3.org/2000/svg"><path d="M992 274l-82-58q-37-26-81.5-31.5T742 196l-140 57q-28 10-39 38.5t2 54.5h-42v-88q0-8-5.5-14t-13.5-6H181q-8 0-14 6t-6 14v88H20q-8 0-14 6t-6 14v433q0 8 6 14t14 6h786q8 0 13.5-6t5.5-14q0-8-5.5-13.5T806 780H523V582q0-8-5.5-13.5T504 563H362v-69h270q-1 4-1 14 0 28 20 48t49 20h195q29 0 51-13l44-25q4-2 7-7t3-10V290q0-10-8-16zM200 455v-70h445v70H200zM39 563v-69h122v69H39zm645-195l88-37q17-7 34.5-1t28.5 20.5q11 14.5 11 32.5 0 23-17 40t-41 17h-88q-6 0-16 2v-74zm-200-22H362v-69h122v69zm-284-69h123v69H200v-69zM39 385h122v70H39v-70zm0 325h122v70H39v-70zm161 0h123v70H200v-70zm162 0h122v70H362v-70zm122-39H39v-69h445v69zM323 563H200v-69h123v69zm638-53l-34 19q-13 8-32 8H700q-13 0-21.5-8.5T670 508q0-12 9-20.5t21-8.5h88q40 0 68.5-28t28.5-68q0-31-19.5-56t-49-34.5Q787 283 757 295l-118 49q-11 4-22.5 0T600 328.5q-5-11.5 0-23t16-16.5l140-57q33-13 67.5-8.5T887 248l74 52v210zm-50 282q-4-12-17.5-12T875 792q-2 5-.5 11.5t6 10.5q4.5 4 11 4.5t12-3q5.5-3.5 8-10.5t-.5-13z"/></svg>