<svg viewBox="0 0 1244 1083.753" xmlns="http://www.w3.org/2000/svg"><path d="M367 876q5 0 10-5 55-54 110-136 33-51 91-151l3-5q63-109 99-160 59-86 120-140 4-4 4.5-10t-4-11q-4.5-5-10.5-5t-10 4q-63 56-123 143-37 53-101 164l-10 16q-56 96-87 143-52 77-103 128-4 4-4 10t4.5 10.5Q361 876 367 876zm0 0zm614-718q2-8-.5-16.5T972 127L862 17Q851 6 836 2.5T806 4q-85 30-158 89.5T525 231q-15 24-48 70l-10 14q-15 23-42 70l-23 39q-47 81-72 121-43 67-82 114-98 116-225 163-17 6-21 24t9 31l110 110q10 11 25.5 14.5t29.5-1.5q87-30 156-88 5-4 6-10t-3.5-11q-4.5-5-10.5-5.5t-10 3.5q-66 54-148 83-6 2-13 .5t-11-5.5L31 856q-2-2-1-4t3-3q12-4 34-14l28 28q5 4 11 4t10-4.5q4-4.5 4-10.5t-4-10l-21-20q20-11 36-21l25 25q5 4 11 4t10-4.5q4-4.5 4-10.5t-4-10l-21-21q22-16 32-24l24 23q4 4 10.5 4t10.5-4q4-4 4-10t-4-10l-23-23q10-9 29-28l23 24q5 4 11 4t10.5-4.5Q288 731 288 725t-5-10l-24-25 25-30 25 24q4 4 10 4t10.5-4.5Q334 679 334 673t-5-10l-26-27q16-22 23-33l25 25q4 4 10.5 4t11-4.5Q377 623 377 617t-5-10l-29-29q6-8 16-25l6-9 26 26q5 4 11 4t10-4.5q4-4.5 4-10.5t-4-10l-31-31q14-24 21-35l22 22q5 4 11 4t10.5-4.5Q450 500 450 494t-5-10l-28-28 13-21 8-15 21 21q4 4 10 4t10.5-4.5Q484 436 484 430t-5-10l-26-26q14-24 22-35l10 10q10 10 10 11 5 4 11 4t10.5-4.5Q521 375 521 369t-5-10l-26-26q5-9 16-26l6-9 22 22q5 4 11 4t10.5-4.5Q560 315 560 309t-5-10l-26-26 23-33 22 21q4 4 10 4t10.5-4.5Q599 256 599 250t-5-10l-24-24 18-21q2-2 6-8l2-2 23 23q4 4 10.5 4t10.5-4.5q4-4.5 4-10.5t-4-10l-24-23q9-10 29-28l25 26q5 4 11 4t10.5-4.5Q696 157 696 151t-5-10l-24-25q10-8 32-24l30 30q4 4 10.5 4t10.5-4.5q4-4.5 4-10.5t-4-10l-26-26q24-14 37-20l34 35q5 4 11 4t10.5-4.5Q821 85 821 79t-5-10l-27-27q9-4 27-10 14-5 25 5l110 111q2 2 1.5 3.5T950 154q-66 24-122 65-5 4-6 9.5t2.5 10.5q3.5 5 9.5 6t11-2q55-39 115-61 8-3 14-9.5t7-14.5zm0 0z"/></svg>