<svg viewBox="0 0 1244 1083.753" xmlns="http://www.w3.org/2000/svg"><path d="M638 11Q536 0 450 1 340 1 247 28q-91 26-144 72T50 201v267q0 44 35 83t98.5 67Q247 646 330 658q-87 63-148 104-13 9-14 26t12 28l222 178q9 7 20.5 7t20.5-6q74-56 109-85 59-49 100-87 0-1 1-1 52-49 91-89l1-1q23-24 62-67l3-3q57-67 83-107 43-67 52-131 11-87-10-172-25-102-92-163-40-37-100-56-40-13-105-22zM450 34q98 0 184 23 83 23 133 61.5t50 82.5q0 51-61 91-54 36-143 57-83 19-163 19-98 0-184-23-83-23-133-61.5T83 201q0-44 50-82.5T266 57q86-23 184-23zM83 468V282q47 54 145 86 99 33 222 33 136 2 256-46-151 141-323 264v-85q0-7-4.5-11.5T367 518q-7 0-12 4.5t-5 11.5v94q-39-6-83-17v-93q0-7-5-12t-12-5q-7 0-12 5t-5 12v83q-32-11-66-29V468q0-7-5-12t-12-5q-7 0-11.5 5t-4.5 12v82q-51-40-51-82zm340 500L201 790q38-27 81-57 20 14 49 11 17-3 31 6 14 11 16 28 5 29 29 46t53 13q18-3 31.5 7t15.5 27q3 13 9 25-45 37-93 72zm489-548q-6 41-24 75l-24-33q-4-5-11-6.5t-12 2.5q-5 4-6.5 11t2.5 12l33 47q-19 32-53 74l-46-53q-6-8-16-5.5T742 554q-3 8 4 17l49 57-13 15q-32 36-51 55l-70-60q-3-3-7.5-4t-8.5 1q-9 3-11 13t6 16l68 58q-36 38-68 67l-79-67q-8-6-16.5-3.5t-10.5 12q-2 9.5 5 16.5l76 65q-25 23-72 62-2-3-4-11-5-29-29-46t-53-13q-16 3-30.5-7T410 770q-4-29-28.5-46.5T328 711h-15q398-283 502-427 32-33 35-81 1-37-23-70-21-29-57-53 29 15 50 34 58 52 82 144 21 80 10 162zM449 301q64 0 121-18 71-22 91-63 14-29-5-62-15-27-49-50-55-35-119-49-20-6-38 7-11 10-15 19-57 1-103 16t-72.5 39Q233 164 233 193q0 36 37 63 32 22 86 34 46 11 93 11zm123-53l6-119 11 7q47 32 44 61t-61 51zM464 102q2-7 5-9 5-4 10-2 30 6 66 22l-7 145q-47 10-85 10l11-166zm-34 16l-11 148q-44-3-80-15-34-11-53-26.5t-19-32q0-16.5 21-33t57-27.5q38-12 85-14zm70 50q-7 0-12 4.5t-5 11.5v17q0 7 5 11.5t12 4.5q7 0 12-4.5t5-11.5v-17q0-7-5-11.5t-12-4.5zM327 805q-5-4-12-3.5t-11 5.5q-4 5-3.5 12t5.5 12l84 66q5 4 11.5 3.5t11-5.5q4.5-5 4-12t-5.5-12l-84-66z"/></svg>