<svg viewBox="0 0 1244 1083.753" xmlns="http://www.w3.org/2000/svg"><path d="M923 408q0-19-9.5-35T888 348q18-20 18-47 0-25-16.5-44T849 234q6-14 6-28 0-9-1.5-14t-6-8q-4.5-3-10.5-1.5t-9.5 6Q824 193 825 199l1 7q0 16-11.5 27.5t-28 11.5q-16.5 0-28-11.5t-11.5-28q0-16.5 11.5-27.5t27.5-11q6 0 10.5-4.5T801 152q0-6-4.5-10.5T786 137l-12 1v-4q0-29-20-49t-49-20q-14 0-30 7-5-23-23.5-38.5T608 18q-28 0-47 19-9-17-25.5-26.5T500 1q-19 0-35.5 9.5T439 37q-19-19-47-19-25 0-43.5 15.5T325 72q-16-7-30-7-28 0-48.5 20T226 134v4l-12-1-13 1q-6 1-9.5 6.5t-2 11.5q1.5 6 6.5 9t11 2h7q17 0 28 11t11 27.5q0 16.5-11 28T214 245q-17 0-28.5-11.5T174 206q0-6-4-10.5t-10-4.5q-6 0-10.5 4.5T145 206q0 14 6 28-24 4-40.5 23T94 301q0 28 19 47-17 9-26.5 25T77 408q0 19 9.5 35t26.5 25q-19 19-19 45t16.5 45q16.5 19 40.5 24-6 12-6 28 0 28 20.5 48.5T214 679q4 0 12-2v5q0 28 20 48t49 20q17 0 30-6 5 23 23.5 38.5T392 798q28 0 47-19 5 7 12 15 5 6 12 9-11 14-11 30t9 29q9 13 24 18v17h-15q-6 0-10 4.5t-4 10.5q0 6 4 10.5t10 4.5h5l-21 35q-3 5-1.5 11t6.5 9q3 2 8 2 8 0 12-7l6-11v20q0 6 4.5 10.5t10.5 4.5q6 0 10.5-4.5T515 986v-20l6 11q4 7 13 7 5 0 7-2 5-3 6.5-9t-1.5-11l-20-35h4q6 0 10-4.5t4-10.5q0-6-4-10.5t-10-4.5h-15v-17q15-5 24-18t9-28.5q0-15.5-10-30.5 7-3 11-9 8-8 12-15 19 19 47 19 25 0 43.5-15.5T675 744q14 6 30 6 29 0 49-20t20-48v-5q8 2 12 2 29 0 49-20.5t20-48.5q0-16-6-28 24-5 40.5-24t16.5-44.5q0-25.5-18-45.5 16-9 25.5-25t9.5-35zm-69 39q-16 0-27.5-11.5T815 408q0-16 11.5-27.5T854 369q16 0 28 11.5t12 27.5q0 16-12 27.5T854 447zm23-146q0 16-11.5 28t-28 12q-16.5 0-28-11.5T798 301q0-17 11.5-28t27.5-11q16 0 28 11.5t12 27.5zM705 95q17 0 28.5 11.5T745 134q0 16-11.5 28t-28 12q-16.5 0-28-11.5t-11.5-28q0-16.5 11.5-28T705 95zm-97-48q17 0 28.5 11.5t11.5 28q0 16.5-12 28T608 126q-16 0-27.5-11.5t-11.5-28q0-16.5 11.5-28T608 47zM500 30q17 0 29 12t12 29q0 17-12 28.5T500.5 111Q484 111 472 99t-12-28.5Q460 54 472 42t28-12zM392 47q16 0 27.5 11.5t11.5 28q0 16.5-11.5 28T392 126q-16 0-28-11.5t-12-28q0-16.5 12-28T392 47zm-97 48q16 0 27.5 11.5T334 134q0 16-11.5 28T295 174q-16 0-28-12t-12-28q0-16 11.5-27.5T295 95zM163 262q16 0 27.5 11.5T202 301q0 16-11.5 28T163 341q-16 0-27.5-11.5T124 301q0-17 11.5-28t27.5-11zm-17 107q16 0 27.5 11.5T185 408q0 16-11.5 27.5T146 447q-16 0-27.5-11.5T107 408q0-16 11.5-27.5T146 369zm-22 145q0-16 11.5-27.5T163 475q16 0 27.5 11.5T202 514q0 16-11.5 28T163 554q-16 0-27.5-11.5T124 514zm50 96q0-17 12-28.5t28-11.5q16 0 27.5 11.5t11.5 28q0 16.5-11 28T214 649q-17 0-28.5-11.5T174 610zm121 111q-16 0-28-11.5T255 682q0-16 12-28t28-12q16 0 27.5 11.5t11.5 28q0 16.5-11.5 28T295 721zm97 48q-16 0-28-12t-12-28q0-16 11.5-27.5t28-11.5q16.5 0 28 11.5T431 729q0 16-11.5 28T392 769zm108 84q-7 0-13-6t-6-13.5q0-7.5 6-13t13.5-5.5q7.5 0 13 5.5T519 834q0 8-5.5 13.5T500 853zm29-80q-12 12-29 12t-28.5-12Q460 761 460 744.5t11-28.5q5-5 5-11t-4.5-10q-4.5-4-10-4t-10.5 4q-9-16-24.5-25t-33-9q-17.5 0-31.5 6-5-24-24-39t-43-15q-9 0-13 1 1-1 1-4 0-25-16.5-44T226 542q6-12 6-28 0-19-10-35t-26-25q18-20 18-46t-18-46q16-9 26-25.5t10-35.5q0-15-6-27 24-5 40.5-24t16.5-44q0-3-1-4l13 1q24 0 43-15.5t24-39.5q13 7 31 7t34-9.5q16-9.5 24-24.5 22 20 49 20t49-20q9 15 25 24.5t33.5 9.5q17.5 0 30.5-7 5 24 24 39.5t43 15.5l13-1-1 4q0 25 16.5 44t40.5 24q-6 12-6 27 0 19 10 35.5t26 25.5q-18 20-18 46t18 46q-16 9-26 25t-10 35q0 16 6 28-24 5-40.5 24T717 610l1 4q-4-1-13-1-24 0-43 15t-24 39q-13-6-31-6t-33.5 9q-15.5 9-24.5 25-6-6-10-9t-10-1.5q-6 1.5-10 6.5t-2.5 11q1.5 6 6.5 9l6 5q11 12 11 28.5T529 773zm79-4q-16 0-27.5-11.5T569 729q0-17 11.5-28t27.5-11q16 0 28 11.5t12 27.5q0 16-12 28t-28 12zm97-48q-16 0-27.5-11.5T666 682q0-16 11.5-28t27.5-12q16 0 28 12t12 28q0 16-11.5 27.5T705 721zm81-72q-16 0-27.5-11.5t-11.5-28q0-16.5 11.5-28t28-11.5q16.5 0 28 11.5t11.5 28q0 16.5-11.5 28T786 649zm51-95q-16 0-27.5-11.5T798 514q0-17 11.5-28t27.5-11q16 0 28 11.5t12 27.5q0 16-12 28t-28 12z"/></svg>