<svg viewBox="0 0 1244 1083.753" xmlns="http://www.w3.org/2000/svg"><path d="M509 826q-6 0-10.5 4t-4.5 10v69q0 7 4.5 11t10.5 4q6 0 10.5-4t4.5-11v-69q0-6-4.5-10t-10.5-4zm234-412V79q0-32-23-55T665 1q-32 0-55 23t-23 55v71q0 6 4.5 10t10.5 4q6 0 10-4t4-10V79q0-20 14.5-34.5T665 30q20 0 34 14.5T713 79v334h-97V218q0-6-4-10.5t-10-4.5q-6 0-10.5 4.5T587 218v31q-22-17-48-17-30 0-52 20t-26 49q-21-18-50-18t-50.5 19.5Q339 322 335 352q-21-18-49-18h-1q-32 0-54.5 23T208 412v32q0 6 4.5 10.5T223 459q6 0 10-4.5t4-10.5v-32q0-20 14-34t34-14h1q20 0 34 14t14 34v137q0 20-14 34t-33 14h-2q-19 0-33.5-14.5T237 549v-37q0-6-4-10t-10-4q-6 0-10.5 4t-4.5 10v148q0 33 10 71l38 130q7 22 7 51v74q0 6 4.5 10.5t10.5 4.5q6 0 10.5-4.5T293 986v-74q0-31-9-59l-38-130q-9-32-9-63v-51q22 17 48 17h2q22 0 41-12t28-32q22 24 56 24 27 0 47.5-16t27.5-41q22 20 52 20 8 0 24-4 16 4 25 4h56v11l-63 23q-39 14-63 48.5T494 728v37q0 6 4.5 10.5T509 780q6 0 10.5-4.5T524 765v-37q0-33 18.5-60t48.5-38l73-27q10-3 10-13v-36q0-6-4.5-10t-10.5-4h-71q-20 0-34.5-14.5T539 491q0-20 14.5-34t34.5-14h150q10 0 17.5 7t7.5 17v73q0 6 4 10t10 4q6 0 10.5-4t4.5-10v-73q0-21-14.5-36T743 414zM461 529q0 20-14.5 34T412 577q-20 0-34-14t-14-34V361q0-20 14-34.5t34-14.5q20 0 34.5 14.5T461 361v168zm49-38q0 26 16 47-16-5-26-18t-10-29V310q0-20 14.5-34.5T539 261q20 0 34 14t14 34v104q-32 1-54.5 23.5T510 491zm267 103q-6 0-10 4t-4 10v52q0 31-9 63l-37 124q-10 38-10 71v68q0 6 4.5 10.5t10.5 4.5q6 0 10.5-4.5T737 986v-68q0-32 9-63l36-124q10-33 10-71v-52q0-6-4.5-10t-10.5-4z"/></svg>