<svg viewBox="0 0 1244 1083.753" xmlns="http://www.w3.org/2000/svg"><path d="M854 453q6 0 6-6t-6-6q-6 0-6 6 0 2 2 4t4 2zm-18-20q6 0 6-6t-6-6q-2 0-4 2t-2 4q0 6 6 6zm-96 364q2 0 4-2t2-4q0-2-2-4t-4-2q-2 0-4 2t-2 4q0 6 6 6zm20 18q2 0 3.5-2t1.5-4q0-2-1.5-4t-3.5-2q-2 0-4 2t-2 4q0 6 6 6zm-20 20q2 0 4-2t2-4q0-2-2-4t-4-2q-2 0-4 2t-2 4q0 6 6 6zm-38-38q2 0 3.5-2t1.5-4q0-2-1.5-4t-3.5-2q-2 0-4 2t-2 4q0 6 6 6zm19 18q6 0 6-6t-6-6q-6 0-6 6 0 2 2 4t4 2zm-19 20q2 0 3.5-2t1.5-4q0-2-1.5-4t-3.5-2q-2 0-4 2t-2 4q0 6 6 6zm19 18q6 0 6-6t-6-6q-6 0-6 6t6 6zm-38-76q2 0 4-2t2-4q0-2-2-4t-4-2q-2 0-4 2t-2 4q0 2 2 4t4 2zm-20 20q6 0 6-6t-6-6q-6 0-6 6 0 2 2 4t4 2zm20 18q2 0 4-2t2-4q0-2-2-4t-4-2q-2 0-4 2t-2 4q0 2 2 4t4 2zm-20 20q6 0 6-6t-6-6q-6 0-6 6 0 2 2 4t4 2zm20 18q6 0 6-6t-6-6q-2 0-4 2t-2 4q0 6 6 6zm-58-56q2 0 4-2t2-4q0-2-2-4t-4-2q-2 0-4 2t-2 4q0 2 2 4t4 2zm20 18q2 0 4-2t2-4q0-2-2-4t-4-2q-2 0-4 2t-2 4q0 2 2 4t4 2zm-20 20q2 0 4-2t2-4q0-2-2-4t-4-2q-2 0-4 2t-2 4q0 2 2 4t4 2zm20 18q6 0 6-6t-6-6q-2 0-4 2t-2 4q0 6 6 6zm-38-38q2 0 4-2t2-4q0-2-2-4t-4-2q-2 0-4 2t-2 4q0 6 6 6zm-20 20q2 0 4-2t2-4q0-2-2-4t-4-2q-2 0-4 2t-2 4q0 2 2 4t4 2zm20 57q2 0 4-2t2-4q0-2-2-4t-4-2q-6 0-6 6t6 6zm-58-57q2 0 4-2t2-4q0-2-2-4t-4-2q-2 0-4 2t-2 4q0 6 6 6zm20 18q5 0 5-6t-5-6q-2 0-4 2t-2 4q0 6 6 6zm-20 20q6 0 6-6t-6-6q-2 0-4 2t-2 4q0 6 6 6zm20 19q2 0 3.5-2t1.5-4q0-2-1.5-4t-3.5-2q-6 0-6 6t6 6zm-39-39q6 0 6-6t-6-6q-6 0-6 6t6 6zm-19 20q5 0 5-6t-5-6q-2 0-4 2t-2 4q0 6 6 6zm19 19q6 0 6-6t-6-6q-6 0-6 6t6 6zm-58-57q6 0 6-6t-6-6q-6 0-6 6 0 2 2 4t4 2zm20 18q6 0 6-6t-6-6q-2 0-4 2t-2 4q0 6 6 6zm-20 20q6 0 6-6t-6-6q-6 0-6 6 0 2 2 4t4 2zm20 19q2 0 4-2t2-4q0-2-2-4t-4-2q-6 0-6 6 0 2 2 4t4 2zm-58-69q-2 0-4 2t-2 4q0 2 2 4t4 2q2 0 4-2t2-4q0-2-2-4t-4-2zm20 30q6 0 6-6t-6-6q-2 0-4 2t-2 4q0 6 6 6zm-58-30q-2 0-4 2t-2 4q0 2 2 4t4 2q2 0 4-2t2-4q0-2-2-4t-4-2zm20 18q-2 0-4 2t-2 4q0 2 2 4t4 2q6 0 6-6t-6-6zm247-82q6 0 6-6t-6-6q-6 0-6 6 0 2 2 4t4 2zm-18 18q2 0 4-2t2-4q0-2-2-4t-4-2q-2 0-4 2t-2 4q0 2 2 4t4 2zm-76 38q2 0 3.5-2t1.5-4q0-2-1.5-4t-3.5-2q-2 0-4 2t-2 4q0 6 6 6zm-58 20q2 0 3.5-2t1.5-4q0-2-1.5-4t-3.5-2q-2 0-4 2t-2 4q0 6 6 6zm393 73q-3-5-8.5-8.5T884 896H683q40-16 71.5-46.5T803 779h18q12 0 20.5-9t8.5-21V645q0-14-11-23l-13-11q11-83 51-141 8-11 9-25t-5-26.5q-6-12.5-17-20t-25-9.5h-64q-2-23-19.5-40t-42-17q-24.5 0-41.5 17t-19 41q-369 0-372 1-26 6-35 30t3 46q-24-15-49-23-31-9-54-2-32 9-46 49-12 36-5 72 6 29 25 60 11 18 36 49l1 2q23 28 27 39 10 28 29 48 21 25 46 30 4 1 11 1 26 0 52-23 16 43 48.5 76.5T446 896H247q-6 0-11.5 3.5T227 909q-7 12 1 24l13 20q15 23 38.5 35.5T330 1001h474q29 0 54-15t38-40l9-15q6-11-1-23zm-75-274q6 4 6 11v104q0 6-4.5 10t-9.5 4H716q-6 0-10-4t-4-10V645q0-6 5-11l53-41v26q-8 3-13.5 10t-5.5 16q0 11 8 19t19 8q11 0 19-8t8-19q0-9-5.5-16T776 619v-26h1l52 41zm-538-71q1 1 3 1 14 50 14 128v11q-18 18-33 15-13-2-25-18-10-12-17-30-4-9-23-30l-1-1q-24-26-32-42-14-29-4-58 6-17 19-20 19-5 54 13 24 13 45 31zm4-46h465v19q-6 0-6 6t6 6v17h-15l1-3q0-6-6-6t-6 6q0 2 1 3H311q-4-16-16-48zm539 0q-10 26-14 41-1-2-4-2-6 0-6 6l1 3h-28q1-1 1-3 0-6-6-6h-2v-27h2q6 0 6-5.5t-6-5.5h-2v-1h58zm-54 128q0 5-3.5 8t-8.5 3h-3q0-2-1.5-4t-3.5-2l-2 1q-1-2-1-6.5t3.5-7.5q3.5-3 7.5-3t4 1v3q0 2 2 4t4 2h2v1zm32-240q-2 2-2 4t2 4q2 2 4 2t4-2q2-2 2-4l-1-4h17q3 0 9 1l2 1q-1 1-1 2.5t2 3.5q2 2 4 2t4-2q6 4 9 12 9 19-3 36-4 6-5 9h-19q2-2 2-4.5t-2-4q-2-1.5-4-1.5t-4 1.5q-2 1.5-2 4t2 4.5h-30q2-2 2-4.5t-2-4q-2-1.5-4-1.5t-4 1.5q-2 1.5-2 4t2 4.5h-18v-17h2q2 0 4-2t2-4q0-2-2-4t-4-2q-2 0-2 1v-28q0 1 2 1t4-2q2-2 2-4t-2-4h30zm-98-57q18 0 31 12t15 29q-58 0-92 1 2-18 15-30t31-12zm-454 79q6-16 24-21l476-1v16q-6 0-6 6t6 6v27q-6 0-6 4.5t1 5.5H270l-6-9q-10-15-4-34zm2 349q-21-5-40-29-16-19-23-40-5-12-29-42t-35-47q-18-29-24-56-7-33 4.5-65.5T150 457q27-8 70 12 23 11 48 28l1 1q11 21 18 42-24-18-46-28-32-14-53-8t-30 30q-12 35 3 67 9 19 35 48l2 2q18 18 20 25 5 15 16 30 17 24 38 28l7 1q15 0 31-13 1 16 6 31-28 28-54 23zm172 85q-2 0-4 2t-2 4.5q0 2.5 2 4.5-48-27-77-74-30-49-30-106 0-53-4-81h392l-13 11q-12 9-12 23v83q-1-1-3-1t-4 2q-2 2-2 4t2 4q2 2 4 2l3-1v11q0 12 9 21t21 9h70l-4 8q-2-2-4-2t-4 2q-2 2-2 5t5 5q-26 43-70 70 0-2-1.5-4t-3.5-2q-6 0-6 6 0 3 2 5-23 13-51 19 4-2 4-5 0-6-6-6t-6 6q0 6 6 6h1q-20 4-45 4h-74q-34 0-67-11-2-5-5.5-5t-4.5 1q-8-3-17-8h1q6 0 6-6 0-2-2-4t-4-2zm457 62l-8 16q-12 21-33.5 33.5T804 985H330q-23 0-43-10.5T254 945l-13-21q-2-3-1-7v-1q0-1 2-2.5t5-1.5h637q3 0 7 3v1q3 3 0 7zM547 273q0 8 7 8 3 0 5.5-2t2.5-6q0-13 3-23 2-6 6-17l1-1q5-11 7-19 3-12 3-28t-3-28q-2-8-7-19l-1-1q-4-11-6-17-3-10-3-23t3-23q2-6 6-17l1-1q5-11 7-19 3-12 3-28 0-8-7.5-8T567 9q0 13-3 23-2 6-6 17l-1 1q-5 11-7 19-3 12-3 28t3 28q2 8 7 19l1 1q4 11 6 17 3 10 3 23t-3 23q-2 6-6 17l-1 1q-5 12-7 19-3 13-3 28zm132 0q0 8 8 8t8-8q0-14 3-24 1-7 6-17l1-1q5-11 7-19 3-12 3-27t-3-27q-2-8-7-19l-1-1q-5-10-6-17-3-10-3-24t3-24q1-7 6-17l2-4q4-11 6-17 3-12 3-26 0-4-2.5-6T707 1q-3 0-5.5 2T699 9q0 17-7 37l-2 4q-11 20-11 47t11 47l2 4q7 20 7 37t-7 37l-2 4q-5 11-8 19-3 12-3 28zm-265 0q0 4 2.5 6t5.5 2q3 0 5.5-2t2.5-6q0-14 3-24 1-7 6-17l1-1q5-11 7-19 3-12 3-27t-3-27q-2-8-7-19l-1-1q-5-10-6-17-3-10-3-24t3-24q1-7 6-17l2-4q4-11 6-17 3-12 3-26 0-4-2.5-6T442 1q-3 0-5.5 2T434 9q0 14-3 24-1 7-6 17l-1 1q-5 11-7 19-3 12-3 27t3 27q2 8 7 19l1 1q5 10 6 17 3 10 3 24t-3 24q-1 7-6 17l-1 3q-5 11-7 18-3 12-3 26z"/></svg>