<svg viewBox="0 0 1244 1083.753" xmlns="http://www.w3.org/2000/svg"><path d="M344 235h109q13 0 22 9.5t9 22.5q0 6 4.5 10.5T500 282q7 0 11.5-4.5T516 267q0-26-18.5-44.5T453 204H344q-7 0-11.5-4.5T328 188q0-7 4.5-11t11.5-4h250q20 0 33.5-14t13.5-33.5q0-19.5-13.5-33T594 79H469q-26 0-44.5-18T406 17q0-7-4.5-11.5T391 1q-6 0-11 4.5T375 17q0 38 27.5 65.5T469 110h125q6 0 10.5 4.5T609 126q0 7-4.5 11.5T594 142H344q-19 0-33 13.5T297 188q0 19 14 33t33 14zm640 578H658q51-29 84-78h39q51 0 94-25t68.5-68q25.5-43 25.5-94t-25.5-94Q918 411 875 385.5T781 360q0-20-13.5-33.5T734 313H266q-19 0-33 13.5T219 360v243q0 58 26 108l-2 3q-3 4-4 6-17-42-55.5-68T98 626H47q-7 0-11.5 4.5T31 642v50q0 37 16 68.5T91 813H16q-7 0-11.5 4.5T0 829q0 30 14.5 55t40 40Q80 939 109 939h18q5 27 26.5 44.5T203 1001h594q28 0 49.5-17.5T873 939h18q30 0 55-15t39.5-40q14.5-25 14.5-55 0-7-4.5-11.5T984 813zM781 454q39 0 66.5 27.5t27.5 66q0 38.5-26 65.5-28 29-71 29 3-15 3-30 1-13 0-61v-97zm157 94q0 42-21.5 78T859 683q-36 21-78 21h-22q8-16 12-31h10q34 0 62.5-17t45.5-45.5q17-28.5 17-62.5t-17-62.5Q872 457 843.5 440T781 423v-31q42 0 78 21t57.5 57q21.5 36 21.5 78zM250 360q0-6 4.5-10.5T266 345h468q7 0 11.5 4.5T750 360v243q0 55-26 101H500q-7 0-11.5 4.5T484 720q0 7 4.5 11t11.5 4h203q-30 37-72.5 57.5T539 813h-78q-43 0-85-17 30-36 30-84v-39q0-7-4.5-11.5T391 657h-39q-48 0-84 30-18-39-18-84V360zm74 380q-5-5-11-5t-11 5l-52 51q0-29 14-52.5t37.5-37Q325 688 352 688h23v24q0 41-29.5 71T272 813l52-51q5-5 5-11.5t-5-10.5zM63 692v-35h35q32 0 60 16.5t44.5 44.5q16.5 28 16.5 60v13l-2-2-81-80q-4-5-10.5-5t-11 4.5q-4.5 4.5-4.5 11t4 11.5l83 82h-13q-33 0-61-16t-44-44q-16-28-16-61zm828 215H500q-7 0-11.5 4.5T484 923q0 7 4.5 11.5T500 939h341q-5 13-17 22t-27 9H203q-15 0-27-8.5T159 939h107q6 0 10.5-4.5T281 923q0-7-4.5-11.5T266 907H109q-28 0-49.5-18T33 845h934q-5 27-26.5 44.5T891 907z"/></svg>