<svg viewBox="0 0 1244 1083.753" xmlns="http://www.w3.org/2000/svg"><path d="M998 208q-4-4-10-4.5t-11 3.5l-43 40q-4 2-7-1l-31-35q-4-4-10-4.5t-10.5 3.5q-4.5 4-5 10t3.5 11l26 28-44 40q-4 4-4 8l-12 50q-11 43-42 71l-86 78q-7 6-15.5 5.5t-14.5-7q-6-6.5-5-15.5 2-11 7-15l37-33q4-4 4.5-10t-3.5-11q-4-5-10.5-5t-10.5 4l-37 34q-10 8-13 19-12-5-21-5-10 0-20 5-3-8-7-13l37-34q4-4 4.5-9.5t-4-10.5q-4.5-5-10.5-5t-10 4l-21 19q-3-10-11-18l-12-12 19-17q4-4 4.5-9.5T596 356q-4-5-10.5-5t-10.5 4l-20 18-41-40q10-3 17-12 14-13 14.5-33T533 253l63-56q43-40 105-53l2-1q3-1 5-3l46-42 78 87q4 4 10.5 4t10.5-3.5q4-3.5 4.5-9.5t-3.5-11l-84-93q-3-3 0-6l43-39q5-5 5-11t-4-10q-4-4-9.5-4.5T794 5l-44 39q-11 11-11 28l-48 44q-63 13-115 59l-63 58-66-64q-40-37-89-44l-47-8-44-43q1-7-2-15t-8-13L215 5q-5-4-11-3.5T194 6q-4 4-4 10t4 10l42 41q2 1 2 3t-2 3L73 242q-2 2-3 2t-3-2l-42-40q-4-5-10-5t-10.5 4.5Q0 206 0 212t5 11l42 40q10 10 23 10h1q2 0 4-1l47 46q18 64 67 111l30 29q4 4 10.5 4t11-4.5Q245 453 245 447t-5-10l-31-29q-43-41-60-102l-1-1q-1-4-3-5l-45-44 151-156 43 41q2 2 8 4l51 8q42 7 73 37l84 81q6 6 6 15t-5.5 15q-5.5 6-13 7t-14.5-4l-39-38q-5-4-11-3.5t-10 5q-4 4.5-3.5 10t4.5 9.5l143 139q6 4 6 13h-9q-10 0-18 3-2-18-14-30-14-14-34-14-4 0-12 2l-52-51q-4-4-10-4t-10 4q-4 4-4 10.5t4 10.5l47 46q-7 8-8 16-12-5-21-5-3 0-9 1l-2 1-33-32q-4-5-10-5t-10 4.5q-4 4.5-4 10.5t4 11l28 26q-12 13-12 31v10l-42-41q-4-4-10-3.5t-10 4.5q-4 4-4 10t4 10l62 60v47q-6 0-9-5l-90-87q-5-4-11-3.5t-10 4.5q-4 4-4 10t4 11l79 75q-10 5-16 11-15 15-15 35v116q0 53 30 95l27 40-1 61-3 3q-10 12-10 24v25q0 6 4.5 10.5t10.5 4.5q6 0 10.5-4.5T385 987v-25q0-3 1-3h1q1-1 2-1h235q2 0 3 1t1 3v26q0 6 4.5 10t10.5 4q6 0 10.5-4t4.5-10v-26q0-16-13-26v-66q33-60 33-125v-13q0-6-4.5-10.5T663 717q-6 0-10 4.5t-4 10.5v13q0 61-32 114-2 4-2 7v63l-217-1v-59q0-5-3-8l-29-43q-24-35-24-79V623q0-9 6-15t15-6q9 0 15 6.5t6 15.5v50q0 6 4.5 10.5T399 689q6 0 10-4.5t4-10.5l1-199q0-6 5-13 7-5 13-5 8 0 13 5t5 13v149q0 6 4.5 10t10.5 4q6 0 10-4t5-9V446q0-8 5.5-13.5T498 427q9 0 14 5t5 14l-1 178q0 6 4.5 10t10.5 4q6 0 10-3.5t5-9.5V486q0-6 5-13 7-5 13-5 8 0 13.5 5.5T583 486v138q0 6 4 10t10 4q6 0 10-3.5t5-9.5V515q0-8 5.5-13t12.5-5q8 0 13.5 5.5T649 515v154q0 6 4 10.5t10 4.5q6 0 10.5-4.5T678 669V537q5 2 17 4h3q18 0 34-13l86-78q38-35 50-86l11-46 46-42q1 1 4 1h2q13 0 22-9l44-39q4-4 4.5-10t-3.5-11z"/></svg>