<svg viewBox="0 0 1244 1083.753" xmlns="http://www.w3.org/2000/svg"><path d="M359 756q-6 0-10.5 4.5T344 771v77q0 6 4.5 10.5T359 863q6 0 10-4.5t4-10.5v-77q0-6-4-10.5t-10-4.5zm283 0q-6 0-10 4.5t-4 10.5v77q0 6 4 10.5t10 4.5q6 0 10.5-4.5T657 848v-77q0-6-4.5-10.5T642 756zm285-51l-49-19v-13q13-7 26-21 23 3 44-5.5t35.5-27.5q14.5-19 17.5-42.5t-7-46.5l-22-51-3-12q-8-51-47-85t-90-34q-25 0-48.5 9T741 382.5Q722 399 710 421t-15 46q-2 8-4 12l-22 51q-10 22-6.5 45.5T680 619q13 16 31.5 25t38.5 9h10q7 7 23 19v14l-49 19q-3 1-9 5-15-28-40-45l-64-44q0-14-9-21l-26-23q-3-2-9-4v-30q21-15 35-37t18-48h2q21 0 35.5-15t14.5-36q0-17-11-31l11-75q5-40-19.5-72.5T598 190l-2-1q-13-21-32.5-35.5T521 132l-4-1q-32-9-64.5-4T393 151q-5 3-6.5 9t2.5 11q4 5 9.5 6.5T409 175q21-15 47.5-19t52.5 3l4 1q20 6 35.5 19t25.5 31q14 25 12 54l-10-9q-7-6-15.5-6t-16.5 6l-13 10h-74q-36 0-62 26t-26 62v4q-7 0-11 1-12-35-9-72.5t22-69.5q3-5 1.5-11t-6.5-9q-5-3-11-1.5t-9 6.5q-22 39-26 84.5t12 87.5q-13 15-13 35t15 35q15 15 36 15h1q4 26 18 48t35 37v30q-6 2-8 4l-26 23q-10 7-10 21l-64 44q-20 14-32 33-12-6-18-8l-43-15v-12q17-11 28-27t14-36h7q19 0 32.5-14t13.5-32q0-18-11-31l3-31q2-33-11.5-63.5t-41-49.5q-27.5-19-60-23t-63.5 9l-29 12q-35 8-54.5 36.5T36 476l6 47q-11 13-11 31t14 32q14 14 33 14h6q6 38 38 60v15l-43 15q-6 2-18 8-5 3-7 9t1.5 12q3.5 6 12.5 6 5 0 7-1 8-5 14-6l37-14q6 14 18.5 22.5T172 735q15 0 28-8.5t19-22.5l37 14q6 1 14 6-9 21-9 47v87q0 6 4 10t11 4q7 0 10.5-4t3.5-10v-87q0-25 11.5-46.5T333 689l61-42 25 34q4 5 10 8t12 3q6 0 9-1l36-11v184q0 6 4.5 10t10.5 4q6 0 10-4t4-10V680l37 11q2 1 8 1t12-3q6-3 10-8l25-34 61 42q20 14 31.5 35.5T711 771v87q0 6 4.5 10t10.5 4q6 0 10-4t4-10v-87q0-19-4-34l9-5 43-17q5 13 17 20.5t26 7.5q14 0 25.5-7.5T874 715l42 17q20 8 32 26t12 40v25q0 6 4.5 10t10.5 4q6 0 10.5-4t4.5-10v-25q0-31-17.5-56.5T927 705zM348 407q0-8 6.5-14.5T369 386v43q-8 0-14.5-6.5T348 407zm-76 164h-6v-35h6q7 0 12 5t5 12q0 7-5 12.5t-12 5.5zM60 553q0-7 5.5-12t12.5-5h5v35h-5q-7 0-12.5-5.5T60 553zm41-91q-15 19-18 45H70l-5-35q-4-23 10-42t37-24q1-1 3-1l30-13q24-10 49.5-7t46 18q20.5 15 31 38t8.5 49l-1 17h-13q-1-10-8-16t-16-6h-37q-19 0-37.5-6.5T134 460l-5-3q-5-4-14.5-3t-13.5 8zm23 17zm-12 38q0-15 8-31 18 13 40 20.5t45 7.5h32v71q0 25-18 43.5T175 647q-26 0-44.5-18.5T112 585v-68zm60 189q-8 0-14-6.5t-6-14.5v-11q11 3 23 3 6 0 18-2v10q0 8-6 14.5t-15 6.5zm460-277v-43q8 0 14.5 6.5T653 407q0 8-6.5 15t-14.5 7zm21-132l-9 61q-4-1-12-1v-1q0-35-21-66 9-34 0-67 21 10 33 30.5t9 43.5zM399 437v-84q0-24 17-41t41-17h79q4 0 10-4l14-11 13 11q14 12 21.5 29t7.5 36v81q0 42-29.5 72T501 539q-28 0-51-14t-37-37q-14-23-14-51zm102 131q25 0 47-9v19l-47 23-48-23v-19q23 9 48 9zm-59 95l-32-43 23-19 53 26v22l-44 14zm117 0l-44-14v-22l53-26 23 19-32 43zm145-62q-10-12-12-28t4-31l22-51q4-9 6-20 5-40 36-66.5t71.5-26.5q40.5 0 71.5 26.5t37 66.5q2 11 6 20l22 51q6 15 4 30.5T960 601q-15 19-39 22 4-12 6-26 1-6-3-10.5t-10-5q-6-.5-10.5 3.5t-5.5 10q-2 26-21.5 43.5t-46 17.5q-26.5 0-45.5-19.5T766 589v-70q0-25 13-44 28 22 66 24l53 1v34q0 6 4.5 10t10.5 4q6 0 10.5-4t4.5-10v-38q0-11-7-18t-18-7l-57-2q-28 0-52-19l-3-3q-9-5-16.5-4.5T760 450q-24 32-24 69v70q0 16 7 34-26-3-39-22zm127 113q-7 0-13-6t-6-13v-12h2q12 2 17.5 2t15.5-2h2v12q0 8-5.5 13.5T831 714zM31 743q-5-2-11 0t-8 7Q0 774 0 801v47q0 6 4.5 10.5T15 863q6 0 10-4.5t4-10.5v-47q0-20 9-38 3-6 1-11.5t-8-8.5z"/></svg>