<svg viewBox="0 0 1244 1083.753" xmlns="http://www.w3.org/2000/svg"><path d="M953 235q-15 0-27.5 9T909 267h-68q-4-14-16.5-23t-27.5-9h-78q0-20-13.5-33.5T673 188l-454-15v-16q0-20-13.5-33.5T172 110h-31q-19 0-33 13.5T94 159q-43 8-70 56-25 44-24 102 1 61 30 105 26 38 64 46 0 22 14 35.5t33 13.5h31q20 0 33.5-14t13.5-33v-16l142-5-168 411h-37q-6 0-10.5 4.5T141 876q0 7 4.5 11.5T156 892h594q7 0 11.5-4.5T766 876q0-7-4.5-11.5T750 860h-36L543 443l130-4q19 0 32.5-13.5T719 392h78q15 0 27.5-9t16.5-23h68q4 14 16.5 23t27.5 9q20 0 33.5-14t13.5-33v-63q0-20-13.5-33.5T953 235zM31 313q0-44 18-78.5T94 191v245q-27-9-45-44t-18-79zm157 157q0 6-4.5 10.5T172 485h-31q-7 0-11.5-4.5T125 470V157q0-6 4.5-10.5T141 142h31q7 0 11.5 4.5T188 157v313zm312 125l102 265H500V595zm0-176q1 16-8 29.5T468 467q-15 5-29.5.5t-23.5-17q-9-12.5-9-27.5 0-19 14-33t32.5-14q18.5 0 32.5 12.5t15 30.5zm-94 441H304l102-265v265zm-180 0l162-394q7 11 18 19v23L271 860h-45zm212 0V499q16 3 31 0v361h-31zm198 0L500 508v-23q11-8 18-19l162 394h-44zm52-467q0 6-4.5 10.5T672 408l-141 5q-4-29-26.5-48.5T453 345q-29 0-51.5 20T376 414l-2 3-155 5V205l453 14q7 0 11.5 4.5T688 234v159zm109-33h-78v-93h78q7 0 11.5 4.5T813 282v63q0 6-4.5 10.5T797 360zm47-62h62v31h-62v-31zm125 47q0 6-4.5 10.5T953 360q-7 0-11-4.5t-4-10.5v-63q0-6 4.5-10.5T953 267q6 0 11 4.5t5 10.5v63z"/></svg>