<svg viewBox="0 0 1244 1083.753" xmlns="http://www.w3.org/2000/svg"><path d="M686 89q-64-4-129 15-59 18-115 52-65 41-115 102-53 63-78 135-28 77-19 152 6 56 35.5 104.5t77 79.5Q390 760 446 767q90 10 182-27 88-36 153-105 62-61 96-137.5T911 344q1-65-27-122t-79-92q-53-37-119-41zm-56 607l-51-51 91-92 69 69q-48 45-109 74zm-288-16l108-108 73 73-81 82q-58-11-100-47zm-72-130l79-79 74 73-109 108q-35-44-44-102zm16-142l36 35-53 53q1-43 17-88zm91 35l91-90 73 72-91 91-73-73zm174 230l39 39q-48 16-96 18l57-57zm0-56l-73-73 91-91 73 73-91 91zm46-192l89-89 73 73-89 89-73-73zm-28-27l-74-73 90-90 73 73-89 90zm44-191l78-78q61 8 104 42L686 281l-73-74zm-28-27l-33-33q42-14 85-19l-52 52zm-122 9q22-14 50-27l45 45-90 90-64-63q26-25 59-45zm-87 72l64 64-91 91-47-47q28-59 74-108zm391 333l-69-68 89-89 51 51q-26 56-71 106zm87-145l-40-40 58-57q-1 47-18 97zm15-150l-82 82-73-73 109-109 1 1q36 43 45 99zm93-121q-3-7-10.5-10t-15 1q-7.5 4-10 11.5T928 195q35 70 31 158.5T913 528q-44 89-116.5 156.5T634 787q-94 35-192 29-83-5-137 4-74 13-124 57l-59-59q28-33 42-77 12-36 16-84 2-29 2-88v-15q0-139 61-253 63-115 180-188 46-28 97-46.5T621 42q55-6 105.5 3.5T818 79q8 4 15.5 2t11.5-9q4-7 2-15t-9-12Q790 18 734 7.5T617 4Q504 16 402 80q-125 78-192 201.5T143 554v28q1 58-2 84-3 42-16 74-15 36-46 67L7 879q-5 5-5 13.5t5.5 14Q13 912 21 912t14-6l60-60 58 58-64 64q-6 5-6 13.5t6 14q6 5.5 14 5.5t14-6l77-77q45-45 115-59 51-9 130-4 103 11 206-29 97-37 177-112t126-169q46-94 50-191t-36-176zm-84-54q3 7 10.5 10t15 0q7.5-3 10.5-10.5t0-14.5q-3-7-10.5-10.5T889 98q-7 3-10.5 10.5T878 124z"/></svg>