<svg viewBox="0 0 1244 1083.753" xmlns="http://www.w3.org/2000/svg"><path d="M854 147Q783 76 691.5 38.5T500 1Q400 1 308.5 38.5T146 147Q75 218 37.5 309.5T0 501q0 100 37.5 191.5T146 855q71 71 162.5 108.5T500 1001q100 0 191.5-37.5t162.5-108q71-70.5 108.5-162t37.5-192q0-100.5-37.5-192T854 147zM500 967q-126 0-235-64-105-62-167-167-63-109-63-235t63-235q62-105 167-167 109-64 235-64 106 0 203 47-8 1-13.5 6.5T684 102q0 8 6 14t14 6q8 0 14-6t6-13.5q0-7.5-3-11.5 87 48 148 126-39-7-84-18l-12-3q-65-14-103-20-62-9-127-9-90 0-168 46-76 44-120 120-46 78-46 168t46 168q44 76 120 120 78 46 168 46 68 0 132-10 38-6 106-22l32-7q37-9 56-12-65 85-160 133-99 50-209 50zm277-198q-2 0-5 1-65 15-102 21-62 9-127 9-81 0-151-41-67-40-107-107-41-70-41-151t41-151q40-67 107-107 70-41 151-41 65 0 127 9 37 6 102 21l5 1q71 17 119 24 70 113 70 244t-70 244q-48 7-119 24z"/></svg>