<svg viewBox="0 0 1244 1083.753" xmlns="http://www.w3.org/2000/svg"><path d="M750 199q-6 0-6 6.5t6 6.5q6 0 6-6 0-3-2-5t-4-2zm0 40q-6 0-6 6t6 6q6 0 6-6t-6-6zm0 39q-6 0-6 6t6 6q6 0 6-6 0-2-2-4t-4-2zm0 39q-6 0-6 6t6 6q6 0 6-6 0-2-2-4t-4-2zm0 39q-6 0-6 6t6 6q6 0 6-6 0-2-2-4t-4-2zm0 39q-6 0-6 6t6 6q6 0 6-6 0-2-2-4t-4-2zm0 39q-6 0-6 6t6 6q6 0 6-6 0-2-2-4t-4-2zm0 39q-6 0-6 6t6 6q6 0 6-6 0-2-2-4t-4-2zm0 39q-6 0-6 6t6 6q6 0 6-6 0-2-2-4t-4-2zm0 39q-6 0-6 6t6 6q6 0 6-6 0-2-2-4t-4-2zm0 39q-6 0-6 6t6 6q6 0 6-6 0-2-2-4t-4-2zm0 39q-6 0-6 6t6 6q6 0 6-6 0-2-2-4t-4-2zm0 39q-6 0-6 6t6 6q6 0 6-6 0-2-2-4t-4-2zm0 39q-6 0-6 6t6 6q6 0 6-6 0-2-2-4t-4-2zm0 39q-6 0-6 6t6 6q6 0 6-6 0-2-2-4t-4-2zm0 39q-6 0-6 6 0 3 1.5 5t4.5 2q6 0 6-7 0-2-2-4t-4-2zm0 39q-6 0-6 6.5t6 6.5q6 0 6-6 0-3-2-5t-4-2zm0 40q-6 0-6 6t6 6q6 0 6-6t-6-6zm0 39q-6 0-6 6t6 6q6 0 6-6t-6-6zm0 39q-6 0-6 6t6 6q6 0 6-6t-6-6zm-19-763q-2 0-4 2t-2 4q0 2 2 4t4 2q6 0 6-6t-6-6zm0 39q-2 0-4 2t-2 4q0 2 2 4t4 2q6 0 6-6t-6-6zm0 39q-2 0-4 2t-2 4q0 2 2 4t4 2q6 0 6-6 0-2-2-4t-4-2zm0 39q-2 0-4 2t-2 4q0 2 2 4.5t4 2.5q2 0 4-2t2-4.5q0-2.5-2-4.5t-4-2zm0 39q-2 0-4 2t-2 5q0 6 6 6 2 0 4-2t2-4.5q0-2.5-2-4.5t-4-2zm0 40q-6 0-6 6t6 6q2 0 4-2t2-4q0-6-6-6zm0 39q-6 0-6 6t6 6q2 0 4-2t2-4q0-6-6-6zm0 39q-6 0-6 6t6 6q2 0 4-2t2-4q0-6-6-6zm0 39q-6 0-6 6t6 6q2 0 4-2t2-4q0-6-6-6zm0 39q-6 0-6 6t6 6q2 0 4-2t2-4q0-6-6-6zm0 39q-2 0-4 2t-2 4q0 2 2 4t4 2q2 0 4-2t2-4q0-2-2-4t-4-2zm0 39q-2 0-4 2t-2 4q0 2 2 4t4 2q2 0 4-2t2-4q0-2-2-4t-4-2zm0 39q-2 0-4 2t-2 4q0 2 2 4t4 2q2 0 4-2t2-4q0-2-2-4t-4-2zm0 39q-2 0-4 2t-2 4q0 2 2 4t4 2q2 0 4-2t2-4q0-2-2-4t-4-2zm0 39q-2 0-4 2t-2 4q0 2 2 4t4 2q2 0 4-2t2-4q0-2-2-4t-4-2zm0 39q-2 0-4 2t-2 4q0 2 2 4t4 2q6 0 6-6 0-2-2-4t-4-2zm0 39q-2 0-4 2t-2 4q0 2 2 4t4 2q6 0 6-6 0-2-2-4t-4-2zm0 39q-2 0-4 2t-2 4q0 2 2 4t4 2q6 0 6-6 0-2-2-4t-4-2zm0 39q-2 0-4 2t-2 4q0 2 2 4.5t4 2.5q2 0 4-2t2-4.5q0-2.5-2-4.5t-4-2zm0 39q-2 0-4 2t-2 5q0 6 6 6 2 0 4-2t2-4.5q0-2.5-2-4.5t-4-2zm0 40q-6 0-6 6t6 6q2 0 4-2t2-4q0-6-6-6zm-59-762q-6 0-6 6.5t6 6.5q6 0 6-6 0-3-2-5t-4-2zm0 40q-6 0-6 6t6 6q6 0 6-6t-6-6zm0 39q-6 0-6 6t6 6q6 0 6-6 0-2-2-4t-4-2zm0 39q-6 0-6 6t6 6q6 0 6-6 0-2-2-4t-4-2zm0 39q-6 0-6 6t6 6q6 0 6-6 0-2-2-4t-4-2zm0 39q-6 0-6 6t6 6q6 0 6-6 0-2-2-4t-4-2zm0 39q-6 0-6 6t6 6q6 0 6-6 0-2-2-4t-4-2zm0 39q-6 0-6 6t6 6q6 0 6-6 0-2-2-4t-4-2zm0 39q-6 0-6 6t6 6q6 0 6-6 0-2-2-4t-4-2zm0 39q-6 0-6 6t6 6q6 0 6-6 0-2-2-4t-4-2zm0 39q-6 0-6 6t6 6q6 0 6-6 0-2-2-4t-4-2zm0 39q-6 0-6 6t6 6q6 0 6-6 0-2-2-4t-4-2zm0 39q-6 0-6 6t6 6q6 0 6-6 0-2-2-4t-4-2zm0 39q-6 0-6 6t6 6q6 0 6-6 0-2-2-4t-4-2zm0 39q-6 0-6 6t6 6q6 0 6-6 0-2-2-4t-4-2zm0 39q-6 0-6 6 0 3 1.5 5t4.5 2q6 0 6-7 0-2-2-4t-4-2zm0 39q-6 0-6 6.5t6 6.5q6 0 6-6 0-3-2-5t-4-2zm0 40q-6 0-6 6t6 6q6 0 6-6t-6-6zm0 39q-6 0-6 6t6 6q6 0 6-6t-6-6zm0 39q-6 0-6 6t6 6q6 0 6-6t-6-6zm-19-763q-6 0-6 6t6 6q6 0 6-6t-6-6zm-20 20q-3 0-5 2t-2 5q0 6 6.5 6t6.5-6q0-3-2-5t-4-2zm20 19q-6 0-6 6t6 6q6 0 6-6t-6-6zm-20 21q-7 0-7 6t6.5 6q6.5 0 6.5-6t-6-6zm20 18q-6 0-6 6t6 6q6 0 6-6 0-2-2-4t-4-2zm-20 21q-7 0-7 6t6.5 6q6.5 0 6.5-6 0-2-2-4t-4-2zm20 18q-6 0-6 6 0 3 1.5 5t4.5 2q6 0 6-7 0-2-2-4t-4-2zm-20 21q-7 0-7 6t6.5 6q6.5 0 6.5-6 0-2-2-4t-4-2zm20 18q-6 0-6 6.5t6 6.5q6 0 6-6 0-3-2-5t-4-2zm-20 21q-7 0-7 6t6.5 6q6.5 0 6.5-6 0-2-2-4t-4-2zm20 19q-6 0-6 6t6 6q6 0 6-6t-6-6zm-20 20q-7 0-7 6t6.5 6q6.5 0 6.5-6 0-2-2-4t-4-2zm20 19q-6 0-6 6t6 6q6 0 6-6t-6-6zm-20 20q-3 0-5 2t-2 4q0 2 2 4t5 2q6 0 6-6 0-2-2-4t-4-2zm20 19q-6 0-6 6t6 6q6 0 6-6t-6-6zm-20 20q-3 0-5 2t-2 4q0 2 2 4t5 2q6 0 6-6 0-2-2-4t-4-2zm20 19q-6 0-6 6t6 6q6 0 6-6t-6-6zm-20 20q-3 0-5 2t-2 4q0 2 2 4t5 2q6 0 6-6 0-2-2-4t-4-2zm20 19q-6 0-6 6t6 6q6 0 6-6t-6-6zm-20 20q-3 0-5 2t-2 4q0 2 2 4t5 2q6 0 6-6 0-2-2-4t-4-2zm20 19q-6 0-6 6t6 6q6 0 6-6 0-2-2-4t-4-2zm-20 20q-3 0-5 2t-2 4q0 2 2 4t5 2q6 0 6-6 0-2-2-4t-4-2zm20 19q-6 0-6 6t6 6q6 0 6-6 0-2-2-4t-4-2zm-20 20q-3 0-5 2t-2 4q0 2 2 4t5 2q6 0 6-6 0-2-2-4t-4-2zm20 19q-6 0-6 6t6 6q6 0 6-6 0-2-2-4t-4-2zm-20 20q-3 0-5 2t-2 4q0 2 2 4t5 2q6 0 6-6 0-2-2-4t-4-2zm20 19q-6 0-6 6t6 6q6 0 6-6 0-2-2-4t-4-2zm-20 20q-3 0-5 2t-2 4q0 2 2 4t5 2q6 0 6-6 0-2-2-4t-4-2zm20 19q-6 0-6 6t6 6q6 0 6-6 0-2-2-4t-4-2zm-20 20q-3 0-5 2t-2 4q0 2 2 4t5 2q6 0 6-6 0-2-2-4t-4-2zm20 19q-6 0-6 6t6 6q6 0 6-6 0-2-2-4t-4-2zm-20 20q-3 0-5 2t-2 4q0 2 2 4.5t5 2.5q6 0 6-7 0-2-2-4t-4-2zm20 19q-6 0-6 6t6 6q6 0 6-6 0-2-2-4t-4-2zm-20 20q-3 0-5 2t-2 5q0 6 6.5 6t6.5-6q0-3-2-5t-4-2zm20 19q-6 0-6 6t6 6q6 0 6-6 0-2-2-4t-4-2zm-20 21q-7 0-7 6t6.5 6q6.5 0 6.5-6t-6-6zm20 18q-6 0-6 6 0 3 1.5 5t4.5 2q6 0 6-7 0-2-2-4t-4-2zm-20 21q-7 0-7 6t6.5 6q6.5 0 6.5-6t-6-6zm20 18q-6 0-6 6.5t6 6.5q6 0 6-6 0-3-2-5t-4-2zm-20 21q-7 0-7 6t6.5 6q6.5 0 6.5-6t-6-6zm20 19q-6 0-6 6t6 6q6 0 6-6t-6-6zm-39-782q-6 0-6 6t6 6q6 0 6-6t-6-6zm0 39q-6 0-6 6t6 6q6 0 6-6t-6-6zm0 39q-6 0-6 6t6 6q6 0 6-6 0-2-2-4t-4-2zm0 39q-6 0-6 6 0 3 1.5 5t4.5 2q6 0 6-7 0-2-2-4t-4-2zm0 39q-6 0-6 6.5t6 6.5q6 0 6-6 0-3-2-5t-4-2zm0 40q-6 0-6 6t6 6q6 0 6-6t-6-6zm0 39q-6 0-6 6t6 6q6 0 6-6t-6-6zm0 39q-6 0-6 6t6 6q6 0 6-6t-6-6zm0 39q-6 0-6 6t6 6q6 0 6-6t-6-6zm0 39q-6 0-6 6t6 6q6 0 6-6t-6-6zm0 39q-6 0-6 6t6 6q6 0 6-6 0-2-2-4t-4-2zm0 39q-6 0-6 6t6 6q6 0 6-6 0-2-2-4t-4-2zm0 39q-6 0-6 6t6 6q6 0 6-6 0-2-2-4t-4-2zm0 39q-6 0-6 6t6 6q6 0 6-6 0-2-2-4t-4-2zm0 39q-6 0-6 6t6 6q6 0 6-6 0-2-2-4t-4-2zm0 39q-6 0-6 6t6 6q6 0 6-6 0-2-2-4t-4-2zm0 39q-6 0-6 6t6 6q6 0 6-6 0-2-2-4t-4-2zm0 39q-6 0-6 6t6 6q6 0 6-6 0-2-2-4t-4-2zm0 39q-6 0-6 6 0 3 1.5 5t4.5 2q6 0 6-7 0-2-2-4t-4-2zm-21 21q-6 0-6 6t6 6q2 0 4.5-2t2.5-4q0-6-7-6zm21 18q-6 0-6 6.5t6 6.5q6 0 6-6 0-3-2-5t-4-2zm-21 21q-6 0-6 6t6 6q2 0 4.5-2t2.5-4q0-6-7-6zm21 19q-6 0-6 6t6 6q6 0 6-6t-6-6zm-60-58q-6 0-6 6t6 6q2 0 4-2t2-4q0-6-6-6zm21 18q-6 0-6 6.5t6 6.5q6 0 6-6 0-3-2-5t-4-2zm-21 21q-6 0-6 6t6 6q2 0 4-2t2-4q0-6-6-6zm21 19q-6 0-6 6t6 6q6 0 6-6t-6-6zm-60-58q-6 0-6 6t6 6q2 0 4-2t2-4q0-6-6-6zm21 18q-6 0-6 6.5t6 6.5q6 0 6-6 0-3-2-5t-4-2zm-21 21q-6 0-6 6t6 6q2 0 4-2t2-4q0-6-6-6zm21 19q-6 0-6 6t6 6q6 0 6-6t-6-6zm-60-58q-6 0-6 6t6 6q2 0 4-2t2-4q0-6-6-6zm21 18q-6 0-6 6.5t6 6.5q6 0 6-6 0-3-2-5t-4-2zm-21 21q-6 0-6 6t6 6q2 0 4-2t2-4q0-6-6-6zm21 19q-6 0-6 6t6 6q6 0 6-6t-6-6zm-60-58q-6 0-6 6t6 6q2 0 4-2t2-4q0-6-6-6zm21 18q-3 0-5 2t-2 5q0 6 6.5 6t6.5-6q0-3-2-5t-4-2zm-21 21q-6 0-6 6t6 6q2 0 4-2t2-4q0-6-6-6zm21 19q-7 0-7 6t6.5 6q6.5 0 6.5-6t-6-6zm-60-58q-6 0-6 6t6 6q2 0 4-2t2-4q0-6-6-6zm20 18q-2 0-4 2t-2 5q0 6 6 6 2 0 4.5-2t2.5-4.5q0-2.5-2-4.5t-5-2zm-20 21q-6 0-6 6t6 6q2 0 4-2t2-4q0-6-6-6zm20 19q-6 0-6 6t6 6q2 0 4.5-2t2.5-4q0-6-7-6zm-59-58q-6 0-6 6t6 6q2 0 4-2t2-4q0-6-6-6zm20 18q-2 0-4 2t-2 5q0 6 6 6 2 0 4-2t2-4q0-7-6-7zm-20 21q-6 0-6 6t6 6q2 0 4-2t2-4q0-6-6-6zm20 19q-6 0-6 6t6 6q2 0 4-2t2-4q0-6-6-6zm-59-58q-6 0-6 6t6 6q2 0 4-2t2-4q0-6-6-6zm20 18q-2 0-4 2t-2 5q0 6 6 6 2 0 4-2t2-4q0-7-6-7zm-20 21q-6 0-6 6t6 6q2 0 4-2t2-4q0-6-6-6zm20 19q-6 0-6 6t6 6q2 0 4-2t2-4q0-6-6-6zm-59-58q-6 0-6 6t6 6q2 0 4-2t2-4q0-6-6-6zm20 18q-2 0-4 2t-2 5q0 6 6 6 2 0 4-2t2-4q0-7-6-7zm-20 21q-6 0-6 6t6 6q2 0 4-2t2-4q0-6-6-6zm20 19q-6 0-6 6t6 6q2 0 4-2t2-4q0-6-6-6zm-59-58q-6 0-6 6t6 6q2 0 4-2t2-4q0-6-6-6zm20 18q-2 0-4 2t-2 5q0 6 6 6 2 0 4-2t2-4q0-7-6-7zm-20 21q-6 0-6 6t6 6q2 0 4-2t2-4q0-6-6-6zm20 19q-6 0-6 6t6 6q2 0 4-2t2-4q0-6-6-6zm-59-58q-6 0-6 6t6 6q2 0 4-2t2-4q0-6-6-6zm20 18q-2 0-4 2t-2 5q0 6 6 6 2 0 4-2t2-4.5q0-2.5-2-4.5t-4-2zm-20 21q-6 0-6 6t6 6q2 0 4-2t2-4q0-6-6-6zm20 19q-6 0-6 6t6 6q2 0 4-2t2-4q0-6-6-6zm-59-58q-6 0-6 6t6 6q6 0 6-6t-6-6zm20 18q-2 0-4 2t-2 5q0 6 6 6 2 0 4-2t2-4.5q0-2.5-2-4.5t-4-2zm-20 21q-6 0-6 6t6 6q6 0 6-6t-6-6zm20 19q-6 0-6 6t6 6q2 0 4-2t2-4q0-6-6-6zm-59-58q-6 0-6 6t6 6q6 0 6-6t-6-6zm20 18q-2 0-4 2t-2 5q0 6 6 6 2 0 4-2t2-4.5q0-2.5-2-4.5t-4-2zm-20 21q-6 0-6 6t6 6q6 0 6-6t-6-6zm20 19q-6 0-6 6t6 6q2 0 4-2t2-4q0-6-6-6zm-59-58q-6 0-6 6t6 6q6 0 6-6t-6-6zm20 18q-2 0-4 2t-2 5q0 6 6 6 2 0 4-2t2-4.5q0-2.5-2-4.5t-4-2zm-20 21q-6 0-6 6t6 6q6 0 6-6t-6-6zm20 19q-6 0-6 6t6 6q2 0 4-2t2-4q0-6-6-6zm-39-40q-2 0-4 2t-2 5q0 6 6 6 2 0 4-2t2-4.5q0-2.5-2-4.5t-4-2zm0 40q-6 0-6 6t6 6q2 0 4-2t2-4q0-6-6-6zM695 1H108Q77 1 54 23.5T31 78v870q0 22 15.5 37.5T84 1001h635q22 0 38-15.5t16-37.5V78q0-32-23-54.5T695 1zm-24 980h-2l-2 1q-6 3-13 3h-16q0-1-1.5-2.5T633 981q-4 0-6 4h-28q0-2-2-3t-4-1q-5 0-5 4h-28q-2-4-6.5-4t-4.5 4h-28q-2-4-6.5-4t-4.5 4h-28q-2-4-6.5-4t-4.5 4h-28q-2-4-6-4t-6 4h-27q-2-4-6-4t-6 4h-27q-2-4-6-4t-6 4h-27q-2-4-6-4t-6 4h-27q-2-4-6-4t-6 4h-27q-2-4-6-4t-6 4h-27q-2-4-6-4t-6 4h-27q-2-4-6-4t-6 4h-27q-2-4-6-4t-6 4H91q0-1-1.5-2.5T86 981q-4 0-6 4-13-1-22-10t-11-21q6-2 6-5t-2-5q-2-2-4-2v-27q2 0 4-2t2-4q0-6-6-6V169h580q2 4 5.5 4t5.5-4h28q2 4 5.5 4t5.5-4h14v10q-5 2-5 5t1.5 5q1.5 2 3.5 2v27q-5 2-5 5t1.5 5q1.5 2 3.5 2v27q-5 2-5 5t1.5 5q1.5 2 3.5 2v27q-5 2-5 5t1.5 5q1.5 2 3.5 2v28q-2 0-3.5 1.5T686 341q0 2 1.5 4t3.5 2v28q-2 0-3.5 2t-1.5 5q0 3 5 5v27q-2 0-3.5 2t-1.5 5q0 3 5 5v27q-2 0-3.5 2t-1.5 5q0 3 5 5v27q-2 0-3.5 2t-1.5 5q0 3 5 5v27q-2 0-3.5 2t-1.5 5q0 3 5 5v27q-2 0-3.5 2t-1.5 5q0 3 5 5v27q-2 0-3.5 2t-1.5 5q0 3 5 5v27q-5 2-5 6t5 6v27q-5 2-5 6t5 6v27q-5 2-5 5t1.5 5q1.5 2 3.5 2v27q-5 2-5 5t1.5 5q1.5 2 3.5 2v27q-5 2-5 5t1.5 5q1.5 2 3.5 2v27q-5 2-5 5t1.5 5q1.5 2 3.5 2v27q-5 2-5 5t1.5 5q1.5 2 3.5 2v28q-2 0-3.5 2t-1.5 4q0 2 1.5 3.5t3.5 1.5v15q0 8-3 14-2 2-2 4-6 10-15 15zm86-33q0 15-11 26t-27 11h-3q0-1-1.5-2.5T711 981q-4 0-6 4h-14q14-13 16-33 2 2 4 2t4-2q2-2 2-4 0-6-6-6-3 0-4 1v-30q2 2 4 2t4-2q2-2 2-4 0-6-6-6-3 0-4 1v-30q2 2 4 2t4-2q2-2 2-4 0-6-6-6-3 0-4 1v-30q2 2 4 2t4-2q2-2 2-4.5t-2-4.5q-2-2-4-2t-4 2v-30q2 2 4 2t4-2q2-2 2-4.5t-2-4.5q-2-2-4-2t-4 2v-30q1 1 4 1 6 0 6-6 0-2-2-4t-4-2q-2 0-4 2v-30q1 1 4 1 6 0 6-6 0-2-2-4t-4-2q-2 0-4 2v-30q1 1 4 1 6 0 6-6 0-2-2-4t-4-2q-2 0-4 2v-30q1 1 4 1 6 0 6-6 0-2-2-4t-4-2q-2 0-4 2v-30q1 1 3.5 1t4.5-2q2-2 2-4t-2-4q-2-2-4-2t-4 2v-30q1 1 3.5 1t4.5-2q2-2 2-4t-2-4q-2-2-4-2t-4 2v-30l4 1q2 0 4-2t2-4q0-2-2-4t-4-2l-4 1v-30q2 2 4 2t4-2q2-2 2-4t-2-4q-2-2-4.5-2t-3.5 1v-30q2 2 4 2t4-2q2-2 2-4t-2-4q-2-2-4.5-2t-3.5 1v-30q2 2 4 2t4-2q2-2 2-4t-2-4q-2-2-4.5-2t-3.5 1v-30q2 2 4 2t4-2q2-2 2-4t-2-4q-2-2-4.5-2t-3.5 1v-30q2 2 4 2t4-2q2-2 2-4t-2-4q-2-2-4.5-2t-3.5 1v-30q2 2 4 2t4-2q2-2 2-4t-2-4q-2-2-4.5-2t-3.5 1v-30q2 2 4 2t4-2q2-2 2-4 0-6-6-6-3 0-4 1v-30q2 2 4 2t4-2q2-2 2-4.5t-2-4.5q-2-2-4-2t-4 2v-30q2 2 4.5 2t4.5-4h28q2 4 5.5 4t5.5-4h2v779zm0-795H47V78q0-26 18-43.5T108 17h587q26 0 44 18t18 43v75zm184 161q-4 0-12 2-2-17-14.5-29.5T884 274h-30q-19 0-32.5 13.5T808 320v538q0 17 10 30l33 45q9 9 18 9 10 0 17-9l33-45q10-11 10-30V582q8 2 12 2 12 0 20-8t8-20V341q0-11-8-19t-20-8zm-28 242v302q0 13-7 21l-16 22h-42l-17-22q-7-11-7-21V439h89v117zm0-133h-89v-39h89v39zm0-82v27h-89v-48q0-12 8.5-21t21.5-9h30q12 0 20.5 9t8.5 21v21zm40 215q0 5-3.5 8.5T941 568q-5 0-8.5-3.5T929 556V341q0-5 4-8.5t8.5-3.5q4.5 0 8 3.5t3.5 8.5v215zM145 345h40q13 0 22.5-9.5T217 312v-39q0-14-9.5-23.5T185 240h-40q-13 0-22 9-10 10-10 24v39q0 14 9.5 23.5T145 345zm40-16h-42l24-25 24 24-6 1zm16-56v42l-23-22 23-23v3zm-56-17h40l6 1-24 25-25-26h3zm-17 17q0-3 2-7l26 27-26 26q-2-4-2-7v-39zm17 240h40q14 0 23-9.5t9-22.5v-40q0-14-9-23t-23-9h-40q-13 0-22.5 9t-9.5 23v40q0 13 9.5 22.5T145 513zm40-16h-41l23-23 23 22q-2 1-5 1zm16-56v44l-23-23 23-22v1zm-56-17h40q3 0 7 2l-25 25-26-26 4-1zm-17 17q0-1 1-3v-2l27 26-26 26q-2-4-2-7v-40zm17 241h40q13 0 22.5-9.5T217 649v-39q0-14-9.5-23.5T185 577h-40q-13 0-22.5 9.5T113 610v39q0 14 9.5 23.5T145 682zm-17-72q0-7 5-12t12-5h40q7 0 11.5 5t4.5 12v39q0 7-4.5 12t-11.5 5h-40q-7 0-12-5t-5-12v-39zm17 240h40q13 0 22.5-9.5T217 818v-40q0-14-9.5-23.5T185 745h-40q-13 0-22.5 9.5T113 778v40q0 13 9.5 22.5T145 850zm-17-72q0-7 5-12t12-5h40q7 0 11.5 5t4.5 12v40q0 7-4.5 11.5T185 834h-40q-7 0-12-4.5t-5-11.5v-40zm156-449h261q8 0 8-7.5t-8-7.5H284q-8 0-8 7.5t8 7.5zm0 165h261q4 0 6-2.5t2-5.5q0-3-2-5.5t-6-2.5H284q-4 0-6 2.5t-2 5.5q0 3 2 5.5t6 2.5zm0 168h261q4 0 6-2.5t2-5.5q0-3-2-5.5t-6-2.5H284q-8 0-8 8 0 3 2 5.5t6 2.5zm271 157q0-3-2.5-5.5T547 811H286q-4 0-6 2.5t-2 5.5q0 3 2 5.5t6 2.5h261q3 0 5.5-2t2.5-6z"/></svg>