<svg viewBox="0 0 1244 1083.753" xmlns="http://www.w3.org/2000/svg"><path d="M935 177q2 0 4-2t2-4q0-2-2-4t-4-2q-6 0-6 6 0 2 2 4t4 2zm0 39q2 0 4-2t2-4q0-2-2-4t-4-2q-2 0-4 2t-2 4q0 2 2 4t4 2zm0 39q2 0 4-2t2-4q0-2-2-4t-4-2q-2 0-4 2t-2 4q0 2 2 4t4 2zM896 87q-6 0-6 6 0 2 2 4t4 2q2 0 4-2t2-4q0-6-6-6zm20 18q-2 0-4 2t-2 4.5q0 2.5 2 4.5t4 2q2 0 4-2t2-5q0-6-6-6zm-20 21q-6 0-6 6t6 6q2 0 4-2t2-4q0-2-2-4t-4-2zm20 19q-6 0-6 6 0 2 2 4t4 2q2 0 4-2t2-4q0-6-6-6zm-14 26q0-6-6-6-3 0-4 1-14-42-50-68.5T760 71H614q-11-11-24-17-28-15-61-13.5T462 61q-12 6-18 10H240q-38 0-70 18.5T119.5 140Q101 172 101 210q0 41 22.5 76t60.5 51q10 5 21 16-27 75-8 136 8 25 24 48v347q0 15 7 25-2 2-2 4t2 4q2 2 4 2t3-1q6 6 14 9-3 1-3 4t2 5q2 2 4 2t4-2q2-2 2-4v-2q3 1 9 1h18v1q0 2 2 4t4 2q2 0 4-2t2-4v-1h27v1q0 2 2 4t4 2q2 0 4-2t2-4v-1h27v1q0 2 2 4t4 2q2 0 4-2t2-4v-1h27v1q0 2 2 4t4 2q2 0 4.5-2t2.5-4l-1-1h28-1v1q0 2 2 4t5 2q6 0 6-6v-1h-1 28v1q0 6 6 6t6-6v-1h27v1q0 6 6 6t6-6v-1h27v1q0 6 6 6t6-6v-1h27v1q0 6 6 6t6-6v-1h27v1q0 6 6 6t6-6v-1h27v1q0 2 2 4t4 2q2 0 4-2t2-4v-1h27v1q0 2 2 4t4 2q2 0 4-2t2-4v-1h6q19 0 32.5-14t13.5-33v-4q2 0 4-2t2-4q0-2-2-4t-4-2v-27q2 0 4-2t2-4q0-2-2-4t-4-2v-23q9-14 15-27 2 3 4.5 3t4.5-2q2-2 2-4t-2-4.5q-2-2.5-4-2.5l-1 1q12-30 12-64 0-54-30-100 2 0 3.5-1.5t1.5-3.5q0-6-6-6v-28q6 0 6-5t-6-7v-27q6 0 6-5t-6-7v-27q2 0 4-2t2-5q0-3-6-5v-27q2 0 4-2t2-5q0-3-6-5v-27q2 0 4-2t2-5q0-3-6-5v-5q0-23 18-43 0 1 2 1t4-2q2-2 2-4v-2l2-2q6-3 9-5 28-12 47.5-33.5T892 254q1 1 3.5 1t4.5-2q2-2 2-4t-2-4q-2-2-4-2 3-14 3-28 3-2 3-5.5t-3-4.5q0-16-4-28h1q2 0 4-2t2-4zM190 323q-34-15-54-45.5T116 210q0-33 17-61.5t45.5-45Q207 87 240 87h183q-42 33-74 91v1q-38 21-70 56t-56 78q-8 16-11 24-14-10-22-14zm47-3q23-41 54-74t66-53q5-5 6-8 42-77 106-110 31-16 60.5-18T583 68q24 13 38.5 38t18.5 60q4 35-4.5 73.5T607 315q-2 6-2 10 3 41-7 85t-32 85q-31 58-74.5 88.5T398 614q-46 0-93-25-74-39-93-105-22-73 25-164zm527 529q-1-1-4-1-6 0-6 6 0 2 2 4t4 2q2 0 4-2v30q-1-1-3.5-1t-4.5 2q-2 2-2 4t2 4q2 2 4 2-5 10-14 13-2-5-7-5t-5 6v2h-28q1 0 1-2t-2-4q-2-2-4-2t-4 2q-2 2-2 4v2h-28q1 0 1-2t-2-4q-2-2-4-2t-4 2q-2 2-2 4v2h-28l1-2q0-2-2-4t-4-2q-2 0-4 2t-2 4v2h-28l1-2q0-2-2-4t-4-2q-2 0-4.5 2t-2.5 4l1 2h-28l1-2q0-2-2-4t-5-2q-6 0-6 6l1 2h-28v-2q0-6-6-6t-6 6q0 2 1 2h-28v-2q0-6-6-6t-6 6q0 2 1 2h-28v-2q0-6-6-6t-6 6q0 2 1 2h-28v-2q0-6-6-6t-6 6q0 2 1 2h-28v-2q0-2-2-4t-4-2q-2 0-4 2t-2 4q0 2 1 2h-28v-2q0-2-2-4t-4-2q-2 0-4 2t-2 4v2h-27v-2q0-2-2-4t-4-2q-2 0-4 2t-2 4v2q-12-1-20.5-9.5T236 884v-6q2-2 2-4t-2-4V557q25 27 61 46 51 27 101 27 18 0 36-3-19 38-19 79 0 65 42 115t106 66q-4 1-4 6.5t6 5.5q6 0 6-6 0-2-2-4 9 2 29 4 0 6 6 6 2 0 4-2t2-4h3q16 0 24-1v1q0 2 2 4t4 2q2 0 4-2t2-4q0-2-1-3 27-5 47-14 2 4 5 4t5-2q2-2 2-4l-1-3q32-16 58-45v23zm-151 28q-49 0-91-23t-66.5-62.5Q431 752 431 706.5t24-85.5q55-19 99-77 30-10 59-10 49 0 90.5 23t66 62.5q24.5 39.5 24.5 86t-24.5 86Q745 831 703.5 854T613 877zm151-291v-1 1zm119-360q-1-3-6.5-3t-5.5 6q0 2 2 4t4.5 2q2.5 0 4.5-2-6 29-22 50-1-1-3-1t-4 2q-2 2-2 4t2 4q-7 7-11 10-1-1-4-1-6 0-6 6 0 2 1 3-13 9-23 13-18 8-30 23.5T765 381q-2-2-4.5-2t-4.5 2q-2 2-2 4t2 4q2 2 4 2t4-2v30q-1-1-3.5-1t-4.5 2q-2 2-2 4t2 4q2 2 4.5 2t3.5-1v29l-4-1q-2 0-4 2t-2 4q0 2 2 4t4.5 2q2.5 0 3.5-1v29l-4-1q-2 0-4 2t-2 4q0 2 2 4t4.5 2q2.5 0 3.5-1v30q-2-2-4-2t-4 2q-2 2-2 4 0 6 6 6 3 0 4-1v30q-2-2-4.5-2t-4.5 2q-7-7-11-10 2-2 2-4.5t-2-4.5q-2-2-4-2t-5 3l-1 1q-52-41-121-41-22 0-45 5 4-6 12-20 23-44 33.5-90t7.5-89v-1q21-39 30-80t5-79q-4-46-28-77h132q41 0 72 23v2q0 2 2 4t4 2l3-1q6 5 11 11-1 1-1 3.5t2 4.5q2 2 4 2t3-1q17 24 21 48-1-1-4-1-6 0-6 6 0 2 2 4t5 2q3 0 5-4l1 18-1 16zm33-42q-6 0-6 6 0 2 2 4t4 2q2 0 4-2t2-4q0-6-6-6zm0 39q-6 0-6 6 0 2 2 4t4 2q2 0 4-2t2-4q0-6-6-6zm0 39q-6 0-6 6 0 2 2 4t4 2q2 0 4-2t2-4q0-6-6-6zm-20 20q-2 0-4 2t-2 4q0 2 2 4t4 2q2 0 4-2t2-4q0-2-2-4t-4-2zm20 19q-6 0-6 6 0 2 2 4t4 2q2 0 4-2t2-4q0-6-6-6zm-20 20q-2 0-4 2t-2 4q0 2 2 4t4 2q2 0 4-2t2-4q0-2-2-4t-4-2zM857 60q2 0 4-2t2-4q0-2-2-4t-4-2q-6 0-6 6t6 6zm20 18q6 0 6-6t-6-6q-6 0-6 6t6 6zm-20 21q2 0 4-2t2-4q0-2-2-4t-4-2q-6 0-6 6 0 2 2 4t4 2zm20 19q6 0 6-6.5t-6-6.5q-6 0-6 6 0 3 2 5t4 2zm0 183q-6 0-6 6 0 2 2 4t4 2q2 0 4-2t2-4q0-6-6-6zm-20 20q-2 0-4 2t-2 4q0 2 2 4t4 2q2 0 4-2t2-4q0-2-2-4t-4-2zm20 19q-2 0-4 2t-2 4q0 2 2 4t4 2q2 0 4-2t2-4q0-6-6-6zm-20 20q-2 0-4 2t-2 4q0 2 2 4t4 2q2 0 4-2t2-4q0-2-2-4t-4-2zM838 78q6 0 6-6t-6-6q-2 0-4 2t-2 4q0 6 6 6zm0 262q-2 0-4 2t-2 4q0 2 2 4t4 2q2 0 4-2t2-4q0-2-2-4t-4-2zm-20 20q-2 0-4 2t-2 4q0 2 2 4t4 2q2 0 4-2t2-4q0-2-2-4t-4-2zm0 39q-2 0-4 2t-2 4q0 6 6 6t6-6q0-6-6-6zm0 39q-2 0-4 2t-2 4q0 6 6 6t6-6q0-6-6-6zm0 39q-2 0-4 2t-2 4q0 6 6 6t6-6q0-6-6-6zm0 39q-2 0-4 2t-2 4q0 2 2 4t4 2q6 0 6-6t-6-6zm0 39q-2 0-4 2t-2 4q0 2 2 4.5t4 2.5q2 0 4-2t2-5q0-6-6-6zm0 39q-2 0-4 2t-2 5q0 6 6 6 2 0 4-2t2-4q0-2-2-4.5t-4-2.5zm0 40q-6 0-6 6t6 6q2 0 4-2t2-4q0-2-2-4t-4-2zm0 39q-6 0-6 6t6 6q2 0 4-2t2-4q0-2-2-4t-4-2zm0 39q-6 0-6 6t6 6q2 0 4-2t2-4q0-2-2-4t-4-2zm0 39q-6 0-6 6t6 6q2 0 4-2t2-4q0-2-2-4t-4-2zm0 39q-6 0-6 6t6 6q2 0 4-2t2-4q0-2-2-4t-4-2zm0 39q-2 0-4 2t-2 4q0 2 2 4t4 2q2 0 4-2t2-4q0-2-2-4t-4-2zm0 39q-2 0-4 2t-2 4q0 2 2 4t4 2q2 0 4-2t2-4q0-2-2-4t-4-2zm0 39q-2 0-4 2t-2 4q0 2 2 4t4 2q2 0 4-2t2-4q0-2-2-4t-4-2zm-19-528q-2 0-4 2t-2 4q0 2 2 4t4 2q2 0 4-2t2-4q0-2-2-4t-4-2zm0 39q-2 0-4 2t-2 4q0 2 2 4t4 2q2 0 4-2t2-4q0-2-2-4t-4-2zm0 39q-2 0-4 2t-2 4q0 2 2 4t4 2q2 0 4-2t2-4q0-2-2-4t-4-2zm0 39q-2 0-4 2t-2 4q0 2 2 4t4 2q2 0 4-2t2-4q0-2-2-4t-4-2zm0 39q-2 0-4 2t-2 4q0 6 6 6t6-6q0-2-2-4t-4-2zm0 39q-2 0-4 2t-2 4q0 6 6 6t6-6q0-2-2-4t-4-2zm0 39q-2 0-4 2t-2 4q0 6 6 6t6-6q0-2-2-4t-4-2zm0 196q-6 0-6 6 0 2 2 4t4 2q2 0 4-2t2-4q0-6-6-6zm0 39q-6 0-6 6 0 2 2 4t4 2q2 0 4-2t2-4q0-6-6-6zm0 39q-2 0-4 2t-2 4q0 2 2 4t4 2q2 0 4-2t2-4q0-2-2-4t-4-2zm-20 20q-6 0-6 6t6 6q6 0 6-6 0-2-2-4t-4-2zm20 19q-2 0-4 2t-2 4q0 2 2 4t4 2q2 0 4-2t2-4q0-2-2-4t-4-2zm-20 20q-6 0-6 6t6 6q6 0 6-6t-6-6zm-19-20q-2 0-4 2t-2 4q0 2 2 4t4 2q2 0 4-2t2-4q0-2-2-4t-4-2zm-20 20q-6 0-6 6t6 6q6 0 6-6t-6-6zm20 19q-2 0-4 2t-2 4q0 2 2 4t4 2q2 0 4-2t2-4q0-2-2-4t-4-2zm-59-19q-6 0-6 6t6 6q6 0 6-6t-6-6zm20 19q-2 0-4 2t-2 4q0 2 2 4t4 2q2 0 4-2t2-4q0-2-2-4t-4-2zm-59-19q-6 0-6 6t6 6q6 0 6-6t-6-6zm20 19q-2 0-4 2t-2 4q0 2 2 4t4 2q2 0 4-2t2-4q0-2-2-4t-4-2zm-59-19q-6 0-6 6t6 6q6 0 6-6t-6-6zm20 19q-6 0-6 6t6 6q6 0 6-6 0-2-2-4t-4-2zm-60-19q-2 0-4 2t-2 4q0 2 2 4t4.5 2q2.5 0 4.5-1.5t2-4.5q0-6-7-6zm21 19q-6 0-6 6t6 6q6 0 6-6 0-2-2-4t-4-2zm-60-19q-2 0-4 2t-2 4q0 2 2 4t4 2q6 0 6-6t-6-6zm21 19q-6 0-6 6t6 6q6 0 6-6 0-2-2-4t-4-2zm-60-19q-2 0-4 2t-2 4q0 2 2 4t4 2q6 0 6-6t-6-6zm21 19q-6 0-6 6t6 6q6 0 6-6 0-2-2-4t-4-2zm-60-19q-2 0-4 2t-2 4q0 2 2 4t4 2q6 0 6-6t-6-6zm21 19q-6 0-6 6t6 6q6 0 6-6 0-2-2-4t-4-2zm-60-19q-2 0-4 2t-2 4q0 2 2 4t4 2q6 0 6-6t-6-6zm21 19q-3 0-5 2t-2 4q0 2 2 4t5 2q6 0 6-6 0-2-2-4t-4-2zm-60-19q-2 0-4 2t-2 4q0 2 2 4t4 2q6 0 6-6t-6-6zm20 19q-2 0-4 2t-2 4q0 2 2 4t4 2q2 0 4.5-2t2.5-4q0-2-2-4t-5-2zm-59-19q-2 0-4 2t-2 4q0 2 2 4t4 2q6 0 6-6t-6-6zm20 19q-2 0-4 2t-2 4q0 2 2 4t4 2q2 0 4-2t2-4q0-6-6-6zm-59-19q-2 0-4 2t-2 4q0 2 2 4t4 2q6 0 6-6t-6-6zm20 19q-2 0-4 2t-2 4q0 2 2 4t4 2q2 0 4-2t2-4q0-6-6-6zm-59-19q-2 0-4 2t-2 4q0 2 2 4t4 2q6 0 6-6t-6-6zm20 19q-2 0-4 2t-2 4q0 2 2 4t4 2q2 0 4-2t2-4q0-6-6-6zm-59-19q-2 0-4 2t-2 4q0 2 2 4t4 2q6 0 6-6t-6-6zm20 19q-2 0-4 2t-2 4q0 2 2 4t4 2q2 0 4-2t2-4q0-6-6-6zm-59-97q-2 0-4 2t-2 4q0 2 2 4t4 2q2 0 4-2t2-4q0-2-2-4t-4-2zm20 19q-2 0-4 2t-2 4q0 2 2 4t4 2q2 0 4-2t2-4q0-2-2-4t-4-2zm-20 20q-2 0-4 2t-2 4q0 2 2 4t4 2q2 0 4-2t2-4q0-2-2-4t-4-2zm20 19q-2 0-4 2t-2 4q0 2 2 4t4 2q2 0 4-2t2-4q0-2-2-4t-4-2zm-39-39q-2 0-4 2t-2 4q0 2 2 4t4 2q2 0 4-2t2-4q0-2-2-4t-4-2zm683-722q-6 0-6 6 0 2 2 4t4 2q2 0 4-2t2-4q0-2-2-4t-4-2zm0 39q-2 0-4 2t-2 4q0 2 2 4t4 2q2 0 4-2t2-4q0-2-2-4t-4-2zm0 39q-2 0-4 2t-2 4q0 2 2 4t4 2q2 0 4-2t2-4q0-2-2-4t-4-2zm-19-98q-6 0-6 6 0 2 2 4t4 2q2 0 4-2t2-4q0-6-6-6zm-20 20q-6 0-6 6 0 2 2 4t4 2q2 0 4-2t2-4q0-2-2-4t-4-2zm20 19q-6 0-6 6 0 2 2 4t4 2q2 0 4-2t2-4q0-6-6-6zm-20 20q-2 0-4 2t-2 4q0 2 2 4t4 2q2 0 4-2t2-4q0-2-2-4t-4-2zm20 19q-6 0-6 6 0 2 2 4t4 2q2 0 4-2t2-4q0-6-6-6zm-20 20q-2 0-4 2t-2 4q0 2 2 4t4 2q2 0 4-2t2-4q0-2-2-4t-4-2zm20 19q-6 0-6 6 0 2 2 4t4 2q2 0 4-2t2-4q0-6-6-6zm-20 20q-2 0-4 2t-2 4q0 2 2 4t4 2q2 0 4-2t2-4q0-2-2-4t-4-2zm-19-59q-6 0-6 6 0 2 2 4t4 2q2 0 4-2t2-4q0-6-6-6zm-20 20q-6 0-6 6t6 6q6 0 6-6 0-2-2-4t-4-2zm20 19q-6 0-6 6 0 2 2 4t4 2q2 0 4-2t2-4q0-6-6-6zm-20 20q-6 0-6 6t6 6q6 0 6-6 0-2-2-4t-4-2zm20 19q-6 0-6 6 0 2 2 4t4 2q2 0 4-2t2-4q0-6-6-6zm-20 20q-6 0-6 6t6 6q6 0 6-6 0-2-2-4t-4-2zm-19-59q-6 0-6 6 0 2 2 4t4 2q2 0 4-2t2-4q0-6-6-6zm-20 20q-6 0-6 6t6 6q6 0 6-6 0-2-2-4t-4-2zm20 19q-6 0-6 6 0 2 2 4t4 2q2 0 4-2t2-4q0-6-6-6zm-20 20q-6 0-6 6t6 6q6 0 6-6 0-2-2-4t-4-2zm20 19q-2 0-4 2t-2 4q0 2 2 4t4 2q2 0 4-2t2-4q0-2-2-4t-4-2zm-20 20q-6 0-6 6t6 6q6 0 6-6 0-2-2-4t-4-2zm0 39q-6 0-6 6t6 6q6 0 6-6t-6-6zm0 39q-6 0-6 6t6 6q6 0 6-6t-6-6zm0 39q-6 0-6 6t6 6q6 0 6-6t-6-6zm0 39q-6 0-6 6t6 6q6 0 6-6t-6-6zm0 352q-6 0-6 6t6 6q6 0 6-6 0-2-2-4t-4-2zm-19-606q-6 0-6 6 0 2 2 4t4 2q2 0 4-2t2-4q0-6-6-6zm0 39q-6 0-6 6 0 2 2 4t4 2q2 0 4-2t2-4q0-6-6-6zm0 39q-2 0-4 2t-2 4q0 2 2 4t4 2q2 0 4-2t2-4q0-2-2-4t-4-2zm0 39q-2 0-4 2t-2 4q0 2 2 4t4 2q2 0 4-2t2-4q0-2-2-4t-4-2zm0 39q-2 0-4 2t-2 4q0 2 2 4t4 2q2 0 4-2t2-4q0-2-2-4t-4-2zm0 39q-2 0-4 2t-2 4q0 2 2 4t4 2q2 0 4-2t2-4q0-2-2-4t-4-2zm0 39q-2 0-4 2t-2 4q0 2 2 4t4 2q2 0 4-2t2-4q0-2-2-4t-4-2zm0 39q-2 0-4 2t-2 4q0 6 6 6t6-6q0-2-2-4t-4-2zm0 352q-2 0-4 2t-2 4q0 2 2 4t4 2q2 0 4-2t2-4q0-2-2-4t-4-2zm-39 0q-2 0-4 2t-2 4q0 2 2 4t4 2q2 0 4-2t2-4q0-2-2-4t-4-2zm-177-19q-2 0-4 2t-2 4q0 2 2 4t4 2q2 0 4-2t2-4q0-6-6-6zm21 19q-6 0-6 6t6 6q6 0 6-6 0-2-2-4t-4-2zm-60-19q-2 0-4 2t-2 4q0 2 2 4t4 2q2 0 4-2t2-4q0-6-6-6zm21 19q-6 0-6 6t6 6q6 0 6-6 0-2-2-4t-4-2zm-60-19q-2 0-4 2t-2 4q0 2 2 4t4 2q2 0 4-2t2-4q0-6-6-6zm21 19q-3 0-5 2t-2 4q0 2 2 4t5 2q6 0 6-6 0-2-2-4t-4-2zm-60-19q-2 0-4 2t-2 4q0 2 2 4t4 2q2 0 4-2t2-4q0-6-6-6zm20 19q-2 0-4 2t-2 4q0 2 2 4t4 2q2 0 4.5-2t2.5-4q0-2-2-4t-5-2zm-59-19q-2 0-4 2t-2 4q0 2 2 4t4 2q2 0 4-2t2-4q0-2-2-4t-4-2zm20 19q-2 0-4 2t-2 4q0 2 2 4t4 2q2 0 4-2t2-4q0-6-6-6zm-59-19q-2 0-4 2t-2 4q0 2 2 4t4 2q2 0 4-2t2-4q0-2-2-4t-4-2zm20 19q-2 0-4 2t-2 4q0 2 2 4t4 2q2 0 4-2t2-4q0-6-6-6zm-59-19q-2 0-4 2t-2 4q0 2 2 4t4 2q2 0 4-2t2-4q0-2-2-4t-4-2zm20 19q-2 0-4 2t-2 4q0 2 2 4t4 2q2 0 4-2t2-4q0-6-6-6zm-39 0q-2 0-4 2t-2 4q0 2 2 4t4 2q2 0 4-2t2-4q0-6-6-6zm547-703q-6 0-6 6 0 2 2 4t4 2q2 0 4-2t2-4q0-6-6-6zm-59 59q-6 0-6 6t6 6q6 0 6-6 0-2-2-4t-4-2zM760 1H240q-57 0-105 28t-76.5 76Q30 153 30 210q0 61 33 112.5t88 76.5v485q0 32 15.5 59t42 42.5Q235 1001 267 1001h466q32 0 58.5-15.5T834 943q16-27 16-59V399q55-26 87.5-77T970 210q0-57-28.5-105T865 29Q817 1 760 1zm84 383q0-2-2-3.5t-4-1.5q-2 0-4 2t-2 4.5q0 2.5 3 4.5-1 1-1 4v490q0 27-13.5 50.5t-37 37Q760 985 733 985H267q-27 0-48-12v-2q0-2-2-4t-4-2l-4 1q-8-6-12-10 2-2 2-4t-2-4q-2-2-4-2t-4 2l-4-5q-4-6-5-9v-2q0-4-4-6-9-20-9-42V394q0-5-5-7-53-23-84.5-71T46 210q0-52 26-96.5T142.5 43Q187 17 240 17h520q37 0 73 14l-1 2q0 6 5.5 6t6.5-3q29 14 52.5 37.5T934 126q-2 0-3.5 2t-1.5 4q0 2 2 4t4 2q2 0 4-2 11 28 13 49-3 1-3 4.5t4 5.5l1 15-1 13q-4 2-4 5.5t3 5.5q-3 28-13 50-2-2-4-2t-4 2q-2 2-2 4t1.5 4q1.5 2 3.5 2-13 29-36.5 52.5T844 384zM581 574q-8-5-18-5.5t-19 3.5q-41 19-64.5 55T456 706q0 43 23.5 78.5T544 840q8 3 16 3 12 0 20.5-5.5t13.5-14q5-8.5 5-18.5V607q0-22-18-33zm2 231q0 13-10.5 19.5t-21.5.5q-37-16-58-48.5T472 706q0-38 21-70.5t58-49.5q6-2 9-2 8 0 12 4 11 6 11 19v198zm113-226q-19-11-39 0-9 5-14 14t-5 20v186q0 11 5 20t14 14q9 5 19.5 5t19.5-6q34-20 54-54t20-72.5q0-38.5-19.5-72T696 579zm-8 239q-5 4-11.5 4t-11.5-3q-11-6-11-20V613q0-14 11-20 6-3 11.5-3t11.5 3q31 19 48.5 49t17.5 64q0 34-17.5 64T688 818zM556 656l-26-12q-7-3-10 3-2 3-1 6.5t4 4.5l26 13h3q6 0 7.5-3.5t.5-7q-1-3.5-4-4.5zm0 50q0-4-2.5-6t-5.5-2h-30q-3 0-5.5 2t-2.5 6q0 4 2.5 6t5.5 2h30q3 0 5.5-2.5t2.5-5.5zm-9 39l-22 10q-3 1-4 4.5t1 7.5q2 4 7 4l25-12q3-1 4-4.5t-.5-6.5q-1.5-3-5-4t-5.5 1zm161 10l-26-12q-7-3-10 3-2 3-1 6.5t4 4.5l29 14q5 0 7-4t1-7.5q-1-3.5-4-4.5zm-25-56q-3 0-5.5 2.5T675 707q0 3 2.5 5.5t5.5 2.5h30q3 0 5.5-2t2.5-5.5q0-3.5-2.5-6T713 699h-30zm-2-30q2 0 4-1l21-10q3-1 4-4.5t-1-6.5q-3-6-10-3l-22 10q-2 2-3 5t0 6.5q1 3.5 7 3.5zM353 499q20 11 43 11 31 0 60.5-19t46.5-51q16-30 17-61.5T507.5 321Q494 295 469 281.5t-54-10q-29 3.5-55 21.5t-42 47.5Q302 370 301.5 402t13 58q13.5 26 38.5 39zm-21-150q16-29 41-45.5t52-16.5q20 0 36 9 21 11 32.5 33.5T504 379q-1 27-15 53-21 39-58.5 54.5T360 485q-21-11-32.5-33.5T317 402q1-27 15-53z"/></svg>