<svg viewBox="0 0 1244 1083.753" xmlns="http://www.w3.org/2000/svg"><path d="M912 931q2 0 4-2t2-4q0-2-2-4t-4-2q-6 0-6 6t6 6zm0 27q-6 0-6 6t6 6q6 0 6-6t-6-6zm-39-66q2 0 4-2t2-4q0-2-2-4t-4-2q-6 0-6 6t6 6zm20 6q-2 0-4 2t-2 4q0 6 6 6t6-6q0-2-2-4t-4-2zm0 39q-2 0-4 2t-2 4.5q0 2.5 2 4.5t4 2q2 0 4-2t2-4.5q0-2.5-2-4.5t-4-2zm-20-18q-6 0-6 6t6 6q6 0 6-6t-6-6zm-19-21q-2 0-4 2t-2 4q0 6 6 6t6-6q0-2-2-4t-4-2zm-20-18q-6 0-6 6t6 6q6 0 6-6t-6-6zm-19-21q-2 0-4 2t-2 4q0 6 6 6t6-6q0-2-2-4t-4-2zm-20-19q-6 0-6 6.5t6 6.5q6 0 6-7 0-2-2-4t-4-2zm-19-20q-6 0-6 6t6 6q6 0 6-6 0-2-2-4t-4-2zm97 138q-6 0-6 6t6 6q6 0 6-6t-6-6zm-39-118q-6 0-6 6.5t6 6.5q6 0 6-7 0-2-2-4t-4-2zm20 19q-2 0-4 2t-2 4q0 6 6 6t6-6q0-2-2-4t-4-2zm-59-58q-6 0-6 6t6 6q6 0 6-6 0-2-2-4t-4-2zm20 19q-2 0-4 2t-2 4q0 6 6 6t6-6q0-2-2-4t-4-2zm-59-58q-3 0-5 2t-2 4q0 6 6.5 6t6.5-6q0-2-2-4t-4-2zm20 19q-6 0-6 6t6 6q6 0 6-6 0-2-2-4t-4-2zm-60-58q-2 0-4 2t-2 4q0 6 6 6 3 0 5-1.5t2-4q0-2.5-2-4.5t-5-2zm21 19q-6 0-6 6t6 6q6 0 6-6 0-2-2-4t-4-2zm-60-58q-2 0-4 2t-2 4q0 6 6 6t6-6q0-6-6-6zm21 19q-6 0-6 6t6 6q6 0 6-6 0-2-2-4t-4-2zm-60-58q-2 0-4 2t-2 4q0 2 2 4t4 2q2 0 4-2t2-4q0-6-6-6zm21 19q-6 0-6 6t6 6q6 0 6-6 0-2-2-4t-4-2zm-60-58q-2 0-4 2t-2 4q0 2 2 4t4 2q2 0 4-2t2-4q0-6-6-6zm21 19q-3 0-5 2t-2 4q0 2 2 4t5 2q6 0 6-6 0-2-2-4t-4-2zm-60-58q-2 0-4 2t-2 4q0 2 2 4t4 2q2 0 4-2t2-4q0-6-6-6zm20 31q3 0 5-2t2-4q0-2-2-4t-5-2q-6 0-6 6 0 2 2 4t4 2zm-59-70q-2 0-4 2t-2 4q0 2 2 4t4 2q2 0 4-2t2-4q0-2-2-4t-4-2zm20 19q-6 0-6 6 0 2 2 4t4 2q2 0 4-2t2-4q0-6-6-6zm-59-58q-2 0-4 2t-2 4q0 2 2 4t4 2q2 0 4-2t2-4q0-2-2-4t-4-2zm20 19q-6 0-6 6 0 2 2 4t4 2q2 0 4-2t2-4q0-6-6-6zm-59-58q-6 0-6 6 0 2 2 4t4 2q2 0 4-2t2-4q0-6-6-6zm20 19q-6 0-6 6 0 2 2 4t4 2q2 0 4-2t2-4q0-6-6-6zm-59-58q-6 0-6 6 0 2 2 4t4 2q2 0 4-2t2-4q0-6-6-6zm20 19q-6 0-6 6 0 2 2 4t4 2q2 0 4-2t2-4q0-6-6-6zm-59-58q-6 0-6 6 0 2 2 4t4 2q2 0 4-2t2-4q0-6-6-6zm20 18q-2 0-4 2t-2 4.5q0 2.5 2 4.5t4 2q2 0 4-2t2-4q0-7-6-7zm-59-57q-6 0-6 6t6 6q6 0 6-6t-6-6zm20 18q-2 0-4 2t-2 4q0 6 6 6t6-6q0-2-2-4t-4-2zm-59-57q-6 0-6 6t6 6q6 0 6-6t-6-6zm20 18q-2 0-4 2t-2 4q0 6 6 6t6-6q0-2-2-4t-4-2zm-59-58q-6 0-6 6.5t6 6.5q6 0 6-6 0-3-2-5t-4-2zm20 19q-2 0-4 2t-2 4q0 6 6 6t6-6q0-2-2-4t-4-2zm-59-58q-6 0-6 6 0 3 1.5 5t4.5 2q6 0 6-6.5t-6-6.5zm20 19q-2 0-4 2t-2 4q0 6 6 6t6-6q0-2-2-4t-4-2zm-59-58q-6 0-6 6t6 6q6 0 6-6t-6-6zm20 19q-2 0-4 2t-2 4q0 6 6 6t6-6q0-2-2-4t-4-2zm-59-58q-3 0-5 2t-2 4q0 2 2 4t5 2q6 0 6-6t-6-6zm20 19q-6 0-6 6t6 6q6 0 6-6 0-2-2-4t-4-2zm605 645q-3 0-5 2t-2 4q0 6 6.5 6t6.5-6q0-2-2-4t-4-2zm-19-20q-6 0-6 6t6 6q6 0 6-6 0-2-2-4t-4-2zm-21-19q-2 0-4 2t-2 4q0 6 6 6 3 0 5-1.5t2-4q0-2.5-2-4.5t-5-2zm-18-20q-6 0-6 6t6 6q6 0 6-6 0-2-2-4t-4-2zm-21-19q-2 0-4 2t-2 4q0 6 6 6t6-6q0-6-6-6zm-18-20q-6 0-6 6t6 6q6 0 6-6 0-2-2-4t-4-2zm-21-19q-2 0-4 2t-2 4q0 6 6 6t6-6q0-6-6-6zm-18-20q-3 0-5 2t-2 4q0 2 2 4t5 2q6 0 6-6 0-2-2-4t-4-2zm-21-19q-2 0-4 2t-2 4q0 2 2 4t4 2q2 0 4-2t2-4q0-6-6-6zm-18-21q-2 0-4 2t-2 4q0 6 6 6t6-6q0-2-2-4t-4-2zm-21-18q-2 0-4 2t-2 4q0 2 2 4t4 2q2 0 4-2t2-4q0-6-6-6zm-19-20q-6 0-6 6 0 2 2 4t4 2q2 0 4-2t2-4q0-6-6-6zm-20-19q-2 0-4 2t-2 4q0 2 2 4t4 2q2 0 4-2t2-4q0-2-2-4t-4-2zm-19-20q-6 0-6 6 0 2 2 4t4 2q2 0 4-2t2-4q0-6-6-6zm-20-19q-2 0-4 2t-2 4q0 2 2 4t4 2q2 0 4-2t2-4q0-2-2-4t-4-2zm-19-20q-6 0-6 6 0 2 2 4t4 2q2 0 4-2t2-4q0-6-6-6zm-20-19q-2 0-4 2t-2 4q0 2 2 4t4 2q2 0 4-2t2-4q0-2-2-4t-4-2zm-19-20q-6 0-6 6 0 2 2 4t4 2q2 0 4-2t2-4q0-6-6-6zm-20-19q-6 0-6 6 0 2 2 4t4 2q2 0 4-2t2-4q0-6-6-6zm-19-20q-6 0-6 6 0 2 2 4t4 2q2 0 4-2t2-4q0-6-6-6zm-20-19q-6 0-6 6 0 2 2 4t4 2q2 0 4-2t2-4q0-6-6-6zm-19-21q-2 0-4 2t-2 4.5q0 2.5 2 4.5t4 2q2 0 4-2t2-4.5q0-2.5-2-4.5t-4-2zm579 512L416 393q-2-22-14-39l42-42q18-18 18-44t-18-44l-5-5h7q27 0 45-18l3-2q10-11 13-25.5t-1.5-30.5q-4.5-16-17.5-29t-30-18q-3 0-7-2-27-6-41-17-11-9-21-23-5-9-14-24v-1q-6-14-11-19-6-8-13.5-9t-16 6.5Q326 15 315 32q-16 24-11 52l-11-11q-18-18-43.5-18T206 73l-48 48q-19-6-39-1.5T83 138l-4 5q-21 22-20.5 53T81 250l203 203q22 21 50 22l509 509q17 17 40 17t41-17q18-17 18-41t-17-41zM361 36q8 17 15 27 11 16 25 27t44 20h1q2 0 6 1l2 1q13 4 22.5 13.5t13 21.5q3.5 12 1.5 22.5t-9 18.5v1q-3-25-20-40-12-9-36-19l-3-2q-25-11-36-20-29-24-37-55-4-16-1-32v-1q1-1 1-3 1 1 5 7t6 12zm-33 5q2-2 4-6 0 49 45 86 13 10 40 22l4 1q23 11 31 18 13 11 14 32 0 1 1 4l1 1q-13 6-28 4.5T412 192l-74-73q-34-43-10-78zM217 84q14-14 33-14t32 14l45 45q6 8 10 11l57 57q1 2 5 5l34 33q14 13 14 32.5T433 300l-41 42-53-53 37-38q2-2 2-5.5t-2-5.5q-2-2-5.5-2t-5.5 2l-38 38-62-63 38-37q2-2 2-5.5t-2.5-5.5q-2.5-2-6-2t-5.5 2l-37 37-31-31 37-38q2-2 2-5.5t-2-5.5q-2-2-5.5-2t-5.5 2l-38 38-21-22q-8-8-17-12l44-44zm697 889q-7 6-15 9 0-2-2-4t-4-2q-2 0-4 2t-2 5l1 2q-20 2-34-12L343 462q-1-1-4-2l-2-1q-23 0-42-17L92 238q-17-17-17.5-41.5T91 153l3-3q17-16 42-16 15 0 28 7v2q0 6 6 6 3 0 4-2l2 2 3 3 6 6q-1 1-1 3.5t2 4.5q2 2 4.5 2t3.5-2l11 12q-2 2-2 4 0 6 6 6 1 0 4-1l1-1 11 11q-2 2-2 4 0 6 6 6 3 0 4-1l11 11q-2 2-2 4 0 7 6 7 2 0 5-3l11 11q-2 2-2 4 0 6 6 6 3 0 4-1l11 11q-2 2-2 5 0 6 6 6 4 0 5-3l11 11q-2 2-2 4 0 6 6 6 3 0 4-1l11 11q-2 2-2 5 0 6 6 6 4 0 5-3l11 11q-2 2-2 4 0 6 6 6 3 0 4-1l11 11q-2 2-2 4.5t2 4.5q2 2 5 2t4-3l11 11q-2 2-2 4 0 6 6 6 3 0 4-1 11 16 11 35 0 3 2 5l512 511q12 13 12 30t-12 30z"/></svg>