<svg viewBox="0 0 1244 1083.753" xmlns="http://www.w3.org/2000/svg"><path d="M756 368q2 0 4-2t2-4q0-6-6-6-3 0-5 1.5t-2 4q0 2.5 2 4.5t5 2zm-40 0q3 0 5-2t2-4q0-6-6.5-6t-6.5 6q0 2 2 4t4 2zm21 19q2 0 4-2t2-4q0-6-6-6t-6 6q0 6 6 6zm-21 20q3 0 5-2t2-4q0-6-6.5-6t-6.5 6q0 2 2 4t4 2zm21 19q2 0 4-2t2-4q0-6-6-6t-6 6q0 6 6 6zm-21 20q3 0 5-2t2-4q0-2-2-4t-5-2q-6 0-6 6 0 2 2 4t4 2zm21 19q2 0 4-2t2-4q0-6-6-6t-6 6q0 6 6 6zm-21 20q3 0 5-2t2-4q0-2-2-4t-5-2q-6 0-6 6 0 2 2 4t4 2zm-18-137q2 0 4-2t2-4.5q0-2.5-2-4.5t-4-2q-2 0-4 2t-2 5q0 6 6 6zm0 39q2 0 4-2t2-4q0-6-6-6t-6 6q0 6 6 6zm-21 20q6 0 6-6t-6-6q-6 0-6 6 0 2 2 4t4 2zm21 19q2 0 4-2t2-4q0-6-6-6t-6 6q0 6 6 6zm-21 20q6 0 6-6t-6-6q-6 0-6 6 0 2 2 4t4 2zm21 19q2 0 4-2t2-4q0-6-6-6t-6 6q0 6 6 6zm-21 20q6 0 6-6t-6-6q-6 0-6 6 0 2 2 4t4 2zm21 19q2 0 4-2t2-4q0-6-6-6t-6 6q0 6 6 6zm-21 20q6 0 6-6t-6-6q-6 0-6 6 0 2 2 4t4 2zm21 19q2 0 4-2t2-4q0-6-6-6t-6 6q0 6 6 6zm-21 20q6 0 6-6t-6-6q-6 0-6 6 0 2 2 4t4 2zm-18-98q2 0 4-2t2-4q0-6-6-6t-6 6q0 6 6 6zm-21 20q6 0 6-6t-6-6q-6 0-6 6 0 2 2 4t4 2zm21 19q2 0 4-2t2-4q0-6-6-6t-6 6q0 6 6 6zm-21 20q6 0 6-6t-6-6q-6 0-6 6 0 2 2 4t4 2zm21 19q2 0 4-2t2-4q0-6-6-6t-6 6q0 6 6 6zm-21 20q6 0 6-6t-6-6q-6 0-6 6 0 2 2 4t4 2zm21 19q2 0 4-2t2-4q0-2-2-4t-4-2q-2 0-4 2t-2 4q0 6 6 6zm-21 20q6 0 6-6t-6-6q-6 0-6 6 0 2 2 4t4 2zm0 39q6 0 6-6t-6-6q-6 0-6 6t6 6zm-18-98q2 0 4-2t2-4q0-6-6-6-3 0-5 1.5t-2 4q0 2.5 2 4.5t5 2zm-21 20q6 0 6-6t-6-6q-6 0-6 6 0 2 2 4t4 2zm21 19q2 0 4-2t2-4q0-2-2-4t-4-2q-2 0-4.5 2t-2.5 4q0 2 2 4t5 2zm-21 20q6 0 6-6t-6-6q-6 0-6 6 0 2 2 4t4 2zm21 19q2 0 4-2t2-4q0-2-2-4t-4-2q-2 0-4.5 2t-2.5 4q0 2 2 4t5 2zm-21 20q6 0 6-6t-6-6q-6 0-6 6t6 6zm21 19q2 0 4-2t2-4q0-2-2-4t-4-2q-2 0-4.5 2t-2.5 4q0 2 2 4t5 2zm-21 20q6 0 6-6t-6-6q-6 0-6 6t6 6zm0 39q6 0 6-6t-6-6q-6 0-6 6t6 6zm-19-137q3 0 5-2t2-4q0-2-2-4t-5-2q-6 0-6 6 0 2 2 4t4 2zm0 39q3 0 5-2t2-4q0-2-2-4t-5-2q-6 0-6 6 0 2 2 4t4 2zm-20 20q6 0 6-6t-6-6q-6 0-6 6t6 6zm20 19q3 0 5-2t2-4q0-2-2-4t-5-2q-6 0-6 6 0 2 2 4t4 2zm-20 20q6 0 6-6t-6-6q-6 0-6 6t6 6zm20 19q3 0 5-2t2-4q0-2-2-4t-5-2q-6 0-6 6 0 2 2 4t4 2zm-20 20q6 0 6-6t-6-6q-6 0-6 6t6 6zm20 19q3 0 5-2t2-4q0-2-2-4t-5-2q-6 0-6 6 0 2 2 4t4 2zm-20 20q6 0 6-6t-6-6q-6 0-6 6t6 6zm-19-98q6 0 6-6t-6-6q-6 0-6 6 0 2 2 4t4 2zm118-234q2 0 4-2t2-4q0-6-6-6t-6 6q0 6 6 6zm-39 78q2 0 4-2t2-4q0-6-6-6-3 0-5 1.5t-2 4q0 2.5 2 4.5t5 2zm-60 98q6 0 6-6t-6-6q-6 0-6 6 0 2 2 4t4 2zm402-40H708q31-52 45-84 20-44 24-85 3-19 1-41 7 1 19 1 34 0 63.5-17t46.5-46.5q17-29.5 17-63.5t-17-63.5Q890 133 860.5 116T797 99q-46 0-81.5 30T672 204l-21-5q-27-4-60 5-19 6-52 21l-5 2q-28 14-34 14t-29-12l-12-5q-33-15-52-20-32-9-58-5-54 10-87 46-50 53-39 148 3 41 23 85 14 31 46 84H38q-16 0-27 11.5T0 601v263q0 16 11 27.5T38 903h924q16 0 27-11.5t11-27.5V601q0-16-11-27.5T962 562zM797 115q30 0 56 15t41 40.5q15 25.5 15 56t-15 56Q879 308 853.5 323t-56 15q-30.5 0-56-15T701 282.5q-15-25.5-15-56t15-56q15-25.5 40.5-40.5t55.5-15zM238 392q-9-93 40-141 30-29 73-36 24-4 54 5 18 5 50 20l23 10q59 33 110 33 12 0 20-1.5t10-2.5q2-1 3.5-3.5t.5-6q-1-3.5-4-5t-6 .5l-11 2q-15 1-32-1-25-3-51-14 4-1 15-6l9-4q32-16 50-22 32-10 56-5h3q12 2 20 5l-1 6q0 39 23 72-1 1-1 4 0 6 6 6h2l11 12-1 3q0 2 2 4t4 2q2 0 4-2l14 9q-3 1-3 6.5t6 5.5q6 0 6-6v-1q6 3 20 7 0 28-1 44-1 2-1 6-1-3-5-3-7 0-7 6 0 2 2 4t4.5 2q2.5 0 4.5-2-4 20-7 29-4 2-4 6l1 3q-9 31-31 69h-3q-2 0-4 2t-2 4.5q0 2.5 3 4.5l-36 60-15 27q-1-1-3-1-6 0-6 6 0 3 3 5-8 14-23 44l-12 23h-1q-3 0-5 2t-2 4.5q0 2.5 4 4.5-14 32-20 49-4 2-4 4.5t1 3.5q-3 6-10 12-2-2-4-2t-4 2q-2 2-2 4-5 3-12 1-10-1-17.5-7.5T537 745v-1q-1-5-1-9 2 3 5 3 6 0 6-6t-6-6q-3 0-5 3v-35q0 2 1.5 3.5t3.5 1.5q6 0 6-6t-5-6q-5 0-7 5 0-56-2-84-1-22-11-34t-22-12q-12 0-22 12t-11 34q-1 16-3 76l-1 61q0 13-7.5 19.5t-18 8Q427 774 417 768t-13-19h-1q-16-46-41-95-15-29-45-80l-5-9q-35-59-49-87-21-46-25-86zm746 472q0 10-6.5 16.5T962 887H38q-9 0-15.5-6.5T16 864V601q0-10 6.5-16.5T38 578h263l7 12q28 48 42 75 23 46 38 89 6 18 20.5 27t30.5 7q16-2 27.5-13t12.5-30l1-59q2-62 3-77v-1q0-14 5-22t11.5-8q6.5 0 11.5 8t6 22v1q1 15 3 77l1 59q1 19 12 30t27 13h6q15 0 28-8.5t17-25.5q17-47 42-96 16-30 46-80h263q9 0 15.5 6.5T984 601v263zM329 515q2 2 5 2t5.5-3q2.5-3 2-6.5T338 503q-22-17-37-46-11-20-17-44-4-15-4-19.5t-2.5-6.5q-2.5-2-6-1.5t-5.5 3q-2 2.5-2 5.5v3q5 26 15 49 18 44 50 69zm439-259l14 43q3 11 15.5 11t15.5-11l14-43 43-14q5-1 8-6t3-10q0-12-11-15l-43-14-14-43q-3-11-15.5-11T782 154l-14 43-43 14q-11 3-11 15 0 5 3 10t8 6l43 14zm-38-30l46-16q4-1 5-5l16-46v-1h1l16 47q0 3 5 5l46 16v1l-46 16q-5 0-5 5l-16 46h-1l-16-46q-2-5-5-5l-46-16q-1 0-1-1h1z"/></svg>