<svg viewBox="0 0 1244 1083.753" xmlns="http://www.w3.org/2000/svg"><path d="M10 780q2 16 14 27.5T52 821l69 10q16 2 30.5-6t21.5-23q22-46 41-97v29q1 66-7 146l-8 85q-2 14 8 25t25 11h536q15 0 24-11t9-25q-2-27-6-66l-2-19q-8-64-8-146l1-29q17 47 40 97 6 13 18.5 21t26.5 8h8l69-10q16-2 27.5-13.5T990 780q16-84 7-168.5T953 449l15-61q12-47 1-100-13-62-53-108-47-54-125-78T666 52q-30-17-44-34-17-17-43-17H420q-24 0-43 17-13 16-43 34-47 26-125 50T84 180q-40 46-53 108-11 53 0 100l16 61Q12 527 3 611.5T10 780zm69-321q2-4 2-12l-17-67q-8-32-2-74 9-56 41-97 41-53 116-75 81-25 132-54 35-20 52-40 8-6 18-6h159q10 0 17 6 47 53 184 93 75 23 116 76 33 41 41 97 6 42-2 74l-16 67q-2 7 1 12 33 74 42.5 154.5T958 774q-3 11-14 14l-70 9q-5 1-10-1.5t-7-7.5q-31-68-62-160l4-24q13-71 20-135 11-93-24-173-19-42-46-73l-1-1q-5-5-12-4.5t-11.5 5Q720 227 720 234t4 12q9 9 20 26 22 34 33 75 16 56 9 119-6 58-19 127l-2 11q-2 14-4 23-9 55-8 107-1 67 7 149l8 85H232q3-27 6-67l2-18q8-65 8-149 0-55-9-107l-4-23q-12-62-21-138-7-62 9-119 12-40 33-74 12-19 20-27 5-5 5-12t-5-11.5q-5-4.5-12-4.5t-12 5q-11 11-24 30-24 38-37 84-18 63-10 133 6 60 19 131l5 27q-29 88-62 160-2 5-7 8t-11 2l-69-10q-5-1-9-5t-5-9q-15-79-5.5-160T79 459zm238-25h33q7 0 12-4.5t5-11.5q0-7-5-12t-12-5h-33q-7 0-12 5t-5 12q0 7 5 11.5t12 4.5zm366-33h-33q-7 0-12 5t-5 12q0 7 5 11.5t12 4.5h33q7 0 12-4.5t5-11.5q0-7-5-12t-12-5zM411 668q-15 0-27-6.5T365 643q-4-9-14-9t-15 8q-2 4-2 8.5t2 8.5q11 20 31 31t44 11h21q28 0 52-16v39q-2 20-17 32t-35 11h-21q-14 1-26-5.5T365 743q-4-9-14-9t-15 8q-2 4-2 8.5t2 8.5q12 19 32 30.5t43 11.5h22q28 0 51-17v40q-2 20-17 32t-34 11h-22q-14 1-26-6t-20-19q-5-8-14.5-8t-14.5 8q-2 4-2 8.5t2 8.5q12 20 32.5 31t42.5 10h22q19 1 37-7.5t31-23.5q12 15 30 23.5t37 7.5h22q23 1 43-10t32-31q4-6 2-13t-8-10.5q-6-3.5-13-1.5t-10 8q-8 12-20.5 19t-25.5 6h-22q-19 1-34-11t-17-32v-40q23 17 51 17h22q23 0 43-11t32-31q4-6 2-12.5t-8-10q-6-3.5-13-1.5t-10 8q-8 11-20.5 18t-25.5 6h-22q-19 1-34-11t-17-32v-39q24 16 51 16h22q23 0 43-11t32-31q4-6 2-12.5t-8-10q-6-3.5-13-1.5t-10 8q-7 12-19.5 18.5T590 668h-22q-19 1-34-11.5T517 624v-56q0-7-4.5-12t-11.5-5q-7 0-12 4.5t-5 12.5v56q-2 20-17 32.5T433 668h-22zm-43-467q33 0 59-20 8-8 7-16t-11-13q-8-3-16 2-18 13-40 13t-40-13q-6-4-12.5-3t-11 6.5Q299 163 300 170t7 11q28 20 61 20zm264 0q33 0 61-20 6-4 7-11t-3-12.5q-4-5.5-11-6.5t-13 3q-18 13-40 13t-40-13q-5-4-12-3t-11 7q-4 6-3 12t6 11q26 20 59 20zM350 535q-53-2-94-38-5-5-5.5-11.5T254 474q4-5 11-6t12 3q72 60 146 0 5-4 12-3t11 6q4 5 3.5 11.5T444 497q-39 35-94 38zm300 0q-53-2-94-38-5-5-5.5-11.5T554 474q4-5 11-6t12 3q72 60 146 0 5-4 12-3t11 6q4 5 3.5 11.5T744 497q-39 35-94 38z"/></svg>