<svg viewBox="0 0 1244 1083.753" xmlns="http://www.w3.org/2000/svg"><path d="M640 1H360q-79 0-146 40-66 38-104 104-40 67-40 146v580q0 35 17.5 65t48 47.5Q166 1001 201 1001h339q35 0 65-17.5t47.5-47.5q17.5-30 17.5-65V757h129q35 0 65.5-17.5t48-48Q930 661 930 626V291q0-79-40-146-38-66-104-104Q719 1 640 1zm-6 870q0 39-27.5 66.5T540 965H201q-39 0-66.5-27.5T107 871v-6h527v6zm0-43H107v-48h527v48zm36-108V332q0-23 16.5-39t39.5-16q23 0 39 16t16 39v388H670zm223-94q0 34-21.5 60T818 718V332q0-38-27-65t-65-27q-38 0-65 27t-27 65v412H107V291q0-69 34-127.5T233.5 71Q292 37 360 37h280q69 0 127 34t92 92.5Q893 222 893 291v335zM219 911l73 22h5q6 0 11-3.5t7-10q2-6.5-1.5-13T302 898l-72-22q-8-2-14.5 2t-8.5 11q-2 7 1.5 13.5T219 911zm238 44q2 0 8-2l54-28q7-4 9.5-11t-1-13.5q-3.5-6.5-10.5-9t-14 1.5l-55 28q-7 3-9 10t1 14q7 10 17 10zM200 172l64 33q4 2 8 2 11 0 16-10 4-7 1.5-14t-9.5-11l-64-33q-7-3-13.5-1t-10.5 9q-4 7-1.5 14t9.5 11zm249 486l-67 22q-7 2-10.5 8.5t-2 13.5q1.5 7 6.5 10.5t11 3.5l6-1 67-22q7-2 10.5-9t1-14q-2.5-7-9-10.5T449 658zm308-531q-5 5-4.5 12.5T759 152l54 50q7 5 12 5 8 0 13.5-6t5-13.5Q843 180 838 175l-55-50q-5-5-13-4.5t-13 6.5zm-317-5h5l70-16q7-1 11.5-7.5T529 84q-2-8-8.5-11.5T507 70l-71 17q-7 2-11 8t-2.5 13q1.5 7 6.5 10.5t11 3.5zM220 608l-56-47q-5-5-12.5-4.5T139 563q-5 6-4.5 13.5T141 588l55 47q7 5 12 5 8 0 13-6t4.5-13.5Q225 613 220 608zm339-100l-63-26q-7-3-14-.5t-10 10q-3 7.5 0 14t10 9.5l63 27q2 1 7 1 11 0 16-11 3-7 .5-14t-9.5-10zm-61-216q7 5 13 5t13-5l40-41q6-5 6-12.5t-5.5-13q-5.5-5.5-13-5.5t-12.5 6l-41 40q-5 5-5 13t5 13zm-189 73q-6-5-13-4.5t-12 6.5l-43 53q-4 5-3.5 12.5t5.5 12q5 4.5 12 4.5 10 0 14-6l43-53q5-6 4-13.5t-7-11.5z"/></svg>