<svg viewBox="0 0 1244 1083.753" xmlns="http://www.w3.org/2000/svg"><path d="M488 186q7 0 11-4t4-10v-22q0-6-4-10.5t-10.5-4.5q-6.5 0-10.5 4.5t-4 10.5v22q0 6 4 10t10 4zm0 0zm238 0q7 0 11-4t4-10v-22q0-6-4-10.5t-10.5-4.5q-6.5 0-10.5 4.5t-4 10.5v22q0 6 4 10t10 4zm0 0zm-119 12q25 0 41-18 4-5 3.5-11t-5.5-10q-5-4-10.5-3.5T626 160q-8 8-18.5 8t-18.5-8q-4-4-10-4.5t-10.5 3.5q-4.5 4-5 10t3.5 11q8 8 18.5 13t21.5 5zm0 0zm224 544V198h56q20 20 47.5 20t46.5-19.5q19-19.5 19-47T981 105q-19-19-46.5-19T887 106h-57q-6-45-40-75T711 1H272q-48 0-84 36-29 30-33 69h-42Q93 86 66 86t-46.5 19Q0 124 0 151.5t19.5 47Q39 218 66 218t47-20h41v495q0 23 16 39.5t39 16.5h155q2 21 17.5 35t37.5 14h356q23 0 39.5-16.5T831 742zm103-627q15 0 26 11t11 26q0 15-11 25.5T934.5 188q-14.5 0-25.5-11t-11-25.5q0-14.5 10.5-25.5t25.5-11zm-64 23q-2 8-2 14t2 16h-39v-33h39v3zM711 30q37 0 63.5 26.5T801 120v462h-61q-6 0-10 4.5t-4 10.5q0 6 4 10t10 4h61v51H393v-51h289q6 0 10.5-4t4.5-10q0-6-4.5-10.5T682 582H393V120q0-4-1-6-1-24-12-46t-29-38h360zm-439 0h5q31 1 55.5 23t29.5 53H184q6-32 31-53.5T272 30zM66 188q-15 0-26-10.5T29 152q0-15 11-26t26-11q15 0 25.5 11t10.5 26q0 15-10.5 25.5T66 188zm64-22q2-10 2-14 0-7-2-17h233v33H130v-2zm233 32v304h-80q-6 0-10 4.5t-4 10.5q0 6 4 10.5t10 4.5h80v50H183v-50h42q6 0 10-4.5t4-10.5q0-6-4-10.5t-10-4.5h-42V198h180zM183 693v-82h180v108H209q-10 0-18-8t-8-18zm210 49v-51h408v51q0 11-7.5 19t-18.5 8H419q-11 0-18.5-8t-7.5-19zm0 0z"/></svg>