<svg viewBox="0 0 1244 1083.753" xmlns="http://www.w3.org/2000/svg"><path d="M67 868h429q7 0 12-5t5-12q0-7-5-12t-12-5H67q-14 0-24-9.5T33 801V301h750v185q0 7 5 12t12 5q7 0 11.5-5t4.5-12V184q0-36-23.5-64T733 86V51q0-21-14.5-35.5T683.5 1Q663 1 648 15.5T633 51v33h-83V51q0-21-14.5-35.5T500.5 1Q480 1 465 15.5T450 51v33h-83V51q0-21-15-35.5T316.5 1q-20.5 0-35 14.5T267 51v33h-84V51q0-21-14.5-35.5T133 1q-21 0-35.5 14.5T83 51v35q-36 6-59.5 34T0 184v617q0 28 19.5 47.5T67 868zM667 51q0-7 4.5-12t11.5-5q7 0 12 5t5 12v100q0 7-5 12t-12 5q-7 0-11.5-5t-4.5-12V51zm-184 0q0-7 5-12t12-5q7 0 12 5t5 12v100q0 7-5 12t-12 5q-7 0-12-5t-5-12V51zm-183 0q0-7 5-12t12-5q7 0 11.5 5t4.5 12v100q0 7-4.5 12t-11.5 5q-7 0-12-5t-5-12V51zm-183 0q0-7 4.5-12t11.5-5q7 0 12 5t5 12v100q0 7-5 12t-12 5q-7 0-11.5-5t-4.5-12V51zM33 184q1-23 14.5-40.5T83 120v31q0 21 15 35.5t35 14.5q20 0 35-14.5t15-35.5v-33h84v33q0 20 14.5 35t35 15q20.5 0 35.5-15t15-35v-33h83v33q0 20 15 35t35.5 15q20.5 0 35-15t14.5-35v-33h84v33q0 20 14.5 35t35 15q20.5 0 35.5-15t15-35v-31q22 6 35.5 23.5T784 184v84H34v-84h-1zm67 217v-33h33q7 0 12-5t5-12q0-7-5-12t-12-5H83q-7 0-11.5 5T67 351v50q0 7 4.5 12t11.5 5q7 0 12-5t5-12zm667 133q-63 0-117 31.5T564.5 651Q533 705 533 768t31.5 116.5q31.5 53.5 85.5 85t117 31.5q63 0 116.5-31.5t85-85Q1000 831 1000 768t-31.5-117q-31.5-54-85-85.5T767 534zm0 434q-55 0-100.5-27T594 868q-27-46-27-100t27-100q27-46 72.5-73T767 568q55 0 100.5 27t72.5 72.5q27 45.5 27 100T940 868q-27 46-73 73t-100 27zm16-207V618q0-7-4.5-12t-11.5-5q-7 0-12 5t-5 12v150q0 6 5 11l84 84q5 4 12 4t11.5-4.5Q867 858 867 851t-5-12l-79-78zM650 503q0 7 5 11.5t12 4.5q7 0 11.5-4.5T683 503v-2h9q6 0 12 3 4 2 8.5 2t8.5-2q8-5 8-15t-9-14q-13-7-28-7h-9v-34q0-25-21-41-20-14-46-6v-3q0-20-14.5-35t-35-14.5q-20.5.5-35 15T516 384v84H300v-84q0-20-14.5-34.5t-35-15Q230 334 215 349t-15 35v3q-11-4-23.5-2t-22.5 9q-10 7-15.5 17.5T133 435v33h-8q-24 0-41 17t-17 41q0 24 17 41.5t41 17.5h8v33q0 21 15 35.5t35 14.5q10 0 17-3v3q0 21 15 35.5t35 14.5q20 0 35-14.5t15-35.5v-83h217v23q0 7 4.5 11.5T533 624q7 0 12-4.5t5-11.5V384q0-5 5-12 4-4 11-4t12 4.5q5 4.5 5 11.5v117q0 7 5 12t12 5q7 0 11.5-5t4.5-12v-67q0-5 5-12 4-4 11.5-4t12 4.5Q649 427 649 434l1 69zm-525 48q-10 0-17.5-7.5t-7.5-18q0-10.5 7.5-17.5t17.5-7h8v50h-8zm142 117q0 7-5 11.5t-12 4.5q-7 0-12-4.5t-5-11.5v-84q0-7-4.5-11.5T217 568q-7 0-12 4.5t-5 11.5v34q0 7-4.5 11.5T184 634q-7 0-12-4.5t-5-11.5V434q0-7 5-11.5t12-4.5q7 0 11.5 4.5T200 434v67q0 7 5 12t12 5q7 0 11.5-5t4.5-12V384q0-7 5-11.5t12-4.5q7 0 12 5t5 11v284zm33-117v-50h217v50H300z"/></svg>