<svg viewBox="0 0 1244 1083.753" xmlns="http://www.w3.org/2000/svg"><path d="M653 550q-4-4-10-3.5t-10 5.5l-38 47q-3 3-3 9v302q0 6 4.5 10.5T607 925q6 0 10.5-4.5T622 910V613l33-43q4-4 3.5-10t-5.5-10zm306-437h-24q-7 0-10 1-2-16-13-27t-27-11h-40q-17 0-29 11.5T804 116v141H680v-50q0-26-18-44t-43-18q-25 0-43 16-8-14-22.5-21.5t-31-7.5q-16.5 0-31 8.5T469 163q-18-16-41-16-31 0-51 26-17-19-43-19t-44.5 18Q271 190 271 216v41h-76v-42q0-6-4.5-10t-10.5-4q-6 0-10.5 4t-4.5 10v299q0 4-3 7.5t-8 3.5h-39q-4 0-7.5-3.5T104 514V116q0-4 3-7t8-3h39q5 0 8 3t3 7v37q0 6 4.5 10.5T180 168q6 0 10.5-4.5T195 153v-37q0-17-12-28.5T154 76h-39q-16 0-27.5 11T75 114q-4-1-11-1H40q-16 0-28 11.5T0 153v324q0 16 12 28t28 12h24q7 0 11-1 1 16 12.5 27t27.5 11h39q17 0 29-11.5t12-28.5V373h81v90q0 54 32 97l10 14v336q0 6 4.5 10.5T333 925q6 0 10.5-4.5T348 910V569q0-2-2-6l-1-3-14-17q-26-35-26-80v-90h193q11 11 25 14-23 20-36 48t-13 58v11q0 7 4.5 11t10.5 4q6 0 10.5-4t4.5-11v-11q0-29 14-54t38-39l16-10h13q6 0 10-4.5t4-10.5q0-6-4-10t-10-4h-43q-16 0-27-11t-11-27q0-16 11-27t27-11h104q22 0 37.5 15.5T699 338v40q0 67-32 125-3 5-1 11t6.5 8.5q4.5 2.5 7.5 2.5 8 0 13-8 35-64 35-139v-5h76v141q0 17 12 28.5t29 11.5h40q16 0 27-11t13-27q3 1 10 1h24q17 0 28.5-12t11.5-28V153q0-17-11.5-28.5T959 113zM64 488H40q-4 0-7.5-3.5T29 477V153q0-5 3.5-8t7.5-3h24q4 0 7 3t3 8v324q0 5-3 8t-7 3zm331-279q0-14 10-23.5t23.5-9.5q13.5 0 23 9.5T461 209v54q0 13-9.5 23t-23 10q-13.5 0-23.5-10t-10-23v-54zm-95 7q0-14 10-23.5t23.5-9.5q13.5 0 23 9.5T366 216v39q0 13-9.5 23t-23 10q-13.5 0-23.5-10t-10-23v-39zm-105 70h84q8 14 22.5 22.5T333 317q26 0 44-18 8 12 21.5 19t29 7q15.5 0 29.5-7.5t22-19.5q-5 13-5 25 0 7 4 21H195v-58zm295-6v-86q0-14 10-23.5t23.5-9.5q13.5 0 23 9.5T556 194v62h-14q-16 0-29.5 6.5T490 280zm95-24v-49q0-14 10-23.5t23.5-9.5q13.5 0 23 9.5T651 207v49h-66zm143 88v-6q0-29-18-52h94v58h-76zm242 133q0 4-3 7.5t-8 3.5h-24q-4 0-7-3t-3-8v-71q0-6-4.5-10t-10.5-4q-6 0-10.5 4t-4.5 10v108q0 4-3 7.5t-8 3.5h-39q-4 0-7.5-3.5T834 514V116q0-4 3-7t8-3h39q5 0 8 3t3 7v228q0 6 4.5 10.5T910 359q6 0 10.5-4.5T925 344V153q0-5 3-8t7-3h24q5 0 8 3t3 8v324z"/></svg>