<svg viewBox="0 0 1244 1083.753" xmlns="http://www.w3.org/2000/svg"><path d="M67 1001h450q28 0 47-19.5t19-47.5q0-7-4.5-11.5T567 918q-7 0-12 4.5t-5 11.5q0 14-9.5 24T517 968H67q-14 0-24-10t-10-24V68q0-14 10-24t24-10h24l42 63q11 17 29.5 27t39.5 10h181q21 0 39.5-10T453 97l42-63h22q14 0 23.5 10t9.5 24q0 7 5 11.5t12 4.5q7 0 11.5-4.5T583 68q0-28-19-47.5T517 1H67Q39 1 19.5 20.5T0 68v866q0 28 19.5 47.5T67 1001zM425 79q-7 10-18 16t-24 6H202q-12 0-23-6t-18-16l-30-45h323l-29 45zm8 839q7 0 12-5t5-12q0-7-5-12t-12-5H150q-7 0-12 5t-5 12q0 7 5 12t12 5h283zm500-484h-33v-33q0-28-19.5-47.5T833 334q-16 0-33 10v-10q0-28-19.5-47t-47-19q-27.5 0-47 19.5T667 334v100H467V334q0-28-19.5-47T400 268q-28 0-47.5 19.5T333 334v10q-14-10-33-10-28 0-47.5 19.5T233 401v33h-33q-28 0-47.5 19.5T133 501q0 28 19.5 47.5T200 568h33v33q0 28 19.5 47.5T300 668q16 0 33-10v10q0 27 19.5 46.5T400 734q28 0 47.5-19.5T467 668V568h200v100q0 27 19.5 46.5t47 19.5q27.5 0 47-19.5T800 668v-10q17 10 33 10 28 0 47.5-19.5T900 601v-33h33q28 0 47.5-19.5T1000 501q0-28-19.5-47.5T933 434zM200 534q-14 0-23.5-9.5T167 501q0-14 9.5-23.5T200 468h33v66h-33zm100 100q-14 0-23.5-9.5T267 601V401q0-14 9.5-23.5T300 368q14 0 23.5 9.5T333 401v200q0 13-9.5 23T300 634zm133 34q0 14-9.5 23.5t-23 9.5q-13.5 0-23.5-10t-10-23V334q0-14 9.5-23.5T400 301q14 0 23.5 9.5T433 334v334zm34-134v-66h200v66H467zm300 134q0 14-10 23.5t-23.5 9.5q-13.5 0-23.5-10t-10-23V334q0-14 10-23.5t23.5-9.5q13.5 0 23.5 9.5t10 23.5v334zm100-67q0 14-10 23.5t-24 9.5q-14 0-23.5-9.5T800 601V401q0-14 10-23.5t23.5-9.5q13.5 0 23.5 9.5t10 23.5v200zm66-67h-33v-66h33q14 0 24 9.5t10 23.5q0 14-10 23.5t-24 9.5zM100 168q0-8-4.5-12.5t-12-4.5q-7.5 0-12 4.5T67 168v33q0 7 4.5 12t11.5 5q7 0 12-5t5-12v-33zm-17 83q-7 0-11.5 5T67 268v450q0 7 4.5 11.5T83 734q7 0 12-4.5t5-11.5V268q0-8-4.5-12.5T83 251zm429-38l38-39v210q0 7 5 12t12 5q7 0 11.5-5t4.5-12V175l39 38q5 4 12 4t11.5-4.5Q650 208 650 201t-5-12l-66-66q-5-5-12-5t-12 5l-67 66q-5 5-4.5 12t5.5 12q5 5 11.5 5t11.5-5zm110 576l-39 39V618q0-7-4.5-12t-11.5-5q-7 0-12 4.5t-5 12.5v209l-38-38q-5-5-12-5t-11.5 5q-4.5 5-4.5 12t4 12l67 67q5 4 12 4t11-4l67-67q5-5 5-12t-4.5-12q-4.5-5-11.5-5t-12 5z"/></svg>