<svg viewBox="0 0 1244 1083.753" xmlns="http://www.w3.org/2000/svg"><path d="M976 632h-2q-8-1-14 3.5t-7 11.5q-18 82-69.5 150T758 904l-74-75q-10-10-10-25v-58q0-15 10-25l110-110q35-35 35-85v-75q0-31-22.5-53.5T753 375q-10 0-17.5-7t-7.5-17v-24q0-10 7.5-17.5T753 302h100q37 38 62.5 84.5T952 485q2 8 9 12t14 2.5q7-1.5 12-8.5t3-15q-20-90-77-163.5T773.5 196Q691 153 599 149q10-21 10-49l-1-34q-1-20-15.5-34.5T558 17l-34-2q-24-1-46 8.5T440 50h-1l-60 68-241-87q-13-4-20 5L71 83q-8 6-7 15.5t9 14.5l191 133-109 121q-13 14-32 11l-48-8q-5-2-9.5-.5T58 375L6 427q-7 7-6 18 4 11 13 14l110 42 41 108q10 104 70 192 59 85 149 135 94 51 198 51 96 0 184-44 85-42 145-117 61-77 81-171 2-8-3-15t-12-8zM475 274l70 206-22 22-115-168 67-60zM115 94l22-22 213 77-60 67L115 94zm30 374l-90-35 23-23 38 6q19 4 37-2.5t31-20.5L468 77q10-11 24.5-17t29.5-6l35 2q4 0 7.5 3t4.5 8l1 35q0 15-6 29.5T548 156L232 440q-14 13-20.5 31t-3.5 37l6 38-23 24-35-91q-3-8-11-11zm291 352v99q-61-25-110.5-70T245 745l48-47q3-3 7-3h106q22 0 35-15l19-19q3-3 7.5-3t7.5 3l42 42q7 7 0 16l-66 66q-15 13-15 35zm39 113V820q0-4 3-7l67-67q14-14 14-35.5T545 676l-42-42q-14-14-35-14t-35 14l-19 19q-3 3-8 3H300q-21 0-35 14l-37 38q-18-47-24-96l45-46q8-6 6-17l-9-48q-1-8 2-17t10-15l121-109 125 183q5 8 14 9t16-6l47-47q4-4 5.5-9.5T586 479l-80-233 65-58h10q62 0 120 19t107 56h-55q-26 0-45 19t-19 45v24q0 26 19 44.5t45 18.5q15 0 26 11t11 26v75q0 34-24 57L656 693q-21 21-21 53v58q0 32 21 53l65 64q-71 27-140 27-49 0-106-15zm525-369q-1-8-8-13t-15-3q-8 2-12.5 9t-3.5 14.5q1 7.5 8 12.5t15 3.5q8-1.5 13-8.5t3-15z"/></svg>