<svg viewBox="0 0 1244 1083.753" xmlns="http://www.w3.org/2000/svg"><path d="M755 360q-7 1-11 6.5t-3 12.5l83 450q2 6 6.5 10t10.5 4h3q7-2 10.5-7.5T857 823l-83-450q-2-7-7-10.5t-12-2.5zM117 576h83q7 0 12-5t5-12q0-7-5-11.5t-12-4.5h-83q-7 0-12 4.5t-5 11.5q0 7 5 12t12 5zm150-17q0 7 4.5 12t11.5 5h334q7 0 11.5-5t4.5-12q0-7-4.5-11.5T617 543H283q-7 0-11.5 4.5T267 559zM33 476h84q7 0 11.5-5t4.5-12q0-7-4.5-11.5T117 443H33q-7 0-11.5 4.5T17 459q0 7 4.5 12t11.5 5zm567-33H200q-7 0-12 4.5t-5 11.5q0 7 5 12t12 5h400q7 0 12-5t5-12q0-7-5-11.5t-12-4.5zm324 189l-34 4-61-352 134-36q21-6 30-23 11-19 5-38l-4-17q-5-19-23-29.5t-38-5.5l-3 1-11-40q-8-24-30.5-32.5T845 67l-146 85q-12 7-18.5 18t-6.5 25v10l-111 29q-19 6-29.5 23t-5.5 38l4 16q4 16 18 26.5t31 11.5q5 0 13-2l70-19 59 325-661 68q-27 3-45 24T0 794q1 28 21 46.5T69 859h14v34q0 20 15 35t35 15h100q21 0 35.5-15t14.5-35v-34h479l8 43q3 17 17 29t32 12h66q22 0 38-18 14-17 11-41l-4-25h1q29 0 49-20.5t20-48.5v-89q0-32-23-52t-53-17zM707 195q0-9 9-14l146-86q9-4 15.5-1t9.5 11l11 40-191 51v-1zM585 315q-6 2-12.5-1.5T565 303l-4-16q-2-7 1-12.5t10-7.5l369-100q7-2 13 1.5t8 10.5l4 16q2 7-1.5 12.5T955 215L585 315zM250 893q0 7-5 11.5t-12 4.5H133q-7 0-11.5-4.5T117 893v-34h133v34zm17-67H69q-14 1-25-9.5t-12-25q-1-14.5 9-25T65 754l665-68 25 140H267zm630 77q-4 6-12 6h-66q-6 0-11-3.5t-6-9.5l-42-230-64-346 101-27 104 597q2 7-4 13zm70-113q0 15-10.5 25.5T931 826h-7l-28-158 31-3q16-1 28 9t12 27v89z"/></svg>