<svg viewBox="0 0 1244 1083.753" xmlns="http://www.w3.org/2000/svg"><path d="M123 994h688q52 0 95.5-25t69.5-68q26-43 26.5-94.5T975 709q-28-46-75-71l36-198q4-19 4-29 21-6 34.5-23.5T988 348q0-27-19-46t-46-19h-2q-13-29-23-45l-69-114 13-13q12-13 13-13 11-11 11-27.5T855 44l-31-31Q813 2 796.5 2T769 13L647 135q-11 11-11 27.5t11 27.5l31 30q11 11 27 11t27-11l17-16 48 79H441q-27 0-46 19t-19 46q0 27 19 46t46 19h388q0 7-1 10l-36 198q-29 5-282 53l-246 48q-6 2-9 6.5t-2 10.5q1 6 6 9.5t11 2.5l250-49q255-49 286-54l9-2q35 2 63 14 43 18 69 59t26 88q0 43-22 79t-59 57.5Q855 965 811 965H123q-38 0-65.5-26.5T29 874q0-35 22.5-61t56.5-31q3 0 80-15l25-5q6-2 9-6.5t1.5-10.5q-1.5-6-6-9.5T207 733l-103 20q-45 7-75 41.5T0 875q0 32 17 59.5T62 978q28 16 61 16zm588-794q-2 2-6 2t-6-2l-31-31q-6-6 0-13L790 34q3-3 7-3t6 3l31 30q2 3 2 7t-2 6L711 200zm59-17l37-38 66 108q7 11 16 30h-58l-61-100zM406 348q0-15 10.5-25.5T441 312h482q15 0 25.5 10.5T959 348q0 15-10.5 25.5T923 384H441q-14 0-24.5-10.5T406 348zm451 80q1-3 1-8l1-7h52q-2 16-4 25l-34 189q-17-6-37-9-9 0-14-1l35-189zm0 0zM736 894h-85q-6 0-10.5 4t-4.5 10.5q0 6.5 4.5 10.5t10.5 4h163q32 0 59-16t42.5-43q15.5-27 15.5-59t-15.5-59Q900 719 873 703.5T814 688q-22 0-43 8L119 822q-20 1-34 16t-14 35.5q0 20.5 14.5 35T121 923h471q6 0 10.5-4t4.5-10.5q0-6.5-4.5-10.5t-10.5-4H167q4-9 4-21 0-15-8-29h-1l557-108q-17 24-22 51-6 42 15 77 9 16 24 30zm-636-21q0-9 6.5-15t15-6q8.5 0 14.5 6t6 15q0 9-6 15t-15 6q-8 0-14.5-6.5T100 873zm802-68q0 37-26 63t-62 26q-32 0-57.5-21.5T726 819q-4-26 7-49.5t33-38q22-14.5 48-14.5 36 0 62 26t26 62zm0 0z"/></svg>