<svg viewBox="0 0 1244 1083.753" xmlns="http://www.w3.org/2000/svg"><path d="M960 761q-6 0-6 6t6 6q6 0 6-6 0-2-2-4t-4-2zm0 39h-2q-2-16-14.5-27T914 762q-17 0-30 13t-13 31q0 18 13 31t31 13h2q1 1 4.5 1t4.5-3q13-3 22-13t10-23h2q2 0 4-2t2-4q0-2-2-4t-4-2zm0 39q-6 0-6 6t6 6q6 0 6-6 0-2-2-4t-4-2zm-99-19q-2 0-4 2t-2 4q0 6 6 6t6-6q0-6-6-6zm20 19q-2 0-4 2t-2 4q0 2 2 4t4 2q2 0 4.5-2t2.5-4q0-2-2-4t-5-2zm-59-19q-2 0-4 2t-2 4q0 6 6 6t6-6q0-6-6-6zm20 19q-2 0-4 2t-2 4q0 2 2 4t4 2q2 0 4-2t2-4q0-6-6-6zm-59-19q-2 0-4 2t-2 4q0 6 6 6t6-6q0-2-2-4t-4-2zm20 19q-2 0-4 2t-2 4q0 2 2 4t4 2q2 0 4-2t2-4q0-6-6-6zm-59-19q-2 0-4 2t-2 4q0 6 6 6t6-6q0-2-2-4t-4-2zm20 19q-2 0-4 2t-2 4q0 2 2 4t4 2q2 0 4-2t2-4q0-6-6-6zm-59-19q-2 0-4 2t-2 4q0 6 6 6t6-6q0-2-2-4t-4-2zm20 19q-2 0-4 2t-2 4q0 2 2 4t4 2q2 0 4-2t2-4q0-6-6-6zm-59-19q-2 0-4 2t-2 4q0 6 6 6t6-6q0-2-2-4t-4-2zm20 19q-2 0-4 2t-2 4q0 2 2 4t4 2q2 0 4-2t2-4q0-6-6-6zm-59-19q-2 0-4 2t-2 4q0 6 6 6t6-6q0-2-2-4t-4-2zm20 19q-2 0-4 2t-2 4q0 2 2 4t4 2q2 0 4-2t2-4q0-2-2-4t-4-2zm-59-19q-6 0-6 6t6 6q6 0 6-6 0-2-2-4t-4-2zm20 19q-2 0-4 2t-2 4q0 2 2 4t4 2q2 0 4-2t2-4q0-2-2-4t-4-2zm-59-19q-6 0-6 6t6 6q6 0 6-6 0-2-2-4t-4-2zm20 19q-2 0-4 2t-2 4q0 2 2 4t4 2q2 0 4-2t2-4q0-2-2-4t-4-2zm-59-19q-6 0-6 6t6 6q6 0 6-6 0-2-2-4t-4-2zm20 19q-2 0-4 2t-2 4q0 2 2 4t4 2q2 0 4-2t2-4q0-2-2-4t-4-2zm-59-19q-6 0-6 6t6 6q6 0 6-6 0-2-2-4t-4-2zm20 19q-2 0-4 2t-2 4q0 2 2 4t4 2q2 0 4-2t2-4q0-2-2-4t-4-2zm-59-19q-3 0-5 2t-2 4q0 6 6.5 6t6.5-6q0-2-2-4t-4-2zm20 19q-6 0-6 6t6 6q6 0 6-6 0-2-2-4t-4-2zm-60-19q-2 0-4 2t-2 4q0 6 6 6 3 0 5-1.5t2-4q0-2.5-2-4.5t-5-2zm21 19q-6 0-6 6t6 6q6 0 6-6 0-2-2-4t-4-2zm-60-19q-2 0-4 2t-2 4q0 6 6 6t6-6q0-6-6-6zm21 19q-6 0-6 6t6 6q6 0 6-6 0-2-2-4t-4-2zm-60-19q-2 0-4 2t-2 4q0 6 6 6t6-6q0-6-6-6zm21 19q-6 0-6 6t6 6q6 0 6-6 0-2-2-4t-4-2zm-60-19q-2 0-4 2t-2 4q0 6 6 6t6-6q0-6-6-6zm21 19q-3 0-5 2t-2 4q0 2 2 4t5 2q6 0 6-6 0-2-2-4t-4-2zm-60-19q-2 0-4 2t-2 4q0 6 6 6t6-6q0-6-6-6zm20 19q-2 0-4 2t-2 4q0 2 2 4t4 2q2 0 4.5-2t2.5-4q0-2-2-4t-5-2zm-59-19q-2 0-4 2t-2 4q0 6 6 6t6-6q0-6-6-6zm20 19q-2 0-4 2t-2 4q0 2 2 4t4 2q2 0 4-2t2-4q0-6-6-6zm-59-19q-2 0-4 2t-2 4q0 6 6 6t6-6q0-2-2-4t-4-2zm20 19q-2 0-4 2t-2 4q0 2 2 4t4 2q2 0 4-2t2-4q0-6-6-6zm-59-19q-2 0-4 2t-2 4q0 6 6 6t6-6q0-2-2-4t-4-2zm20 19q-2 0-4 2t-2 4q0 2 2 4t4 2q2 0 4-2t2-4q0-6-6-6zm861-155q0-22-16-36-13-12-28-13l-64-482 18-18q12-11 11.5-29t-13-28.5Q896 67 880 67.5T852 79L707 225q-4 2-6 2h-66q-5-9-15-9H504q-16 0-28 12t-12 29q0 17 12 29t28 12h116q10 0 15-9h100q17 0 32-13l53-53 25 420-67 6q-18 1-30 13.5T734 694L64 719q-27 1-45.5 20T0 786q0 5 2 15v2q-2 10-2 17 0 28 19.5 47.5T67 887h1v20q0 11 8 19.5t20 8.5h33q11 0 19.5-8.5T157 907v-20h680v20q0 11 8 19.5t20 8.5h33q11 0 19.5-8.5T926 907v-20q31-3 52-26.5t22-54.5V684zM755 266q-7 8-20 8h-98v-30h64q11 0 17-8L864 91q7-7 16.5-7.5t17 6q7.5 6.5 7.5 17t-7 17.5L755 266zm80-56l42-43 63 469-79 7-26-433zm-56 457l169-15q14-2 25 7.5t11 24.5v37l-9-11q-27-23-61-22l-164 6q2-11 10-18.5t19-8.5zm166 198q0-6-6-6-2 0-4 2t-2 4l1 4q-10 2-17 2h-15q4-1 4-6.5t-6-5.5q-6 0-6 5t4 7h-35q4-1 4-6.5t-6-5.5q-6 0-6 5t4 7h-35q4-1 4-6.5t-6-5.5q-6 0-6 5t4 7h-35q4-2 4-5t-2-5q-2-2-4-2t-4 2q-2 2-2 5t4 5h-35q4-2 4-5t-2-5q-2-2-4-2t-4 2q-2 2-2 5t4 5h-35q4-2 4-5t-2-5q-2-2-4-2t-4 2q-2 2-2 5t4 5h-35q4-2 4-5t-2-5q-2-2-4-2t-4 2q-2 2-2 5t4 5h-35q4-2 4-5t-2-5q-2-2-4-2t-4 2q-2 2-2 4 0 5 4 6h-35q4-2 4-5t-2-5q-2-2-4-2t-4 2q-2 2-2 4 0 5 4 6h-35q4-2 4-5t-2-5q-2-2-4-2t-4 2q-2 2-2 4 0 5 4 6h-35q4-2 4-5t-2-5q-2-2-4-2t-4 2q-2 2-2 4 0 5 4 6h-35q4-2 4-5t-2-5q-2-2-4-2t-4 2q-2 2-2 4 0 5 4 6h-35q4-2 4-5t-2-5q-2-2-4-2t-4.5 2q-2.5 2-2.5 5t5 5h-35q4-2 4-5t-2-5q-2-2-5-2-6 0-6 5t4 7h-35q4-1 4-6.5t-6-5.5q-6 0-6 5t4 7h-35q4-1 4-6.5t-6-5.5q-6 0-6 5t4 7h-35q4-1 4-6.5t-6-5.5q-6 0-6 5t4 7h-35q4-1 4-6.5t-6-5.5q-6 0-6 5t4 7h-35q4-1 4-6.5t-6-5.5q-6 0-6 5t4 7h-35q4-2 4-5t-2-5q-2-2-4-2t-4 2q-2 2-2 5t4 5h-35q4-2 4-5t-2-5q-2-2-4-2t-4 2q-2 2-2 5t4 5H82q4-2 4-5t-2-5q-2-2-4-2t-4 2q-2 2-2 5t4 5H67q-12 0-20-4v-2q0-2-2-4t-4-2q-2 0-4 2-6-5-11-11 2-2 2-4.5t-2-4.5q-2-2-4-2h-2q-4-12-4-19 0-20 14.5-34.5T65 770l853-32q7 0 21 4-2 0-4 2t-2 4q0 2 2 4t4 2q2 0 4-2t2-4.5q0-2.5-1-3.5 11 4 19 13 11 10 16 24h-1q-2 0-4 2t-2 4q0 6 6 6 3 0 4-1 2 8 2 13.5t-2 15.5l-4-1q-2 0-4 2t-2 4q0 2 2 4t4 2q-10 22-33 33zM72 782q-16 0-27.5 11.5T33 821q0 16 11.5 27.5T72 860q13 0 25-10 1 1 3 1 6 0 6-6 0-3-1-4 6-9 6-20 0-17-11-28t-28-11z"/></svg>