<svg viewBox="0 0 1244 1083.753" xmlns="http://www.w3.org/2000/svg"><path d="M9 370l266 125q6 2 9 1l97-16q41-7 81.5 6.5T533 530l81 82q7 7 7 18t-10 18q-6 5-14 5.5t-15-4.5l-79-56q-8-6-18-5.5t-18 7.5l-58 53q-5 4-5 10t4 10.5q4 4.5 10 4.5t10-4l58-52 79 56q14 10 31 10 19 0 34-12 18-14 20-38 1-11-3-22.5T635 591l-65-65q53-12 104 4l34 12q8 2 12 2 9 0 17-5l254-147q5-3 6.5-9t-1.5-11q-3-5-9-7t-11 1L723 514q-3 2-5 0l-35-11q-33-11-68-11.5T547 502q-35-32-80-45t-91-6l-93 15L21 343q-5-2-11 0t-8.5 7.5Q-1 356 1.5 362t7.5 8zm990 275q-3-6-9-8t-11 1l-129 63q-4 2-5 4l-11 15q-17 26-47 43-1-3-5-7l-26-29q-13-16-34.5-17.5T684 722l-2 1q-16 15-18 36h-1q-21-2-37 13l-2 2q-16 13-18 36-20-3-38 12l-2 2q-16 13-18 36-21-2-38 12l-2 2q-16 15-17 37t12 36l12 14-5 5q-7 7-17 6.5t-16.5-7q-6.5-6.5-7-15.5t5.5-16q4-5 3.5-10.5T474 914q-4-4-9.5-4t-10.5 4l-2 1q-7 7-17 7t-16.5-7q-6.5-7-7-15.5T417 884q4-5 3.5-11t-4.5-10q-4-4-9.5-4t-10.5 4v1q-7 7-17.5 6.5t-17-7.5q-6.5-7-6.5-15.5t6-15.5q3-4 3-9.5t-3-9.5q-3-4-8.5-5t-9.5 1q-7 4-15 2.5t-14-8.5q-6-7-5-16.5t8-16.5l15-14 50-44q4-4 4.5-10t-3.5-10.5q-4-4.5-10-5t-11 3.5l-49 45-16 14q-11 9-16 27-39-22-70-59l-8-11q-3-3-5-4L22 616q-6-3-11.5-1T2 622.5q-3 5.5-.5 11.5t7.5 8l173 85 7 8q32 40 78 66l18 11q4 8 7 11 13 15 34 18-2 11 2 22.5t12 19.5v1q18 17 42 15 0 20 14 36h1v1q8 8 19.5 12t23.5 3q0 20 14 34 0 1 1 1 16 16 38 16t37-15l5-4q13 10 29 11h4q20 0 33-13l2-1q16-15 18-36h4q20 0 34-13l2-2q16-13 18-36 1 1 4 1 18 0 34-13l2-2q17-15 18-35v-1h4q19 0 34-12l2-2q16-15 18-37 39-20 63-55l8-12 126-61q5-2 7-8t0-11zM584 958l-2 1q-6 6-16 5t-15-7l-26-29q-7-8-5-16 2-11 7-16l2-2q8-5 15-5 9 0 17 8l25 29q6 7 5.5 16t-7.5 16zm58-51l-2 2q-7 6-16 5.5t-15-7.5l-26-30q-6-7-5.5-16t7.5-15l2-2q7-6 16.5-5.5T619 846l25 30q6 7 5.5 16t-7.5 15zm65-65q0 8-7 15l-2 2q-7 6-16.5 5.5T666 857l-25-30q-6-7-5.5-16t7.5-15l2-2q6-6 15-6h1q10 2 15 8l26 30q7 7 5 16zm51-35l-2 2q-8 6-17 5t-15-8l-25-29q-6-8-6-17t8-15l2-1q7-6 16-5.5t15 7.5l26 29q6 7 5.5 16.5T758 807zM447 411l41 15q8 2 11.5 2t11.5-2l41-15q58-22 94-66 40-48 50-103 2-6-1.5-11t-9.5-6q-6-1-11 2t-7 9q-10 50-43.5 90T541 383l-40 15q-1 1-3 0l-41-15q-58-21-93.5-72.5T328 197V70q0-5 5-7l167-32 165 32q6 1 6 7v107q0 6 4.5 10t10.5 4q6 0 10.5-4t4.5-10V70q0-13-8.5-23T671 34L503 1h-5L328 34q-13 3-21.5 13T298 70v127q0 71 41 130t108 84zm56-350h-5L369 86q-5 1-8.5 5t-3.5 9v97q0 53 30.5 97t80.5 62l26 10 5 1 3-1 29-10q50-18 80.5-62t30.5-97v-97q0-5-3.5-9t-8.5-5L503 61zm110 136q0 44-25.5 80T521 328l-22 8-21-8q-41-15-66.5-51T386 197v-85l114-22 113 22v85zm-151 28q-4-5-10-5t-10.5 5q-4.5 5-4 11t4.5 10l23 22q4 4 10 4h1q6 0 11-5l76-93q4-4 3.5-10.5T561 153q-5-4-10.5-3.5T541 155l-67 81-12-11z"/></svg>