<svg viewBox="0 0 1244 1083.753" xmlns="http://www.w3.org/2000/svg"><path d="M658 900q-6-2-11 1t-6 9q-7 28-30 46t-52 18H136q-35 0-60-24.5T51 890V115q0-35 25-60t60-25h58l5 26q5 19 19.5 31T252 99h87q6 0 10.5-4.5T354 84q0-6-4.5-10T339 70h-87q-8 0-15-6t-9-14l-4-20h246l-4 20q-1 8-8.5 14T442 70h-40q-6 0-10.5 4T387 84q0 6 4.5 10.5T402 99h40q19 0 33.5-12T495 56l5-26h59q35 0 59.5 25t24.5 60v258q0 6 4.5 10.5T658 388q6 0 10-4.5t4-10.5V115q0-31-15.5-57t-41-41.5Q590 1 559 1H136q-31 0-57 15.5T37.5 58Q22 84 22 115v775q0 31 15.5 57T79 988.5q26 15.5 57 15.5h423q39 0 69.5-24.5T669 917q1-6-2-10.5t-9-6.5zM557 288q6 0 10.5-4.5T572 273v-2q0-25-18-43t-43-18H189q-25 0-43 17.5T128 271v112q0 6 4 10.5t10.5 4.5q6.5 0 10.5-4.5t4-10.5V271q0-13 9.5-22.5T189 239h322q13 0 22.5 9.5T543 271v2q0 6 4 10.5t10 4.5zM184 634q-23 0-39.5 16T128 689q0 23 16.5 39.5T184 745q23 0 39-16.5t16-39.5q0-23-16-39t-39-16zm0 81q-11 0-18.5-7.5T158 689q0-11 7.5-18t18.5-7q11 0 18 7t7 18q0 11-7.5 18.5T184 715zm0 87q-23 0-39.5 16T128 857q0 23 16.5 39t39.5 16q23 0 39-16t16-39q0-23-16-39t-39-16zm0 81q-11 0-18.5-7.5T158 857q0-11 7.5-18.5T184 831q11 0 18 7.5t7 18.5q0 11-7.5 18.5T184 883zm201-249h-97q-7 0-11 4.5t-4 10.5q0 6 4 10.5t11 4.5h97q6 0 10.5-4.5T400 649q0-6-4.5-10.5T385 634zm51 81H288q-7 0-11 4.5t-4 10.5q0 6 4 10.5t11 4.5h148q6 0 10.5-4.5T451 730q0-6-4.5-10.5T436 715zm99 87H288q-7 0-11 4t-4 11q0 7 4 10.5t11 3.5h247q6 0 10.5-4t4.5-10q0-6-4.5-10.5T535 802zm0 81H288q-7 0-11 4.5t-4 10.5q0 6 4 10t11 4h247q6 0 10.5-4t4.5-10q0-6-4.5-10.5T535 883zm-95-469l-12-13q13-23 13-47 0-38-26.5-64.5t-64-26.5q-37.5 0-64.5 26.5T259 354q0 24 13 47l-12 13q-14 17-22 38t-8 43v32h-41q-13 0-22.5-9.5T157 495v-50q0-6-4-10t-10-4q-6 0-10.5 4t-4.5 10v50q0 25 18 43t43 18h305q6 0 10.5-4t4.5-10q0-6-4.5-10.5T494 527h-24v-32q0-22-8-43t-22-38zm-90-121q26 0 44 18t18 43q0 25-18 43.5T350.5 416q-25.5 0-44-18.5T288 354q0-25 18-43t44-18zm-91 202q0-36 23-62l9-10q25 22 59 22t59-22l9 10q23 28 23 62v32H259v-32zm440 314q-2-7-8-11t-13-3q-40 3-71-22L467 662q-8-6-9.5-16t4-18.5q5.5-8.5 15.5-11t19 2.5l76 44q5 4 11.5 3.5T595 662q5-4 6.5-10t.5-12l-37-119q-2-6-7.5-8.5t-11-.5q-5.5 2-8.5 7t-1 11l30 96-56-32q-19-11-40.5-6T437 611.5q-12 18.5-8.5 39.5t20.5 34l140 111q37 30 84 28l51 166q1 5 5 8t9 3l5-1q6-1 8.5-7t.5-11l-53-173zm281 93l-49-158q-1-2-1-7l1-8q4-53-11-105l-57-183q-7-21-26.5-31t-40.5-4q-16 6-26 18-10-10-24-13t-29.5 1q-15.5 4-26.5 19-10-9-24-12t-27 1q-9 2-21 12l-25-79q-6-21-25.5-31.5T527 318q-21 7-31.5 26.5T492 385l26 86q2 6 7.5 8.5t11 .5q5.5-2 8.5-7t1-11l-26-86q-3-10 1.5-18.5t14-11.5q9.5-3 18 1.5T565 362l63 201q2 5 7 8t11 1.5q6-1.5 9-7t1-11.5l-24-76q-3-10 1.5-18.5t14-11.5q9.5-3 18.5 1.5t12 13.5l23 77q1 4 5 7t8 3q4 0 6-1 5-2 8-7t1-11l-19-61q-3-10 1.5-18.5T726 440q10-3 18.5 1.5T756 455l19 62q1 4 5 7t8 3q4 0 5-1 6-1 9-6.5t1-11.5l-14-44q-3-9 2-18t14-12q9-3 18 1.5t12 14.5l57 182q13 45 10 95l-1 8q0 12 2 18l49 157q1 5 5 8t9 3l4-1q6-1 9-7t1-11z"/></svg>