<svg viewBox="0 0 1244 1083.753" xmlns="http://www.w3.org/2000/svg"><path d="M985 266q6 0 10.5-4.5t4.5-10.5v-69q0-22-15.5-37.5T948 129H619v-12q0-22-15.5-37.5T566 64h-5l23-41q2-5 .5-11T578 3q-5-3-11-1.5T558 9l-31 55h-54L442 9q-3-6-9-7.5T422 3q-5 3-6.5 9t1.5 11l22 41h-5q-22 0-37.5 15.5T381 117v12H53q-22 0-37.5 15.5T0 182v540q0 22 15.5 37.5T53 775h352v42q0 23-14 42l-27 33H196q-6 0-10.5 4t-4.5 10q0 6 4.5 10.5T196 921h764q5 0 8 3t3 8v29q0 4-3 7.5t-8 3.5H40q-4 0-7.5-3.5T29 961v-29q0-5 3.5-8t7.5-3h97q6 0 10-4.5t4-10.5q0-6-4-10t-10-4H40q-16 0-28 11.5T0 932v29q0 16 12 28t28 12h920q17 0 28.5-12t11.5-28v-29q0-17-11.5-28.5T960 892h-52V775h40q21 0 36.5-15.5T1000 722V315q0-6-4.5-10.5T985 300q-6 0-10 4.5t-4 10.5v328h-63v-13q0-20-14-33.5T860 583h-94q-19 0-33 13.5T719 630v13H205q-6 0-10.5 4.5T190 658q0 6 4.5 10t10.5 4h514v73H53q-10 0-17-6.5T29 722v-50h117q6 0 10-4t4-10q0-6-4-10.5t-10-4.5H29V182q0-10 7-16.5t17-6.5h895q9 0 16 6.5t7 16.5v69q0 6 4 10.5t10 4.5zM414 877q21-27 21-60v-42h131v42q0 34 21 60l11 15H402l12-15zm557-205v50q0 10-7 16.5t-16 6.5h-40v-73h63zm-223-42q0-8 5.5-13t12.5-5h94q8 0 13.5 5.5T879 630v262H748V630zm-29 262h-83l-26-33q-15-18-15-42v-42h124v117zM411 117q0-10 6.5-17t16.5-7h132q10 0 16.5 7t6.5 17v12H411v-12zm402 669q-18 0-31 13t-13 31q0 18 13 31t31 13q18 0 31-13t13-31q0-18-12.5-31T813 786zm0 59q-6 0-10.5-4.5T798 830q0-6 4.5-10.5T813 815q6 0 10.5 4.5T828 830q0 6-4.5 10.5T813 845zm-33-173h9q7 0 11-4t4-10q0-6-4-10.5t-11-4.5h-9q-6 0-10 4.5t-4 10.5q0 6 4 10t10 4zm66-29h-9q-6 0-10.5 4.5T822 658q0 6 4.5 10t10.5 4h9q6 0 10.5-4t4.5-10q0-6-4.5-10.5T846 643zm-66 74h9q7 0 11-4.5t4-10.5q0-6-4-10t-11-4h-9q-6 0-10 4t-4 10q0 6 4 10.5t10 4.5zm66-29h-9q-6 0-10.5 4t-4.5 10q0 6 4.5 10.5T837 717h9q6 0 10.5-4.5T861 702q0-6-4.5-10t-10.5-4zm-66 73h9q7 0 11-4t4-10q0-6-4-10.5t-11-4.5h-9q-6 0-10 4.5t-4 10.5q0 6 4 10t10 4zm66-29h-9q-6 0-10.5 4.5T822 747q0 6 4.5 10t10.5 4h9q6 0 10.5-4t4.5-10q0-6-4.5-10.5T846 732zM278 251q0-16-11-27t-27-11h-88q-16 0-27.5 11T113 251v89q0 16 11.5 27t27.5 11h88q16 0 27-11t11-27v-89zm-29 89q0 3-2.5 5.5T240 348h-88q-4 0-6.5-2.5T143 340v-89q0-4 2.5-6.5t6.5-2.5h88q4 0 6.5 2.5t2.5 6.5v89zm232-89q0-16-11-27t-27-11h-89q-16 0-27 11t-11 27v89q0 16 11 27t27 11h89q16 0 27-11t11-27v-89zm-29 89q0 3-2.5 5.5T443 348h-89q-4 0-6-2.5t-2-5.5v-89q0-4 2-6.5t6-2.5h89q4 0 6.5 2.5t2.5 6.5v89zm232-89q0-16-11-27t-27-11h-89q-16 0-27 11t-11 27v89q0 16 11 27t27 11h89q16 0 27-11t11-27v-89zm-29 89q0 3-2.5 5.5T646 348h-89q-4 0-6.5-2.5T548 340v-89q0-4 2.5-6.5t6.5-2.5h89q4 0 6.5 2.5t2.5 6.5v89zm-415 84h-88q-16 0-27.5 11T113 462v89q0 16 11.5 27t27.5 11h88q16 0 27-11t11-27v-89q0-16-11-27t-27-11zm9 127q0 4-2.5 6.5T240 560h-88q-4 0-6.5-2.5T143 551v-89q0-4 2.5-6t6.5-2h88q4 0 6.5 2t2.5 6v89zm194-127h-89q-16 0-27 11t-11 27v89q0 16 11 27t27 11h89q16 0 27-11t11-27v-89q0-16-11-27t-27-11zm9 127q0 4-2.5 6.5T443 560h-89q-4 0-6-2.5t-2-6.5v-89q0-8 8-8h89q4 0 6.5 2t2.5 6v89zm194-127h-89q-16 0-27 11t-11 27v89q0 16 11 27t27 11h89q16 0 27-11t11-27v-89q0-16-11-27t-27-11zm9 127q0 4-2.5 6.5T646 560h-89q-4 0-6.5-2.5T548 551v-89q0-4 2.5-6t6.5-2h89q4 0 6.5 2t2.5 6v89zm227-52q7 0 11-4.5t4-10.5q0-6-4-10-35-33-80.5-33T734 474q-4 4-4 10t4.5 10.5Q739 499 745 499t10-4q23-25 57.5-25t59.5 25q4 4 10 4zm-111 12q-4 4-4 10t4 10.5q4 4.5 10 4.5t10-4q9-9 22-9t22 9q6 4 10.5 4t10-4.5Q861 527 861 521t-5-10q-18-18-43-18t-42 18z"/></svg>