<svg viewBox="0 0 1244 1083.753" xmlns="http://www.w3.org/2000/svg"><path d="M859 251H266v-47q0-7-4.5-11.5T250 188h-31v-35q0-12 8-21t20-10l586-57q5 13 17 21.5t27 8.5q20 0 33.5-14T924 47.5q0-19.5-13.5-33T877 1q-15 0-27.5 9T832 33L244 91q-24 2-40 20t-16 42v35h-32q-6 0-10.5 4.5T141 204v47q-32 0-55 23t-23 55v500q0 32 23 55t55 23h62v78q0 7 4.5 11.5t11.5 4.5h62q8 0 13-7l58-87h296l58 87q5 7 13 7h62q7 0 11.5-4.5T797 985v-78h62q33 0 56-23t23-55V329q0-32-23-55t-56-23zm18-219q7 0 11.5 4.5T893 48q0 7-4.5 11T877 63q-7 0-11.5-4.5T861 48q0-6 4.5-11t11.5-5zM172 220h62v31h-62v-31zm101 750h-39v-63h81l-42 63zm493 0h-39l-42-63h81v63zm140-141q0 19-13.5 33T859 876H141q-19 0-33-14t-14-33V329q0-20 14-33.5t33-13.5h718q20 0 33.5 13.5T906 329v500zM672 315H141q-7 0-11.5 4.5T125 331v500q0 7 4.5 11.5T141 847h531q7 0 11.5-4.5T688 831V331q0-7-4.5-11.5T672 315zM328 548q0-32 23-55t55-23q32 0 55 23t23 55q0 32-23 55t-55 23q-32 0-55-23t-23-55zm-93 267q3-43 27-79.5t62-57.5q38-21 82-21t82.5 21q38.5 21 62.5 57.5t27 79.5H235zm421 0h-47q-4-62-42.5-110.5T470 636q21-15 33.5-38t12.5-50q0-30-15-55t-40-40q-25-15-55-15t-55 15q-25 15-39.5 40T297 548q0 26 12 49.5t33 38.5q-58 20-96 69t-42 110h-48V347h500v468zm141-500q-32 0-55 23t-23 56q0 33 23 55.5t55 22.5q32 0 55-23t23-55q0-32-23-55.5T797 315zm0 125q-19 0-33-13.5T750 394q0-19 14-33t33.5-14q19.5 0 33 13.5t13.5 33q0 19.5-13.5 33T797 440zm0 63q-32 0-55 23t-23 55q0 32 23 55t55 23q32 0 55-23t23-55q0-32-23-55t-55-23zm0 125q-19 0-33-14t-14-33.5q0-19.5 14-33t33.5-13.5q19.5 0 33 13.5t13.5 33q0 19.5-13.5 33.5T797 628z"/></svg>