<svg viewBox="0 0 1244 1083.753" xmlns="http://www.w3.org/2000/svg"><path d="M223 69q-6-3-12.5 0t-9.5 9l-51 128L99 78q-3-6-9.5-9T77 68.5q-6 2.5-8.5 9T68 90l66 167q6 11 16 11 5 0 9-3t6-8l67-167q2-6 0-12-4-8-9-9zm144 32q7 0 11.5-5t4.5-12q0-7-4.5-11.5T367 68H267q-7 0-12 4.5T250 84v167q0 7 5 12t12 5h100q7 0 11.5-5t4.5-12q0-7-4.5-12t-11.5-5h-84v-50h84q7 0 11.5-4.5T383 168q0-7-4.5-12t-11.5-5h-84v-50h84zm216 67h-66q-7 0-12 4.5t-5 11.5q0 7 5 12t12 5h16q0 14-9.5 23.5T500 234h-17q-13 0-23-10t-10-23v-67q0-14 10-23.5t23-9.5h17q11 0 19.5 6t11.5 16q2 6 8.5 9t13 1q6.5-2 9.5-8t1-13q-7-20-24-32t-39-12h-16q-28 0-47.5 19.5T417 134v67q0 28 19.5 47.5T484 268h16q28 0 47.5-19.5T567 201h16q8 0 12.5-5t4.5-12q0-7-5-11.5t-12-4.5zm116-90q-5-10-15.5-10T668 78l-67 167q-2 6 .5 12.5t9 9q6.5 2.5 13 0t8.5-9.5l16-39h71l16 39q2 5 6 8t9 3q2 0 5.5-1.5t6-4q2.5-2.5 3.5-5.5 3-5 1-12L699 78zm-38 106l22-55 23 55h-45zM917 68q-7 0-12 4.5T900 84v114L814 75q-3-5-8.5-6.5T795 69q-5 2-8.5 6t-3.5 9v167q0 7 5 12t12 5q7 0 12-5t5-12V137l86 123q4 6 14 8 7 0 11.5-5t4.5-12V84q0-7-4.5-11.5T917 68zm33-67H50Q30 1 15 15.5T0 51v233q0 21 15 35.5T50 334h383v67H317q-65 0-121 31t-90.5 85Q71 571 68 636q-26 5-44 24T1.5 705Q-3 731 9 754.5T44 790q7 21 23 44v17q0 41 20 75.5t54.5 54.5q34.5 20 75.5 20h566q41 0 75.5-20t54.5-54.5q20-34.5 20-75.5v-17q14-18 24-43 23-13 34.5-36.5T999 705q-4-26-22-45t-44-24q-4-65-38.5-119T804 432q-56-31-121-31H567v-66h383q21 0 35.5-15t14.5-35V51q0-21-14.5-35.5T950 1zM510 801l53 54q-29 13-63 13-37 0-68-16-39-18-82.5-18T268 852q-31 16-68 16h-2q-30-1-56.5-14T96 818l-3-5q-6-8-8-12h425zm405 0q-2 4-8 12l-3 5q-19 23-45.5 36T802 868h-2q-32 1-63-13l53-54h125zm-265 93l-93-93h186l-93 93zm133 74H217q-43 0-76-28.5T101 868q44 33 97 33h2q40 1 82-18 32-17 68-15 36-2 68 15 41 19 82 18 43 2 82-18l7-3 38 38q10 10 23.5 10t23.5-10l37-38 7 3q39 20 82 18h3q53 0 96-32-7 42-40 70.5T783 968zm184-250q0 15-8.5 27.5T936 764h-1q-10 4-18 4H83q-6 0-18-4-1 0-1-1-17-7-25-22.5T35 707q4-18 17.5-29T84 667h833q21 1 35.5 15.5T967 718zM683 434q56 0 104 26.5t78 72Q895 578 899 634H101q4-56 34-101.5t78-72Q261 434 317 434h116v34h-16q-7 0-12 4.5t-5 11.5q0 7 5 12t12 5h166q7 0 12-5t5-12q0-7-5-11.5t-12-4.5h-16v-34h116zm-150 34h-66V334h66v134zm434-184q0 7-5 12t-12 5H50q-7 0-12-5t-5-12V51q0-7 5-12t12-5h900q7 0 12 5t5 12v233zM283 568q7 0 12 4.5t5 11.5q0 7-5 12t-12 5q-7 0-11.5-5t-4.5-12q0-7 4.5-11.5T283 568zm67-50q7 0 12 4.5t5 11.5q0 7-5 12t-12 5q-7 0-12-5t-5-12q0-7 5-11.5t12-4.5zm200 50q7 0 12 4.5t5 11.5q0 7-5 12t-12 5q-7 0-12-5t-5-12q0-7 5-11.5t12-4.5zm133-100q7 0 12 4.5t5 11.5q0 7-5 12t-12 5q-7 0-11.5-5t-4.5-12q0-7 4.5-11.5T683 468zM417 568q7 0 11.5 4.5T433 584q0 7-4.5 12t-11.5 5q-7 0-12-5t-5-12q0-7 5-11.5t12-4.5zm66-50q7 0 12 4.5t5 11.5q0 7-5 12t-12 5q-7 0-11.5-5t-4.5-12q0-7 4.5-11.5T483 518zm200 50q7 0 12 4.5t5 11.5q0 7-5 12t-12 5q-7 0-11.5-5t-4.5-12q0-7 4.5-11.5T683 568zm134 0q7 0 11.5 4.5T833 584q0 7-4.5 12t-11.5 5q-7 0-12-5t-5-12q0-7 5-11.5t12-4.5zm-67-50q7 0 12 4.5t5 11.5q0 7-5 12t-12 5q-7 0-12-5t-5-12q0-7 5-11.5t12-4.5zm-133 0q7 0 11.5 4.5T633 534q0 7-4.5 12t-11.5 5q-7 0-12-5t-5-12q0-7 5-11.5t12-4.5zm-300-50q-55 0-100.5 30T148 578q-3 8 3 16.5t14 6.5q11-2 14-10 18-41 55.5-65.5T316 501q7 0 12-5t5-12q0-7-4.5-11.5T317 468z"/></svg>