<svg viewBox="0 0 1244 1083.753" xmlns="http://www.w3.org/2000/svg"><path d="M614 247q6 0 6-6.5t-6-6.5q-6 0-6 7 0 2 2 4t4 2zm0 39q6 0 6-6t-6-6q-6 0-6 6 0 2 2 4t4 2zm21 19q2 0 4-2t2-4q0-6-6-6t-6 6q0 6 6 6zm-21 20q6 0 6-6t-6-6q-6 0-6 6 0 2 2 4t4 2zm6 33q0-6-6-6t-6 6q0 2 2 4t4 2q2 0 4-2t2-4zm-45-163q-2 0-4 2t-2 4q0 6 6 6t6-6q0-6-6-6zm21 19q-3 0-5 2t-2 4q0 6 6.5 6t6.5-6q0-2-2-4t-4-2zm-21 20q-2 0-4 2t-2 4.5q0 2.5 2 4.5t4 2q2 0 4-2t2-4q0-7-6-7zm21 19q-3 0-5 2t-2 4q0 6 6.5 6t6.5-6q0-2-2-4t-4-2zm-21 21q-6 0-6 6 0 2 2 4t4 2q2 0 4-2t2-4q0-6-6-6zm21 19q-7 0-7 6 0 2 2 4t4.5 2q2.5 0 4.5-2t2-4q0-6-6-6zm-21 20q-2 0-4 2t-2 4q0 2 2 4t4 2q2 0 4-2t2-4q0-6-6-6zm21 19q-7 0-7 6 0 2 2 4t4.5 2q2.5 0 4.5-2t2-4q0-6-6-6zm-21 20q-2 0-4 2t-2 4q0 2 2 4t4 2q2 0 4-2t2-4q0-6-6-6zm21 19q-3 0-5 2t-2 4q0 2 2 4t4.5 2q2.5 0 4.5-2t2-4q0-2-2-4t-4-2zm-21 20q-2 0-4 2t-2 4q0 6 6 6t6-6q0-6-6-6zm-19-177q-4 0-6 5v1q0 6 6 6t6-6q0-6-6-6zm0 39q-2 0-4 2t-2 4q0 6 6 6t6-6q0-6-6-6zm-20 21q-6 0-6 6 0 2 2 4t4 2q2 0 4-2t2-4q0-6-6-6zm20 19q-6 0-6 6 0 2 2 4t4 2q6 0 6-6t-6-6zm-20 20q-2 0-4 2t-2 4q0 2 2 4t4 2q2 0 4-2t2-4q0-2-2-4t-4-2zm20 19q-6 0-6 6 0 2 2 4t4 2q6 0 6-6t-6-6zm-20 20q-2 0-4 2t-2 4q0 2 2 4t4 2q2 0 4-2t2-4q0-2-2-4t-4-2zm20 19q-2 0-4 2t-2 4q0 2 2 4t4 2q6 0 6-6t-6-6zm-20 20q-2 0-4 2t-2 4q0 6 6 6t6-6q0-2-2-4t-4-2zm20 19q-2 0-4 2t-2 4q0 2 2 4t4 2q6 0 6-6t-6-6zm-39-78q-6 0-6 6 0 2 2 4t4 2q6 0 6-6t-6-6zm-20 20q-6 0-6 6t6 6q6 0 6-6 0-2-2-4t-4-2zm20 19q-2 0-4 2t-2 4q0 2 2 4t4 2q6 0 6-6t-6-6zm-20 20q-6 0-6 6t6 6q6 0 6-6 0-2-2-4t-4-2zm20 19q-2 0-4 2t-2 4q0 2 2 4t4 2q6 0 6-6t-6-6zm-39-78q-6 0-6 6 0 2 2 4t4 2q2 0 4-2t2-4q0-6-6-6zm-20 20q-6 0-6 6t6 6q2 0 4-2t2-4q0-2-2-4t-4-2zm20 19q-2 0-4 2t-2 4q0 2 2 4t4 2q2 0 4-2t2-4q0-2-2-4t-4-2zm-20 20q-6 0-6 6t6 6q6 0 6-6 0-2-2-4t-4-2zm20 19q-2 0-4 2t-2 4q0 2 2 4t4 2q2 0 4-2t2-4q0-2-2-4t-4-2zm-60-58q-2 0-4 2t-2 4q0 2 2 4t4 2q2 0 4.5-2t2.5-4q0-2-2-4t-5-2zm21 19q-6 0-6 6t6 6q2 0 4-2t2-4q0-2-2-4t-4-2zm-21 20q-2 0-4 2t-2 4q0 6 6 6 3 0 5-1.5t2-4q0-2.5-2-4.5t-5-2zm21 19q-6 0-6 6t6 6q2 0 4-2t2-4q0-2-2-4t-4-2zm-60-58q-2 0-4 2t-2 4q0 2 2 4t4 2q6 0 6-6t-6-6zm21 19q-6 0-6 6t6 6q2 0 4-2t2-4q0-2-2-4t-4-2zm-60-19q-2 0-4 2t-2 4q0 2 2 4t4 2q2 0 4-2t2-4q0-2-2-4t-4-2zm20 19q-2 0-4 2t-2 4q0 2 2 4t4.5 2q2.5 0 4.5-2t2-4q0-2-2-4t-5-2zm-20 20q-2 0-4 2t-2 4q0 6 6 6t6-6q0-2-2-4t-4-2zm-39-39q-2 0-4 2t-2 4q0 2 2 4t4 2q2 0 4-2t2-4q0-2-2-4t-4-2zm20 19q-2 0-4 2t-2 4q0 2 2 4t4 2q6 0 6-6t-6-6zm-20 20q-2 0-4 2t-2 4q0 6 6 6t6-6q0-2-2-4t-4-2zm20 19q-2 0-4 2t-2 4q0 2 2 4t4 2q6 0 6-6t-6-6zm-20 20q-2 0-4 2t-2 4.5q0 2.5 2 4.5t4 2q2 0 4-2t2-4.5q0-2.5-2-4.5t-4-2zm-19-98q-6 0-6 6 0 2 2 4t4 2q2 0 4-2t2-4q0-6-6-6zm-20 20q-6 0-6 6t6 6q6 0 6-6 0-2-2-4t-4-2zm20 19q-2 0-4 2t-2 4q0 2 2 4t4 2q2 0 4-2t2-4q0-2-2-4t-4-2zm-20 20q-6 0-6 6t6 6q6 0 6-6 0-2-2-4t-4-2zm20 19q-2 0-4 2t-2 4q0 2 2 4t4 2q2 0 4-2t2-4q0-2-2-4t-4-2zm-20 20q-6 0-6 6.5t6 6.5q6 0 6-7 0-2-2-4t-4-2zm20 19q-2 0-4 2t-2 4q0 6 6 6t6-6q0-2-2-4t-4-2zm-39-78q-2 0-4 2t-2 4q0 2 2 4t4 2q2 0 4-2t2-4q0-2-2-4t-4-2zm-20 20q-3 0-5 2t-2 4q0 6 6.5 6t6.5-6q0-2-2-4t-4-2zm20 19q-2 0-4 2t-2 4q0 2 2 4t4 2q2 0 4-2t2-4q0-2-2-4t-4-2zm-20 20q-3 0-5 2t-2 4.5q0 2.5 2 4.5t5 2q6 0 6-7 0-2-2-4t-4-2zm20 19q-2 0-4 2t-2 4q0 6 6 6t6-6q0-2-2-4t-4-2zm-20 21q-7 0-7 6 0 2 2 4t5 2q6 0 6-6t-6-6zm-40-79q-2 0-4 2t-2 4q0 6 6 6t6-6q0-6-6-6zm21 19q-6 0-6 6t6 6q2 0 4-2t2-4q0-2-2-4t-4-2zm-21 20q-2 0-4 2t-2 4.5q0 2.5 2 4.5t4 2q6 0 6-6.5t-6-6.5zm21 19q-6 0-6 6t6 6q6 0 6-6 0-2-2-4t-4-2zm-21 21q-6 0-6 6 0 2 2 4t4 2q6 0 6-6t-6-6zm-18-60q-3 0-5 2t-2 4q0 2 2 4t5 2q6 0 6-6 0-2-2-4t-4-2zm-21 20q-2 0-4 2t-2 4.5q0 2.5 2 4.5t4 2q6 0 6-6.5t-6-6.5zm21 19q-3 0-5 2t-2 4q0 6 6.5 6t6.5-6q0-2-2-4t-4-2zm-21 21q-6 0-6 6 0 2 2 4t4 2q6 0 6-6t-6-6zm-19-60q-2 0-4 2t-2 4q0 2 2 4t4 2q6 0 6-6t-6-6zm-20 20q-2 0-4 2t-2 4.5q0 2.5 2 4.5t4 2q2 0 4-2t2-4.5q0-2.5-2-4.5t-4-2zm20 19q-2 0-4 2t-2 4q0 6 6 6t6-6q0-6-6-6zm-39-39q-2 0-4 2t-2 4q0 2 2 4t4 2q2 0 4-2t2-4q0-6-6-6zm58-19q-2 0-4 2t-2 4q0 6 6 6t6-6q0-6-6-6zm60-20q-6 0-6 6t6 6q2 0 4-2t2-4q0-2-2-4t-4-2zm19-19q-6 0-6 6t6 6q6 0 6-6 0-2-2-4t-4-2zm20-20q-6 0-6 6 0 2 2 4t4 2q2 0 4-2t2-4q0-6-6-6zm78 0q-6 0-6 6 0 2 2 4t4 2q6 0 6-6t-6-6zm176-19q-6 0-6 6t6 6q2 0 4-2t2-4q0-2-2-4t-4-2zm20-8q6 0 6-6t-6-6q-6 0-6 6 0 2 2 4t4 2zm39-130q-2 0-4 2t-2 4q0 2 2 4t4 2q6 0 6-6t-6-6zm333 385q2 0 4-2t2-4q0-2-2-4t-4-2q-2 0-4 2t-2 4q0 6 6 6zm0 39q6 0 6-6 0-2-2-4t-4-2q-2 0-4 2t-2 4q0 6 6 6zm-19-71q-6 0-6 6t6 6q6 0 6-6t-6-6zm0 39q-6 0-6 6t6 6q6 0 6-6 0-2-2-4t-4-2zm-21 20q-2 0-4 2t-2 4q0 6 6 6 3 0 5-1.5t2-4q0-2.5-2-4.5t-5-2zm21 19q-6 0-6 6t6 6q6 0 6-6 0-2-2-4t-4-2zm-21 20q-2 0-4 2t-2 4q0 6 6 6 3 0 5-1.5t2-4q0-2.5-2-4.5t-5-2zm0 39q-2 0-4 2t-2 4.5q0 2.5 2 4.5t4 2q2 0 4.5-2t2.5-4q0-2-2-4.5t-5-2.5zm-18-59q-6 0-6 6t6 6q6 0 6-6 0-2-2-4t-4-2zm0 39q-6 0-6 6t6 6q6 0 6-6 0-2-2-4t-4-2zm-21 20q-2 0-4 2t-2 4.5q0 2.5 2 4.5t4 2q2 0 4-2t2-4q0-7-6-7zm21 19q-6 0-6 6t6 6q6 0 6-6 0-2-2-4t-4-2zm-21 21q-6 0-6 6 0 2 2 4t4 2q2 0 4-2t2-4q0-6-6-6zm0 39q-2 0-4 2t-2 4q0 2 2 4t4 2q2 0 4-2t2-4q0-6-6-6zm-19-60q-2 0-4 2t-2 4q0 6 6 6t6-6q0-6-6-6zm-20 21q-6 0-6 6 0 2 2 4t4 2q2 0 4-2t2-4q0-6-6-6zm20 19q-6 0-6 6 0 2 2 4t4 2q2 0 4-2t2-4q0-6-6-6zm-20 20q-2 0-4 2t-2 4q0 2 2 4t4 2q2 0 4-2t2-4q0-2-2-4t-4-2zm20 19q-6 0-6 6 0 2 2 4t4 2q2 0 4-2t2-4q0-6-6-6zm-20 20q-2 0-4 2t-2 4q0 2 2 4t4 2q2 0 4-2t2-4q0-2-2-4t-4-2zm-19-20q-6 0-6 6 0 2 2 4t4 2q2 0 4-2t2-4q0-6-6-6zm-20 20q-2 0-4 2t-2 4q0 2 2 4t4 2q2 0 4-2t2-4q0-2-2-4t-4-2zm20 19q-2 0-4 2t-2 4q0 2 2 4t4 2q2 0 4-2t2-4q0-6-6-6zm-20 20q-2 0-4 2t-2 4q0 6 6 6t6-6q0-2-2-4t-4-2zm20 19q-2 0-4 2t-2 4q0 2 2 4t4 2q2 0 4-2t2-4q0-6-6-6zm-20 20q-2 0-4 2t-2 4.5q0 2.5 2 4.5t4 2q2 0 4-2t2-4.5q0-2.5-2-4.5t-4-2zm-19-59q-2 0-4 2t-2 4q0 2 2 4t4 2q2 0 4-2t2-4q0-2-2-4t-4-2zm-20 20q-6 0-6 6t6 6q6 0 6-6 0-2-2-4t-4-2zm20 19q-2 0-4 2t-2 4q0 2 2 4t4 2q2 0 4-2t2-4q0-2-2-4t-4-2zm-20 20q-6 0-6 6.5t6 6.5q2 0 4-2t2-4.5q0-2.5-2-4.5t-4-2zm20 19q-2 0-4 2t-2 4q0 6 6 6t6-6q0-2-2-4t-4-2zm-20 21q-6 0-6 6t6 6q2 0 4-2t2-4q0-6-6-6zm-19-21q-2 0-4 2t-2 4q0 6 6 6t6-6q0-2-2-4t-4-2zm-20 21q-7 0-7 6 0 2 2 4t4.5 2q2.5 0 4.5-2t2-4q0-6-6-6zm20 19q-6 0-6 6 0 2 2 4t4 2q2 0 4-2t2-4q0-6-6-6zm-20 20q-3 0-5 2t-2 4q0 2 2 4t4.5 2q2.5 0 4.5-2t2-4q0-2-2-4t-4-2zm-19-20q-6 0-6 6t6 6q6 0 6-6t-6-6zm0 39q-6 0-6 6t6 6q6 0 6-6t-6-6zm19-98q-3 0-5 2t-2 4.5q0 2.5 2 4.5t4.5 2q2.5 0 4.5-2t2-4.5q0-2.5-2-4.5t-4-2zm20-20q-2 0-4 2t-2 4q0 2 2 4t4 2q2 0 4-2t2-4q0-2-2-4t-4-2zm136-215q-2 0-4 2t-2 4q0 6 6 6t6-6q0-6-6-6zm39-78q-2 0-4 2t-2 4q0 2 2 4t4 2q2 0 4.5-2t2.5-4q0-2-2-4t-5-2zM418 861q-2 0-4 2t-2 4.5q0 2.5 2 4.5t4 2q2 0 4.5-2t2.5-4.5q0-2.5-2-4.5t-5-2zm0 40q-6 0-6 6 0 2 2 4t4 2q2 0 4.5-2t2.5-4q0-6-7-6zm-18-21q-6 0-6 6t6 6q6 0 6-6 0-2-2-4t-4-2zm-21 21q-6 0-6 6 0 2 2 4t4 2q6 0 6-6t-6-6zm21 19q-6 0-6 6t6 6q2 0 4-2t2-4q0-6-6-6zm-21 20q-2 0-4 2t-2 4q0 2 2 4t4 2q6 0 6-6t-6-6zm-19-20q-6 0-6 6 0 2 2 4t4.5 2q2.5 0 4.5-2t2-4q0-6-7-6zm-20 20q-2 0-4 2t-2 4q0 2 2 4t4 2q2 0 4-2t2-4q0-2-2-4t-4-2zm20 19q-6 0-6 6 0 2 2 4t4.5 2q2.5 0 4.5-2t2-4q0-6-7-6zm-59-19q-2 0-4 2t-2 4q0 2 2 4t4 2q2 0 4-2t2-4q0-2-2-4t-4-2zm20 19q-6 0-6 6 0 2 2 4t4 2q6 0 6-6t-6-6zm-59-19q-6 0-6 6t6 6q6 0 6-6 0-2-2-4t-4-2zm20 19q-6 0-6 6 0 2 2 4t4 2q2 0 4-2t2-4q0-6-6-6zm118-118q-6 0-6 6t6 6q2 0 4-2t2-4q0-2-2-4t-4-2zM183 287q-11-16-29.5-19.5t-34.5 7q-16 10.5-19.5 29T106 338q4 4 6.5 4t5-2q2.5-2 3-5t-1.5-6q-7-10-4.5-22t13-19.5q10.5-7.5 22.5-5t20 13.5q2 2 5 2.5t6-.5q3-1 3.5-4.5T183 287zm134-107q-5-18-22-27t-35-4q-18 5-27.5 21.5T228 205q2 6 8 6h2q3-1 4.5-4t.5-6q-3-12 3-23t18-14.5q12-3.5 23 2.5t15 19q2 7 10 5 3-1 4.5-4t.5-6zm100 38q-4-19-19.5-30t-34.5-6.5q-19 4.5-29.5 19.5t-7.5 34q2 7 8 7 1 0 2-1 3 0 5-2.5t1-6.5q-3-11 4-23 9-11 20.5-13t22 5q10.5 7 13.5 20 0 3 2.5 5t6 1q3.5-1 5.5-3.5t1-5.5zm211 169q19-27 26-58.5t1-62.5q-5-27-19.5-51T599 173q-20-16-44.5-26T504 136v-5q-6-31-24-58t-45.5-45Q407 10 375 4t-65 0q-55 10-92 50t-43 93l-10 1q-37 7-68 27t-52.5 50Q23 255 15 290.5t-1 71Q21 397 41 427t51 50q46 31 103 31 19 0 37-3 31-7 51-17l33 60 18 96q1 3 3.5 5t5.5 1l140-26q3-1 5-3.5t1-5.5l-18-96 8-61q21 0 42-3 33-6 60.5-23.5T628 387zM472 610l-124 23-17-89-35-64q26-14 46-39 16 28 27 37 8 7 14 5.5t12-9.5q8-10 18-34 20 11 51 16l-9 64 17 90zm-73-178q-12 30-18 35-9-5-29-39 4-5 11-16l4-7q13 14 32 27zm142 1q-3-3-5-3t-4 2q-2 2-2 4v1q-8 2-12 2.5l-12 1.5-6 1q3-2 3-6 0-2-2-4t-4-2q-2 0-4 2t-2 4q0 5 4 6-15 1-32-2l1-4q0-2-2-4t-4-2q-6 0-6 6v2q-23-6-46-20v-2q0-2-2-4t-4.5-2q-2.5 0-3.5 1l-12-10q1-1 1-4 0-6-6-6l-3 1q-4-4-5-6-3-5-7-3-5 0-7 4-13 31-36 54t-54 37l1-2q0-6-6-6t-6 6q0 3 3 5-15 6-30 9h-2q-12 2-18 2-2-4-5.5-4t-5.5 5q-9 0-27-2h-2q-1-3-4-3l-4 1q-34-6-61-25-6-4-8-6v-3q0-6-6-6-2 0-4 2l-11-11q1-1 1-3.5t-2-4.5q-2-2-4-2l-3 1q-4-4-10-14v-1q0-4-5-6-13-23-19-52-6-32 1-64t27-60q20-28 48.5-46t62.5-24q8-2 14-2.5t8-7.5q3-50 37.5-87.5T313 19q10-2 29-2 47 0 84 24 25 16 41 40t21 53l2 11q0 5 7 7 48 1 86.5 29t52.5 72h-1q-6 0-6 6.5t6 6.5q1 0 3-2 1 2 1 5 7 34-2 63h-2q-6 0-6 5t4 7q-6 17-18 34-27 39-74 55zm431-34q12-21 14-33t-5-18q-13-13-50 15-10 7-31 26 7-24 13-55 7-45-9.5-51.5T862 315q-12 17-28 52l-2-11q-4-22-7-32-6-23-13-33.5t-17-9.5q-18 1-25 46-6 40-3 96l2 30h-1q-18 2-27 5-48 15-68 65-10 26-26 96-18 77-30 153-14 92-14 144 0 36 6.5 55.5T629 996q2 1 8 1 24 0 63-43 33-35 86-116 40-62 78-131 35-64 46-93 19-49-7-94-8-12-14-18 9-8 25-26 40-45 58-77zm-138 7q21-53 38-79.5t26-29.5q4 11-1 39-9 44-25 85-7 17-21 48l-1 2-18-8-15-5q6-23 17-52zm-49-72q5-31 11-37 8 5 15 36 7 23 10 63l-1 4q-9 22-19 55-10-2-16-2-2-20-2-31-3-48 2-88zm105 194q21 38 6 80l-20 43q0-2-2-4t-4-2q-6 0-6 6t6 6q2 0 3-1-15 31-38 70-1-2-4-2-6 0-6 5t5 7l-14 23q-26 44-40 65-2-2-4.5-2t-4.5 2q-2 2-2 5t4 5q-50 76-85 115-31 33-46 33l-4-1q-13-5-15-52-2-56 13-155 1-1 1-3l79 30q1 1 3 1 5 0 7-4t.5-7q-1.5-3-4.5-4l-82-32h-1l12-62 93 36h6v1q0 2 2 4t4 2q2 0 4-2t2-4q0-6-6-6h-2q2-7-4-10l-96-36 4-20q6-30 10-43l107 41q5 0 6.5-4t.5-7q-1-3-4-5l-107-40q15-56 21-72 15-43 58-55 17-5 32-5 21 0 48 10 42 15 64 50zm-12-37q-3-3-10-8l-5-4q13-26 23-53 2-2 2-4 25-26 49-44.5t34-18.5q0 11-15 36-18 32-53 70-8 9-25 26zM409 724q-16-1-39-1-8-10-25-27-20-19-29.5-24t-15.5-2q-13 8-2 37l1 4q-47 2-84.5 30T164 813q-8 28-4 56.5t19.5 53.5q15.5 25 39 43t52.5 26q21 6 43 6 49 0 88.5-28t52.5-74q10-35 1.5-70T423 764q34-11 38-19 2-5-.5-9.5T450 729q-12-4-41-5zM306 982q-1-3-4.5-3t-5.5 2q-14-2-21-4-18-6-26-10v-2q0-6-5-6t-6 2l-4-3q-6-4-9-7 4-2 4-4.5t-2-4.5q-2-2-5-2t-5 4q-16-14-24-29-13-22-17-47.5t3-49.5q11-37 41-61t69-29q-40 17-44 30-1 5 2 10 8 10 56 10 12 1 33 0h8l26 24q28 24 38 24 2 0 6-2-2 2-2 4 0 6 6 6 3 0 5-1.5t2-4q0-2.5-2-4.5t-5-2l-2 1q4-4 4.5-10t-1.5-18q2 0 3.5-1.5t1.5-2.5q15 22 20 53-1-3-5-3-6 0-6 6t6 6q4 0 5-4 2 18-1 33-2-2-4-2-6 0-6 6t6 6h1q-13 43-50.5 68T306 982zm109-204l1 2 3 3h-3l-1-5zm-15-25q-4 1-5.5 4t-.5 7q11 31 11 45-18-10-53-45-2-2-5-2-25 1-49.5.5T263 760q6-5 21.5-12.5T317 734q3-2 4-5t0-6q-11-24-13-37 7 4 22.5 18.5T361 736q2 3 6 3 47 0 71 3-13 5-38 11z"/></svg>