<svg viewBox="0 0 1244 1083.753" xmlns="http://www.w3.org/2000/svg"><path d="M667 152q5-5 10-1 3 1 4 4 2 7 8 9.5t13 .5q7-2 9.5-8.5t.5-12.5q-4-11-12-18t-18-8q-22-5-38 11-5 5-5 12t5 12q5 5 12 4.5t11-5.5zM383 817q7 0 12-4.5t5-11.5q0-7-5-12t-12-5q-61 0-115.5-28.5T178 677q-4-6-10.5-7.5T155 672q-6 4-7 11t3 13q40 57 101.5 89T383 817zM34 548q3 92 52 171 47 76 125 120 80 45 172 45h91q7 0 11.5-4.5T490 868q0-7-4.5-12t-11.5-5h-91q-83 0-155-40-69-40-112-108-45-69-49-152h100q7 0 11.5-5t4.5-12q0-7-4.5-11.5T167 518H50q-7 0-12-5t-5-12v-16q0-7 5-12t12-5h817q7 0 11.5 5t4.5 12v7q0 7 5 11.5t12 4.5q7 0 11.5-4.5T916 492v-7q0-21-14.5-35.5T866 435H729q32-18 61-26 19 10 41 12t42.5-6q20.5-8 36-23t22.5-36q14-36-1-72.5T881 231q4-33-10-62t-43-46q-25-15-59-15-11-21-30-36t-43-19.5q-24-4.5-47.5.5T607 72l-7-4q-34-20-72-12t-60.5 39.5Q445 127 450 166t35 65q8 6 13 8 10 41 8 91l-72-99q-20-27-51.5-39.5T318 186l-18-82q-2-10-9.5-16.5T273 79q-10-2-19 2t-15 12l-9 15-45-89q-7-16-28-18-9 0-17.5 4.5T127 17l-12 19-41-23Q64 8 53 9.5T34.5 19q-7.5 8-9 19T29 59l23 41-19 11q-8 5-12.5 13t-4 17q.5 9 5.5 16.5T35 169l89 45-15 10q-8 5-12 14t-2 19q2 10 8.5 17.5T120 284l81 19q-6 33 6.5 64t39.5 51l22 16H50q-20 0-35 15T0 484v17q0 16 9.5 29T34 548zm452-412q9-32 39-44 15-5 30.5-4t27.5 9q4 1 10 6l3 3q5 4 12 4t11-4q14-14 32-19.5t37-1.5q19 4 33.5 16.5T743 132q2 5 7 8.5t11 2.5q19-4 37 2.5t31 21q13 14.5 17.5 33T846 237q-2 6 1 12.5t10 7.5q13 4 24 13t17 21q12 26 3 53-11 29-40 40-14 5-29 3.5t-27-8.5q-22-13-29-35-2-5-6.5-8t-9.5-3l-4 1q-21 5-37-5-10-6-16.5-16t-8.5-21q-2-17-16-25-7-4-15-4.5t-15 2.5q-23 9-45-3-18-10-23-30-1-6-7-9.5t-12-2.5q-17 3-33.5-2.5T500 199q-11-13-15-30t1-33zm139 166q16 1 36-7v1q1 16 12 34-30 15-48 27 2-28 0-55zm-90-49q6 1 18 1 10 22 33 37l4 2q4 25 2 62-1 9 3.5 18t12.5 13.5q8 4.5 18 4t18-5.5q19-14 54-29 2 0 4 2 22 13 48 11 3 5 11 15-49 18-92 50h-88l-46-64q9-59 0-117zm-408-2l15-9q17-12 15-30-1-9-6-16.5T139 184l-89-44 19-12q12-7 15.5-20T81 84L58 43l41 22q12 7 25 3.5T144 53l12-19 44 89q7 16 26.5 18t31.5-15l9-15 20 85q-18 10-30 22l-23 23q-11 10-22 30l-85-20zm140 140q-15-10-23.5-26.5t-10-34.5q-1.5-18 4.5-35t19-31l23-23q23-22 54-24t56 17l-50 37q-8 6-7 15.5t11 12.5q8 5 16-2l52-39 22 30-44 32q-5 5-6 11.5t3 12q4 5.5 11 6.5t12-3l43-32 22 29-35 26q-6 4-7 11t3.5 13q4.5 6 11.5 7t12-4l34-26 46 63H326l-59-43zm293 143q0-7-5-11.5t-12-4.5H267q-7 0-12 4.5t-5 11.5q0 7 5 12t12 5h276q7 0 12-5t5-12zm314 0q-1 0-1-1-48-27-103-31t-106.5 14.5Q612 535 573 574t-57.5 90.5Q497 716 501 770.5T532 873q1 1 1 2 40 68 111.5 101.5t148.5 20q77-13.5 133.5-69t70-133.5q13.5-78-20.5-149.5T874 534zM750 968q-59 0-109-29t-79-79q-29-50-29-109t29-109q29-50 79-79t109-29q59 0 109 29t79 79q29 50 29 109t-29 109q-29 50-79 79t-109 29zm122-329L667 844l-55-55q-5-5-12-5t-11.5 5q-4.5 5-4.5 12t4 12l67 67q5 4 12 4t11-4l217-217q5-5 5-12t-4.5-12q-4.5-5-11.5-5t-12 5zm-739-21q7 0 12 4.5t5 11.5q0 7-5 12t-12 5q-7 0-11.5-5t-4.5-12q0-7 4.5-11.5T133 618z"/></svg>