<svg viewBox="0 0 1244 1083.753" xmlns="http://www.w3.org/2000/svg"><path d="M878 528l-91-168V87q0-35-25.5-60.5T700 1H587q-7 0-13 5.5T568 20q0 8 6 14t13 6h113q20 0 34 13.5T748 87v476q0 15-11 26l-47 45v-71q0-28-20-48t-48.5-20.5Q593 494 573 514t-20 49v94q0 32 12 68 6 21 25 63l11 24q5 10 5 26v13H394v-13q0-16 6-29 23-47 33-74 15-42 15-78v-94q0-28-20.5-48.5t-48.5-20q-28 .5-47.5 19.5T310 560v74l-47-45q-11-11-11-25V87q0-20 14-33.5T300 40h116q8 0 13.5-6t5.5-14q0-8-5.5-13.5T416 1H300q-36 0-61.5 25.5T213 87v273l-91 168q-14 26-18 55.5t3 58.5l52 210v130q0 8 5.5 13.5t13.5 5.5h196q8 0 14-5.5t6-13.5v-92h212v92q0 8 6 13.5t14 5.5h196q8 0 14-5.5t6-13.5V852l51-210q7-29 3-58.5T878 528zM198 962V850l-53-217q-5-22-2.5-44t13.5-42l57-105v121q0 15 6 29.5t17 24.5l57 54q10 10 23.5 9.5t23-10Q349 661 349 647v-87q2-11 10.5-18.5t20-7.5q11.5 0 20 8.5T408 563v94q0 32-14 70-8 23-29 65-10 20-10 46v124H198zm657-329l-52 212-1 5v112H646V838q0-19-9-42l-11-23q-17-37-23-56-11-32-11-60v-94q0-12 8.5-20.5T621 534q12 0 21 8.5t9 20.5v84q0 14 9.5 23.5t23 10q13.5.5 23.5-9.5l58-54q10-10 16-24.5t6-29.5V442l57 105q11 20 13.5 42t-2.5 44zM699 418V107q0-8-6-13.5T679 88H321q-8 0-14 5.5t-6 13.5v311q0 8 6 14t14 6h358q8 0 14-6t6-14zm-39-19H340V127h320v272zM474 772q-8 0-13.5 5.5T455 791q0 8 5.5 14t13.5 6h52q8 0 13.5-6t5.5-14q0-8-5.5-13.5T526 772h-52zm13-744q3 8 10.5 11t15-.5q7.5-3.5 10.5-11t0-14.5q-3-7-10.5-10.5t-15 0Q490 6 487 13.5t0 14.5z"/></svg>