<svg viewBox="0 0 1244 1083.753" xmlns="http://www.w3.org/2000/svg"><path d="M740 323V102q0-8-6-14t-14-6H588q-8 0-14 6t-6 14q0 8 6 13.5t14 5.5h113v182H299V121h117q8 0 14-5.5t6-13.5q0-8-6-14t-14-6H280q-8 0-14 6t-6 14v221q0 8 6 13.5t14 5.5h440q8 0 14-5.5t6-13.5zm-40 160v-59h65q23 0 39.5-17t16.5-40V57q0-23-16.5-39.5T765 1H235q-23 0-39.5 16.5T179 57v310q0 23 16.5 40t39.5 17h65v59q-54 1-99 28.5T129.5 585Q103 631 103 685v209q0 29 14.5 53.5t39.5 39q25 14.5 54 14.5 26 0 49.5-12t38.5-34l75-109q7-11 19-17.5t26-6.5h162q13 0 25.5 6.5T627 846l74 109q15 22 38.5 34t51.5 12q28 0 52.5-14.5t39-39Q897 923 897 894V685q0-54-26.5-100T799 511.5Q754 484 700 483zm-39 0h-41v-59h41v59zm-241 0v-59h161v59H420zM218 367V57q0-7 5-12t12-5h530q7 0 12 5t5 12v310q0 7-4.5 12t-12.5 5H235q-7 0-12-5t-5-12zm163 57v59h-42v-59h42zm477 470q0 28-20 48t-48 20q-17 0-32-8t-25-22l-74-108q-13-19-34-30t-44-11H419q-23 0-44 11t-34 30l-74 108q-10 14-24.5 22t-31.5 8q-28 0-48.5-20T142 894V685q0-44 22-81.5t59.5-59.5q37.5-22 81.5-22h390q44 0 81.5 22t59.5 59.5q22 37.5 22 81.5v209zM738 576q-25 0-42.5 17T677 635q-25 1-42 18.5T618 696v1q0 26 17.5 43.5T678 758q25 0 42.5-17t18.5-42q25-1 42-18.5t17-42.5v-1q0-25-17.5-43T738 576zm-38 121q0 9-6.5 15.5T678 719q-9 0-15-6t-6-16v-1q0-9 6-15.5t15-6.5q9 0 15.5 6.5T700 696v1zm59-59q0 9-6 15.5t-15 6.5q-9 0-15.5-6.5T716 638v-1q0-9 6.5-15.5T738 615q9 0 15 6.5t6 15.5v1zm-233 62h-54q-8 0-14 6t-6 14q0 8 6 13.5t14 5.5h54q8 0 14-5.5t6-13.5q0-8-6-14t-14-6zm-173-44h-42v-42q0-8-6-14t-14-6q-8 0-13.5 6t-5.5 14v42h-42q-8 0-14 5.5t-6 13.5q0 8 6 14t14 6h42v42q0 8 5.5 13.5T291 756q8 0 14-5.5t6-13.5v-42h42q8 0 13.5-6t5.5-14q0-8-5.5-13.5T353 656zm133-547q3 7 10.5 10.5t15 .5q7.5-3 10.5-11t0-15q-3-7-10.5-10T497 84q-7 3-10.5 10.5T486 109z"/></svg>