<svg viewBox="0 0 1244 1083.753" xmlns="http://www.w3.org/2000/svg"><path d="M984 823h-24V307q0-40-28-68t-68-28H755q-6 0-10.5 4.5T740 226q0 6 4.5 10.5T755 241h109q28 0 47 19t19 47v516H603q-16 0-25 14l-4 6q-7 10-19 10H441q-11 0-18-10l-4-6q-9-14-25-14H68V307q0-28 19.5-47t47.5-19h94q6 0 10.5-4.5T244 226q0-6-4.5-10.5T229 211h-94q-40 0-68 28t-28 68v516H15q-6 0-10.5 4.5T0 838v31q0 41 29.5 70.5T100 969h799q41 0 70.5-29.5T999 869v-31q0-6-4.5-10.5T984 823zm-15 46q0 29-20.5 49.5T899 939H100q-29 0-50-20.5T29 869v-16h365l5 7q7 10 18 16t24 6h114q13 0 24.5-6t18.5-16l4-7h367v16zm-868-93q0 6 4.5 10t10.5 4h767q6 0 10-4t4-10V307q0-14-9.5-23.5T864 274H755q-6 0-10.5 4t-4.5 10.5q0 6.5 4.5 10.5t10.5 4h109q2 0 3 1t1 3v454H655v-60q0-24-9-46t-25-38l-20-19q10-16 16-35 1-6-2-11t-8.5-6.5q-5.5-1.5-11 1.5t-7.5 9q-4 18-17 34t-32 25q-19 9-40 9-38 0-65-27t-27-65q0-38 27-65t65-27q30 0 54 17t33 45q2 6 7.5 8.5t11.5.5q6-2 8.5-7.5t.5-11.5q-13-37-44.5-59T499 411q-33 0-61 16t-44 44q-16 28-16 61 0 36 19 66l-19 19q-17 17-26 38.5t-9 45.5v60H131v-54q0-6-4.5-10t-10.5-4q-6 0-10.5 4t-4.5 10v69zm272-75q0-37 26-63l17-18q36 34 83 34 24 0 45.5-9t38.5-25l17 18q26 26 26 63v60H373v-60zm-257-42q6 0 10.5-4t4.5-10V307q0-4 4-4h94q6 0 10.5-4t4.5-10q0-6-4.5-10.5T229 274h-94q-14 0-24 9.5T101 307v338q0 6 4.5 10t10.5 4zm221-279h310q26 0 45-19t19-45V96q0-27-19-45.5T647 32H337q-26 0-45 18.5T273 96v30q0 6 4.5 10.5T288 141q6 0 10-4.5t4-10.5V96q0-14 10.5-24.5T337 61h310q14 0 24.5 10.5T682 96v220q0 14-10.5 24T647 350H337q-14 0-24.5-10T302 316V189q0-6-4-10.5t-10-4.5q-6 0-10.5 4.5T273 189v127q0 26 19 45t45 19zm116-83q10 0 19-6l90-53q9-5 14-13.5t5-18.5q0-10-5-19t-14-14l-90-53q-19-11-38 0t-19 33v106q0 10 5 19t14 14q9 5 19 5zm-9-144q0-6 5-8l4-1 4 1 90 53q4 3 4 8t-4 7l-90 53q-5 3-8 0-5-3-5-7V153z"/></svg>