<svg viewBox="0 0 1244 1083.753" xmlns="http://www.w3.org/2000/svg"><path d="M337 509q-8 22 3 47l106 212q8 15 22.5 24t31.5 9q17 0 31.5-9t22.5-24l106-212q8-15 7-31.5t-10-30q-9-13.5-23.5-21t-31-6q-16.5 1.5-30 10.5T552 501l-52 103-52-103q-7-16-23.5-25.5t-35-7.5q-18.5 2-33 13T337 509zm45-5q10-5 21-2 8 2 16 14l66 133q5 8 15 8t15-8l66-133q5-10 15.5-13.5t21 1.5q10.5 5 14 16t-1.5 21L524 753q-3 7-9.5 11t-14.5 4q-17 0-25-15L369 541q-5-11-1-21.5t14-15.5zm-74-142q6 0 10-3 22-16 38-40t23-51h121q7 0 12-5t5-12q0-7-5-12t-12-5H365q-6 0-10.5 4t-5.5 11q-4 25-17 46.5T298 332q-4 3-5.5 8.5t0 10.5q1.5 5 6 8t9.5 3zM83 818q7 0 12-5t5-12q0-25 12-47.5t33-35.5q5-5 6.5-11.5t-2.5-12q-4-5.5-10.5-7T126 690q-28 19-43.5 48T67 801q0 7 4.5 12t11.5 5zM59 942v1q36 35 84.5 49.5T241 997l2 1q16 3 24 3h466q27 0 49-16 35 17 74 15.5t72.5-22Q962 958 981 924t19-73V651q0-34-15-65t-41.5-52.5q-26.5-21.5-60-29t-66.5.5V370q0-29-17-52.5T756 285q-18-5-28.5-20T717 232v-34q15-5 24-18t9-29V51q0-21-14.5-35.5T700 1H300q-20 0-35 14.5T250 51v100q0 16 9.5 29t23.5 18v34q0 19-10 33t-28 20q-28 9-45 32.5T183 370v232q-58 4-104.5 39.5T12 732q-20 55-7.5 112T58 942h1zm36-12l234-235q27 33 34.5 73.5t-4 80.5Q348 889 318 919t-69.5 42q-39.5 12-80 4T95 930zm755 38q-31 0-58-16t-43-43q-16-27-16-58v-83h234v83q0 32-15.5 59T909 952.5Q882 968 850 968zm117-317v83H733v-83q0-32 16-59t42.5-42.5Q818 534 850 534t58.5 15.5Q935 565 951 592t16 59zM283 51q0-7 5-12t12-5h400q7 0 12 5t5 12v100q0 7-5 12t-12 5h-17v-50q0-7-4.5-12t-11.5-5q-7 0-12 5t-5 12v50h-50v-50q0-7-4.5-12t-11.5-5q-7 0-12 5t-5 12v50h-50v-50q0-8-4.5-12.5t-12-4.5q-7.5 0-12 5t-4.5 12v50h-50v-50q0-7-5-12t-12-5q-7 0-11.5 5t-4.5 12v50h-50v-50q0-7-5-12t-12-5q-7 0-12 5t-5 12v50h-16q-7 0-12-5t-5-12V51h-1zm-28 266q28-10 45-33.5t17-51.5v-31h366v31q0 28 17 51.5t45 33.5q16 4 28 20 10 17 10 33v31H383q-7 0-11.5 5t-4.5 12q0 7 4.5 11.5T383 434h400v83q-38 19-60.5 55T700 651v200q0 32 13.5 62t38.5 51q-9 3-19 3H310q56-37 78-100h229q7 0 11.5-4.5T633 851q0-7-4.5-12t-11.5-5H397q8-47-6.5-93.5T342 660v-1h-1q-52-51-124-57V434h66q7 0 12-4.5t5-11.5q0-7-5-12t-12-5h-66v-31q0-18 10.5-33t27.5-20zm-55 317q59 0 106 38L71 907q-31-37-36.5-85.5t15-92Q70 686 111 660t89-26zm583 34q7 0 12-5t5-12q0-21 15-35.5t35-14.5q7 0 12-5t5-12q0-7-5-11.5t-12-4.5q-34 0-58.5 24T767 651q0 7 4.5 12t11.5 5z"/></svg>