<svg viewBox="0 0 1244 1083.753" xmlns="http://www.w3.org/2000/svg"><path d="M816 454q6 0 6-6t-6-6q-2 0-4 2t-2 4q0 6 6 6zm0 430q6 0 6-6t-6-6q-2 0-4 2t-2 4q0 6 6 6zm0 27q-2 0-4 2t-2 4q0 6 6 6t6-6q0-2-2-4t-4-2zm-39-535q6 0 6-6t-6-6q-2 0-4 2t-2 4q0 6 6 6zm20 19q6 0 6-6t-6-6q-6 0-6 6 0 2 2 4t4 2zm-20 20q6 0 6-6t-6-6q-2 0-4 2t-2 4q0 6 6 6zm20 19q6 0 6-6t-6-6q-6 0-6 6 0 2 2 4t4 2zm-20 20q6 0 6-6t-6-6q-2 0-4 2t-2 4q0 6 6 6zm20 19q6 0 6-6t-6-6q-6 0-6 6t6 6zm-20 399q-2 0-4 2t-2 4q0 6 6 6t6-6q0-2-2-4t-4-2zm20 19q-2 0-4 2t-2 4q0 2 2 4t4 2q2 0 4-2t2-4q0-6-6-6zm-20 20q-2 0-4 2t-2 4q0 6 6 6t6-6q0-2-2-4t-4-2zm20 19q-2 0-4 2t-2 4q0 2 2 4t4 2q2 0 4-2t2-4q0-6-6-6zm-20 20q-2 0-4 2t-2 4q0 6 6 6t6-6q0-2-2-4t-4-2zm-39-613q6 0 6-6t-6-6q-2 0-4 2t-2 4q0 6 6 6zm20 19q6 0 6-6t-6-6q-6 0-6 6 0 2 2 4t4 2zm-20 20q6 0 6-6t-6-6q-2 0-4 2t-2 4q0 6 6 6zm20 19q6 0 6-6t-6-6q-6 0-6 6 0 2 2 4t4 2zm-20 20q6 0 6-6t-6-6q-2 0-4 2t-2 4q0 6 6 6zm20 19q6 0 6-6t-6-6q-6 0-6 6 0 2 2 4t4 2zm-20 20q6 0 6-6t-6-6q-2 0-4 2t-2 4q0 6 6 6zm20 19q6 0 6-6t-6-6q-6 0-6 6t6 6zm-20 399q-2 0-4 2t-2 4q0 6 6 6t6-6q0-2-2-4t-4-2zm20 19q-2 0-4 2t-2 4q0 2 2 4t4 2q2 0 4-2t2-4q0-6-6-6zm-20 20q-2 0-4 2t-2 4q0 6 6 6t6-6q0-2-2-4t-4-2zm20 19q-2 0-4 2t-2 4q0 2 2 4t4 2q2 0 4-2t2-4q0-6-6-6zm-20 20q-2 0-4 2t-2 4q0 6 6 6t6-6q0-2-2-4t-4-2zm20 19q-2 0-4 2t-2 4q0 2 2 4t4 2q2 0 4-2t2-4q0-6-6-6zm-59-749q2 0 4-2t2-4q0-2-2-4t-4-2q-2 0-4 2t-2 4q0 2 2 4t4 2zm0 39q2 0 4-2t2-4q0-2-2-4t-4-2q-2 0-4 2t-2 4q0 2 2 4t4 2zm20 632q-2 0-4 2t-2 4q0 2 2 4t4 2q2 0 4-2t2-4q0-6-6-6zm-20 20q-2 0-4 2t-2 4q0 6 6 6t6-6q0-2-2-4t-4-2zm20 19q-2 0-4 2t-2 4q0 2 2 4t4 2q2 0 4-2t2-4q0-6-6-6zm-20 20q-2 0-4 2t-2 4q0 6 6 6t6-6q0-2-2-4t-4-2zm20 19q-2 0-4 2t-2 4q0 2 2 4t4 2q2 0 4-2t2-4q0-6-6-6zm-59-749q2 0 4-2t2-4q0-2-2-4t-4-2q-2 0-4 2t-2 4q0 2 2 4t4 2zm20 19q6 0 6-6t-6-6q-6 0-6 6 0 2 2 4t4 2zm-20 672q-2 0-4 2t-2 4q0 6 6 6t6-6q0-2-2-4t-4-2zm20 19q-2 0-4 2t-2 4q0 2 2 4t4 2q2 0 4-2t2-4q0-6-6-6zm-20 20q-2 0-4 2t-2 4q0 6 6 6t6-6q0-2-2-4t-4-2zm20 19q-2 0-4 2t-2 4q0 2 2 4t4 2q2 0 4-2t2-4q0-6-6-6zm-59-58q-6 0-6 6t6 6q6 0 6-6 0-2-2-4t-4-2zm20 19q-2 0-4 2t-2 4q0 2 2 4t4 2q2 0 4-2t2-4q0-2-2-4t-4-2zm-20 20q-6 0-6 6t6 6q6 0 6-6 0-2-2-4t-4-2zm20 19q-2 0-4 2t-2 4q0 2 2 4t4 2q2 0 4-2t2-4q0-2-2-4t-4-2zm-59-58q-6 0-6 6t6 6q6 0 6-6 0-2-2-4t-4-2zm20 19q-2 0-4 2t-2 4q0 2 2 4t4 2q2 0 4-2t2-4q0-2-2-4t-4-2zm-20 20q-6 0-6 6t6 6q6 0 6-6 0-2-2-4t-4-2zm20 19q-2 0-4 2t-2 4q0 2 2 4t4 2q2 0 4-2t2-4q0-2-2-4t-4-2zm-59-58q-6 0-6 6t6 6q6 0 6-6 0-2-2-4t-4-2zm20 19q-2 0-4 2t-2 4q0 2 2 4t4 2q2 0 4-2t2-4q0-2-2-4t-4-2zm-20 20q-6 0-6 6t6 6q6 0 6-6 0-2-2-4t-4-2zm20 19q-2 0-4 2t-2 4q0 2 2 4t4 2q2 0 4-2t2-4q0-2-2-4t-4-2zm-59-58q-6 0-6 6t6 6q6 0 6-6 0-2-2-4t-4-2zm20 19q-2 0-4 2t-2 4q0 2 2 4t4 2q2 0 4-2t2-4q0-2-2-4t-4-2zm-20 20q-6 0-6 6t6 6q6 0 6-6 0-2-2-4t-4-2zm20 19q-2 0-4 2t-2 4q0 2 2 4t4 2q2 0 4-2t2-4q0-2-2-4t-4-2zm-59-58q-6 0-6 6t6 6q6 0 6-6 0-2-2-4t-4-2zm20 19q-2 0-4 2t-2 4q0 2 2 4t4 2q2 0 4-2t2-4q0-2-2-4t-4-2zm-20 20q-6 0-6 6t6 6q6 0 6-6 0-2-2-4t-4-2zm20 19q-2 0-4 2t-2 4q0 2 2 4t4 2q2 0 4-2t2-4q0-2-2-4t-4-2zm-59-58q-3 0-5 2t-2 4q0 6 6.5 6t6.5-6q0-2-2-4t-4-2zm20 19q-6 0-6 6t6 6q2 0 4-2t2-4q0-2-2-4t-4-2zm-20 20q-3 0-5 2t-2 4q0 6 6.5 6t6.5-6q0-2-2-4t-4-2zm20 19q-6 0-6 6t6 6q2 0 4-2t2-4q0-2-2-4t-4-2zm-60-58q-2 0-4 2t-2 4q0 6 6 6 3 0 5-1.5t2-4q0-2.5-2-4.5t-5-2zm21 19q-6 0-6 6t6 6q2 0 4-2t2-4q0-2-2-4t-4-2zm-21 20q-2 0-4 2t-2 4q0 6 6 6 3 0 5-1.5t2-4q0-2.5-2-4.5t-5-2zm21 19q-6 0-6 6t6 6q2 0 4-2t2-4q0-2-2-4t-4-2zm-60-58q-2 0-4 2t-2 4q0 6 6 6t6-6q0-6-6-6zm21 19q-6 0-6 6t6 6q2 0 4-2t2-4q0-2-2-4t-4-2zm-21 20q-2 0-4 2t-2 4q0 6 6 6t6-6q0-6-6-6zm21 19q-6 0-6 6t6 6q2 0 4-2t2-4q0-2-2-4t-4-2zm-60-58q-2 0-4 2t-2 4q0 6 6 6t6-6q0-6-6-6zm21 19q-6 0-6 6t6 6q2 0 4-2t2-4q0-2-2-4t-4-2zm-21 20q-2 0-4 2t-2 4q0 6 6 6t6-6q0-6-6-6zm21 19q-6 0-6 6t6 6q2 0 4-2t2-4q0-2-2-4t-4-2zm-60-58q-2 0-4 2t-2 4q0 6 6 6t6-6q0-6-6-6zm21 19q-3 0-5 2t-2 4q0 2 2 4t4.5 2q2.5 0 4.5-2t2-4q0-2-2-4t-4-2zm-21 20q-2 0-4 2t-2 4q0 6 6 6t6-6q0-6-6-6zm21 19q-3 0-5 2t-2 4q0 2 2 4t4.5 2q2.5 0 4.5-2t2-4q0-2-2-4t-4-2zm-60-58q-2 0-4 2t-2 4q0 6 6 6t6-6q0-6-6-6zm20 19q-2 0-4 2t-2 4q0 2 2 4t4 2q2 0 4.5-2t2.5-4q0-2-2-4t-5-2zm-20 20q-2 0-4 2t-2 4q0 6 6 6t6-6q0-6-6-6zm20 19q-2 0-4 2t-2 4q0 2 2 4t4 2q2 0 4.5-2t2.5-4q0-2-2-4t-5-2zm-59-58q-2 0-4 2t-2 4q0 6 6 6t6-6q0-2-2-4t-4-2zm20 19q-2 0-4 2t-2 4q0 2 2 4t4 2q2 0 4-2t2-4q0-6-6-6zm508-613q6 0 6-6t-6-6q-6 0-6 6 0 2 2 4t4 2zm97 203q-2 0-4 2t-2 4.5q0 2.5 2 4.5t4 2q2 0 4-2t2-4.5q0-2.5-2-4.5t-4-2zm0 40q-6 0-6 6 0 2 2 4t4 2q2 0 4-2t2-4q0-6-6-6zm0 39q-6 0-6 6 0 2 2 4t4 2q2 0 4-2t2-4q0-6-6-6zm0 39q-6 0-6 6 0 2 2 4t4 2q2 0 4-2t2-4q0-6-6-6zm0 39q-6 0-6 6 0 2 2 4t4 2q2 0 4-2t2-4q0-6-6-6zm0 39q-6 0-6 6 0 2 2 4t4 2q2 0 4-2t2-4q0-6-6-6zm0 39q-2 0-4 2t-2 4q0 2 2 4t4 2q2 0 4-2t2-4q0-2-2-4t-4-2zm0 39q-2 0-4 2t-2 4q0 2 2 4t4 2q2 0 4-2t2-4q0-2-2-4t-4-2zm0 39q-2 0-4 2t-2 4q0 2 2 4t4 2q2 0 4-2t2-4q0-2-2-4t-4-2zm-19-333q-2 0-4 2t-2 4q0 6 6 6t6-6q0-6-6-6zm-20 20q-2 0-4 2t-2 4.5q0 2.5 2 4.5t4 2q2 0 4-2t2-4.5q0-2.5-2-4.5t-4-2zm20 19q-2 0-4 2t-2 4q0 6 6 6t6-6q0-6-6-6zm-20 21q-6 0-6 6 0 2 2 4t4 2q2 0 4-2t2-4q0-6-6-6zm20 18q-2 0-4 2t-2 4q0 6 6 6t6-6q0-6-6-6zm-20 21q-6 0-6 6 0 2 2 4t4 2q2 0 4-2t2-4q0-6-6-6zm20 18q-2 0-4 2t-2 4q0 6 6 6t6-6q0-6-6-6zm-20 21q-6 0-6 6 0 2 2 4t4 2q2 0 4-2t2-4q0-6-6-6zm20 18q-2 0-4 2t-2 4.5q0 2.5 2 4.5t4 2q2 0 4-2t2-5q0-6-6-6zm-20 21q-6 0-6 6 0 2 2 4t4 2q2 0 4-2t2-4q0-6-6-6zm20 18q-2 0-4 2t-2 4.5q0 2.5 2 4.5t4 2q2 0 4-2t2-4.5q0-2.5-1.5-4.5t-4.5-2zm-20 21q-6 0-6 6 0 2 2 4t4 2q2 0 4-2t2-4q0-6-6-6zm20 19q-6 0-6 6 0 2 2 4t4 2q2 0 4-2t2-4q0-6-6-6zm-20 20q-2 0-4 2t-2 4q0 2 2 4t4 2q2 0 4-2t2-4q0-2-2-4t-4-2zm20 19q-6 0-6 6 0 2 2 4t4 2q2 0 4-2t2-4q0-6-6-6zm-20 20q-2 0-4 2t-2 4q0 2 2 4t4 2q2 0 4-2t2-4q0-2-2-4t-4-2zm20 19q-6 0-6 6 0 2 2 4t4 2q2 0 4-2t2-4q0-6-6-6zm-20 20q-2 0-4 2t-2 4q0 2 2 4t4 2q2 0 4-2t2-4q0-2-2-4t-4-2zm-19-333q-2 0-4 2t-2 4q0 6 6 6t6-6q0-6-6-6zm-20 20q-2 0-4 2t-2 4.5q0 2.5 2 4.5t4 2q2 0 4-2t2-4.5q0-2.5-2-4.5t-4-2zm20 19q-2 0-4 2t-2 4q0 6 6 6t6-6q0-6-6-6zm-20 21q-6 0-6 6 0 2 2 4t4 2q2 0 4-2t2-4q0-6-6-6zm20 18q-2 0-4 2t-2 4q0 6 6 6t6-6q0-6-6-6zm-20 21q-3 0-5 3-1-1-1-3-8-29-35.5-44t-57-6q-29.5 9-44.5 36t-6 55q0 2 1 3l-3 1q-29 8-45 35-15 29-6 57 7 24 27 39t44 15q11 0 21-3 29-8 44-35.5t7-56.5l-1-3q2 0 3-1 27-7 42-30.5t11-51.5q2 2 4 2t4-2q2-2 2-4 0-6-6-6zM624 772q-24 7-45-5t-28-35q-6-19 2-38l101 57q-10 14-30 21zm38-35l-102-57q12-15 31-21 6-2 16-2 19 0 35 11.5t22 30.5q6 19-2 38zm15-61q-1 0-3 1l-3 1q-8-16-28-28-16-9-37-9l-1-1q-1-3-1-4-6-19 2-38l102 57q-13 17-31 21zm38-35l-102-56q13-17 31-22h3q9-2 13-2 20 0 36 12t21.5 31q5.5 19-2.5 37zm43-24q-2 0-4 2t-2 4q0 6 6 6t6-6q0-6-6-6zm-20 21q-6 0-6 6 0 2 2 4t4 2q2 0 4-2t2-4q0-6-6-6zm20 18q-2 0-4 2t-2 4.5q0 2.5 2 4.5t4 2q2 0 4-2t2-5q0-6-6-6zm-20 21q-6 0-6 6 0 2 2 4t4 2q2 0 4-2t2-4q0-6-6-6zm20 18q-2 0-4 2t-2 4.5q0 2.5 2 4.5t4 2q2 0 4-2t2-4.5q0-2.5-1.5-4.5t-4.5-2zm-20 21q-6 0-6 6 0 2 2 4t4 2q2 0 4-2t2-4q0-6-6-6zm20 19q-6 0-6 6 0 2 2 4t4 2q2 0 4-2t2-4q0-6-6-6zm-20 20q-2 0-4 2t-2 4q0 2 2 4t4 2q2 0 4-2t2-4q0-2-2-4t-4-2zm20 19q-6 0-6 6 0 2 2 4t4 2q2 0 4-2t2-4q0-6-6-6zm-20 20q-2 0-4 2t-2 4q0 2 2 4t4 2q2 0 4-2t2-4q0-2-2-4t-4-2zm20 19q-6 0-6 6 0 2 2 4t4 2q2 0 4-2t2-4q0-6-6-6zm-20 20q-2 0-4 2t-2 4q0 2 2 4t4 2q2 0 4-2t2-4q0-2-2-4t-4-2zm104-251V452q0-32-11.5-61.5T797 338l-45-47q-15-17-15-37v-54q27-4 44.5-23.5T799 130V71q0-29-20.5-49.5T729 1H271q-29 0-49.5 20.5T201 71v59q0 27 17.5 46.5T263 200v54q0 20-15 37l-45 47q-22 23-33.5 52.5T158 452v465q0 34 25 59t59 25h516q35 0 59.5-25t24.5-59V582zM258 846l260-217q5-4 6.5-10t-.5-11.5q-2-5.5-7-9t-11-3.5H398l106-106h228q2 5 6 5t6-5h27q2 5 6 5t6-5h27q2 5 6 5t6-5h4v357H258zm-84 0V489h193L209 647q-9 9-4 21 2 5 7 8.5t10 3.5h117L232 846h-58zm198-240q2 5 7 5h127q3 0 3.5 2t-1.5 4L271 815l89-139q2-4-.5-8t-6.5-4H222q-2 0-3-1.5t1-3.5l169-170h93L374 598q-3 3-2 8zM732 17q21 1 36 16.5T783 71v59q0 22-15 37.5T732 184V17zm-75 0h59v167h-59V17zm-74 0h58v167h-58V17zm-75 0h59v167h-59V17zm-75 0h59v167h-59V17zm-74 0h59v167h-59V17zm-75 0h59v167h-59V17zm-67 113V71q0-22 15-37.5T268 17v167q-21-1-36-16.5T217 130zm-2 219l44-47q19-20 19-48v-54h444v27h-3q-6 0-6 6 0 2 2 4t4 2q2 0 3-1v16q0 9 1 13-1-1-3.5-1t-4.5 2q-2 2-2 4t2 4q2 2 5 2t5-4q3 10 7 16v2q0 2 2 4t4 3q2 1 3 3l44 47q22 23 33 55-1-1-2.5-1t-3.5 2q-2 2-2 4 0 6 5 6t6-2q5 22 5 39v22H502l-1-1H386v1H174v-22q0-28 10.5-55t30.5-48zm603 601h-2.5q-1.5 0-3.5 2t-2 4l1 4q-4 6-10 10-1-1-3.5-1t-4.5 2q-2 2-2 4v2q-14 8-33 8H242q-14 0-27-5 2-1 2-6t-5-5q-5 0-7 6-10-8-14-13 6 0 6-6t-5-6q-5 0-7 5-6-10-8-16 1-1 1-4t-3-4q-1-5-1-14v-55h580q2 2 4.5 2t4.5-2h30q2 2 4.5 2t4.5-2h24v55q0 19-8 33z"/></svg>