<svg viewBox="0 0 1244 1083.753" xmlns="http://www.w3.org/2000/svg"><path d="M492 584q29 0 52.5-16.5t33.5-44q10-27.5 2.5-55T550 422V226q0-24-17-41t-42-17q-25 0-41.5 17T433 226v196l-4 4q-6 5-8 8H291q-24 0-41 17.5T233 493q0 24 17 41t41 17h130q28 33 71 33zm0-33q-25 0-42-17t-17-41q0-24 17-41.5t42-17.5q25 0 41.5 17t16.5 42q0 25-17 41.5T492 551zm-25-325q0-11 7.5-18t18-7q10.5 0 17.5 7t7 18v178q-26-6-50 0V226zM292 518q-10 0-17.5-7.5t-7.5-18q0-10.5 7.5-17.5t17.5-7h112q-8 24 0 50H292zm325 483h333q21 0 35.5-14.5T1000 951V694q0-25-15.5-44T945 626q-12-2-20-11.5t-8-22.5v-11q15-5 24-18t9-29v-66q0-21-14.5-35.5T900 418H667q-21 0-35.5 14.5T617 468v66q0 16 9 29t24 18v11q0 13-8 22.5T622 626q-17 4-30.5 15.5T571 669q-6-1-19-1-23 0-44 8.5T471 701L367 805q-25 25-31.5 59t6.5 66q13 32 42 51.5t64 19.5q23 0 44-9t37-25l38-37v21q0 21 14.5 35.5T617 1001zm350-117H750q-7 0-12-4.5t-5-11.5V768q0-7 5-12t12-5h217v133zM650 468q0-8 5-12.5t12-4.5h233q7 0 12 5t5 12v66q0 7-5 12t-12 5H667q-7 0-12-5t-5-12v-66zm-22 191q24-4 39.5-23.5T683 592v-8h200v8q0 24 15.5 43.5T938 659q13 2 20.5 12t7.5 23v24H750q-20 0-35 14.5T700 768v100q0 20 15 35t35 15h217v33q0 7-5 12t-12 5H617q-7 0-12-5t-5-12v-54l33-33q20-20 28-46.5t3.5-53.5q-4.5-27-20.5-49.5T603 680q3-8 10-13.5t15-7.5zm-134 66q24-24 58-24 25 0 45.5 13.5t30 36.5q9.5 23 4.5 47.5T609 840l-40 40-115-115 40-40zm12 219q-26 24-58 24-25 0-45-14t-30-37q-10-23-5-47t23-41l40-40 115 115-40 40zm-241-28q-3 0-4-1l-21-2-141-23q-9-2-16.5-8.5t-10-15.5q-2.5-9 .5-18.5T83 832l30-26q-65-77-93.5-173T3 437q12-110 70-203 57-92 147-151 92-61 201-77t214 16q103 32 183 103 83 73 126 175 8 20 1.5 40.5T920 371q-10 7-23 8.5t-25-2.5q-25-8-36-33-44-101-134-162t-199-64.5Q394 114 300 170T157 323q-49 97-38.5 206T197 724l26-27q7-7 16.5-9t18.5 1q19 8 22 28l18 162q2 14-8 25-12 12-25 12zM491 34q-12 0-37 2h-3q-85 7-161.5 45t-134 100Q98 243 66 323T33.5 488q-.5 85 29 164.5T149 796q4 5 4 12t-6 12l-42 37 140 23 20 2-18-162-40 40q-5 5-12 5t-12-6q-56-64-81.5-145T86 449q10-91 57-168.5T265 153q75-50 166-64t177.5 12q86.5 26 154 86T866 331q5 11 16 15t21-3q8-5 11-13.5t-1-16.5q-36-84-100-147T665.5 68.5Q582 34 491 34z"/></svg>