<svg viewBox="0 0 1244 1083.753" xmlns="http://www.w3.org/2000/svg"><path d="M953 485h-18q-5-14-17-22.5t-27-8.5h-63q-11-14-27-22.5t-35-8.5h-94v-47q0-20-13.5-33.5T625 329V220q0-20-13.5-33.5T578 173H422q-19 0-33 13.5T375 220v109q-19 0-33 13.5T328 376v47h-94q-19 0-35 8.5T172 454h-63q-15 0-27 8.5T65 485H47q-19 0-33 13.5T0 532v188q0 19 14 33t33 14h18q5 14 17 22.5t27 8.5h63q11 14 27 22.5t35 8.5h164q16 0 28.5-10t16.5-25l4-16q3-11 15-11h76q6 0 10 3t5 8l4 16q4 15 17 25t29 10h163q19 0 35-8.5t27-22.5h63q15 0 27-8.5t17-22.5h18q20 0 33.5-14t13.5-33V532q0-20-13.5-33.5T953 485zM406 220q0-7 4.5-11.5T422 204h156q7 0 11.5 4.5T594 220v109H406V220zm-47 156q0-7 4.5-11.5T375 360h250q7 0 11.5 4.5T641 376v47H359v-47zM31 720V532q0-6 4.5-10.5T47 517h16v218H47q-7 0-11.5-4.5T31 720zm125 47h-47q-6 0-10.5-4.5T94 751V501q0-7 4.5-11.5T109 485h47v282zm610 31H603q-6 0-10-3.5t-6-8.5l-3-15q-5-16-17.5-26T538 735h-76q-16 0-28.5 10T416 771l-3 15q-2 5-6 8.5t-9 3.5H234q-19 0-32.5-14T188 751V501q0-19 13.5-33t32.5-14h532q20 0 33.5 13.5T813 501v250q0 19-13.5 33T766 798zm125-31h-47V485h47q6 0 10.5 4.5T906 501v250q0 7-4.5 11.5T891 767zm78-47q0 6-4.5 10.5T953 735h-15V517h15q7 0 11.5 4.5T969 532v188zM438 485q-7 0-11.5 4.5T422 501v31q0 7 4.5 11.5T438 548q7 0 11-4.5t4-11.5v-31q0-7-4.5-11.5T438 485zm62 0q-7 0-11.5 4.5T484 501v31q0 7 4.5 11.5T500 548q7 0 11.5-4.5T516 532v-31q0-7-4.5-11.5T500 485zm63 0q-7 0-11.5 4.5T547 501v31q0 7 4.5 11.5T563 548q7 0 11-4.5t4-11.5v-31q0-7-4.5-11.5T563 485z"/></svg>