<svg viewBox="0 0 1244 1083.753" xmlns="http://www.w3.org/2000/svg"><path d="M848 30Q819 1 778 1t-70 29L582 157l-24-24q-24-24-57.5-24T442 133L141 435q-24 24-24 58t24 58l23 23L37 702Q8 730 8 771t29 70l116 116q29 28 70 28t69-28l127-128 24 24q24 24 58 24t58-24l301-302q24-24 24-58t-24-58l-23-23 127-127q29-29 29-70t-29-69L848 30zM269 933q-19 19-46 19t-47-19L60 817q-19-19-19-46.5T60 724l127-127 209 209-127 127zm568-405L535 829q-14 14-34.5 14T466 829L199 562l-35-34q-14-14-14-35t14-35l302-301q14-15 35-15t34 15l35 34 267 267q14 14 14 35t-14 35zm103-266L814 388 605 180 731 53q20-19 47-19t46 19l116 116q19 18 19 46t-19 47zM596 397q1-30-10.5-58T553 290q-19-18-43.5-27t-49.5-7q-55 6-91 44-17 17-30 41-24 46-26 109-3 80 30 182 5 14 19 19 81 28 169 30 62 3 122-27 22-12 41-29 27-27 37.5-61t3-66.5Q727 465 703 441q-21-21-49-32.5T596 397zM373 620q-24-75-27-137.5T360 375l30 31-9 48q-2 9 4 15t14 4l109-17-57 135q-5 9 3 17 3 4 7.5 5.5t9.5-.5l94-32 53 53q-45 17-108 13.5T373 620zm297-19q-7 8-21 17l-68-67q-6-7-16-4l-70 23 55-128q4-9-2-17t-15-6l-116 19 7-35q2-8-5-14l-44-45q7-11 17-21 28-29 71-34 18-2 35.5 4.5T529 313q19 19 28 45.5t5 53.5q-2 8 4 14.5t15 4.5q27-4 53.5 5t45.5 28q27 27 24 66.5T670 601zM523 748l-23 23-23-23q-4-5-11-5t-12 4.5q-5 4.5-5 11.5t5 12l35 35q5 5 11.5 5t11.5-5l34-35q5-5 5-12t-4.5-11.5Q542 743 535 743t-12 5zm244-568q-7-7-16-4.5T739.5 187q-2.5 9 4.5 16l46 46q5 5 11.5 5t11.5-4.5q5-4.5 5.5-11.5t-4.5-12l-47-46zm58-58q-5-5-11.5-5t-11.5 5q-5 5-5 12t5 11l46 47q7 7 15.5 5t12.5-13q1-4-.5-8.5T871 168l-46-46zM153 794q-9-7-16-4-4 1-7.5 4t-4.5 8q-3 7 4 16l47 46q5 4 11.5 4t11.5-4q5-4 5-11t-5-12l-46-47zm34-34l47 46q5 4 11.5 4t11.5-4q5-4 5-11t-5-12l-46-47q-9-7-16-4-11 4-13 11.5t5 16.5z"/></svg>