<svg viewBox="0 0 1244 1083.753" xmlns="http://www.w3.org/2000/svg"><path d="M549 780q2 0 4-2t2-4q0-2-2-4t-4-2q-2 0-4 2t-2 4q0 2 2 4t4 2zm0 40q2 0 4-2t2-4q0-2-2-4t-4-2q-6 0-6 6t6 6zm-40-52q-2 0-4 2t-2 4q0 2 2 4t4 2q2 0 4-2t2-4q0-6-6-6zm21 19q-6 0-6 6t6 6q6 0 6-6 0-2-2-4t-4-2zm-21 21q-6 0-6 6t6 6q2 0 4-2t2-4q0-6-6-6zm-40-40q-2 0-4 2t-2 4q0 2 2 4t4 2q2 0 4-2t2-4q0-6-6-6zm21 19q-2 0-4 2t-2 4q0 6 6 6t6-6q0-2-2-4t-4-2zm-21 21q-6 0-6 6t6 6q2 0 4-2t2-4q0-6-6-6zm-19-21q-2 0-4 2t-2 4q0 6 6 6t6-6q0-2-2-4t-4-2zm382-179L577 48q-10-22-30.5-34.5T500 1q-26 0-46.5 12.5T423 48L168 608q-10 23-3.5 46t26.5 38q34 25 99 41 61 16 138 21v175q0 30 21 51t51 21q30 0 51-21t21-51V754q78-5 138-21 65-16 99-41 20-15 26.5-38t-3.5-46zM437 54q8-17 25-27t38-10q21 0 38 10t25 27l229 504q-41 26-119 41t-173 15q-95 0-173-15t-119-41L437 54zm120 875q0 23-17 39.5T500 985q-23 0-40-16.5T443 929V755h1q2 4 6.5 4t5.5-4l28 1q2 3 6 3t5-3h29q2 3 6.5 3t5.5-4h21v174zm242-250q-37 28-117.5 44.5T500 740q-101 0-181.5-16.5T201 679q-16-11-21-29t3-35l19-42q43 26 122.5 41T500 629q96 0 176-15t122-41l19 42q8 17 3 35t-21 29zM389 351q-16 0-27 24-10 21-10 45 0 21 10 33t27 12q17 0 27.5-12t10.5-33q0-23-10-45-12-24-28-24zm243 189q17 0 27-12t10-35q0-23-10-44-11-23-27-23t-28 23q-10 22-10 44.5t10 34.5q10 12 28 12zM530 314q17 0 27-12t10-35q0-23-10-44-11-23-27-23t-28 23q-10 22-10 44.5t10 34.5q10 12 28 12z"/></svg>