<svg viewBox="0 0 1244 1083.753" xmlns="http://www.w3.org/2000/svg"><path d="M904 512q-2 0-4 2t-2 4q0 2 2 4t4 2q6 0 6-6t-6-6zm0 168q6 0 6-6t-6-6q-3 0-5 3v-1q-1 0-1-.5v-.5h-.5q-.5 0-.5-1h-1l-1-1H576q0 1-1 1h-1v1h-1v1h-1v1q0 1-.5 1h-.5v3l3 100q2 99 5 149-1-3-5-3-6 0-6 6 0 2 2 4t5 2q3 0 5-4l1 18 1 2q1 2 2 3l1 2q4 5 6.5 7t6.5 2h9v2q0 3 2 5t4 2q2 0 4-2t2-5v-1h27v1q0 3 2 5t4 2q2 0 4-2t2-5v-1q9 1 27 1 0 3 2 5t4 2q2 0 4-2t2-5h27q0 3 2 5t4 2q2 0 4-2t2-5h27q0 7 6 7t6-7q18 0 27-1v1q0 7 6 7t6-7v-1l27-1v2q0 7 6 7t6-7l-1-3 20-1q9 0 15-8t6-17l3-101q2-54 2-82 2 5 7 5t5-6q0-6-6-6-2 0-3.5 1.5T899 750v-34q2 3 5 3 6 0 6-6t-6-6q-1 0-4 1l-1 1q1-10 1-31 2 2 4 2zm-27 256q0 3-2 6t-3 3h-1v-1q0-1-2-2t-5-1q-3 0-5 5-9 1-27 1h1q0-6-6.5-6t-6.5 6q0 1 1 1l-28 1 1-2q0-6-6-6-3 0-5 1.5t-2 4.5l1 2h-28l1-2q0-6-6-6t-6 6v3q-19 0-28-1l1-2q0-6-6-6t-6 6v2h-28q1-1 1-2 0-6-6-6t-6 6v2l-27-1v-1q0-6-6-6t-6 6v1q-17 0-26-1-1 0-1-1l-1-2q-1 0-1-1-2-20-2-29 4-2 4-5t-1.5-5q-1.5-2-3.5-2-3-42-5-127v-1q0-31-2-91h297v4q-4 1-4 6t4 6q0 18-1 27-3 1-3 5t3 6q0 19-1 29-2 2-2 4t1 5l1 1-5 160zm27-112q-2 0-4 2t-2 4q0 2 2 4t4 2q2 0 4-2t2-4q0-6-6-6zm0 39q-2 0-4 2t-2 4q0 2 2 4t4 2q2 0 4-2t2-4q0-6-6-6zm0 39q-6 0-6 6t6 6q2 0 4-2t2-4q0-6-6-6zm0 39q-6 0-6 6t6 6q2 0 4-2t2-4q0-6-6-6zm-18-476q6 0 6-6 0-2-2-4t-4-2q-6 0-6 6t6 6zm-21 20q6 0 6-6t-6-6q-6 0-6 6t6 6zm21 19q2 0 4-2t2-4q0-2-2-4t-4-2q-6 0-6 6t6 6zm-21 20q6 0 6-6t-6-6q-6 0-6 6 0 2 2 4t4 2zm21 19q2 0 4-2t2-4q0-2-2-4t-4-2q-6 0-6 6t6 6zm-21 20q6 0 6-6t-6-6q-6 0-6 6t6 6zm21 19q2 0 4-2t2-4q0-2-2-4t-4-2q-6 0-6 6t6 6zm-21 20q6 0 6-6t-6-6q-6 0-6 6 0 2 2 4t4 2zm21 19q2 0 4-2t2-4q0-2-2-4t-4-2q-6 0-6 6t6 6zm-21 20q6 0 6-6t-6-6q-6 0-6 6 0 2 2 4t4 2zm21 19q2 0 4-2t2-4q0-2-2-4t-4-2q-6 0-6 6t6 6zm0 299q-6 0-6 6 0 3 1.5 5t4.5 2q6 0 6-6.5t-6-6.5zm-39-455q2 0 4-2t2-4q0-2-2-4t-4-2q-2 0-4 2t-2 4q0 6 6 6zm0 78q2 0 4-2t2-4q0-2-2-4t-4-2q-2 0-4 2t-2 4q0 6 6 6zm0 78q2 0 4-2t2-4q0-2-2-4t-4-2q-2 0-4 2t-2 4q0 6 6 6zm18 47q-2 0-4 2t-2 4q0 2 2 4t4 2q2 0 4-2t2-4q0-6-6-6zm0 39q-2 0-4 2t-2 4q0 2 2 4t4 2q2 0 4-2t2-4q0-6-6-6zm0 39q-2 0-4 2t-2 4q0 2 2 4t4 2q2 0 4-2t2-4q0-6-6-6zm0 39q-2 0-4 2t-2 4q0 2 2 4t4 2q2 0 4-2t2-4q0-6-6-6zm0 39q-2 0-4 2t-2 4q0 2 2 4t4 2q2 0 4-2t2-4q0-6-6-6zm0 39q-6 0-6 6t6 6q2 0 4-2t2-4q0-6-6-6zm-18-137q-6 0-6 6t6 6q6 0 6-6t-6-6zm0 78q-6 0-6 6t6 6q6 0 6-6t-6-6zm-21 59q-6 0-6 6t6 6q2 0 4.5-2t2.5-4q0-2-2-4t-5-2zm21 19q-6 0-6 6t6 6q6 0 6-6t-6-6zm-59-19q-7 0-7 6t7 6q2 0 4-2t2-4q0-6-6-6zm20 19q-6 0-6 6t6 6q6 0 6-6t-6-6zm-59-19q-6 0-6 6t6 6q2 0 4-2t2-4q0-2-2-4t-4-2zm20 19q-6 0-6 6t6 6q6 0 6-6t-6-6zm-59-19q-6 0-6 6t6 6q6 0 6-6 0-2-2-4t-4-2zm20 19q-6 0-6 6 0 2 2 4t4 2q2 0 4-2t2-4q0-6-6-6zm-59-19q-6 0-6 6t6 6q6 0 6-6 0-2-2-4t-4-2zm20 19q-6 0-6 6 0 2 2 4t4 2q2 0 4-2t2-4q0-6-6-6zm-59-19q-6 0-6 6t6 6q6 0 6-6 0-2-2-4t-4-2zm20 19q-6 0-6 6 0 2 2 4t4 2q2 0 4-2t2-4q0-6-6-6zm-39 0q-6 0-6 6 0 2 2 4t4 2q2 0 4-2t2-4q0-6-6-6zm214-58q-2 0-4 2t-2 4q0 2 2 4t4 2q2 0 4-2t2-4q0-2-2-4t-4-2zM431 301q0 6 6 6t6-6q0-6-6-6-2 0-4 2t-2 4zm6 33q-2 0-4 2t-2 4q0 2 2 4t4 2q6 0 6-6t-6-6zm0 39q-2 0-4 2t-2 4q0 2 2 4t4 2q6 0 6-6t-6-6zm0 402q2 0 4-2t2-4q0-6-6-6t-6 6q0 2 2 4t4 2zm0 39q2 0 4-2t2-4q0-2-2-4t-4-2q-6 0-6 6 0 2 2 4t4 2zm0 39q2 0 4-2t2-4q0-6-6-6t-6 6q0 2 2 4t4 2zm-19-578q-2 0-4 2t-2 4q0 2 2 4t4 2q6 0 6-6t-6-6zm6 45q0-4-5-6-2-12-3.5-18t-8.5-6H109q-6 0-8 6-8 29-8 57v75q0 22 6 45 10 42 10.5 109T102 690q-4 19-7 52-2 29-2 53l10 119q2 20 15 32.5t31 12.5h11q-1 1-1 4 0 6 6 6t6-6q0-2-2-4h30q-2 2-2 4 0 6 6 6 3 0 5-1.5t2-4q0-2.5-2-4.5h30q-2 2-2 4 0 6 6 6t6-6q0-3-1-4h30q-2 2-2 4 0 6 6 6t6-6q0-3-1-4h30q-2 2-2 4 0 6 6 6t6-6q0-3-1-4h30q-2 2-2 4 0 6 6 6t6-6q0-3-1-4h3q18 0 31-13t14-32l1-7q2 3 5 3 6 0 6-6t-6-6q-3 0-5 3l3-30h2q6 0 6-6t-6-6q-1 0-1 1l2-28q2 0 3.5-2t1.5-4q0-5-4-5l3-29q1-2 1-4.5t-1-3.5l-1-30 1-1q1-3 1-6t-3-4l-3-27q6 0 6-6t-6-6h-1l-3-22q-7-37-6-97t8-103h2q6 0 6-6 0-2-1.5-4t-3.5-2v-1q4-17 4-41v-75q0-10-2-28 3-2 3-5zm-17 108q0 21-4 38l-4 24h-1q-2 0-4 2t-2 4q0 2 2 4t4 2l-3 28q-3 1-3 4.5t2 5.5q-3 57 0 107l-1 1q-1 3-1 5t3 4l3 28q-6 0-6 6t6 6h2l4 30q-1-3-6.5-3t-5.5 6q0 6 5 6t7-5q3 31 3 57l-4 54q-2-1-5-1-6 0-6 6t6 6q2 0 4-2l-3 29h-1q-6 0-6 6t6 6l-1 20-2 7q-3 1-3 6l1 2q-6 8-10 11l-4-1q-4 0-6 6l-6 1h-20v-1q0-2-2-4t-4.5-2q-2.5 0-4.5 2t-2 4q0 1 1 1h-27v-1q0-2-2-4t-4-2q-2 0-4 2t-2 4v1h-27v-1q0-2-2-4t-4-2q-2 0-4 2t-2 4v1h-27v-1q0-2-2-4t-4-2q-2 0-4 2t-2 4v1h-27v-1q0-2-2-4t-4-2q-2 0-4 2t-2 4v1h-27v-1q0-2-2-4t-4-2q-2 0-4 1.5t-2 3.5q-8-3-15-11h1q2 0 4-2t2-4q0-2-2-4.5t-4.5-2.5q-2.5 0-4.5 3-2-6-2-9l-10-118q0-22 2-51 3-33 6-50 9-43 8-111.5T114 469q-5-23-5-41v-75q0-25 6-47h279q1 1 4 1t4-1q5 25 5 47v75zm11 81q-2 0-4 2t-2 4q0 2 2 4t4 2q2 0 4-2t2-4q0-6-6-6zm0 39q-6 0-6 6t6 6q2 0 4-2t2-4q0-6-6-6zm0 39q-6 0-6 6t6 6q2 0 4-2t2-4q0-6-6-6zm0 39q-6 0-6 6 0 2 2 4t4 2q2 0 4-2t2-4q0-6-6-6zm0 39q-6 0-6 6t6 6q2 0 4-2t2-4q0-6-6-6zm0 272q-2 0-4 2t-2 4q0 2 2 4t4 2q6 0 6-6t-6-6zm-20 20q-2 0-4 2t-2 4q0 2 2 4t4 2q6 0 6-6t-6-6zm-19-748q6 0 6-6t-6-6q-6 0-6 6t6 6zM126 957q-6 0-6 6t6 6q6 0 6-6t-6-6zm-39-39q-6 0-6 6.5t6 6.5q2 0 4-2t2-4.5q0-2.5-2-4.5t-4-2zm20 19q-2 0-4 2t-2 4q0 2 2 4t4 2q6 0 6-6t-6-6zm272-689q6 0 6-6t-6-6q-6 0-6 6 0 2 2 4t4 2zm0 39q6 0 6-6t-6-6q-6 0-6 6 0 2 2 4t4 2zm19 47q-2 0-4 2t-2 4q0 2 2 4t4 2q6 0 6-6t-6-6zm0 39q-2 0-4 2t-2 4q0 2 2 4t4 2q6 0 6-6t-6-6zm0 78q-2 0-4 2t-2 4q0 6 6 6t6-6q0-6-6-6zm0 324q6 0 6-6t-6-6q-6 0-6 6 0 2 2 4t4 2zm0 27q-6 0-6 6t6 6q2 0 4-2t2-4q0-6-6-6zm-19-410q-2 0-4 2t-2 4q0 2 2 4t4 2q2 0 4-2t2-4q0-6-6-6zm0-39q-2 0-4 2t-2 4q0 2 2 4t4 2q2 0 4-2t2-4q0-6-6-6zm0-39q-2 0-4 2t-2 4q0 2 2 4t4 2q6 0 6-6t-6-6zm0 117q-2 0-4 2t-2 4q0 2 2 4t4 2q2 0 4-2t2-4q0-6-6-6zm0 39q-2 0-4 2t-2 4q0 2 2 4t4 2q2 0 4-2t2-4q0-6-6-6zm0 39q-2 0-4 2t-2 4q0 2 2 4t4 2q2 0 4-2t2-4q0-6-6-6zm0 39q-6 0-6 6t6 6q2 0 4-2t2-4q0-6-6-6zm0 39q-6 0-6 6t6 6q2 0 4-2t2-4q0-6-6-6zm0 39q-6 0-6 6 0 2 2 4t4 2q2 0 4-2t2-4q0-6-6-6zm0 39H146q-3 0-5.5 2t-2.5 6q0 4 2.5 6t5.5 2h224q5 0 7-5l2 1q6 0 6-6t-6-6zm0 116q-2 0-4 2t-2 4q0 2 2 4t4 2q6 0 6-6t-6-6zm0 39q-2 0-4 2t-2 4q0 2 2 4t4 2q6 0 6-6t-6-6zm0 39q-2 0-4 2t-2 4q0 2 2 4t4 2q6 0 6-6t-6-6zm0 39q-2 0-4 2t-2 4q0 2 2 4t4 2q6 0 6-6t-6-6zm-20 20q-2 0-4 2t-2 5q0 6 6 6t6-6.5q0-6.5-6-6.5zm-39 0q-2 0-4 2t-2 5q0 6 6 6 2 0 4-2t2-4q0-7-6-7zm-39 0q-2 0-4 2t-2 5q0 6 6 6 2 0 4-2t2-4q0-7-6-7zm-39 0q-2 0-4 2t-2 5q0 6 6 6t6-6.5q0-6.5-6-6.5zm-39 0q-2 0-4 2t-2 5q0 6 6 6 2 0 4.5-2t2.5-4.5q0-2.5-2-4.5t-5-2zm-38 0q-6 0-6 6.5t6 6.5q6 0 6-6 0-3-2-5t-4-2zm214-176q-2 0-4 2t-2 4.5q0 2.5 2 4.5t4 2q2 0 4-2t2-5q0-6-6-6zm0-39q-2 0-4 2t-2 5q0 6 6 6 2 0 4-2t2-4q0-7-6-7zm565-267q-2-2-6-2H532q-3 0-5.5 2t-1.5 6l18 531q1 12 9 20t20 8h327q12 0 20-8t9-20l18-531q0-4-2-6zm-32 537q0 5-4 8-1-1-4.5-1t-5.5 5h-27q0-5-5-5t-7 5h-27q0-5-5-5t-7 5h-26q-2-5-5-5t-5 1.5q-2 1.5-2 3.5h-27q-2-5-5-5t-5 1.5q-2 1.5-2 3.5h-27q-2-5-7-5t-5 5h-27q-2-5-5-5t-5 1.5q-2 1.5-2 3.5h-27q0-2-2-3.5t-4-1.5q-2 0-4 1.5t-2 3.5h-27q0-2-2-3.5t-4-1.5q-2 0-4 1.5t-2 3.5h-15q-5 0-9-3.5t-4-8.5l-2-60q3-2 3-5.5t-4-5.5l-15-453h389v8q-2-4-5-4-6 0-6 6t6 6q4 0 5-3l-1 32q-2-2-4.5-2t-4.5 2q-2 2-2 4t2 4q2 2 4.5 2t3.5-1l-1 29q-1-1-3-1t-4 2q-2 2-2 4t2 4q2 2 5 2h2l-1 27h-1q-3 0-5 2t-2 4q0 2 2 4t5 2h1l-1 27q-6 0-6 6 0 2 1.5 4t3.5 2l-1 27q-4 2-4 6.5t4 5.5l-1 27q-3 1-3 5t3 6l-10 275zM342 144q18-15 18-38V50q0-20-14-34.5T312 1H205q-20 0-34.5 14.5T156 50v56q0 23 18 38-54 24-87 74.5T54 330v83q0 26 7 50 12 47 13 121.5T64 703q-5 21-8 58-2 31-2 58l12 132q2 22 18 36t37 14h273q22 0 37.5-14t17.5-36l14-139q0-22-4-58-3-33-8-59-8-45-6.5-118T457 459q6-23 6-46v-83q0-61-33.5-111.5T342 144zm-170-38V50q0-14 9.5-23.5T205 17h107q14 0 23.5 9.5T345 50v56q0 13-9.5 23T312 139H205q-14 0-23.5-9.5T172 106zm275 307q0 19-5 41-1-3-4-3t-5 2q-2 2-2 4 0 6 6 6 2 0 3-1l-5 28q-4 2-4 5.5t3 5.5q-5 45-5.5 97t4.5 88q-2 2-2 4.5t1.5 4q1.5 1.5 2.5 1.5l5 28h-3q-6 0-6 6t6 6q2 0 4-2 6 56 6 78l-7 68h-3q-6 0-6 6t6 6l2-1-3 28q-5 0-5 6 0 3 4 5l-2 20q-2 17-14 26h-1q-2 0-3.5 1.5T413 981q-8 4-19 4h-9v-3q0-6-6-6t-6 6l1 3h-28l1-3q0-2-2-4t-4.5-2q-2.5 0-4.5 2t-2 4l1 3h-28l1-3q0-2-2-4t-4-2q-2 0-4 2t-2 4v3h-28l1-3q0-2-2-4t-4-2q-2 0-4 2t-2 4v3h-28l1-3q0-2-2-4t-4-2q-2 0-4 2t-2 4q0 2 1 3h-29l1-3q0-2-2-4t-4-2q-2 0-4 2t-2 4q0 2 1 3h-29q1-1 1-3t-2-4q-2-2-4-2t-4 2q-2 2-2 4t1 3h-20q-6 0-8-1v-2q0-2-2-4t-5-2q-3 0-5 4-9-6-12-11 4-2 4-5t-2-5q-2-2-4-2l-3 1-1-2q-1-4-1-6L70 819q0-26 2-56 3-37 8-56 11-47 10-123T76 459q-6-23-6-46v-83q0-60 34.5-108.5T194 153q3 1 11 1h107q7 0 11-1 32 12 58 34t42 51l-1-1q-3-1-4.5-1t-3.5 2q-2 2-2 4t2 4q2 2 4 2 6 0 6-6v-1l9 18q-2 2-2 4 0 5 5 5 11 31 11 62v83zM146 615h224q4 0 6-2.5t2-5.5q0-3-2-5.5t-6-2.5H146q-3 0-5.5 2.5T138 607q0 3 2.5 5.5t5.5 2.5zm0-66h224q8 0 8-8t-8-8H146q-3 0-5.5 2.5t-2.5 6q0 3.5 2.5 5.5t5.5 2z"/></svg>