<svg viewBox="0 0 1244 1083.753" xmlns="http://www.w3.org/2000/svg"><path d="M599 528l-69-24V367q0-7-4-11.5t-10.5-6q-6.5-1.5-12 1T495 359L390 577q-3 8 0 15.5t12 10.5l68 21v140q0 7 4 11.5t10 6.5q2 1 4 1 5 0 10-3t7-8l105-218q3-8 0-15.5T599 528zm-92 155v-73q0-6-3.5-11t-9.5-7l-61-18 60-126v69q0 6 3.5 11t9.5 6l61 22-60 127zm214 3l-6-18q-13-42-18-63-9-34-9-55.5t8-45.5q5-15 18-40 12-23 18-38 8-22 8-41V250q0-33-20.5-58T668 159v-7q0-28-20-48t-48-20h-53V38h2q8 0 13-5.5t5-13q0-7.5-5.5-13T549 1h-98q-8 0-13 5.5T433 20q0 8 5 13t13 5h2v46h-53q-28 0-48 20t-20 48v7q-31 8-51.5 33T260 250v135q0 19 8 41 6 15 18 38 13 25 18 40 8 24 8 45.5t-9 55.5q-5 21-18 63l-6 18q-9 31-13 47-6 24-6 40v135q0 38 27.5 65.5T353 1001h294q38 0 65.5-27.5T740 908V773q0-16-6-40-4-16-13-47zM490 38h20v46h-20V38zM369 152q0-13 9-22t22-9h200q13 0 22 9t9 22v5H369v-5zm-71 621v-5h60q8 0 13.5-5.5t5.5-13q0-7.5-5.5-13T358 731h-53l6-21h47q8 0 13.5-5.5t5.5-13q0-7.5-5.5-13T358 673h-36q3-7 7-21h29q8 0 13.5-5.5t5.5-13q0-7.5-5.5-13T358 615h-18q10-46 10-66l-1-17h9q8 0 13.5-5.5T377 513q0-8-5.5-13t-13.5-5h-18q-2-7-8-21h26q8 0 13.5-5.5t5.5-13q0-7.5-5.5-13T358 437h-44l-10-20h54q8 0 13.5-6t5.5-13.5q0-7.5-5.5-13T358 379h-60V250q0-23 16-39.5t39-16.5h294q23 0 39.5 16.5T703 250v129h-61q-7 0-12.5 5.5T624 398q0 8 5.5 13.5T642 417h54l-10 20h-44q-7 0-12.5 5.5t-5.5 13q0 7.5 5.5 13T642 474h26l-8 21h-18q-7 0-12.5 5t-5.5 13q0 8 5.5 13.5T642 532h10q-1 6-1 17 0 28 10 66h-19q-7 0-12.5 5.5t-5.5 13q0 7.5 5.5 13T642 652h29q4 14 7 21h-36q-8 0-13 5.5t-5 13.5q0 8 5 13t13 5h47l6 21h-53q-7 0-12.5 5t-5.5 13q0 8 5 13.5t13 5.5h60l1 5v76H298v-76zm405 135q0 23-16.5 39.5T647 964H353q-23 0-39-16.5T298 908v-22h405v22z"/></svg>