<svg viewBox="0 0 1244 1083.753" xmlns="http://www.w3.org/2000/svg"><path d="M750 501q-68 0-125.5 33.5t-91 91Q500 683 500 751t33.5 125.5q33.5 57.5 91 91T750 1001q68 0 125.5-33.5t91-91Q1000 819 1000 751t-33.5-125.5q-33.5-57.5-91-91T750 501zm0 467q-59 0-109-29t-79-79q-29-50-29-109t29-109q29-50 79-79t109-29q59 0 109 29t79 79q29 50 29 109t-29 109q-29 50-79 79t-109 29zm122-329L667 844l-55-55q-5-5-12-5t-11.5 5q-4.5 5-4.5 12t4 12l67 67q5 4 12 4t11-4l217-217q5-5 5-12t-4.5-12q-4.5-5-11.5-5t-12 5zM450 447V311q0-55-33-99t-85-60q-17-8-28-22 13-6 21-18.5t8-27.5V51q0-21-14.5-35.5T283 1H183q-20 0-35 14.5T133 51v33q0 15 8 27.5t22 18.5q-12 15-27 22-53 16-86 60.5T17 312v135Q0 462 0 484v34q0 18 13 33-13 15-13 33v34q0 18 13 33-13 15-13 33v34q0 22 17 37v179q0 28 19.5 47.5T83 1001h300q28 0 47.5-19.5T450 934V755q16-16 16-37v-34q0-20-13-33 13-13 13-33v-34q0-20-13-33 13-13 13-34v-33q2-21-16-37zM167 51q0-7 4.5-12t11.5-5h100q7 0 12 5t5 12v33q0 7-5 12t-12 5H183q-7 0-11.5-5T167 84V51zm-20 132q36-14 51-49h71q7 17 21 30t31 20q43 13 69.5 48.5T417 312v45l-43-21q-34-17-73.5-17T226 336q-28 14-59 14t-59-14l-57-28q1-44 28-78.5t68-46.5zm270 751q0 14-10 24t-24 10H83q-14 0-23.5-10T50 934V768h50q7 0 12-5t5-12q0-7-5-11.5t-12-4.5H50q-7 0-12-5t-5-12v-33q0-7 5-12t12-5h50q7 0 12-5t5-12q0-7-5-11.5t-12-4.5H50q-7 0-12-5t-5-12v-33q0-7 5-12t12-5h50q7 0 12-4.5t5-11.5q0-7-5-12t-12-5H50q-7 0-12-5t-5-12v-33q0-7 5-12t12-5h50q7 0 12-4.5t5-11.5q0-7-5-12t-12-5H50v-90l43 22q35 17 74 17t74-17q28-14 59-14t59 14l58 28v40H200q-7 0-12 5t-5 12q0 7 5 11.5t12 4.5h217q7 0 11.5 5t4.5 12v33q0 7-4.5 12t-11.5 5H200q-7 0-12 5t-5 12q0 7 5 11.5t12 4.5h217q7 0 11.5 5t4.5 12v33q0 7-4.5 12t-11.5 5H200q-7 0-12 4.5t-5 11.5q0 7 5 12t12 5h217q7 0 11.5 5t4.5 12v33q0 7-4.5 12t-11.5 5H200q-7 0-12 4.5t-5 11.5q0 7 5 12t12 5h217v166zm-300-83q0-7-5-12t-12-5q-7 0-12 5t-5 12v67q0 7 5 11.5t12 4.5h133q7 0 12-4.5t5-12q0-7.5-4.5-12T233 901H117v-50zM604 1q-23 0-37.5 17.5T555 57l42 366q2 20 16.5 32.5T647 468h207q19 0 33.5-13t15.5-32l43-366q2-24-13-39-17-17-37-17H604zm266 419q-1 6-5.5 10t-10.5 4H646q-6 0-10.5-4t-5.5-10l-22-184 22 12q30 18 64.5 18t63.5-18q23-12 47.5-12t46.5 12l35 22-17 150zm43-367l-21 180-22-13q-30-17-64.5-17T741 220q-21 13-46.5 13T648 220l-44-26-16-141q-1-8 4-13.5t12-5.5h292q9 0 13 5t4 14zM750 368h-59l-6-53q-1-7-6-11t-12-3q-7 1-11.5 6t-3.5 12l8 67q1 7 5.5 11t10.5 4h74q7 0 12-5t5-12q0-7-5-11.5t-12-4.5z"/></svg>