<svg viewBox="0 0 1244 1083.753" xmlns="http://www.w3.org/2000/svg"><path d="M887 640q-6 0-6 6t6 6q2 0 4.5-2t2.5-4q0-2-2-4t-5-2zm0 40q-6 0-6 6 0 2 2 4t4 2q2 0 4.5-2t2.5-4q0-6-7-6zm0 39q-2 0-4 2t-2 5q0 6 6 6 2 0 4.5-2t2.5-4.5q0-2.5-2-4.5t-5-2zm0 40q-2 0-4 2t-2 5q0 6 6 6 2 0 4.5-2t2.5-4.5q0-2.5-2-4.5t-5-2zm0 40q-2 0-4 2t-2 4.5q0 2.5 2 4.5t4 2q2 0 4.5-2t2.5-4.5q0-2.5-2-4.5t-5-2zm0 40q-2 0-4 2t-2 4q0 2 2 4.5t4 2.5q2 0 4.5-2t2.5-4.5q0-2.5-2-4.5t-5-2zm0 40q-2 0-4 2t-2 4q0 2 2 4t4.5 2q2.5 0 4.5-1.5t2-4.5q0-6-7-6zm0 40q-2 0-4 2t-2 4q0 6 6 6 3 0 5-1.5t2-4q0-2.5-2-4.5t-5-2zm-40-598q-6 0-6 6 0 2 2 4t4 2q2 0 4.5-2t2.5-4q0-6-7-6zm21 19q-2 0-4 2t-2 4q0 2 2 4t4 2q2 0 4-2t2-4q0-6-6-6zm-21 21q-6 0-6 6t6 6q2 0 4.5-2t2.5-4q0-2-2-4t-5-2zm21 19q-6 0-6 6 0 2 2 4t4 2q2 0 4-2t2-4q0-6-6-6zm-21 20q-2 0-4 2t-2 5q0 6 6 6 2 0 4.5-2t2.5-4q0-2-2-4.5t-5-2.5zm21 20q-6 0-6 6t6 6q2 0 4-2t2-4q0-6-6-6zm-21 20q-2 0-4 2t-2 4.5q0 2.5 2 4.5t4 2q2 0 4.5-2t2.5-4.5q0-2.5-2-4.5t-5-2zm21 19q-2 0-4 2t-2 4.5q0 2.5 2 4.5t4 2q2 0 4-2t2-4q0-7-6-7zm-21 21q-2 0-4 2t-2 4q0 2 2 4.5t4 2.5q2 0 4.5-2t2.5-5q0-6-7-6zm21 19q-2 0-4 2t-2 4.5q0 2.5 2 4.5t4 2q2 0 4-2t2-4q0-7-6-7zm-21 21q-2 0-4 2t-2 4q0 2 2 4t4.5 2q2.5 0 4.5-1.5t2-4.5q0-6-7-6zm21 19q-2 0-4 2t-2 4q0 2 2 4.5t4 2.5q2 0 4-2t2-5q0-6-6-6zm-21 21q-2 0-4 2t-2 4q0 6 6 6 3 0 5-1.5t2-4q0-2.5-2-4.5t-5-2zm0 40q-2 0-4 2t-2 4q0 2 2 4t4 2q2 0 4.5-2t2.5-4q0-2-2-4t-5-2zm21 19q-2 0-4 2t-2 4q0 6 6 6t6-6q0-6-6-6zm-21 21q-6 0-6 6t6 6q2 0 4.5-2t2.5-4q0-2-2-4t-5-2zm21 19q-2 0-4 2t-2 4q0 2 2 4t4 2q2 0 4-2t2-4q0-6-6-6zm-21 21q-6 0-6 6 0 2 2 4t4 2q2 0 4.5-2t2.5-4q0-6-7-6zm21 19q-2 0-4 2t-2 4q0 2 2 4t4 2q2 0 4-2t2-4q0-6-6-6zm0 40q-6 0-6 6 0 2 2 4t4 2q2 0 4-2t2-4q0-6-6-6zm0 40q-6 0-6 6t6 6q2 0 4-2t2-4q0-6-6-6zm0 39q-2 0-4 2t-2 4.5q0 2.5 2 4.5t4 2q2 0 4-2t2-4q0-7-6-7zm0 40q-2 0-4 2t-2 4.5q0 2.5 2 4.5t4 2q2 0 4-2t2-4q0-7-6-7zm-21 21q-2 0-4 2t-2 4q0 2 2 4t4.5 2q2.5 0 4.5-1.5t2-4.5q0-6-7-6zm21 19q-2 0-4 2t-2 4q0 2 2 4.5t4 2.5q2 0 4-2t2-5q0-6-6-6zm-21 21q-2 0-4 2t-2 4q0 6 6 6 3 0 5-1.5t2-4q0-2.5-2-4.5t-5-2zm21 19q-2 0-4 2t-2 4.5q0 2.5 2 4.5t4 2q2 0 4-2t2-5q0-6-6-6zm-21 21q-2 0-4 2t-2 4q0 2 2 4t4 2q2 0 4.5-2t2.5-4q0-2-2-4t-5-2zm-19-647q6 0 6-6t-6-6q-6 0-6 6 0 2 2 4t4 2zm0 40q6 0 6-6t-6-6q-6 0-6 6 0 2 2 4t4 2zm0 40q6 0 6-6t-6-6q-6 0-6 6 0 2 2 4t4 2zm0 546q-2 0-4 2t-2 4.5q0 2.5 2 4.5t4 2q2 0 4-2t2-5q0-6-6-6zm-20 21q-3 0-5 2t-2 4q0 2 2 4t5 2q6 0 6-6 0-2-2-4t-4-2zm-20-21q-2 0-4 2t-2 4.5q0 2.5 2 4.5t4.5 2q2.5 0 4.5-2t2-4.5q0-2.5-2-4.5t-5-2zm-20 21q-3 0-5 2t-2 4q0 2 2 4t5 2q6 0 6-6 0-2-2-4t-4-2zm-20-21q-2 0-4 2t-2 4.5q0 2.5 2 4.5t4.5 2q2.5 0 4.5-2t2-4.5q0-2.5-2-4.5t-5-2zm-20 21q-6 0-6 6t6 6q6 0 6-6 0-2-2-4t-4-2zm-19-21q-3 0-5 2t-2 4.5q0 2.5 2 4.5t5 2q6 0 6-7 0-2-2-4t-4-2zm-21 21q-2 0-4 2t-2 4q0 2 2 4t4 2q2 0 4-2t2-4q0-2-2-4t-4-2zm-19-21q-6 0-6 6.5t6 6.5q6 0 6-7 0-2-2-4t-4-2zm-21 21q-2 0-4 2t-2 4q0 2 2 4t4 2q2 0 4-2t2-4q0-2-2-4t-4-2zm-19-21q-6 0-6 6.5t6 6.5q6 0 6-7 0-2-2-4t-4-2zm-21 21q-2 0-4 2t-2 4q0 2 2 4t4 2q2 0 4-2t2-4q0-6-6-6zm-19-21q-2 0-4 2t-2 4.5q0 2.5 2 4.5t4 2q2 0 4-2t2-4.5q0-2.5-2-4.5t-4-2zm-21 21q-2 0-4 2t-2 4q0 2 2 4t4 2q2 0 4-2t2-4q0-6-6-6zm-19-21q-2 0-4 2t-2 4.5q0 2.5 2 4.5t4 2q2 0 4-2t2-4.5q0-2.5-2-4.5t-4-2zm-21 21q-2 0-4 2t-2 4q0 2 2 4t4 2q2 0 4.5-2t2.5-4q0-2-2-4t-5-2zm-19-21q-2 0-4 2t-2 4.5q0 2.5 2 4.5t4 2q2 0 4-2t2-5q0-6-6-6zm-20 21q-3 0-5 2t-2 4q0 2 2 4t5 2q6 0 6-6 0-2-2-4t-4-2zm-20-21q-2 0-4 2t-2 4.5q0 2.5 2 4.5t4 2q2 0 4.5-2t2.5-4.5q0-2.5-2-4.5t-5-2zm-20 21q-3 0-5 2t-2 4q0 2 2 4t5 2q6 0 6-6 0-2-2-4t-4-2zm-20-21q-2 0-4 2t-2 4.5q0 2.5 2 4.5t4 2q2 0 4.5-2t2.5-4.5q0-2.5-2-4.5t-5-2zm-20 21q-6 0-6 6t6 6q6 0 6-6 0-2-2-4t-4-2zm-19-21q-3 0-5 2t-2 4.5q0 2.5 2 4.5t5 2q6 0 6-7 0-2-2-4t-4-2zm-21 21q-6 0-6 6t6 6q6 0 6-6 0-2-2-4t-4-2zm-19-21q-3 0-5 2t-2 4.5q0 2.5 2 4.5t5 2q6 0 6-7 0-2-2-4t-4-2zm-21 21q-2 0-4 2t-2 4q0 2 2 4t4 2q2 0 4-2t2-4q0-2-2-4t-4-2zm-19-21q-6 0-6 6.5t6 6.5q6 0 6-7 0-2-2-4t-4-2zm-21-19q-2 0-4 2t-2 4q0 6 6 6t6-6q0-6-6-6zm40 0q-2 0-4 2t-2 4q0 6 6 6t6-6q0-2-2-4t-4-2zm40 0q-6 0-6 6t6 6q6 0 6-6 0-2-2-4t-4-2zm120 0q-3 0-5 2t-2 4q0 6 6.5 6t6.5-6q0-2-2-4t-4-2zm39 0q-2 0-4 2t-2 4q0 6 6 6 3 0 5-1.5t2-4q0-2.5-2-4.5t-5-2zm40 0q-2 0-4 2t-2 4q0 6 6 6t6-6q0-6-6-6zm40 12q6 0 6-6t-6-6q-6 0-6 6t6 6zm40-12q-2 0-4 2t-2 4q0 6 6 6t6-6q0-2-2-4t-4-2zm40 12q6 0 6-6 0-2-2-4t-4-2q-2 0-4 2t-2 4q0 6 6 6zm159-132q-2 0-4 2t-2 4.5q0 2.5 2 4.5t4 2q2 0 4.5-2t2.5-4.5q0-2.5-2-4.5t-5-2zm0-40q-2 0-4 2t-2 4.5q0 2.5 2 4.5t4 2q2 0 4.5-2t2.5-4.5q0-2.5-2-4.5t-5-2zm0-40q-2 0-4 2t-2 4.5q0 2.5 2 4.5t4 2q2 0 4.5-2t2.5-4.5q0-2.5-2-4.5t-5-2zm-19-220q-2 0-4 2t-2 4.5q0 2.5 2 4.5t4 2q2 0 4.5-2t2.5-4.5q0-2.5-2-4.5t-5-2zm0-40q-2 0-4 2t-2 4.5q0 2.5 2 4.5t4 2q2 0 4.5-2t2.5-4.5q0-2.5-2-4.5t-5-2zm0-39q-6 0-6 6 0 2 2 4t4 2q2 0 4.5-2t2.5-4q0-6-7-6zm-145-77q-3-2-6.5-1t-4.5 4l-66 102q-2 3-1.5 6t3 4.5q2.5 1.5 6.5 1.5t5-3l66-102q2-3 1.5-6.5T683 343zM929 17q-7-8-17-12.5T891 1L341 62q-25 3-42 24.5T285 137l8 53q-9 9-9 23v37q0 10 7 21h-80q-41 0-75 20t-54 54q-20 34-20 75v230q0 23 16 39t38.5 16q22.5 0 38.5-16.5t16-38.5V450q0-29 20.5-49.5T241 380h39l-30 527q0 37 26 65 14 14 32.5 21.5t37.5 7.5h484q19 0 37.5-7.5T900 972q26-28 26-65l-35-588q0-23-13-41 13-11 13-28v-37q0-10-4-17l49-135q8-23-7-44zM301 213q0-8 5.5-14t13.5-6h536q8 0 13.5 6t5.5 14v37q0 7-5.5 13t-13.5 6H320q-8 0-13.5-5.5T301 250v-37zm-60 151q-36 0-61 25t-25 61v200q0 16-11.5 27.5T116 689q-16 0-27-11.5T78 650V420q0-36 18-66.5t48.5-48.5q30.5-18 66.5-18h80q-6 11-8 32l-2 45h-40zm648 595h-2.5q-1.5 0-3.5 2t-2 4v2q-22 17-47 18v-1q0-6-6-6t-6 6v1h-27v-1q0-2-2-4t-5-2q-6 0-6 6v1h-27v-1q0-2-2-4t-5-2q-6 0-6 6v1h-27v-1q0-2-2-4t-4-2q-2 0-4.5 2t-2.5 4v1h-27v-1q0-2-2-4t-4-2q-2 0-4 2t-2 4v1h-28v-1q0-2-2-4t-4-2q-2 0-4 2t-2 4v1h-28v-1q0-2-2-4t-4-2q-2 0-4 2t-2 4v1h-28v-1q0-6-6-6t-6 6v1h-28v-1q0-6-6-6t-6 6v1h-28l1-1q0-2-2-4t-5-2q-6 0-6 6v1h-27v-1q0-2-2-4t-5-2q-6 0-6 6v1h-27v-1q0-2-2-4t-4-2q-2 0-4.5 2t-2.5 4v1h-27v-1q0-2-2-4t-4-2q-2 0-4 2t-2 4v1q-28-2-49-18v-2q0-6-6-6h-2q-5-4-11-14v-1q0-4-3-5-7-14-7-31l25-432 13-4q16-4 34-7 26-4 51-5 58-2 109 13l-19 29q-2 3-1 6.5t3 4.5q2 1 5.5 1t6.5-3l21-33q48 18 80 42 95 67 208 76 10 1 29 1 35 0 60-5v9q-1-1-3.5-1t-4.5 2q-2 2-2 4t2 4q2 2 4.5 2t4.5-2l12 210q-2 2-2 5t3 5l1 29q-1 0-2.5 2t-1.5 5q0 3 5 5l2 27h-1q-2 0-4 2t-2 4q0 2 2 4.5t4 2.5h1q0 28-20 48zm-5-478q-3 1-3 5t4 6l2 28q-6 2-6 7t6 5l2 28h-2q-2 0-4 2t-2 4q0 6 6 6h3v4q-37 7-88 4-107-9-198-73-37-26-81-43l63-97q2-3 1-6.5t-3.5-5.5q-2.5-2-6-1t-5.5 4l-65 101q-58-18-119-16-51 2-96 16l7-140q2-21 13-35 3 1 8 1h522q-1 1-1 2.5t2 3.5q2 2 4 2t4.5-2q2.5-2 2.5-3.5t-1-2.5h10q5 6 8 16-1-1-3-1t-4 2q-2 2-2 4t2 4q2 2 4 2 5 0 6-3l1 11 9 161zm36-426l-45 128q-9-6-19-6H320q-5 0-13 2l-6-44q-3-21 10-39 12-15 32-18l550-61q13-1 23 10 5 6 6 13.5T920 55zM465 697h1q7 0 8-6 2-4 4-20 2-23-1-44-4-29-18-50-30-41-99-53l-4-1h-2l-1 1h-.5q-.5 0-2.5 2l-1 1v.5q0 .5-1 .5v1q-2 6-4 21-2 23 1 44 4 29 18 50t40 34q19 10 41 15 15 4 21 4zm-20-111q23 33 16 83l-87-126q49 12 71 43zm-84-34l87 125q-49-12-71.5-43T361 552zm347 114q0-34-24.5-58.5T625 583q-34 0-59 24.5T541 666q0 34 24.5 58.5T625 749q35 0 59-24.5t24-58.5zm-83 67q-28 0-47.5-19.5T558 666q0-28 19.5-47.5t47-19.5q27.5 0 47 19.5T691 666q0 28-19.5 47.5T625 733zm168 46q20-13 30.5-29t12.5-39q2-17-1-36-2-13-4-16-1-6-9-6l-3 1q-55 12-76 46-19 29-12 76-25 8-40.5 29.5T675 854q0 34 24.5 58.5T758 937q25 0 43-12 0 6 6.5 6t6.5-5q0-5-5-7 10-8 13-13 2 5 7 5t5-6.5q0-6.5-6-6.5 13-20 13-44t-13.5-44.5Q814 789 793 779zm-37-70q11-16 31-27 14-8 30-11 3 16 3 32-1 23-11 39-11 18-38 30-4-1-12.5-1t-11.5 1q-3-15-1-30 1-20 10-33zm2 212q-28 0-47.5-19.5T691 854q0-28 19.5-47.5T758 787q28 0 47.5 19.5T825 854q0 28-19.5 47.5T758 921zm-264-76q0-35-24-59t-58.5-24q-34.5 0-59 24T328 845q0 32 21.5 56t53.5 27q2 3 6 3t5-3q18-2 30-7-2 2-2 4 0 6 6.5 6t6.5-6q0-2-2-4t-4-2h-1q21-11 33.5-30.5T494 845zm-83 67q-28 0-47.5-19.5T344 845q0-28 19.5-47.5T411 778q28 0 47.5 19.5T478 845q0 28-19.5 47.5T411 912zm190-281q-2-2-5.5-2t-6 2q-2.5 2-2.5 5.5t3 6.5l7 7q2 2 5.5 2t5.5-2q2-2 2-6t-2-6l-7-7zm52 52q-2-2-5.5-2t-6 2q-2.5 2-2.5 5.5t3 6.5l7 7q2 2 5.5 2t5.5-2q2-2 2-5.5t-2-6.5l-7-7zm-4-52l-7 7q-3 2-3 6t2.5 6q2.5 2 5 2t6.5-2l7-7q2-3 2-6.5t-2-5.5q-2-2-5.5-2t-5.5 2zm-52 52l-7 7q-3 3-3 6.5t2.5 5.5q2.5 2 5 2t6.5-2l7-7q2-3 2-6.5t-2-5.5q-2-2-5.5-2t-5.5 2zm139 161q2-3 1-6.5t-4-4.5l-10-4q-3-2-6-.5t-4 4.5q-2 9 3 10l13 6q5 0 7-5zm63 21l-9-4q-3-2-6.5-1t-4.5 4q-3 7 4 11l9 5h4q4 0 6-3.5t1-6.5q-1-3-4-5zm-16-45q1-3 0-6t-4-4.5q-3-1.5-6-.5t-5 4l-4 9q-1 3 0 6t4 5l3 1q5 0 8-5l4-9zm-35 56q-3-2-6.5-1t-4.5 4l-5 10q-1 3 0 6t4 5h4q6 0 7-4l4-10q3-7-3-10zm-368-41h-11q-3-1-5.5 1.5T361 842q0 7 8 9h10q8 0 8-7 1-4-1.5-6.5T380 835zm73 4l-10-1q-3 0-5.5 2.5t-3 5.5q-.5 3 2 5.5t5.5 3.5h11q3 0 5.5-2t2.5-5.5q0-3.5-2-6t-6-2.5zm-39-44q-4 0-6.5 2t-2.5 5v11q-1 3 1.5 5.5t5.5 2.5h1q6 0 8-7v-11q0-3-2-5.5t-5-2.5zm-4 73q-4 0-6.5 2.5T401 876v10q-1 4 1.5 6.5t5.5 2.5h1q3 0 5.5-2t2.5-6v-10q1-7-7-9z"/></svg>