<svg viewBox="0 0 1244 1083.753" xmlns="http://www.w3.org/2000/svg"><path d="M772 300q20-20 20-49V142q0-17-13-28l-25-22q-16-13-34-13h-76q-18 0-33 13l-26 22q-13 11-13 28v109q0 29 20 49-23 7-42 16-5 2-7.5 8t0 11q2.5 5 8.5 7.5t11-.5q58-26 120-26 78 0 146 40 65 38 103 103 40 68 40 146t-40 145q-38 65-103 104-68 39-146 39-47 0-91.5-15T509 835q-29-21-55-53-60-78-60-177 0-91 52-166 20 15 36 36-39 59-39 130 0 75 45 139 27 36 61 59 30 20 64 30.5t69 10.5q65 0 120-32.5t87-87.5q32-55 32-119t-32-119q-32-55-87-87.5T682 366q-39 0-75 12-6 2-9 7.5t-1.5 11.5q1.5 6 7.5 8.5t12 .5q33-11 66-11 57 0 105.5 28t76.5 76.5Q892 548 892 605t-28.5 105Q835 758 787 786t-104.5 28Q626 814 578 787q58-82 58-182 0-110-67-195-25-32-60-59-46-36-101-51 20-20 20-49V142q0-17-13-28l-26-22q-15-13-33-13h-76q-18 0-34 13l-25 22q-13 11-13 28v109q0 29 20 49-66 19-117.5 64T30 471Q0 534 0 605q0 86 44 160 42 72 114 114 74 44 160 44 72 0 138-32 5-2 7-8t0-11q-2-5-8.5-7.5t-11.5.5q-57 28-125 28-78 0-146-39-65-39-103-104-40-67-40-145t40-146q38-65 103-103 68-40 146-40 47 0 91.5 15t81.5 43q30 22 55 54 60 78 60 177 0 92-52 165-18-14-36-35 39-61 39-130 0-77-45-139-26-37-61-60-60-40-133-40-65 0-120 32t-87 87q-32 55-32 120t32 120q32 55 87 87t120 32q41 0 84-16 6-2 8.5-7.5t.5-11.5q-2-6-8-8t-11 0q-35 13-74 13-57 0-105-28t-76.5-76Q108 662 108 605t28-105.5q28-48.5 76.5-76.5T318 395q54 0 104 28-58 81-58 182 0 53 17.5 103t49.5 92q28 34 60 59 42 31 90.5 47.5T682 923q86 0 160-44 72-42 114-114 44-74 44-160 0-71-30-134-29-62-80.5-107T772 300zM602 142l45 18q11 4 21 6v29h-66v-53zm161 0v53h-66v-29q11-2 20-6l46-18zm-119-33h76q8 0 15 5l6 5-35 14q-23 9-48 0l-34-14 6-5q7-5 14-5zm-18 183l-12-12q-12-12-12-29v-26h161v26q0 15-12 29l-12 12q-32-5-57.5-5t-55.5 5zM237 142l46 18q9 4 20 6v29h-66v-53zm161 0v53h-65v-29q10-2 20-6l45-18zm-118-33h76q7 0 14 5l6 5-34 14q-25 9-48 0l-34-14 5-5q7-5 15-5zm-19 183l-12-12q-12-14-12-29v-26h161v26q0 17-12 29l-12 12q-30-5-55.5-5t-57.5 5zm266 313q0 56-27 103-27-47-27-103t27-104q27 48 27 104z"/></svg>