<svg viewBox="0 0 1244 1083.753" xmlns="http://www.w3.org/2000/svg"><path d="M956 707h-51V563q0-23-15.5-38.5T851 509h-58V395q0-25-18-42.5T732 335h-25v-28h58q13 0 23.5-8t13.5-21q3-13-2.5-25T782 235l-28-14q-11-5-17-15t-6-22v-28q0-29-19.5-48.5t-48-19.5Q635 88 615 107.5T595 156v2h-11q-6 0-10.5 4t-4.5 10.5q0 6.5 4.5 10.5t10.5 4h11v39q0 34 24 57.5t57 23.5h2v28h-58q-6 0-10 4t-4 10q0 6 4 10.5t10 4.5h112q13 0 22.5 9t9.5 22v18l-9-3q-15-8-32-8t-32 8q-12 5-23.5 5t-23.5-5q-15-8-32-8t-32 8q-13 5-24 5t-23-5q-16-8-32.5-8t-31.5 8q-13 5-24 5t-23-5q-16-8-32.5-8t-31.5 8q-13 5-24 5t-23-5q-16-8-32.5-8t-31.5 8q-3 0-9 2v-17q0-13 9-22t22-9h295q6 0 10.5-4.5T579 349q0-6-4.5-10t-10.5-4h-49V164l70-62q16-14 19-36t-9-40q-7-10-17.5-16T556 2q-23-4-45 11l-11 9-11-9q-9-7-21-10t-23.5-1q-11.5 2-22 8T406 26q-13 18-10.5 40t19.5 36l70 62v171H324v-28h1q34 0 57.5-23.5T406 226v-39h12q6 0 10.5-4t4.5-10q0-6-4.5-10.5T418 158h-12v-2q0-29-19.5-48.5t-48-19.5q-28.5 0-48 19.5T271 156v28q0 12-6.5 22T247 221l-27 14q-13 6-18.5 17.5t-2.5 25q3 13.5 13.5 21.5t24.5 8h57v28h-25q-25 0-43 17.5T208 395v114h-57q-22 0-38 15.5T97 563v144H44q-18 0-31 13T0 751v24q0 18 13 31t31 13h374v38q0 17-12 29.5T377 899h-79q-16 0-27.5 11T259 937v24q0 16 12 28t28 12h402q17 0 28.5-12t11.5-28v-24q0-16-11-27t-27-11h-79q-17 0-29.5-12.5T582 857v-38h111q6 0 10-4.5t4-10.5q0-6-4-10.5t-10-4.5H44q-6 0-10.5-4T29 775v-24q0-6 4.5-10.5T44 736h912q6 0 10.5 4.5T971 751v24q0 6-4.5 10t-10.5 4H754q-6 0-10.5 4.5T739 804q0 6 4.5 10.5T754 819h202q18 0 31-13t13-31v-24q0-18-13-31t-31-13zM625 226v-70q0-16 11-27.5t27-11.5q16 0 27.5 11.5T702 156v28q0 20 10.5 37.5T741 248l28 13q5 3 5 9v1q-3 7-9 7h-89q-21 0-36-15t-15-37zM430 43q6-10 19-12 1-1 4-1 11 0 18 6l13 10q7 6 16.5 6t16.5-6l12-10q11-8 22-5 13 2 19 11t5 19.5Q574 72 566 80l-66 58-66-58q-8-8-9-18.5t5-18.5zM228 271q-1-2 0-5t5-5l27-13q18-9 29-26.5t11-37.5v-28q0-16 11-27.5t27-11.5q16 0 27.5 11.5T377 156v70q0 22-15 37t-37 15h-88q-5 0-7-2.5t-2-4.5zm396 657h79q3 0 5.5 2.5t2.5 6.5v24q0 5-3 8t-7 3H299q-4 0-7-3.5t-3-7.5v-24q0-4 2.5-6.5t6.5-2.5h79q29 0 49.5-21t20.5-50v-38h106v38q0 29 21 50t50 21zM126 563q0-11 7.5-18t17.5-7h176q6 0 10-4t4-10q0-6-4-10.5t-10-4.5h-89v-67q13-2 21.5-6t19-4q10.5 0 19.5 4 19 8 36.5 8t36-8q18.5-8 39.5 0 18 8 35.5 8t35.5-8q20-8 40 0 18 8 35.5 8t35.5-8q20-8 40 0 18 8 35.5 8t35.5-8q20-8 40 0 7 3 21 7v66H385q-6 0-10.5 4.5T370 524q0 6 4.5 10t10.5 4h466q10 0 17 7.5t7 17.5v32q-5 0-9-2-31-14-64 0-12 5-23 5t-24-5q-31-14-64 0-12 5-23.5 5t-23.5-5q-15-7-32-7t-32 7q-12 5-23.5 5t-23.5-5q-33-14-64 0-13 5-24 5t-23-5q-33-14-64 0-13 5-24 5t-24-5q-31-14-64 0-12 5-23 5t-24-5q-15-7-32-7t-32 7l-9 3v-33zm0 63q12-2 21-7 20-8 40 0 15 8 35.5 8t35.5-8q21-8 40 0 15 8 35.5 8t36.5-8q9-4 19.5-4t19.5 4q16 8 36.5 8t35.5-8q20-8 40 0 15 8 35.5 8t35.5-8q20-8 40 0 15 8 35.5 8t35.5-8q21-8 40 0 15 8 35.5 8t36.5-8q9-4 19.5-4t19 4q8.5 4 21.5 6v82H126v-81zm533-475q-7 0-12 4.5t-5 11.5q0 7 5 12t12 5q7 0 11.5-5t4.5-12q0-7-4.5-11.5T659 151z"/></svg>