<svg viewBox="0 0 1244 1083.753" xmlns="http://www.w3.org/2000/svg"><path d="M631 914q-15 0-27-9.5T588 880l-57-222h-62l-57 222q-4 18-20 27.5t-34 4.5q-18-5-27.5-20.5T325 858l62-250-10-201-118-167q-10-14-7-30.5t16.5-26q13.5-9.5 29-7.5t25.5 14l126 153h102l126-153q11-13 27.5-14.5t29 9.5q12.5 11 14.5 26.5t-7 28.5L623 407l-9 201 61 250q4 17-4.5 32.5T645 912h-2q-8 2-12 2zM459 633h82q5 0 8 3t4 7l59 231q2 8 9 12t15 2h1v-1q8-2 11.5-9t1.5-14l-61-252q-1-1-1-3l10-207q0-3 2-7l121-170q4-5 2.5-11.5T717 203q-5-4-11-3t-10 6L566 363q-3 4-9 4H443q-6 0-10-4L304 206q-4-5-10.5-5.5T282 204q-5 4-6 10.5t3 11.5l121 170q2 4 2 6l10 207q0 2-1 3l-61 252q-2 7 2 14.5t12.5 9.5q8.5 2 14.5-2 8-6 9-12l59-231q1-4 4-7t8-3zm349-432H192q-5 0-9-4t-4-9q0-5 4-8.5t9-3.5h616q5 0 9 3.5t4 8.5q0 5-4 9t-9 4zm-632 87h-42q-11 0-19.5-8.5T106 259V117q0-12 8.5-20.5T134 88h42q11 0 19.5 8.5T204 117v142q0 12-8.5 20.5T176 288zm-42-175q-1 0-2 1.5t-1 2.5v142q0 1 1 2.5t2 1.5h42q3 0 3-4V117q0-4-3-4h-42zm732 175h-42q-11 0-19.5-8.5T796 259V117q0-12 8.5-20.5T824 88h42q11 0 19.5 8.5T894 117v142q0 12-8.5 20.5T866 288zm-42-175q-1 0-2 1.5t-1 2.5v142q0 1 1 2.5t2 1.5h42q1 0 2-1.5t1-2V117q0-1-1-2.5t-2-1.5h-42zM500 328q-31 0-53.5-22.5t-22.5-54q0-31.5 22.5-53.5t54-22q31.5 0 53.5 22t22 54q0 31-22 53t-54 23zm0-127q-21 0-36 14.5t-15 36q0 21.5 15 36.5t36 15q21 0 36-15t15-36q0-22-15-36.5T500 201z"/></svg>