<svg viewBox="0 0 1244 1083.753" xmlns="http://www.w3.org/2000/svg"><path d="M688 640H313q-5 0-9-3.5t-4-8.5V317q0-5 4-9t9-4q5 0 8.5 4t3.5 9v298h350V317q0-5 4-9t9-4q5 0 8.5 4t3.5 9v311q0 5-3.5 8.5T688 640zm64 198q-5 0-8.5-3.5T740 826V656q0-7-4.5-11.5T724 640H276q-7 0-11.5 4.5T260 656v170q0 5-3.5 8.5T248 838q-5 0-9-3.5t-4-8.5V656q0-17 12-29t29-12h448q17 0 29 12t12 29v170q0 5-4 8.5t-9 3.5zM224 455h-46q-16 1-28.5-11T137 415V164q0-17 12-29t29-12h46q17 0 29 12t13 29v251q-1 17-13 29t-29 11zm-46-307q-7 0-11.5 4.5T162 164v251q0 7 4.5 11.5T178 430h46q7 1 11.5-3.5T241 415V164q-1-7-5.5-11.5T224 148h-46zm643 307h-46q-16 1-28.5-11T734 415V164q0-17 12-29t29-12h46q17 0 29.5 12t12.5 29v251q0 17-12.5 29T821 455zm-46-307q-7 0-11.5 4.5T759 164v251q0 7 4.5 11.5T775 430h46q7 1 12-3.5t5-11.5V164q0-7-5-11.5t-12-4.5h-46zM149 357h-15q-19 0-32.5-13.5T88 311v-43q0-20 13.5-33t32.5-13h15q5 0 9 3.5t4 8.5v110q0 5-4 9t-9 4zm-15-110q-9 0-15 6t-6 15v43q0 8 6 14.5t15 6.5h3v-85h-3zm743 110h-27q-5 0-8.5-4t-3.5-9V234q0-5 4-8.5t8-3.5h27q15 0 24 9 12 11 12 37v43q0 26-12 37-9 9-24 9zm-14-25h14q5 0 7-3 4-4 4-18v-43q0-14-4-18-2-3-7-3h-14v85zm-117-3H253q-5 0-8.5-3.5T241 317v-55q0-5 3.5-9t8.5-4h493q5 0 9 4t4 9v55q0 5-4 8.5t-9 3.5zm-480-25h468v-30H266v30zm38 575H192q-5 0-9-4t-4-9q1-23 17.5-38.5T235 813h26q22-1 38.5 14.5T317 866q0 5-4 9t-9 4zm-97-25h81q-4-7-11.5-11.5T261 838h-26q-8 0-16 4.5T207 854zm601 25H696q-5 0-9-4t-4-9q1-23 17.5-38.5T739 813h26q22-1 38.5 14.5T821 866q0 5-4 9t-9 4zm-96-25h81q-10-16-28-16h-26q-8 0-15.5 4.5T712 854z"/></svg>