<svg viewBox="0 0 1244 1083.753" xmlns="http://www.w3.org/2000/svg"><path d="M933 251q-18 0-33 9v-42q0-28-19.5-47.5T833 151q-28 0-47 19.5T767 218v150h-72l-62-62v-69q0-24-17-41t-41-17q-15 0-29 8-6-15-19-24.5t-29-11q-16-1.5-30.5 5T443 177q-11-8-24-11t-26 1q-13 4-23.5 13T355 201q-14-8-30-8-24 0-41 17t-17 41v117h-33V218q0-28-19.5-47.5T168 151q-27 0-47 19.5T101 218v42q-15-9-33-9-28 0-47.5 19.5T1 318v250q0 27 19.5 46.5T68 634q18 0 33-9v43q0 27 19.5 46.5T168 734q28 0 47-19.5t19-46.5V518h50v10q-3 46 22 87l19 33q7 12 9 26v150q0 11 8 19t19 8h212q11 0 19-8.5t8-19.5V672q0-5 3-9l85-146h79v150q0 28 19.5 47.5T834 734q28 0 47-19.5t19-47.5v-42q15 9 34 9 28 0 47-19.5t19-47.5V317q0-27-19.5-46.5T933 251zm-358-39q10 0 17.5 7.5T600 237v35l-8-8q-14-14-36-14h-6v-13q0-10 7-17 3-3 8.5-5.5t9.5-2.5zm-108-3q0-11 7.5-18t18-7q10.5 0 17.5 7t7 18v62q-13 20-13 45t13 45v10q-3 8-10 13t-15.5 5q-8.5 0-16.5-7t-8-18V209zm-84 14q0-10 7.5-17.5t18-7.5q10.5 0 17.5 7t7 18v141q0 10-7 17.5t-17 7.5h-1q-10 0-17.5-7.5T383 364V223zm-83 28q0-11 7.5-18t18-7q10.5 0 17.5 7t7 18v141q0 10-7.5 17.5T325 417q-10 0-17.5-7.5T300 392V251zM67 601q-13 0-23-10t-10-23V318q0-14 9.5-24T67 284q14 0 24 10t10 24v250q0 14-10 23.5T67 601zm134 67q0 14-10 23.5t-24 9.5q-14 0-23.5-9.5T134 668V218q0-14 9.5-24t23.5-10q14 0 24 10t10 24v450zm33-267h34q3 21 19.5 35t37.5 14q18 0 32.5-10t21.5-26q14 8 29 8h1q25 0 41-18 0 1 1 1 17 17 41 17 16 0 30-8.5t22-22.5l2 2 3 3 20 20q-47 24-75 63l-3 6H234v-84zm340 246q-7 10-7 25v146H367V674q-2-26-14-42l-19-34q-19-32-17-70v-10h156l-6 16q-2 6 1 12.5t9.5 8.5q6.5 2 13-1t7.5-10q10-24 17-35 1-2 5-8l1-2q31-43 82-60 9-4 12-12.5t-5-15.5l-64-65q0-1-1-1-9-14-9-29.5t10-28.5q3-4 10-4t12 5l122 123q6 6 7 14.5t-4 16.5L574 647zm134-163l14-25q8-13 8.5-29t-6.5-29h43v83h-59zm159 184q0 14-10 23.5t-24 9.5q-14 0-23.5-9.5T800 668V218q0-14 9.5-24t23.5-10q14 0 24 10t10 24v450zm100-100q0 14-10 23.5t-23.5 9.5q-13.5 0-23.5-10t-10-23V318q0-14 9.5-24t23.5-10q14 0 24 10t10 24v250z"/></svg>