<svg viewBox="0 0 1244 1083.753" xmlns="http://www.w3.org/2000/svg"><path d="M983 284v-41q0-26-16-42t-42-16q-15 0-25 5v-14q0-24-17-41t-41-17q-13 0-25 6V59q0-24-17-41T758.5 1Q734 1 717 18t-17 41v225H300V59q0-24-17-41T242 1q-24 0-41.5 17T183 59v65q-10-6-25-6-24 0-41 17t-17 41v14q-13-5-25-5-24 0-41 17t-17 41v42q-7 0-12 4.5T0 301q0 7 5 12t12 5v41q0 25 17 42t41 17q13 0 25-6v14q0 24 17 41.5t41 17.5q15 0 25-6v489h-66q-7 0-12 4.5t-5 12q0 7.5 5 12t12 4.5h254q7 0 12-4.5t5-11.5q0-7-5-12t-12-5h-71V318h400v283q0 7 5 12t12 5q7 0 11.5-5t4.5-12V59q0-11 7.5-18t18-7q10.5 0 17.5 7t7 18v609q0 7 5 11.5t12 4.5q7 0 11.5-4.5T816 668V478q12 6 25 6 25 0 42-17t17-41v-14q11 6 25 6 24 0 41-17t17-41v-42q7 0 11.5-5t4.5-12.5q0-7.5-4.5-12T983 284zM75 384q-10 0-17.5-7.5T50 359V243q0-11 7.5-18t18-7q10.5 0 17.5 7t7 18v116q0 10-7 17.5T75 384zm83 67q-10 0-17.5-7.5T133 426V176q0-10 7.5-17.5t18-7.5q10.5 0 17.5 7t7 18v250q0 10-7 17.5t-18 7.5zm59 517V59q0-11 7.5-18t18-7q10.5 0 17.5 7t7 18v909h-50zm650-542q0 10-7 17.5t-17.5 7.5q-10.5 0-18-7.5T817 426V176q0-11 7.5-18t18-7q10.5 0 17.5 7t7 18v250zm83-67q0 10-7 17.5t-17.5 7.5q-10.5 0-18-7.5T900 359V243q0-11 7.5-18t18-7q10.5 0 17.5 7t7 18v116zm-6 526q7-13 6.5-28t-8-28q-7.5-13-20.5-20t-28-8q7-14 6-28.5t-9-27.5q-8-13-21-20.5t-28-6.5h-51q-7 0-12 4.5t-5 11.5q0 7 5 12t12 5h51q7 0 13.5 4t9.5 11q6 16-6 28-4 4-11.5 5.5T792 801q-7 0-12 4.5t-5 11.5q0 7 5 12t12 5h100q11 0 18 7t7 17.5q0 10.5-7 18t-18 7.5H779q-7 0-12 5t-5 12q0 7 5 11.5t12 4.5h163q11 0 18 7t7 17.5q0 10.5-7 18t-18 7.5H720q-7 0-12 5t-5 12q0 7 5 11.5t12 4.5h222q23 0 40-16.5t18-40.5q1-24-15.5-40.5T944 885zM691 660q-38-38-89.5-51.5t-103 0Q447 622 409 660t-51.5 89.5q-13.5 51.5 0 103T409 942q38 38 89.5 51.5t103 0Q653 980 691 942t51.5-89.5q13.5-51.5 0-103T691 660zM432 919q-35-36-45-86t9.5-96.5Q416 690 458 662t92-28q50 0 92 28t61.5 74.5Q723 783 713 833t-45 86q-32 32-75 43t-86 0q-43-11-75-43zm136-20q-25 4-48-3t-40.5-24.5q-17.5-17.5-25-41T452 783q1-7-3-12.5t-11-6.5q-7-1-12.5 2.5T419 777q-6 32 4 63.5t33 54.5q23 23 54.5 33t62.5 4q10-2 13-11.5t-3-15.5q-2-4-6.5-5.5t-8.5-.5zm76-192q-23-23-54-33t-63-4q-10 2-13.5 10.5T517 697q6 6 15 6 25-5 48.5 2.5T621 730q17 17 24.5 40.5T648 819q-1 7 3 12t11 7h3q6 0 10.5-4t5.5-10q6-32-4-63.5T644 707zm-141 47q-14 14-18 34t3.5 39q7.5 19 24.5 30t37 11q20 0 37-11t25-29.5q8-18.5 3.5-39T597 754q-19-19-46.5-19T503 754zm71 71q-10 9-23.5 9t-23.5-9q-7-7-9.5-17t1.5-19.5q4-9.5 12.5-15T550 768q10 0 18.5 5.5t12.5 15q4 9.5 2 19t-9 17.5z"/></svg>