<svg viewBox="0 0 1244 1083.753" xmlns="http://www.w3.org/2000/svg"><path d="M983 419h-29v-23q0-37-23.5-65T871 297v-2q0-42-29.5-71T771 195q-41 0-70.5 29T671 295v124H329V295q0-42-29.5-71T229 195q-41 0-70.5 29T129 295v2q-36 6-59.5 34T46 396v23H17q-7 0-12 5t-5 12v130q0 7 5 11.5t12 4.5h29v24q0 37 23.5 65t59.5 34v2q0 41 29.5 70.5T229 807q41 0 70.5-29.5T329 707V582h342v125q0 41 29.5 70.5T771 807q41 0 70.5-29.5T871 707v-2q36-6 59.5-34t23.5-65v-24h29q7 0 12-4.5t5-11.5V436q0-7-5-12t-12-5zM46 549H34v-96h12v96zm83 121q-21-5-35-23t-14-41V396q0-23 14-41t35-23v338zm166 37q0 28-19 47.5T229 774q-28 0-47-19.5T163 707V295q0-28 19-47.5t47-19.5q28 0 47 19.5t19 47.5v412zm64-158h-30v-96h30v96zm248 0H393v-96h214v96zm64 0h-30v-96h30v96zm166 158q0 28-19 47.5T771 774q-28 0-47-19.5T705 707V295q0-28 19.5-47.5T771 228q27 0 46.5 19.5T837 295v412zm84-101q0 23-14 41t-36 23V332q22 5 36 23t14 41v210zm45-57h-12v-96h12v96z"/></svg>