<svg viewBox="0 0 1244 1083.753" xmlns="http://www.w3.org/2000/svg"><path d="M683 918q0 7 5 11.5t12 4.5h50q7 0 12-4.5t5-11.5v-50q0-7-5-12t-12-5q-7 0-12 5t-5 12v33h-33q-7 0-12 5t-5 12zM500 134q7 0 12-4.5t5-11.5V84q0-7-5-11.5T500 68q-7 0-12 4.5T483 84v34q0 7 5 11.5t12 4.5zm-67 84h134q7 0 11.5-5t4.5-12q0-7-4.5-12t-11.5-5H433q-7 0-11.5 5t-4.5 12q0 7 4.5 12t11.5 5zM142 881q13 8 25 12v41q0 28 19.5 47.5T233 1001h534q28 0 47-19.5t19-47.5V830l9 5q6 5 14 5.5t14.5-3.5q6.5-4 10-10t2.5-13V681q-1-13-7.5-24T859 639q-13-7-26-13V251q0-28-19-47.5T767 184h-84q-2-21-15.5-37.5T633 125l-22-5q-12-3-20-13t-7-23q0-32-22.5-56.5T506.5 1Q474-1 448 19.5T418 72q-1 5-1 15.5t-6.5 19.5q-6.5 9-17.5 12l-26 6q-20 5-34 21.5T317 184h-83q-28 0-47.5 19.5T167 251v438q-4-3-8-4-15-10-30-2-12 6-12 22v134q1 13 7.5 24t17.5 18zm658 53q0 14-9.5 24T767 968H233q-14 0-23.5-10t-9.5-24v-28q38 12 79 12 51 0 114-18 37-11 111-40l3-2q67-26 100-36 54-17 97-19 51-3 96 13v118zM350 190q0-11 7-20.5t18-11.5l26-7q22-5 36-23.5T450 86v-9q3-17 15-29t29-13q2-1 6-1 18 0 33 13 17 14 17 37.5t14.5 42.5q14.5 19 37.5 25l23 6q11 2 18 11.5t7 20.5v44q0 7-5 12t-12 5H367q-7 0-12-5t-5-12v-44zm-150 61q0-14 10-23.5t23-9.5h84v16q0 21 14.5 35.5T367 284h266q21 0 35.5-14.5T683 234v-16h84q14 0 23.5 9.5T800 251v363q-49-15-103-11-46 4-103 22-35 11-101.5 37T393 698q-54 17-97 19-51 3-96-13V251zm-50 468q17 7 33 15v71q0 7 5 12t12 5q7 0 12-5t5-12v-61q11 3 33 5v35q0 7 5 12t12 5q7 0 11.5-5t4.5-12v-33q12 0 34-2v30q0 7 4.5 12t11.5 5q7 0 12-5t5-12v-36q11-2 33-8v28q0 7 5 12t12 5q7 0 11.5-5t4.5-12v-38l9-3q17-5 25-9v60q0 7 4.5 11.5T466 789q7 0 12-4.5t5-11.5v-72l33-13v26q0 7 5 11.5t12 4.5q7 0 11.5-4.5T549 714v-39l34-12v27q0 7 4.5 12t11.5 5q7 0 12-5t5-12v-37q17-6 33-9v30q0 7 5 11.5t12 4.5q7 0 12-4.5t5-11.5v-36q11-2 33-2v67q0 7 5 11.5t12 4.5q7 0 11.5-4.5T749 703v-66q48 6 92 31 6 5 8 13v121q-55-30-117-33-52-2-117 16-42 12-121 43h-1q-76 30-114 41-62 17-111 15-59-2-110-32-6-5-8-13V719zm650-18q7 0 12 5t5 12q0 7-5 11.5t-12 4.5q-7 0-12-4.5t-5-11.5q0-7 5-12t12-5zM267 368h266q7 0 12-5t5-12q0-7-5-12t-12-5H267q-7 0-12 5t-5 12q0 7 5 12t12 5zm366 100h67q21 0 35.5-15t14.5-35v-67q0-21-14.5-35.5T700 301h-67q-20 0-35 14.5T583 351v67q0 20 15 35t35 15zm-16-117q0-7 4.5-12t11.5-5h67q7 0 11.5 5t4.5 12v67q0 7-4.5 11.5T700 434h-67q-7 0-11.5-4.5T617 418v-67zM267 568h266q7 0 12-5t5-12q0-7-5-12t-12-5H267q-7 0-12 5t-5 12q0 7 5 12t12 5zm0-134h133q7 0 12-4.5t5-11.5q0-7-5-12t-12-5H267q-7 0-12 5t-5 12q0 7 5 11.5t12 4.5zm150 184q0-7-5-12t-12-5H267q-7 0-12 4.5t-5 12q0 7.5 5 12t12 4.5h133q7 0 12-4.5t5-11.5zm183-50q7 0 12-5t5-12q0-7 4.5-12t11.5-5h67q7 0 11.5 5t4.5 12q0 7 5 12t12 5q7 0 12-5t5-12q0-21-15-35.5T700 501h-67q-20 0-35 14.5T583 551q0 7 5 12t12 5z"/></svg>