<svg viewBox="0 0 1244 1083.753" xmlns="http://www.w3.org/2000/svg"><path d="M410 277q8 0 14-6t6-14V53q0-8-6-14t-14-6q-8 0-14.5 6T389 53v204q0 8 6 14t15 6zm-123 15q6 9 17 9 7 0 11-3 7-4 9-12t-2-15l-93-153q-4-7-12.5-9.5t-15.5 2q-7 4.5-9.5 12.5t2.5 15l93 154zm217 6q5 3 11 3 11 0 17-9l93-154q5-7 2.5-15t-9.5-12q-7-4-15-2.5t-13 8.5l-93 154q-4 7-2 15t9 12zm416 262q-19-68-64-121.5T748 355q-65-31-138-31H20q-8 0-14 6t-6 15v272q0 8 6 14t14 6h268v10q0 88 44 163 43 72 115 115 75 44 163 44 73 0 138-31 63-29 108-82.5T920 734q34-3 57-28t23-59q0-34-23-59t-57-28zM377 365h65v77h-65v-77zm233 564q-77 0-142-39-64-37-102-102t-38-141q0-19 1.5-28t-5-15.5Q318 597 309 597H40V365h297v97q0 8 6 14t14 6h105q8 0 14-6t6-14v-97h128q77 0 142 38 64 38 102 102 38 65 38 141.5T854 788q-38 65-102 102-65 39-142 39zm319-238q3-21 3-44t-3-44q14 5 22.5 17t8.5 27q0 15-8.5 27T929 691zM610 496q-41 0-75.5 20.5t-54.5 55Q460 606 460 647t20 75.5q20 34.5 54.5 54.5t75.5 20q41 0 75.5-20t54.5-54.5q20-34.5 20-75.5t-20-75.5q-20-34.5-54.5-55T610 496zm0 261q-30 0-55.5-14.5t-40-40Q500 677 500 647t14.5-55.5q14.5-25.5 40-40T610 537q30 0 55.5 14.5t40 40Q720 617 720 647t-14.5 55.5q-14.5 25.5-40 40T610 757z"/></svg>