<svg viewBox="0 0 1244 1083.753" xmlns="http://www.w3.org/2000/svg"><path d="M369 440q-2-6-7-9t-11-2q-61 16-103 59-32 31-49 72t-17 86q0 45 17 86t48.5 72.5Q279 836 320 853t86 17q45 0 86-16.5t73-48.5q43-43 58-101t0-115.5Q608 531 565 488q-31-30-70-47.5T414 422q-6 0-10.5 4t-5 10.5q-.5 6.5 4 10.5t10.5 5q37 1 71 16t60 41q37 37 50.5 87.5t0 100.5Q581 747 544 784t-87.5 50.5q-50.5 13.5-101 0T268 784q-27-28-42-63.5T211 646q0-39 15-74.5t42-62.5q39-39 90-51 6-2 9-7t2-11zm0 0zm-59 261q-4 4-4 10t4 11l14 13q4 4 10 4t10.5-4.5Q349 730 349 724t-5-10l-13-13q-4-5-10-5t-11 5zm0 0zm175-112q4 0 9.5-4.5T500 574q0-6-5-10l-14-14q-4-5-10-5t-10 4.5q-4 4.5-4 10.5t4 11l13 14q6 4 11 4zm0 0zm-94 64q-6-1-10.5 3t-5 10q-.5 6 3.5 10.5t10 5.5q21 2 38-15t15-38q-1-6-5.5-10t-10.5-3.5q-6 .5-10 5t-4 10.5q2 9-5 15.5t-16 6.5zm0 0zM898 25Q878 5 849.5 1.5T797 13l-42 26q-136 83-217 134-13 7-15 22.5t9 26.5l18 19q7 7 5.5 17t-9.5 14q-45 29-61 39-6 4-13 3t-12-6l-32-32q-10-10-23-11.5t-24 6.5Q183 395 170 410q-48 47-73.5 108.5T72 648q0 40 8 71-22 10-42 28-25 25-34 59.5t0 69Q13 910 38 935t59.5 34q34.5 9 68.5 0t59-34l5-5q78 49 176 49 67 0 127.5-24T640 885q65-64 89-151.5t0-175.5q-9-33 0-66.5t34-58.5l107-107q4-5 4-11t-4-10.5q-4-4.5-10-4.5t-11 5L742 412q-30 30-41 71.5t0 82.5q22 80 0 160t-81 138q-42 42-97 64t-117 22q-46 0-89.5-13T235 899q-62-42-98-109.5T101 647q0-62 23-118t66-99q23-20 206-135 6-3 11 2l32 32q12 12 30 14t32-8l19-12q26-16 42-26 20-12 23-36t-14-41l-18-18q-1-1-1-2.5t1-1.5L812 38q16-10 34-7.5T877 46l78 78q16 16 16 37.5T955 199l-65 65q-4 4-4 10t4.5 10q4.5 4 10.5 4t10-4l65-65q24-24 24-58t-24-57l-78-79zM148 860q-6 6-16 6t-17.5-7.5Q107 851 107 841q0-14 13-22 10 18 28 41zm57 54q-20 20-46.5 26.5t-53 0Q79 934 59 914t-26.5-46.5q-6.5-26.5 0-53T59 768q12-12 28-20 8 25 19 46-7 3-12 9-16 16-16 38.5T93.5 879q15.5 15 37 15.5T168 881l12 12q16 14 25 21zm0 0z"/></svg>