<svg viewBox="0 0 1244 1083.753" xmlns="http://www.w3.org/2000/svg"><path d="M868 970h-17V741q0-6-4-10t-11-4q-7 0-10.5 4t-3.5 10v229H623V591h199v88q0 6 4 10t10 4q6 0 10.5-4t4.5-10v-89q0-12-8-20t-19-8H623v-84q0-11-8-19t-19-8h-5v-45q0-13-9-21.5t-22-8.5h-16v-96q23-10 41-31h6q39 0 67-25 17-14 26.5-34t9.5-43V73q0-12-8.5-20.5T665 44h-41l2-16q0-12-7.5-19.5T601 1H391q-10 0-17.5 7.5T366 28l2 16h-41q-12 0-20.5 8.5T298 73v74q0 23 9.5 43t26.5 34q28 25 67 25h6q18 21 41 31v96h-18q-13 0-22 8.5t-9 21.5v45h-5q-11 0-19 8t-8 19v84H167q-12 0-20 8t-8 20v380h-8q-6 0-10.5 4.5T116 985q0 6 4.5 10t10.5 4h737q6 0 10-4t4-10q0-6-4-10.5t-10-4.5zM353 202q-12-10-18.5-24.5T328 147V74h43l10 113q1 16 8 32-19-3-36-17zm58-18L396 30h200l-6 67q-1 6 3 10.5t10 5.5q6 1 10.5-3t5.5-10l2-26h43v73q0 16-6.5 30.5T639 202q-17 14-36 17 7-16 8-32l2-25q1-6-3-10.5t-10-5q-6-.5-11 3.5t-5 10l-3 24q-3 33-27 55.5T496 262q-34 0-58-22.5T411 184zm66 105q12 2 19 2t19-2v87h-38v-87zm-48 117q0-1 1-1h130q1 0 1 1v45H429v-45zM168 591h199v241q0 6 4 10.5t10 4.5q6 0 10.5-4.5T396 832V480h198v490H396v-75q0-6-4.5-10.5T381 880q-6 0-10 4.5t-4 10.5v75H168V591zm71-448h-19q-6 0-10 4.5t-4 10.5q0 6 4 10.5t10 4.5h19q6 0 10.5-4.5T254 158q0-6-4.5-10.5T239 143zm-36-66l43 17q2 1 5 1 11 0 14-9 2-6-.5-11.5T257 67l-43-17q-6-2-11.5.5T195 58q-2 5 0 11t8 8zm5 190q4 0 6-1l43-17q5-2 7.5-7.5t.5-11.5q-2-6-8-8t-11 0l-43 17q-6 2-8 7.5t-.5 10.5q1.5 5 5.5 7.5t8 2.5zm545-124q-6 0-10.5 4.5T738 158q0 6 4.5 10.5T753 173h19q6 0 10-4.5t4-10.5q0-6-4-10.5t-10-4.5h-19zm-12-48q3 0 5-1l43-17q6-2 8-7.5t0-11.5q-2-6-7.5-8T778 50l-43 17q-5 2-7.5 7.5T727 86q3 9 14 9zm-6 154l43 17q2 1 6 1t8-2.5q4-2.5 5.5-7.5t-.5-10.5q-2-5.5-8-7.5l-43-17q-5-2-11 0t-8 8q-2 6 .5 11.5t7.5 7.5zm-220-50V77q0-6-4.5-10.5T500 62h-26q-6 0-10 4.5T460 77q0 6 4 10.5t10 4.5h12v107q0 6 4 10.5t10 4.5q6 0 10.5-4.5T515 199z"/></svg>