<svg viewBox="0 0 1244 1083.753" xmlns="http://www.w3.org/2000/svg"><path d="M800 627q6 0 10-4t4-10V454q0-112-48-206-40-78-106-140-34-32-73-59-28-20-57-35-18-10-24-12t-12 0q-6 2-24 12-29 15-57 35-39 27-73 59-67 64-106 140-48 94-48 206v532q0 6 4 10.5t11 4.5h599q6 0 10-4.5t4-10.5V682q0-6-4-10.5t-10-4.5q-6 0-10.5 4.5T785 682v290H215V454q0-93 36.5-175T360 130q39-37 85-67 29-19 55-31 25 12 54 30 47 30 86 67 145 137 145 325v159q0 6 4 10t11 4zM499 286q18-10 35-10 5-1 9-4.5t5-8.5q1-5-2-10t-8-6q-29-11-60.5-8T419 258q-34 20-53.5 53t-20 71.5q-.5 38.5 19.5 73t54 53.5q34 19 72.5 19t70.5-19q27-15 45.5-40.5T632 412q1-5-1-9.5t-7-6.5q-5-2-10-.5t-8 5.5q-12 17-27 25-28 16-60.5 7.5t-49-37.5q-16.5-29-8-61t37.5-49zm-55 124q10 19 27.5 32.5T510 462q36 9 68-3-11 14-30 25-27 15-58 14.5T432.5 483Q406 468 390 441t-15.5-57.5q.5-30.5 16-57.5t42.5-42q19-11 38-14-32 25-39.5 65t12.5 75zM272 538q-7 0-11 4.5t-4 10.5v362q0 6 4 10.5t11 4.5h457q6 0 10-4.5t4-10.5V454q0-168-129-292-47-45-107-79-3-2-7-2t-7 2q-55 30-104 76-132 124-132 295v30q0 6 4 10.5t10.5 4.5q6.5 0 10.5-4.5t4-10.5v-30q0-156 123-273 35-34 91-69 52 31 94 72 120 114 120 270v119q-43 5-88 24-71 31-132 93-91-2-158-55-26-20-48-51l-2-2v-29q0-6-4-10.5t-10-4.5zm442 65v298H286v-77q45-2 94-21 73-29 130-88h1q55-58 121-88 43-19 82-24zm-397 54q26 22 60 37 41 18 88 24-47 40-105 61-36 12-74 16V629q13 14 31 28zm313 45h20q6 0 10-4.5t4-10.5q0-6-4-10t-10-4h-20q-6 0-10.5 4t-4.5 10q0 6 4.5 10.5T630 702zm-79 63h19q6 0 10.5-4.5T585 750q0-6-4.5-10t-10.5-4h-19q-7 0-11 4t-4 10q0 6 4 10.5t11 4.5zm89 10q-6 0-10.5 4.5T625 790q0 6 4.5 10.5T640 805h20q6 0 10-4.5t4-10.5q0-6-4-10.5t-10-4.5h-20zm-118 65h20q6 0 10.5-4.5T557 825q0-6-4.5-10.5T542 810h-20q-6 0-10 4.5t-4 10.5q0 6 4 10.5t10 4.5zM315 731h20q6 0 10-4.5t4-10.5q0-6-4-10.5t-10-4.5h-20q-6 0-10.5 4.5T300 716q0 6 4.5 10.5T315 731z"/></svg>