<svg viewBox="0 0 1244 1083.753" xmlns="http://www.w3.org/2000/svg"><path d="M545 486q50-21 80.5-66.5T656 320v-26q1-33 0-48-1-27-8-47v-1q-15-40-47.5-67T527 96.5q-41-7.5-81 7.5-33 12-57.5 36.5T352 198v1q-7 19-8 46-1 16 0 48v26q1 55 31.5 100t80.5 67q21 12 45 13 21-1 44-13zm-45-360q34-1 63 16t46 46H391q17-29 46-46t63-16zm25 334q-9 6-25 8-16-1-32-11-42-17-67-54.5T375 320v-25q-1-26-1-38 1-21 5-37h243q5 0 3 92v8q-1 45-26 82.5T532 457l-7 3zm-247-33q3 19 18 29l1 1v59q0 10 4.5 19t11.5 15v91q0 11 9 14l65 31q4 2 7 2h169q6 0 10.5-4.5T578 672q0-7-4.5-11t-10.5-4H397l-53-26v-58l25 19q5 3 9 3h50q6 0 10.5-5t4.5-11q0-6-4.5-11t-10.5-5h-45l-48-34q-5-4-7-13v-36l46 33q6 4 9 4h23q7 0 11.5-4.5T422 501q0-7-4.5-11.5T406 485h-18l-73-54q-5-3-7-9l-22-119q-13-61 8-121t69.5-100.5Q412 41 474 34t119 20q25 13 41 28 49 44 70 106 24 70 10 145l-2 8q-13 72-22 112 0 6-6 10l-64 53h-36q-7 0-11.5 4.5T568 532q0 7 4.5 11t11.5 4l41 1q6 0 10-4l37-30v34q0 7-7 12l-51 35h-83q-6 0-10.5 4.5T516 610q0 6 4.5 11t10.5 5h88q5 0 9-3l28-20v70q0 8-7 12l-51 35h-82q-7 0-11.5 4.5T500 735q0 6 4.5 11t11.5 5h87q5 0 9-3l55-37q19-13 21-38v-92q15-13 15-33v-60q15-12 18-28l21-113 2-7q16-81-10-162-24-68-79-119-49-41-111-53.5T421 13q-46 17-78 44-55 47-78.5 114.5T255 309l23 118zm-106 574h656q7 0 11.5-4.5T844 985V704q-1-33-25-56t-56-22h-29q-6 0-10.5 4.5T719 642q0 7 4.5 11t10.5 4h29q20-1 34.5 13t15.5 34v147q-60 18-128 28-192 27-379-1-63-9-118-28V704q1-20 15.5-34t34.5-13h28q6 0 10.5-4.5T281 642q0-6-4.5-11t-10.5-5h-28q-33-1-57 22t-25 56v281q0 7 4.5 11.5t11.5 4.5zm641-31H703v-62q60-10 110-25v87zm-141-58v57H328v-57q0 2 76 7l23 2q123 6 245-9zm-375-4v61H188v-86q48 15 109 25z"/></svg>