<svg viewBox="0 0 1244 1083.753" xmlns="http://www.w3.org/2000/svg"><path d="M604 476q6 0 10.5-4.5T619 461v-35q0-6-4.5-10t-10.5-4q-6 0-10.5 4t-4.5 10v35q0 6 4.5 10.5T604 476zm0 0zm24 21h-48q-6 0-10 4.5t-4 10.5q0 6 4 10t10 4h48q6 0 10-4t4-10q0-6-4-10.5t-10-4.5zm0 0zm-380-21q6 0 10-4.5t4-10.5v-35q0-6-4-10t-10-4q-6 0-10.5 4t-4.5 10v35q0 6 4.5 10.5T248 476zm0 0zm23 21h-47q-6 0-10 4.5t-4 10.5q0 6 4 10t10 4h47q6 0 10.5-4t4.5-10q0-6-4.5-10.5T271 497zm0 0zm196-12q-4-4-10-4t-10 5q-7 9-20.5 9t-21.5-9q-4-5-10.5-5t-10.5 4q-4 4-4.5 9.5T383 505q17 20 43 20t43-20q4-4 3.5-10t-5.5-10zm0 0zm292 54q36-2 61-27.5t25-61q0-35.5-24-61.5-6-45-22-83-26-69-77-124.5T605 92q-78-39-166.5-42T270 81q-17-36-52-58T142 1q-38 0-71 19T19 72Q0 105 0 143t19 70.5Q38 246 71 266q-9 17-19 40-14 37-22 83-23 26-23 61.5t25 61Q57 537 93 539q21 78 75 138.5T297 768q-3 3-9 7l-5 4q-52 41-77 103-21 48-21 104 0 6 4.5 10.5t10.5 4.5h452q6 0 10-4.5t4-10.5q0-55-20-104-25-60-77-103l-5-4q-6-4-9-7 75-30 129-90.5T759 539zm28-173h-2l-3-1v-1q-20-4-30-3v-.5-.5h-1q-7-17-18-34h43q7 23 11 40zm-22 143q2-8 3-15 7-59-5-103-1 0-1-1 14 1 26.5 9t20 21.5Q816 434 816 450q0 22-14.5 38.5T765 509zM592 118q61 32 108 82h-88q-6 0-10 4.5t-4 10.5q0 6 4 10.5t10 4.5h112q23 31 40 67H88q8-18 16-31 11-20 24-36h426q6 0 10-4.5t4-10.5q0-6-4-10.5t-10-4.5H152q53-56 116-86 76-36 162-35t162 39zM96 361q-19 0-32 5l4-14q5-18 8-26h43l-2 3q-10 17-17 32h-4zM29 143q0-30 15.5-56T86 45.5Q112 30 142 30q33 0 60 17.5T243 94l-1 1q-91 46-151 136l-6 9q-26-15-41-41t-15-56zm57 366q-21-4-35.5-20.5T36 450q0-22 14.5-39T87 391q0-1 2-1v1q-12 44-5 102l2 16zm407 278q-3 25-22.5 42t-45 17q-25.5 0-44.5-17t-22-42q33 6 67 6t67-6zM233 893q16-38 45-69v148h-63q3-43 18-79zm74-96q2-2 7-5 11-7 15-10 2 39 30 66.5t67 27.5q39 0 67-27.5t30-66.5q4 3 15 10l7 5v175H307V797zm312 96q15 36 18 79h-63V824q29 31 45 69zM514 752q-43 12-88 12t-88-12q-86-25-146-91.5T116 506q-1 0-1-1-9-49 1-94 10-49 40-85h540q23 28 36 64 16 50 4 116-16 88-76.5 154.5T514 752zm0 0z"/></svg>