<svg viewBox="0 0 1244 1083.753" xmlns="http://www.w3.org/2000/svg"><path d="M912 475V259q0-70-34.5-129t-94-94Q724 1 654 1T524 36q-58 35-92.5 94T397 259v216q-27 17-47.5 42T319 573H47q-19 0-33 13.5T0 620v246q0 17 12 32-12 14-12 31v25q0 19 14 33t33 14h849q44 0 74-30.5t30-73.5V634q0-49-23.5-91T912 475zM428 259q0-62 30.5-114T541 62.5Q593 32 654 32t113.5 30.5q52.5 30.5 83 83T881 259v200h-1q-9-4-21-8l-101-27v-17q20-21 31.5-48t11.5-56v-88q0-25-17.5-42.5T741 155H565q-24 0-41.5 17.5T506 215v88q0 29 11 55t30 47v20l-94 25q-14 4-25 9V259zm224 262q-25-31-51-64-18-23-18-24v-1l2 1q58 31 119 8 4 0 7-3 4-1 12-5l-71 88zm-119-60l26-7 69 86-4 3q-20 10-41.5 5T547 526q-14-17-14-39v-26zm201-75q-1 0-2 2l-3 2q-27 24-60 28t-63.5-9.5Q575 395 557 368q-20-29-20-65v-88q0-12 8.5-20.5T565 186h176q12 0 20.5 8.5T770 215v88q0 24-9.5 45.5T734 386zm12 68l26 6v27q0 22-14 39t-35.5 22q-21.5 5-41.5-5l-4-3 69-86zM31 620q0-7 4.5-11.5T47 604h422q6 0 10.5 4.5T484 620v246q0 7-4.5 11.5T469 882H47q-7 0-11.5-4.5T31 866V620zm16 350q-7 0-11.5-4.5T31 954v-25q0-7 4.5-11.5T47 913h422q6 0 10.5 4.5T484 929v25q0 7-4.5 11.5T469 970H47zm922-73q0 30-21.5 51.5T896 970H688q-16 0-28-11.5T648 931q0-16 12-27.5t28-11.5h164q6 0 10.5-4.5T867 876V679q0-7-4.5-11.5T852 663q-6 0-11 4.5t-5 11.5v181H688q-28 0-47 18t-23 44q-4 26 11 48H513q2-7 3-14v-27q0-17-12-31 12-15 12-32V620q0-20-13.5-33.5T469 573H352q10-25 28-44.5t40-31.5q13-7 26-12 9-3 35-10l21-5v17q0 34 21 59t52.5 32.5Q607 586 638 571l14-8 15 8q31 15 62.5 7.5T782 546q21-25 21-59v-18l17 5q34 8 43 11t26 12q37 21 58.5 57.5T969 634v263zm-711-99q23 0 39-16.5t16-39q0-22.5-16-38.5t-38.5-16q-22.5 0-39 16T203 742.5q0 22.5 16.5 39T258 798zm0-78q10 0 16.5 6.5T281 743q0 10-6.5 17t-16.5 7q-10 0-17-7t-7-17q0-10 7-16.5t17-6.5z"/></svg>