<svg viewBox="0 0 1244 1083.753" xmlns="http://www.w3.org/2000/svg"><path d="M203 923h286q26 0 44-18l169-170q17-16 17.5-38.5t-15.5-39q-16-16.5-38.5-17T627 656l-1 1q-1 0-1 1l-77 77-17 1q-6 0-10.5 4.5T516 751q0 6 4.5 11t10.5 5h24q7 0 10-5l82-82q7-7 17-6.5t16.5 7.5q6.5 7 6.5 16t-7 16L511 883q-9 9-22 9H188q-7 0-11.5 4.5T172 907v16H31V719h141v126q0 7 4.5 11.5T188 861q7 0 11-4.5t4-11.5v-86l60-35q7-5 16-5h143q6 0 12 3t10 7q11 11 9.5 23.5T442 774q-10 9-23 8h-60q-6 0-10.5 4.5T344 798q0 7 4.5 11t10.5 4h60q26 1 45-16.5t20-43.5q1-26-17.5-45.5T422 688H279q-18 0-33 9l-43 26v-19q0-7-4.5-11.5T188 688H16q-7 0-11.5 4.5T0 704v234q0 7 4.5 11.5T16 954h172q6 0 10.5-4.5T203 938v-15zm78-141q-6 0-10.5 4.5T266 798q0 7 4.5 11.5T281 814h16q7 0 11.5-4.5T313 798q0-7-4.5-11.5T297 782h-16zM984 95h-62q-7 0-11.5 4.5T906 111v55L711 50q-5-3-11.5-1.5T690 56l-32 56q-3 6-1 12t7 9l177 105h-13q-19 1-32.5 13.5T781 283H406q-6 0-10.5 4.5T391 298v110q0 6 4.5 10.5T406 423h16v47q0 7 4.5 11.5T438 486h125q6 0 10.5-4.5T578 470v-47h78q7 0 11.5-4.5T672 408q0-6-4.5-11t-11.5-5H422v-78h359v109q0 19 14 33t33 14h31q7 0 11.5-4.5T875 454q0-7-4.5-11t-11.5-4h-31q-6 0-10.5-4.5T813 423V285q0-6 4.5-10.5T828 270h78v294q0 6 4.5 10.5T922 579h62q7 0 11.5-4.5t4.5-10.5V111q0-7-4.5-11.5T984 95zM547 423v31h-94v-31h94zm355-185L693 114l16-29 197 118v35h-4zm67 310h-31V126h31v422zM734 423q7 0 11.5-4.5T750 407q0-7-4.5-11t-11.5-4h-15q-7 0-11.5 4.5T703 407q0 6 4.5 11t11.5 5h15zM563 642V532q0-6-4.5-10.5T547 517q-7 0-11.5 4.5T531 532v110q0 6 4.5 10.5T547 657q7 0 11.5-4t4.5-11zm-94-47v-63q0-6-4.5-10.5T453 517q-7 0-11 4.5t-4 10.5v63q0 6 4.5 11t10.5 5q6 0 11-4.5t5-11.5z"/></svg>