<svg viewBox="0 0 1244 1083.753" xmlns="http://www.w3.org/2000/svg"><path d="M194 417q20 0 36 11 38 28 88.5 28t88.5-28q16-11 36-11h37q5 0 5 5v83q0 6 4.5 10.5T500 520h56q-51 66-51 113 0 34 25 59t59.5 25q34.5 0 59-25t24.5-59q0-49-52-113h57q6 0 10-4.5t4-10.5v-39q0-6-4-10t-10-4q-6 0-10.5 4t-4.5 10v24H515v-68q0-14-10.5-24T480 388h-37q-31 0-53 16-32 23-71.5 23T247 404q-22-16-53-16h-70V220h70q30 0 53-17 32-23 71.5-23t71.5 23q23 17 53 17h77q39 0 72 19t52 52q19 33 19 72v35q0 6 4.5 10t10.5 4q6 0 10-4t4-10v-35q0-47-23-86.5t-62.5-63Q567 190 520 190h-77q-20 0-36-11-11-8-26-15v-55h68q19 0 32.5-13.5T495 63V47q0-19-13.5-32.5T449 1H188q-19 0-32.5 13.5T142 47v16q0 19 13.5 32.5T188 109h69v55q-15 6-27 15-16 11-36 11h-70v-48q0-6-4.5-10.5T109 127H15q-6 0-10.5 4.5T0 142v323q0 7 4.5 11t10.5 4h94q6 0 10.5-4t4.5-11v-48h70zm395 271q-22 0-38.5-16.5T534 633q0-42 55-106 54 63 54 106 0 23-16 39t-38 16zM171 63V47q0-7 5-12t12-5h261q7 0 12 5t5 12v16q0 7-5 12t-12 5H188q-7 0-12-5t-5-12zm115 46h65v45q-15-3-32.5-3t-32.5 3v-45zM95 451H29V157h66v294zm297-147q0-6-4-10.5t-10-4.5H259q-6 0-10 4.5t-4 10.5q0 6 4 10t10 4h119q6 0 10-4t4-10zm-113 44q-6 0-10.5 4.5T264 363q0 6 4.5 10t10.5 4h79q6 0 10.5-4t4.5-10q0-6-4.5-10.5T358 348h-79zm79-89q6 0 10.5-4t4.5-10.5q0-6.5-4.5-10.5t-10.5-4h-79q-6 0-10.5 4t-4.5 10q0 6 4.5 10.5T279 259h79zm627 505h-51q-6 0-10.5 4.5T919 779q0 6 4.5 10.5T934 794h37v178H563q-6 0-10.5 4t-4.5 10q0 6 4.5 10.5t10.5 4.5h422q6 0 10.5-4.5t4.5-10.5V779q0-6-4.5-10.5T985 764zm-747-35q20 0 34 14l92 93q35 35 85 38 9 21 28 33.5t43 12.5h185q6 0 10.5-4t4.5-10q0-6-4.5-10.5T705 891H520q-15 0-27.5-8.5T475 860l-2-4q-2-8-2-14 0-20 14.5-34t34.5-14h49q29 0 54-17.5t45-26.5q23-9 49-9 37 0 65 15 21 10 44 33 5 5 11 5h29q6 0 10-4.5t4-10.5q0-6-4-10.5t-10-4.5h-23q-25-25-50-37-34-16-76-16-31 0-59 12-23 9-52 30-17 11-37 11h-49q-32 0-55 23t-23 55v2q-33-5-57-29l-93-93q-10-10-24.5-16t-29.5-6q-31 0-54 22.5T161 777q0 32 22 55l95 95q36 36 82 55t96 19h38q6 0 10.5-4.5T509 986q0-6-4.5-10t-10.5-4h-38q-44 0-85-17t-72-48l-95-96q-14-14-14-34t14-34q14-14 34-14z"/></svg>