<svg viewBox="0 0 1244 1083.753" xmlns="http://www.w3.org/2000/svg"><path d="M384 453v80q0 45 33 78v300q0 15 11 26t26 11q15 0 26.5-11t11.5-26V791q10 10 25 10h1q99-1 124-58 25-59-52-156 14-25 14-54v-80q63-8 88-31 18-18 17-42-1-26-24-48t-72-42q-25-10-53-19-23-7-26-7 0-1-2-1v-31q25-11 40.5-34t15.5-51V94q0-38-27.5-65.5T494.5 1q-38.5 0-66 27.5T401 94v6q-11 0-21.5 6T362 123q-5 8-8 27-2 15-2 25-3 42 7 49 2 2 5 2 6 0 9-5 9-10 33-25 2-2 6-4 17 30 48 42v29q-6 2-9 4h-2q-36 7-78 23-48 20-71.5 42t-24 47q-.5 25 17.5 43 25 25 91 31zm13-271q-2 1-6 4-16 11-23 18-2-16 .5-41t7-32q4.5-7 11-11t14.5-5v32q0 13 5 30-6 4-9 5zm79 729q0 8-6.5 14.5T454 932q-9 0-15-6.5t-6-14.5v-97h43v97zm144-162q-25 34-102 36h-1q-8 0-14.5-6t-6.5-15q0-9 6-15.5t15-6.5q26 0 43.5-5t24.5-13q24 16 35 25zm-128-13v-93h2q23 0 40-7 25 31 35 55 6 16 4 23-1 4-13 7-16 5-43 5-15 0-25 10zm115-431q86 35 87 75 0 16-13 31-24 22-93 27-12 1-37 1h-25q-7-1-12-6.5t-4.5-12.5q.5-7 6-12t12.5-4h2q33 1 60-1 38-3 54-8 12-5 13.5-14t-8.5-17q-13-10-48-25-7-25-26-47l9 3q15 6 23 10zm-3 53q32 13 37 21-12 4-37 7v-28zM417 99q2-31 20-54t45-27q4-1 12.5-1t11.5 1q27 5 46 27.5T572 99v6q-49-15-78-47-4-2-5-2h-1q-4 0-6 2-27 33-65 47v-6zm0 48v-26q40-12 71-46 35 33 84 46v26q0 32-23 55t-55 23q-32 0-54.5-23T417 147zm100 127q0 12-6 19.5t-15 7.5q-9 0-14.5-9.5T476 269v-30q6 1 18 1 7 0 21-2h2v36zm-57 6q2 16 12.5 26.5t24 10.5q13.5 0 23.5-10t12-26q26 11 41 35t15 52v19q-27 3-58 1h-1q-14-1-24 8.5t-11 23q-1 13.5 8 24t23 11.5h26q26 0 37-1v81H400v-81q11 1 33 1h26q14-1 23-11.5t8-24q-1-13.5-11-23t-24-8.5h-17q-20 1-38 0v-20q0-29 16.5-53t43.5-35zM291 380q1-20 22-38.5t64-36.5q23-9 38-13-18 18-26 45-30 12-45.5 23.5t-14.5 21q1 9.5 23 14.5 17 5 44 7t59 1h1q7-1 12.5 4t6 12.5q.5 7.5-4.5 12.5t-12 6h-25q-25 0-36-1-69-4-93-27-13-13-13-31zm94-24v6l-1 6v18q-22-2-37-8 8-8 38-22zm527 593H89q-11 0-18.5 7.5T63 975q0 11 7.5 18.5T89 1001h823q11 0 18.5-8t7.5-18.5q0-10.5-7.5-18T912 949zm0 36H89q-5 0-8-3t-3-7q0-4 3-7t8-3h823q4 0 7 3t3 7q0 4-3 7t-7 3zM534 168q8 0 14-5.5t6-13.5q0-3-2.5-5.5T546 141q-3 0-5.5 2.5T538 149q0 3-3.5 3t-3.5-3q0-3-2.5-5.5T523 141q-3 0-5.5 2.5T515 149q0 8 5.5 13.5T534 168zm-68-27q-4 0-6 2.5t-2 5.5q0 3-3.5 3t-3.5-3q0-3-2.5-5.5T443 141q-3 0-5.5 2.5T435 149q0 8 5.5 13.5T454 168q8 0 14-5.5t6-13.5q0-3-2.5-5.5T466 141z"/></svg>