<svg viewBox="0 0 1244 1083.753" xmlns="http://www.w3.org/2000/svg"><path d="M381 457v-33q0-6-4.5-10.5T366 409q-6 0-10 4.5t-4 10.5v33q0 6 4 10t10 4q6 0 10.5-4t4.5-10zm0 0zm362 0v-33q0-6-4.5-10.5T728 409q-6 0-10 4.5t-4 10.5v33q0 6 4 10t10 4q6 0 10.5-4t4.5-10zm0 0zm-196 32q34 0 56-25 4-5 3.5-11t-4.5-10q-4-4-10.5-3.5T581 445q-13 15-33.5 15T514 445q-5-5-11-5.5t-10.5 4Q488 448 488 454t4 10q10 12 24.5 18.5T547 489zm0 0zM303 986q0 6 4.5 10.5t10.5 4.5h579q20 0 34.5-14.5T946 952V161q0-20-14.5-34.5T897 112H734q-6 0-10.5 4t-4.5 10q0 6 4.5 10.5T734 141h163q8 0 14 6t6 14v791q0 8-6 14t-14 6H318q-6 0-10.5 4t-4.5 10zm0 0zm-140 15h96q6 0 10.5-4.5T274 986q0-6-4.5-10t-10.5-4h-96q-36 0-67-18t-49-49q-18-31-18-67 0-33 16-62.5T88 727q26-18 56-21 14-2 24-14t10-26V141h497q6 0 10.5-4.5T690 126q0-6-4.5-10t-10.5-4H178V41q0-19-15.5-31T129 2q-27 5-51 19.5T36.5 58Q19 80 9.5 106.5T0 161v677q0 44 22 81.5T81.5 979q37.5 22 81.5 22zM29 161q0-46 30-83t76-48q5-1 9 2.5t4 8.5v625q0 4-2.5 7t-6.5 4q-33 4-61.5 22T29 745V161zm0 0z"/></svg>