<svg viewBox="0 0 1244 1083.753" xmlns="http://www.w3.org/2000/svg"><path d="M321 461q-6 0-10.5 4.5T306 476v33q0 6 4.5 10t10.5 4q6 0 10.5-4t4.5-10v-33q0-6-4.5-10.5T321 461zm0 0zm358 0q-6 0-10.5 4.5T664 476v33q0 6 4.5 10t10.5 4q6 0 10.5-4t4.5-10v-33q0-6-4.5-10.5T679 461zm0 0zm-125 34q-4-4-10-3.5t-11 5.5q-12 14-33 14t-33-14q-4-5-10.5-5.5T446 495q-4 4-4.5 10t3.5 11q10 11 24.5 17.5T500 540q16 0 30.5-6.5T555 516q4-4 4-10t-5-11zm0 0zm424-140q-32-103-103.5-183.5T707 47Q608 1 500 1q-89 0-172.5 30.5T177 119Q93 186 46 290 0 391 0 501q0 132 68 248 66 113 177 180 115 70 247 72h8q107 0 207-46 97-45 168-125 73-82 104-184 21-71 21-145 0-71-22-146zM29 501q0-63 17-126h908q17 63 17 126t-17 126H46q-17-63-17-126zm163-356h132q6 0 10.5-4t4.5-10.5q0-6.5-4.5-10.5t-10.5-4h-95q59-42 128.5-64T500 30q73 0 142.5 22T771 116H383q-7 0-11 4t-4 10.5q0 6.5 4 10.5t11 4h425q43 37 78 86H115q33-48 77-86zM96 260h809q22 37 40 86H56q16-48 40-86zm404 712q-73 0-142.5-22T229 886h542q-59 42-128.5 64T500 972zm405-230H781q-6 0-10.5 4t-4.5 10.5q0 6.5 4.5 10.5t10.5 4h105q-32 45-78 86H192q-47-42-77-86h607q6 0 10.5-4t4.5-10.5q0-6.5-4.5-10.5t-10.5-4H96q-24-38-40-86h889q-18 49-40 86zm0 0z"/></svg>