<svg viewBox="0 0 1244 1083.753" xmlns="http://www.w3.org/2000/svg"><path d="M63 17v234q0 7 4.5 11.5T78 267h156q7 0 11.5-4.5T250 251v-20l44 27q18 9 32 9h121q-9 21-9 46 0 34 17 62.5t45.5 45.5q28.5 17 62.5 17t62.5-17q28.5-17 45.5-45.5t17-62.5l-1-6q15 8 32.5 5t30.5-15q16-17 16-39t-16-38L581 50q-18-18-44-18H250V17q0-7-4.5-11.5T234 1H78q-6 0-10.5 4.5T63 17zm31 15h125v15q0 7 4.5 11.5T234 63h303q13 0 22 9l169 170q6 7 5.5 16.5t-7.5 16q-7 6.5-16 6.5t-16-6l-81-82q-5-5-11-5h-24q-7 0-11.5 5t-4 11.5q.5 6.5 5 11T578 220h17l51 50q10 19 10 43 0 39-27.5 66.5T563 407q-38 0-66-27.5T469 313q0-28 14-48 19-5 32-18 19-20 17-46t-21-43q-19-17-44-16h-61q-6 0-10.5 4.5T391 157q0 6 4.5 11t10.5 5h61q13-1 22.5 7.5t11 21.5q1.5 13-7.5 22.5T471 235H326q-9 0-16-4l-60-36v-85q0-6-4.5-10.5T234 95q-7 0-11 4.5t-4 10.5v125H94V32zm235 140h15q6 0 10.5-4.5T359 157q0-6-4.5-11t-10.5-5h-15q-7 0-11.5 4.5T313 157q0 7 4.5 11t11.5 4zm390 376H406q-6 0-10.5 4.5T391 563q0 6 4.5 11t10.5 5h313q6 0 10.5-4.5T734 563q0-7-4.5-11t-10.5-4zm132-56q-7-10-17.5-16t-23.5-6H315q-13 0-23.5 6T274 492l-84 141q-2 3-2 9v140q0 7 4.5 11.5T203 798q6 0 11-4.5t5-11.5V657h703q7 0 11.5-4.5t4.5-10q0-5.5-3-8.5l-84-142zM231 626l70-117q5-8 14-8h496q8 0 13 8l71 117H231zm35 375h593q33 0 56-23t23-55V782q0-6-4.5-10.5T922 767q-7 0-11.5 4.5T906 782v141q0 19-13.5 33T859 970H266q-19 0-33-14t-14-33q0-7-4.5-11.5T203 907q-7 0-11 4.5t-4 11.5q0 32 23 55t55 23zm656-266q7 0 11.5-4.5T938 720v-16q0-7-4.5-11.5T922 688q-7 0-11.5 4.5T906 704v16q0 6 4.5 10.5T922 735zM203 876q7 0 11.5-4.5T219 860v-15q0-7-4.5-11.5T203 829q-7 0-11 4.5t-4 11.5v15q0 7 4.5 11.5T203 876z"/></svg>