<svg viewBox="0 0 1244 1083.753" xmlns="http://www.w3.org/2000/svg"><path d="M863 407q6 0 10.5-4.5T878 392v-53q0-47-23.5-86.5t-63-62.5Q752 167 705 167h-92v-30h5q7 0 11-4.5t4-10.5V16q0-6-4-10.5T618 1H382q-6 0-10.5 4.5T367 16v106q0 6 4.5 10.5T382 137h5v30h-92q-47 0-86.5 23t-63 62.5Q122 292 122 339v207q0 16 12 30-12 14-12 29.5t12 29.5q-12 14-12 29.5t12 29.5q-12 14-12 30.5t12 28.5q-12 14-12 30v32q0 6 4.5 10.5T137 830q6 0 10.5-4.5T152 815v-32q0-6 4-10.5t11-4.5h666q7 0 11 4.5t4 10.5v124q0 27-18.5 46T784 972H216q-26 0-45-19t-19-46v-23q0-6-4.5-10t-10.5-4q-6 0-10.5 4t-4.5 10v23q0 39 27.5 66.5T216 1001h568q39 0 66.5-27.5T878 907V783q0-16-12-30 12-12 12-28.5T866 694q12-14 12-29.5T866 635q12-14 12-29.5T866 576q12-14 12-30v-85q0-6-4.5-10t-10.5-4q-6 0-10.5 4t-4.5 10v85q0 7-4 11t-11 4H167q-7 0-11-4t-4-11V339q0-39 19-72t52-52q33-19 72-19h410q39 0 72 19t52 52q19 33 19 72v53q0 6 4.5 10.5T863 407zm-30 184q7 0 11 4t4 11q0 7-4 10.5t-11 3.5H167q-7 0-11-4t-4-10q0-6 4-10.5t11-4.5h666zm15 74q0 6-4 10.5t-11 4.5H167q-7 0-11-4.5t-4-10.5q0-6 4-10.5t11-4.5h666q7 0 11 4t4 11zm0 59q0 6-4 10.5t-11 4.5H167q-7 0-11-4.5t-4-10.5q0-6 4-10.5t11-4.5h666q7 0 11 4.5t4 10.5zM396 30h208v77H396V30zm20 107h168v30H416v-30zm-42 386h343q23 0 38.5-16t15.5-38V312q0-23-16-39t-38-16H283q-22 0-38 16t-16 39v157q0 22 16 38t38 16h21q6 0 10.5-4t4.5-10q0-6-4.5-10.5T304 494h-21q-10 0-17.5-7.5T258 469V312q0-11 7.5-18t17.5-7h434q11 0 18 7t7 18v157q0 10-7 17.5t-18 7.5H374q-7 0-11 4.5t-4 10.5q0 6 4 10t11 4zm218-95q-2-5-8-7.5t-11-.5q-5 2-7.5 8t-.5 12q9 23 39 31 16 5 30 5 21 0 41-9 44-20 44-69 0-27-11-48-3-5-9-7t-11 1q-5 3-7 9t1 11q8 16 8 34 0 30-26 42-9 4-21 6l-9 1q-8 0-18-3-19-5-24-16zm-164 48q7-1 13-1 16-2 28-8 44-20 44-69 0-14-3-26h9q9 0 18-3 8 18 24 26 11 7 23 6 19 0 31-14 13-12 13-32-1-17-13.5-29T585 313q-22-2-36 16-11 13-30 13h-30q-8 0-13 7-4 9 0 15 8 16 8 34 0 30-26 42-9 4-21 6l-9 1q-10 0-22-4-16-5-20-15-2-5-8-7.5t-11.5 0q-5.5 2.5-7.5 8t0 11.5q9 23 39 31 15 5 30 5zm144-129q5-5 11.5-5t10.5 4.5q4 4.5 4.5 10T594 367q-5 5-11 5h-1q-4 0-8-2-7-4-11-14 5-3 9-9zm-183 54q19 0 31-14 14-12 12-32-1-17-13-29t-29-13q-22-2-36 16-11 13-27 13h-3q-11 0-19 10-7 8-5 20 5 20 4 36-2 26-18 38-5 4-5.5 10t4 11q4.5 5 10.5 5t9-3q19-14 26-40t0-58q8 0 12-1 8 17 24 26 11 6 23 5zm-12-54q5-5 11-5t10.5 4.5Q403 351 403 357t-4.5 10.5Q394 372 388 372h-1q-13 0-19-16 5-3 9-9z"/></svg>