<svg viewBox="0 0 1244 1083.753" xmlns="http://www.w3.org/2000/svg"><path d="M502 151q3 0 5.5-2.5t2.5-5.5V10q0-4-2.5-6.5t-6-2.5q-3.5 0-6 2.5T493 10v133q0 3 2.5 5.5t6.5 2.5zm0 700q-4 0-6.5 2.5T493 859v133q0 4 2.5 6.5t6 2.5q3.5 0 6-2.5t2.5-6.5V859q0-3-2.5-5.5T502 851zM357 173q2 6 8 6l3-1q3-1 4.5-4.5t.5-6.5l-28-66q-1-3-4-4t-6.5 0q-3.5 1-4.5 4t0 7l27 65zm290 656q-1-4-4.5-5.5t-7 0q-3.5 1.5-5 5t.5 6.5l27 66q1 2 3.5 3.5t4.5 1.5q2 0 3-1 4-1 5.5-4t-.5-7l-27-65zM102 345l65 27h4q5 0 8-5 1-3-.5-6t-4.5-5l-65-27q-4-1-7 0t-5 4q-2 9 5 12zm799 312l-65-27q-3-2-6.5-.5t-4.5 5q-1 3.5 0 6.5t4 5l66 27q1 1 3 1 7 0 8-6 2-3 .5-6.5T901 657zm-722-22q-1-4-4.5-5.5t-7.5.5l-65 27q-3 1-4.5 4.5T97 668q3 6 8 6 2 0 4-1l65-27q3-2 4.5-5t.5-6zm646-268q2 5 8 5h3l65-27q4-1 5.5-4.5t-.5-7q-2-3.5-5-4.5t-6 0l-66 27q-3 2-4 5t0 6zM368 824q-3-2-6.5-.5T357 829l-27 65q-1 4 0 7t3 4q2 1 5 1 5 0 7-5l28-66q1-3-.5-6.5T368 824zm268-646h2l1 1q5 0 8-6l27-65q2-4 .5-7t-5-4q-3.5-1-6.5 0t-5 4l-27 66q-2 3-.5 6.5t5.5 4.5zm348 317H851q-4 0-6.5 2t-2.5 6q0 4 2.5 6.5t6.5 2.5h133q4 0 6.5-2.5t2.5-6.5q0-4-2.5-6t-6.5-2zm-826 8q0-4-2.5-6t-6.5-2H16q-4 0-6.5 2T7 503q0 4 2.5 6.5T16 512h133q4 0 6.5-2.5t2.5-6.5zm597-246q4 0 6-2l94-94q2-3 2-6.5t-2.5-6q-2.5-2.5-6-2.5t-5.5 3l-95 94q-2 2-2 6t2 6q2 2 7 2zM242 749l-94 95q-3 2-3 5.5t2.5 6q2.5 2.5 5.5 2.5t7-2l94-94q5-7 0-13-2-2-6-2t-6 2zm511-4q-3-3-6.5-3t-6 2.5q-2.5 2.5-2.5 6t3 6.5l94 94q2 3 5.5 3t6-2.5q2.5-2.5 2.5-6.5t-2-6l-94-94zM244 260q3 3 7 3t6-2.5q2-2.5 2-6t-3-6.5l-94-94q-2-2-6-2t-6 2q-2 2-2 6t2 6l94 94zm258 435q52 0 95.5-26t69.5-70q26-44 26-96t-26-96q-26-44-69.5-70T502 311q-52 0-96 26t-70 70q-26 44-26 96t26 96q26 44 70 70t96 26zm0-367q47 0 87 23.5t63.5 64Q676 456 676 503t-23.5 87Q629 630 589 653.5T502 677q-47 0-87.5-23.5t-64-63.5Q327 550 327 503t23.5-87.5q23.5-40.5 63.5-64t88-23.5zm0 48q34 0 63.5 17t46.5 46.5q17 29.5 17 63.5 0 4 2 6.5t6 2.5q4 0 6.5-2.5t2.5-6.5q0-39-19.5-72T574 378.5Q541 359 502 359q-4 0-6.5 2.5T493 367q0 3 2.5 6t6.5 3zm0 270q3 0 5.5-2.5t2.5-5.5q0-3-2.5-6t-5.5-3q-34 0-63.5-17T392 566q-17-29-17-63 0-4-2-6.5t-6-2.5q-4 0-6.5 2.5T358 503q0 39 19.5 72t52.5 52q33 19 72 19zm0 106q67 0 124.5-33.5t91-91Q751 570 751 503t-33.5-124.5q-33.5-57.5-91-91T502 254q-67 0-124.5 33.5t-91.5 91Q252 436 252 503t33.5 124.5q33.5 57.5 91 91T502 752zm0-481q63 0 116.5 31t84.5 84.5Q734 440 734 503t-31 116.5Q672 673 618.5 704T502 735q-63 0-116.5-31T301 619.5Q270 566 270 503t31-116.5q31-53.5 84.5-84.5T502 271zM222 503q0-43 12-83 1-4-.5-7t-5-4q-3.5-1-6.5.5t-4 5.5q-13 40-13 88 0 80 39 148 4 4 7 4t5.5-1.5q2.5-1.5 3.5-5t-1-6.5q-37-65-37-139zm336 274q-27 6-56 6-64 0-120.5-27T285 680q-2-3-5.5-3t-6.5 2q-3 2-3 5.5t2 6.5q42 52 102.5 80.5T502 800q31 0 59-6 4-1 6-4t1-6.5q-1-3.5-3.5-5.5t-6.5-1zm204-151q-3-1-6 0t-5 4q-20 39-52 71t-71 51q-3 2-4 5.5t0 6.5q3 5 8 5l4-1q41-21 75-55t55-75q2-3 1-7t-5-5zm1-244q-3 2-4 5t0 6q22 51 22 110 0 4 2.5 6.5t6.5 2.5q4 0 6-2.5t2-6.5q0-61-23-116-1-4-4.5-5.5t-7.5.5zM576 233q86 25 141 92 3 3 7 3 1 0 4-1l1-1q3-2 3-6t-2-6q-59-72-149-97-4-1-7 .5t-4 5q-1 3.5.5 6.5t5.5 4zm-187 13q3 0 4-1 53-22 109-22 3 0 5.5-2.5t2.5-6q0-3.5-2.5-6T502 206q-59 0-116 23-7 3-5 12 3 5 8 5z"/></svg>