<?xml version="1.0" encoding="utf-8"?>
<!-- Generator: Adobe Illustrator 25.0.1, SVG Export Plug-In . SVG Version: 6.00 Build 0)  -->
<svg version="1.1" id="Layer_1" xmlns="http://www.w3.org/2000/svg" xmlns:xlink="http://www.w3.org/1999/xlink" x="0px" y="0px"
	 viewBox="0 0 1200 1200" style="enable-background:new 0 0 1200 1200;" xml:space="preserve">
<style type="text/css">
	.st0{fill:#FFFFFF;}
	.st1{fill:#2C3D4F;}
	.st2{fill:#44D581;}
	.st3{fill:#5CAADB;}
</style>
<g>
	<g>
		<g>
			<path class="st1" d="M519.26,520.08c6.72,0,12.78-4.03,15.38-10.23c10.73-25.56,35.95-43.57,65.36-43.57
				c16.21,0,31.07,5.56,42.98,14.77l-9.34,1.45c-3.19,0.49-5.67,3.02-6.1,6.22c-0.43,3.2,1.29,6.3,4.23,7.62l51.35,23.1
				c2.25,1.01,4.86,0.82,6.93-0.52c2.07-1.34,3.33-3.63,3.34-6.09l0.27-56.58c0.02-3.22-2.08-6.07-5.16-7
				c-3.08-0.94-6.41,0.25-8.19,2.93l-7.08,10.64c-18.87-18.58-44.73-30.06-73.24-30.06c-43.23,0-80.4,26.4-96.25,63.92
				c-2.2,5.2-1.65,11.16,1.47,15.86C508.34,517.24,513.61,520.08,519.26,520.08z"/>
			<path class="st1" d="M694.78,561.91c-3.12-4.71-8.39-7.54-14.03-7.54c-6.72,0-12.78,4.03-15.38,10.23
				c-10.73,25.56-35.95,43.57-65.36,43.57c-16.21,0-31.07-5.56-42.98-14.77l9.34-1.44c3.19-0.49,5.67-3.03,6.1-6.22
				c0.43-3.2-1.29-6.3-4.23-7.62l-51.35-23.1c-2.25-1.01-4.86-0.82-6.93,0.52c-2.07,1.34-3.33,3.63-3.34,6.09l-0.27,56.58
				c-0.02,3.22,2.08,6.07,5.16,7c3.08,0.94,6.41-0.25,8.19-2.93l7.08-10.64c18.87,18.58,44.73,30.06,73.24,30.06
				c43.23,0,80.4-26.4,96.25-63.92C698.45,572.57,697.89,566.61,694.78,561.91z"/>
		</g>
	</g>
	<g>
		<g>
			<path class="st1" d="M462.69,926.9c7.86,0,11.79,3.98,11.79,11.94v90.83c0,7.87-3.93,11.8-11.79,11.8
				c-7.87,0-11.8-3.93-11.8-11.8v-34.4h-42.64v34.4c0,7.87-3.93,11.8-11.8,11.8c-7.67,0-11.51-3.93-11.51-11.8v-90.83
				c0-7.96,3.84-11.94,11.51-11.94c7.87,0,11.8,3.98,11.8,11.94v32.69h42.64v-32.69C450.89,930.88,454.82,926.9,462.69,926.9z"/>
			<path class="st1" d="M518.98,955.9c6.63,0,12.65,1,18.05,2.99c5.4,1.99,9.95,5.43,13.65,10.31c3.69,4.88,5.54,10.87,5.54,17.98
				v44.07c0,3.03-1.02,5.66-3.06,7.89c-2.04,2.23-4.81,3.34-8.32,3.34c-1.8,0-3.79-0.64-5.97-1.92s-3.27-3.29-3.27-6.04v-2.7
				c-7.02,7.11-15.02,10.66-24.02,10.66c-8.06,0-14.45-2.35-19.19-7.04c-4.74-4.69-7.11-10.26-7.11-16.7
				c0-7.11,2.75-13.39,8.24-18.83c5.5-5.45,12.7-8.17,21.61-8.17c8.53,0,15.54,1.99,21.04,5.97v-7.39c0-3.98-1.87-7.27-5.62-9.88
				c-3.74-2.61-7.84-3.91-12.3-3.91c-2.08,0-4.9,0.31-8.46,0.92c-3.55,0.62-6.19,0.92-7.89,0.92c-7.2,0-10.8-3.08-10.8-9.24
				c0-4.07,2.51-7.15,7.53-9.24C504.9,957.23,511.68,955.9,518.98,955.9z M520.68,1008.92c-3.41,0-6.33,0.59-8.74,1.78
				c-2.42,1.19-3.62,2.87-3.62,5.05c0,2.27,1.09,4.03,3.27,5.26c2.18,1.23,4.78,1.85,7.82,1.85c3.6,0,6.77-0.71,9.52-2.13
				c2.75-1.42,4.12-3.32,4.12-5.68c0-1.8-1.26-3.27-3.77-4.41C526.77,1009.49,523.9,1008.92,520.68,1008.92z"/>
			<path class="st1" d="M578.68,921.21c7.67,0,11.51,3.84,11.51,11.51v34.12c5.49-8.05,12.84-12.08,22.03-12.08
				c7.96,0,14.95,3.91,20.97,11.73c6.02,7.82,9.03,18.55,9.03,32.2c0,11.75-3.51,22.06-10.52,30.92
				c-7.01,8.86-14.74,13.29-23.17,13.29c-4.07,0-8.03-1.21-11.87-3.62c-3.84-2.42-6.66-5.81-8.46-10.16v4.69
				c0,2.94-1.09,5.17-3.27,6.68c-2.18,1.52-4.26,2.27-6.25,2.27c-7.39,0-11.09-3.88-11.09-11.66v-98.37
				C567.59,925.05,571.29,921.21,578.68,921.21z M605.83,975.94c-4.93,0-8.7,2.27-11.3,6.82c-2.61,4.55-3.91,9.76-3.91,15.64
				c0,6.06,1.3,11.3,3.91,15.71c2.61,4.41,6.37,6.61,11.3,6.61c4.55,0,7.89-2.13,10.02-6.39c2.13-4.26,3.2-9.38,3.2-15.35
				c0-5.97-1.07-11.3-3.2-15.99C613.72,978.29,610.38,975.94,605.83,975.94z"/>
			<path class="st1" d="M664.82,922.07c3.79,0,6.94,1.26,9.45,3.77c2.51,2.51,3.77,5.57,3.77,9.17c0,3.89-1.26,7.06-3.77,9.53
				c-2.51,2.46-5.66,3.69-9.45,3.69c-3.6,0-6.71-1.28-9.31-3.84c-2.61-2.56-3.91-5.68-3.91-9.38c0-3.6,1.3-6.66,3.91-9.17
				C658.11,923.32,661.21,922.07,664.82,922.07z M665.1,957.04c7.68,0,11.51,3.79,11.51,11.37v61.55c0,7.67-3.79,11.51-11.37,11.51
				c-7.59,0-11.37-3.84-11.37-11.51v-61.55C653.87,960.83,657.61,957.04,665.1,957.04z"/>
			<path class="st1" d="M710.02,940.55c7.67,0,11.51,3.75,11.51,11.23v5.83h6.39c4.17,0,7.15,0.64,8.96,1.92
				c1.8,1.28,2.7,3.77,2.7,7.46c0,3.6-0.9,6.09-2.7,7.46c-1.8,1.37-4.74,2.06-8.81,2.06h-6.54v34.97c0,3.41,0.19,5.78,0.57,7.11
				c0.38,1.33,1.23,1.99,2.56,1.99c8.15,0,12.22,3.69,12.22,11.09c0,7.3-4.07,10.94-12.22,10.94c-9.95,0-16.75-2.56-20.4-7.67
				c-3.65-5.12-5.47-12.94-5.47-23.45v-35.25c-3.32-0.28-5.85-1.14-7.61-2.56c-1.75-1.42-2.63-3.69-2.63-6.82
				c0-3.03,0.85-5.21,2.56-6.54c1.71-1.33,4.27-2.23,7.68-2.7v-5.83C698.79,944.29,702.53,940.55,710.02,940.55z"/>
			<path class="st1" d="M759.77,960.59c6.16-4.45,13.88-6.68,23.17-6.68s17.15,1.76,23.6,5.26c3.88,2.09,5.83,5.17,5.83,9.24
				c0,2.65-0.92,4.97-2.77,6.96c-1.85,1.99-4.33,2.98-7.46,2.98c-2.47,0-6.04-0.8-10.73-2.42c-4.69-1.61-8.51-2.42-11.44-2.42
				c-4.46,0-6.68,1.8-6.68,5.4c0,1.8,1.44,3.55,4.34,5.26c2.89,1.71,6.37,3.44,10.45,5.19c4.07,1.75,8.15,3.69,12.22,5.83
				c4.07,2.13,7.56,5,10.45,8.6c2.89,3.6,4.33,7.63,4.33,12.08c0,8.91-3.32,15.62-9.95,20.12c-6.63,4.5-14.45,6.75-23.45,6.75
				c-9.67,0-19-2.84-28-8.53c-3.13-2.08-4.69-5.21-4.69-9.38c0-3.03,1.07-5.4,3.2-7.11s4.62-2.56,7.46-2.56
				c2.65,0,6.4,1.35,11.23,4.05c4.83,2.7,9.29,4.05,13.36,4.05c4.74,0,7.11-1.8,7.11-5.4c0-2.08-1.4-4.03-4.2-5.83
				c-2.79-1.8-6.21-3.55-10.23-5.26c-4.03-1.71-8.03-3.6-12.01-5.69c-3.98-2.08-7.37-4.93-10.16-8.53c-2.8-3.6-4.2-7.72-4.2-12.37
				C750.53,971.58,753.61,965.04,759.77,960.59z"/>
		</g>
	</g>
	<g>
		<path class="st0" d="M677.47,287.49l-57.03,60.33l-1.12,1.18l-0.32,0.35l-7.57,8.04c-0.88-0.09-1.77-0.12-2.65-0.15
			c-2.77-0.15-5.56-0.21-8.36-0.21c-1.59,0-3.15,0.03-4.74,0.06c-2.86,0.09-5.71,0.21-8.54,0.44c-8.1,0.56-16.05,1.68-23.79,3.3
			c-7.36,1.53-14.55,3.5-21.55,5.89l10.6-11.22l0.44-0.47l3.74-3.97l60.07-63.51l-52.68-55.59l-0.03-0.03l-2.33-2.47l-2.41-2.53
			l-2.12-2.27c1.06-0.15,2.15-0.29,3.21-0.44c3.71-0.44,7.45-0.85,11.25-1.18c5.01-0.47,10.13-0.82,15.31-1.06
			c0.71-0.03,1.44-0.06,2.15-0.09h0.29c1.03-0.03,2.06-0.06,3.06-0.09c1.3-0.03,2.62-0.06,3.92-0.06c0.97-0.03,1.88-0.06,2.83-0.06
			h0.74c1.21,0,2.38,0,3.56,0.03c1.41,0,2.83,0.03,4.24,0.06c2.53,0.06,5.06,0.15,7.6,0.26h0.21l2.53,2.68l2.89,3.03l2.65,2.8
			L677.47,287.49z"/>
		<g>
			<g>
				<g>
					<g>
						<path class="st2" d="M753.26,639.88l-0.71-2.74c0.12-0.15,0.24-0.29,0.32-0.47L753.26,639.88z"/>
					</g>
					<g>
						<path class="st2" d="M866.91,705.33c-49.05,77.88-131.59,133.68-230.11,145.25c-95.22,11.19-185.53-21.29-250.84-81.68
							l2.41-12.75l10.04-52.91l4.33-22.79l82.56,10.98v0.03h0.03l22.64,3c27.06,16.05,58.65,25.29,92.43,25.29
							c58.24,0,110.09-27.44,143.25-70.14l19.55,76.73l18.4-3.62l64.25-12.6l20.35-3.98c0.18-0.26,0.38-0.53,0.56-0.8L866.91,705.33
							z"/>
					</g>
				</g>
				<g>
					<path class="st1" d="M797.87,707.63l0.27-0.06c-0.03,0.03-0.09,0.09-0.12,0.12C797.98,707.66,797.93,707.63,797.87,707.63z"/>
					<path class="st1" d="M915.44,537.82v3.09c-0.03,1.24-0.06,2.44-0.06,3.65c-0.06,1.94-0.12,3.89-0.21,5.8
						c-0.06,1.82-0.15,3.65-0.27,5.45c0,0.15,0,0.29-0.03,0.44c-0.09,1.74-0.21,3.47-0.32,5.21c-0.06,0.59-0.09,1.21-0.18,1.8
						c-0.09,1.15-0.18,2.27-0.29,3.39l0.03,0.06c-0.03,0.35-0.09,0.68-0.12,1c-0.03,0.35-0.06,0.71-0.12,1.03
						c0,0.12,0,0.24-0.03,0.35c-0.06,0.8-0.15,1.56-0.24,2.33c-0.03,0.41-0.09,0.82-0.12,1.24c-0.15,1.15-0.26,2.3-0.41,3.44
						c0,0.03,0,0.03,0,0.06c-0.09,0.71-0.18,1.38-0.27,2.06c-0.03,0.15-0.03,0.29-0.06,0.44c-0.18,1.38-0.38,2.77-0.59,4.15
						c-0.12,0.88-0.24,1.77-0.38,2.65c-0.15,0.91-0.26,1.77-0.41,2.68c-0.24,1.38-0.47,2.83-0.74,4.21
						c-0.06,0.38-0.12,0.74-0.21,1.09c-0.26,1.62-0.56,3.21-0.88,4.8c-0.53,2.74-1.12,5.48-1.74,8.22
						c-0.21,0.97-0.41,1.94-0.65,2.92c-0.03,0.03-0.03,0.09-0.06,0.15c-0.09,0.44-0.21,0.91-0.32,1.35
						c-0.24,1.03-0.5,2.06-0.77,3.06c-0.03,0.15-0.03,0.29-0.09,0.41c-0.27,1.15-0.59,2.33-0.88,3.47
						c-0.03,0.03-0.03,0.03-0.03,0.06c-0.27,1.03-0.56,2.09-0.82,3.12c-0.12,0.41-0.24,0.85-0.38,1.27
						c-0.03,0.09-0.03,0.18-0.06,0.26c-0.06,0.15-0.09,0.29-0.12,0.41c-0.06,0.21-0.12,0.41-0.18,0.62
						c-0.21,0.74-0.41,1.47-0.65,2.24c-0.03,0.12-0.06,0.24-0.09,0.35c-0.24,0.8-0.47,1.53-0.71,2.3c-0.27,0.97-0.59,1.94-0.88,2.89
						c-0.21,0.74-0.44,1.47-0.68,2.21c-0.03,0.09-0.06,0.18-0.09,0.26c0,0.03-0.03,0.06-0.03,0.09c-0.27,0.8-0.5,1.56-0.8,2.36
						c-0.03,0.15-0.06,0.26-0.12,0.38c-0.15,0.47-0.29,0.94-0.44,1.38c-0.18,0.44-0.32,0.91-0.47,1.38
						c-0.03,0.09-0.06,0.15-0.09,0.24l-1.59,4.51c-0.68,1.85-1.35,3.71-2.06,5.56c-0.77,2.03-1.56,4.03-2.39,6.01l-12.13,2.39
						l-0.56,0.09l-0.03,0.03l-48.35,9.48l-35.42,6.95l-18.87-74.29l-0.03-0.12l-1-3.95l-1.62-6.42c4.09-13.81,6.57-28.3,7.24-43.28
						c0.12-2.71,0.18-5.48,0.18-8.22c0-13.07-1.38-25.82-4-38.1c-7.83-36.63-26.71-69.14-53-93.87c-0.15-0.15-0.29-0.26-0.44-0.41
						c-0.03-0.03-0.03-0.03-0.06-0.03c-29.92-28.06-69.31-45.99-112.86-48.58l7.57-8.04l0.32-0.35l1.12-1.18l57.03-60.33
						l-53.97-56.94l-2.65-2.8l-2.89-3.03l-2.53-2.68c2.44,0.12,4.89,0.29,7.33,0.47h0.41c1.65,0.15,3.33,0.26,5.01,0.41
						c1.68,0.15,3.33,0.32,5.01,0.5c1.5,0.15,3.03,0.32,4.56,0.5c1.24,0.15,2.47,0.29,3.71,0.47c1.06,0.15,2.09,0.26,3.15,0.44
						c0.26,0.03,0.53,0.06,0.8,0.09c0.15,0.03,0.26,0.03,0.41,0.06c0.03,0,0.03,0.03,0.06,0.03c1,0.15,1.97,0.29,2.97,0.47
						c1.24,0.18,2.47,0.35,3.68,0.59c3.68,0.59,7.3,1.27,10.92,2.03c0.06,0,0.09,0,0.12,0.03c0.03,0,0.06,0,0.06,0
						c0.21,0.03,0.35,0.09,0.56,0.12c0.77,0.15,1.53,0.32,2.3,0.5c0.09,0,0.18,0.03,0.27,0.03c0.18,0.06,0.38,0.09,0.53,0.12
						c1.32,0.29,2.65,0.59,3.95,0.91c0.53,0.12,1.03,0.24,1.56,0.35c0.53,0.12,1.03,0.23,1.56,0.38c1.27,0.29,2.53,0.62,3.8,0.94
						c0.21,0.03,0.38,0.09,0.56,0.15c0.18,0.03,0.32,0.06,0.47,0.12c0.77,0.21,1.56,0.41,2.33,0.59c1.18,0.32,2.39,0.68,3.56,1
						c1.18,0.32,2.36,0.68,3.53,1c1.18,0.35,2.35,0.71,3.53,1.06c1.15,0.35,2.33,0.74,3.5,1.12c1.15,0.35,2.33,0.74,3.47,1.12
						c2.33,0.76,4.62,1.56,6.95,2.39c1.15,0.41,2.3,0.82,3.45,1.27c0.85,0.32,1.74,0.65,2.59,0.97c1.27,0.47,2.53,0.97,3.77,1.47
						c0.03,0,0.03,0,0.06,0.03l3.8,1.5c1.12,0.47,2.24,0.94,3.36,1.41l3.36,1.44c0.47,0.23,0.97,0.44,1.47,0.65
						c0.47,0.24,0.97,0.44,1.44,0.68c0.03,0,0.03,0,0.03,0s0,0,0.03,0c1.21,0.56,2.44,1.12,3.68,1.71c1.09,0.5,2.18,1.03,3.3,1.56
						c1.21,0.59,2.41,1.18,3.62,1.77c0.97,0.47,1.94,0.97,2.89,1.44c2.18,1.12,4.33,2.24,6.45,3.39c1.03,0.56,2,1.09,3,1.65
						c0.38,0.21,0.74,0.38,1.09,0.62c1.35,0.74,2.68,1.47,4,2.24c0.18,0.09,0.32,0.21,0.5,0.29c1.41,0.83,2.86,1.68,4.24,2.53
						c0.09,0.03,0.18,0.09,0.27,0.15c0.15,0.09,0.26,0.15,0.38,0.24c0.38,0.24,0.77,0.47,1.12,0.68c0.41,0.23,0.77,0.44,1.15,0.68
						c1.03,0.65,2.06,1.3,3.09,1.94c1.94,1.21,3.92,2.5,5.86,3.77c1.53,1,3,2.03,4.5,3.06c0.09,0.06,0.15,0.09,0.21,0.15
						c0.09,0.06,0.18,0.12,0.27,0.18c1.41,0.97,2.8,1.97,4.21,2.94c0.97,0.71,1.97,1.41,2.94,2.15c0.09,0.06,0.18,0.12,0.27,0.18
						c0.94,0.68,1.85,1.38,2.77,2.06c0.94,0.71,1.85,1.38,2.77,2.12c0.97,0.74,1.91,1.47,2.86,2.21c0.97,0.77,1.91,1.5,2.86,2.27
						c0.47,0.35,0.91,0.77,1.41,1.12c0.47,0.38,0.91,0.77,1.38,1.15c0.94,0.76,1.85,1.56,2.8,2.33c0.91,0.8,1.83,1.56,2.77,2.35
						c0.91,0.8,1.83,1.59,2.71,2.39c1.83,1.62,3.62,3.24,5.39,4.86c0.88,0.83,1.8,1.65,2.65,2.5c0.94,0.85,1.85,1.74,2.77,2.62
						c0.8,0.74,1.56,1.5,2.3,2.27c0.15,0.15,0.29,0.26,0.44,0.41c0.77,0.76,1.53,1.53,2.3,2.33c0.85,0.85,1.68,1.71,2.53,2.59
						c0.83,0.85,1.68,1.74,2.5,2.62c0.85,0.88,1.68,1.77,2.47,2.65c1.21,1.32,2.41,2.65,3.59,4c0.12,0.09,0.21,0.21,0.32,0.32
						c0.77,0.85,1.53,1.74,2.3,2.62c0.15,0.15,0.26,0.32,0.41,0.47c0.15,0.18,0.29,0.35,0.44,0.53c0.5,0.53,0.94,1.09,1.41,1.65
						c0.88,1.03,1.8,2.09,2.65,3.15c0.56,0.68,1.09,1.32,1.62,1.97c0.53,0.68,1.06,1.32,1.62,1.97c0.15,0.21,0.32,0.44,0.47,0.65
						c0.91,1.12,1.8,2.27,2.68,3.42c0.74,0.91,1.47,1.88,2.18,2.83c0.35,0.47,0.71,0.94,1.06,1.41c0.38,0.5,0.71,0.97,1.06,1.44
						c0.85,1.15,1.71,2.27,2.5,3.44c1.3,1.8,2.59,3.62,3.86,5.45c0.65,0.94,1.3,1.91,1.94,2.89c0.97,1.44,1.91,2.91,2.86,4.36
						c0.82,1.27,1.62,2.53,2.41,3.8c0.53,0.82,1.06,1.65,1.56,2.5c0.62,1,1.24,2,1.83,3.03c0.15,0.21,0.27,0.41,0.38,0.62
						c1.71,2.89,3.39,5.8,5.01,8.72c0.38,0.74,0.8,1.47,1.21,2.21c0.35,0.68,0.71,1.35,1.06,2.03c0.32,0.53,0.59,1.09,0.88,1.65
						c0.26,0.53,0.56,1.06,0.85,1.62c0.03,0.06,0.06,0.12,0.09,0.18c0.41,0.83,0.82,1.62,1.24,2.42c0.32,0.68,0.68,1.38,1.03,2.06
						c0.06,0.12,0.12,0.24,0.15,0.35c0.47,0.88,0.91,1.77,1.32,2.68c0.09,0.18,0.18,0.38,0.27,0.56c1.38,2.86,2.68,5.68,3.97,8.57
						c0.29,0.68,0.59,1.35,0.88,2.03c0.03,0.12,0.09,0.24,0.15,0.35c0.38,0.91,0.77,1.8,1.15,2.71c0.09,0.15,0.15,0.29,0.18,0.41
						c0.27,0.56,0.5,1.12,0.71,1.71c0.24,0.56,0.47,1.15,0.71,1.71c0.77,1.85,1.5,3.71,2.21,5.59c0.56,1.38,1.09,2.77,1.59,4.18
						c0.06,0.15,0.12,0.29,0.18,0.44c0.27,0.76,0.56,1.53,0.82,2.32c0.44,1.21,0.85,2.42,1.27,3.62c0.35,1,0.68,1.97,1,2.97
						c0.26,0.74,0.5,1.5,0.74,2.24c0.09,0.18,0.12,0.35,0.18,0.53c0.35,1.03,0.68,2.06,1,3.12c0.24,0.76,0.5,1.56,0.74,2.35v0.09
						c0.47,1.5,0.91,3.03,1.35,4.56c0.24,0.8,0.44,1.59,0.68,2.39c0.18,0.65,0.35,1.33,0.53,1.97c0.06,0.24,0.12,0.41,0.18,0.65
						c0.18,0.62,0.32,1.24,0.5,1.85c0.18,0.65,0.35,1.33,0.5,1.97c0.12,0.41,0.21,0.85,0.32,1.3c0.18,0.74,0.38,1.47,0.56,2.21
						c0.24,1.03,0.5,2.09,0.74,3.12c0.24,1.06,0.47,2.12,0.71,3.18c0.21,0.85,0.38,1.71,0.56,2.56c0.06,0.21,0.09,0.38,0.15,0.56
						c0.06,0.47,0.18,0.91,0.27,1.38c0.21,1.06,0.41,2.12,0.65,3.18c0.15,0.77,0.29,1.56,0.44,2.36c0.15,0.8,0.29,1.62,0.44,2.41
						c0.18,1.06,0.38,2.12,0.56,3.15c0.21,1.36,0.44,2.68,0.65,4.01c0.12,0.76,0.24,1.53,0.35,2.33c0,0.12,0.03,0.26,0.06,0.38
						c0,0.12,0.03,0.24,0.06,0.35c0,0.12,0.03,0.24,0.06,0.35c0.03,0.32,0.06,0.62,0.12,0.94c0.35,2.56,0.71,5.12,1,7.74
						c0.21,1.74,0.38,3.47,0.56,5.21c0.09,0.88,0.18,1.74,0.27,2.59c0.09,0.88,0.15,1.74,0.21,2.62c0.06,0.53,0.12,1.09,0.15,1.62
						c0.03,0.32,0.06,0.68,0.09,1c0.06,0.88,0.12,1.74,0.18,2.59c0.03,0.56,0.09,1.06,0.12,1.59c0.03,0.53,0.06,1.03,0.09,1.53
						c0.03,0.68,0.06,1.35,0.12,2.03v0.12c0.03,0.47,0.06,0.94,0.06,1.41c0.06,1.41,0.12,2.83,0.18,4.21
						c0.03,0.53,0.03,1.03,0.06,1.56v0.88c0.06,1.47,0.09,2.94,0.09,4.45C915.44,535.2,915.44,536.53,915.44,537.82z"/>
				</g>
				<g>
					<g>
						<polygon class="st3" points="384.82,767.84 384.82,767.87 384.56,767.61 						"/>
					</g>
					<g>
						<path class="st3" d="M616.64,287.55l-60.07,63.51l-3.74,3.97l-0.44,0.47l-10.6,11.22c-24.91,8.48-47.38,22.26-66.07,40.01
							c-7.48,7.1-14.34,14.81-20.52,23.06c-18.58,24.79-30.95,54.47-34.8,86.77c-0.88,7.15-1.32,14.43-1.32,21.82
							c0,11.81,1.12,23.35,3.3,34.54c5.09,26.44,15.93,50.85,31.15,71.85l-84.68-11.28l-4.89,25.76l-13.46,70.99l-0.03-0.03
							c-2.68-3.44-5.3-6.98-7.86-10.54c-0.03-0.06-0.09-0.12-0.12-0.18c-0.09-0.15-0.18-0.29-0.29-0.44c-1-1.41-2-2.83-2.94-4.27
							c-0.21-0.26-0.38-0.56-0.59-0.85c-0.03-0.03-0.06-0.06-0.06-0.09c-16.4-24.23-29.56-50.97-38.78-79.68
							c-1.5-4.59-2.89-9.25-4.15-13.96c-4.06-14.93-7.07-30.36-8.92-46.17c-4.27-36.45-2.18-72.17,5.45-106.03
							c0.15-0.68,0.32-1.38,0.47-2.06c4.47-19.37,10.75-38.1,18.7-56c40.37-91.43,123.2-161.41,226.43-182.05
							c6.36-1.27,12.78-2.36,19.29-3.24l2.12,2.27l2.41,2.53l2.33,2.47l0.03,0.03L616.64,287.55z"/>
					</g>
				</g>
			</g>
			<g>
				<path class="st0" d="M752.88,636.67l0.38,3.21l-0.71-2.74C752.67,636.99,752.79,636.84,752.88,636.67z"/>
				<path class="st0" d="M880.25,658.1l-0.56,0.09l-0.03,0.03l-48.35,9.48l-35.42,6.95l-18.87-74.29l-0.03-0.12l-1-3.95l-1.62-6.42
					c-1.97,6.74-4.36,13.31-7.1,19.7c-0.15,0.41-0.35,0.82-0.53,1.24c-3.92,9.04-8.57,17.67-13.87,25.85l0.38,3.21l-0.71-2.74
					c-2.77,4.3-5.74,8.45-8.89,12.49l19.55,76.73l18.4-3.62l64.25-12.6l20.35-3.98c0.18-0.26,0.38-0.53,0.56-0.8
					c2.89-4.83,5.45-9.16,7.51-12.72c3.12-5.36,5.18-9.01,5.74-10.1c0.71-1.38,1.27-2.47,1.27-2.47c0.44-0.88,0.88-1.77,1.32-2.65
					c0.27-0.53,0.53-1.09,0.82-1.65c0.53-1.12,1.09-2.24,1.62-3.36c0.03-0.06,0.06-0.15,0.09-0.21c0.35-0.77,0.71-1.5,1.06-2.24
					c0.03-0.12,0.09-0.23,0.15-0.32c0.06-0.15,0.15-0.32,0.21-0.47c0.06-0.12,0.12-0.27,0.18-0.41v-0.03c0.35-0.71,0.68-1.41,1-2.15
					c0.32-0.74,0.65-1.47,0.97-2.21c0.65-1.44,1.3-2.91,1.91-4.39c0-0.03,0.03-0.03,0.03-0.06c0.59-1.41,1.18-2.8,1.74-4.21
					L880.25,658.1z M798.01,707.69c-0.03-0.03-0.09-0.06-0.15-0.06l0.27-0.06C798.1,707.6,798.04,707.66,798.01,707.69z"/>
				<path class="st0" d="M752.88,636.67l0.38,3.21l-0.71-2.74C752.67,636.99,752.79,636.84,752.88,636.67z"/>
				<path class="st0" d="M797.87,707.63l0.27-0.06c-0.03,0.03-0.09,0.09-0.12,0.12C797.98,707.66,797.93,707.63,797.87,707.63z"/>
			</g>
			<g>
				<path class="st0" d="M508.37,694.5l-0.38-0.03l-22.64-3h-0.03v-0.03l-82.56-10.98l-4.33,22.79l-10.04,52.91l-2.41,12.75
					l-1.15-1.03v-0.03l-0.27-0.24c-2.97-2.91-5.68-5.59-8.1-8.04c-2.3-2.27-4.3-4.36-6.04-6.15c-2.53-2.59-4.42-4.65-5.65-6.01
					c-2.68-2.97-5.15-5.89-5.15-5.89c-1.12-1.33-2.24-2.65-3.33-3.98c-1-1.21-1.97-2.41-2.94-3.62c-0.94-1.21-1.91-2.44-2.86-3.68
					l13.46-70.99l4.89-25.76l84.68,11.28c3.12,4.33,6.45,8.48,9.92,12.48c4.92,5.68,10.19,11.04,15.78,16.05
					c2.8,2.53,5.68,4.98,8.63,7.3c5.86,4.65,12.04,8.95,18.46,12.87c0.06,0.03,0.12,0.06,0.18,0.09
					C507.1,693.85,507.72,694.17,508.37,694.5z"/>
			</g>
		</g>
	</g>
</g>
</svg>
