<?xml version="1.0" encoding="utf-8"?>
<!-- Generator: Adobe Illustrator 25.0.1, SVG Export Plug-In . SVG Version: 6.00 Build 0)  -->
<svg version="1.1" id="Layer_1" xmlns="http://www.w3.org/2000/svg" xmlns:xlink="http://www.w3.org/1999/xlink" x="0px" y="0px"
	 viewBox="0 0 1200 1200" style="enable-background:new 0 0 1200 1200;" xml:space="preserve">
<style type="text/css">
	.st0{fill:#FFFFFF;}
	.st1{fill:#2C3D4F;}
	.st2{fill:#44D581;}
	.st3{fill:#5CAADB;}
</style>
<g>
	<path class="st0" d="M327.88,504.34l-22.01,23.29l-0.43,0.45l-0.13,0.14l-2.92,3.1c-0.34-0.03-0.68-0.05-1.02-0.06
		c-1.07-0.06-2.15-0.08-3.23-0.08c-0.61,0-1.22,0.01-1.83,0.02c-1.1,0.03-2.2,0.08-3.3,0.17c-3.13,0.22-6.19,0.65-9.18,1.27
		c-2.84,0.59-5.61,1.35-8.32,2.27l4.09-4.33l0.17-0.18l1.44-1.53l23.19-24.52l-20.33-21.46l-0.01-0.01l-0.9-0.96l-0.93-0.98
		l-0.82-0.88c0.41-0.06,0.83-0.11,1.24-0.17c1.43-0.17,2.88-0.33,4.34-0.45c1.93-0.18,3.91-0.32,5.91-0.41
		c0.27-0.01,0.56-0.02,0.83-0.03h0.11c0.4-0.01,0.8-0.02,1.18-0.03c0.5-0.01,1.01-0.02,1.51-0.02c0.38-0.01,0.73-0.02,1.09-0.02
		h0.28c0.47,0,0.92,0,1.38,0.01c0.55,0,1.09,0.01,1.64,0.02c0.98,0.02,1.95,0.06,2.93,0.1h0.08l0.98,1.03l1.11,1.17l1.02,1.08
		L327.88,504.34z"/>
	<path class="st1" d="M180.51,632.77c-6.72,4.98-10.99,12.99-10.99,22.16v188.32c0,15.47-12.15,27.62-27.62,27.62
		c-15.47,0-27.62-12.15-27.62-27.62V654.93c0.16-8.41,1.64-23.88,10.65-40.23c5.44-9.89,11.91-16.97,16.97-21.64
		c10.5-9.33,23.2-15.93,37.12-19.01c0.05-0.01,0.1-0.02,0.15-0.03v0.01c-2.94,13.07-3.75,26.86-2.1,40.93
		C177.78,621.05,178.94,627.01,180.51,632.77z"/>
	<g>
		<path class="st1" d="M563.16,648.91c-17.13,0-30.94,13.81-30.94,30.94c0,17.13,13.81,31.49,30.94,31.49s30.94-14.37,30.94-31.49
			C594.1,662.72,580.29,648.91,563.16,648.91z"/>
		<path class="st1" d="M488.58,648.91c-17.13,0-30.94,13.81-30.94,30.94c0,17.13,13.81,31.49,30.94,31.49
			c17.68,0,31.49-14.37,31.49-31.49C520.07,662.72,506.27,648.91,488.58,648.91z"/>
	</g>
	<g>
		<path class="st1" d="M851.25,659.67c-1.07,1.07-1.6,2.4-1.6,3.91v17.62h-21.17v-17.62c0-1.51-0.53-2.76-1.6-3.91
			c-1.07-0.98-2.4-1.51-3.91-1.51c-1.51,0-2.76,0.53-3.92,1.51c-1.07,1.07-1.6,2.4-1.6,3.91v46.09c0,1.51,0.53,2.84,1.6,3.82
			c1.16,1.07,2.41,1.6,3.92,1.6c3.11,0,5.51-2.49,5.51-5.42v-17.45h21.17v17.45c0,1.51,0.53,2.84,1.6,3.82
			c2.22,2.14,5.6,2.14,7.82,0c1.07-0.98,1.6-2.31,1.6-3.82v-46.09C861.03,658.77,854.62,656.37,851.25,659.67z"/>
		<path class="st1" d="M917.7,707.34l-19.75-45.9c-0.8-2.14-2.84-3.28-4.98-3.28c-2.4,0-4,1.07-4.98,3.28l-20.03,45.9
			c-0.35,0.8-0.52,1.51-0.52,2.32c0,0.61,0.08,1.24,0.35,1.86c0.44,1.51,1.42,2.58,2.75,3.11c0.81,0.26,1.6,0.44,2.41,0.44
			c0.62,0,1.24-0.09,1.96-0.35c1.51-0.44,2.49-1.42,3.02-2.94l4.63-11.3h20.55l4.63,11.3c0.72,1.52,1.78,2.5,3.2,2.94
			c0.8,0.26,1.42,0.35,2.05,0.35c1.6,0,2.93-0.63,3.91-1.77c0.9-0.99,1.34-2.14,1.34-3.48C918.23,709.04,918.05,708.14,917.7,707.34
			z M887.09,689.47l5.6-13.71l5.69,13.71H887.09z"/>
		<path class="st1" d="M958.26,684.93c2.76-3.03,4.09-6.59,4.09-10.59c0-4.53-1.59-8.36-4.71-11.48c-3.11-3.11-6.85-4.71-11.39-4.71
			h-15.84c-1.51,0-2.75,0.53-3.91,1.51c-1.07,1.07-1.6,2.4-1.6,3.91v46.09c0,1.51,0.53,2.84,1.6,3.82c1.16,1.07,2.4,1.6,3.91,1.6
			h16.47c4.89,0,8.98-1.69,12.45-4.98c3.3-3.3,4.99-7.39,4.99-12.1C964.32,692.93,962.18,688.12,958.26,684.93z M935.94,669.18h9.6
			c1.51,0,2.85,0.53,4,1.51c1.16,1.16,1.78,2.41,1.78,3.92c0,1.51-0.53,2.93-1.69,4.18c-1.16,1.24-2.58,1.86-4.09,1.86h-9.6V669.18z
			 M951.24,701.92c-1.42,1.42-3.02,2.13-4.72,2.13h-10.58V690.7h10.58c1.88,0,3.39,0.62,4.72,1.88c1.33,1.33,2.05,2.84,2.05,4.53
			C953.28,698.98,952.57,700.58,951.24,701.92z"/>
		<path class="st1" d="M981.75,659.67c-1.07-0.98-2.4-1.51-3.91-1.51s-2.76,0.53-3.92,1.51c-1.07,1.07-1.6,2.4-1.6,3.91v46.09
			c0,1.51,0.53,2.84,1.6,3.82c1.16,1.07,2.41,1.6,3.92,1.6c3.11,0,5.51-2.49,5.51-5.42v-46.09
			C983.36,662.06,982.82,660.81,981.75,659.67z"/>
		<path class="st1" d="M1031.03,659.75c-1.15-1.06-2.4-1.59-3.91-1.59h-31.68c-1.42,0-2.66,0.53-3.82,1.51
			c-1.07,1.07-1.6,2.4-1.6,3.91c0,3.11,2.49,5.51,5.42,5.51h10.5v40.57c0,1.51,0.53,2.75,1.6,3.82c1.86,2.14,5.42,2.14,7.56,0
			c1.16-0.98,1.69-2.31,1.69-3.82v-40.57h10.32c1.51,0,2.76-0.53,3.91-1.6c0.98-0.98,1.51-2.31,1.51-3.82
			C1032.64,662.15,1032.1,660.81,1031.03,659.75z"/>
		<path class="st1" d="M1071.96,686.79c-2.75-2.23-6.4-3.91-11.02-4.9c-4.72-0.89-7.83-1.68-9.25-2.31
			c-2.41-1.16-3.39-2.4-3.39-4.53c0-1.88,0.81-3.3,2.32-4.46c1.59-1.24,3.64-1.86,6.23-1.86c2.13,0,3.91,0.27,5.33,0.89
			c0.89,0.44,1.51,0.81,1.96,1.16c1.97,1.33,3.3,2.14,4.09,2.32c0.45,0.08,0.9,0.17,1.25,0.17c0.8,0,1.51-0.17,2.31-0.53
			c0.99-0.44,1.78-1.07,2.32-2.05c0.44-0.8,0.62-1.6,0.62-2.4v-0.62c0-0.53-0.18-1.07-0.53-1.51c-1.51-2.67-4-4.81-7.3-6.32
			c-3.11-1.42-6.58-2.14-10.23-2.14c-5.25,0-9.79,1.69-13.62,4.99c-3.82,3.28-5.79,7.47-5.79,12.46c0,4.89,1.78,8.72,5.43,11.65
			c3.3,2.67,8.27,4.53,14.76,5.69c2.41,0.26,4.36,0.8,5.79,1.51c1.86,0.98,2.76,2.49,2.76,4.44c0.09,1.88-0.9,3.39-2.76,4.53
			c-1.77,1.07-3.91,1.6-6.32,1.6c-4.44,0.09-7.91-1.6-10.4-5.07c-1.88-2.14-3.57-3.21-5.16-3.21c-0.72,0-1.52,0.18-2.5,0.63
			c-1.24,0.81-2.13,1.78-2.58,3.02c-0.17,0.63-0.26,1.16-0.26,1.78c0,0.89,0.26,1.78,0.72,2.76c1.51,3.19,4,5.86,7.56,7.91
			c3.74,2.14,7.83,3.21,12.27,3.21c5.78,0,10.58-1.69,14.59-5.16c3.82-3.3,5.86-7.83,5.86-12.55
			C1077.03,693.28,1075.35,689.56,1071.96,686.79z"/>
	</g>
	<g>
		<g>
			<g>
				<g>
					<path class="st2" d="M357.14,640.36l-0.27-1.06c0.05-0.06,0.09-0.11,0.13-0.18L357.14,640.36z"/>
				</g>
				<g>
					<path class="st2" d="M401.01,665.63c-18.93,30.06-50.79,51.6-88.82,56.06c-36.76,4.32-71.61-8.22-96.82-31.53l0.93-4.92
						l3.88-20.42l1.67-8.8l31.87,4.24v0.01h0.01l8.74,1.16c10.44,6.19,22.64,9.76,35.68,9.76c22.48,0,42.49-10.59,55.29-27.07
						l7.55,29.62l7.1-1.4l24.8-4.86l7.85-1.53c0.07-0.1,0.15-0.2,0.22-0.31L401.01,665.63z"/>
				</g>
			</g>
			<g>
				<path class="st1" d="M374.36,666.51l0.1-0.02c-0.01,0.01-0.03,0.03-0.05,0.05C374.4,666.52,374.38,666.51,374.36,666.51z"/>
				<path class="st1" d="M1085.72,503.06v42.01c0,45.86-37.56,82.86-82.85,82.86c-21.55,0-40.88-7.73-55.25-20.99
					c-14.91,13.26-34.24,20.99-55.23,20.99c-21.55,0-40.88-7.73-55.25-20.99c-14.91,13.26-34.25,20.99-55.25,20.99h-45.28
					c-20.99,0-40.34-7.73-55.25-20.99c-14.91,13.26-34.24,20.99-55.24,20.99h-44.74c-21.55,0-40.88-7.73-55.25-20.99
					c-14.91,13.26-34.24,20.99-55.23,20.99h-45.29c-2.98,0-5.92-0.16-8.82-0.47c-0.08,0.38-0.16,0.75-0.25,1.13
					c-0.01,0.01-0.01,0.03-0.02,0.06c-0.03,0.17-0.08,0.35-0.13,0.52c-0.09,0.4-0.19,0.8-0.3,1.18c-0.01,0.06-0.01,0.11-0.03,0.16
					c-0.1,0.44-0.23,0.9-0.34,1.34c-0.01,0.01-0.01,0.01-0.01,0.02c-0.1,0.4-0.22,0.81-0.32,1.2c-0.05,0.16-0.09,0.33-0.15,0.49
					c-0.01,0.03-0.01,0.07-0.02,0.1c-0.02,0.06-0.03,0.11-0.05,0.16c-0.02,0.08-0.05,0.16-0.07,0.24c-0.08,0.28-0.16,0.57-0.25,0.86
					c-0.01,0.05-0.02,0.09-0.03,0.14c-0.09,0.31-0.18,0.59-0.27,0.89c-0.1,0.38-0.23,0.75-0.34,1.11c-0.08,0.28-0.17,0.57-0.26,0.85
					c-0.01,0.03-0.02,0.07-0.03,0.1c0,0.01-0.01,0.02-0.01,0.03c-0.1,0.31-0.19,0.6-0.31,0.91c-0.01,0.06-0.02,0.1-0.05,0.15
					c-0.06,0.18-0.11,0.36-0.17,0.53c-0.07,0.17-0.13,0.35-0.18,0.53c-0.01,0.03-0.02,0.06-0.03,0.09l-0.61,1.74
					c-0.26,0.72-0.52,1.43-0.8,2.15c-0.3,0.78-0.6,1.56-0.92,2.32l-4.68,0.92l-0.22,0.03l-0.01,0.01l-18.66,3.66l-13.67,2.68
					l-7.29-28.67l-0.01-0.05l-0.39-1.52l-0.63-2.48c1.58-5.33,2.53-10.92,2.8-16.71c0.05-1.05,0.07-2.11,0.07-3.17
					c0-5.05-0.53-9.97-1.55-14.71c-3.02-14.14-10.31-26.69-20.46-36.23c-0.06-0.06-0.11-0.1-0.17-0.16
					c-0.01-0.01-0.01-0.01-0.02-0.01c-11.55-10.83-26.75-17.75-43.56-18.75l2.92-3.1l0.13-0.14l0.43-0.45l22.01-23.29l-20.83-21.98
					l-1.02-1.08l-1.11-1.17l-0.98-1.03c0.94,0.05,1.89,0.11,2.83,0.18h0.16c0.64,0.06,1.28,0.1,1.93,0.16
					c0.65,0.06,1.28,0.12,1.93,0.19c0.58,0.06,1.17,0.12,1.76,0.19c0.48,0.06,0.95,0.11,1.43,0.18c0.41,0.06,0.81,0.1,1.22,0.17
					c0.1,0.01,0.2,0.02,0.31,0.03c0.06,0.01,0.1,0.01,0.16,0.02c0.01,0,0.01,0.01,0.02,0.01c0.39,0.06,0.76,0.11,1.15,0.18
					c0.48,0.07,0.95,0.14,1.42,0.23c1.42,0.23,2.82,0.49,4.22,0.78c0.02,0,0.03,0,0.05,0.01c0.01,0,0.02,0,0.02,0
					c0.08,0.01,0.14,0.03,0.22,0.05c0.3,0.06,0.59,0.12,0.89,0.19c0.03,0,0.07,0.01,0.1,0.01c0.07,0.02,0.15,0.03,0.2,0.05
					c0.51,0.11,1.02,0.23,1.52,0.35c0.2,0.05,0.4,0.09,0.6,0.14c0.2,0.05,0.4,0.09,0.6,0.15c0.49,0.11,0.98,0.24,1.47,0.36
					c0.08,0.01,0.15,0.03,0.22,0.06c0.07,0.01,0.13,0.02,0.18,0.05c0.3,0.08,0.6,0.16,0.9,0.23c0.45,0.13,0.92,0.26,1.38,0.39
					c0.45,0.12,0.91,0.26,1.36,0.39c0.45,0.14,0.91,0.27,1.36,0.41c0.44,0.14,0.9,0.28,1.35,0.43c0.44,0.14,0.9,0.28,1.34,0.43
					c0.9,0.3,1.78,0.6,2.68,0.92c0.44,0.16,0.89,0.32,1.33,0.49c0.33,0.13,0.67,0.25,1,0.38c0.49,0.18,0.98,0.38,1.45,0.57
					c0.01,0,0.01,0,0.02,0.01l1.47,0.58c0.43,0.18,0.86,0.36,1.3,0.55l1.3,0.56c0.18,0.09,0.38,0.17,0.57,0.25
					c0.18,0.09,0.38,0.17,0.56,0.26c0.01,0,0.01,0,0.01,0s0,0,0.01,0c0.47,0.22,0.94,0.43,1.42,0.66c0.42,0.19,0.84,0.4,1.27,0.6
					c0.47,0.23,0.93,0.45,1.4,0.68c0.38,0.18,0.75,0.38,1.11,0.56c0.84,0.43,1.67,0.86,2.49,1.31c0.4,0.22,0.77,0.42,1.16,0.64
					c0.15,0.08,0.28,0.15,0.42,0.24c0.52,0.28,1.03,0.57,1.55,0.86c0.07,0.03,0.13,0.08,0.19,0.11c0.55,0.32,1.1,0.65,1.64,0.98
					c0.03,0.01,0.07,0.03,0.1,0.06c0.06,0.03,0.1,0.06,0.15,0.09c0.15,0.09,0.3,0.18,0.43,0.26c0.16,0.09,0.3,0.17,0.44,0.26
					c0.4,0.25,0.8,0.5,1.19,0.75c0.75,0.47,1.51,0.97,2.26,1.45c0.59,0.39,1.16,0.78,1.74,1.18c0.03,0.02,0.06,0.03,0.08,0.06
					c0.03,0.02,0.07,0.05,0.1,0.07c0.55,0.38,1.08,0.76,1.63,1.14c0.38,0.27,0.76,0.55,1.14,0.83c0.03,0.02,0.07,0.05,0.1,0.07
					c0.36,0.26,0.72,0.53,1.07,0.8c0.36,0.27,0.72,0.53,1.07,0.82c0.38,0.28,0.74,0.57,1.1,0.85c0.38,0.3,0.74,0.58,1.1,0.88
					c0.18,0.14,0.35,0.3,0.55,0.43c0.18,0.15,0.35,0.3,0.53,0.44c0.36,0.3,0.72,0.6,1.08,0.9c0.35,0.31,0.7,0.6,1.07,0.91
					c0.35,0.31,0.7,0.61,1.05,0.92c0.7,0.62,1.4,1.25,2.08,1.88c0.34,0.32,0.69,0.64,1.02,0.97c0.36,0.33,0.72,0.67,1.07,1.01
					c0.31,0.28,0.6,0.58,0.89,0.88c0.06,0.06,0.11,0.1,0.17,0.16c0.3,0.3,0.59,0.59,0.89,0.9c0.33,0.33,0.65,0.66,0.98,1
					c0.32,0.33,0.65,0.67,0.97,1.01c0.33,0.34,0.65,0.68,0.95,1.02c0.47,0.51,0.93,1.02,1.39,1.55c0.05,0.03,0.08,0.08,0.12,0.12
					c0.3,0.33,0.59,0.67,0.89,1.01c0.06,0.06,0.1,0.12,0.16,0.18c0.06,0.07,0.11,0.14,0.17,0.2c0.19,0.2,0.36,0.42,0.55,0.64
					c0.34,0.4,0.69,0.81,1.02,1.22c0.22,0.26,0.42,0.51,0.62,0.76c0.2,0.26,0.41,0.51,0.63,0.76c0.06,0.08,0.13,0.17,0.18,0.25
					c0.35,0.43,0.69,0.88,1.03,1.32c0.28,0.35,0.57,0.73,0.84,1.09c0.14,0.18,0.27,0.36,0.41,0.55c0.15,0.19,0.27,0.37,0.41,0.56
					c0.33,0.44,0.66,0.88,0.97,1.33c0.5,0.69,1,1.4,1.49,2.1c0.25,0.36,0.5,0.74,0.75,1.11c0.37,0.56,0.74,1.12,1.1,1.68
					c0.32,0.49,0.63,0.98,0.93,1.47c0.2,0.32,0.41,0.64,0.6,0.97c0.24,0.39,0.48,0.77,0.7,1.17c0.06,0.08,0.1,0.16,0.15,0.24
					c0.66,1.11,1.31,2.24,1.93,3.36c0.15,0.28,0.31,0.57,0.47,0.85c0.14,0.26,0.27,0.52,0.41,0.78c0.13,0.2,0.23,0.42,0.34,0.64
					c0.1,0.2,0.22,0.41,0.33,0.63c0.01,0.02,0.02,0.05,0.03,0.07c0.16,0.32,0.32,0.62,0.48,0.93c0.13,0.26,0.26,0.53,0.4,0.8
					c0.02,0.04,0.05,0.09,0.06,0.14c0.18,0.34,0.35,0.68,0.51,1.03c0.03,0.07,0.07,0.15,0.1,0.22c0.53,1.1,1.03,2.19,1.53,3.31
					c0.11,0.26,0.23,0.52,0.34,0.78c0.01,0.05,0.03,0.09,0.06,0.14c0.15,0.35,0.3,0.69,0.44,1.05c0.03,0.06,0.06,0.11,0.07,0.16
					c0.1,0.22,0.19,0.43,0.27,0.66c0.09,0.22,0.18,0.44,0.27,0.66c0.3,0.72,0.58,1.43,0.85,2.16c0.22,0.53,0.42,1.07,0.61,1.61
					c0.02,0.06,0.05,0.11,0.07,0.17c0.1,0.3,0.22,0.59,0.32,0.9c0.17,0.47,0.33,0.93,0.49,1.4c0.14,0.39,0.26,0.76,0.39,1.15
					c0.1,0.28,0.19,0.58,0.28,0.86c0.03,0.07,0.05,0.14,0.07,0.2c0.14,0.4,0.26,0.8,0.39,1.2c0.09,0.3,0.19,0.6,0.28,0.91v0.03
					c0.18,0.58,0.35,1.17,0.52,1.76c0.09,0.31,0.17,0.61,0.26,0.92c0.07,0.25,0.14,0.51,0.2,0.76c0.02,0.09,0.05,0.16,0.07,0.25
					c0.07,0.24,0.13,0.48,0.19,0.72c0.07,0.25,0.14,0.51,0.19,0.76c0.05,0.16,0.08,0.33,0.12,0.5c4.27,1.43,8.11,1.62,9.56,1.67
					h45.29c14.91,0,27.62-12.16,27.62-27.63V503.3c0.02-15.27,12.34-27.58,27.62-27.58c15.29,0,27.61,12.31,27.63,27.58v41.77
					c0,15.47,12.15,27.63,27.62,27.63h44.74c15.47,0,27.62-12.16,27.62-27.63V356.76c0-15.47,12.15-27.63,27.62-27.63
					c15.47,0,27.62,12.16,27.62,27.63v188.31c0,15.47,12.16,27.63,27.63,27.63h45.28c14.92,0,27.63-12.16,27.63-27.63v-41.99
					c0-15.29,12.33-27.62,27.62-27.62c15.14,0,27.37,12.07,27.62,27.14v42.47c0,15.47,12.16,27.63,27.63,27.63
					c14.91,0,27.62-12.16,27.62-27.63v-42.01c0-15.3,12.33-27.62,27.62-27.62c15.29,0,27.62,12.32,27.62,27.62v42.01
					c0,15.47,12.16,27.63,27.63,27.63c14.91,0,27.62-12.16,27.62-27.63v-42.01c0-15.3,12.33-27.62,27.62-27.62
					C1073.4,475.44,1085.72,487.76,1085.72,503.06z"/>
			</g>
			<g>
				<g>
					<polygon class="st3" points="214.93,689.75 214.93,689.77 214.82,689.66 					"/>
				</g>
				<g>
					<path class="st3" d="M304.4,504.37l-23.19,24.52l-1.44,1.53l-0.17,0.18l-4.09,4.33c-9.61,3.27-18.29,8.59-25.5,15.45
						c-2.89,2.74-5.54,5.72-7.92,8.9c-7.17,9.57-11.94,21.03-13.43,33.49c-0.34,2.76-0.51,5.57-0.51,8.42
						c0,4.56,0.43,9.01,1.27,13.33c1.97,10.21,6.15,19.63,12.02,27.73l-32.69-4.35l-1.89,9.94l-5.19,27.4l-0.01-0.01
						c-1.03-1.33-2.05-2.69-3.03-4.07c-0.01-0.02-0.03-0.05-0.05-0.07c-0.03-0.06-0.07-0.11-0.11-0.17
						c-0.39-0.55-0.77-1.09-1.14-1.65c-0.08-0.1-0.15-0.22-0.23-0.33c-0.01-0.01-0.02-0.02-0.02-0.03
						c-6.33-9.35-11.41-19.67-14.97-30.75c-0.58-1.77-1.11-3.57-1.6-5.39c-1.57-5.76-2.73-11.72-3.44-17.82
						c-1.65-14.07-0.84-27.86,2.1-40.93v-0.01c0.06-0.26,0.13-0.52,0.18-0.78c1.73-7.48,4.15-14.71,7.22-21.62
						c15.58-35.29,47.55-62.3,87.4-70.27c2.46-0.49,4.93-0.91,7.44-1.25l0.82,0.88l0.93,0.98l0.9,0.96l0.01,0.01L304.4,504.37z"/>
				</g>
			</g>
		</g>
		<g>
			<path class="st0" d="M356.99,639.12l0.15,1.24l-0.27-1.06C356.91,639.25,356.96,639.19,356.99,639.12z"/>
			<path class="st0" d="M406.15,647.4l-0.22,0.03l-0.01,0.01l-18.66,3.66l-13.67,2.68l-7.29-28.67l-0.01-0.05l-0.39-1.52l-0.63-2.48
				c-0.76,2.6-1.68,5.14-2.74,7.6c-0.06,0.16-0.14,0.32-0.2,0.48c-1.51,3.49-3.31,6.82-5.35,9.98l0.15,1.24l-0.27-1.06
				c-1.07,1.66-2.22,3.26-3.43,4.82l7.55,29.62l7.1-1.4l24.8-4.86l7.85-1.53c0.07-0.1,0.15-0.2,0.22-0.31
				c1.11-1.86,2.1-3.53,2.9-4.91c1.2-2.07,2-3.48,2.22-3.9c0.27-0.53,0.49-0.96,0.49-0.96c0.17-0.34,0.34-0.68,0.51-1.02
				c0.1-0.2,0.2-0.42,0.32-0.64c0.2-0.43,0.42-0.86,0.63-1.3c0.01-0.02,0.02-0.06,0.03-0.08c0.14-0.3,0.27-0.58,0.41-0.86
				c0.01-0.05,0.03-0.09,0.06-0.13c0.02-0.06,0.06-0.12,0.08-0.18c0.02-0.05,0.05-0.1,0.07-0.16v-0.01
				c0.14-0.27,0.26-0.54,0.39-0.83l0.38-0.85c0.25-0.56,0.5-1.13,0.74-1.69c0-0.01,0.01-0.01,0.01-0.02
				c0.23-0.55,0.45-1.08,0.67-1.63L406.15,647.4z M374.41,666.54c-0.01-0.01-0.03-0.02-0.06-0.02l0.1-0.02
				C374.45,666.5,374.42,666.53,374.41,666.54z"/>
			<path class="st0" d="M356.99,639.12l0.15,1.24l-0.27-1.06C356.91,639.25,356.96,639.19,356.99,639.12z"/>
			<path class="st0" d="M374.36,666.51l0.1-0.02c-0.01,0.01-0.03,0.03-0.05,0.05C374.4,666.52,374.38,666.51,374.36,666.51z"/>
		</g>
		<g>
			<path class="st0" d="M262.61,661.45l-0.15-0.01l-8.74-1.16h-0.01v-0.01l-31.87-4.24l-1.67,8.8l-3.88,20.42l-0.93,4.92l-0.44-0.4
				v-0.01l-0.1-0.09c-1.15-1.12-2.19-2.16-3.13-3.1c-0.89-0.88-1.66-1.68-2.33-2.38c-0.98-1-1.7-1.8-2.18-2.32
				c-1.03-1.15-1.99-2.27-1.99-2.27c-0.43-0.51-0.86-1.02-1.28-1.53c-0.39-0.47-0.76-0.93-1.14-1.4c-0.36-0.47-0.74-0.94-1.1-1.42
				l5.19-27.4l1.89-9.94l32.69,4.35c1.2,1.67,2.49,3.27,3.83,4.82c1.9,2.19,3.93,4.26,6.09,6.19c1.08,0.98,2.19,1.92,3.33,2.82
				c2.26,1.8,4.65,3.46,7.13,4.97c0.02,0.01,0.05,0.02,0.07,0.03C262.12,661.2,262.36,661.32,262.61,661.45z"/>
		</g>
	</g>
</g>
</svg>
